<?xml version="1.0" encoding="utf-8"?>
<!-- Generator: Adobe Illustrator 19.2.1, SVG Export Plug-In . SVG Version: 6.00 Build 0)  -->
<svg version="1.0" id="圖層_1" xmlns="http://www.w3.org/2000/svg" xmlns:xlink="http://www.w3.org/1999/xlink" x="0px" y="0px"
	 viewBox="0 0 50 50" style="enable-background:new 0 0 50 50;" xml:space="preserve">
<style type="text/css">
	.st0{fill:#7ABC34;}
</style>
<g>
	<g>
		<path class="st0" d="M42.9,12.7l1.7-3.5C45,8.6,44.7,7.8,44,7.5c-0.6-0.3-1.4-0.1-1.8,0.6l-1.7,3.5c-1.2-0.6-2.7-0.4-3.6,0.6
			L32,17.1c-0.3,0.3-0.4,0.7-0.4,1.1c0.1,0.4,0.3,0.8,0.7,1l0.9,0.4c-0.2,0.9-0.7,2.5-1.8,4.2c-0.3,0.5-0.6,1-1,1.4
			c-0.2-1.9-1.1-3.5-2.6-4.8l0.2-0.1c0.5-0.2,0.8-0.8,0.7-1.3c-0.1-0.5-0.5-1-1-1.1l-8.5-2.1v-3.7c0-0.7-0.6-1.3-1.3-1.3
			c-0.7,0-1.3,0.6-1.3,1.3v3.7l-8.5,2.1c-0.5,0.1-0.9,0.6-1,1.1s0.2,1.1,0.7,1.3L8,20.4c-1.7,1.5-2.7,3.5-2.7,5.8
			c0,2.7,1.3,5.6,3.7,7.7c1.3,1.2,2.7,2.1,4.2,2.7c-0.4,0.6-0.6,1.2-0.7,1.9c-0.2,2.8,2.7,4.6,3.6,5.1c0.9,0.5,2.6,1,4.8,1
			c1.6,0,3.5-0.3,5.5-1.1c2.9-1.2,5.6-3.4,8-6.5c2.6-3.4,4.8-7.9,6.6-13.4l0,0c0.4,0.4,0.9,0.5,1.3,0.3c0.5-0.2,0.8-0.6,0.9-1.1
			l1-6.9C44.8,14.6,44.1,13.3,42.9,12.7L42.9,12.7z M16.7,18.5v0.7c0,0.7,0.6,1.3,1.3,1.3c0.7,0,1.3-0.6,1.3-1.3v-0.7l4.4,1.1
			l-1.6,0.8c-0.4,0.2-0.7,0.7-0.7,1.2v2.6l-2.8-1.4c-0.2-0.1-0.4-0.1-0.6-0.1s-0.4,0-0.6,0.1l-2.8,1.4v-2.6c0-0.5-0.3-1-0.7-1.2
			l-1.6-0.8L16.7,18.5z M8.1,26.2c0-2,1.1-3.4,2.7-4.4l1.1,0.6v3.9c0,0.5,0.2,0.9,0.6,1.1c0.4,0.2,0.9,0.3,1.3,0.1l4.2-2.1l4.2,2.1
			c0.2,0.1,0.4,0.1,0.6,0.1s0.5-0.1,0.7-0.2c0.4-0.2,0.6-0.7,0.6-1.1v-3.9l1.1-0.6c1.6,1,2.7,2.5,2.7,4.4c0,0.7-0.1,1.4-0.4,2.1
			c-1.8,1.4-3.8,2.6-6.2,3.4c-2.5,0.9-4.4,1.8-5.8,2.8C11.2,33.5,8.1,29.6,8.1,26.2L8.1,26.2z M25.7,41.1c-3.9,1.6-7.1,0.7-8.1,0.2
			c-1.2-0.6-2.3-1.7-2.3-2.6c0-0.5,0.6-2.3,6.8-4.5c6.5-2.3,9.9-6.3,11.6-9.2c0.5-0.9,0.9-1.8,1.2-2.5l0.2,0.6
			c0.1,0.4,0.5,0.7,0.9,0.8c0.1,0,0.3,0.1,0.4,0.1c0.3,0,0.6-0.1,0.8-0.3l1.7-1.3C35,34.9,29.6,39.5,25.7,41.1L25.7,41.1z M42,15.6
			l-0.6,4.3l-0.7-0.7c-0.5-0.5-1.2-0.5-1.7-0.1l-1.9,1.5l-0.6-1.8c-0.1-0.3-0.3-0.6-0.7-0.8l-0.7-0.4l3.6-3.7
			c0.2-0.2,0.4-0.2,0.6-0.1l2.3,1.2C41.9,15.2,42,15.4,42,15.6L42,15.6z"/>
	</g>
</g>
</svg>
