<?xml version="1.0" encoding="utf-8"?>
<!-- Generator: Adobe Illustrator 19.2.1, SVG Export Plug-In . SVG Version: 6.00 Build 0)  -->
<svg version="1.0" id="圖層_1" xmlns="http://www.w3.org/2000/svg" xmlns:xlink="http://www.w3.org/1999/xlink" x="0px" y="0px"
	 viewBox="0 0 50 50" style="enable-background:new 0 0 50 50;" xml:space="preserve">
<style type="text/css">
	.st0{fill:#7ABC34;}
	.st1{fill:#FFFFFF;}
</style>
<g>
	<g>
		<path class="st0" d="M40.9,6.6c-0.8,0-1.4,0.6-1.4,1.4v15.5h-5.3l1.5,2.9h3.7v12H9.1c-0.8,0-1.4,0.6-1.4,1.4
			c0,0.8,0.6,1.4,1.4,1.4h31.8c0.8,0,1.4-0.6,1.4-1.4V8.1C42.3,7.3,41.7,6.6,40.9,6.6L40.9,6.6z"/>
	</g>
	<path class="st0" d="M14.4,35.5H32c3.6-0.2,3.7-3.2,3-4.4l-6.7-12.6H18.2l-6.7,12.6C10.1,34,13.1,35.6,14.4,35.5L14.4,35.5z"/>
	<path class="st0" d="M18.3,12.4L18.3,12.4v3.1h9.8v-3.1l0,0c0.8,0,1.4-0.6,1.4-1.4c0-0.8-0.6-1.4-1.4-1.4h-9.8
		c-0.8,0-1.4,0.6-1.4,1.4C16.9,11.7,17.5,12.4,18.3,12.4L18.3,12.4z"/>
</g>
<polygon class="st1" points="25.4,29.3 23,30.7 21,29.3 21,24.8 20.6,24.1 25.8,24.1 25.4,24.9 "/>
<rect x="20.7" y="22.9" class="st1" width="5" height="0.5"/>
</svg>
