<?xml version="1.0" encoding="utf-8"?>
<!-- Generator: Adobe Illustrator 19.2.1, SVG Export Plug-In . SVG Version: 6.00 Build 0)  -->
<svg version="1.0" id="圖層_1" xmlns="http://www.w3.org/2000/svg" xmlns:xlink="http://www.w3.org/1999/xlink" x="0px" y="0px"
	 viewBox="0 0 50 50" style="enable-background:new 0 0 50 50;" xml:space="preserve">
<style type="text/css">
	.st0{fill:#7ABC34;}
</style>
<g>
	<g>
		<path class="st0" d="M42.7,20c-0.1-0.2-0.4-0.4-0.6-0.4h-3.3c-0.3,0-0.6,0.2-0.6,0.4c-0.1,0.2-0.1,0.5-0.2,0.7l-2.2-6
			c-0.4-1-1.3-1.7-2.4-1.7H16.8c-1.1,0-2,0.7-2.4,1.7l-2.2,6c0-0.2-0.1-0.4-0.2-0.7c-0.1-0.2-0.4-0.4-0.6-0.4H8.1
			c-0.3,0-0.6,0.2-0.6,0.4c-0.3,1-0.3,1.5,0,2.5c0.1,0.2,0.4,0.4,0.6,0.4h3.3l0,0V23c-0.7,0.2-1.1,0.8-1.1,1.6v11.1
			c0,0.4,0.4,0.8,0.8,0.8h4c0.4,0,0.8-0.4,0.8-0.8v-3.9h18.5v3.9c0,0.4,0.4,0.8,0.8,0.8h4c0.4,0,0.8-0.4,0.8-0.8v-11
			c0-0.7-0.5-1.4-1.1-1.6V23l0,0h3.3c0.3,0,0.6-0.2,0.6-0.4C43.1,21.5,43,21,42.7,20L42.7,20z M17.1,15.9h16.1l2.5,7H14.5L17.1,15.9
			z M17.5,27.9h-3.4c-0.7,0-1.3-0.6-1.3-1.3c0-0.7,0.6-1.3,1.3-1.3h3.4c0.7,0,1.3,0.6,1.3,1.3C18.8,27.4,18.3,27.9,17.5,27.9
			L17.5,27.9z M36.1,27.9h-3.4c-0.7,0-1.3-0.6-1.3-1.3c0-0.7,0.6-1.3,1.3-1.3h3.4c0.7,0,1.3,0.6,1.3,1.3
			C37.4,27.4,36.8,27.9,36.1,27.9L36.1,27.9z"/>
	</g>
</g>
</svg>
