<?xml version="1.0" encoding="utf-8"?>
<!-- Generator: Adobe Illustrator 19.2.1, SVG Export Plug-In . SVG Version: 6.00 Build 0)  -->
<svg version="1.0" id="圖層_1" xmlns="http://www.w3.org/2000/svg" xmlns:xlink="http://www.w3.org/1999/xlink" x="0px" y="0px"
	 viewBox="0 0 50 50" style="enable-background:new 0 0 50 50;" xml:space="preserve">
<style type="text/css">
	.st0{fill:#7ABC34;}
</style>
<g>
	<path class="st0" d="M25.2,18.8c0,0-1.9-2.5-4.6-3c-2.6-0.6-5.4,0.6-6.4,1.9s-1.8,2.2-1.3,3.2c0.6,0.9,3,3.8,4.5,5.3
		c1.5,1.5,7,7.7,7.4,8.1s0.6,0.9,0.2,1.3c-0.4,0.3-0.9,0.3-1.2,0c-0.3-0.3-2.4-2.4-2.8-2.8c-0.4-0.5-0.9-0.7-1.2-0.4
		c-0.3,0.3-0.3,0.7,0.1,1.2c0.5,0.5,2.8,2.7,3.7,3.2c1,0.6,1.5,0.9,2.5,0.5s2.3-1.2,3.3-2.1c1-0.9,2-2.3,2.8-1.5
		c0.8,0.7-0.5,1.6-0.8,1.9c-0.3,0.3-2.1,2-3.1,2.6c-1,0.7-2.8,1.7-4.3,0.9c-1.5-0.7-2.9-1.7-3.6-2.3s-3-2.8-4.5-4.6S12.6,28,12,26.9
		c-0.7-1.2-1.8-3.2-1.6-4.8c0.2-1.5,1-4.1,2.6-5.6c1.6-1.4,4-2.7,6.7-2.4c2.7,0.2,4.7,1.7,5.4,2.4c0,0,2.1-2,4.3-2.3s4.6-0.1,6.3,1
		c1.6,1.1,2.3,1.8,3.1,3.2c0.9,1.4,1.5,4,0.9,5.5S38,27.3,38,27.3l0.7,0.6c0,0-1.7,2.7-2.1,3c-0.4,0.4-0.8,0.6-1.3,0.4l-1,1.4
		L34,32.6l1-1.5l-1-1l-1,1.4l-0.2-0.1l1-1.4c0,0-0.6-0.8-0.2-1.3c0.4-0.5,2.2-3.1,2.2-3.1l1,0.6c0,0,1.4-2,1.5-3.1s0.1-3-1.2-4.6
		C35.9,17,35,16.2,33,15.7c-2-0.5-4,0.1-4.6,0.4C27.8,16.5,26.3,17.5,25.2,18.8z"/>
	<path class="st0" d="M21.5,25.4c0,0-0.6-1-1.6-0.8c0,0,0.5,0.6,0.5,1.3c0,0.7-0.1,2.7,0.9,3.7s2.3,1.9,3.9,1.9c0,0-2.3-0.1-2.4-2.4
		s0.7-2.7,1.4-3.6c0.7-0.9,1.3-2,1.3-2s0.6,1.1,1.2,1.9c0.6,0.7,1.7,2,1.5,3.2c-0.1,1.3-0.3,2.5-2.3,2.9c0,0,2.6-0.1,3.7-1.6
		s1.9-4.6-0.2-7c0,0-0.1,1.7-0.9,2.1c0,0,0.5-1.9-1-3.5C26,20,24.7,19,23.9,18.9c0,0,0.3,1.5-0.1,2.3s-1.2,1.6-1.6,2.3
		C21.9,24.2,21.6,25.1,21.5,25.4z"/>
</g>
</svg>
