<?xml version="1.0" encoding="utf-8"?>
<!-- Generator: Adobe Illustrator 19.2.1, SVG Export Plug-In . SVG Version: 6.00 Build 0)  -->
<svg version="1.0" id="圖層_1" xmlns="http://www.w3.org/2000/svg" xmlns:xlink="http://www.w3.org/1999/xlink" x="0px" y="0px"
	 viewBox="0 0 50 50" style="enable-background:new 0 0 50 50;" xml:space="preserve">
<style type="text/css">
	.st0{fill:#7ABC34;}
</style>
<g>
	<g>
		<path class="st0" d="M26.3,17.3l-2.9-2.9v-3.3c0-0.6-0.5-1.1-1.1-1.1s-1.1,0.5-1.1,1.1v1.1l-2.1-2.1c-1-1-2.9-1-3.9,0l-7.1,7.1
			c-0.4,0.4-0.4,1.1,0,1.5c0.4,0.4,1.1,0.4,1.5,0l7.1-7.1c0.2-0.2,0.6-0.2,0.9,0l7.1,7.1c0.2,0.2,0.5,0.3,0.8,0.3s0.6-0.1,0.8-0.3
			C26.8,18.4,26.8,17.8,26.3,17.3L26.3,17.3z"/>
	</g>
	<path class="st0" d="M17.6,13.8c-0.2-0.2-0.5-0.2-0.7,0L10.6,20c-0.1,0.1-0.2,0.2-0.2,0.4V25c0,1.1,0.9,1.9,1.9,1.9h3.1v-4.8H19
		v4.8h3.1c1.1,0,1.9-0.9,1.9-1.9v-4.6c0-0.1-0.1-0.3-0.2-0.4L17.6,13.8z"/>
</g>
<g>
	<g>
		<path class="st0" d="M39.6,10l-7.4,14.4h0.1c0.3,0.1,0.6,0.2,0.9,0.4c0.3,0.2,0.6,0.4,0.9,0.6L41.5,11c0.3-0.5,0.1-1.2-0.5-1.5
			C40.5,9.3,39.8,9.5,39.6,10L39.6,10z"/>
		<path class="st0" d="M15,36.7c1.2,1.1,2.6,2,4.3,2.8c2.8,1.3,5.3,1.7,5.4,1.7l0,0h0.1l0,0c3-0.1,5.3-1.1,6.9-3
			c2.1-2.4,2.9-6.1,2.7-9.3c0-0.9-0.4-1.8-1-2.5l-0.1-0.1c-0.2-0.2-0.5-0.4-0.7-0.5s-0.5-0.2-0.7-0.3c-0.1,0-0.2-0.1-0.3-0.1
			c-0.1,0-0.3,0-0.4,0c-1,0-2,0.7-2.8,1.3c-0.8,0.7-1.6,1.4-2.5,2c-1,0.6-2.1,1-3.2,1.3c-1.4,0.4-2.9,0.7-4.4,0.8
			c-1.3,0.1-2.7,0.2-4,0.2c-0.5,0-1.1,0-1.6,0h-0.1c0,0,0,0-0.1,0c-0.2,0-0.4,0.1-0.6,0.3c-0.2,0.2-0.2,0.5-0.1,0.7
			C12.5,33.8,13.5,35.3,15,36.7L15,36.7z M14,32.6L14,32.6c0.1,0,0.2,0,0.2,0c1.1,0,2.6,0,4.3-0.2c3.6-0.4,6.5-1.3,8.7-2.6
			c0.1,0,0.1-0.1,0.2-0.1s0.1,0,0.2,0c1.3,0.7,3.3,1.8,4.7,2.3c0.2,0.1,0.3,0.2,0.3,0.4c-0.2,1.5-0.7,3.4-1.9,4.8
			c-1.3,1.5-3.2,2.3-5.7,2.4l0,0h-0.1c-0.3,0-0.9-0.2-1.7-0.4c0.2-0.1,0.5-0.2,0.7-0.4c0.2-0.1,0.4-0.3,0.7-0.4
			c0.7-0.4,1.3-0.9,1.9-1.4c0.1-0.1,0-0.3-0.1-0.2c-1.1,0.5-2.6,0.8-3.9,1C22,38,21.6,38,21.3,38.1c-0.4,0.1-0.8,0.1-1.1,0.1
			c-0.1,0-0.2-0.1-0.2-0.1c-0.7-0.3-1.4-0.7-2-1.1c0.3,0,0.6-0.1,0.8-0.1c0.3-0.1,0.5-0.1,0.8-0.2c0.8-0.2,1.5-0.5,2-0.7
			c0.1,0,0.1-0.2,0-0.2c-1,0.2-2.3,0.2-3.4,0.2c-0.4,0-0.7,0-1,0c-0.4,0-0.7,0-0.9,0c-0.1-0.1-0.2-0.2-0.4-0.3
			c-0.2-0.1-0.3-0.3-0.4-0.4c0.2,0,0.4-0.1,0.7-0.1c0.2,0,0.4-0.1,0.6-0.1c0.9-0.2,1.7-0.5,2.2-0.7c0.1,0,0.1-0.2,0-0.2
			c-0.9,0.1-2,0.1-3,0.1c-0.3,0-0.5,0-0.7,0c-0.3,0-0.5,0-0.7,0c-0.3-0.4-0.6-0.8-0.8-1.2C13.7,32.7,13.8,32.6,14,32.6L14,32.6z"/>
	</g>
	<path class="st0" d="M39.5,36.3c0,1-0.8,1.7-1.7,1.7c-1,0-1.7-0.8-1.7-1.7c0-1,0.8-1.7,1.7-1.7C38.7,34.5,39.5,35.3,39.5,36.3
		L39.5,36.3z"/>
	<path class="st0" d="M34.9,40.2c0,0.5-0.4,0.9-0.9,0.9s-0.9-0.4-0.9-0.9s0.4-0.9,0.9-0.9S34.9,39.8,34.9,40.2L34.9,40.2z"/>
	<path class="st0" d="M39.7,40c0,0.5-0.4,0.9-0.9,0.9s-0.9-0.4-0.9-0.9s0.4-0.9,0.9-0.9C39.3,39.2,39.7,39.6,39.7,40L39.7,40z"/>
</g>
</svg>
