<?xml version="1.0" encoding="utf-8"?>
<!-- Generator: Adobe Illustrator 19.2.1, SVG Export Plug-In . SVG Version: 6.00 Build 0)  -->
<svg version="1.0" id="圖層_1" xmlns="http://www.w3.org/2000/svg" xmlns:xlink="http://www.w3.org/1999/xlink" x="0px" y="0px"
	 viewBox="0 0 50 50" style="enable-background:new 0 0 50 50;" xml:space="preserve">
<style type="text/css">
	.st0{fill:#7ABC34;}
</style>
<g>
	<path class="st0" d="M25.8,25.3c0.5,0,1-0.2,1.4-0.6s0.6-0.9,0.6-1.4v-10c0-0.5-0.2-1-0.6-1.4s-0.9-0.6-1.4-0.6s-1,0.2-1.4,0.6
		c-0.4,0.4-0.6,0.9-0.6,1.4v10c0,0.5,0.2,1,0.6,1.4C24.8,25.1,25.3,25.3,25.8,25.3L25.8,25.3z"/>
	<path class="st0" d="M36.6,19.9c-0.8-1.7-2-3.1-3.6-4.2c-0.4-0.3-0.9-0.5-1.5-0.4c-0.6,0.1-1,0.3-1.3,0.8c-0.3,0.4-0.5,0.9-0.4,1.5
		c0.1,0.5,0.3,1,0.8,1.3c1,0.8,1.8,1.7,2.4,2.8c0.6,1.1,0.8,2.3,0.8,3.6c0,1.1-0.2,2.1-0.6,3.1c-0.4,1-1,1.8-1.7,2.6
		c-0.7,0.7-1.6,1.3-2.6,1.7s-2,0.6-3.1,0.6s-2.1-0.2-3.1-0.6c-1-0.4-1.8-1-2.6-1.7c-0.7-0.7-1.3-1.6-1.7-2.6c-0.4-1-0.6-2-0.6-3.1
		c0-1.3,0.3-2.5,0.8-3.6c0.6-1.1,1.4-2.1,2.4-2.8c0.4-0.3,0.7-0.8,0.8-1.3c0.1-0.5,0-1-0.4-1.5c-0.3-0.4-0.8-0.7-1.3-0.8
		s-1,0.1-1.5,0.4c-1.5,1.1-2.7,2.6-3.6,4.2c-0.8,1.7-1.3,3.5-1.3,5.4c0,1.6,0.3,3.2,1,4.7c0.6,1.5,1.5,2.8,2.6,3.8
		c1.1,1.1,2.4,1.9,3.8,2.6c1.5,0.6,3,1,4.7,1c1.6,0,3.2-0.3,4.7-1c1.5-0.6,2.8-1.5,3.8-2.6c1.1-1.1,1.9-2.4,2.6-3.8
		c0.6-1.5,1-3,1-4.7C37.9,23.4,37.4,21.6,36.6,19.9L36.6,19.9z"/>
</g>
</svg>
