<?xml version="1.0" encoding="utf-8"?>
<!-- Generator: Adobe Illustrator 19.2.1, SVG Export Plug-In . SVG Version: 6.00 Build 0)  -->
<svg version="1.0" id="圖層_1" xmlns="http://www.w3.org/2000/svg" xmlns:xlink="http://www.w3.org/1999/xlink" x="0px" y="0px"
	 viewBox="0 0 50 50" style="enable-background:new 0 0 50 50;" xml:space="preserve">
<style type="text/css">
	.st0{fill:#7ABC34;}
</style>
<g>
	<path class="st0" d="M41.8,21.9H40v-5c0-0.4-0.3-0.7-0.7-0.7H12.5c-0.4,0-0.7,0.3-0.7,0.7v5H10c-0.4,0-0.7,0.3-0.7,0.7v10.7
		c0,0.4,0.3,0.7,0.7,0.7h1.7v1.2c0,0.4,0.3,0.7,0.7,0.7s0.7-0.3,0.7-0.7V34h25.3v1.2c0,0.4,0.3,0.7,0.7,0.7s0.7-0.3,0.7-0.7V34h1.7
		c0.4,0,0.7-0.3,0.7-0.7V22.6C42.5,22.2,42.2,21.9,41.8,21.9L41.8,21.9z M13.2,17.6h25.3v4.2h-1.7c-0.4,0-0.7,0.3-0.7,0.7v5H15.7v-5
		c0-0.4-0.3-0.7-0.7-0.7h-1.7v-4.2H13.2z M41,32.6H10.8v-9.2h3.5v5c0,0.4,0.3,0.7,0.7,0.7h21.9c0.4,0,0.7-0.3,0.7-0.7v-5H41V32.6z"
		/>
</g>
</svg>
