<?xml version="1.0" encoding="utf-8"?>
<!-- Generator: Adobe Illustrator 19.2.1, SVG Export Plug-In . SVG Version: 6.00 Build 0)  -->
<svg version="1.0" id="圖層_1" xmlns="http://www.w3.org/2000/svg" xmlns:xlink="http://www.w3.org/1999/xlink" x="0px" y="0px"
	 viewBox="0 0 50 50" style="enable-background:new 0 0 50 50;" xml:space="preserve">
<style type="text/css">
	.st0{fill:#7ABC34;}
</style>
<g>
	<g>
		<path class="st0" d="M34.5,24.8l-4.1-4.1V16c0-0.8-0.7-1.5-1.5-1.5s-1.5,0.7-1.5,1.5v1.6l-3-3c-1.5-1.5-4.1-1.5-5.6,0L8.5,24.8
			c-0.6,0.6-0.6,1.6,0,2.2s1.6,0.6,2.2,0l10.2-10.2c0.3-0.3,0.9-0.3,1.2,0L32.3,27c0.3,0.3,0.7,0.5,1.1,0.5c0.4,0,0.8-0.1,1.1-0.5
			C35.1,26.3,35.1,25.4,34.5,24.8L34.5,24.8z"/>
	</g>
	<path class="st0" d="M22,19.7c-0.3-0.3-0.8-0.3-1.1,0L12,28.6c-0.1,0.1-0.2,0.3-0.2,0.5v6.5c0,1.5,1.2,2.8,2.8,2.8H19v-6.9h5v6.9
		h4.4c1.5,0,2.8-1.2,2.8-2.8v-6.5c0-0.2-0.1-0.4-0.2-0.5L22,19.7z"/>
</g>
<path class="st0" d="M39.3,33.5C39.2,33.5,39.2,33.5,39.3,33.5C39,33.1,38.5,32.9,38,33c-0.5,0.2-0.8,0.7-0.6,1.3
	c0.1,0.2,0.5,1.5,1.7,1.6c0.8,0.1,1.4-0.4,2-1.4c0.2-0.3,0.3-0.4,0.3-0.4c0.1,0,0.5,0.3,0.7,0.5c0.3,0.4,1,0.5,1.4,0.2
	c0.3-0.2,0.4-0.5,0.4-0.8c0-0.2-0.1-0.4-0.2-0.6c-0.1-0.1-1.1-1.4-2.4-1.3C40.7,32.1,39.9,32.4,39.3,33.5L39.3,33.5z"/>
<path class="st0" d="M39.3,26.9C39.2,26.9,39.2,26.9,39.3,26.9c-0.3-0.4-0.8-0.6-1.3-0.5c-0.5,0.2-0.8,0.7-0.6,1.3
	c0.1,0.2,0.5,1.5,1.7,1.6c0.8,0.1,1.4-0.4,2-1.4c0.2-0.3,0.3-0.4,0.3-0.4c0.1,0,0.5,0.3,0.7,0.5c0.3,0.4,1,0.5,1.4,0.2
	c0.3-0.2,0.4-0.5,0.4-0.8c0-0.2-0.1-0.4-0.2-0.6c-0.1-0.1-1.1-1.4-2.4-1.3C40.7,25.5,39.9,25.8,39.3,26.9L39.3,26.9z"/>
<path class="st0" d="M39.3,20.3C39.2,20.3,39.2,20.3,39.3,20.3c-0.3-0.4-0.8-0.6-1.3-0.5c-0.5,0.2-0.8,0.7-0.6,1.3
	c0.1,0.2,0.5,1.5,1.7,1.6c0.8,0.1,1.4-0.4,2-1.4c0.2-0.3,0.3-0.4,0.3-0.4c0.1,0,0.5,0.3,0.7,0.5c0.3,0.4,1,0.5,1.4,0.2
	c0.3-0.2,0.4-0.5,0.4-0.8c0-0.2-0.1-0.4-0.2-0.6c-0.1-0.1-1.1-1.4-2.4-1.3C40.7,18.9,39.9,19.1,39.3,20.3L39.3,20.3z"/>
</svg>
