<?xml version="1.0" encoding="utf-8"?>
<!-- Generator: Adobe Illustrator 19.2.1, SVG Export Plug-In . SVG Version: 6.00 Build 0)  -->
<svg version="1.0" id="圖層_1" xmlns="http://www.w3.org/2000/svg" xmlns:xlink="http://www.w3.org/1999/xlink" x="0px" y="0px"
	 viewBox="0 0 50 50" style="enable-background:new 0 0 50 50;" xml:space="preserve">
<style type="text/css">
	.st0{fill:#7ABC34;}
</style>
<g>
	<g>
		<path class="st0" d="M26.6,28.8L23.7,26v-3.3c0-0.6-0.5-1.1-1.1-1.1s-1.1,0.5-1.1,1.1v1.1l-2.1-2.1c-1-1-2.9-1-3.9,0l-7.1,7.1
			c-0.4,0.4-0.4,1.1,0,1.5c0.4,0.4,1.1,0.4,1.5,0l7.1-7.1c0.2-0.2,0.6-0.2,0.9,0l7.1,7.1c0.2,0.2,0.5,0.3,0.8,0.3s0.6-0.1,0.8-0.3
			C27,29.9,27,29.3,26.6,28.8L26.6,28.8z"/>
	</g>
	<path class="st0" d="M17.9,25.3c-0.2-0.2-0.5-0.2-0.7,0l-6.3,6.3c-0.1,0.1-0.2,0.2-0.2,0.4v4.6c0,1.1,0.9,1.9,1.9,1.9h3.1v-4.8h3.5
		v4.8h3.1c1.1,0,1.9-0.9,1.9-1.9V32c0-0.1-0.1-0.3-0.2-0.4L17.9,25.3z"/>
</g>
<path class="st0" d="M28.9,24.2c1,0.5,2.3,0.7,2.9,0.5v3.2c0,0.3,0.3,0.6,0.6,0.6l0,0c0.3,0,0.6-0.3,0.6-0.6l0.1-6
	c0.6-0.1,1.6-1.5,2-2.8c0.9-2.7,0.5-6,0.5-6s-2.5,2.9-3.1,5.2c0,0.1-0.1,0.2-0.1,0.4c0-0.1,0-0.2-0.1-0.3c-0.8-2.7-3.6-5.5-3.6-5.5
	s0.2,4.3,1,6.5c0.5,1.2,1.5,2.5,2.2,2.6v1.7c-0.4-0.6-1.1-1.2-1.7-1.6c-2.1-1.3-4.8-1.3-4.8-1.3S27,23.3,28.9,24.2L28.9,24.2z"/>
<path class="st0" d="M34.9,34.2c1,0.5,2.3,0.7,2.9,0.5v3.2c0,0.3,0.3,0.6,0.6,0.6l0,0c0.3,0,0.6-0.3,0.6-0.6l0.1-6
	c0.6-0.1,1.6-1.5,2-2.8c0.9-2.7,0.5-6,0.5-6s-2.5,2.9-3.1,5.2c0,0.1-0.1,0.2-0.1,0.4c0-0.1,0-0.2-0.1-0.3c-0.8-2.7-3.6-5.5-3.6-5.5
	s0.2,4.3,1,6.5c0.5,1.2,1.5,2.5,2.2,2.6v1.7c-0.4-0.6-1.1-1.2-1.7-1.6c-2.1-1.3-4.8-1.3-4.8-1.3S33,33.3,34.9,34.2L34.9,34.2z"/>
</svg>
