<svg xmlns="http://www.w3.org/2000/svg" xmlns:xlink="http://www.w3.org/1999/xlink" viewBox="0 0 309 86.2"><defs><linearGradient id="f4ed900c-cf92-4977-a3c3-f6296aaa3a5b" x1="1719.11" y1="128.82" x2="1719.11" y2="42.62" gradientUnits="userSpaceOnUse"><stop offset="0" stop-color="#692705"/><stop offset="1" stop-color="#823b00"/></linearGradient><radialGradient id="e2ab75e7-f15b-46f2-9b73-26a760643255" cx="1607.93" cy="29.93" r="299.03" gradientUnits="userSpaceOnUse"><stop offset="0" stop-color="#f59547"/><stop offset="1" stop-color="#a14c1f"/></radialGradient><radialGradient id="a9adb88f-af7a-4dc5-83ca-85000a61ec29" cx="1716.54" cy="78.33" r="252.77" gradientUnits="userSpaceOnUse"><stop offset="0" stop-color="#cfa04d"/><stop offset="1" stop-color="#fff"/></radialGradient><radialGradient id="a058392d-cfbd-406e-8b2b-b536466773c4" cx="1679.35" cy="53.47" r="266.14" xlink:href="#a9adb88f-af7a-4dc5-83ca-85000a61ec29"/><radialGradient id="a9e5221f-dd6e-4e68-9a6b-70010d57e006" cx="1600.43" cy="83.35" r="37.45" gradientUnits="userSpaceOnUse"><stop offset="0.35"/><stop offset="1" stop-color="#00b875"/></radialGradient><radialGradient id="ba5c3d8a-8955-4a4e-9470-619998b45d0c" cx="1622.67" cy="21.52" r="231.21" gradientUnits="userSpaceOnUse"><stop offset="0" stop-color="#a48a7b"/><stop offset="1" stop-color="#945534"/></radialGradient><linearGradient id="b0603265-3cfc-41d4-b90a-ce1558773244" x1="1719.39" y1="118.86" x2="1719.39" y2="47.68" gradientUnits="userSpaceOnUse"><stop offset="0" stop-color="#823b00"/><stop offset="1" stop-color="#692705"/></linearGradient><linearGradient id="a9e3c0f3-2cd1-4098-8a04-e28ef2df03e2" x1="1719.39" y1="114.86" x2="1719.39" y2="51.68" gradientUnits="userSpaceOnUse"><stop offset="0" stop-color="#f63"/><stop offset="1" stop-color="#f80"/></linearGradient><linearGradient id="ab52f27c-98c8-46a4-b6f1-16edcb08b9be" x1="1716.97" y1="88.84" x2="1713.41" y2="48.11" gradientUnits="userSpaceOnUse"><stop offset="0"/><stop offset="1" stop-color="#fc0"/></linearGradient><linearGradient id="b1820b43-891b-4469-a287-473b526e1242" x1="1729.16" y1="130.61" x2="1725.13" y2="84.48" gradientUnits="userSpaceOnUse"><stop offset="0" stop-color="#fc0"/><stop offset="1"/></linearGradient><linearGradient id="a84c4b25-af72-49fa-950d-ffb73bf3028f" x1="1714.31" y1="75.69" x2="1712.26" y2="52.2" gradientUnits="userSpaceOnUse"><stop offset="0"/><stop offset="1" stop-color="#fffaa1"/></linearGradient><linearGradient id="fdeb2be4-aaf6-4266-a583-78a61df56e84" x1="1725.3" y1="124.26" x2="1721" y2="83.34" gradientUnits="userSpaceOnUse"><stop offset="0" stop-color="#fff430"/><stop offset="1"/></linearGradient></defs><title>03_選擇遊戲主軸地圖</title><g style="isolation:isolate"><g id="bd73cf78-a95f-41c8-a963-778c8690d3a7" data-name="圖層 3"><path d="M1605.4,44.7c62.5-2.8,165-2.8,227.5,0,22.4,1,40.7,18.5,40.7,41s-18.3,40-40.7,41c-62.5,2.9-165,2.8-227.5,0-15.9-.7-29.7-9.6-36.4-22.8-.2-.2,3.1-2.1,5.2-2.9a22.5,22.5,0,0,0-6,1.4,40.3,40.3,0,0,1-3.6-16.7c0-22.5,18.4-40,40.8-41Z" transform="translate(-1564.6 -42.6)" fill-rule="evenodd" fill="url(#f4ed900c-cf92-4977-a3c3-f6296aaa3a5b)"/><path d="M1605.4,44.6c62.5-2.6,165-2.7,227.5,0,22.4,1,40.7,17.5,40.7,38.8s-18.3,37.8-40.7,38.8c-62.5,2.7-165,2.6-227.5,0-14.6-.6-27.5-7.8-34.7-18.7a17.7,17.7,0,0,1,7.1-3.2l-8.5.9a35.8,35.8,0,0,1-4.7-17.8c0-21.3,18.4-37.8,40.8-38.8Z" transform="translate(-1564.6 -42.6)" fill-rule="evenodd" fill="url(#e2ab75e7-f15b-46f2-9b73-26a760643255)"/><path d="M1587.9,48.8c11.2.5,22.3.7,33.5.4,22.5-.5,72-1.6,94.9-6.6h-15.8c-19.9,2.4-58.1,4.3-79.2,4.7-9.2.3-18.8,0-28.2-.6a32.8,32.8,0,0,0-5.2,2Zm-12.2,8.4c24.5,0,48.9-.7,73.3-3.1s67.6-4.9,91-9.5c1.9-.3,25.2-1.1,28.2-1.8h-31.3l-.8.2c-23.3,4.5-63.7,7.1-87.3,9.4s-47.4,2.5-69.9,2.1a29.2,29.2,0,0,0-3.2,2.8Zm-7.4,10.2a104,104,0,0,0,17.3-1.3,93.2,93.2,0,0,1,26.3-.9c20.6,1.7,51.1-4,68.9-6.4,13.6-1.9,22.5-1.1,38.3-4.6,11.6-2.5,43.1-5.2,54.8-6.7s21-2.8,31.6-3.6l3.7-.2-20.6-.5c-5,.4-10,1-15,1.7-19.4,2.5-58.3,7.8-77.6,10.7-5.2.7-10.4.5-15.5,1.2s-29,1.4-33.3,2.2c-12.8,2.4-22.4,3.5-35.3,3.1a213.5,213.5,0,0,0-26.5,1c-4.8.4-9.8.8-15.2,1-.7,1.1-1.3,2.2-1.9,3.3Zm253.6-23.2c9.9,1,18.4,3.3,28.9,4.8a46.7,46.7,0,0,0-17.9-4.4l-11-.4ZM1566,73.5c11.9-.5,23.9-.2,35.9-.6l17.9-.8c6-.4,11.9-.8,17.8-1.4,4.1-.3,8.4-.8,12.6-1.4,13.7-1.8,48.7-4.1,62-7.2,4.7-1.2,8.4-2.3,11.9-3.4,6.2-1.9,31.7-3.6,41.3-4.6,5.6-.6,11.4-.8,17.1-1.3,15-1.5,27.5-4.4,43.1-2.5,4.2.5,8.4,1.8,12.7,2.3,6.8.8,13.7,1.2,20.6,1.4-1.2-.9-2.4-1.8-3.7-2.6l-16.8-.8c-4.2-.3-8.4-1.2-12.6-1.7-15.8-1.9-28.2.1-43.4,1.5-5.7.6-11.4.4-17.1,1-9.7,1-35.3,2.7-41.6,4.6-15.9,5-26.2,7.8-43.2,10.1-19.2,2.5-58.1,2.7-78.7,3.4-11.5.4-23.1.1-34.7.5-.4,1.2-.8,2.3-1.1,3.5Zm-1.2,6.4c11.5-.6,23-1.2,34.5-1.2s26.4-.9,37.1-2c8.6-.9,37.1-2.1,45.6-3.4,12.1-1.9,23.3-3.9,35-7.4,8.1-2.5,17-5.7,25.1-7.3s40.3-2.6,49-3.1,15.2-1.8,22.2-1.8,16.2,1.3,24.4,2,16.7,1.8,25.6,2.3a18.8,18.8,0,0,0-2.5-2.4c-7.8-.2-15.4-.7-23-1.4s-16.2-2-24.5-2-14.6,1.6-22.4,2-41,.2-49.4,1.9-16.9,5.8-25,8.2a216.9,216.9,0,0,1-25.8,5.5c-23.7,4-71.7,6-91.4,6-11.4,0-22.7.5-34.1,1.1-.2,1-.3,2-.4,3Zm-.1,6.3c9.3-.4,17.8-.7,27.1-.4,24.1.8,66.3-3.2,89.8-6.3a148.8,148.8,0,0,0,17.5-3,170.2,170.2,0,0,0,17.1-5.5c9.7-3.4,39.8-7,49.9-9.2,7.2-1.5,13.2-1.7,20.3-2.3,5.2-.4,10.4-.6,15.6-.9,8-.5,18.9.4,30.4,1.1s24.2,1.9,34.4,2.5a24.3,24.3,0,0,0-2-2.5c-10.6-.3-21.7-1-32.4-1.7s-19.8-1.8-30.5-1.2c-5.2.3-10.4,1.2-15.6,1.6-7.2.5-14.1-.5-21.4,1.1-15.9,3.4-50.6,11.9-65.8,15.7-19,4.7-88.7,8.3-107.2,7.7-9.4-.3-18-.1-27.3.4h0a25.3,25.3,0,0,0,.1,2.8Zm4.6,15c6.9-.9,13.1-1.3,19.7-1.8,28.9-2,64.9-7.5,92.2-13.5a292.2,292.2,0,0,0,30.1-7.9c8.8-2.9,17.3-7,25.7-9.7,30-9.8,62.9-6.7,87.7-4.7,15,1.2,30.4,3.2,45,3.5-.4-.9-.9-1.7-1.3-2.5-14.3-.3-29.3-1.7-43.5-2.8-25-2.1-62.1-3.9-88.9,4.8-4.6,1.4-9.1,3.1-13.5,4.7-14.4,5.4-26.7,9.5-41.6,12.8-12.3,2.7-51.2,7.5-62.3,9.1s-21.4,2.4-29.7,3-13.6.9-21.1,2a21,21,0,0,0,1.5,3Zm12.3,13.2,2.4-.9a164.5,164.5,0,0,1,28.4-7.3c18.9-3.4,56.5-9.7,74.9-14.9s38-15.5,56-20.8c8-2.4,37.3-2.8,45.7-3.3,36.6-2.2,55.5,4,83,5.4l-.9-2.6c-13.4-.8-26.7-3.5-40-4.2a396.3,396.3,0,0,0-42.2-.4c-8.5.4-37.8,1.3-46,3.7-6.2,1.9-12,4.8-18.1,7.1-12.7,4.6-25.2,9-38.2,12.7s-47.3,8.4-62.3,11.9c-13.5,3.1-27.4,4.7-40.9,9.6l-4.8,1.8a33,33,0,0,0,3,2.2Zm195.6,9.4a8.5,8.5,0,0,1-1-1.9,9.3,9.3,0,0,1-.4-2.4,5.9,5.9,0,0,1,.5-2.3,4.5,4.5,0,0,1,1.4-1.9,12.4,12.4,0,0,1,2.7-1.7,14.6,14.6,0,0,1,3.4-1,36.2,36.2,0,0,1,4.6-.6,30,30,0,0,1,4.3.3,43.7,43.7,0,0,1,5.2,1.2,25.8,25.8,0,0,1,4.8,2.1,6.8,6.8,0,0,1,2.1,1.7,7.6,7.6,0,0,1,1.3,2.3,4.1,4.1,0,0,1-.1,2.2,7.8,7.8,0,0,1-.5,1.4h-5c2-3-1.1-5.5-5.1-7a19.4,19.4,0,0,0-12.1-1.3,10.8,10.8,0,0,0-4.9,2.1,3.6,3.6,0,0,0-1.1,2.6,6.2,6.2,0,0,0,1.1,3.2l.6.9Zm-46.7.3c-.3-2.2.2-4.5,2.5-7.1,12.8-14.6,46.2-25.1,67.4-19.8,26.5,6.6,37.2,12.6,62.1,12.4,1.1-1.1,2.1-2.2,3.1-3.4-26.6,1.2-36.9-2.8-64.5-11.4-22.5-7-57.5,4.5-71.9,20.8-2.6,3-4,5.7-4,8.6Zm-25.2,0a5.2,5.2,0,0,1,1.6-3.2c2.4-2.5,9.4-8,15.1-12,14.7-10.3,38.4-18.1,64.5-21.4,9.1-1.1,23.6,3.2,39.1,6.1s29.7,5.1,45.3,3.6a28.3,28.3,0,0,0,1.1-3.1c-15.3,1.6-30.5-.3-45.7-2.7-13.1-2.1-26-6-39.4-5.4-22.7,1-50.8,9.8-66.8,21.1-6.1,4.2-14.3,10-17,12.8a8.2,8.2,0,0,0-1.6,2.5,8.5,8.5,0,0,0-.4,1.7Zm-30.2-.4c-.6-3.3,4.5-6.1,12.7-9.5,4.9-2.1,10-4.2,14.7-6.4,10.8-5.3,20.6-14.5,31.7-20.2,18.2-9.4,53.7-10,77.3-7.4,20.8,2.2,40.7,9.4,61.9,7.1a22.8,22.8,0,0,0,.2-2.6c-21,.8-41.4-5.2-62.2-6.9-22.3-1.9-58.7-2.1-78.1,7.9-4.6,2.4-8.9,5.1-13.2,7.8a207.8,207.8,0,0,1-20.7,11.6c-8,3.9-17.4,7.1-24.8,11-4.8,2.5-26.1,5-25.5,7.5Zm-59.8-1.1a24.9,24.9,0,0,1,6-3.7c7.8-3.7,16-6.5,23.9-9.9,29.3-12.1,110.6-35.6,139.7-36.8,26.4-1,60,6.9,88.5,7.2l-.3-2.5c-28.9-.4-60.4-7.5-88.2-6.4-16.6.7-53,5.7-67.8,12.1-7.8,3.4-15.3,7.3-23.1,10.7-10.7,4.7-41.6,9.1-52.5,13.6-8.3,3.4-16.8,6.4-24.9,10.3a20.7,20.7,0,0,0-6,3.9,6,6,0,0,0-1.1,1.2l5.8.3Zm232.4-3.5-.4-.6a4.4,4.4,0,0,0-2.5-1c-1.2-.1-4.7-.7-9.6-1.7l-14.4-3.2a106.5,106.5,0,0,1-13.8-4.5c-8.2-3-15.4-5.7-23.6-3.8a30.2,30.2,0,0,0-6.8,2.3,28.5,28.5,0,0,0-10.3,7.2c-2.5,2.9-23.7,5.8-23.2,8.3l.3.9c.2.3.3.7.5,1h22.8c-1.6-2.5-1.5-5.3,1.5-9a27.8,27.8,0,0,1,9.1-6.8,38.9,38.9,0,0,1,6-2.2c7.2-1.8,13.7.8,21.1,3.8a93.6,93.6,0,0,0,13,4.6l13.5,3.2c2,.4,9.5,1.6,9.3,3.7a46.3,46.3,0,0,0,7.5-2.2Z" transform="translate(-1564.6 -42.6)" fill="#b7805c" opacity="0.5" style="mix-blend-mode:multiply"/><path d="M1588.9,96.2c8.3-.6,17.4-1.2,29.7-3s50-6.4,62.3-9.1c14.9-3.3,27.2-7.4,41.6-12.8,4.4-1.6,8.9-3.3,13.5-4.7,26.8-8.7,63.9-6.9,88.9-4.8,14.2,1.1,29.2,2.5,43.5,2.8l-1.6-2.4c-10.2-.6-22.6-1.7-34.4-2.5s-22.4-1.6-30.4-1.1c-5.2.3-10.4.5-15.6.9-7.1.6-13.1.8-20.3,2.3-10.1,2.2-40.2,5.8-49.9,9.2a170.2,170.2,0,0,1-17.1,5.5,148.8,148.8,0,0,1-17.5,3c-23.5,3.1-65.7,7.1-89.8,6.3-9.3-.3-17.8,0-27.1.4a34.3,34.3,0,0,0,3.1,12c7.5-1.1,14-1.5,21.1-2Z" transform="translate(-1564.6 -42.6)" fill-rule="evenodd" fill="url(#a9adb88f-af7a-4dc5-83ca-85000a61ec29)" style="mix-blend-mode:multiply"/><path d="M1585.4,63.1a213.5,213.5,0,0,1,26.5-1c12.9.4,22.5-.7,35.3-3.1,4.3-.8,28.7-1.6,33.3-2.2s10.3-.5,15.5-1.2c19.3-2.9,58.2-8.2,77.6-10.7,5-.7,10-1.3,15-1.7l-20.4-.4c-3,.7-26.3,1.5-28.2,1.8-23.4,4.6-67.3,7.2-91,9.5s-48.8,3.1-73.3,3.1a41.2,41.2,0,0,0-5.6,6.9c5.5-.2,10.5-.6,15.3-1Z" transform="translate(-1564.6 -42.6)" fill-rule="evenodd" fill="url(#a058392d-cfbd-406e-8b2b-b536466773c4)" style="mix-blend-mode:multiply"/><path d="M1611.8,44.3l-6.1.8c-2.4.3-3.2,1.6.2,1.9s6,.2,9.1.3l4,.2c-8.5.1-17.3-.2-25.9-.7a45.3,45.3,0,0,1,12.3-2.2l6.4-.3ZM1578.9,54c12.2,0,25,.5,37.8.1-9.3,0-19.2.3-27.6-.7-.6-.1-1.3-.1-1.5-.6s1.7-2.5,2.8-2.7a19.9,19.9,0,0,1,4.2-.4c3.2-.1,6.3.1,9.4,0l6.1-.4c-7.4,0-14.8-.2-22.2-.5v-.2a53.6,53.6,0,0,0-9,5.4Zm-.4,8.3c-1.1-.2-.8-2.7.9-3.4a8,8,0,0,1,2.1-.5c5.5-.7,11.2-1.2,16.9-1.5h-22.7c-2.1,2-4,5-5.6,7h.1c5.4,0,10.4-.6,15.2-1s11.8-.9,17.7-1H1600c-5.6-.1-11,.5-16.5.6a27.9,27.9,0,0,1-5-.2Zm7.1,3.8a104,104,0,0,1-17.3,1.3h0l-1.2,2.6h0c8.7-.3,17.3-.2,26-.3h-11.2c-.9-.1-8.5-.2-8.7-.5a1,1,0,0,1,.2-.9,2.9,2.9,0,0,1,1.6-.4c2.6-.3,5.3-.3,7.9-.5,4.3-.4,7.5-1.4,11.5-1.9l6.4-.7a82.6,82.6,0,0,0-15.2,1.4Zm11.1,6.9c-10.3.2-20.5.1-30.7.5h0a33.8,33.8,0,0,0-.8,3.4h0c9.7-.5,19.3-1,29-1.1h-16.1c-1,0-8.3.2-8.6,0s-.4-1.3.4-1.5a21.4,21.4,0,0,1,3.5-.6h7.2c4.3-.1,8.7-.1,13.1-.4l3-.2Zm-32.1,10.4h0Zm0-.1c9.3-.5,17.9-.7,27.3-.4,3.3.1,7.5.1,12.4-.1h-2.8l-9.4-.3-8.3-.2h-9.9a38.8,38.8,0,0,1-5.9-.1c-.9-.1-.7-1.8,1.4-2.1s4.3-.4,6.5-.6l3.7-.3-14.8.7c-.1,1.1-.2,2.2-.2,3.4Zm3.2,14.9c7.5-1.1,14-1.5,21.1-2s13.1-.9,21.3-1.9l-5.4.4-9.6.8-13.3.4c-3.1.1-6.3.4-9.4.3a5.7,5.7,0,0,1-2.9-.8c-2-1.2-2.6-5.9-.4-7.3s3.2-.9,4.5-1.1,5-.7,7.6-.9l4-.4c-6.9,0-13.5.2-20.6.5h0a34.3,34.3,0,0,0,3.1,12Zm27.2,8.2c-3.9.6-13.8,2.6-17.2.1a4.3,4.3,0,0,1-1.6-2.4,1.6,1.6,0,0,1,.6-1.7,24.2,24.2,0,0,1,5.1-1.9l2.7-.8-6.8.6a17.7,17.7,0,0,0-7.1,3.2,38.5,38.5,0,0,0,7.9,8.7l4.8-1.8c8.9-3.2,17.8-5,26.8-6.7l-1.6.2c-4.6.7-9.1,1.7-13.6,2.5Zm4.9,2.4a156.3,156.3,0,0,0-15.9,4.7l-2.4.9a45.6,45.6,0,0,0,23.8,7.8h4.1a6,6,0,0,1,1.1-1.2,20.7,20.7,0,0,1,6-3.9c6.4-3.1,13.1-5.6,19.7-8.2-7.8,1.9-16.2,4-22.5,7.5-1.2.7-2,1.9-3.2,2.6a7.5,7.5,0,0,1-3.2,1c-3.2,0-8.7-1.5-11.2-3.4a4.4,4.4,0,0,1-1.5-2.5c-.6-2.7,2.2-4.3,5.2-5.4Z" transform="translate(-1564.6 -42.6)" fill-rule="evenodd" opacity="0.35" fill="url(#a9e5221f-dd6e-4e68-9a6b-70010d57e006)" style="mix-blend-mode:screen"/><path d="M1604.1,47.2c63.3-2.5,166.7-2.6,230,0,13.5.6,25.5,6.5,33.1,15.6-7.3-10.6-20-17.6-34.3-18.2-62.5-2.7-165-2.6-227.5,0-14.4.6-27.1,7.6-34.4,18.2,7.6-9.1,19.6-15,33.1-15.6Z" transform="translate(-1564.6 -42.6)" fill-rule="evenodd" fill="url(#ba5c3d8a-8955-4a4e-9470-619998b45d0c)" style="mix-blend-mode:screen"/><path d="M1607.5,50c-18.4.7-36.1,13.8-36.1,33.3s17.7,32.5,36.1,33.3c71.6,3,152.1,3.1,223.8,0,18.4-.8,36.1-13.8,36.1-33.3s-17.7-32.5-36.1-33.3c-71.7-3.1-152.2-3-223.8,0Z" transform="translate(-1564.6 -42.6)" fill-rule="evenodd" opacity="0.75" fill="url(#b0603265-3cfc-41d4-b90a-ce1558773244)"/><path d="M1607.5,50c-13.8.6-27.2,8-33,19.9,6.3-10.8,19.1-17.6,32.2-18.1,72.2-3,153.2-3.1,225.3,0,13.2.5,26,7.3,32.3,18.1-5.8-11.9-19.2-19.3-33-19.9-71.7-3.1-152.2-3-223.8,0Z" transform="translate(-1564.6 -42.6)" fill="#683c11" fill-rule="evenodd" opacity="0.5" style="mix-blend-mode:multiply"/><path d="M1608.4,118.4c71.1,3,150.9,3.1,222,0,12.5-.6,24.7-6.9,31.1-17.2-6.7,9.2-18.3,14.9-30.2,15.4-71.7,3.1-152.2,3-223.8,0-11.9-.5-23.5-6.2-30.2-15.4,6.4,10.3,18.6,16.7,31.1,17.2Z" transform="translate(-1564.6 -42.6)" fill="#ca9e67" fill-rule="evenodd" opacity="0.65" style="mix-blend-mode:screen"/><path d="M1831.1,112.6c-71.5,3.1-151.9,3-223.5,0-9.6-.4-19.3-4.6-25.5-11.6,6.1,7.9,16.2,12.6,26.3,13.1,71.1,3,150.9,3.1,221.9,0,10.2-.5,20.3-5.2,26.3-13.2-6.2,7.1-15.8,11.3-25.5,11.7Z" transform="translate(-1564.6 -42.6)" fill="#683c11" fill-rule="evenodd" opacity="0.5" style="mix-blend-mode:multiply"/><path d="M1606.7,54c-15.7.6-31.3,11.9-31.3,29.3s15.6,28.6,31.3,29.3c69.5,3,155.9,3.1,225.3,0,15.7-.7,31.4-12,31.4-29.3S1847.7,54.7,1832,54c-69.4-3.1-155.8-3-225.3,0Z" transform="translate(-1564.6 -42.6)" fill-rule="evenodd" fill="url(#a9e3c0f3-2cd1-4098-8a04-e28ef2df03e2)"/><path d="M1581.4,77.4a21.6,21.6,0,0,0-.3,8.4c.5,3.2,2.8,5.5,10.1,6.1,47.8,3.7,206.5-7.2,254.9-17.8,12.9-2.8-2.2-16.4-17.7-17.3-36.8-2.1-113.7-1.4-150.6-.7-12.9.2-56-1.3-72.6,1.8-11.2,2.1-21.4,8.5-23.8,19.5Z" transform="translate(-1564.6 -42.6)" fill-rule="evenodd" fill="url(#ab52f27c-98c8-46a4-b6f1-16edcb08b9be)" style="mix-blend-mode:screen"/><path d="M1601,104.8c-2.4,1.4-.7,2,9.9,2.7,25.3,1.6,159,2.3,183.3,1.9,26.9-.5,40.5-.3,51.9-6.5,9.1-5,9.7-11.7-1.4-15.5-15.1-5.1-236,12.9-243.7,17.4Z" transform="translate(-1564.6 -42.6)" fill-rule="evenodd" opacity="0.75" fill="url(#b1820b43-891b-4469-a287-473b526e1242)" style="mix-blend-mode:screen"/><path d="M1601.7,62.5c-26.9,7.1,0,14,15.6,14.7,26.1,1.1,192.3-5.7,215.8-14.7,5.5-2.2,6.9-3.9-17-4.6s-191.9-1.3-214.4,4.6Z" transform="translate(-1564.6 -42.6)" fill-rule="evenodd" fill="url(#a84c4b25-af72-49fa-950d-ffb73bf3028f)" style="mix-blend-mode:screen"/><path d="M1843.7,103.1c-7.4,3.9-19.2,4.5-28.1,4.9-23.3,1-187.5,1-211.9-1.3-1.1-.1-3.3-.6-2.8-1.3s268.3-15.7,242.8-2.3Z" transform="translate(-1564.6 -42.6)" fill-rule="evenodd" opacity="0.5" fill="url(#fdeb2be4-aaf6-4266-a583-78a61df56e84)" style="mix-blend-mode:screen"/></g></g></svg>