<svg xmlns="http://www.w3.org/2000/svg" viewBox="0 0 450.1 122.3"><title>01_遊戲首頁v1.1.3</title><g style="isolation:isolate"><g id="f20442b7-8561-43fa-9799-6ecfc5e292f1" data-name="圖層 4"><g id="e57b55a3-7791-4b37-a079-d853831ca308" data-name="圖層 3"><path d="M1377,154.6s-47.4-9.8-44.7,1.8,61.6,24,52.6,24.6-39.8-.4-18.4,10.7S1500.4,227,1536,233.3s-14.9,3.8,1.3,12.1,88.3,28.1,138,27.7-18.7-18.1,12.4-14.1,112,13.1,91.1,1.2-57.7-20.6-17.3-16.1,9-10.3-44.1-20.3S1377,154.6,1377,154.6Z" transform="translate(-1332.2 -150.8)" opacity="0.1"/><path d="M1377,154.6s-47.4-9.8-44.7,1.8,61.6,24,52.6,24.6-39.8-.4-18.4,10.7S1500.4,227,1536,233.3s-14.9,3.8,1.3,12.1,88.3,28.1,138,27.7-18.7-18.1,12.4-14.1,112,13.1,91.1,1.2-57.7-20.6-17.3-16.1,9-10.3-44.1-20.3S1377,154.6,1377,154.6Z" transform="translate(-1332.2 -150.8)" fill="#333" opacity="0.2"/><path d="M1382.7,163.3s-25.3-3.3-19.9,2.2,57.1,23.1,72.3,26-47.7-7.5-29,.9,114.8,30.9,109.6,24.7-26.5-12.5,1-7.3,103.3,18.6,85,18.5-28.5-2-17,2.8,25.9,7.9,9.8,9.4-3.5,4-.4,5.5-5.5,1.4-18.1-3.7-4.6,7.7,31.9,15.7c0,0,7.3,1.4,3.5,2.7s33.1,9,49.8,6.9,7.3-7.1-2.7-9.7,17-.7,12.2-6.1-27.4-10.8-4.4-8.3,56.8,6,45.7,8.2,47.1,8,24-.9-41-14.5-22.8-13.5,32.7,2.4,15-3.4S1382.7,163.3,1382.7,163.3Z" transform="translate(-1332.2 -150.8)" fill="#333" opacity="0.2"/><path d="M1737.4,243.3s-12.3-1.4-6.1,1.5,25.1,10.5,18,12.5-31.8-.9-40.6-2.3-6,3,31.8,6.7,28.4-4.1,10.2-10.8S1746.2,245.3,1737.4,243.3Z" transform="translate(-1332.2 -150.8)" fill="#4d4d4d" opacity="0.25" style="mix-blend-mode:overlay"/><path d="M1674.7,259.7s-3.2-1.2-1.5,1.1,8.2,7-4.2,7.5,7.3,3.7,14.8,1.9S1681.3,262.6,1674.7,259.7Z" transform="translate(-1332.2 -150.8)" fill="#4d4d4d" opacity="0.25" style="mix-blend-mode:overlay"/><path d="M1392.6,187.2s6.5-1.5-2.2-3-28.4-1.4-20.2,4.6,59.2,20.9,67.2,20.5S1367,190.9,1392.6,187.2Z" transform="translate(-1332.2 -150.8)" fill="#333" opacity="0.2" style="mix-blend-mode:overlay"/><path d="M1541.4,228.1s-8.1-1.7-5.2.5,27.2,8.1,18.7,10.3-20.2,3.9,6.9,13.1,38.7,7.4,27.8,3.7-29.4-10.8-23.4-11.2-10.1-6-1.9-5.6,12.8-.4-4.2-4.9S1558.1,232.1,1541.4,228.1Z" transform="translate(-1332.2 -150.8)" fill="#4d4d4d" opacity="0.25" style="mix-blend-mode:overlay"/><path d="M1450.4,196.3s-32-6.1-22-1.4,54.4,16.2,64.5,15.5S1472.9,201,1450.4,196.3Z" transform="translate(-1332.2 -150.8)" fill="#4d4d4d" opacity="0.14" style="mix-blend-mode:multiply"/><path d="M1608.1,250.1s-13.8-.3-8.7,2.5,35.5,5.4,30.1,5.3-11.3,1.1-2.6,2.9,34.8,3.2,28.7.7-6.1-3.2-.3-6.1S1640.6,252.9,1608.1,250.1Z" transform="translate(-1332.2 -150.8)" fill="#4d4d4d" opacity="0.18" style="mix-blend-mode:multiply"/><g opacity="0.17" style="mix-blend-mode:multiply"><path d="M1371,167.5c3.3,4.3,16.8,8.4,53.4,17.1s89.6,23.6,162.2,34.2c67.6,9.9,144.2,21.7,146,16.6l-4.4-1.5c-17.6-5.8-345.5-70.6-345.5-70.6l-4.2-.5C1373.8,163.7,1369.3,165.1,1371,167.5Z" transform="translate(-1332.2 -150.8)" fill="#4d4d4d" opacity="0.39" style="mix-blend-mode:multiply"/></g></g></g></g></svg>