<svg xmlns="http://www.w3.org/2000/svg" xmlns:xlink="http://www.w3.org/1999/xlink" viewBox="0 0 383.6 335"><defs><filter id="ab308835-6e5c-418b-bc1d-d4e6ce81de8c" x="1454.58" y="-11662" width="23.74" height="32766" filterUnits="userSpaceOnUse" color-interpolation-filters="sRGB"><feFlood flood-color="#fff" result="bg"/><feBlend in="SourceGraphic" in2="bg"/></filter><mask id="ad8a5b9c-08ed-4f21-aaf9-5a57429d29be" x="1454.58" y="-11662" width="23.74" height="32766" maskUnits="userSpaceOnUse"><g filter="url(#ab308835-6e5c-418b-bc1d-d4e6ce81de8c)"/></mask><linearGradient id="e910f822-ad00-43ed-9030-8f1f34487456" x1="1466.44" y1="700.59" x2="1466.44" y2="681.11" gradientUnits="userSpaceOnUse"><stop offset="0"/><stop offset="1" stop-color="#fff"/></linearGradient><filter id="a55a8433-d73e-47ea-b44f-51deb841dabf" x="1447.42" y="-11662" width="37.87" height="32766" filterUnits="userSpaceOnUse" color-interpolation-filters="sRGB"><feFlood flood-color="#fff" result="bg"/><feBlend in="SourceGraphic" in2="bg"/></filter><mask id="f9854d47-e435-4565-92da-f1b8f09e041f" x="1447.42" y="-11662" width="37.87" height="32766" maskUnits="userSpaceOnUse"><g filter="url(#a55a8433-d73e-47ea-b44f-51deb841dabf)"/></mask><linearGradient id="b22d8b92-9fd8-41e5-8624-df5e25612817" x1="1466.35" y1="753.47" x2="1466.35" y2="744.49" xlink:href="#e910f822-ad00-43ed-9030-8f1f34487456"/><filter id="b04e01e7-0861-4368-8f31-4e35a4fb89e7" x="1453.87" y="-11662" width="24.88" height="32766" filterUnits="userSpaceOnUse" color-interpolation-filters="sRGB"><feFlood flood-color="#fff" result="bg"/><feBlend in="SourceGraphic" in2="bg"/></filter><mask id="f8c8febf-6537-46bc-88db-70361794104f" x="1453.87" y="-11662" width="24.88" height="32766" maskUnits="userSpaceOnUse"><g filter="url(#b04e01e7-0861-4368-8f31-4e35a4fb89e7)"/></mask><linearGradient id="b7c96bbd-4a31-4546-9731-b5a645a6cc2d" x1="1466.31" y1="674.38" x2="1466.31" y2="665.4" xlink:href="#e910f822-ad00-43ed-9030-8f1f34487456"/><clipPath id="aaaeabe6-926a-4fbe-bd53-d97916103f8d" transform="translate(-1162.1 -536.1)"><path id="a1962958-ff02-4d55-92fd-d75d6e027931" data-name="SVGID" d="M1294.6,715.4c-5.6,5.4-8.2,11.8-5.9,14.2s8.7-.1,14.3-5.5,8.2-11.8,5.9-14.2a3.7,3.7,0,0,0-1.4-.7c-3-.8-8.3,1.7-12.9,6.2" fill="none"/></clipPath><linearGradient id="be2ed160-9ca6-4808-bfe6-920b1c5f720f" x1="90.32" y1="4514.05" x2="90.7" y2="4514.05" gradientTransform="translate(-4784.5 -303813.2) scale(67.46)" gradientUnits="userSpaceOnUse"><stop offset="0" stop-color="#85b644"/><stop offset="0.08" stop-color="#8cba48"/><stop offset="0.42" stop-color="#a3c856"/><stop offset="0.73" stop-color="#b1d15e"/><stop offset="1" stop-color="#b6d461"/></linearGradient><clipPath id="b3735796-3afc-4364-9077-dff7e18c4524" transform="translate(-1162.1 -536.1)"><path id="bfa33c88-dc5f-4a61-9f3a-d8a02837dd87" data-name="SVGID" d="M1432.5,711.1c-1.9,2.8,1.9,8.6,8.3,12.9s13.2,5.6,15.1,2.8-1.9-8.6-8.3-12.9-12.4-5.4-14.7-3.3l-.4.5" fill="none"/></clipPath><linearGradient id="b54afa05-cd04-43c9-ba80-64adb12f64c9" x1="54.67" y1="4575.04" x2="55.05" y2="4575.04" gradientTransform="translate(-307246.5 4411) rotate(-90) scale(67.47)" xlink:href="#be2ed160-9ca6-4808-bfe6-920b1c5f720f"/><clipPath id="ab1e6b32-ae50-4740-9cfa-1616098427ac" transform="translate(-1162.1 -536.1)"><path id="f7d8249f-5357-4b02-9fcb-7592f5303168" data-name="SVGID" d="M1393.6,751.7c-3.1,1.2-3.5,8-.8,15.3s7.5,12.3,10.6,11.1,3.5-8,.8-15.3-6.8-11.6-9.9-11.3l-.7.2" fill="none"/></clipPath><linearGradient id="ba922f4e-7118-48a8-8e59-e53300ed1a30" x1="78.53" y1="4565.48" x2="78.91" y2="4565.48" gradientTransform="translate(-306647.2 6077.2) rotate(-90) scale(67.47)" xlink:href="#be2ed160-9ca6-4808-bfe6-920b1c5f720f"/><clipPath id="f0752b39-22b0-4050-8978-2983954d6f87" transform="translate(-1162.1 -536.1)"><path id="ae945076-e84f-4d76-aa91-4639e0e7266b" data-name="SVGID" d="M1324,757.8c-3.2,7-3.4,13.9-.4,15.3s8.2-3.2,11.4-10.3,3.4-13.9.4-15.3a2.9,2.9,0,0,0-1.6-.2c-3,.3-7.1,4.5-9.8,10.5" fill="none"/></clipPath><linearGradient id="e11fae54-787d-4c0f-8654-81f965a178c0" x1="89.6" y1="4529.81" x2="89.98" y2="4529.81" gradientTransform="translate(-304266.6 6802.6) rotate(-90) scale(67.46)" xlink:href="#be2ed160-9ca6-4808-bfe6-920b1c5f720f"/><clipPath id="addaa905-0c5c-43f4-b533-b0aa9bb412ec" transform="translate(-1162.1 -536.1)"><path id="b3e3b824-0724-467e-a3ec-4488808b7e65" data-name="SVGID" d="M1305.7,658.9a75.6,75.6,0,1,0,57.7-38.8,75.5,75.5,0,0,0-57.7,38.8" fill="none"/></clipPath><linearGradient id="b3a32a42-a8f0-457f-ba7c-c84e9bea64e4" x1="38.07" y1="4541.73" x2="38.45" y2="4541.73" gradientTransform="matrix(-392.5, 0, 0, -392.5, 16378.03, 1783348.18)" gradientUnits="userSpaceOnUse"><stop offset="0" stop-color="#b6d461"/><stop offset="1" stop-color="#b6d461"/><stop offset="1" stop-color="#85b644"/></linearGradient><clipPath id="a98faec4-e244-48aa-a531-661543455db4" transform="translate(-1162.1 -536.1)"><path id="a033b2a1-b6e5-488b-8b98-f09637b7282b" data-name="SVGID" d="M1323.1,641.7a72.3,72.3,0,1,0,40.5-18.5,72.5,72.5,0,0,0-40.5,18.5" fill="none"/></clipPath><linearGradient id="e80ec6f9-e1bb-453b-8f92-5a32f2a8f94f" x1="44.54" y1="4540.65" x2="44.92" y2="4540.65" gradientTransform="matrix(0, -376.45, 376.45, 0, -1707952.02, 17543.6)" xlink:href="#be2ed160-9ca6-4808-bfe6-920b1c5f720f"/><radialGradient id="edc7be31-678e-4813-ba64-fa6d1499306c" cx="299.51" cy="169.34" r="84.14" gradientUnits="userSpaceOnUse"><stop offset="0" stop-color="#fae039" stop-opacity="0.7"/><stop offset="0.71" stop-color="#fd0" stop-opacity="0.3"/><stop offset="0.77" stop-color="#fd0" stop-opacity="0.26"/><stop offset="0.88" stop-color="#fd0" stop-opacity="0.15"/><stop offset="1" stop-color="#fd0" stop-opacity="0"/></radialGradient><filter id="bec9378f-8d6d-4493-99b4-2868dadb1d8a" x="1454.58" y="681.14" width="23.74" height="20.19" filterUnits="userSpaceOnUse" color-interpolation-filters="sRGB"><feFlood flood-color="#fff" result="bg"/><feBlend in="SourceGraphic" in2="bg"/></filter><mask id="bfdb5501-ca55-4adc-afae-0f0ef7399ac8" x="292.5" y="145.04" width="23.74" height="20.19" maskUnits="userSpaceOnUse"><g filter="url(#bec9378f-8d6d-4493-99b4-2868dadb1d8a)"><g transform="translate(-1162.1 -536.1)"><g mask="url(#ad8a5b9c-08ed-4f21-aaf9-5a57429d29be)"><path d="M1478.3,701.3a44.1,44.1,0,0,1-3.8-18.3v-1.9h-16v2.8a43.3,43.3,0,0,1-3.9,17.4Z" fill="url(#e910f822-ad00-43ed-9030-8f1f34487456)" style="mix-blend-mode:multiply"/></g></g></g></mask><linearGradient id="a304087f-9961-49a7-b7ca-98a20d17a33e" x1="1466.44" y1="700.59" x2="1466.44" y2="681.11" gradientUnits="userSpaceOnUse"><stop offset="0" stop-color="#fff"/><stop offset="1" stop-color="#fff"/></linearGradient><filter id="b6a66248-289f-4f8d-a94c-310750ca85c7" x="1447.42" y="744.51" width="37.87" height="9.31" filterUnits="userSpaceOnUse" color-interpolation-filters="sRGB"><feFlood flood-color="#fff" result="bg"/><feBlend in="SourceGraphic" in2="bg"/></filter><mask id="bbee862e-7f55-409d-91e9-a5674a06e608" x="285.34" y="208.41" width="37.87" height="9.31" maskUnits="userSpaceOnUse"><g filter="url(#b6a66248-289f-4f8d-a94c-310750ca85c7)"><g transform="translate(-1162.1 -536.1)"><g mask="url(#f9854d47-e435-4565-92da-f1b8f09e041f)"><rect x="1447.4" y="744.5" width="37.9" height="9.31" fill="url(#b22d8b92-9fd8-41e5-8624-df5e25612817)" style="mix-blend-mode:multiply"/></g></g></g></mask><linearGradient id="a5ffd6b9-1741-4416-863e-40eb0e58e673" x1="304.28" y1="217.38" x2="304.28" y2="208.4" gradientUnits="userSpaceOnUse"><stop offset="0" stop-color="#004622"/><stop offset="1" stop-color="#004622"/></linearGradient><filter id="b92245f1-59b3-4eb2-96a1-04031b1eac75" x="1453.87" y="665.42" width="24.88" height="9.31" filterUnits="userSpaceOnUse" color-interpolation-filters="sRGB"><feFlood flood-color="#fff" result="bg"/><feBlend in="SourceGraphic" in2="bg"/></filter><mask id="b348e46e-e5ae-429a-8e65-9628d698408a" x="291.8" y="129.32" width="24.88" height="9.31" maskUnits="userSpaceOnUse"><g filter="url(#b92245f1-59b3-4eb2-96a1-04031b1eac75)"><g transform="translate(-1162.1 -536.1)"><g mask="url(#f8c8febf-6537-46bc-88db-70361794104f)"><rect x="1453.9" y="665.4" width="24.9" height="9.31" fill="url(#b7c96bbd-4a31-4546-9731-b5a645a6cc2d)" style="mix-blend-mode:multiply"/></g></g></g></mask><linearGradient id="a5bbc22a-690f-4b5c-94a2-8aa21fc9c43f" x1="304.24" y1="138.28" x2="304.24" y2="129.31" xlink:href="#a5ffd6b9-1741-4416-863e-40eb0e58e673"/></defs><title>01_遊戲首頁v1.1.3</title><g style="isolation:isolate"><g id="e4801bc0-b6f4-4690-93f0-057550029f29" data-name="圖層 4"><image width="331" height="335" transform="translate(48)" opacity="0" xlink:href="01_%E9%81%8A%E6%88%B2%E9%A6%96%E9%A0%81v1.1.31.png" style="mix-blend-mode:multiply"/><g clip-path="url(#aaaeabe6-926a-4fbe-bd53-d97916103f8d)"><rect x="1284.5" y="709" width="28.1" height="22.86" transform="translate(-989.9 1152) rotate(-69.7)" fill="url(#be2ed160-9ca6-4808-bfe6-920b1c5f720f)"/></g><g clip-path="url(#b3735796-3afc-4364-9077-dff7e18c4524)"><rect x="1429.5" y="703.4" width="29.8" height="31.65" transform="translate(-637.4 1508.9) rotate(-81.7)" fill="url(#b54afa05-cd04-43c9-ba80-64adb12f64c9)"/></g><g clip-path="url(#ab1e6b32-ae50-4740-9cfa-1616098427ac)"><rect x="1383.7" y="749.4" width="29.8" height="31.65" transform="translate(-1287.2 698.1) rotate(-45.8)" fill="url(#ba922f4e-7118-48a8-8e59-e53300ed1a30)"/></g><g clip-path="url(#f0752b39-22b0-4050-8978-2983954d6f87)"><rect x="1318.2" y="746.9" width="22.9" height="28.12" transform="translate(-1172.5 -517.6) rotate(-0.8)" fill="url(#e11fae54-787d-4c0f-8654-81f965a178c0)"/></g><g clip-path="url(#addaa905-0c5c-43f4-b533-b0aa9bb412ec)"><rect x="1274.3" y="606.2" width="196.4" height="188.02" transform="translate(-1303.7 -121.3) rotate(-16.4)" fill="url(#b3a32a42-a8f0-457f-ba7c-c84e9bea64e4)"/></g><g clip-path="url(#a98faec4-e244-48aa-a531-661543455db4)"><rect x="1262.1" y="588.3" width="220.8" height="223.17" transform="translate(-1061.8 1032.7) rotate(-61.4)" fill="url(#e80ec6f9-e1bb-453b-8f92-5a32f2a8f94f)"/></g><path d="M1428.7,694.4c8.9,3.1,5.3,16.1-6.5,13.4s-5.4-17.5,6.5-13.4" transform="translate(-1162.1 -536.1)" fill="#ed7c78"/><path d="M1314.4,694.7c8.9,3.1,5.3,16.1-6.5,13.4s-5.4-17.5,6.5-13.4" transform="translate(-1162.1 -536.1)" fill="#ed7c78"/><circle cx="1333.6" cy="680.8" r="17.9" transform="translate(-714.1 1352) rotate(-80.8)" fill="#fff"/><path d="M1346.8,674.7a5,5,0,0,1-4.2,2.4,4.9,4.9,0,0,1-4.9-4.9,5,5,0,0,1,2.6-4.3,15,15,0,0,0-6.7-1.6,14.6,14.6,0,1,0,14.5,14.5A15.5,15.5,0,0,0,1346.8,674.7Z" transform="translate(-1162.1 -536.1)" fill="#4a3e37"/><path d="M1333.6,691a10.2,10.2,0,1,0-10.2-10.2A10.2,10.2,0,0,0,1333.6,691Z" transform="translate(-1162.1 -536.1)" fill="#191919" fill-rule="evenodd"/><path d="M1337.7,672.2a4.9,4.9,0,0,0,4.9,4.9,5,5,0,0,0,4.2-2.4,14.8,14.8,0,0,0-6.5-6.8A5,5,0,0,0,1337.7,672.2Z" transform="translate(-1162.1 -536.1)" fill="#fff"/><circle cx="1400.7" cy="680.8" r="17.9" transform="translate(-663.6 1414.2) rotate(-80.5)" fill="#fff"/><path d="M1413.9,674.7a4.9,4.9,0,0,1-4.2,2.4,4.9,4.9,0,0,1-2.2-9.2,15.5,15.5,0,0,0-6.8-1.6,14.6,14.6,0,0,0,0,29.1,14.7,14.7,0,0,0,14.6-14.6A14,14,0,0,0,1413.9,674.7Z" transform="translate(-1162.1 -536.1)" fill="#4a3e37"/><circle cx="1400.7" cy="680.8" r="10.2" transform="translate(-1252.6 593.8) rotate(-42.7)" fill="#191919"/><path d="M1404.9,672.2a4.8,4.8,0,0,0,4.8,4.9,4.9,4.9,0,0,0,4.2-2.4,14.6,14.6,0,0,0-6.4-6.8A4.8,4.8,0,0,0,1404.9,672.2Z" transform="translate(-1162.1 -536.1)" fill="#fff"/><path d="M1380.5,705.1c-2-1.5-4,1.9-1.9,3.4,4.1,3,.4,8.4-3.4,9.3s-10.7-1.2-10.1-6.3c.1-.9-.6-1.3-1.3-1.3a1.9,1.9,0,0,0-2.9.8c-.5,2.2-.6,4-2.3,5.7a6.6,6.6,0,0,1-6.4,1.8c-3.9-1.2-5.6-6-4.5-9.7a1.4,1.4,0,0,0-2.6-1.1,10.4,10.4,0,0,0,6.5,14.7c4,1,9-1.2,11.5-4.8,3,3.8,10.3,5.1,14.4,3.6,6.9-2.4,9.3-11.6,3-16.1" transform="translate(-1162.1 -536.1)" fill="#4a3e37"/><path d="M1437.3,616.4s-16.4-29-57.8-33-63.4,15.7-63.4,15.7l6.5,38.6a437.4,437.4,0,0,0,110.2,7.3Z" transform="translate(-1162.1 -536.1)" fill="#fbfcff"/><path d="M1437.3,616.4s-16.4-29-57.8-33-63.4,15.7-63.4,15.7l1.2,4.8c6,5.5,13.8,9.2,22,8.7,5.4-.3,13.2-.4,15.6-5.2,1.6,4.5,6.3,7.3,10.6,9.1,17.3,7.6,37,8.9,52.5,1.9,1.9,4-.8,16.1-4.5,27.4,6.5-.2,12.9-.4,19.3-.8Z" transform="translate(-1162.1 -536.1)" fill="#69a0ba" opacity="0.25" style="mix-blend-mode:multiply"/><path d="M1357,603.3c2,2.6,3.7,5.2,6.6,7.4,8.9,6.9,20.3,11.5,31.3,11.7a32.3,32.3,0,0,0,13.6-1.7c2.2-.8,4.5-1.2,6.2-2.1s3.3-2.9,4.7-3c3.7-.6,10.4,4.2,14,5.5a30.1,30.1,0,0,0,12.6,1.4c9-.9,17.9-5,20.7-13s3.7-19.4-1.3-28.7a49.1,49.1,0,0,0-22.7-22.1c-9.7-4.8-20.6-6.4-31-6.1h-.2a42.4,42.4,0,0,0-18.9-7.7c-11.9-2-26.7,2.3-34.1,10.1-6.6-5.2-17.4-7.2-25.3-7.8-9.7-.6-19.8,1.8-26.9,7-15.4,11.3-17,34.1-.1,49,8.1,6.8,20,8.8,29.8,7.3C1343.7,609.3,1349.9,605.8,1357,603.3Z" transform="translate(-1162.1 -536.1)" fill="#fbfcff"/><g opacity="0.25" style="mix-blend-mode:multiply"><path d="M1357,603.3c2,2.6,3.7,5.2,6.6,7.4,8.9,6.9,20.3,11.5,31.3,11.7a32.3,32.3,0,0,0,13.6-1.7c2.2-.8,4.5-1.2,6.2-2.1s3.3-2.9,4.7-3c3.7-.6,10.4,4.2,14,5.5a30.1,30.1,0,0,0,12.6,1.4c9-.9,17.9-5,20.7-13s3.7-19.4-1.3-28.7a49.1,49.1,0,0,0-22.7-22.1,61,61,0,0,0-10.8-4c9.2,4.5,16.9,12.3,23.1,20.6a19.9,19.9,0,0,1,1.4,22.1,17.1,17.1,0,0,1-15.6,8.5c-7.3-.4-14.4-4.9-20.5-9.8-1.2,18.6-23.8,24.1-41.6,17-10.6-4-18-12.8-23.3-21.9-7.1,12.6-25.3,16.6-40,10.3-10.7-4.6-17.6-13.1-21.3-22.8.2,8.6,4.1,17.4,12.1,24.5s20,8.8,29.8,7.3C1343.7,609.3,1349.9,605.8,1357,603.3Z" transform="translate(-1162.1 -536.1)" fill="#69a0ba"/></g><g opacity="0.25" style="mix-blend-mode:multiply"><path d="M1452.4,581.1c.2,6.3-.6,12.4-4.7,17.2s-9.4,2.8-14.8,1.8C1441.1,595.8,1450.9,590.4,1452.4,581.1Z" transform="translate(-1162.1 -536.1)" fill="#69a0ba"/></g><g opacity="0.25" style="mix-blend-mode:multiply"><path d="M1428.4,573.6a38.4,38.4,0,0,1-2.5,13.4c-3.1,7.9-13,9.8-21.5,9.1,5.6-4.5,11-9.2,17-13.8A19.8,19.8,0,0,0,1428.4,573.6Z" transform="translate(-1162.1 -536.1)" fill="#69a0ba"/></g><g opacity="0.25" style="mix-blend-mode:multiply"><path d="M1349.2,593.1c-10.7-7-8.9-19.7-6.7-29.4-6,4.8-9.8,11.9-6.7,19.8C1337.5,588.4,1343.3,594,1349.2,593.1Z" transform="translate(-1162.1 -536.1)" fill="#69a0ba"/></g><g opacity="0.25" style="mix-blend-mode:multiply"><path d="M1302.5,565.4a37.2,37.2,0,0,1,5.1-4.6c-3.4,10.4-1.7,24.4,11,30-6.1-1.2-12.7-2.2-16.9-7.7S1298.4,569.7,1302.5,565.4Z" transform="translate(-1162.1 -536.1)" fill="#69a0ba"/></g><g opacity="0.25" style="mix-blend-mode:multiply"><path d="M1334.8,592.6c-13.1-6.4-13.4-20.6-12.7-32.3a20.1,20.1,0,0,0-5.6,18.2C1318.4,585.9,1326.4,594.4,1334.8,592.6Z" transform="translate(-1162.1 -536.1)" fill="#69a0ba"/></g><g opacity="0.25" style="mix-blend-mode:multiply"><path d="M1370.2,567.3c-3.2,9.9-4.7,21.8,2.7,31.7-5.4-2.5-9-6.8-10.1-11.8C1361.2,579.4,1365.1,572.7,1370.2,567.3Z" transform="translate(-1162.1 -536.1)" fill="#69a0ba"/></g><g opacity="0.25" style="mix-blend-mode:multiply"><path d="M1389,566.4c3.5,11.8,4.7,24.9-5.5,32.4C1381.7,587.3,1383,575.9,1389,566.4Z" transform="translate(-1162.1 -536.1)" fill="#69a0ba"/></g><g opacity="0.25" style="mix-blend-mode:multiply"><path d="M1461.9,595.6a51,51,0,0,0,2.2-11.4,27,27,0,0,1,1.1,14.3c-1.4,5.2-5.9,9.6-12.3,8.9C1454.1,602.2,1460.5,600.8,1461.9,595.6Z" transform="translate(-1162.1 -536.1)" fill="#69a0ba"/></g><path d="M1428.1,634c-.3,4.2,3.6,7.9,8.6,8.3s9.6-2.7,9.9-6.9-3.6-8-8.7-8.4-9.5,2.7-9.8,7" transform="translate(-1162.1 -536.1)" fill="#efdc3c"/><path d="M1418.8,632.6c-2.3,3.6-.6,8.7,3.7,11.4s9.6,2.1,11.9-1.4.6-8.7-3.7-11.5-9.6-2.1-11.9,1.5" transform="translate(-1162.1 -536.1)" fill="#efdc3c"/><path d="M1430.3,642c-1.5,4,1.3,8.6,6.1,10.3s9.9-.2,11.3-4.2-1.3-8.6-6.2-10.3-9.8.2-11.2,4.2" transform="translate(-1162.1 -536.1)" fill="#efdc3c"/><path d="M1419.2,631.7c3.3,2.6,8.6,1.4,11.7-2.7s2.9-9.4-.5-12-8.6-1.4-11.7,2.7-2.9,9.4.5,12" transform="translate(-1162.1 -536.1)" fill="#eebc2a"/><path d="M1406.2,622.3c-2.3,3.5-.6,8.7,3.7,11.4s9.6,2.1,11.9-1.5.7-8.7-3.7-11.4-9.6-2.1-11.9,1.5" transform="translate(-1162.1 -536.1)" fill="#eebc2a"/><path d="M1417.7,631.6c-1.4,4,1.4,8.6,6.2,10.3s9.8-.1,11.3-4.1-1.4-8.6-6.2-10.3-9.9.1-11.3,4.1" transform="translate(-1162.1 -536.1)" fill="#eebc2a"/><path d="M1437.3,637.5a6.7,6.7,0,0,1-1.6,4.5l-.3.2-.2.3-.3.3-.3.2-.3.2-.3.3-2.2,1h-1.6c-7.6,1-11.9-6.3-14.2-12.3-.4-.9-.7-1.8-1-2.7l-.3-.6a13.9,13.9,0,0,0-3.3-5.3l-.2-.2a7.2,7.2,0,0,0-6.5-1.1h-.6l-.3-.6-.8-1.5c0-.1-.1-.3-.1-.4l.4-.2a10.1,10.1,0,0,1,9.1.9c3.1,2.2,4.5,5.6,5.8,9s4.3,11.5,10.2,12.5c3.4.4,7.5-1.7,7.5-5.7s-5.1-5.2-7.5-5a10.5,10.5,0,0,0-6.2,2.1l-.7.5h-.8l.3-.2a16.9,16.9,0,0,1,2.9-1.7c4.9-2.1,13.1-.7,13.4,6" transform="translate(-1162.1 -536.1)" fill="#008742"/><path d="M1412.1,631.9l-1.7-.4a18.4,18.4,0,0,1-13.4-17.1l2.7-.3a19.5,19.5,0,0,0,12.4,17.8" transform="translate(-1162.1 -536.1)" fill="#7db82e"/><path d="M1416.4,636h.7l-.4.3-.5.2h-.4l-.5.2h-.9l-.5.2h-.9a18.5,18.5,0,0,1-6.2.2h-2l-.5-.2-.5-.2a9.7,9.7,0,0,1-6.3-8.2v-2.9a4.3,4.3,0,0,1,.1-.5c.1-.2.1-.4.2-.6s.1-.1.1-.2l.3-.7v-.2l1.9,2.7v3c1.3,5.5,8.2,6.9,13,6.4h1.4l.4-.2,1.3-.4" transform="translate(-1162.1 -536.1)" fill="#7db82e"/><image width="183" height="176" transform="translate(0 66.2)" opacity="0" xlink:href="01_%E9%81%8A%E6%88%B2%E9%A6%96%E9%A0%81v1.1.32.png" style="mix-blend-mode:multiply"/><path d="M1278.6,726.1c-.1.3.2.4.4.5h.4a25.7,25.7,0,0,0,3.8-2.3,26,26,0,0,0,3.5-3.2,20.2,20.2,0,0,0,2.9-3.8,14.8,14.8,0,0,0,1.7-4.2h0v-.3h0c0-.1-.1-.1-.1-.2s-.1-.2-.2-.3-.2-.1-.3,0a5.6,5.6,0,0,0-1.8.7l-1.7,1a22,22,0,0,0-3.4,2.8,25.4,25.4,0,0,0-2.9,3.6,19.3,19.3,0,0,0-1.9,3.8,6.5,6.5,0,0,0-.4,2h0" transform="translate(-1162.1 -536.1)" fill="#705a41"/><path d="M1264.2,710.7h0c0,.1.1.2.2.3l4.2,3.8,12.1,10.8h.4l.3-.2v-.2a10.6,10.6,0,0,0,3.4-1.2,13.9,13.9,0,0,0,3-2.6,16.3,16.3,0,0,0,2.2-3.2,14.8,14.8,0,0,0,1.3-3.5c.1-.1.1-.1.1-.2h0l-.2-.3h-.1l-.2-.2-14.5-13h-.4l-.3.2a.4.4,0,0,0-.1.3h0c-2,.2-4.1,1.5-6,3.7a19,19,0,0,0-2.2,3.3,17.8,17.8,0,0,0-1.2,2.9l-.2-.2-1-.9h-.4l-.3.2A.3.3,0,0,1,1264.2,710.7Z" transform="translate(-1162.1 -536.1)" fill="#4a3b2a"/><path d="M1269.3,715.6h0l1.1,1,10.3,9.2h.4l.3-.2c0-.1.1-.1.1-.2a7.4,7.4,0,0,0,3.3-1.2,16.6,16.6,0,0,0,3-2.5l1.2-1.7-3.5-3.3-1.1-1c-2.3-2.2-5-4.8-7.7-7.2l-1.6,2.3-2.3,2.3a18.8,18.8,0,0,1-2.4,1.8l-1.1.6h0" transform="translate(-1162.1 -536.1)" fill="#564432"/><path d="M1278.8,726.5l5.2,4.6,11.8,10.3,8.5,7.4,8.5,7.5,2.4,2.1h.7a10.8,10.8,0,0,0,3.5-1.3,16.3,16.3,0,0,0,3.3-2.7,25.3,25.3,0,0,0,2.8-3.5,26.9,26.9,0,0,0,1.9-3.8,10.9,10.9,0,0,0,.7-2.4l-3.5-3.2-18.3-16.1-15.2-13.4a.4.4,0,0,0-.1.3,19.5,19.5,0,0,1-.8,2.2,9.4,9.4,0,0,1-1.2,2.2,26,26,0,0,1-2.7,3.8l-1.8,1.8-2,1.7-2.1,1.4-1.2.6-.5.2h.1" transform="translate(-1162.1 -536.1)" fill="#c68327"/><path d="M1278.5,726.5a.2.2,0,0,0,.2.2h.3l2.1-1.1,2-1.4a29,29,0,0,0,3.6-3.4,22.7,22.7,0,0,0,2.9-4,24.4,24.4,0,0,0,1.9-4.4c.1-.2-.1-.5-.4-.6h-.3l-.2.3-.3.9a19.9,19.9,0,0,1-2.6,5h0a25.1,25.1,0,0,1-4.4,4.8,23.9,23.9,0,0,1-4.6,2.9h.1c-.2,0-.2.1-.3.2s-.1.1-.1.2,0,.1.1.2m.3-.6a.1.1,0,0,1,.1-.1.1.1,0,0,0-.1.1m4.4-2.9h0m7.1-9.7h0m-2.6,4.9h0" transform="translate(-1162.1 -536.1)" fill="#ffb34f"/><path d="M1301.6,726.1l16.8,15.2,8.4,7.4.6-1.4a22.5,22.5,0,0,0,.8-2.4l-3.6-3.2-9.2-8.1-9.1-8-9.8-8.7-5-4.4v.4a13.9,13.9,0,0,1-1.2,2.8c0,.1-.1.2-.1.3,3.9,3.3,7.7,6.7,11.5,10.1" transform="translate(-1162.1 -536.1)" fill="#a76e20"/><path d="M1289.4,720.1l17.2,15.4,16.1,14.4.3.3.4.2.3-.2a.4.4,0,0,0,0-.6l-6.7-6-8.6-7.7-17.3-15.5-1.1-.9a.5.5,0,0,0-.6-.1.5.5,0,0,0-.2.4c0,.1.1.2.2.3" transform="translate(-1162.1 -536.1)" fill="#a76e20"/><path d="M1287,722.9l17.2,15.4,15,13.4,1.8,1.7a.9.9,0,0,0,.7,0,.5.5,0,0,0,0-.7c-.1,0-.1-.1-.2-.2l-13.2-11.8-17.2-15.3-3.4-3.1a.5.5,0,0,0-.7,0,.5.5,0,0,0,0,.6" transform="translate(-1162.1 -536.1)" fill="#a76e20"/><path d="M1283.9,726l17.3,15.4,15.4,13.7a6,6,0,0,0,.8.8h0c.1,0,.1,0,.1.1h.6a.5.5,0,0,0,0-.7h0l-13.9-12.4-17.4-15.5-2.2-2a.5.5,0,0,0-.7,0,.4.4,0,0,0-.1.3.6.6,0,0,0,.1.4" transform="translate(-1162.1 -536.1)" fill="#a76e20"/><path d="M1257.8,711.8c0,.1,0,.2.1.2a2.2,2.2,0,0,0,.5.8c0,.1-.1.1-.1.2s.1.3.3.4h.4l.6.4a4.4,4.4,0,0,0,2.6.7h1.3l1.4-.3a16.3,16.3,0,0,0,2.5-1l2.2-1.5a16.8,16.8,0,0,0,2.1-1.8,20.1,20.1,0,0,0,3.4-4.3,17.1,17.1,0,0,0,1.4-2.7,18.1,18.1,0,0,0,.9-3.1c.1-.5.1-1,.2-1.5s-.1-1.1-.1-1.6a6.8,6.8,0,0,0-1.3-2.7h-.1l-.9-.8a.5.5,0,0,0-.7.2v.2c0,.2,0,.3.2.4l.5.3.3.3c0,.1.1.1.1.2l-1,.4-1,.7a12.1,12.1,0,0,0-1.6,1.6l-.7.8-.8.9-1.9,2-2,2.1c-1.9,1.9-3.8,3.9-5.6,6l-2.1,2.7a.8.8,0,0,0-.2-.4c0-.1-.1-.2-.3-.2a.2.2,0,0,0-.3,0c-.2.1-.3.2-.3.4" transform="translate(-1162.1 -536.1)" fill="#c68327"/><path d="M1267.4,713.2l2.2-1.4,2.1-1.9a20.1,20.1,0,0,0,3.4-4.3,17.1,17.1,0,0,0,1.4-2.7,15.8,15.8,0,0,0,.9-3.1,7.7,7.7,0,0,0,.2-1.5,9.2,9.2,0,0,0-.1-1.6,5.3,5.3,0,0,0-1.3-2.7h0l-1-.8a.5.5,0,0,0-.7.2.3.3,0,0,0-.1.2c0,.2.1.3.3.4l.5.4.3.2c0,.1.1.1.1.2l-1,.4-1,.7-.8.7h0a15.4,15.4,0,0,1,.1,7.4,20.2,20.2,0,0,1-1.4,3.4,15.1,15.1,0,0,1-2.2,3.2,20.1,20.1,0,0,1-3.1,2.8l-.9.7a9.5,9.5,0,0,0,2.1-.9" transform="translate(-1162.1 -536.1)" fill="#a76e20"/><path d="M1174,661.8c0,1.8,0,3.7.2,5.9a60.7,60.7,0,0,0,1.3,9.9,61.2,61.2,0,0,0,9.1,21.7,47.6,47.6,0,0,0,7.6,9,49.7,49.7,0,0,0,9.6,6.9,62.7,62.7,0,0,0,11.5,4.6,44.9,44.9,0,0,0,12.3,1.9,34,34,0,0,0,9.7-1.1,30,30,0,0,0,9.2-3.9.5.5,0,0,0,.2-.4v-.2l-.2-.2h.7l3.8-.7a.4.4,0,0,0,.4-.4v-.2c-.1-.2-.4-.4-.6-.3-2.2.4-4.3.8-6.5,1l-3.6.2a50.5,50.5,0,0,1-11-.7h0l-2.8-.5a53,53,0,0,1-11-3.8l-2.5-1.1a55.9,55.9,0,0,1-9.6-6.5,52.5,52.5,0,0,1-9.7-10.3,55.3,55.3,0,0,1-10.1-26.6h0a61.9,61.9,0,0,1-.3-7.4c.1-1.8.2-3.5.4-5.2a14.3,14.3,0,0,1,.4-2.2,42.9,42.9,0,0,1,1.4-6.2h0c.3-1,.6-2,1-3h0a4.9,4.9,0,0,0,.4-1.1l1.1-2.6h.1v-.2h.1c.1,0,.1-.1.1-.2h.3c0-.1.1-.1.1-.2a.1.1,0,0,0-.1-.1c0-.1-.1-.2-.2-.3h-.3c-.1.1-.3.1-.3.2h-.1v.2h-.1v.2l-.2.4h0c-.1.1-.1.1-.1.2h-.2l-1,2.5c0,.1,0,.2-.1.2a1.4,1.4,0,0,1-.2.6v.2h-.1v.3h-.1c-.2.5-.3,1.1-.5,1.7l-.3-.2a.2.2,0,0,0-.3,0,11.3,11.3,0,0,0-3.6,2.4,16.4,16.4,0,0,0-2.5,3.6,26.2,26.2,0,0,0-2.3,9l-.3,3.4" transform="translate(-1162.1 -536.1)" fill="#4a3b2a"/><path d="M1174.6,653.3a.5.5,0,0,0,.3.5h.4c.1-.1.2-.2.2-.3s.3-1.1.4-1.6V651a53.4,53.4,0,0,1,1.8-5.2c.1-.1.2-.2.2-.3s.3-.8.4-1.2a26,26,0,0,1,2.3-3.5,36,36,0,0,1,3.4-3.5l3.9-3.4c1.2-1.1,2.5-2,3.7-3l1.6-1.2h.2l1.9-1.5a62.7,62.7,0,0,1,14.7-7.6l3.2-1.1,3.5-1.1a55.4,55.4,0,0,1,7.1-1.2h.1a44.2,44.2,0,0,1,6.3-.2,34.4,34.4,0,0,1,6.3.6,48.2,48.2,0,0,1,12.4,3.8h.1a52.6,52.6,0,0,1,10.9,6.9,52.3,52.3,0,0,1,15.8,21.9h0a48.4,48.4,0,0,1,2.9,12.1,40.1,40.1,0,0,1,.2,6,36.6,36.6,0,0,1-.5,5.7h0a62.7,62.7,0,0,1-5.1,15.8c-1,2-2,4.1-3.3,6.5a30.6,30.6,0,0,1-3.3,4.7l-.4.5c-1.1,1.4-2.3,2.9-3.3,4.4a14.9,14.9,0,0,0-1.3,2.5,8.8,8.8,0,0,0-.6,2.7c0,.1,0,.1-.1.2a45.5,45.5,0,0,1-4.3,2.8l-4.4,2.3-3.3,1.4h-.7l-.3.2v.3h0c0,.1.1.2.2.3h1.3l3.2-1.4,4.3-2.2h.1a44.3,44.3,0,0,0,4.6-2.9h.1c1.2-.9,2.4-1.8,3.5-2.8a55.3,55.3,0,0,0,17-24.8,58.6,58.6,0,0,0,2.9-16.2v-3.7a57.4,57.4,0,0,0-3.7-18.3,65.8,65.8,0,0,0-4.6-9.2,52.5,52.5,0,0,0-5.8-7.8,55.8,55.8,0,0,0-16-12.5,56.6,56.6,0,0,0-19.4-6,55.9,55.9,0,0,0-19.1,1,53.6,53.6,0,0,0-17.8,7.5,60.6,60.6,0,0,0-7.7,5.9,59.6,59.6,0,0,0-6.7,7.4,54.9,54.9,0,0,0-9.2,18.4v.2a3.7,3.7,0,0,0-.2.9,8.3,8.3,0,0,0-.4,1.5h0" transform="translate(-1162.1 -536.1)" fill="#4a3b2a"/><path d="M1233.7,719.7a51.6,51.6,0,1,0-57.1-45.5,51.6,51.6,0,0,0,57.1,45.5" transform="translate(-1162.1 -536.1)" fill="#a4dbd9" opacity="0.3"/><path d="M1176.6,674.2a51.5,51.5,0,1,0-.3-7.5,47.1,47.1,0,0,0,.3,7.5m95.5,3.7a43.3,43.3,0,0,1-2.5,8.7,52.7,52.7,0,0,1-3.9,7.9,50.6,50.6,0,0,1-5.3,6.9,47,47,0,0,1-6.6,6,50.3,50.3,0,0,1-7.4,4.5,48.1,48.1,0,0,1-8.2,3.2,36.9,36.9,0,0,1-5.6,1.1h-.1l-2.7.3-3.7.2h-4.5l-2.4-.3-1.7-.2h-1.7c0-.1,0-.1-.1-.1h-.8l-1.3-.4h-.2l-2-.6-.9-.3-3.8-1.4-3.6-1.7-.5-.3c-1.4-.7-2.6-1.5-3.9-2.3a.1.1,0,0,0-.1-.1h0a.1.1,0,0,0-.1-.1l-2.6-1.9-3.8-3.3-.3-.3-2.3-2.4a1.8,1.8,0,0,0-.5-.7,31.7,31.7,0,0,1-2.1-2.7c-.8-1.1-1.6-2.3-2.3-3.5a37.5,37.5,0,0,1-2.4-4.4l-1.5-3.6c-.5-1.5-1-3-1.4-4.6s-.6-2.7-.8-4a48.8,48.8,0,0,1-.6-5.2,26.2,26.2,0,0,1-.1-2.8v-.9h0v-.5a42.3,42.3,0,0,1,.5-5,52.2,52.2,0,0,1,2-8.7,50.2,50.2,0,0,1,3.7-8.2,48.9,48.9,0,0,1,5-7.2,54.3,54.3,0,0,1,6.4-6.3,52.7,52.7,0,0,1,7.4-4.9,41.8,41.8,0,0,1,8.2-3.4,45.5,45.5,0,0,1,8.9-1.9,31.5,31.5,0,0,1,4.4-.3,36.9,36.9,0,0,1,4.7.1,44.8,44.8,0,0,1,8.9,1.5,47.7,47.7,0,0,1,8.2,3.1,45.2,45.2,0,0,1,7.6,4.6,49.2,49.2,0,0,1,6.4,5.7,54.7,54.7,0,0,1,5.2,6.7,48.4,48.4,0,0,1,4.1,7.8c.5,1.4,1,2.7,1.4,4.1a35.4,35.4,0,0,1,1.1,4.4,55.1,55.1,0,0,1,1,9v2a57.1,57.1,0,0,1-.8,7.1" transform="translate(-1162.1 -536.1)" fill="#a4dbd9" opacity="0.7"/><path d="M1232.2,630.7l2.4.7,2.5,1.1,2.6,1.2,3.2,2h-.1a64.2,64.2,0,0,1,6.7,5.9c.9.9,1.8,1.7,2.6,2.6l3.9,3.7,1.6,1.5a9.5,9.5,0,0,0,2,1.5l1,.5h1a3,3,0,0,0,1.6-.3,4.8,4.8,0,0,0,1-1.2,4.3,4.3,0,0,0,.4-1.7h0a9.9,9.9,0,0,0-1.1-4.1,25.8,25.8,0,0,0-2.2-3.1,34.4,34.4,0,0,0-2.7-2.7,36.9,36.9,0,0,0-6.9-4.4,42,42,0,0,0-8-2.8,37.3,37.3,0,0,0-8-1l-3.4.2-1.1.2,1,.2" transform="translate(-1162.1 -536.1)" fill="#fefefe" opacity="0.7" style="mix-blend-mode:screen"/><path d="M1181.3,673.1c0,.3.1.6.1.9l.3,1c.2.5.3,1,.5,1.4a9.1,9.1,0,0,0,.7,1.4l.4.5.7.4h.7a1.4,1.4,0,0,0,1-.5,3.8,3.8,0,0,0,.5-1.5c0-.5.1-1.1.1-1.6s-.1-1.8-.2-2.7-.1-1.1-.2-1.7a8.3,8.3,0,0,0-.4-1.5,2.7,2.7,0,0,0-.6-1.2,1,1,0,0,0-.4-.5l-.6-.4a1.7,1.7,0,0,0-1.2,0l-.6.3-.4.5a6181264102972.5,6181264102972.5,0,0,1-.4,1.2,6.1,6.1,0,0,0-.1,1.4,9.7,9.7,0,0,0,.1,2.4m3.8-.2h0" transform="translate(-1162.1 -536.1)" fill="#fefefe" opacity="0.7" style="mix-blend-mode:screen"/><path d="M1185.1,685.3c.1,0,.1.1.1.2a.1.1,0,0,0,.1.1l.3,1h0l.3.7c.6,1.4,1.2,2.7,1.9,4.1s.1.3.2.4l1.1,1.9,1.9,2.9a51.7,51.7,0,0,0,4.8,5.7,43.8,43.8,0,0,0,11.8,8.2h0l.5.2a53.8,53.8,0,0,0,5.1,2l2.4.6,2.7.5a19.7,19.7,0,0,0,3.4.4h8.7l1.7-.3h.6l2-.3.7-.2h.7l2.9-.7a.6.6,0,0,0,.4-.8.6.6,0,0,0-.7-.4l-1.3.3h-9.6l-1-.2h-.8l-1-.2-.9-.2-1-.2a15.2,15.2,0,0,1-2-.6l-1.8-.5-1.7-.6-1.1-.4-2.9-1.3-3.1-1.5h-.1l-1.5-.9-1.5-.9-2.7-1.9a45.9,45.9,0,0,1-4.1-3.6,53.4,53.4,0,0,1-3.9-4.4,29.8,29.8,0,0,1-2-2.9l-1.1-1.7-.5-.9c0-.1-.1-.1-.1-.2a31.8,31.8,0,0,1-1.6-3.2c-.1-.2-.1-.4-.3-.6h0c0-.2-.1-.3-.1-.5h0l-.2-.3a2.9,2.9,0,0,0-5.4-.7,3.3,3.3,0,0,0-.4,1.4,2.8,2.8,0,0,0,.1.9m51,26.3h0" transform="translate(-1162.1 -536.1)" fill="#fefefe" opacity="0.7" style="mix-blend-mode:screen"/><path d="M1172.2,666.9a53.3,53.3,0,0,0,.2,5.6v.2h0c.1.7.1,1.4.2,2.1a60.5,60.5,0,0,0,1.3,7.2l.3.9c.3,1.1.6,2.3,1,3.4a52.5,52.5,0,0,0,2.2,5.5l.2.3v.3l1.4,2.7v.2h.1a46.6,46.6,0,0,0,4,6.2l1.9,2.4h.4a59.2,59.2,0,0,0,9.3,8.7h.2l3.1,2.1a60.3,60.3,0,0,0,10.2,5h.1l1.6.6a68.7,68.7,0,0,0,7.5,1.9,51,51,0,0,0,10.4.8,60.7,60.7,0,0,0,10.2-1,56,56,0,0,0,19-7.7,65.1,65.1,0,0,0,7.9-6.2,59.8,59.8,0,0,0,6.7-7.5,55.2,55.2,0,0,0,10.6-28.2,24.4,24.4,0,0,0,.1-2.7,53.2,53.2,0,0,0-.3-7.9,55,55,0,0,0-5.6-18.9,54,54,0,0,0-11.8-15.6,57.7,57.7,0,0,0-7.8-6,54.4,54.4,0,0,0-9-4.6,53.5,53.5,0,0,0-20.2-4,52.9,52.9,0,0,0-10.4.9,54.3,54.3,0,0,0-27.2,13.5,57.1,57.1,0,0,0-12.5,16.7,55.6,55.6,0,0,0-3.6,9.9,53.5,53.5,0,0,0-1.7,9.2v1c-.1.7-.1,1.4-.2,2.1m5.9,3h0a18.5,18.5,0,0,1-.1-2.3h.1v-1h0a29.4,29.4,0,0,1,.5-5.1h0c0-.3.1-.6.1-.8h0c.4-2.2.9-4.3,1.5-6.4a49.2,49.2,0,0,1,2.3-6h0a53,53,0,0,1,6.8-10.8,48,48,0,0,1,9.3-8.7,47.2,47.2,0,0,1,5.3-3.3,44.3,44.3,0,0,1,5.8-2.7h-.1a57.9,57.9,0,0,1,6.3-1.9,44.1,44.1,0,0,1,6.5-1.1q3.3-.3,6.6-.3a52.6,52.6,0,0,1,6.7.7h-.1a64.2,64.2,0,0,1,6.3,1.5,39.6,39.6,0,0,1,6.2,2.4,42.1,42.1,0,0,1,5.5,3,47,47,0,0,1,5.3,3.8h-.1a46.8,46.8,0,0,1,8.6,9.2h0a49.3,49.3,0,0,1,3.4,5.4,44.3,44.3,0,0,1,2.7,5.8h0a63.6,63.6,0,0,1,1.9,6.2,42.7,42.7,0,0,1,1.1,6.4h0a48.5,48.5,0,0,1,.2,6.6h0a49.2,49.2,0,0,1-.6,6.4h0c-.4,2.2-.9,4.3-1.5,6.4s-1.4,4-2.3,6h0a65.5,65.5,0,0,1-3.2,5.8,55.6,55.6,0,0,1-3.7,5.2,53.6,53.6,0,0,1-9.2,8.6,58.4,58.4,0,0,1-5.3,3.3,45.8,45.8,0,0,1-5.9,2.7l-3.6,1.2a50,50,0,0,1-8.4,1.7h-.7l-3.5.2h-3l-3.3-.2h-.2l-2.9-.4h-.7l-4.5-1.1-1.2-.3-2.7-.9h-.5l-2.9-1.2h0l-1.1-.6h-.2a55.9,55.9,0,0,1-8.9-5.7l-.7-.6h0l-2.8-2.5h0l-.3-.2a.1.1,0,0,0-.1-.1v-.2h-.6l-.2-.2h-.3l-.2-.2h-.8v-.2h-.1l-.2-.2h-.3l-2.6-3.3a8.3,8.3,0,0,0-.8-1.2h0l-2.5-4.1-1.8-3.7V688h0a12.2,12.2,0,0,1-.7-1.7h0a42.1,42.1,0,0,1-2-6.3c-.2-.7-.3-1.5-.5-2.2h0a27,27,0,0,1-.6-4.1c0-.4-.1-.8-.1-1.1h0a12.8,12.8,0,0,1-.1-1.9v-.2h0Z" transform="translate(-1162.1 -536.1)" fill="#705a41"/><path d="M1188.2,705.2l1.5,1.4c0,.1,0,.1.1.1l.7.7a.1.1,0,0,0,.1.1l1.2,1.1h.1l1,.9h0l.5.4a.1.1,0,0,0,.1.1l.3.2h0a54.5,54.5,0,0,0,9.1,5.9l5.3,2.3q2.8,1.1,5.7,1.8l1.1.3h1.1a35.1,35.1,0,0,0,6.5.9l3.2.2h3l2.9-.2h1.4l1.5-.2a52.3,52.3,0,0,0,5.4-1.2l2.8-.7,2.8-1a48.3,48.3,0,0,0,5.2-2.3l1.8-.9,2-1.2c.2-.1,0-.4-.2-.3l-2.5,1.4h0l-.6.3-.8.4-1.6.7h-.6l-.9.4a.1.1,0,0,0,.1-.1l-3.5,1.3-3.6.9-1.8.4-1.7.3-.9.2h-.9l-1.9.2h.1l-3.4.2h-3.5l-3.3-.2-3.5-.4-3.2-.7h-1l-1.4-.4-2.9-.8a47.1,47.1,0,0,1-5.2-2.1h.1c0-.1-.1-.1-.2-.1h0a55.8,55.8,0,0,1-10.9-6.9l-.2-.2h-.4l-.3-.3h-.1l-.4-.4-.4-.3h0l-1.2-1.1h-.1l-.8-.7h0l-1.5-1.5a.8.8,0,0,0-1.2,0,.7.7,0,0,0-.3.6,1,1,0,0,0,.2.7m6.4,3.5h0m.1,0h0m11.1,7.1h0Z" transform="translate(-1162.1 -536.1)" fill="#fff3da"/><path d="M1186.6,702.2a.9.9,0,0,0,1-.9.9.9,0,0,0-.9-.9,1,1,0,0,0-1,.9.9.9,0,0,0,.9.9" transform="translate(-1162.1 -536.1)" fill="#fff3da"/><path d="M1184.7,699.2a.6.6,0,0,0,.6-.6.7.7,0,0,0-.6-.7.6.6,0,0,0-.6.6c0,.4.2.7.6.7" transform="translate(-1162.1 -536.1)" fill="#fff3da"/><circle cx="299.5" cy="169.3" r="84.1" fill="url(#edc7be31-678e-4813-ba64-fa6d1499306c)"/><image width="96" height="139" transform="translate(259.4 109.3)" opacity="0" xlink:href="01_%E9%81%8A%E6%88%B2%E9%A6%96%E9%A0%81v1.1.33.png" style="mix-blend-mode:multiply"/><path d="M1487.2,715.4a20.2,20.2,0,0,0,.5-4.3,20.9,20.9,0,0,0-2.8-10.5,59.9,59.9,0,0,1-7.4-29.6v-2.7h-22.4v3.9a62,62,0,0,1-7.6,28.9,22,22,0,0,0-2.5,11.4,28.9,28.9,0,0,0,.4,2.9h0a21.4,21.4,0,0,0,19.9,17,21.1,21.1,0,0,0,21.9-17Z" transform="translate(-1162.1 -536.1)" fill="#e4e1ce"/><path d="M1472.4,710.6a6.1,6.1,0,0,1-6.1,6.1,6.2,6.2,0,0,1-6.1-6.1c0-3.4,6.1-14.3,6.1-14.3S1472.4,707.2,1472.4,710.6Z" transform="translate(-1162.1 -536.1)" fill="#efb03c"/><path d="M1469,711a2.7,2.7,0,0,1-5.3,0c0-1.5,2.6-6.2,2.6-6.2S1469,709.5,1469,711Z" transform="translate(-1162.1 -536.1)" fill="#fff"/><path d="M1466.5,725.6h0a3.2,3.2,0,0,1-3.2-3.2V720a3.2,3.2,0,0,1,3.2-3.2h0a3.2,3.2,0,0,1,3.2,3.2v2.4A3.2,3.2,0,0,1,1466.5,725.6Z" transform="translate(-1162.1 -536.1)" fill="#331722"/><rect x="296.1" y="184.7" width="16.3" height="22.33" rx="5.7" fill="#492735"/><rect x="290.2" y="193.6" width="27.9" height="13.85" rx="5.7" fill="#331722"/><path d="M1485.8,745.6h-38.9a14,14,0,0,1-13.9-14c0-.6,3.6-42.8,4.1-50.2s6-13.7,13.9-13.7h30.6c7.9,0,13,5,13.9,13.6s4,48.4,4.2,50.1A14.1,14.1,0,0,1,1485.8,745.6ZM1451,673.4c-4.9,0-7.8,2.9-8.2,8.5-.5,7.3-4.1,49.5-4.2,50a8.3,8.3,0,0,0,8.3,8h38.9a8.3,8.3,0,0,0,8.2-8.3c0-.2-3.4-42.3-4.1-49.7-.7-5.7-3.4-8.5-8.3-8.5Z" transform="translate(-1162.1 -536.1)" fill="#e4e1ce"/><rect x="285.3" y="208.4" width="37.8" height="16.21" fill="#68a044"/><path d="M1486.1,763.6h-39.6a2.2,2.2,0,0,1-2.2-2.3h0a2.2,2.2,0,0,1,2.2-2.2h39.6a2.2,2.2,0,0,1,2.3,2.2h0A2.3,2.3,0,0,1,1486.1,763.6Z" transform="translate(-1162.1 -536.1)" fill="#a3ab54"/><rect x="291.8" y="127.8" width="24.8" height="13.95" fill="#68a044"/><path d="M1478.1,662.2c-1.7-2.3-6.3-4-11.8-4s-10,1.7-11.7,4Z" transform="translate(-1162.1 -536.1)" fill="#a3ab54"/><path d="M1469.4,653.7h-6.2a1.1,1.1,0,0,0-.8,1.9l3.9,3.9,3.9-3.9A1.1,1.1,0,0,0,1469.4,653.7Z" transform="translate(-1162.1 -536.1)" fill="#efb03c"/><path d="M1478.3,665.5h-24a1.6,1.6,0,0,1-1.6-1.7h0a1.6,1.6,0,0,1,1.6-1.6h24a1.7,1.7,0,0,1,1.7,1.6h0A1.7,1.7,0,0,1,1478.3,665.5Z" transform="translate(-1162.1 -536.1)" fill="#a3ab54"/><circle cx="303.9" cy="135.3" r="1.5" fill="#331722"/><circle cx="295.7" cy="135.3" r="1.5" fill="#331722"/><path d="M1475.7,671.4a1.5,1.5,0,0,1-1.5,1.5,1.6,1.6,0,0,1-1.6-1.5,1.5,1.5,0,0,1,1.6-1.5A1.5,1.5,0,0,1,1475.7,671.4Z" transform="translate(-1162.1 -536.1)" fill="#331722"/><path d="M1479.7,734h-26.6a2.2,2.2,0,0,1-2.1-2.1h0a2.2,2.2,0,0,1,2.1-2.2h26.6a2.1,2.1,0,0,1,2.1,2.2h0A2.1,2.1,0,0,1,1479.7,734Z" transform="translate(-1162.1 -536.1)" fill="#593949"/><g mask="url(#bfdb5501-ca55-4adc-afae-0f0ef7399ac8)"><path d="M1478.3,701.3a44.1,44.1,0,0,1-3.8-18.3v-1.9h-16v2.8a43.3,43.3,0,0,1-3.9,17.4Z" transform="translate(-1162.1 -536.1)" fill="url(#a304087f-9961-49a7-b7ca-98a20d17a33e)"/></g><g mask="url(#bbee862e-7f55-409d-91e9-a5674a06e608)"><rect x="285.3" y="208.4" width="37.9" height="9.31" fill="url(#a5ffd6b9-1741-4416-863e-40eb0e58e673)"/></g><g mask="url(#b348e46e-e5ae-429a-8e65-9628d698408a)"><rect x="291.8" y="129.3" width="24.9" height="9.31" fill="url(#a5bbc22a-690f-4b5c-94a2-8aa21fc9c43f)"/></g></g></g></svg>