<svg xmlns="http://www.w3.org/2000/svg" xmlns:xlink="http://www.w3.org/1999/xlink" viewBox="0 0 532.5 515"><defs><clipPath id="b9ed643a-cfee-41ea-bca5-3e8779e51248" transform="translate(-102.1 -299.1)"><path id="fdf7fd68-23e8-4357-9111-8249e1144355" data-name="SVGID" d="M376.8,658.7c-5.6,5.4-8.2,11.8-5.9,14.2s8.8-.1,14.3-5.5,8.2-11.8,5.9-14.2a3.1,3.1,0,0,0-1.4-.7c-2.9-.8-8.2,1.6-12.9,6.2" fill="none"/></clipPath><linearGradient id="a10ba045-289d-45c9-bb19-2123195554db" x1="86.38" y1="4501" x2="86.76" y2="4501" gradientTransform="translate(-5436.8 -302989.6) scale(67.46)" gradientUnits="userSpaceOnUse"><stop offset="0" stop-color="#85b644"/><stop offset="0.08" stop-color="#8cba48"/><stop offset="0.42" stop-color="#a3c856"/><stop offset="0.73" stop-color="#b1d15e"/><stop offset="1" stop-color="#b6d461"/></linearGradient><clipPath id="e1accf16-7313-42d6-a543-62671d19dabe" transform="translate(-102.1 -299.1)"><path id="b09ab01c-3b4c-4c23-ba4d-f8756d3750bb" data-name="SVGID" d="M514.7,654.4c-1.8,2.8,1.9,8.6,8.4,12.9s13.2,5.6,15,2.8-1.8-8.6-8.3-12.9-12.3-5.4-14.7-3.3l-.4.5" fill="none"/></clipPath><linearGradient id="abc8f9e1-1d02-4552-b033-61b52a9ee875" x1="68.25" y1="4573.91" x2="68.63" y2="4573.91" gradientTransform="translate(-308088.2 5270.7) rotate(-90) scale(67.47)" xlink:href="#a10ba045-289d-45c9-bb19-2123195554db"/><clipPath id="aa1ffd73-66b4-4170-93d6-d10d2bb3b5b9" transform="translate(-102.1 -299.1)"><path id="ab31e5f1-ac83-45e3-8b23-4942f60eb72b" data-name="SVGID" d="M475.9,695c-3.2,1.1-3.5,8-.8,15.3s7.4,12.3,10.6,11.1,3.5-8,.8-15.3-6.9-11.6-10-11.3l-.6.2" fill="none"/></clipPath><linearGradient id="e2dcd820-8c36-4f82-8fe1-2b2754045cd4" x1="88.86" y1="4556.6" x2="89.25" y2="4556.6" gradientTransform="matrix(0, -67.47, 67.47, 0, -306965.67, 6717.13)" xlink:href="#a10ba045-289d-45c9-bb19-2123195554db"/><clipPath id="be7f27bc-69a6-416a-a8d0-f5baad6d030b" transform="translate(-102.1 -299.1)"><path id="b8032460-29f3-4355-af91-bb620f92554a" data-name="SVGID" d="M406.3,701.1c-3.3,7-3.5,13.9-.4,15.3s8.1-3.2,11.4-10.3,3.4-13.9.3-15.3a2.7,2.7,0,0,0-1.6-.2c-3,.3-7,4.5-9.7,10.5" fill="none"/></clipPath><linearGradient id="a82d026a-158f-4b4e-84f2-7a4867c7817f" x1="90.63" y1="4516.21" x2="91.01" y2="4516.21" gradientTransform="translate(-304267.4 6816.8) rotate(-90) scale(67.46)" xlink:href="#a10ba045-289d-45c9-bb19-2123195554db"/><clipPath id="a0edc9e3-3654-4a2a-abf0-93f110c365b7" transform="translate(-102.1 -299.1)"><path id="bf30347c-8f77-4f20-b74e-36d6e714f7d8" data-name="SVGID" d="M387.9,602.2a75.7,75.7,0,1,0,57.7-38.8,75.4,75.4,0,0,0-57.7,38.8" fill="none"/></clipPath><linearGradient id="b194b3ac-76b7-45a4-af2b-3a6b3df2c5f2" x1="40.27" y1="4542.53" x2="40.65" y2="4542.53" gradientTransform="matrix(-392.5, 0, 0, -392.5, 16323.1, 1783604.33)" gradientUnits="userSpaceOnUse"><stop offset="0" stop-color="#b6d461"/><stop offset="1" stop-color="#b6d461"/><stop offset="1" stop-color="#85b644"/></linearGradient><clipPath id="b13bc9ce-5b4f-4998-9b52-8fdb9dba986d" transform="translate(-102.1 -299.1)"><path id="e6be1533-5ed7-47c0-aec3-d70c8e175234" data-name="SVGID" d="M405.3,585a72.5,72.5,0,1,0,40.5-18.5A72.4,72.4,0,0,0,405.3,585" fill="none"/></clipPath><linearGradient id="f25473a5-de9f-4e73-afd5-259bcc14a033" x1="46.75" y1="4539.62" x2="47.13" y2="4539.62" gradientTransform="matrix(0, -376.45, 376.45, 0, -1708479.52, 18319.86)" xlink:href="#a10ba045-289d-45c9-bb19-2123195554db"/><clipPath id="b9e9a7a8-5141-4100-b3d6-40f2b4df8bbc" transform="translate(-102.1 -299.1)"><rect id="ae925cad-3c14-43df-b8cb-beda2e113609" data-name="SVGID" x="497" y="627" width="24" height="21" fill="none"/></clipPath><clipPath id="b94eb76c-65fc-4e31-b9ca-595176c7a786" transform="translate(-102.1 -299.1)"><rect id="f9405b2d-b5e4-40a5-b6c3-b600067794f9" data-name="SVGID" x="384" y="629" width="25" height="20" fill="none"/></clipPath><linearGradient id="aec35f1c-4106-4020-af5f-1e44c1d2d27c" x1="642.66" y1="474.02" x2="642.96" y2="427.27" gradientTransform="matrix(1.66, 0.62, -0.4, 1.09, -399.99, -649.82)" gradientUnits="userSpaceOnUse"><stop offset="0" stop-color="#fae039" stop-opacity="0.7"/><stop offset="0.73" stop-color="#fd0" stop-opacity="0.3"/><stop offset="0.79" stop-color="#fd0" stop-opacity="0.26"/><stop offset="0.89" stop-color="#fd0" stop-opacity="0.15"/><stop offset="1" stop-color="#fd0" stop-opacity="0"/></linearGradient></defs><title>01_遊戲首頁v1.1.3</title><g style="isolation:isolate"><g id="e4d9473a-ce2e-418e-b349-2deb394e3b02" data-name="圖層 4"><image width="308" height="473" opacity="0" xlink:href="01_%E9%81%8A%E6%88%B2%E9%A6%96%E9%A0%81v1.1.31.png" style="mix-blend-mode:multiply"/><path d="M113.8,444.6c29-15.3,60.9-18,92.7-20.7s63.7-5.3,92.8-20.6l13.4,60,13.4,60.1c-29.1,15.3-60.9,18-92.8,20.7s-63.7,5.4-92.7,20.7c8.3-26.8,17.2-51.1,26.4-74.1C148.9,473.6,131,457.9,113.8,444.6Z" transform="translate(-102.1 -299.1)" fill="#d3bdaf"/><polygon points="244.3 14.1 229.4 8.9 205.5 77.4 167.8 48.7 158.2 61.3 200.4 93.4 271.6 452.2 282.7 452.9 290.1 448.1 218.6 88 244.3 14.1" fill="#855027"/><polygon points="230.9 95.4 226.5 88.8 219.2 99.3 197.2 104.2 198.8 111.3 220.8 106.4 231.5 109 232.2 101.5 221.1 102.8 230.9 95.4" fill="#d3bdaf"/><polygon points="256.5 207 252.8 201 244.3 211.9 222.3 216.8 223.9 223.9 245.9 219 256.6 220.5 258 213.8 245.1 215.5 256.5 207" fill="#d3bdaf"/><path d="M224.1,439.6a9.4,9.4,0,0,1,2.9,0,3.8,3.8,0,0,0,1.7.2,2.9,2.9,0,0,0,1.9-1.3l3.2,7.5-.9.4a12.1,12.1,0,0,0-3.4-4,6,6,0,0,0-4.8-1.4c-2.4.4-3.8,2.3-4.3,5.6a30.2,30.2,0,0,0,.5,9.7c1.1,6.6,3.1,10.6,5.8,12a4,4,0,0,0,2.5.4,5,5,0,0,0,2.1-1c.9-.6,1.3-1.1,1.2-1.8l-1.3-7.4q-.3-1.2-1.8-.9h-.8l-.2-1.3,7.7-1.3.2,1.2-.9.2c-.9.2-1.2.6-1.1,1.5l1.6,9h-1.3a3.4,3.4,0,0,0-1.8,1.3,6.6,6.6,0,0,1-3.4,1.8,7.9,7.9,0,0,1-4.5-.7,9.6,9.6,0,0,1-4-4,24.1,24.1,0,0,1-3.3-9,25.8,25.8,0,0,1,0-9.6,10.4,10.4,0,0,1,2.2-4.6A7,7,0,0,1,224.1,439.6Z" transform="translate(-102.1 -299.1)" fill="#755f45"/><path d="M242.4,436.4c3-.5,5.6.7,7.7,3.6a23.8,23.8,0,0,1,4,10.1,27.2,27.2,0,0,1,0,9,12,12,0,0,1-2.4,5.1,6.9,6.9,0,0,1-9.4,1.6,14.3,14.3,0,0,1-3.5-3.8,24.7,24.7,0,0,1-3-8.7,24,24,0,0,1-.3-7.5,12.7,12.7,0,0,1,2.6-7A7.4,7.4,0,0,1,242.4,436.4Zm4.6,29.1a4.7,4.7,0,0,0,3.9-3.7q1.2-4.2,0-11.1c-.8-5.1-2.2-8.7-3.9-11a4.3,4.3,0,0,0-4.3-1.9c-1.7.3-2.9,1.5-3.7,3.6s-1,6.2,0,11.4C240.6,462,243.3,466.2,247,465.5Z" transform="translate(-102.1 -299.1)" fill="#755f45"/><path d="M205.4,492.8a7.1,7.1,0,0,1,2.9,0,3.4,3.4,0,0,0,1.6.2,3,3,0,0,0,1.9-1.3l3.3,7.5-.9.4a12.2,12.2,0,0,0-3.4-4,6.4,6.4,0,0,0-4.9-1.4c-2.3.4-3.7,2.3-4.2,5.6a29.9,29.9,0,0,0,.4,9.7c1.2,6.6,3.1,10.6,5.8,12a4.4,4.4,0,0,0,2.6.4,9.7,9.7,0,0,0,2.1-1c.8-.6,1.2-1.2,1.1-1.8l-1.3-7.4c-.1-.8-.7-1.1-1.8-1l-.8.2-.2-1.3,7.7-1.3.3,1.2-1,.2a1.1,1.1,0,0,0-1,1.5l1.5,9a4.7,4.7,0,0,0-1.2,0,2.8,2.8,0,0,0-1.8,1.3,6.1,6.1,0,0,1-3.4,1.7,7.1,7.1,0,0,1-4.5-.6,10.4,10.4,0,0,1-4.1-4,28.2,28.2,0,0,1-3.2-18.6,8.9,8.9,0,0,1,2.1-4.6A7.2,7.2,0,0,1,205.4,492.8Z" transform="translate(-102.1 -299.1)" fill="#755f45"/><path d="M221.7,490.3a13.4,13.4,0,0,1,7.3.5,7,7,0,0,1,4.3,5.6,6.1,6.1,0,0,1-1.1,5.1,8.3,8.3,0,0,1-4.3,3.1l6.6,11.2c.7,1,1.9,1.3,3.4,1.1l.2,1.2-5,.9-8.2-13.7-2.4.5,2.1,12c.1.9.6,1.3,1.5,1.1l1.2-.2.2,1.3-7.7,1.3-.2-1.2.8-.2a1.2,1.2,0,0,0,1-1.6l-4.3-24.6c-.2-.8-.6-1.2-1.3-1.1l-1,.2-.2-1.3Zm.5,14.2,2.2-.4a7.2,7.2,0,0,0,4.4-2.3,5.8,5.8,0,0,0,1.4-4.9c-.5-2.4-1.5-4-3.2-4.8a8.5,8.5,0,0,0-5.4-.5c-1.1.2-1.5.7-1.4,1.5Z" transform="translate(-102.1 -299.1)" fill="#755f45"/><path d="M249,485.5l2,7.6-1.1.2q-1.8-3.6-3.6-4.5a7.2,7.2,0,0,0-5.1-.6c-1.8.3-2.6.9-2.5,1.9l2,10.9,3.3-.6c.8-.2,1.3-.5,1.5-1.2a3.3,3.3,0,0,0,0-2l-.3-1.9,1.2-.2,2,11.1-1.3.3-.2-1.4a6.5,6.5,0,0,0-.9-2.9c-.3-.6-.9-.7-1.8-.6l-3.3.6,2,11.7c.3,1.3,1.2,1.9,2.9,1.6s4.4-1.4,5.5-2.7,1.7-3.1,2.1-5.8l1.1-.2v8.5l-16.6,2.9-.2-1.3,1.1-.2c.9-.2,1.3-.9,1.1-2.3l-4.2-23.8a1.4,1.4,0,0,0-1.7-1.2l-.9.2-.2-1.3Z" transform="translate(-102.1 -299.1)" fill="#755f45"/><path d="M267.1,482.3l2,7.6-1.1.2c-1.2-2.4-2.4-3.9-3.5-4.5a7.5,7.5,0,0,0-5.2-.6c-1.8.3-2.6.9-2.4,1.9l1.9,10.9,3.3-.6a1.6,1.6,0,0,0,1.6-1.2,6.5,6.5,0,0,0,0-2l-.4-1.9,1.3-.2,2,11.2-1.3.2-.2-1.4a11.1,11.1,0,0,0-.9-2.9,1.9,1.9,0,0,0-1.9-.6l-3.3.6,2.1,11.7c.2,1.3,1.2,1.9,2.8,1.6s4.5-1.4,5.6-2.7,1.6-3,2.1-5.8l1.1-.2-.2,8.5L256,515l-.2-1.3,1.1-.2c.9-.1,1.3-.9,1-2.3l-4.2-23.8a1.2,1.2,0,0,0-1.6-1.1h-1l-.2-1.2Z" transform="translate(-102.1 -299.1)" fill="#755f45"/><path d="M274,481.1l13.7,21.8-3.6-20.6c-.2-1.1-.7-1.5-1.6-1.4l-.9.2-.2-1.3,5.6-1,.3,1.3-1,.2c-.8.1-1.2.7-1,1.8L290,509l-1.4.3-15.3-23.8,4,23.2c.2.8.6,1.1,1.3,1l1.3-.2.2,1.2-5.5,1-.2-1.2.8-.2c.7-.1,1-.6.9-1.4l-4.3-24.5a1.7,1.7,0,0,0-2.2-1.4l-.2-1.1Z" transform="translate(-102.1 -299.1)" fill="#755f45"/><image width="331" height="330" transform="translate(190 185)" opacity="0" xlink:href="01_%E9%81%8A%E6%88%B2%E9%A6%96%E9%A0%81v1.1.32.png" style="mix-blend-mode:multiply"/><g clip-path="url(#b9ed643a-cfee-41ea-bca5-3e8779e51248)"><rect x="366.8" y="652.3" width="28.1" height="22.86" transform="translate(-475.9 491.3) rotate(-69.7)" fill="url(#a10ba045-289d-45c9-bb19-2123195554db)"/></g><g clip-path="url(#e1accf16-7313-42d6-a543-62671d19dabe)"><rect x="511.7" y="646.7" width="29.8" height="31.65" transform="translate(-306.9 789.2) rotate(-81.7)" fill="url(#abc8f9e1-1d02-4552-b033-61b52a9ee875)"/></g><g clip-path="url(#aa1ffd73-66b4-4170-93d6-d10d2bb3b5b9)"><rect x="465.9" y="692.7" width="29.8" height="31.65" transform="translate(-464.4 260.1) rotate(-45.8)" fill="url(#e2dcd820-8c36-4f82-8fe1-2b2754045cd4)"/></g><g clip-path="url(#be7f27bc-69a6-416a-a8d0-f5baad6d030b)"><rect x="400.4" y="690.2" width="22.9" height="28.12" transform="translate(-111.8 -293.3) rotate(-0.8)" fill="url(#a82d026a-158f-4b4e-84f2-7a4867c7817f)"/></g><g clip-path="url(#a0edc9e3-3654-4a2a-abf0-93f110c365b7)"><rect x="356.6" y="549.5" width="196.4" height="188.02" transform="translate(-264.9 -145) rotate(-16.4)" fill="url(#b194b3ac-76b7-45a4-af2b-3a6b3df2c5f2)"/></g><g clip-path="url(#b13bc9ce-5b4f-4998-9b52-8fdb9dba986d)"><rect x="344.3" y="531.6" width="220.8" height="223.17" transform="translate(-429.8 434.8) rotate(-61.4)" fill="url(#f25473a5-de9f-4e73-afd5-259bcc14a033)"/></g><path d="M510.4,577.2c-.4,4.3,3.5,8,8.6,8.4s9.5-2.7,9.8-6.9-3.5-8-8.6-8.4-9.5,2.7-9.8,6.9" transform="translate(-102.1 -299.1)" fill="#efdc3c"/><path d="M501,575.9c-2.3,3.6-.6,8.7,3.7,11.4s9.7,2.1,11.9-1.5.7-8.6-3.7-11.4-9.6-2.1-11.9,1.5" transform="translate(-102.1 -299.1)" fill="#efdc3c"/><path d="M512.5,585.3c-1.4,4,1.3,8.6,6.2,10.3s9.9-.2,11.3-4.2-1.4-8.6-6.2-10.3-9.9.2-11.3,4.2" transform="translate(-102.1 -299.1)" fill="#efdc3c"/><path d="M501.4,575c3.4,2.6,8.6,1.4,11.7-2.7s2.9-9.4-.5-12-8.6-1.4-11.7,2.7-2.9,9.4.5,12" transform="translate(-102.1 -299.1)" fill="#eebc2a"/><path d="M488.4,565.6c-2.2,3.5-.6,8.7,3.7,11.4s9.7,2.1,12-1.5.6-8.7-3.7-11.4-9.7-2.1-12,1.5" transform="translate(-102.1 -299.1)" fill="#eebc2a"/><path d="M499.9,574.9c-1.4,4,1.4,8.6,6.2,10.3s9.9-.1,11.3-4.1-1.4-8.6-6.2-10.3-9.9.1-11.3,4.1" transform="translate(-102.1 -299.1)" fill="#eebc2a"/><path d="M519.6,580.8a6.8,6.8,0,0,1-1.7,4.5l-.2.2-.3.3-.3.3-.3.2-.3.2-.3.3-2.1,1h-1.6c-7.7,1-12-6.3-14.3-12.3l-1-2.7-.3-.6a13.7,13.7,0,0,0-3.2-5.3l-.3-.2A7,7,0,0,0,487,566h-.6l-.3-.6a10.9,10.9,0,0,1-.8-1.5c-.1-.1-.1-.3-.2-.4l.4-.2a10.1,10.1,0,0,1,9.1.9c3.1,2.2,4.5,5.6,5.8,8.9,1.9,4.8,4.3,11.6,10.2,12.6,3.5.4,7.5-1.7,7.5-5.7s-5.1-5.2-7.5-5a10.8,10.8,0,0,0-6.2,2.1l-.7.5h-.8l.3-.2a16.9,16.9,0,0,1,2.9-1.7c5-2.1,13.1-.7,13.5,6" transform="translate(-102.1 -299.1)" fill="#008742"/><path d="M494.4,575.2l-1.7-.4a18.3,18.3,0,0,1-13.4-17.2l2.7-.2a19.3,19.3,0,0,0,12.4,17.8" transform="translate(-102.1 -299.1)" fill="#7db82e"/><path d="M498.6,579.3h.7l-.4.3h-.5l-.4.2-.4.2h-1l-.4.2h-1a17.9,17.9,0,0,1-6.1.2h-2l-.6-.2-.4-.2a9.6,9.6,0,0,1-6.4-8.2v-3c0-.1.1-.3.1-.4a1.4,1.4,0,0,0,.2-.6.3.3,0,0,0,.1-.2l.3-.7V568l1.9,2.7v3c1.3,5.5,8.1,6.9,13,6.4h1.7l1.3-.4" transform="translate(-102.1 -299.1)" fill="#7db82e"/><path d="M430.8,662.3a17.6,17.6,0,0,0,3.4,3.3,28,28,0,0,0,16.7,5.1c8.1,0,16-2.8,21.2-7.6s7.3-13.3,5.1-19c-1.4-3.5-4.4-5.4-8.7-5.2a18.7,18.7,0,0,0-7.4,2.2c-2.7,1.2-5.4,2.5-9,2.2a22.9,22.9,0,0,1-7.3-2.2c-2.5-1-4.8-2-7.3-2h-.6c-5.1,0-8.7,1.8-10.3,5.2-2.5,5.3.2,13.1,4.2,18" transform="translate(-102.1 -299.1)" fill="#2c230d"/><path d="M437.5,638.6c-4.2-.1-7.2.9-9.1,2.6.2,4.5,2.6,8.8,7.4,9s7.1-5,7.9-10a19.6,19.6,0,0,0-6.2-1.6" transform="translate(-102.1 -299.1)" fill="#fff"/><path d="M468.5,638.4c-4.1.1-7,2.2-10.4,3.5,2.1,6,9.6,11.3,12.9-3.3a10.1,10.1,0,0,0-2.5-.2" transform="translate(-102.1 -299.1)" fill="#fff"/><path d="M470.4,665.1c-5.7-6.2-11.2-12.1-21.4-9.1-6.8,1.9-10.3,6.4-11.9,12,10.1,5.3,24.2,3.9,33.3-2.9" transform="translate(-102.1 -299.1)" fill="#e14d11"/><path d="M428.3,592.4c24,7.6,16.8,48.3-10.5,38.7-21.9-7.7-14.7-46.6,10.5-38.7" transform="translate(-102.1 -299.1)" fill="#fff"/><path d="M422.1,604.9c11.8,2.6,10.1,26.5-4.3,22-12.3-3.8-9.3-25,4.3-22" transform="translate(-102.1 -299.1)" fill="#2c230d"/><path d="M482.5,592.4c24,7.6,16.8,48.3-10.5,38.7-21.9-7.7-14.7-46.6,10.5-38.7" transform="translate(-102.1 -299.1)" fill="#fff"/><path d="M476.3,604.9c11.8,2.6,10.1,26.5-4.3,22-12.3-3.8-9.3-25,4.3-22" transform="translate(-102.1 -299.1)" fill="#2c230d"/><g opacity="0.5"><g clip-path="url(#b9e9a7a8-5141-4100-b3d6-40f2b4df8bbc)"><path d="M519.5,631.9c3,4,2.9,11.1-2.6,14.1s-15.3,1.3-18.5-2.9c-6.8-8.9,13-22,21.1-11.2" transform="translate(-102.1 -299.1)" fill="#e0256d"/></g></g><g opacity="0.5"><g clip-path="url(#b94eb76c-65fc-4e31-b9ca-595176c7a786)"><path d="M386.4,633c-3,4-2.9,11.2,2.6,14.2s15.3,1.3,18.5-2.9c6.8-9-13-22-21.1-11.3" transform="translate(-102.1 -299.1)" fill="#e0256d"/></g></g><image width="88" height="129" transform="translate(415 279)" opacity="0" xlink:href="01_%E9%81%8A%E6%88%B2%E9%A6%96%E9%A0%81v1.1.33.png" style="mix-blend-mode:multiply"/><path d="M541.9,621.2a18.8,18.8,0,0,0,.7,12l-13.8,40.6a9.7,9.7,0,0,0,18.2,6.9l16.5-39.3c8-2.8,12.5-17.4,16.1-24.2l-33.3-12.6Z" transform="translate(-102.1 -299.1)" fill="#624130"/><path d="M546.3,604.6l1.6.6c-1.6,7.4-7.7,21.5-3.9,28.7l-13.8,41a9.6,9.6,0,0,0,2.1,9.9,9.6,9.6,0,0,1-3.5-11l13.8-40.6C538.7,626,544.8,611.9,546.3,604.6Z" transform="translate(-102.1 -299.1)" fill="#937064"/><g opacity="0.3" style="mix-blend-mode:multiply"><path d="M573.9,615l5.7,2.2c-3.7,6.9-8,21.4-16.1,24.2L547,680.7a9.8,9.8,0,0,1-15.1,3.8,9.6,9.6,0,0,0,9.4-6l16.5-39.3C565.8,636.5,570.3,621.9,573.9,615Z" transform="translate(-102.1 -299.1)" fill="#624130"/></g><path d="M553.7,626.8c3.8,1.4,1.6,7-2.1,5.7S550,625.4,553.7,626.8Z" transform="translate(-102.1 -299.1)" fill="#a38f86"/><path d="M571.5,588.4c6.9,2.3,17.3,10.2,15.6,16.1a6.4,6.4,0,0,1-.2.7L583,615.6c-.8,2-2.8,3.3-5.1,4-11,2.8-26.7-3.5-32.2-12.6a7.3,7.3,0,0,1-.8-5.8l3.9-10.4a7.1,7.1,0,0,1,3-3.2h0C557.4,584.8,565.2,586.1,571.5,588.4Z" transform="translate(-102.1 -299.1)" fill="#382118"/><path d="M571.5,588.4c22.9,8.9,20,26.8-4.4,20.1a35.3,35.3,0,0,1-15.1-8.7c-3.6-3.6-5.4-9.4-.2-12.2h0C557.4,584.8,565.2,586.1,571.5,588.4Z" transform="translate(-102.1 -299.1)" fill="#88c9cd"/><path d="M570.6,590.9c19.9,7.7,17.4,23.3-3.8,17.5-4.9-1.5-9.7-3.9-13.2-7.6s-4.7-8.3-.2-10.6h0C558.3,587.7,565.1,588.9,570.6,590.9Z" transform="translate(-102.1 -299.1)" fill="#88c9cd"/><path d="M569.3,594.1c7.8,3.1,12.4,10.1,9.3,15.8-8,1-21.3-4-26.6-10.1C553.4,593.4,561.5,591.2,569.3,594.1Z" transform="translate(-102.1 -299.1)" fill="#afe8e6"/><g opacity="0.5" style="mix-blend-mode:screen"><path d="M552.5,588.8l13.3,19.3a40.4,40.4,0,0,1-7.6-3.5l-8.6-12.4A6,6,0,0,1,552.5,588.8Z" transform="translate(-102.1 -299.1)" fill="#88c9cd"/><path d="M565.3,587.9l14.8,21.4a22.2,22.2,0,0,1-9.6,0l-14.9-21.6A24.6,24.6,0,0,1,565.3,587.9Z" transform="translate(-102.1 -299.1)" fill="#88c9cd"/><path d="M571.1,589.6a47.6,47.6,0,0,1,6.4,3.1l8.2,12a5,5,0,0,1-2.4,3.3l-12.8-18.6Z" transform="translate(-102.1 -299.1)" fill="#88c9cd"/></g><polygon points="479.3 306.1 450.2 295.4 477.5 181.9 532.5 202.3 479.3 306.1" fill="url(#aec35f1c-4106-4020-af5f-1e44c1d2d27c)"/></g></g></svg>