<svg xmlns="http://www.w3.org/2000/svg" xmlns:xlink="http://www.w3.org/1999/xlink" viewBox="0 0 322 320"><defs><clipPath id="b8e83f66-3d5c-43c9-988b-6b1c6e5d28e7" transform="translate(-1579.1 -324.1)"><path id="a5cdbc10-61b6-49c5-ae54-5a05c829fe72" data-name="SVGID" d="M1804.7,515.6c10.4,4.7,21.1,6,23.8,2.8s-3.6-9.5-14.1-14.2-21.2-5.9-23.9-2.7a2.5,2.5,0,0,0-.6,1.7c0,3.4,6,8.5,14.8,12.4" fill="none"/></clipPath><linearGradient id="a1f6dbd0-bfc0-45e6-9fb3-a89847a903ab" x1="39.11" y1="4575.79" x2="39.54" y2="4575.79" gradientTransform="matrix(-96.27, -7.36, 10.13, -67.06, -42339.21, 307338.62)" gradientUnits="userSpaceOnUse"><stop offset="0" stop-color="#81ae46"/><stop offset="0.06" stop-color="#86b149"/><stop offset="0.4" stop-color="#9dbf57"/><stop offset="0.72" stop-color="#abc85f"/><stop offset="1" stop-color="#b0cb62"/></linearGradient><clipPath id="b999fd3b-e7bd-4a37-9d50-8b9ef9fa1c99" transform="translate(-1579.1 -324.1)"><path id="a9985c72-368f-4c09-9141-8a3af208bd65" data-name="SVGID" d="M1661.1,507.1c-9.2,6.9-15.4,15.7-13.9,19.6s10.1,1.4,19.2-5.6,15.4-15.7,13.9-19.6a2.2,2.2,0,0,0-1.2-1.3c-3-1.7-10.3,1.1-18,6.9" fill="none"/></clipPath><linearGradient id="bee1fec2-34c7-4792-ac5a-5aed674a9b26" x1="85.61" y1="4500.03" x2="86.03" y2="4500.03" gradientTransform="matrix(52.74, -80.88, 53.93, 41.12, -247140.28, -177932.01)" xlink:href="#a1f6dbd0-bfc0-45e6-9fb3-a89847a903ab"/><clipPath id="f659e7b9-fb19-4ab2-aed1-9dbc7de41187" transform="translate(-1579.1 -324.1)"><path id="fa0d9d38-3d99-44de-a1c5-6f9458c6d82f" data-name="SVGID" d="M1762.1,555.7c7.5,7.1,16.3,11,19.7,8.7s-.3-9.9-7.9-16.9-16.3-10.9-19.6-8.6a3.1,3.1,0,0,0-1.1,1.4c-.9,3.2,2.5,9.5,8.9,15.4" fill="none"/></clipPath><linearGradient id="ab7fccae-9b46-415c-a2bf-b59923aca687" x1="47.97" y1="4553.37" x2="48.38" y2="4553.37" gradientTransform="matrix(-81.16, -32.87, 29.05, -62.81, -128193.53, 287805.48)" gradientUnits="userSpaceOnUse"><stop offset="0" stop-color="#7fa746"/><stop offset="0.02" stop-color="#81a847"/><stop offset="0.38" stop-color="#98b755"/><stop offset="0.71" stop-color="#a6c15e"/><stop offset="1" stop-color="#abc461"/></linearGradient><clipPath id="f1c29b81-a0c6-4c15-9069-e834299f1de0" transform="translate(-1579.1 -324.1)"><path id="e964a0e0-578e-4248-a029-d222dbd61106" data-name="SVGID" d="M1696.6,553.5c-1.4,9.6.8,17.9,4.9,18.7s8.4-6.5,9.7-16.1-.7-18-4.7-18.7a3.5,3.5,0,0,0-2,.2c-3.3,1.4-6.7,7.7-7.9,15.9" fill="none"/></clipPath><linearGradient id="b2018032-1f91-4dd4-8095-2abe902d29bc" x1="86.04" y1="4542.33" x2="86.46" y2="4542.33" gradientTransform="matrix(-22.27, -75.67, 72.75, -20.74, -328424.8, 100959.72)" xlink:href="#ab7fccae-9b46-415c-a2bf-b59923aca687"/><clipPath id="f17b7a80-8e49-4eb6-ba2f-df4fa7cc870b" transform="translate(-1579.1 -324.1)"><path id="a592e5c8-bb70-41a2-839a-571f96a939e1" data-name="SVGID" d="M1656.4,453a81.1,81.1,0,1,0,50.1-55.8,81.3,81.3,0,0,0-50.1,55.8" fill="none"/></clipPath><linearGradient id="f9a5f427-5a23-487e-9095-e5e5d7cbd974" x1="35.22" y1="4541.37" x2="35.64" y2="4541.37" gradientTransform="matrix(-338.32, 199, -199, -338.32, 917450.52, 1529857.17)" gradientUnits="userSpaceOnUse"><stop offset="0" stop-color="#abc461"/><stop offset="1" stop-color="#abc461"/><stop offset="1" stop-color="#7fa746"/></linearGradient><clipPath id="e0f73261-98d0-4cab-90d8-4815797ce5ce" transform="translate(-1579.1 -324.1)"><path id="e257751d-90e9-41c7-90d3-be39f5e4957a" data-name="SVGID" d="M1670,430.5a78.1,78.1,0,1,0,37.6-30.1,78.1,78.1,0,0,0-37.6,30.1" fill="none"/></clipPath><linearGradient id="bc62b2ed-480d-4282-bc84-9b43e9e0f311" x1="42.17" y1="4542.48" x2="42.59" y2="4542.48" gradientTransform="matrix(-364.39, -94.51, 94.51, -364.39, -412116.65, 1659732.6)" xlink:href="#ab7fccae-9b46-415c-a2bf-b59923aca687"/><linearGradient id="ec264552-5b7a-4b85-a663-f76f9ce5e2de" x1="42.17" y1="4542.78" x2="42.58" y2="4542.78" gradientTransform="matrix(-364.39, -94.51, 94.51, -364.39, -412116.65, 1659732.6)" xlink:href="#ab7fccae-9b46-415c-a2bf-b59923aca687"/></defs><title>01_遊戲首頁v1.1.3</title><g style="isolation:isolate"><g id="adbed642-7ebe-4eb8-bef5-ddab7e5062bd" data-name="圖層 4"><image width="322" height="320" opacity="0" xlink:href="01_%E9%81%8A%E6%88%B2%E9%A6%96%E9%A0%81v1.1.31.png" style="mix-blend-mode:multiply"/><g clip-path="url(#b8e83f66-3d5c-43c9-988b-6b1c6e5d28e7)"><polygon points="255.1 175.1 211.1 171.2 207.9 196.6 251.8 200.5 255.1 175.1" fill="url(#a1f6dbd0-bfc0-45e6-9fb3-a89847a903ab)"/></g><g clip-path="url(#b999fd3b-e7bd-4a37-9d50-8b9ef9fa1c99)"><polygon points="82.3 216.8 106.8 180.1 86 165.1 61.5 201.8 82.3 216.8" fill="url(#bee1fec2-34c7-4792-ac5a-5aed674a9b26)"/></g><g clip-path="url(#f659e7b9-fb19-4ab2-aed1-9dbc7de41187)"><polygon points="213.4 223.7 176.8 208.9 166.3 231.9 202.8 246.7 213.4 223.7" fill="url(#ab7fccae-9b46-415c-a2bf-b59923aca687)"/></g><g clip-path="url(#f1c29b81-a0c6-4c15-9069-e834299f1de0)"><polygon points="143.5 244.7 133.5 210.6 106.9 218.2 116.9 252.3 143.5 244.7" fill="url(#b2018032-1f91-4dd4-8095-2abe902d29bc)"/></g><g clip-path="url(#f17b7a80-8e49-4eb6-ba2f-df4fa7cc870b)"><path d="M1863.9,508.7a54,54,0,0,0,6.8-12.1l-93.6-159.1L1594.4,444.9l102.9,174.9,167.8-98.6C1861.7,518.2,1860.3,513.4,1863.9,508.7Z" transform="translate(-1579.1 -324.1)" fill="url(#f9a5f427-5a23-487e-9095-e5e5d7cbd974)"/></g><g clip-path="url(#e0f73261-98d0-4cab-90d8-4815797ce5ce)"><path d="M1866.7,431.2c-6.9-13.1-10.4-27-7-41.6a7.8,7.8,0,0,1,.8-2.3l-210.1-54.5-59.8,230.8L1823.7,624l48.5-187a2.8,2.8,0,0,1-.1-.9A9.8,9.8,0,0,1,1866.7,431.2Z" transform="translate(-1579.1 -324.1)" fill="url(#bc62b2ed-480d-4282-bc84-9b43e9e0f311)"/><path d="M1880.9,392.6a15,15,0,0,1-.3,2.9,27.1,27.1,0,0,0-.3,10.2l3.2-12.4Z" transform="translate(-1579.1 -324.1)" fill="url(#ec264552-5b7a-4b85-a663-f76f9ce5e2de)"/></g><path d="M1790.9,406.1c-.5,4.6,3.7,8.6,9.2,9.1s10.2-2.9,10.7-7.4-3.8-8.6-9.3-9.1-10.3,2.9-10.6,7.4" transform="translate(-1579.1 -324.1)" fill="#dacc48"/><path d="M1780.8,404.6c-2.5,3.8-.7,9.4,3.9,12.4s10.4,2.3,12.8-1.5.8-9.4-3.9-12.4-10.4-2.3-12.8,1.5" transform="translate(-1579.1 -324.1)" fill="#dacc48"/><path d="M1793.1,414.8c-1.6,4.2,1.4,9.3,6.6,11.1s10.7-.1,12.2-4.3-1.4-9.4-6.6-11.3-10.7.2-12.2,4.5" transform="translate(-1579.1 -324.1)" fill="#dacc48"/><path d="M1781.2,403.6c3.6,2.8,9.2,1.5,12.6-2.8s3.2-10.2-.4-13-9.3-1.5-12.7,2.9-3.1,10.2.5,12.9" transform="translate(-1579.1 -324.1)" fill="#dcb036"/><path d="M1767.3,393.3c-2.5,3.9-.7,9.4,3.8,12.5s10.5,2.3,12.9-1.6.8-9.4-3.8-12.3-10.5-2.4-12.9,1.4" transform="translate(-1579.1 -324.1)" fill="#dcb036"/><path d="M1779.6,403.5c-1.5,4.3,1.4,9.3,6.6,11.2s10.6-.1,12.2-4.4-1.4-9.3-6.6-11.2-10.6.2-12.2,4.4" transform="translate(-1579.1 -324.1)" fill="#dcb036"/><path d="M1800.7,410.1a6.7,6.7,0,0,1-1.8,4.7l-.2.3-.4.3-.2.3-.3.2-.4.3-.3.2-2.3,1.2h-.9l-.4.2h-.5c-8.2,1.1-12.8-6.8-15.3-13.3-.3-.9-.7-1.9-1-2.9l-.3-.7a14,14,0,0,0-3.5-5.7l-.3-.3a7.4,7.4,0,0,0-6.9-1.1h-.6l-.4-.6a11.9,11.9,0,0,1-.8-1.6l-.2-.4.5-.2a10.4,10.4,0,0,1,9.7,1c3.3,2.4,4.9,6,6.3,9.7s4.5,12.5,10.9,13.5c3.7.5,8.1-1.7,8.1-6s-5.5-5.6-8.1-5.4a11.2,11.2,0,0,0-6.7,2.2l-.7.5h-.7v-.2h-.2l.3-.2a25.8,25.8,0,0,1,3.2-1.8c5.3-2.3,14.1-.7,14.4,6.6" transform="translate(-1579.1 -324.1)" fill="#157c3f"/><path d="M1773.6,403.8l-1.8-.4a19.8,19.8,0,0,1-14.4-18.7l2.9-.2a20.9,20.9,0,0,0,13.3,19.3" transform="translate(-1579.1 -324.1)" fill="#75a734"/><path d="M1778.1,408.3h.3v-.2h.1v.2h.3l-.5.2-.4.3h-.5l-.5.2h-.5l-.5.2-.5.2h-.5l-.6.2a20.8,20.8,0,0,1-6.6.1h-.5l-.5-.2h-1.1l-.6-.3-.5-.2c-3.9-1.7-6.4-4.6-6.8-8.8v-2.8l.2-.4a.7.7,0,0,1,.1-.5c0-.2.2-.4.2-.6a.4.4,0,0,0,.1-.3l.3-.8h.1l2.1,2.8v.9h0v2.3c1.3,6,8.7,7.5,13.9,7h2l1.3-.4" transform="translate(-1579.1 -324.1)" fill="#75a734"/><path d="M1828.4,427.9s-10.6,8.9-23.8,7.2c-9.9-1.3-86-11.8-114.7-15.1-3.5-.4-10.8-.5-14.1-1.6s-13.4-8.6-13.4-13,12.3-1.9,14.5-1.7,12.7,1.6,12.7,1.6,7.9-20.9,10.8-27.4,3.8-23.5,50.7-14c14.1,2.9,44.6,3.2,48.4,7.8s4.9,23.9,5.1,30.6.4,21.1,2.6,22a65.4,65.4,0,0,0,11.2,2.1C1823.8,426.9,1829,426.8,1828.4,427.9Z" transform="translate(-1579.1 -324.1)" fill="#221714"/><path d="M1790.9,406.1c-.5,4.6,3.7,8.6,9.2,9.1s10.2-2.9,10.7-7.4-3.8-8.6-9.3-9.1-10.3,2.9-10.6,7.4" transform="translate(-1579.1 -324.1)" fill="#dacc48"/><path d="M1780.8,404.6c-2.5,3.8-.7,9.4,3.9,12.4s10.4,2.3,12.8-1.5.8-9.4-3.9-12.4-10.4-2.3-12.8,1.5" transform="translate(-1579.1 -324.1)" fill="#dacc48"/><path d="M1793.1,414.8c-1.6,4.2,1.4,9.3,6.6,11.1s10.7-.1,12.2-4.3-1.4-9.4-6.6-11.3-10.7.2-12.2,4.5" transform="translate(-1579.1 -324.1)" fill="#dacc48"/><path d="M1781.2,403.6c3.6,2.8,9.2,1.5,12.6-2.8s3.2-10.2-.4-13-9.3-1.5-12.7,2.9-3.1,10.2.5,12.9" transform="translate(-1579.1 -324.1)" fill="#dcb036"/><path d="M1767.3,393.3c-2.5,3.9-.7,9.4,3.8,12.5s10.5,2.3,12.9-1.6.8-9.4-3.8-12.3-10.5-2.4-12.9,1.4" transform="translate(-1579.1 -324.1)" fill="#dcb036"/><path d="M1779.6,403.5c-1.5,4.3,1.4,9.3,6.6,11.2s10.6-.1,12.2-4.4-1.4-9.3-6.6-11.2-10.6.2-12.2,4.4" transform="translate(-1579.1 -324.1)" fill="#dcb036"/><path d="M1800.7,410.1a6.7,6.7,0,0,1-1.8,4.7l-.2.3-.4.3-.2.3-.3.2-.4.3-.3.2-2.3,1.2h-.9l-.4.2h-.5c-8.2,1.1-12.8-6.8-15.3-13.3-.3-.9-.7-1.9-1-2.9l-.3-.7a14,14,0,0,0-3.5-5.7l-.3-.3a7.4,7.4,0,0,0-6.9-1.1h-.6l-.4-.6a11.9,11.9,0,0,1-.8-1.6l-.2-.4.5-.2a10.4,10.4,0,0,1,9.7,1c3.3,2.4,4.9,6,6.3,9.7s4.5,12.5,10.9,13.5c3.7.5,8.1-1.7,8.1-6s-5.5-5.6-8.1-5.4a11.2,11.2,0,0,0-6.7,2.2l-.7.5h-.7v-.2h-.2l.3-.2a25.8,25.8,0,0,1,3.2-1.8c5.3-2.3,14.1-.7,14.4,6.6" transform="translate(-1579.1 -324.1)" fill="#157c3f"/><path d="M1773.6,403.8l-1.8-.4a19.8,19.8,0,0,1-14.4-18.7l2.9-.2a20.9,20.9,0,0,0,13.3,19.3" transform="translate(-1579.1 -324.1)" fill="#75a734"/><path d="M1778.1,408.3h.3v-.2h.1v.2h.3l-.5.2-.4.3h-.5l-.5.2h-.5l-.5.2-.5.2h-.5l-.6.2a20.8,20.8,0,0,1-6.6.1h-.5l-.5-.2h-1.1l-.6-.3-.5-.2c-3.9-1.7-6.4-4.6-6.8-8.8v-2.8l.2-.4a.7.7,0,0,1,.1-.5c0-.2.2-.4.2-.6a.4.4,0,0,0,.1-.3l.3-.8h.1l2.1,2.8v.9h0v2.3c1.3,6,8.7,7.5,13.9,7h2l1.3-.4" transform="translate(-1579.1 -324.1)" fill="#75a734"/><path d="M1741.6,509.6c0,3.2-5.2,5.7-11.5,5.7s-11.5-2.5-11.5-5.7,5.1-5.7,11.5-5.7S1741.6,506.4,1741.6,509.6Z" transform="translate(-1579.1 -324.1)" fill="#ac3b3c"/><path d="M1768.9,505.5a9.3,9.3,0,0,1-6.6,1.3c-4.9-.9-9.7-6.3-11.2-8.8-2.8-4.4-7-9.8-12.4-10.5s-8.6,5.8-8.6,5.8-3.2-6.5-8.6-5.8-9.6,6.1-12.4,10.5c-1.6,2.5-6.3,7.9-11.3,8.8a8.9,8.9,0,0,1-6.5-1.3s-.8,3.6,4,5.1c9.5,2.9,26.7,1.3,32.4-7.7a16.3,16.3,0,0,0,2.4-5.8,14.9,14.9,0,0,0,2.3,5.8c5.8,9,22.9,10.6,32.4,7.7C1769.6,509.1,1768.9,505.5,1768.9,505.5Z" transform="translate(-1579.1 -324.1)" fill="#161722"/><path d="M1752.9,466.2c11.5,1.6,22.4,6.8,33.6,1.1,2.9-1.5.4-5.8-2.5-4.3-9.6,4.9-19.9-.2-29.8-1.6-3.1-.4-4.5,4.4-1.3,4.8Z" transform="translate(-1579.1 -324.1)" fill="#161722"/><path d="M1716.1,458.7c-9.9,1.4-20.2,6.5-29.8,1.6-2.9-1.5-5.4,2.8-2.5,4.3,11.2,5.7,22.1.5,33.6-1.1,3.2-.4,1.8-5.2-1.3-4.8Z" transform="translate(-1579.1 -324.1)" fill="#161722"/><image width="114" height="93" transform="translate(4.7 143.4)" opacity="0" xlink:href="01_%E9%81%8A%E6%88%B2%E9%A6%96%E9%A0%81v1.1.32.png" style="mix-blend-mode:multiply"/><path d="M1682,500.6c.1-6.7-4.2-13.3-13-18.4-17.2-10-45-10-62.1,0-8.5,4.9-12.8,11.4-12.8,17.9h0c0,8.2,0,8-.1,16.2,0,6.6,4.4,13.1,13,18.1,17.2,10,45.1,10,62.2,0,8.5-4.9,12.7-11.4,12.7-17.8.1-8.2.1-8.1.1-16.3Z" transform="translate(-1579.1 -324.1)" fill="#d9d9d9"/><path d="M1609.7,498.3h0c.8-2.5,2.9-5,6.3-7a22.8,22.8,0,0,0-.2,3.1h0c13.4-6.7,33.6-6.3,46.4,1a30.8,30.8,0,0,1,6.6,5.4c.2-4.7-2.8-9.5-9.1-13.1-12-7-31.5-7-43.5,0-6.2,3.6-9.2,8.4-8.9,13.1A13.6,13.6,0,0,1,1609.7,498.3Z" transform="translate(-1579.1 -324.1)" fill="#bababa"/><path d="M1662.2,495.3c-12.8-7.3-33-7.7-46.4-1,0,6.1,2.8,17.3,21.2,20.9h-2.9a36.1,36.1,0,0,1-17.6-4.2c-3.4-2-5.6-4.4-6.6-6.9a8.3,8.3,0,0,1-.2-6,13.6,13.6,0,0,0-2.4,2.4c.2,4.4,3.2,8.7,9,12.1,12.1,6.9,31.6,6.9,43.5,0,5.8-3.4,8.8-7.7,9-12.1A30.8,30.8,0,0,0,1662.2,495.3Zm-28,9.4-9.3-9.7,16.9,5.3,9.3,9.8Zm32.2,1.2a9.2,9.2,0,0,1-4.2,4.4A22.9,22.9,0,0,1,1651,513h-1.9c14.4-2.8,13.8-12.9,13.4-15.4C1666.3,499.8,1667.6,503,1666.4,505.9Z" transform="translate(-1579.1 -324.1)" fill="#c9c9c9"/><path d="M1682,500.6v.9c0,.1-.1.2-.1.3v.6a.4.4,0,0,0-.1.3v.3a.4.4,0,0,0-.1.3.4.4,0,0,1-.1.3v.3a.4.4,0,0,0-.1.3c0,.1-.1.2-.1.3s-.1.2-.1.3-.1.2-.1.3v.3c0,.1-.1.2-.1.3s-.1.2-.1.3a.4.4,0,0,0-.1.3l-.2.3a.4.4,0,0,1-.1.3c0,.1-.1.2-.1.3l-.2.3c0,.1-.1.2-.1.3l-.2.3-.2.3a.3.3,0,0,1-.1.2.5.5,0,0,0-.2.4c-.1,0-.1.1-.2.2l-.2.3-.2.3-.2.3-.2.3-.2.3-.2.2-.3.3c0,.1-.1.2-.2.3h0v1.6c0,5.8-3.8,11.6-11.5,16-15.3,9-40.3,9-55.8,0-7.8-4.5-11.7-10.4-11.6-16.3v-1.5l-.2-.2c0-.1-.1-.1-.2-.2l-.2-.3-.2-.3-.3-.3c0-.1-.1-.2-.1-.3l-.3-.3v-.2l-.2-.4-.2-.2-.2-.3c0-.1-.1-.2-.1-.3s-.2-.2-.2-.3l-.2-.3v-.3a.4.4,0,0,1-.1-.3l-.2-.3c0-.1-.1-.2-.1-.3a.4.4,0,0,1-.1-.3l-.2-.3a.4.4,0,0,0-.1-.3,1158987018924.1,1158987018924.1,0,0,1-.3-.9v-.3a515105342055.3,515105342055.3,0,0,1-.2-.6.4.4,0,0,0-.1-.3v-.9c0-.1-.1-.2-.1-.3v-.7a.4.4,0,0,0-.1-.3v-.9h0c0,8.2,0,8-.1,16.2,0,6.6,4.4,13.1,13,18.1,17.2,10,45.1,10,62.2,0,8.5-4.9,12.7-11.4,12.7-17.8.1-8.2.1-8.1.1-16.3Z" transform="translate(-1579.1 -324.1)" fill="#cfcfcf"/><path d="M1669.2,518.2c-17.1,9.9-44.9,9.9-62.1,0a31.9,31.9,0,0,1-8.5-6.9h0v1.5c-.1,5.9,3.8,11.8,11.6,16.3,15.5,9,40.5,9,55.8,0,7.7-4.4,11.5-10.2,11.5-16v-1.6h0A30.4,30.4,0,0,1,1669.2,518.2Z" transform="translate(-1579.1 -324.1)" fill="#fff"/><path d="M1610.1,516.4c15.5,8.9,40.6,8.9,56,0s15.3-23.5-.2-32.4-40.5-9-55.9,0S1594.6,507.4,1610.1,516.4Zm6.1-28.8c12-7,31.5-7,43.5,0,6.3,3.6,9.3,8.4,9.1,13.1s-3.2,8.7-9,12.1c-11.9,6.9-31.4,6.9-43.5,0-5.8-3.4-8.8-7.7-9-12.1S1610,491.2,1616.2,487.6Z" transform="translate(-1579.1 -324.1)" fill="#fff"/><polygon points="56.1 180.1 48.1 171.7 62.6 176.3 62.6 176.3 62.7 176.3 45.8 170.9 55.1 180.6 56.1 180.1 56.1 180.1" fill="#e84b2e"/><polygon points="62.7 176.3 62.6 176.3 70.6 184.7 56.1 180.1 55.1 180.6 72.1 186 62.7 176.3" fill="#5faab2"/><polygon points="48.1 171.7 56.1 180.1 62.6 176.3 48.1 171.7" fill="#ea5b30"/><polygon points="56.1 180.1 56.1 180.1 70.6 184.7 62.6 176.3 62.6 176.3 56.1 180.1" fill="#81cace"/><path d="M1615.8,494.3a22.8,22.8,0,0,1,.2-3.1c-3.4,2-5.5,4.5-6.3,7a26.9,26.9,0,0,1,4.1-2.9Z" transform="translate(-1579.1 -324.1)" fill="#cfcfcf"/><path d="M1609.9,504.3c1,2.5,3.2,4.9,6.6,6.9a36.1,36.1,0,0,0,17.6,4.2h2.9c-18.4-3.6-21.2-14.8-21.2-20.9h0l-2,1a26.9,26.9,0,0,0-4.1,2.9h0A8.3,8.3,0,0,0,1609.9,504.3Z" transform="translate(-1579.1 -324.1)" fill="#d9d9d9"/><path d="M1662.5,497.5c.4,2.5,1,12.6-13.4,15.4h1.9a22.9,22.9,0,0,0,11.2-2.7,9.2,9.2,0,0,0,4.2-4.4C1667.6,503,1666.3,499.8,1662.5,497.5Z" transform="translate(-1579.1 -324.1)" fill="#d9d9d9"/></g></g></svg>