<svg xmlns="http://www.w3.org/2000/svg" xmlns:xlink="http://www.w3.org/1999/xlink" viewBox="0 0 331 330"><defs><clipPath id="b91a62c7-e084-4877-8c5e-837166b1a70d" transform="translate(-692.1 -553.1)"><path id="aa495641-3967-4c16-a90d-801e19091c9a" data-name="SVGID" d="M776.4,727.4c-5.6,5.5-8.3,11.8-5.9,14.2s8.7,0,14.3-5.5,8.2-11.7,5.9-14.1a2.9,2.9,0,0,0-1.4-.8c-3-.8-8.3,1.7-12.9,6.2" fill="none"/></clipPath><linearGradient id="e91afff1-b554-4af5-afce-2b9d8b4c825d" x1="87.48" y1="4506.91" x2="87.87" y2="4506.91" gradientTransform="matrix(67.46, 0, 0, 67.46, -5113.31, -303319.36)" gradientUnits="userSpaceOnUse"><stop offset="0" stop-color="#85b644"/><stop offset="0.08" stop-color="#8cba48"/><stop offset="0.42" stop-color="#a3c856"/><stop offset="0.73" stop-color="#b1d15e"/><stop offset="1" stop-color="#b6d461"/></linearGradient><clipPath id="f3f0b6f4-93f4-4edd-94f6-bd4ee06ba75e" transform="translate(-692.1 -553.1)"><path id="bb89bd9c-9810-40d4-ab6c-bd8c67d1719c" data-name="SVGID" d="M914.3,723.2c-1.9,2.7,1.9,8.5,8.3,12.8s13.2,5.6,15.1,2.8-1.9-8.5-8.4-12.9-12.3-5.3-14.6-3.2a1,1,0,0,0-.4.5" fill="none"/></clipPath><linearGradient id="b9028ae9-c717-4577-b5d0-9abb00ca692b" x1="62.24" y1="4573.76" x2="62.63" y2="4573.76" gradientTransform="translate(-307678.1 4934) rotate(-90) scale(67.47)" xlink:href="#e91afff1-b554-4af5-afce-2b9d8b4c825d"/><clipPath id="ba72038d-cb57-40b2-b351-37057001457d" transform="translate(-692.1 -553.1)"><path id="f519de40-71aa-4c8a-8135-51dd86591485" data-name="SVGID" d="M875.4,763.7c-3.1,1.2-3.5,8-.8,15.3s7.5,12.3,10.6,11.1,3.5-8,.8-15.3-6.8-11.6-9.9-11.2h-.7" fill="none"/></clipPath><linearGradient id="b0dcfac9-ad7b-44b1-859c-66cc649c8c97" x1="83.91" y1="4560" x2="84.29" y2="4560" gradientTransform="translate(-306795.4 6451.5) rotate(-90) scale(67.47)" xlink:href="#e91afff1-b554-4af5-afce-2b9d8b4c825d"/><clipPath id="b7917829-03c4-427d-a951-5e28cbc0f0b8" transform="translate(-692.1 -553.1)"><path id="acd0d342-39b9-4a8d-960c-ac2e24d121b7" data-name="SVGID" d="M805.8,769.8c-3.2,7.1-3.4,13.9-.4,15.3s8.2-3.2,11.4-10.2,3.4-13.9.4-15.3a2.9,2.9,0,0,0-1.6-.3c-3,.4-7.1,4.6-9.8,10.5" fill="none"/></clipPath><linearGradient id="ba64216c-f34b-42c8-9a69-55ec8e2db90f" x1="89.53" y1="4522.12" x2="89.91" y2="4522.12" gradientTransform="translate(-304266.5 6809.8) rotate(-90) scale(67.46)" xlink:href="#e91afff1-b554-4af5-afce-2b9d8b4c825d"/><clipPath id="ac9a7784-3834-44a1-ad52-07ca416883c2" transform="translate(-692.1 -553.1)"><path id="b0473ffc-bc33-43dc-9dde-aeb6cde3a07e" data-name="SVGID" d="M787.5,670.9a75.4,75.4,0,1,0,57.7-38.8,75.6,75.6,0,0,0-57.7,38.8" fill="none"/></clipPath><linearGradient id="ad853549-9627-4c94-8b0c-b49023a65cd5" x1="39.34" y1="4542.07" x2="39.73" y2="4542.07" gradientTransform="matrix(-392.5, 0, 0, -392.5, 16358.93, 1783494.6)" gradientUnits="userSpaceOnUse"><stop offset="0" stop-color="#b6d461"/><stop offset="1" stop-color="#b6d461"/><stop offset="1" stop-color="#85b644"/></linearGradient><clipPath id="a6bd9a12-dbd3-4c09-8e10-ab6cf738fd0b" transform="translate(-692.1 -553.1)"><path id="ad70a25f-7da2-4eaa-872a-fa39e4fb05f0" data-name="SVGID" d="M804.9,653.7a72.2,72.2,0,1,0,40.5-18.5,72.5,72.5,0,0,0-40.5,18.5" fill="none"/></clipPath><linearGradient id="fc550683-f10b-4453-8315-ec3d34f6c913" x1="45.73" y1="4539.96" x2="46.12" y2="4539.96" gradientTransform="matrix(0, -376.45, 376.45, 0, -1708211.21, 18004.64)" xlink:href="#e91afff1-b554-4af5-afce-2b9d8b4c825d"/><clipPath id="a8db5a55-6937-47e7-a598-a3c46b090a24" transform="translate(-692.1 -553.1)"><rect id="b439f45f-b3e2-4076-8e5b-c1f40e1b9ee9" data-name="SVGID" x="896" y="696" width="26" height="21" fill="none"/></clipPath><clipPath id="b777392d-e51d-42fd-94eb-1df975c02b75" transform="translate(-692.1 -553.1)"><rect id="bbc89691-874e-4c1b-8925-89161f140f9e" data-name="SVGID" x="784" y="698" width="24" height="20" fill="none"/></clipPath></defs><title>01_遊戲首頁v1.1.3</title><g style="isolation:isolate"><g id="b024bff1-fb2f-4b55-81a3-f96c93637578" data-name="圖層 4"><image width="331" height="330" opacity="0" xlink:href="01_%E9%81%8A%E6%88%B2%E9%A6%96%E9%A0%81v1.1.31.png" style="mix-blend-mode:multiply"/><path d="M794.2,658.5c-1.2,15.6-.8,30.3-.9,35.5s-12.4,29.5-33.6,13.1C790.6,706.2,757.5,664.7,794.2,658.5Z" transform="translate(-692.1 -553.1)" fill="#6e4529"/><g clip-path="url(#b91a62c7-e084-4877-8c5e-837166b1a70d)"><rect x="766.3" y="721" width="28.1" height="22.86" transform="translate(-869.5 656.9) rotate(-69.7)" fill="url(#e91afff1-b554-4af5-afce-2b9d8b4c825d)"/></g><g clip-path="url(#f3f0b6f4-93f4-4edd-94f6-bd4ee06ba75e)"><rect x="911.3" y="715.4" width="29.8" height="31.65" transform="translate(-622.9 989.4) rotate(-81.7)" fill="url(#b9028ae9-c717-4577-b5d0-9abb00ca692b)"/></g><g clip-path="url(#ba72038d-cb57-40b2-b351-37057001457d)"><rect x="865.5" y="761.5" width="29.8" height="31.65" transform="translate(-982.7 313.3) rotate(-45.8)" fill="url(#b0dcfac9-ad7b-44b1-859c-66cc649c8c97)"/></g><g clip-path="url(#b7917829-03c4-427d-a951-5e28cbc0f0b8)"><rect x="800" y="758.9" width="22.9" height="28.12" transform="translate(-702.7 -541.8) rotate(-0.8)" fill="url(#ba64216c-f34b-42c8-9a69-55ec8e2db90f)"/></g><g clip-path="url(#ac9a7784-3834-44a1-ad52-07ca416883c2)"><rect x="756.1" y="618.2" width="196.4" height="188.02" transform="translate(-858.1 -283.7) rotate(-16.4)" fill="url(#ad853549-9627-4c94-8b0c-b49023a65cd5)"/></g><g clip-path="url(#a6bd9a12-dbd3-4c09-8e10-ab6cf738fd0b)"><rect x="743.9" y="600.4" width="220.8" height="223.17" transform="translate(-872.2 567.2) rotate(-61.4)" fill="url(#fc550683-f10b-4453-8315-ec3d34f6c913)"/></g><g opacity="0.5"><g clip-path="url(#a8db5a55-6937-47e7-a598-a3c46b090a24)"><path d="M919,700.6c3.1,4,3,11.1-2.5,14.2s-15.4,1.3-18.6-2.9c-6.7-9,13.1-22,21.1-11.3" transform="translate(-692.1 -553.1)" fill="#e0256d"/></g></g><g opacity="0.5"><g clip-path="url(#b777392d-e51d-42fd-94eb-1df975c02b75)"><path d="M786,701.8c-3.1,4-3,11.1,2.5,14.2s15.4,1.3,18.6-3c6.8-8.9-13.1-21.9-21.1-11.2" transform="translate(-692.1 -553.1)" fill="#e0256d"/></g></g><path d="M877.7,685.3a11.2,11.2,0,1,0,22.3,0,11.5,11.5,0,0,0-.3-2.6h0a8.8,8.8,0,0,0,4.2-5.9c-3,1-7.9,0-7.9,0h0c-1-1.7-4.4-2.7-7.2-2.7A11.2,11.2,0,0,0,877.7,685.3Z" transform="translate(-692.1 -553.1)" fill="#4a3e37"/><path d="M884.5,679.7a3.1,3.1,0,0,0-3,3,3,3,0,0,0,3,3,2.9,2.9,0,0,0,3-3A3,3,0,0,0,884.5,679.7Z" transform="translate(-692.1 -553.1)" fill="#fff"/><path d="M814.2,674.1a11.1,11.1,0,0,0-7.2,2.7h0s-4.9,1-7.8,0a8.9,8.9,0,0,0,4.1,5.9h0a11.5,11.5,0,0,0-.3,2.6,11.2,11.2,0,1,0,11.2-11.2Zm-5.4,11.6a3,3,0,0,1-3-3,3.1,3.1,0,0,1,3-3,3,3,0,0,1,3,3A2.9,2.9,0,0,1,808.8,685.7Z" transform="translate(-692.1 -553.1)" fill="#4a3e37"/><path d="M808.8,685.7a3,3,0,0,1-3-3,3.1,3.1,0,0,1,3-3,3,3,0,0,1,3,3A2.9,2.9,0,0,1,808.8,685.7Z" transform="translate(-692.1 -553.1)" fill="#fff"/><path d="M863.7,711.4c-7.1,10.7-19.9,6.7-26.8-2-2.8-3.5-8.7.1-6,3.6,10.4,13.1,28.7,17.2,39,1.7,2.4-3.8-3.7-7-6.2-3.3" transform="translate(-692.1 -553.1)" fill="#4a3e37"/><path d="M785.8,631.6c3.8,1.7,8.5.7,10.3-.9-4.3-11.7.1-27.2,12.9-29.7-.5,29.9,82.9-6.7,106,31.9-.7-.1,3.2,6-2.7,11.6-7.7,8.3-27.4,21.7-48.9,20.6,8.5-2.8,25.7-12.6,25.6-17.6-12,6.2-30,14.8-59.2,16.3C802.2,665.2,780.8,654,785.8,631.6Z" transform="translate(-692.1 -553.1)" fill="#6e4529"/><path d="M904.7,653.3c3.5,19.3,4.8,37.5,5.7,43.9s19.1,35.1,43.4,12C915.4,712,951,656.3,904.7,653.3Z" transform="translate(-692.1 -553.1)" fill="#6e4529"/><path d="M909.9,646c-.3,4.2,3.6,8,8.6,8.4s9.5-2.8,9.9-7-3.6-7.9-8.7-8.3-9.5,2.7-9.8,6.9" transform="translate(-692.1 -553.1)" fill="#efdc3c"/><path d="M900.6,644.6c-2.3,3.6-.7,8.7,3.7,11.5s9.6,2.1,11.9-1.5.6-8.7-3.7-11.5-9.7-2-11.9,1.5" transform="translate(-692.1 -553.1)" fill="#efdc3c"/><path d="M912.1,654c-1.5,4,1.3,8.6,6.1,10.3s9.9-.2,11.3-4.2-1.3-8.6-6.2-10.3-9.8.2-11.2,4.2" transform="translate(-692.1 -553.1)" fill="#efdc3c"/><path d="M901,643.7c3.3,2.6,8.6,1.4,11.7-2.7s2.9-9.4-.5-12-8.6-1.3-11.7,2.7-2.9,9.5.5,12" transform="translate(-692.1 -553.1)" fill="#eebc2a"/><path d="M888,634.3c-2.3,3.6-.6,8.7,3.7,11.4s9.6,2.1,11.9-1.4.7-8.7-3.7-11.5-9.6-2.1-11.9,1.5" transform="translate(-692.1 -553.1)" fill="#eebc2a"/><path d="M899.5,643.7c-1.4,4,1.4,8.6,6.2,10.3s9.8-.2,11.3-4.2-1.4-8.6-6.2-10.3-9.9.2-11.3,4.2" transform="translate(-692.1 -553.1)" fill="#eebc2a"/><path d="M919.1,649.6a6.5,6.5,0,0,1-1.6,4.4l-.3.3-.3.2-.2.3-.3.2-.3.3-.3.2a8.8,8.8,0,0,1-2.2,1l-.4.2h-.4l-.4.2H912c-7.6,1.1-11.9-6.2-14.2-12.2-.4-.9-.7-1.8-1-2.7a3.3,3.3,0,0,0-.3-.6,13.6,13.6,0,0,0-3.3-5.4H893a6.6,6.6,0,0,0-6.5-1.1h-.6l-.3-.6-.8-1.5c0-.1-.1-.2-.1-.4h.4a9.3,9.3,0,0,1,9,.9c3.2,2.1,4.6,5.5,5.9,8.9s4.3,11.5,10.2,12.5c3.4.4,7.5-1.6,7.5-5.6s-5.1-5.2-7.5-5a9.9,9.9,0,0,0-6.2,2.1l-.7.4h-.8l.3-.2a16.9,16.9,0,0,1,2.9-1.7c4.9-2.2,13.1-.8,13.4,6" transform="translate(-692.1 -553.1)" fill="#008742"/><path d="M893.9,643.9l-1.7-.3a18.5,18.5,0,0,1-13.4-17.2l2.7-.3a19.4,19.4,0,0,0,12.4,17.8" transform="translate(-692.1 -553.1)" fill="#7db82e"/><path d="M898.2,648.1h.7c-.1.2-.3.2-.4.3l-.5.2-.4.2h-.5l-.4.2h-1.9a21.5,21.5,0,0,1-6.2.3h-1l-.5-.2h-.5l-.5-.2-.5-.2a9.5,9.5,0,0,1-6.3-8.2v-2.9c0-.2.1-.3.1-.5a1.4,1.4,0,0,1,.2-.6.3.3,0,0,0,.1-.2l.3-.7v-.2l1.9,2.7v3c1.3,5.6,8.2,7,13,6.4h1.8l1.3-.4" transform="translate(-692.1 -553.1)" fill="#7db82e"/><image width="146" height="118" transform="translate(12 93.8)" opacity="0" xlink:href="01_%E9%81%8A%E6%88%B2%E9%A6%96%E9%A0%81v1.1.32.png" style="mix-blend-mode:multiply"/><path d="M780.4,657.2c-4.6-2.1-10-1.4-15-.7s-9.3,1.5-13,4.1a15.3,15.3,0,0,0-6,15.7l45.2-5.5C788.9,665.4,785.9,659.7,780.4,657.2Z" transform="translate(-692.1 -553.1)" fill="#ffab00"/><path d="M800.3,655.9a5,5,0,0,1,3.4-1.8,7.6,7.6,0,0,1,5.5,1.1,8.3,8.3,0,0,1,3.5,4.7,24.5,24.5,0,0,1,1.1,5.9c.1,1-10.1,1.5-11.6.1S798.7,658.2,800.3,655.9Z" transform="translate(-692.1 -553.1)" fill="#ffab00"/><path d="M714.3,689.3a293.7,293.7,0,0,0,8,46.9,13.4,13.4,0,0,0,13.9,10.1c17.2-1.1,52.6-4.6,88.1-15.1a13.6,13.6,0,0,0,9.6-13.7,225.3,225.3,0,0,0-8.1-47.4,13.5,13.5,0,0,0-14-9.6c-18.3,1.5-56.8,5.5-87.9,14.7A13.6,13.6,0,0,0,714.3,689.3Z" transform="translate(-692.1 -553.1)" fill="#ffab00"/><path d="M825.8,670.1a13.5,13.5,0,0,0-14-9.6c-18.3,1.5-56.8,5.5-87.9,14.7a13.6,13.6,0,0,0-9.6,14.1c.4,4.2,1,9.5,1.8,15.4l3.7-.6,14.3-1.6,58.8-6.5,33.3-3.7a22.3,22.3,0,0,0,4.5-.8C829.5,684.8,827.9,677.6,825.8,670.1Z" transform="translate(-692.1 -553.1)" fill="#e83600"/><g style="mix-blend-mode:multiply"><path d="M752.9,700.3a24.1,24.1,0,0,0,2.5,22.4,25,25,0,0,0,12.7,9.2,26.1,26.1,0,0,0,26.6-6.2,24.5,24.5,0,0,0,4.9-26.7C790.7,679.4,761.1,680.6,752.9,700.3Z" transform="translate(-692.1 -553.1)" fill="#f2cace"/></g><path d="M722.4,690.6c.2,2,1.5,3.9,3.4,4.2a6.7,6.7,0,0,0,2,0l9.5-1a8.4,8.4,0,0,0,3.9-1.1c2-1.4,2.2-4.3,2.3-6.7s0-3.4-1.2-4.5-3.1-.8-4.7-.5a119.1,119.1,0,0,0-11.7,3.2C722.8,685.2,722,687.3,722.4,690.6Z" transform="translate(-692.1 -553.1)" fill="#f9f6e9"/><path d="M752.3,696.6a23.7,23.7,0,0,0,2.5,22.3,24.8,24.8,0,0,0,12.7,9.3c9.1,3,19.9.6,26.6-6.2s8.9-18,4.9-26.7C790,675.7,760.4,676.8,752.3,696.6Z" transform="translate(-692.1 -553.1)" fill="#f9f6e9"/><path d="M785.8,686.5a20.2,20.2,0,0,0-28.2,9.3,22,22,0,0,0,2.3,23,20.9,20.9,0,0,0,21.8,7.1C799.2,720.5,801.4,695.5,785.8,686.5Z" transform="translate(-692.1 -553.1)" fill="#404064"/><g style="mix-blend-mode:multiply"><path d="M825.8,670.1a13.6,13.6,0,0,0-13.8-9.6,109,109,0,0,1,10,36.6c.8,9.2.1,19.3-6.1,26.1-4.5,4.9-11.1,7.2-17.4,9.2-14.5,4.6-29.4,8.3-44.6,8.4a74.4,74.4,0,0,1-32.2-6.6l.6,2a13.4,13.4,0,0,0,13.9,10.1c17.2-1.1,52.6-4.6,88.1-15.1a13.6,13.6,0,0,0,9.6-13.7A225.3,225.3,0,0,0,825.8,670.1Z" transform="translate(-692.1 -553.1)" fill="#f2cace"/></g><g opacity="0.5"><path d="M764.1,692.5a13.9,13.9,0,0,0-3.8,15.3c1.1,2.9,5.8,1.8,4.7-1.2a9.4,9.4,0,0,1,2.5-10.6C769.9,694,766.5,690.4,764.1,692.5Z" transform="translate(-692.1 -553.1)" fill="#fff7e5"/><path d="M765.9,710.1c-3.1.8-2,5.5,1.1,4.8S768.9,709.4,765.9,710.1Z" transform="translate(-692.1 -553.1)" fill="#fff7e5"/></g></g></g></svg>