<svg xmlns="http://www.w3.org/2000/svg" xmlns:xlink="http://www.w3.org/1999/xlink" viewBox="0 0 331 330"><defs><clipPath id="aa525c48-a103-46eb-ae50-5432c86948ea" transform="translate(-29.1 -541.1)"><path id="a56786be-5617-45e1-98dc-91bad4763978" data-name="SVGID" d="M113.6,715.5c-5.5,5.5-8.2,11.8-5.8,14.2s8.7,0,14.3-5.5,8.2-11.7,5.9-14.1a2.9,2.9,0,0,0-1.4-.8c-3-.8-8.3,1.7-13,6.2" fill="none"/></clipPath><linearGradient id="a056a1ed-63bd-462f-a044-a28415acdff7" x1="84.23" y1="4497.64" x2="84.62" y2="4497.64" gradientTransform="matrix(67.46, 0, 0, 67.46, -5557.07, -302705.65)" gradientUnits="userSpaceOnUse"><stop offset="0" stop-color="#85b644"/><stop offset="0.08" stop-color="#8cba48"/><stop offset="0.42" stop-color="#a3c856"/><stop offset="0.73" stop-color="#b1d15e"/><stop offset="1" stop-color="#b6d461"/></linearGradient><clipPath id="afda2067-ef8e-4239-bb41-2a95aabc5f21" transform="translate(-29.1 -541.1)"><path id="b4707a0d-9415-4dcb-a378-c83023ea0dd5" data-name="SVGID" d="M251.6,711.3c-1.9,2.7,1.8,8.5,8.3,12.8s13.2,5.6,15.1,2.8-1.9-8.5-8.4-12.8-12.3-5.4-14.6-3.3a1,1,0,0,0-.4.5" fill="none"/></clipPath><linearGradient id="e76fcc5d-ef44-453e-b8bc-449988bce0ea" x1="71.99" y1="4572.52" x2="72.37" y2="4572.52" gradientTransform="translate(-308257.2 5579.6) rotate(-90) scale(67.47)" xlink:href="#a056a1ed-63bd-462f-a044-a28415acdff7"/><clipPath id="a5d61886-f8cb-4e06-be32-a5f8e803256e" transform="translate(-29.1 -541.1)"><path id="a9e9e2d8-8216-4083-80d1-f83121df4de7" data-name="SVGID" d="M212.7,751.8c-3.1,1.2-3.5,8-.8,15.3s7.5,12.3,10.6,11.1,3.5-8,.8-15.3-6.8-11.6-9.9-11.2h-.7" fill="none"/></clipPath><linearGradient id="f56ba6f4-296a-4f9a-b0a5-f11688595fad" x1="91.07" y1="4553.28" x2="91.46" y2="4553.28" gradientTransform="translate(-307004.6 6923) rotate(-90) scale(67.47)" xlink:href="#a056a1ed-63bd-462f-a044-a28415acdff7"/><clipPath id="b963b4b5-92f9-471d-bdfd-a5fdc9ed7d3c" transform="translate(-29.1 -541.1)"><path id="b32cef40-f6b7-4d9e-8466-8c8288fef0b9" data-name="SVGID" d="M143.1,757.9c-3.2,7.1-3.4,13.9-.4,15.3s8.2-3.2,11.4-10.2,3.4-13.9.4-15.3a2.9,2.9,0,0,0-1.6-.3c-3,.4-7.1,4.6-9.8,10.5" fill="none"/></clipPath><linearGradient id="f6ff54c5-a905-4ae8-8896-f5de6563c1ce" x1="89.84" y1="4512.3" x2="90.22" y2="4512.3" gradientTransform="translate(-304266.7 6819) rotate(-90) scale(67.46)" xlink:href="#a056a1ed-63bd-462f-a044-a28415acdff7"/><clipPath id="b10498f6-30bd-4dcd-bbe7-7ed896fc0c9a" transform="translate(-29.1 -541.1)"><path id="ecd1bc8b-d3c5-4a4e-886f-e5cc738d0107" data-name="SVGID" d="M124.8,659a75.4,75.4,0,1,0,57.7-38.8A75.5,75.5,0,0,0,124.8,659" fill="none"/></clipPath><linearGradient id="b45f3e4d-ca2c-46a2-aa43-571a713ec991" x1="40.95" y1="4542.58" x2="41.34" y2="4542.58" gradientTransform="matrix(-392.5, 0, 0, -392.5, 16328.76, 1783680.73)" gradientUnits="userSpaceOnUse"><stop offset="0" stop-color="#b6d461"/><stop offset="1" stop-color="#b6d461"/><stop offset="1" stop-color="#85b644"/></linearGradient><clipPath id="a37051a9-24e5-45bb-9195-8805930b0993" transform="translate(-29.1 -541.1)"><path id="aa1029e0-bfa0-40a1-a5b0-778787164c66" data-name="SVGID" d="M142.2,641.8a72.2,72.2,0,1,0,40.5-18.5,72.4,72.4,0,0,0-40.5,18.5" fill="none"/></clipPath><linearGradient id="a060db98-d98f-4837-9b5c-fc4dc573ada5" x1="47.29" y1="4539.15" x2="47.68" y2="4539.15" gradientTransform="matrix(0, -376.45, 376.45, 0, -1708566.63, 18580.03)" xlink:href="#a056a1ed-63bd-462f-a044-a28415acdff7"/><clipPath id="fd81acea-7e3d-4689-8c83-5d6395949458" transform="translate(-29.1 -541.1)"><rect id="e78d46dc-f45e-4a3b-8a7d-78bdd0309576" data-name="SVGID" x="234" y="684" width="24" height="21" fill="none"/></clipPath><clipPath id="fec1783b-40a0-4f0e-acd1-3640c9932445" transform="translate(-29.1 -541.1)"><rect id="b3f6090b-2d7d-4f4a-85da-70b270a6d804" data-name="SVGID" x="121" y="686" width="25" height="20" fill="none"/></clipPath></defs><title>01_遊戲首頁v1.1.3</title><g style="isolation:isolate"><g id="e3718ff5-0517-436a-ade2-af81caf6f845" data-name="圖層 4"><image width="331" height="330" opacity="0" xlink:href="01_%E9%81%8A%E6%88%B2%E9%A6%96%E9%A0%81v1.1.31.png" style="mix-blend-mode:multiply"/><g clip-path="url(#aa525c48-a103-46eb-ae50-5432c86948ea)"><rect x="103.6" y="709.1" width="28.1" height="22.86" transform="translate(-628 39.6) rotate(-69.7)" fill="url(#a056a1ed-63bd-462f-a044-a28415acdff7)"/></g><g clip-path="url(#afda2067-ef8e-4239-bb41-2a95aabc5f21)"><rect x="248.6" y="703.5" width="29.8" height="31.65" transform="translate(-515.4 335.4) rotate(-81.7)" fill="url(#e76fcc5d-ef44-453e-b8bc-449988bce0ea)"/></g><g clip-path="url(#a5d61886-f8cb-4e06-be32-a5f8e803256e)"><rect x="202.7" y="749.6" width="29.8" height="31.65" transform="translate(-511.9 -153.3) rotate(-45.8)" fill="url(#f56ba6f4-296a-4f9a-b0a5-f11688595fad)"/></g><g clip-path="url(#b963b4b5-92f9-471d-bdfd-a5fdc9ed7d3c)"><rect x="137.3" y="747" width="22.9" height="28.12" transform="translate(-39.6 -539) rotate(-0.8)" fill="url(#f6ff54c5-a905-4ae8-8896-f5de6563c1ce)"/></g><g clip-path="url(#b10498f6-30bd-4dcd-bbe7-7ed896fc0c9a)"><rect x="93.4" y="606.3" width="196.4" height="188.02" transform="matrix(0.96, -0.28, 0.28, 0.96, -218.54, -458.81)" fill="url(#b45f3e4d-ca2c-46a2-aa43-571a713ec991)"/></g><g clip-path="url(#a37051a9-24e5-45bb-9195-8805930b0993)"><rect x="81.2" y="588.5" width="220.8" height="223.17" transform="translate(-543.7 -8.6) rotate(-61.4)" fill="url(#a060db98-d98f-4837-9b5c-fc4dc573ada5)"/></g><path d="M247.2,634.1c-.3,4.2,3.5,8,8.6,8.4s9.5-2.7,9.9-7-3.6-7.9-8.7-8.3-9.5,2.7-9.8,6.9" transform="translate(-29.1 -541.1)" fill="#efdc3c"/><path d="M237.9,632.7c-2.3,3.6-.7,8.7,3.6,11.5s9.7,2.1,12-1.5.6-8.7-3.7-11.5-9.7-2-11.9,1.5" transform="translate(-29.1 -541.1)" fill="#efdc3c"/><path d="M249.3,642.1c-1.4,4,1.4,8.6,6.2,10.3s9.9-.1,11.3-4.1-1.4-8.7-6.2-10.4-9.9.2-11.3,4.2" transform="translate(-29.1 -541.1)" fill="#efdc3c"/><path d="M238.2,631.8c3.4,2.6,8.7,1.4,11.8-2.7s2.9-9.4-.5-12-8.6-1.3-11.7,2.7-2.9,9.5.4,12" transform="translate(-29.1 -541.1)" fill="#eebc2a"/><path d="M225.3,622.4c-2.3,3.6-.6,8.7,3.7,11.5s9.6,2,11.9-1.5.6-8.7-3.7-11.5-9.6-2.1-11.9,1.5" transform="translate(-29.1 -541.1)" fill="#eebc2a"/><path d="M236.8,631.8c-1.4,4,1.3,8.6,6.1,10.3s9.9-.2,11.3-4.2-1.3-8.6-6.1-10.3-9.9.2-11.3,4.2" transform="translate(-29.1 -541.1)" fill="#eebc2a"/><path d="M256.4,637.7a6.5,6.5,0,0,1-1.6,4.4l-.3.3-.3.2-.2.3-.3.2-.4.3-.3.2a8.1,8.1,0,0,1-2.1,1l-.4.2h-.4l-.4.2h-.4c-7.6,1.1-11.9-6.2-14.2-12.2l-1.1-2.7a1.1,1.1,0,0,0-.2-.6,13.6,13.6,0,0,0-3.3-5.4h-.2a6.6,6.6,0,0,0-6.5-1.1h-.6l-.3-.6-.8-1.5c0-.1-.1-.2-.1-.4h.4a9.3,9.3,0,0,1,9,.9c3.1,2.1,4.6,5.5,5.9,8.9s4.2,11.6,10.2,12.5c3.4.4,7.5-1.6,7.4-5.6s-5.1-5.2-7.4-5a9.9,9.9,0,0,0-6.2,2.1,1.8,1.8,0,0,0-.7.5h-.8l.3-.2a16.1,16.1,0,0,1,2.8-1.7c5-2.2,13.2-.8,13.5,6" transform="translate(-29.1 -541.1)" fill="#008742"/><path d="M231.2,632l-1.7-.3a18.4,18.4,0,0,1-13.4-17.2l2.7-.3A19.2,19.2,0,0,0,231.2,632" transform="translate(-29.1 -541.1)" fill="#7db82e"/><path d="M235.5,636.2h.7l-.5.3-.4.2-.4.2h-.5l-.5.2H233l-.5.2H232a20.7,20.7,0,0,1-6.1.3h-1l-.5-.2h-.5l-.5-.2-.5-.2a9.5,9.5,0,0,1-6.3-8.2V627a.9.9,0,0,1,.1-.5,1.4,1.4,0,0,1,.2-.6.3.3,0,0,1,.1-.2,3.6,3.6,0,0,1,.3-.7h0l2,2.6v3c1.3,5.6,8.2,7,13,6.4h1.8l1.3-.4" transform="translate(-29.1 -541.1)" fill="#7db82e"/><g opacity="0.5"><g clip-path="url(#fd81acea-7e3d-4689-8c83-5d6395949458)"><path d="M256.3,688.7c3.1,4,3,11.1-2.5,14.2s-15.4,1.3-18.6-2.9c-6.8-9,13.1-22,21.1-11.3" transform="translate(-29.1 -541.1)" fill="#e0256d"/></g></g><g opacity="0.5"><g clip-path="url(#fec1783b-40a0-4f0e-acd1-3640c9932445)"><path d="M123.3,689.9c-3.1,4-3,11.1,2.5,14.2s15.4,1.3,18.6-3c6.7-8.9-13.1-21.9-21.1-11.2" transform="translate(-29.1 -541.1)" fill="#e0256d"/></g></g><path d="M215,673.4a11.2,11.2,0,1,0,22.3,0,11.5,11.5,0,0,0-.3-2.6h0a10.6,10.6,0,0,0,4.5-5.9c-3,1-7.5,0-7.5,0h0c-3-1.7-4.8-2.7-7.5-2.7A11.4,11.4,0,0,0,215,673.4Z" transform="translate(-29.1 -541.1)" fill="#4a3e37"/><path d="M221.8,667.8a3.1,3.1,0,0,0-3,3,3,3,0,0,0,3,3,2.9,2.9,0,0,0,3-3A3,3,0,0,0,221.8,667.8Z" transform="translate(-29.1 -541.1)" fill="#fff"/><path d="M151.5,662.2a11.1,11.1,0,0,0-7.2,2.7h0s-4.9,1-7.9,0a9.3,9.3,0,0,0,4.2,5.9h0a11.5,11.5,0,0,0-.3,2.6,11.2,11.2,0,1,0,11.2-11.2Zm-5.4,11.6a3,3,0,0,1-3-3,3.1,3.1,0,0,1,3-3,3,3,0,0,1,3,3A2.9,2.9,0,0,1,146.1,673.8Z" transform="translate(-29.1 -541.1)" fill="#4a3e37"/><path d="M146.1,673.8a3,3,0,0,1-3-3,3.1,3.1,0,0,1,3-3,3,3,0,0,1,3,3A2.9,2.9,0,0,1,146.1,673.8Z" transform="translate(-29.1 -541.1)" fill="#fff"/><path d="M201,699.5c-7.1,10.7-19.9,6.7-26.8-2-2.8-3.5-8.7.1-6,3.6,10.4,13.1,28.7,17.2,39,1.7,2.4-3.8-3.7-7-6.2-3.3" transform="translate(-29.1 -541.1)" fill="#4a3e37"/><path d="M44.7,723.9c-.1,8.1,5.6,17.9,12.6,22,3.7,2.1,7,2.2,9.3.7l-.2.2,9.4-5.5c1.8-1.1,3.1-3.1,3.5-6.1a5.7,5.7,0,0,0,1.4-1.3h0l11.6-9.2,8.3,4.8-.4.2h0l-.5.2c-.1.1-.2.1-.2.2a7.6,7.6,0,0,0-6,.4L84.1,736h0c-2.3,1.3-3.7,4.1-3.7,8.1-.1,8.1,5.6,18,12.7,22,3.6,2.1,6.9,2.3,9.2.8h-.2l9.4-5.4c1.9-1.1,3.1-3.2,3.6-6.1a8,8,0,0,0,1.3-1.3h0L134,740.5l15.4-9c1.4-.8,2.3-2.5,2.4-4.9l1.7-1a4.7,4.7,0,0,0,2-4.3,14.7,14.7,0,0,0-6.7-11.6c-1.9-1.1-3.6-1.2-4.8-.5l-2.9,1.7a4.3,4.3,0,0,0-3.4.5l-.4.2-.6.2L125,718.7l-12.1-7c.4-.2.6-.4.8-.4a5.5,5.5,0,0,0,2.3-4.4l2.5-1.5c1.2-.7,1.9-2.1,2-4.3a14.7,14.7,0,0,0-6.7-11.5c-1.9-1.1-3.6-1.2-4.8-.5l-3,1.7a5.6,5.6,0,0,0-4.1.3L86.8,700l-22.1,9.3-.7.4h-.3a7.2,7.2,0,0,0-6,.5l-9.3,5.4h0C46.1,717,44.7,719.9,44.7,723.9Z" transform="translate(-29.1 -541.1)" fill="#9d878f"/><path d="M107.8,691.7a7.6,7.6,0,0,0-1.8-.9l3-1.7c1.2-.7,2.9-.6,4.8.5a14.7,14.7,0,0,1,6.7,11.5c-.1,2.2-.8,3.6-2,4.3l-2.5,1.5a3.1,3.1,0,0,0,.1-1C116.1,700.7,112.4,694.3,107.8,691.7Z" transform="translate(-29.1 -541.1)" fill="#372d30"/><path d="M143.5,711.9a8.2,8.2,0,0,0-2.4-1l2.9-1.7c1.2-.7,2.9-.6,4.8.5a14.7,14.7,0,0,1,6.7,11.6,4.7,4.7,0,0,1-2,4.3l-1.7,1v-.4C151.8,721,148.1,714.6,143.5,711.9Z" transform="translate(-29.1 -541.1)" fill="#372d30"/><path d="M91.4,724.2l.9.5-11.6,9.2h0a6.7,6.7,0,0,0,.9-2.1Z" transform="translate(-29.1 -541.1)" fill="#44393c"/><path d="M113.9,706.3c.1-4.9-3.4-10.9-7.7-13.4-2.2-1.2-4.1-1.3-5.5-.5l-14.2,8.3L67,709a5.8,5.8,0,0,0-2.3.3L86.8,700l15.1-8.9a5.6,5.6,0,0,1,4.1-.3,7.6,7.6,0,0,1,1.8.9c4.6,2.6,8.3,9,8.3,14.2a3.1,3.1,0,0,1-.1,1,5.5,5.5,0,0,1-2.3,4.4c-.2,0-.4.2-.8.4l-.9-.6C113.2,710.3,113.9,708.6,113.9,706.3Z" transform="translate(-29.1 -541.1)" fill="#44393c"/><path d="M66.8,711.2a11.9,11.9,0,0,0-3.1-1.4H64l.7-.4A5.8,5.8,0,0,1,67,709a9.4,9.4,0,0,1,4.5,1.4c5.9,3.4,10.6,11.6,10.6,18.3a9.6,9.6,0,0,1-.5,3.1,6.7,6.7,0,0,1-.9,2.1,5.7,5.7,0,0,1-1.4,1.3,12.5,12.5,0,0,0,.2-2.1C79.5,725.1,73.8,715.2,66.8,711.2Z" transform="translate(-29.1 -541.1)" fill="#42383b"/><path d="M47.8,730.4a19.2,19.2,0,0,1-.8-5.1v-.2a1.3,1.3,0,0,1,.1-.6v-.8c0-.1.1-.2.1-.3V723a.4.4,0,0,0,.1-.3c0-.2.1-.3.1-.4s.1-.2.1-.3a1.7,1.7,0,0,1,.2-.5h0l.3-.6h0l.3-.5h.1c.1-.1.1-.2.2-.4h.1l.3-.3a.1.1,0,0,0,.1-.1l.3-.3h.2l.4-.3h.1a10.8,10.8,0,0,0-.6,3.8,20.9,20.9,0,0,0,.8,5.5C52,733.5,56,739,60.6,741.7a12.1,12.1,0,0,0,4.9,1.6h-.2c-.1.2-.2.3-.4.3h0l-.5.2h0l-1.1.4H61.5l-1.3-.2h0l-.6-.2h-.1l-.7-.2h0a.9.9,0,0,1-.7-.3H58l-.6-.4C53.1,740.7,49.4,735.5,47.8,730.4Z" transform="translate(-29.1 -541.1)" fill="#372d30"/><path d="M60.6,741.7C56,739,52,733.5,50.3,727.9a20.9,20.9,0,0,1-.8-5.5,10.8,10.8,0,0,1,.6-3.8,4.8,4.8,0,0,1,1.8-.6,10.1,10.1,0,0,0-1.1,4.6,15.8,15.8,0,0,0,.9,5.2c1.6,5.4,5.4,10.7,9.8,13.2a9.5,9.5,0,0,0,4.8,1.5l-.7.8h-.1A12.1,12.1,0,0,1,60.6,741.7Z" transform="translate(-29.1 -541.1)" fill="#d1d1d1"/><path d="M51.7,727.8a15.8,15.8,0,0,1-.9-5.2,10.1,10.1,0,0,1,1.1-4.6h3.2c.1,0,.2,0,.2.1h.3c.1,0,.2,0,.2.1h0l1.6.7a9.1,9.1,0,0,1,1.6,1.1l.5.3c4.7,3.9,8.3,10.7,8.3,16.5-.1.6-.1,1.2-.2,1.8a11.6,11.6,0,0,1-.4,1.8h-.1v.2c-.3.5-.5,1-.8,1.4a9.5,9.5,0,0,1-4.8-1.5C57.1,738.5,53.3,733.2,51.7,727.8Z" transform="translate(-29.1 -541.1)" fill="#d4d4d4"/><path d="M66.4,739.9l.3-.6h0l.3-1a2.8,2.8,0,0,1,.1-.9,12.5,12.5,0,0,0-4.8-9.2l-.9-.6-.9-.4h0a.1.1,0,0,0-.1-.1H59.3a.1.1,0,0,0-.1-.1H58.1c-1.4.4-2.4,1.7-2.4,3.9a9.2,9.2,0,0,0,.5,2.8,11.7,11.7,0,0,0,5.2,7C63.5,741.7,65.4,741.4,66.4,739.9Z" transform="translate(-29.1 -541.1)" fill="#d4d4d4"/><path d="M66.8,746.5h-.2l-.2.2,9.4-5.5c1.8-1.1,3.1-3.1,3.5-6.1a12.5,12.5,0,0,0,.2-2.1c0-8-5.7-17.9-12.7-21.9a11.9,11.9,0,0,0-3.1-1.4,7.2,7.2,0,0,0-6,.5l-9.3,5.4h6.5l.3.2h.9l.5.3h.2l.6.4c7.1,4.1,12.7,13.9,12.7,22V740a.4.4,0,0,0-.1.3v.4c0,.1-.1.2-.1.3v.4a.4.4,0,0,0-.1.3c0,.1-.1.2-.1.3a3090632051248.9,3090632051248.9,0,0,0-.2.6v.3l-.2.3v.2a.4.4,0,0,1-.1.3c0,.1-.1.1-.1.2a.4.4,0,0,0-.1.3l-.2.2c0,.1-.1.2-.1.3l-.2.2a.3.3,0,0,0-.1.2l-.2.2c0,.1-.1.1-.2.2s-.1.1-.1.2a.2.2,0,0,0-.2.2h-.2l-.2.2H67C66.9,746.4,66.9,746.5,66.8,746.5Zm6.3-6.9a20.8,20.8,0,0,1,1.1-5.4,5.4,5.4,0,0,0,.3-1.9,7.1,7.1,0,0,1,.8-2.7,1.7,1.7,0,0,1,2.9-.1c.8,1.2.5,3.4.4,4.9a8.4,8.4,0,0,1-2.6,5.5C75,740.7,73.2,741.9,73.1,739.6Z" transform="translate(-29.1 -541.1)" fill="#372d30"/><path d="M44.7,723.9c-.1,8.1,5.6,17.9,12.6,22,3.7,2.1,7,2.2,9.3.7h.2c.1,0,.1-.1.2-.2h.2l.2-.2h.2a.2.2,0,0,1,.2-.2c0-.1.1-.1.1-.2s.2-.1.2-.2l.2-.2a.3.3,0,0,1,.1-.2l.2-.2c0-.1.1-.2.1-.3l.2-.2a.4.4,0,0,1,.1-.3c0-.1.1-.1.1-.2a.4.4,0,0,0,.1-.3v-.2l.2-.3v-.3a3090632051248.9,3090632051248.9,0,0,1,.2-.6c0-.1.1-.2.1-.3a.4.4,0,0,1,.1-.3V741c0-.1.1-.2.1-.3v-.4a.4.4,0,0,1,.1-.3v-1.4c0-8.1-5.6-17.9-12.7-22l-.6-.4h-.2l-.5-.3h-.9l-.3-.2H48.4C46.1,717,44.7,719.9,44.7,723.9Zm3.1,6.5a19.2,19.2,0,0,1-.8-5.1v-.2a1.3,1.3,0,0,1,.1-.6v-.8c0-.1.1-.2.1-.3V723a.4.4,0,0,0,.1-.3c0-.2.1-.3.1-.4s.1-.2.1-.3a1.7,1.7,0,0,1,.2-.5h0l.3-.6h0l.3-.5h.1c.1-.1.1-.2.2-.4h.1l.3-.3a.1.1,0,0,0,.1-.1l.3-.3h.2l.4-.3h.1a4.8,4.8,0,0,1,1.8-.6h3.2c.1,0,.2,0,.2.1h.3c.1,0,.2,0,.2.1h0l1.6.7a9.1,9.1,0,0,1,1.6,1.1l.5.3c4.7,3.9,8.3,10.7,8.3,16.5-.1.6-.1,1.2-.2,1.8a11.6,11.6,0,0,1-.4,1.8h-.1v.2c-.3.5-.5,1-.8,1.4l-.7.8h-.3c-.1.2-.2.3-.4.3h0l-.5.2h0l-1.1.4H61.5l-1.3-.2h0l-.6-.2h-.1l-.7-.2h0a.9.9,0,0,1-.7-.3H58l-.6-.4C53.1,740.7,49.4,735.5,47.8,730.4Z" transform="translate(-29.1 -541.1)" fill="#2b2224"/><path d="M56.2,733.4a9.2,9.2,0,0,1-.5-2.8c0-2.2,1-3.5,2.4-3.9h1.1a.1.1,0,0,1,.1.1h1.1a.1.1,0,0,1,.1.1h0l.9.4.9.6a12.5,12.5,0,0,1,4.8,9.2,2.8,2.8,0,0,0-.1.9l-.3,1h0l-.3.6c-1,1.5-2.9,1.8-5,.5A11.7,11.7,0,0,1,56.2,733.4Z" transform="translate(-29.1 -541.1)" fill="#fff"/><path d="M74.5,732.3a7.1,7.1,0,0,1,.8-2.7,1.7,1.7,0,0,1,2.9-.1c.8,1.2.5,3.4.4,4.9a8.4,8.4,0,0,1-2.6,5.5c-1,.8-2.8,2-2.9-.3a20.8,20.8,0,0,1,1.1-5.4A5.4,5.4,0,0,0,74.5,732.3Z" transform="translate(-29.1 -541.1)" fill="#bdbcba"/><polygon points="58.1 180.7 58.1 177.5 74.6 187.1 71.5 188.4 63.2 183.6 62.3 183.1 58.1 180.7" fill="#463b3f"/><path d="M123.3,719.7h-.1l-16.4-9.5-3.1,1.7-9.5,5.7,14.5,8.4h0l-14.5-8.4v2.1l12.4,7.2-2.9,1.3-16.5-9.6v3.2l4.2,2.4-9.8,7.6a9.6,9.6,0,0,0,.5-3.1c0-6.7-4.7-14.9-10.6-18.3A9.4,9.4,0,0,0,67,709l19.5-8.3,14.2-8.3c1.4-.8,3.3-.7,5.5.5,4.3,2.5,7.8,8.5,7.7,13.4,0,2.3-.7,4-1.9,4.8l.9.6,12.1,7-1.1.6Z" transform="translate(-29.1 -541.1)" fill="#4c4144"/><polygon points="65.1 176.5 79.6 184.9 77.5 185.8 65.1 178.7 65.1 176.5" fill="#463b3f"/><polygon points="74.6 170.8 77.7 169.1 94.1 178.6 79.6 184.9 65.1 176.5 74.6 170.8" fill="#5e5055"/><path d="M126.6,744.9l7.4-4.4-17.6,13.7h0a14.7,14.7,0,0,0,1-2.2Z" transform="translate(-29.1 -541.1)" fill="#504448"/><path d="M106.6,726.9l2.1-.9h0l14.5-6.3h.1l.6-.4,1.1-.6,11.7-6.9.6-.2c1.4-.6,3.2-.3,5.1.8,4.5,2.6,8.1,8.8,8.1,13.9,0,2.6-.9,4.4-2.4,5.2l-17.6,10.4h0l-12.7,7.4V749c0-6.8-4.7-14.9-10.6-18.3l-1.4-.7a6.9,6.9,0,0,0-5.6-.3h0l.4-.2,3.1-1.3Z" transform="translate(-29.1 -541.1)" fill="#504448"/><path d="M117.4,752a10.8,10.8,0,0,0,.3-1.9c0-.3.1-.5.1-.8l12.7-7.4h0l17.6-10.4c1.5-.8,2.4-2.6,2.4-5.2,0-5.1-3.6-11.3-8.1-13.9-1.9-1.1-3.7-1.4-5.1-.8l.4-.2a4.3,4.3,0,0,1,3.4-.5,8.2,8.2,0,0,1,2.4,1c4.6,2.7,8.3,9.1,8.3,14.3v.4c-.1,2.4-1,4.1-2.4,4.9l-15.4,9-7.4,4.4Z" transform="translate(-29.1 -541.1)" fill="#44393c"/><path d="M105.8,730l1.4.7c5.9,3.4,10.6,11.5,10.6,18.3v.3c0,.3-.1.5-.1.8a10.8,10.8,0,0,1-.3,1.9,14.7,14.7,0,0,1-1,2.2,8,8,0,0,1-1.3,1.3,14.8,14.8,0,0,0,.1-2.1c0-8.1-5.7-17.9-12.7-22a15.1,15.1,0,0,0-3-1.3c0-.1.1-.1.2-.2l.5-.2A6.9,6.9,0,0,1,105.8,730Z" transform="translate(-29.1 -541.1)" fill="#42383b"/><path d="M84.7,739.7l.2-.2.2-.2h.2l.4-.3h0c.1,0,.1,0,.1-.1a11.4,11.4,0,0,0-.6,3.9,22.2,22.2,0,0,0,.8,5.5c1.7,5.6,5.7,11.1,10.3,13.8a10.5,10.5,0,0,0,5,1.5c-.1.1-.2.1-.2.2h0l-.5.3h0l-.5.3h0l-1.1.4H97.2l-1.3-.2h0l-.6-.2h-.1l-.6-.3h-.1l-.7-.3h0l-.7-.4c-4.3-2.5-8-7.6-9.6-12.8a18.1,18.1,0,0,1-.8-5.1v-.2c0-.2.1-.4.1-.6V744a.8.8,0,0,0,.1-.4.8.8,0,0,1,.1-.4v-.3c.1-.1.1-.2.1-.4s.1-.1.1-.2.1-.3.2-.5h0l.3-.6h0l.3-.4c0-.1.1-.1.1-.2l.2-.3h.2C84.5,739.9,84.6,739.8,84.7,739.7Z" transform="translate(-29.1 -541.1)" fill="#372d30"/><path d="M96.3,762c-4.6-2.7-8.6-8.2-10.3-13.8a22.2,22.2,0,0,1-.8-5.5,11.4,11.4,0,0,1,.6-3.9,4.8,4.8,0,0,1,1.8-.6,9.2,9.2,0,0,0-1,4.6,16.7,16.7,0,0,0,.8,5.3c1.6,5.3,5.4,10.6,9.8,13.2a9.3,9.3,0,0,0,4.8,1.4l-.7.8h0A10.5,10.5,0,0,1,96.3,762Z" transform="translate(-29.1 -541.1)" fill="#d1d1d1"/><path d="M87.4,748.1a16.7,16.7,0,0,1-.8-5.3,9.2,9.2,0,0,1,1-4.6h2.7c.1,0,.2,0,.2.1h1.1l1.5.8,1.6,1,.5.4c4.7,3.8,8.3,10.7,8.3,16.5a8.8,8.8,0,0,1-.2,1.7,8,8,0,0,1-.4,1.8c0,.1,0,.1-.1.2h0a8.7,8.7,0,0,1-.8,1.4,9.3,9.3,0,0,1-4.8-1.4C92.8,758.7,89,753.4,87.4,748.1Z" transform="translate(-29.1 -541.1)" fill="#d4d4d4"/><path d="M102.1,760.1l.3-.6h0c0-.1,0-.1.1-.1s.1-.7.2-1,.1-.6.1-1a12.9,12.9,0,0,0-4.8-9.2l-.9-.6-.8-.4h-.9a.1.1,0,0,1-.1-.1H93.8c-1.4.3-2.4,1.7-2.4,3.9a9.7,9.7,0,0,0,.5,2.8,12.4,12.4,0,0,0,5.2,7C99.2,761.9,101.1,761.6,102.1,760.1Z" transform="translate(-29.1 -541.1)" fill="#d4d4d4"/><path d="M102.5,731.4a15.1,15.1,0,0,0-3-1.3,7.6,7.6,0,0,0-6,.4L84.1,736h0c.1-.1.2-.1.2-.2h6.9l.4.2c.1,0,.2,0,.2.1l.5.2h.2l.6.4c7.1,4,12.8,13.9,12.7,21.9v1.5c0,.1-.1.2-.1.3v.4c0,.1-.1.2-.1.3v.3a.4.4,0,0,0-.1.3.8.8,0,0,1-.1.4.3.3,0,0,1-.1.2v.4c-.1,0-.1.1-.1.2a.4.4,0,0,0-.1.3l-.2.3c0,.1,0,.2-.1.2s-.1.2-.1.3v.2l-.2.3a.3.3,0,0,0-.1.2l-.2.2c0,.1-.1.2-.1.3h-.2c0,.1-.1.2-.2.3h-.1c-.1.1-.1.2-.2.2l-.2.2-.2.2h-.2c0,.1-.1.1-.2.2h-.4l9.4-5.4c1.9-1.1,3.1-3.2,3.6-6.1a14.8,14.8,0,0,0,.1-2.1C115.2,745.3,109.5,735.5,102.5,731.4Zm6.3,28.5a20.7,20.7,0,0,1,1.1-5.5,4.8,4.8,0,0,0,.3-1.8,8.3,8.3,0,0,1,.8-2.8,1.8,1.8,0,0,1,2.9-.1c.8,1.3.5,3.5.4,4.9a8.2,8.2,0,0,1-2.6,5.5C110.7,761,108.9,762.1,108.8,759.9Z" transform="translate(-29.1 -541.1)" fill="#372d30"/><path d="M84.3,735.8c0,.1-.1.1-.2.2-2.3,1.3-3.7,4.1-3.7,8.1-.1,8.1,5.6,18,12.7,22,3.6,2.1,6.9,2.3,9.2.8h.2c.1-.1.2-.1.2-.2h.2l.2-.2.2-.2c.1,0,.1-.1.2-.2h.1c.1-.1.2-.2.2-.3h.2c0-.1.1-.2.1-.3l.2-.2a.3.3,0,0,1,.1-.2l.2-.3v-.2c0-.1.1-.2.1-.3s.1-.1.1-.2l.2-.3a.4.4,0,0,1,.1-.3c0-.1,0-.2.1-.2v-.4a.3.3,0,0,0,.1-.2.8.8,0,0,0,.1-.4.4.4,0,0,1,.1-.3v-.3c0-.1.1-.2.1-.3v-.4c0-.1.1-.2.1-.3v-1.5c.1-8-5.6-17.9-12.7-21.9l-.6-.4h-.2l-.5-.2c0-.1-.1-.1-.2-.1l-.4-.2H84.3Zm0,4.3h.2c0-.1.1-.2.2-.3l.2-.2.2-.2h.2l.4-.3h0c.1,0,.1,0,.1-.1a4.8,4.8,0,0,1,1.8-.6h2.7c.1,0,.2,0,.2.1h1.1l1.5.8,1.6,1,.5.4c4.7,3.8,8.3,10.7,8.3,16.5a8.8,8.8,0,0,1-.2,1.7,8,8,0,0,1-.4,1.8c0,.1,0,.1-.1.2h0a8.7,8.7,0,0,1-.8,1.4l-.7.8c-.1.1-.2.1-.2.2h0l-.5.3h0l-.5.3h0l-1.1.4H97.2l-1.3-.2h0l-.6-.2h-.1l-.6-.3h-.1l-.7-.3h0l-.7-.4c-4.3-2.5-8-7.6-9.6-12.8a18.1,18.1,0,0,1-.8-5.1v-.2c0-.2.1-.4.1-.6V744a.8.8,0,0,0,.1-.4.8.8,0,0,1,.1-.4v-.3c.1-.1.1-.2.1-.4s.1-.1.1-.2.1-.3.2-.5h0l.3-.6h0l.3-.4c0-.1.1-.1.1-.2Z" transform="translate(-29.1 -541.1)" fill="#2b2224"/><path d="M91.9,753.7a9.7,9.7,0,0,1-.5-2.8c0-2.2,1-3.6,2.4-3.9h1.5a.1.1,0,0,0,.1.1h.9l.8.4.9.6a12.9,12.9,0,0,1,4.8,9.2c0,.4-.1.7-.1,1s-.1.7-.2,1-.1,0-.1.1h0l-.3.6c-1,1.5-2.9,1.8-5,.6A12.4,12.4,0,0,1,91.9,753.7Z" transform="translate(-29.1 -541.1)" fill="#fff"/><path d="M110.2,752.6a8.3,8.3,0,0,1,.8-2.8,1.8,1.8,0,0,1,2.9-.1c.8,1.3.5,3.5.4,4.9a8.2,8.2,0,0,1-2.6,5.5c-1,.9-2.8,2-2.9-.2a20.7,20.7,0,0,1,1.1-5.5A4.8,4.8,0,0,0,110.2,752.6Z" transform="translate(-29.1 -541.1)" fill="#bdbcba"/></g></g></svg>