<svg xmlns="http://www.w3.org/2000/svg" viewBox="0 0 474.3 148.4"><title>03_選擇遊戲主軸地圖</title><g style="isolation:isolate"><g id="a0a2b552-ee9c-43c5-9c72-f9c70bcc1c16" data-name="圖層 2"><path d="M1485.8,694.3c42.4,9.1,102.7,15.2,183.7,8.3,24.2-2.8,55.7-11.2,87-21.9a141,141,0,0,0,30.4-32.8C1635.3,701.9,1496.4,694.9,1485.8,694.3Z" transform="translate(-1402.4 -607)" fill="#654624"/><path d="M1798.1,627.7a139.6,139.6,0,0,0,7.3-20.3h-.2c-161.5,60.3-364,61.4-393.8,61.3a214.6,214.6,0,0,0,31.1,13.5C1458.1,682.4,1638,684.7,1798.1,627.7Z" transform="translate(-1402.4 -607)" fill="#73502b"/><path d="M1442.5,682.1a337.3,337.3,0,0,0,43.3,12.2c10.6.6,149.5,7.6,301.1-46.4a145.9,145.9,0,0,0,11.2-20.2C1638,684.7,1458.1,682.4,1442.5,682.1Z" transform="translate(-1402.4 -607)" fill="#694a27"/><polygon points="224 75.1 275.9 101.9 310.5 88.1 257.8 63.9 224.3 70.8 224 75.1" fill="#93642d"/><g opacity="0.5" style="mix-blend-mode:multiply"><polygon points="224 75.1 275.9 101.9 279.2 100.6 224.2 72.2 224 75.1" fill="#93642d"/></g><g opacity="0.5" style="mix-blend-mode:multiply"><path d="M1660.2,670.9l-33.5,6.9-.3,4.3,51.9,26.8,34.6-13.8Zm44.1,26.7-6.3,2.5-41.5-20.8,39.9,20.7-6,2.5-33.9-17,32.2,17.7-6.7,3.2-51.6-26.7c24-2.3,33.5-6.1,33.5-6.1l45.8,21.2-4,2.1-14.7-8Z" transform="translate(-1402.4 -607)" fill="#93642d"/></g><path d="M1678.1,700.4c0,.2-.3.5-.8.5s-.9-.3-.9-.5.4-.6.9-.6S1678.1,700.1,1678.1,700.4Z" transform="translate(-1402.4 -607)" fill="#93642d" style="mix-blend-mode:multiply"/><path d="M1694.9,693.6c0,.3-.4.6-.9.6s-.9-.3-.9-.6.4-.5.9-.5S1694.9,693.4,1694.9,693.6Z" transform="translate(-1402.4 -607)" fill="#93642d" style="mix-blend-mode:multiply"/><path d="M1477.4,726.5a176.3,176.3,0,0,0,18,10.1c106.6,37.8,241.6,9.5,300.1-6,27.8-7.3,44.5-25.6,55.1-44C1688.4,765.1,1528.5,738.3,1477.4,726.5Z" transform="translate(-1402.4 -607)" fill="#93642d"/><path d="M1445.9,703a274.5,274.5,0,0,0,31.5,23.5c51.1,11.8,211,38.6,373.2-39.9,8.2-14.3,12.7-28.7,15.8-38.3C1689.7,760.6,1486.8,714.1,1445.9,703Z" transform="translate(-1402.4 -607)" fill="#9a632b"/><path d="M1876.6,623.7c-28,24.8-142.8,71.4-207.1,78.9-156.7,13.3-235.8-21.8-258.1-34h-.4a341.9,341.9,0,0,0,34.9,34.5c40.9,11.1,243.8,57.6,420.5-54.7,2-6.1,3.4-10.2,4.8-11.3C1877.9,632.1,1876.6,623.7,1876.6,623.7Z" transform="translate(-1402.4 -607)" fill="#a46329"/><g opacity="0.2" style="mix-blend-mode:multiply"><path d="M1876.6,623.7c-28,24.8-142.8,71.4-207.1,78.9-156.7,13.3-235.8-21.8-258.1-34h-.4a341.9,341.9,0,0,0,34.9,34.5,274.5,274.5,0,0,0,31.5,23.5,176.3,176.3,0,0,0,18,10.1c106.6,37.8,241.6,9.5,300.1-6,27.8-7.3,44.5-25.6,55.1-44,8.2-14.3,12.7-28.7,15.8-38.3,2-6.1,3.4-10.2,4.8-11.3C1877.9,632.1,1876.6,623.7,1876.6,623.7ZM1695.2,746.6C1497.4,767.8,1426,680,1426,680c181.8,60.8,312.2,12.9,312.2,12.9s12.5,15.6,20.2,31C1761.9,731,1736.9,739.9,1695.2,746.6Zm177.8-115c-2.1,5.3-7.1,6.8-8.9,10.9-2.3,7.7-6.8,21.9-19.8,45.5s-64.1,40.2-68.3,33.7-23.3-33.7-23.3-33.7C1836,661.4,1875.1,626.2,1873,631.6Z" transform="translate(-1402.4 -607)" fill="#6d4c20"/></g><path d="M1668.4,749.8s96.1-4.7,149.9-36.1C1818.3,713.7,1783.7,744.8,1668.4,749.8Z" transform="translate(-1402.4 -607)" fill="#93642d" opacity="0.5" style="mix-blend-mode:multiply"/><path d="M1756.5,680.7a727.9,727.9,0,0,0,69.2-27.6L1790,643A141.2,141.2,0,0,1,1756.5,680.7Z" transform="translate(-1402.4 -607)" fill="#4f371a"/><path d="M1876.6,623.7l-71.2-16.3a127.7,127.7,0,0,1-7.2,19.9l52.8,13.1C1862.2,634.3,1871.1,628.6,1876.6,623.7Z" transform="translate(-1402.4 -607)" fill="#5f4323"/><path d="M1798.2,627.3A119.5,119.5,0,0,1,1790,643l35.7,10.1c9.3-4.3,17.8-8.6,25.3-12.7Z" transform="translate(-1402.4 -607)" fill="#553c1e"/><g opacity="0.3" style="mix-blend-mode:multiply"><path d="M1805.4,607.4a127.7,127.7,0,0,1-7.2,19.9A119.5,119.5,0,0,1,1790,643a141.2,141.2,0,0,1-33.5,37.7,727.9,727.9,0,0,0,69.2-27.6c9.3-4.3,17.8-8.6,25.3-12.7,11.2-6.1,20.1-11.8,25.6-16.7Zm1.5,47.1-17.7-7.4c4.3-4.5,16.7-32.1,16.7-32.1l56.6,12.1C1849.7,634.8,1806.9,654.5,1806.9,654.5Z" transform="translate(-1402.4 -607)" fill="#5b3f20"/></g><polygon points="317.8 36.4 369.7 63.3 404.4 49.4 351.6 25.2 318.2 32.1 317.8 36.4" fill="#a46329"/><g opacity="0.5" style="mix-blend-mode:multiply"><polygon points="317.8 36.4 369.7 63.3 373.1 61.9 318.1 33.5 317.8 36.4" fill="#93642d"/></g><g opacity="0.5" style="mix-blend-mode:multiply"><path d="M1754,632.2l-33.4,7-.4,4.3,51.9,26.8,34.7-13.8Zm44.2,26.8-6.3,2.5-41.6-20.9,39.9,20.7-5.9,2.6-34-17.1,32.2,17.8-6.6,3.1-51.6-26.6c23.9-2.4,33.5-6.2,33.5-6.2l45.7,21.3-4,2-14.6-7.9Z" transform="translate(-1402.4 -607)" fill="#93642d"/></g><path d="M1772,661.7c0,.3-.4.5-.9.5s-.9-.2-.9-.5.4-.5.9-.5S1772,661.4,1772,661.7Z" transform="translate(-1402.4 -607)" fill="#93642d" style="mix-blend-mode:multiply"/><path d="M1788.7,655c0,.3-.3.5-.8.5s-.9-.2-.9-.5.4-.5.9-.5S1788.7,654.7,1788.7,655Z" transform="translate(-1402.4 -607)" fill="#93642d" style="mix-blend-mode:multiply"/><path d="M1666.9,698.2c-4.7.2-21.7-3.2-25.7-1.5l-17.2,8.4c11.1-.3,29-.8,45.9-3C1668.9,700.5,1670.2,698.1,1666.9,698.2Z" transform="translate(-1402.4 -607)" fill="#684925"/><path d="M1805.4,607.4h-.2c-14.6,5.5-29.6,10.4-44.7,14.9l2.2,3.4c13.6-4,27.3-8.3,41.1-13l63,13.6s-38.5,24.2-99.8,45.4c-.2.2-.4.3-.5.5s.3-.3.5-.5c-7.6,2.6-15.5,5.2-23.7,7.7-41.9,15.5-84.3,19.1-93.4,19.7-67.1,8.2-144,4.2-222.1-26.9,0,0,81.8,3.4,196-15.2a5.6,5.6,0,0,1,1.8-2.2c1.6-1.2,5.7-2.7,9.4-3.3a101.2,101.2,0,0,1,18.6-1.6s-.4.1-.3.2c2.4-.9,2.8-2.3,2.8-3.1-117.4,21.2-223.7,21.8-244.7,21.7a214.6,214.6,0,0,0,31.1,13.5,337.3,337.3,0,0,0,43.3,12.2c42.4,9.1,101.7,16,183.7,8.3,24.3-2.2,55.7-11.2,87-21.9a727.9,727.9,0,0,0,69.2-27.6c9.3-4.3,17.8-8.6,25.3-12.7,11.2-6.1,20.1-11.8,25.6-16.7Z" transform="translate(-1402.4 -607)" fill="#b97534"/><path d="M1602,658.5c-.1.7-1.4,1.2-3,1.1s-2.8-.9-2.7-1.6,1.4-1.3,2.9-1.1S1602.1,657.7,1602,658.5Z" transform="translate(-1402.4 -607)" fill="#b76a32" opacity="0.5" style="mix-blend-mode:multiply"/><path d="M1621.2,654.9c-.1.7-1.4,1.2-3,1.1s-2.8-.9-2.8-1.6,1.4-1.2,3-1.1S1621.2,654.1,1621.2,654.9Z" transform="translate(-1402.4 -607)" fill="#b76a32" opacity="0.5" style="mix-blend-mode:multiply"/><path d="M1599.1,659c-.1,0-.2,0-.2-.1a2.1,2.1,0,0,1-1.8-2.5c.1-.5,2.5-12.9,12.9-15.3,3.6-.9,6,.3,7.3,1.5,3.9,3.4,3.4,10.4,3.4,11.1a2.1,2.1,0,0,1-2.4,2,2,2,0,0,1-2-2.3c.1-1.5,0-5.8-1.9-7.5-.3-.2-1.2-1-3.5-.5-7.5,1.8-9.5,11.7-9.5,11.8a2.2,2.2,0,0,1-2.3,1.8Z" transform="translate(-1402.4 -607)" fill="#753924"/><g opacity="0.5" style="mix-blend-mode:multiply"><path d="M1613.6,643.9c-6.3-1.6-10.6,8-10.6,8h0c2-2.8,4-5.7,7.8-6.6a4,4,0,0,1,3.5.5c1.9,1.7,2,6,1.9,7.5a2.3,2.3,0,0,0,1.6,2.3C1618.2,652.5,1618.5,645.1,1613.6,643.9Z" transform="translate(-1402.4 -607)" fill="#753924"/></g><path d="M1411,668.5h-8.6s34.8,37.8,70.9,59c7.2,3.4,14.6,6.3,22.1,9C1455.3,717,1421.7,680.9,1411,668.5Z" transform="translate(-1402.4 -607)" fill="#885c2a"/><path d="M1790.4,642.4l1.3-2.4Z" transform="translate(-1402.4 -607)" fill="#5b3f20"/><path d="M1795.7,632.6c-.7,1.5-1.6,3.1-2.4,4.7C1794.1,635.7,1795,634.1,1795.7,632.6Z" transform="translate(-1402.4 -607)" fill="#5b3f20"/><path d="M1803.8,613a.1.1,0,0,0-.1-.1c-.1,0-.2-.2-.2-.3l1.5-5.3a.5.5,0,0,1,.5-.3c.1.1.3.3.2.5l-1.6,5.2a.3.3,0,0,1-.3.3Z" transform="translate(-1402.4 -607)" fill="#753924" opacity="0.5" style="mix-blend-mode:multiply"/><path d="M1428.6,672.2h0c0,.2-.2.3-.4.3l-16.5-3.5c-.2,0-.3-.2-.2-.4s.2-.3.4-.2l16.4,3.4c.2.1.3.2.3.4Z" transform="translate(-1402.4 -607)" fill="#753924" opacity="0.5" style="mix-blend-mode:multiply"/><path d="M1866.8,626c-.2,0-.3.1-.3,0s0-.2.2-.3l9.1-2.2c.2-.1.4.1.4.3s-.1.1-.2.1l-9.1,2.1Z" transform="translate(-1402.4 -607)" fill="#753924" opacity="0.5" style="mix-blend-mode:multiply"/><g opacity="0.2" style="mix-blend-mode:multiply"><path d="M1411,668.5h-8.6s34.8,37.8,70.9,59c7.2,3.4,14.6,6.3,22.1,9C1455.3,717,1421.7,680.9,1411,668.5Zm-6.2,1,5.7-.3s33.9,41,72.6,61.2C1483.1,730.4,1457.4,722.7,1404.8,669.5Z" transform="translate(-1402.4 -607)" fill="#885c2a"/></g><path d="M1863.7,648.4s-10.4,35-25.7,49.2C1838,697.6,1855,687.7,1863.7,648.4Z" transform="translate(-1402.4 -607)" fill="#93642d" opacity="0.5" style="mix-blend-mode:multiply"/><path d="M1874.2,625.9s-33.7,24-81.6,41.3C1792.6,667.2,1848.5,648.7,1874.2,625.9Z" transform="translate(-1402.4 -607)" fill="#93642d" opacity="0.5" style="mix-blend-mode:multiply"/><g opacity="0.5" style="mix-blend-mode:multiply"><path d="M1805.4,607.4h-.2c-14.6,5.5-29.6,10.4-44.7,14.9l2.2,3.4c13.6-4,27.3-8.3,41.1-13l63,13.6s-38.5,24.2-99.8,45.4c-.2.2-.4.3-.5.5s.3-.3.5-.5c-7.6,2.6-15.5,5.2-23.7,7.7-41.9,15.5-84.3,19.1-93.4,19.7-67.1,8.2-144,4.2-222.1-26.9,0,0,81.8,3.4,196-15.2a5.6,5.6,0,0,1,1.8-2.2c1.6-1.2,5.7-2.7,9.4-3.3a101.2,101.2,0,0,1,18.6-1.6s-.4.1-.3.2c2.4-.9,2.8-2.3,2.8-3.1-117.4,21.2-223.7,21.8-244.7,21.7a214.6,214.6,0,0,0,31.1,13.5,337.3,337.3,0,0,0,43.3,12.2c42.4,9.1,101.7,16,183.7,8.3,24.3-2.2,55.7-11.2,87-21.9a727.9,727.9,0,0,0,69.2-27.6c9.3-4.3,17.8-8.6,25.3-12.7,11.2-6.1,20.1-11.8,25.6-16.7Zm-3,4.7-39.3,12.3-.6-1.7,40.2-13.6Zm-210.1,46,1.3,2c-43.6,8.2-153.9,11.3-153.9,11.3l-17.5-1.7C1511.8,668.4,1592.3,658.1,1592.3,658.1Zm-145,24.3c154.9,45.5,276.4,4.7,276.4,4.7l1.5,2.1C1583.3,729.4,1447.3,682.4,1447.3,682.4Zm418.6-57.5-60.5-12.7,1.1-3.8,64.3,14.8Zm-109.8,54.7-.5-3.1c60.5-19.2,110.9-49.1,110.9-49.1l6-1.6C1837.1,651.7,1756.1,679.6,1756.1,679.6Z" transform="translate(-1402.4 -607)" fill="#b97534"/></g><path d="M1734.9,685.8c0,.7-1.3,1.3-2.9,1.3s-2.9-.6-2.9-1.3,1.3-1.4,2.9-1.4S1734.9,685,1734.9,685.8Z" transform="translate(-1402.4 -607)" fill="#b76a32" opacity="0.5" style="mix-blend-mode:multiply"/><path d="M1753.6,680.6c0,.7-1.2,1.3-2.8,1.3s-2.9-.6-2.9-1.3,1.3-1.4,2.9-1.4S1753.6,679.8,1753.6,680.6Z" transform="translate(-1402.4 -607)" fill="#b76a32" opacity="0.5" style="mix-blend-mode:multiply"/><path d="M1732,686.5h-.2a2.2,2.2,0,0,1-2-2.4c0-.5,1.3-13,11.5-16.3,3.6-1.2,6-.2,7.4.8,4.2,3.1,4.3,10.1,4.3,10.8a2.2,2.2,0,1,1-4.4,0c0-1.3-.5-5.7-2.5-7.2-.3-.2-1.2-.9-3.5-.2-7.3,2.4-8.4,12.4-8.4,12.6a2.2,2.2,0,0,1-2.2,1.9Z" transform="translate(-1402.4 -607)" fill="#753924"/><g opacity="0.5" style="mix-blend-mode:multiply"><path d="M1745.3,670.2c-6.3-1-9.7,8.9-9.7,8.9h.1a11.7,11.7,0,0,1,6.9-7.2c2.3-.7,3.2,0,3.5.2,2,1.5,2.5,5.9,2.5,7.2a2.1,2.1,0,0,0,1.9,2.2C1750.6,678.4,1750.3,671,1745.3,670.2Z" transform="translate(-1402.4 -607)" fill="#753924"/></g><path d="M1731.5,643s23.6-1.7,30.6-5.7C1762.1,637.3,1758.7,641.6,1731.5,643Z" transform="translate(-1402.4 -607)" fill="#93642d" opacity="0.5" style="mix-blend-mode:multiply"/></g></g></svg>