<svg xmlns="http://www.w3.org/2000/svg" viewBox="0 0 505 72.7"><title>03_選擇遊戲主軸地圖</title><g style="isolation:isolate"><g id="e6ec77fc-f016-4934-8517-f701134715e0" data-name="圖層 2"><path d="M1444.3,725.1s-52.8-1-47.6,10.9,71,13.3,61.4,15.8-42.8,7.6-17.6,15.2,150.9,10.9,190.4,10.5-15.2,7.1,3.9,12.8,100.4,12.4,153.7,1.9-23.8-15.7,10.5-17.6,122.8-8.6,98.1-17.1-66.2-10.5-21.9-13.9,7.6-12.8-51.4-12.8S1444.3,725.1,1444.3,725.1Z" transform="translate(-1396.4 -725.1)" fill="#557eb5"/><path d="M1444.3,725.1s-52.8-1-47.6,10.9,71,13.3,61.4,15.8-42.8,7.6-17.6,15.2,150.9,10.9,190.4,10.5-15.2,7.1,3.9,12.8,100.4,12.4,153.7,1.9-23.8-15.7,10.5-17.6,122.8-8.6,98.1-17.1-66.2-10.5-21.9-13.9,7.6-12.8-51.4-12.8S1444.3,725.1,1444.3,725.1Z" transform="translate(-1396.4 -725.1)" fill="#557eb5"/><path d="M1452.2,733.2s-27.8,1.6-20.9,6.4,66,13.3,82.9,13.3-52.7,1.6-31,6.9,129.5,10,122.7,4.4-31-8.1-.4-8.1,114.7-.8,95,2.9-31,3.6-17.7,6.4,29.3,3.2,12.4,8-3,5.1.6,6.1-5.6,2.6-20.1-.4-3.4,9.2,37.4,10.4c0,0,8.1,0,4.3,2.3s37.4,3,54.9-2.7,6.4-9-4.8-9.8,18.1-4.2,11.8-9.1-31.6-6-6.4-8,62.1-5,50.7-.4,52.2-.9,25.6-5.8-47-7.3-27.2-9.9,35.6-4,15.5-6.7S1452.2,733.2,1452.2,733.2Z" transform="translate(-1396.4 -725.1)" fill="#557eb5"/><path d="M1849.1,747.7s-13.5,1-6.2,2.8,29.1,6.2,21.9,9.9-34.4,5.4-44,5.6-5.9,4.4,35.4.8,29.7-10.1,8.8-13.7S1859,748.1,1849.1,747.7Z" transform="translate(-1396.4 -725.1)" fill="#557eb5" style="mix-blend-mode:overlay"/><path d="M1785.2,777.9s-3.7-.6-1.5,1.6,10.3,5.8-3,8.8,8.7,2.5,16.3-1S1792.8,779.7,1785.2,777.9Z" transform="translate(-1396.4 -725.1)" fill="#557eb5" style="mix-blend-mode:overlay"/><path d="M1467.7,756.9s6.6-3-3-2.8-30.8,4.3-20.8,9.1,67.9,10.4,76.3,8.4S1440.9,766,1467.7,756.9Z" transform="translate(-1396.4 -725.1)" fill="#557eb5" style="mix-blend-mode:overlay"/><path d="M1635.7,770.8s-9.1-.2-5.5,1.6,30.8,3.2,22.2,7.3-20.9,8.2,10,12.7,43.1.2,30.6-1.6-33.8-5.7-27.3-7.3-12.1-4.4-3.3-5.6,13.7-3-5.4-4.5S1654.4,771.8,1635.7,770.8Z" transform="translate(-1396.4 -725.1)" fill="#557eb5" style="mix-blend-mode:overlay"/><path d="M1531.6,755.1s-35.7-.2-24,2.9,61.7,6.3,72.4,3.6S1556.6,755.5,1531.6,755.1Z" transform="translate(-1396.4 -725.1)" fill="#557eb5" opacity="0.39" style="mix-blend-mode:multiply"/><path d="M1711.7,781.1s-14.9,2.4-8.8,4.4,39.1-1.4,33.4-.4-11.9,3.4-2.2,3.6,38-3.6,30.9-5-7.2-2.2-1.6-6.4S1747.1,777.5,1711.7,781.1Z" transform="translate(-1396.4 -725.1)" fill="#557eb5" opacity="0.39" style="mix-blend-mode:multiply"/><g style="mix-blend-mode:multiply"><path d="M1440.5,740.1c4.4,4,19.7,5.6,60.8,7.6s101,7.2,181,4c74.6-3,159.2-5.6,160.2-11.5l-5-.8c-20.2-2.6-385.3-6.2-385.3-6.2l-4.6.4C1442.8,735.4,1438.2,737.9,1440.5,740.1Z" transform="translate(-1396.4 -725.1)" fill="#557eb5" opacity="0.39" style="mix-blend-mode:multiply"/></g></g></g></svg>