<svg id="b96a6b4d-da00-4105-a82b-eeba0eb8b8ea" data-name="圖層 1" xmlns="http://www.w3.org/2000/svg" xmlns:xlink="http://www.w3.org/1999/xlink" width="300" height="300" viewBox="0 0 300 300">
  <defs>
    <clipPath id="f1bd1657-152c-47b1-8fbc-9483e04e167f">
      <path id="07e71f4c-bc78-45fb-9bb8-5e7d8a7e7094" data-name="SVGID" d="M250.49,190.77c11.55,5.17,23.34,6.53,26.29,3s-4-10.5-15.58-15.65-23.36-6.52-26.29-3a2.83,2.83,0,0,0-.66,1.9c0,3.77,6.54,9.4,16.25,13.72" style="fill: none"/>
    </clipPath>
    <linearGradient id="066b01e9-6ed7-4418-a9a1-4e4e81331a90" x1="-564.93" y1="1819.43" x2="-564.46" y2="1819.43" gradientTransform="matrix(-96.27, -7.36, 10.13, -67.06, -72542.18, 118045.77)" gradientUnits="userSpaceOnUse">
      <stop offset="0" stop-color="#81ae46"/>
      <stop offset="0.06" stop-color="#86b149"/>
      <stop offset="0.4" stop-color="#9dbf57"/>
      <stop offset="0.72" stop-color="#abc85f"/>
      <stop offset="1" stop-color="#b0cb62"/>
    </linearGradient>
    <clipPath id="391517c5-596c-4804-a355-c7f2fc26647d">
      <path id="7163567b-e309-4f1a-ae79-de2186ad98de" data-name="SVGID" d="M92.23,181.37C82.15,189,75.29,198.71,76.92,203s11.12,1.56,21.21-6.14,16.95-17.36,15.29-21.6a2.82,2.82,0,0,0-1.35-1.5c-3.32-1.79-11.38,1.21-19.85,7.65" style="fill: none"/>
    </clipPath>
    <linearGradient id="43d96453-31e3-45d2-9b4f-4a352fdc5141" x1="-550.23" y1="1787.5" x2="-549.76" y2="1787.5" gradientTransform="matrix(52.74, -80.88, 53.93, 41.12, -67304.76, -117805.78)" xlink:href="#066b01e9-6ed7-4418-a9a1-4e4e81331a90"/>
    <clipPath id="f40ba32f-5c5f-4c43-82a5-18f9a805284f">
      <path id="e0eb8bfe-6209-428e-9ea3-fe1b33bd91e0" data-name="SVGID" d="M203.57,235c8.3,7.8,18,12,21.67,9.52s-0.28-10.88-8.66-18.59-18-12.08-21.55-9.54a3.07,3.07,0,0,0-1.21,1.59c-1.07,3.5,2.69,10.42,9.75,17" style="fill: none"/>
    </clipPath>
    <linearGradient id="47b280b2-7cc3-438e-a8bf-35770e45398c" x1="-563.73" y1="1796.06" x2="-563.27" y2="1796.06" gradientTransform="matrix(-81.16, -32.87, 29.05, -62.81, -97706.46, 94519.69)" gradientUnits="userSpaceOnUse">
      <stop offset="0" stop-color="#7fa746"/>
      <stop offset="0.02" stop-color="#81a847"/>
      <stop offset="0.38" stop-color="#98b755"/>
      <stop offset="0.71" stop-color="#a6c15e"/>
      <stop offset="1" stop-color="#abc461"/>
    </linearGradient>
    <clipPath id="4f2159a2-3fd3-4dd9-bdb5-a0e57d5bf9ea">
      <path id="502ff907-b506-4f52-b07e-c12aa518c0e2" data-name="SVGID" d="M131.43,232.45c-1.58,10.59.8,19.83,5.3,20.68S146,246,147.46,235.38s-0.77-19.84-5.21-20.61a3.82,3.82,0,0,0-2.14.21c-3.71,1.53-7.37,8.49-8.68,17.47" style="fill: none"/>
    </clipPath>
    <linearGradient id="5c07be0d-cce1-43e4-948b-ebd90ee0bdb9" x1="-549.91" y1="1801.27" x2="-549.46" y2="1801.27" gradientTransform="matrix(-22.27, -75.67, 72.75, -20.74, -143150.88, -4004.72)" xlink:href="#47b280b2-7cc3-438e-a8bf-35770e45398c"/>
    <clipPath id="883886a7-a537-4c83-b10a-b8087e2b6725">
      <path id="f9410c58-1be0-4cc8-b91b-2ac005a175e2" data-name="SVGID" d="M87,121.77a89.66,89.66,0,1,0,55.28-61.51A89.75,89.75,0,0,0,87,121.77" style="fill: none"/>
    </clipPath>
    <linearGradient id="e643ea92-563c-4e93-8601-6088eb2db079" x1="-569.62" y1="1817.35" x2="-569.17" y2="1817.35" gradientTransform="matrix(-338.32, 199, -199, -338.32, 169190.56, 728301.02)" gradientUnits="userSpaceOnUse">
      <stop offset="0" stop-color="#abc461"/>
      <stop offset="1" stop-color="#abc461"/>
      <stop offset="1" stop-color="#7fa746"/>
    </linearGradient>
    <clipPath id="bf8d5758-ebf3-4372-85ee-81a1d47fe613">
      <path id="c68b5317-bf14-4278-a32b-55c9bfcba2e2" data-name="SVGID" d="M102.09,96.89a86,86,0,1,0,41.38-33.12,86,86,0,0,0-41.38,33.12" style="fill: none"/>
    </clipPath>
    <linearGradient id="d547045e-04a1-421d-84c6-28aaee130873" x1="-567" y1="1815.7" x2="-566.54" y2="1815.7" gradientTransform="matrix(-364.39, -94.51, 94.51, -364.39, -377948.55, 608214.07)" xlink:href="#47b280b2-7cc3-438e-a8bf-35770e45398c"/>
  </defs>
  <title>00_遊戲人物</title>
  <g>
    <g>
      <g style="clip-path: url(#f1bd1657-152c-47b1-8fbc-9483e04e167f)">
        <polygon points="283.01 172.61 234.57 168.38 231.01 196.37 279.44 200.6 283.01 172.61" style="fill: url(#066b01e9-6ed7-4418-a9a1-4e4e81331a90)"/>
      </g>
      <g style="clip-path: url(#391517c5-596c-4804-a355-c7f2fc26647d)">
        <polygon points="92.52 218.62 119.53 178.17 96.7 161.59 69.69 202.03 92.52 218.62" style="fill: url(#43d96453-31e3-45d2-9b4f-4a352fdc5141)"/>
      </g>
      <g style="clip-path: url(#f40ba32f-5c5f-4c43-82a5-18f9a805284f)">
        <polygon points="237.05 226.21 196.79 209.89 185.12 235.23 225.38 251.54 237.05 226.21" style="fill: url(#47b280b2-7cc3-438e-a8bf-35770e45398c)"/>
      </g>
      <g style="clip-path: url(#4f2159a2-3fd3-4dd9-bdb5-a0e57d5bf9ea)">
        <polygon points="160 249.35 148.97 211.81 119.65 220.2 130.69 257.74 160 249.35" style="fill: url(#5c07be0d-cce1-43e4-948b-ebd90ee0bdb9)"/>
      </g>
      <g style="clip-path: url(#883886a7-a537-4c83-b10a-b8087e2b6725)">
        <path d="M315.78,183.09a57.33,57.33,0,0,0,7.45-13.27L220.08-5.56,18.71,112.8,132.1,305.59l185-108.75C313.33,193.55,311.82,188.35,315.78,183.09Z" style="fill: url(#e643ea92-563c-4e93-8601-6088eb2db079)"/>
      </g>
      <g style="clip-path: url(#bf8d5758-ebf3-4372-85ee-81a1d47fe613)">
        <path d="M318.85,97.65c-7.55-14.4-11.49-29.7-7.72-45.82a12.75,12.75,0,0,1,.87-2.54L80.47-10.79,14.52,243.58l257,66.58,53.39-206c0-.36-0.08-0.71-0.12-1.07A10.87,10.87,0,0,1,318.85,97.65Z" style="fill: url(#d547045e-04a1-421d-84c6-28aaee130873)"/>
      </g>
      <g>
        <g>
          <g>
            <path d="M235.27,70c-0.46,5,4.1,9.52,10.19,10s11.3-3.15,11.76-8.14-4.14-9.52-10.22-10S235.69,65,235.27,70" style="fill: #dacc48"/>
            <path d="M224.16,68.36c-2.72,4.25-.77,10.37,4.33,13.66s11.42,2.52,14.13-1.67S243.44,70,238.33,66.7s-11.46-2.54-14.18,1.66" style="fill: #dacc48"/>
            <path d="M237.74,79.57C236,84.29,239.28,89.84,245,91.9s11.75-.11,13.47-4.84-1.6-10.28-7.29-12.38-11.76.16-13.47,4.89" style="fill: #dacc48"/>
          </g>
          <g>
            <path d="M224.59,67.31c4,3.1,10.22,1.66,14-3.1s3.51-11.26-.47-14.31-10.22-1.7-14,3.14-3.51,11.25.47,14.27" style="fill: #dcb036"/>
            <path d="M209.28,56c-2.75,4.24-.8,10.37,4.25,13.7s11.51,2.58,14.23-1.71,0.82-10.32-4.29-13.61S212,51.76,209.28,56" style="fill: #dcb036"/>
            <path d="M222.87,67.22c-1.71,4.73,1.55,10.23,7.25,12.29s11.75-.09,13.47-4.85S242,64.44,236.35,62.36s-11.75.13-13.48,4.85" style="fill: #dcb036"/>
          </g>
        </g>
        <g>
          <path d="M246.15,74.4a7.38,7.38,0,0,1-2,5.24l-0.3.3-0.35.34-0.29.3-0.33.25-0.44.33-0.33.26a27,27,0,0,1-2.54,1.25l-0.51.11-0.46.11-0.47.15-0.5,0c-9.08,1.23-14.14-7.49-16.87-14.68-0.38-1-.79-2.15-1.16-3.21a2.84,2.84,0,0,0-.31-0.71,16.44,16.44,0,0,0-3.88-6.36l-0.25-.25a8.42,8.42,0,0,0-7.67-1.29l-0.19.07-0.13,0-0.18,0-0.2.08a4.22,4.22,0,0,1-.41-0.62c-0.31-.62-0.64-1.19-0.9-1.79-0.08-.19-0.11-0.33-0.19-0.48l0.52-.19a11.53,11.53,0,0,1,10.74,1.13c3.67,2.58,5.36,6.6,6.92,10.62,2.16,5.73,5,13.83,12,14.94,4.08,0.54,8.93-1.87,9-6.62-0.58-4.39-6.07-6.21-8.9-6a12.44,12.44,0,0,0-7.38,2.39c-0.26.25-.6,0.41-0.83,0.63l-0.05,0h-0.14l0,0-0.09,0H227l-0.08-.06-0.09,0h-0.13l-0.13-.08h-0.14l0,0-0.08-.1v0l-0.09-.06-0.08-.09v0l0-.1v0l0-.05V69.86l0-.09v0l0-.1,0.06-.12,0-.06,0.15-.08,0.33-.28a30.45,30.45,0,0,1,3.46-2c5.85-2.52,15.61-.74,15.92,7.27" style="fill: #157c3f"/>
          <path d="M216.24,67.49a10.21,10.21,0,0,1-2-.46,21.87,21.87,0,0,1-15.84-20.55l3.21-.31a23.08,23.08,0,0,0,14.64,21.31" style="fill: #75a734"/>
          <path d="M221.26,72.45h0.23l0,0h0.14l0.09,0.06h0.18l0,0,0.09,0.06,0,0.09,0,0,0,0.05,0,0,0.09,0.1V73l0,0v0.08l0.08,0.06V73.3l-0.07.14h0v0.13l0,0V73.7l-0.11,0,0,0.08a2.13,2.13,0,0,1-.58.32l-0.52.24-0.51.19-0.55.18-0.56.14-0.51.19-0.61.17-0.59.09-0.56.15a22.7,22.7,0,0,1-7.27.18l-0.63-.09-0.58-.14-0.62-.13-0.58-.14-0.56-.27-0.57-.22c-4.32-1.86-7.06-5.1-7.57-9.76V64l0-.41,0-.44,0.08-.45,0-.42,0.08-.44,0.17-.45a2.5,2.5,0,0,1,.1-0.57c0.05-.22.21-0.44,0.27-0.66a0.62,0.62,0,0,0,.08-0.27c0.15-.31.21-0.58,0.38-0.88l0.05-.19L202.32,62l-0.07.31-0.06.27-0.08.36v0.18l0,0.33,0,0.27,0,0.22,0,0.26,0.06,0.33-0.06.22,0.06,0.32,0.08,0.24,0,0.27c1.5,6.59,9.64,8.34,15.4,7.72l0.6,0,0.5-.09,0.55-.14,0.51-.14a6.29,6.29,0,0,0,1.49-.43" style="fill: #75a734"/>
        </g>
      </g>
      <path d="M276.62,94.09s-11.69,9.81-26.21,7.88C239.48,100.52,155.66,89,124,85.34c-3.88-.44-11.88-0.49-15.5-1.75-5.16-1.8-14.75-9.44-14.75-14.29s13.5-2.14,16-1.94,14,1.85,14,1.85S132.39,46.11,135.52,39s4.21-25.86,55.88-15.41c15.63,3.16,49.18,3.52,53.45,8.61,3.9,4.64,5.33,26.35,5.56,33.75s0.42,23.17,2.89,24.19a67.64,67.64,0,0,0,12.32,2.31C271.59,93,277.28,92.87,276.62,94.09Z" style="fill: #221714"/>
      <g>
        <g>
          <g>
            <path d="M235.27,70c-0.46,5,4.1,9.52,10.19,10s11.3-3.15,11.76-8.14-4.14-9.52-10.22-10S235.69,65,235.27,70" style="fill: #dacc48"/>
            <path d="M224.16,68.36c-2.72,4.25-.77,10.37,4.33,13.66s11.42,2.52,14.13-1.67S243.44,70,238.33,66.7s-11.46-2.54-14.18,1.66" style="fill: #dacc48"/>
            <path d="M237.74,79.57C236,84.29,239.28,89.84,245,91.9s11.75-.11,13.47-4.84-1.6-10.28-7.29-12.38-11.76.16-13.47,4.89" style="fill: #dacc48"/>
          </g>
          <g>
            <path d="M224.59,67.31c4,3.1,10.22,1.66,14-3.1s3.51-11.26-.47-14.31-10.22-1.7-14,3.14-3.51,11.25.47,14.27" style="fill: #dcb036"/>
            <path d="M209.28,56c-2.75,4.24-.8,10.37,4.25,13.7s11.51,2.58,14.23-1.71,0.82-10.32-4.29-13.61S212,51.76,209.28,56" style="fill: #dcb036"/>
            <path d="M222.87,67.22c-1.71,4.73,1.55,10.23,7.25,12.29s11.75-.09,13.47-4.85S242,64.44,236.35,62.36s-11.75.13-13.48,4.85" style="fill: #dcb036"/>
          </g>
        </g>
        <g>
          <path d="M246.15,74.4a7.38,7.38,0,0,1-2,5.24l-0.3.3-0.35.34-0.29.3-0.33.25-0.44.33-0.33.26a27,27,0,0,1-2.54,1.25l-0.51.11-0.46.11-0.47.15-0.5,0c-9.08,1.23-14.14-7.49-16.87-14.68-0.38-1-.79-2.15-1.16-3.21a2.84,2.84,0,0,0-.31-0.71,16.44,16.44,0,0,0-3.88-6.36l-0.25-.25a8.42,8.42,0,0,0-7.67-1.29l-0.19.07-0.13,0-0.18,0-0.2.08a4.22,4.22,0,0,1-.41-0.62c-0.31-.62-0.64-1.19-0.9-1.79-0.08-.19-0.11-0.33-0.19-0.48l0.52-.19a11.53,11.53,0,0,1,10.74,1.13c3.67,2.58,5.36,6.6,6.92,10.62,2.16,5.73,5,13.83,12,14.94,4.08,0.54,8.93-1.87,9-6.62-0.58-4.39-6.07-6.21-8.9-6a12.44,12.44,0,0,0-7.38,2.39c-0.26.25-.6,0.41-0.83,0.63l-0.05,0h-0.14l0,0-0.09,0H227l-0.08-.06-0.09,0h-0.13l-0.13-.08h-0.14l0,0-0.08-.1v0l-0.09-.06-0.08-.09v0l0-.1v0l0-.05V69.86l0-.09v0l0-.1,0.06-.12,0-.06,0.15-.08,0.33-.28a30.45,30.45,0,0,1,3.46-2c5.85-2.52,15.61-.74,15.92,7.27" style="fill: #157c3f"/>
          <path d="M216.24,67.49a10.21,10.21,0,0,1-2-.46,21.87,21.87,0,0,1-15.84-20.55l3.21-.31a23.08,23.08,0,0,0,14.64,21.31" style="fill: #75a734"/>
          <path d="M221.26,72.45h0.23l0,0h0.14l0.09,0.06h0.18l0,0,0.09,0.06,0,0.09,0,0,0,0.05,0,0,0.09,0.1V73l0,0v0.08l0.08,0.06V73.3l-0.07.14h0v0.13l0,0V73.7l-0.11,0,0,0.08a2.13,2.13,0,0,1-.58.32l-0.52.24-0.51.19-0.55.18-0.56.14-0.51.19-0.61.17-0.59.09-0.56.15a22.7,22.7,0,0,1-7.27.18l-0.63-.09-0.58-.14-0.62-.13-0.58-.14-0.56-.27-0.57-.22c-4.32-1.86-7.06-5.1-7.57-9.76V64l0-.41,0-.44,0.08-.45,0-.42,0.08-.44,0.17-.45a2.5,2.5,0,0,1,.1-0.57c0.05-.22.21-0.44,0.27-0.66a0.62,0.62,0,0,0,.08-0.27c0.15-.31.21-0.58,0.38-0.88l0.05-.19L202.32,62l-0.07.31-0.06.27-0.08.36v0.18l0,0.33,0,0.27,0,0.22,0,0.26,0.06,0.33-0.06.22,0.06,0.32,0.08,0.24,0,0.27c1.5,6.59,9.64,8.34,15.4,7.72l0.6,0,0.5-.09,0.55-.14,0.51-.14a6.29,6.29,0,0,0,1.49-.43" style="fill: #75a734"/>
        </g>
      </g>
      <ellipse cx="168.28" cy="184.11" rx="12.7" ry="6.29" style="fill: #ac3b3c"/>
      <path d="M211.06,179.64a10.3,10.3,0,0,1-7.23,1.34c-5.46-1-10.68-6.88-12.41-9.63-3.06-4.87-7.65-10.79-13.66-11.56s-9.48,6.4-9.48,6.4-3.47-7.16-9.48-6.4-10.6,6.69-13.66,11.56c-1.73,2.75-6.95,8.63-12.4,9.63a10.31,10.31,0,0,1-7.24-1.34s-0.8,4,4.49,5.59c10.45,3.23,29.39,1.42,35.72-8.52a17.59,17.59,0,0,0,2.58-6.43,17.6,17.6,0,0,0,2.58,6.43c6.32,9.93,25.26,11.74,35.72,8.52C211.86,183.59,211.06,179.64,211.06,179.64Z" style="fill: #161722"/>
      <path d="M193.4,136.29c12.71,1.72,24.74,7.51,37.09,1.15,3.14-1.62.37-6.34-2.76-4.73-10.61,5.46-22-.23-32.88-1.7-3.45-.46-4.94,4.81-1.45,5.28h0Z" style="fill: #161722"/>
      <path d="M152.87,128.06c-10.89,1.47-22.27,7.16-32.88,1.7-3.13-1.61-5.9,3.11-2.76,4.73,12.35,6.36,24.39.56,37.09-1.15,3.49-.47,2-5.74-1.46-5.28h0Z" style="fill: #161722"/>
    </g>
    <g>
      <g>
        <path d="M74.44,169.84l-31.12,21a1.07,1.07,0,0,0,.16,1.93l64.55,27a2.79,2.79,0,0,0,2.42-.21L142.31,198c1.33-.92-0.58-1.74-0.58-1.74L77.59,169.47A3.46,3.46,0,0,0,74.44,169.84Z" style="fill: #6270b3"/>
        <g>
          <path d="M98.66,179.73l-6.19,4.15a0.21,0.21,0,0,0,0,.38l16,6.53a0.57,0.57,0,0,0,.49,0l6.34-4.25c0.26-.18-0.12-0.34-0.12-0.34l-15.92-6.5A0.7,0.7,0,0,0,98.66,179.73Z" style="fill: #7786c1"/>
          <path d="M115.32,186.49l-0.22.15-15.81-6.45a0.7,0.7,0,0,0-.63.07l-6,4-0.12,0a0.21,0.21,0,0,1,0-.38l6.19-4.15a0.7,0.7,0,0,1,.63-0.07l15.92,6.5S115.59,186.31,115.32,186.49Z" style="fill: #2c365f"/>
        </g>
        <path d="M109.27,219.92a3,3,0,0,0,1.19-.39L142.31,198a0.9,0.9,0,0,0,.47-0.66c0.27,2.62-.47,3.53-0.47,3.53l-31.85,21.5a3,3,0,0,1-1.19.39v-2.87Z" style="fill: #414286"/>
        <g>
          <path d="M42.83,191.49h0a0.62,0.62,0,0,0,0,.1Z" style="fill: #8085af"/>
          <path d="M42.79,191.62a1.06,1.06,0,0,0,.69,1.15l64.55,27a2.53,2.53,0,0,0,1.42.15v2.87a2.52,2.52,0,0,1-1.42-.15l-64.85-27.1C41.88,194.95,42.61,192.23,42.79,191.62Z" style="fill: #2c365f"/>
        </g>
        <g>
          <path d="M68.7,176.86L48.26,190.78a0.88,0.88,0,0,0,.14,1.58L107,216.86a2.3,2.3,0,0,0,2-.18l21-14.32c1.1-.76-0.48-1.43-0.48-1.43L71.29,176.56A2.85,2.85,0,0,0,68.7,176.86Z" style="fill: #7786c1"/>
          <g>
            <g>
              <path d="M121.27,203l-2.51-1.11a0.07,0.07,0,0,1,0-.11,0.07,0.07,0,0,1,0-.08,0.06,0.06,0,0,1,0-.07,0.07,0.07,0,0,1,0-.08,0.07,0.07,0,0,1,0-.08,0.07,0.07,0,0,1,0-.08,0.07,0.07,0,0,1,0-.08,0.06,0.06,0,0,1,0-.07,0.07,0.07,0,0,1,0-.08s0-.1.08-0.15l2.38-1.58a0.48,0.48,0,0,1,.37,0l2.46,1a0.13,0.13,0,0,1,.09.16,0.08,0.08,0,0,1,0,.07,0.08,0.08,0,0,1,0,.08,0.09,0.09,0,0,1,0,.08,0.09,0.09,0,0,1,0,.08,0.08,0.08,0,0,1,0,.08,0.09,0.09,0,0,1,0,.08,0.09,0.09,0,0,1,0,.08,0.09,0.09,0,0,1,0,.07,0.1,0.1,0,0,1-.05.13l-2.4,1.62A0.49,0.49,0,0,1,121.27,203Z" style="fill: #314993"/>
              <path d="M117,198.34l-2.4,1.62a0.48,0.48,0,0,1-.37,0l-2.51-1.11a0.07,0.07,0,0,1,0-.11,0.06,0.06,0,0,1,0-.08,0.07,0.07,0,0,1,0-.08,0.06,0.06,0,0,1,0-.08,0.06,0.06,0,0,1,0-.07,0.07,0.07,0,0,1,0-.08,0.07,0.07,0,0,1,0-.08,0.06,0.06,0,0,1,0-.08,0.06,0.06,0,0,1,0-.07s0-.1.08-0.16l2.38-1.58a0.47,0.47,0,0,1,.36,0l2.46,1a0.13,0.13,0,0,1,.08.17,0.09,0.09,0,0,1,0,.07,0.09,0.09,0,0,1,0,.08,0.09,0.09,0,0,1,0,.08,0.09,0.09,0,0,1,0,.07,0.1,0.1,0,0,1,0,.08,0.1,0.1,0,0,1,0,.08,0.09,0.09,0,0,1,0,.07,0.09,0.09,0,0,1,0,.08A0.1,0.1,0,0,1,117,198.34Z" style="fill: #314993"/>
              <path d="M113.41,196.86l-2.4,1.62a0.48,0.48,0,0,1-.37,0l-2.51-1.11a0.07,0.07,0,0,1,0-.11,0.06,0.06,0,0,1,0-.07,0.07,0.07,0,0,1,0-.08,0.07,0.07,0,0,1,0-.08,0.07,0.07,0,0,1,0-.08,0.07,0.07,0,0,1,0-.08,0.07,0.07,0,0,1,0-.07,0.07,0.07,0,0,1,0-.08,0.07,0.07,0,0,1,0-.08s0-.1.08-0.15l2.38-1.58a0.48,0.48,0,0,1,.37,0l2.46,1a0.13,0.13,0,0,1,.08.16,0.09,0.09,0,0,1,0,.08,0.09,0.09,0,0,1,0,.08,0.09,0.09,0,0,1,0,.07,0.09,0.09,0,0,1,0,.08,0.09,0.09,0,0,1,0,.08,0.09,0.09,0,0,1,0,.07,0.09,0.09,0,0,1,0,.08,0.09,0.09,0,0,1,0,.08A0.1,0.1,0,0,1,113.41,196.86Z" style="fill: #314993"/>
              <path d="M109.87,195.38l-2.4,1.62a0.49,0.49,0,0,1-.37,0l-2.51-1.11a0.07,0.07,0,0,1,0-.11,0.06,0.06,0,0,1,0-.08,0.06,0.06,0,0,1,0-.08,0.06,0.06,0,0,1,0-.07,0.06,0.06,0,0,1,0-.08,0.06,0.06,0,0,1,0-.08,0.06,0.06,0,0,1,0-.07,0.06,0.06,0,0,1,0-.08,0.06,0.06,0,0,1,0-.08s0-.1.08-0.15l2.38-1.58a0.47,0.47,0,0,1,.37,0l2.46,1a0.13,0.13,0,0,1,.08.16,0.09,0.09,0,0,1,0,.08,0.09,0.09,0,0,1,0,.08,0.08,0.08,0,0,1,0,.07,0.09,0.09,0,0,1,0,.08,0.09,0.09,0,0,1,0,.08,0.08,0.08,0,0,1,0,.07,0.09,0.09,0,0,1,0,.08,0.09,0.09,0,0,1,0,.08A0.1,0.1,0,0,1,109.87,195.38Z" style="fill: #314993"/>
              <path d="M106.32,193.9l-2.4,1.62a0.47,0.47,0,0,1-.37,0L101,194.45a0.26,0.26,0,0,1,0-.18,0.07,0.07,0,0,1,0-.08,0.07,0.07,0,0,1,0-.07,0.07,0.07,0,0,1,0-.08,0.07,0.07,0,0,1,0-.08,0.07,0.07,0,0,1,0-.08,0.07,0.07,0,0,1,0-.08,0.07,0.07,0,0,1,0-.08s0-.1.08-0.15l2.38-1.58a0.5,0.5,0,0,1,.37,0l2.46,1a0.13,0.13,0,0,1,.08.16,0.1,0.1,0,0,1,0,.08,0.1,0.1,0,0,1,0,.08,0.1,0.1,0,0,1,0,.08,0.1,0.1,0,0,1,0,.08,0.1,0.1,0,0,1,0,.07,0.1,0.1,0,0,1,0,.08,0.1,0.1,0,0,1,0,.08A0.27,0.27,0,0,1,106.32,193.9Z" style="fill: #314993"/>
              <path d="M102.77,192.42l-2.4,1.62a0.47,0.47,0,0,1-.37,0L97.49,193a0.07,0.07,0,0,1,0-.11,0.06,0.06,0,0,1,0-.08,0.06,0.06,0,0,1,0-.07,0.06,0.06,0,0,1,0-.08,0.06,0.06,0,0,1,0-.08,0.06,0.06,0,0,1,0-.08,0.06,0.06,0,0,1,0-.08,0.06,0.06,0,0,1,0-.07,0.06,0.06,0,0,1,0-.08s0-.1.08-0.16l2.38-1.58a0.5,0.5,0,0,1,.37,0l2.46,1a0.13,0.13,0,0,1,.08.16,0.12,0.12,0,0,1,0,.07,0.12,0.12,0,0,1,0,.08,0.12,0.12,0,0,1,0,.08,0.12,0.12,0,0,1,0,.08,0.11,0.11,0,0,1,0,.07,0.12,0.12,0,0,1,0,.08,0.12,0.12,0,0,1,0,.07,0.12,0.12,0,0,1,0,.08A0.1,0.1,0,0,1,102.77,192.42Z" style="fill: #314993"/>
              <path d="M99.23,190.94l-2.4,1.62a0.48,0.48,0,0,1-.37,0l-2.51-1.11a0.07,0.07,0,0,1,0-.11,0.07,0.07,0,0,1,0-.08,0.06,0.06,0,0,1,0-.08,0.06,0.06,0,0,1,0-.08,0.06,0.06,0,0,1,0-.08,0.06,0.06,0,0,1,0-.08,0.06,0.06,0,0,1,0-.08,0.07,0.07,0,0,1,0-.08,0.06,0.06,0,0,1,0-.08s0-.1.08-0.15L96.37,189a0.48,0.48,0,0,1,.37,0l2.46,1a0.13,0.13,0,0,1,.08.16,0.09,0.09,0,0,1,0,.07,0.09,0.09,0,0,1,0,.08,0.09,0.09,0,0,1,0,.07,0.1,0.1,0,0,1,0,.08,0.09,0.09,0,0,1,0,.07,0.09,0.09,0,0,1,0,.08,0.09,0.09,0,0,1,0,.08,0.09,0.09,0,0,1,0,.08A0.1,0.1,0,0,1,99.23,190.94Z" style="fill: #314993"/>
              <path d="M95.68,189.45l-2.4,1.62a0.47,0.47,0,0,1-.37,0L90.4,190a0.07,0.07,0,0,1,0-.11,0.06,0.06,0,0,1,0-.08,0.06,0.06,0,0,1,0-.07,0.06,0.06,0,0,1,0-.08,0.06,0.06,0,0,1,0-.08,0.06,0.06,0,0,1,0-.08,0.06,0.06,0,0,1,0-.08,0.06,0.06,0,0,1,0-.08,0.06,0.06,0,0,1,0-.08s0-.1.08-0.15l2.38-1.58a0.48,0.48,0,0,1,.37,0l2.46,1a0.13,0.13,0,0,1,.08.16,0.11,0.11,0,0,1,0,.08,0.11,0.11,0,0,1,0,.08,0.1,0.1,0,0,1,0,.07,0.11,0.11,0,0,1,0,.08,0.11,0.11,0,0,1,0,.08,0.11,0.11,0,0,1,0,.07,0.11,0.11,0,0,1,0,.08,0.11,0.11,0,0,1,0,.08A0.1,0.1,0,0,1,95.68,189.45Z" style="fill: #314993"/>
              <path d="M88.59,186.49l-2.4,1.62a0.46,0.46,0,0,1-.37,0L83.31,187a0.07,0.07,0,0,1,0-.11,0.06,0.06,0,0,1,0-.08,0.06,0.06,0,0,1,0-.08,0.06,0.06,0,0,1,0-.07,0.06,0.06,0,0,1,0-.08,0.06,0.06,0,0,1,0-.08,0.06,0.06,0,0,1,0-.08,0.06,0.06,0,0,1,0-.08,0.06,0.06,0,0,1,0-.07s0-.1.08-0.16l2.38-1.58a0.49,0.49,0,0,1,.37,0l2.46,1a0.13,0.13,0,0,1,.08.16,0.11,0.11,0,0,1,0,.08,0.11,0.11,0,0,1,0,.08,0.11,0.11,0,0,1,0,.08,0.11,0.11,0,0,1,0,.07,0.11,0.11,0,0,1,0,.08,0.11,0.11,0,0,1,0,.08,0.11,0.11,0,0,1,0,.08A0.26,0.26,0,0,1,88.59,186.49Z" style="fill: #314993"/>
              <path d="M85,185l-2.4,1.62a0.48,0.48,0,0,1-.37,0l-2.51-1.11a0.07,0.07,0,0,1,0-.11,0.07,0.07,0,0,1,0-.08,0.07,0.07,0,0,1,0-.08,0.07,0.07,0,0,1,0-.08,0.07,0.07,0,0,1,0-.07,0.07,0.07,0,0,1,0-.08,0.07,0.07,0,0,1,0-.08,0.07,0.07,0,0,1,0-.08,0.07,0.07,0,0,1,0-.07s0-.1.08-0.16l2.38-1.58a0.48,0.48,0,0,1,.37,0l2.46,1a0.13,0.13,0,0,1,.08.16,0.07,0.07,0,0,1,0,.07,0.08,0.08,0,0,1,0,.08,0.08,0.08,0,0,1,0,.08,0.08,0.08,0,0,1,0,.08,0.07,0.07,0,0,1,0,.07,0.08,0.08,0,0,1,0,.08,0.07,0.07,0,0,1,0,.07,0.08,0.08,0,0,1,0,.08A0.1,0.1,0,0,1,85,185Z" style="fill: #314993"/>
              <path d="M81.5,183.53l-2.4,1.62a0.48,0.48,0,0,1-.37,0l-2.52-1.11a0.07,0.07,0,0,1,0-.11,0.06,0.06,0,0,1,0-.08,0.06,0.06,0,0,1,0-.08,0.06,0.06,0,0,1,0-.07,0.06,0.06,0,0,1,0-.08,0.06,0.06,0,0,1,0-.08,0.06,0.06,0,0,1,0-.08,0.06,0.06,0,0,1,0-.08,0.06,0.06,0,0,1,0-.08s0-.1.08-0.15l2.38-1.58a0.49,0.49,0,0,1,.37,0l2.46,1a0.13,0.13,0,0,1,.09.16,0.11,0.11,0,0,1,0,.08,0.11,0.11,0,0,1,0,.08,0.11,0.11,0,0,1,0,.08,0.11,0.11,0,0,1,0,.08,0.11,0.11,0,0,1,0,.08,0.1,0.1,0,0,1,0,.07,0.11,0.11,0,0,1,0,.08,0.11,0.11,0,0,1,0,.08A0.1,0.1,0,0,1,81.5,183.53Z" style="fill: #314993"/>
              <path d="M74.41,180.57L72,182.19a0.48,0.48,0,0,1-.37,0l-2.51-1.11a0.07,0.07,0,0,1,0-.1,0.07,0.07,0,0,1,0-.08,0.07,0.07,0,0,1,0-.08,0.07,0.07,0,0,1,0-.07,0.07,0.07,0,0,1,0-.08,0.07,0.07,0,0,1,0-.08,0.07,0.07,0,0,1,0-.08,0.07,0.07,0,0,1,0-.07,0.07,0.07,0,0,1,0-.08s0-.1.08-0.16l2.38-1.58a0.47,0.47,0,0,1,.37,0l2.47,1a0.13,0.13,0,0,1,.08.16,0.1,0.1,0,0,1,0,.08,0.1,0.1,0,0,1,0,.08,0.1,0.1,0,0,1,0,.08,0.1,0.1,0,0,1,0,.08,0.1,0.1,0,0,1,0,.08,0.1,0.1,0,0,1,0,.07,0.1,0.1,0,0,1,0,.08,0.11,0.11,0,0,1,0,.08A0.1,0.1,0,0,1,74.41,180.57Z" style="fill: #314993"/>
              <path d="M117.16,205.11a0.06,0.06,0,0,1,0-.07,0.06,0.06,0,0,1,0-.08,0.06,0.06,0,0,1,0-.08,0.06,0.06,0,0,1,0-.07,0.06,0.06,0,0,1,0-.08,0.06,0.06,0,0,1,0-.08,0.06,0.06,0,0,1,0-.08,0.06,0.06,0,0,1,0-.08s0-.1.08-0.16l2.38-1.58a0.48,0.48,0,0,1,.37,0l2.46,1a0.13,0.13,0,0,1,.08.16,0.11,0.11,0,0,1,0,.08,0.11,0.11,0,0,1,0,.08,0.11,0.11,0,0,1,0,.08,0.11,0.11,0,0,1,0,.08,0.11,0.11,0,0,1,0,.08,0.11,0.11,0,0,1,0,.07,0.12,0.12,0,0,1,0,.08,0.11,0.11,0,0,1,0,.07,0.1,0.1,0,0,1-.05.13l-2.4,1.62a0.47,0.47,0,0,1-.37,0l-2.51-1.11A0.07,0.07,0,0,1,117.16,205.11Z" style="fill: #314993"/>
              <path d="M118.94,203.18l-2.4,1.62a0.47,0.47,0,0,1-.37,0l-2.51-1.11a0.07,0.07,0,0,1,0-.11,0.07,0.07,0,0,1,0-.08,0.07,0.07,0,0,1,0-.08,0.07,0.07,0,0,1,0-.08,0.07,0.07,0,0,1,0-.08,0.07,0.07,0,0,1,0-.08,0.07,0.07,0,0,1,0-.08,0.07,0.07,0,0,1,0-.08,0.07,0.07,0,0,1,0-.07s0-.1.08-0.16l2.38-1.58a0.47,0.47,0,0,1,.37,0l2.46,1a0.13,0.13,0,0,1,.08.16,0.08,0.08,0,0,1,0,.07,0.09,0.09,0,0,1,0,.08,0.08,0.08,0,0,1,0,.07,0.09,0.09,0,0,1,0,.08,0.09,0.09,0,0,1,0,.08,0.09,0.09,0,0,1,0,.08,0.08,0.08,0,0,1,0,.07,0.09,0.09,0,0,1,0,.08A0.1,0.1,0,0,1,118.94,203.18Z" style="fill: #314993"/>
              <path d="M115.39,201.7l-2.4,1.62a0.48,0.48,0,0,1-.37,0l-2.51-1.11a0.07,0.07,0,0,1,0-.11,0.06,0.06,0,0,1,0-.08,0.06,0.06,0,0,1,0-.08,0.06,0.06,0,0,1,0-.07,0.06,0.06,0,0,1,0-.08,0.06,0.06,0,0,1,0-.08,0.06,0.06,0,0,1,0-.07,0.06,0.06,0,0,1,0-.08,0.06,0.06,0,0,1,0-.08s0-.1.08-0.15l2.38-1.58a0.49,0.49,0,0,1,.37,0l2.46,1a0.13,0.13,0,0,1,.08.16,0.09,0.09,0,0,1,0,.08,0.09,0.09,0,0,1,0,.08,0.09,0.09,0,0,1,0,.07,0.09,0.09,0,0,1,0,.08,0.09,0.09,0,0,1,0,.08,0.09,0.09,0,0,1,0,.07,0.09,0.09,0,0,1,0,.08,0.09,0.09,0,0,1,0,.08A0.1,0.1,0,0,1,115.39,201.7Z" style="fill: #314993"/>
              <path d="M111.85,200.22l-2.4,1.62a0.48,0.48,0,0,1-.37,0l-2.51-1.11a0.07,0.07,0,0,1,0-.11,0.07,0.07,0,0,1,0-.08,0.07,0.07,0,0,1,0-.08,0.06,0.06,0,0,1,0-.07,0.06,0.06,0,0,1,0-.08,0.06,0.06,0,0,1,0-.08,0.06,0.06,0,0,1,0-.07,0.07,0.07,0,0,1,0-.08,0.06,0.06,0,0,1,0-.08s0-.1.08-0.15l2.38-1.58a0.48,0.48,0,0,1,.37-0.05l2.46,1a0.13,0.13,0,0,1,.08.16,0.09,0.09,0,0,1,0,.08,0.09,0.09,0,0,1,0,.08,0.09,0.09,0,0,1,0,.07,0.1,0.1,0,0,1,0,.08,0.09,0.09,0,0,1,0,.08,0.09,0.09,0,0,1,0,.08,0.09,0.09,0,0,1,0,.08,0.09,0.09,0,0,1,0,.08A0.1,0.1,0,0,1,111.85,200.22Z" style="fill: #314993"/>
              <path d="M108.3,198.74l-2.4,1.62a0.47,0.47,0,0,1-.37,0L103,199.29a0.07,0.07,0,0,1,0-.11,0.06,0.06,0,0,1,0-.08,0.07,0.07,0,0,1,0-.08,0.06,0.06,0,0,1,0-.08,0.06,0.06,0,0,1,0-.07,0.07,0.07,0,0,1,0-.08,0.06,0.06,0,0,1,0-.07,0.06,0.06,0,0,1,0-.08,0.07,0.07,0,0,1,0-.08s0-.1.09-0.15l2.38-1.58a0.48,0.48,0,0,1,.37,0l2.47,1a0.13,0.13,0,0,1,.08.16,0.1,0.1,0,0,1,0,.07,0.11,0.11,0,0,1,0,.08,0.11,0.11,0,0,1,0,.08,0.1,0.1,0,0,1,0,.07,0.11,0.11,0,0,1,0,.08,0.11,0.11,0,0,1,0,.08,0.11,0.11,0,0,1,0,.08,0.1,0.1,0,0,1,0,.07A0.1,0.1,0,0,1,108.3,198.74Z" style="fill: #314993"/>
              <path d="M104.75,197.26l-2.4,1.62a0.46,0.46,0,0,1-.37,0l-2.51-1.11a0.07,0.07,0,0,1,0-.11,0.07,0.07,0,0,1,0-.07,0.07,0.07,0,0,1,0-.08,0.07,0.07,0,0,1,0-.08,0.07,0.07,0,0,1,0-.08,0.07,0.07,0,0,1,0-.07,0.07,0.07,0,0,1,0-.08,0.07,0.07,0,0,1,0-.08,0.07,0.07,0,0,1,0-.08s0-.1.08-0.16l2.38-1.58a0.49,0.49,0,0,1,.37,0l2.46,1a0.13,0.13,0,0,1,.08.16,0.09,0.09,0,0,1,0,.08,0.09,0.09,0,0,1,0,.08,0.09,0.09,0,0,1,0,.08,0.08,0.08,0,0,1,0,.08,0.09,0.09,0,0,1,0,.08,0.09,0.09,0,0,1,0,.08,0.08,0.08,0,0,1,0,.07,0.09,0.09,0,0,1,0,.08A0.1,0.1,0,0,1,104.75,197.26Z" style="fill: #314993"/>
              <path d="M101.21,195.78l-2.4,1.62a0.47,0.47,0,0,1-.37,0l-2.51-1.11a0.07,0.07,0,0,1,0-.11,0.06,0.06,0,0,1,0-.08,0.07,0.07,0,0,1,0-.08,0.07,0.07,0,0,1,0-.08,0.06,0.06,0,0,1,0-.07,0.07,0.07,0,0,1,0-.08,0.07,0.07,0,0,1,0-.08,0.07,0.07,0,0,1,0-.08,0.06,0.06,0,0,1,0-.07s0-.1.08-0.16l2.38-1.58a0.49,0.49,0,0,1,.37,0l2.46,1a0.13,0.13,0,0,1,.08.16,0.08,0.08,0,0,1,0,.08,0.08,0.08,0,0,1,0,.07,0.08,0.08,0,0,1,0,.08,0.08,0.08,0,0,1,0,.07,0.08,0.08,0,0,1,0,.08,0.08,0.08,0,0,1,0,.07,0.08,0.08,0,0,1,0,.08,0.08,0.08,0,0,1,0,.08A0.1,0.1,0,0,1,101.21,195.78Z" style="fill: #314993"/>
              <path d="M97.67,194.3l-2.4,1.62a0.47,0.47,0,0,1-.37,0l-2.51-1.11a0.07,0.07,0,0,1,0-.11,0.06,0.06,0,0,1,0-.08,0.06,0.06,0,0,1,0-.08,0.06,0.06,0,0,1,0-.07,0.06,0.06,0,0,1,0-.08,2.92,2.92,0,0,0,0-.15,0.06,0.06,0,0,1,0-.08,0.06,0.06,0,0,1,0-.08s0-.1.08-0.15l2.38-1.58a0.48,0.48,0,0,1,.37-0.05l2.46,1a0.13,0.13,0,0,1,.08.16,0.08,0.08,0,0,1,0,.08,0.08,0.08,0,0,1,0,.08,0.08,0.08,0,0,1,0,.08,0.09,0.09,0,0,1,0,.08,0.09,0.09,0,0,1,0,.08,0.07,0.07,0,0,1,0,.07,0.08,0.08,0,0,1,0,.08,0.08,0.08,0,0,1,0,.08A0.1,0.1,0,0,1,97.67,194.3Z" style="fill: #314993"/>
              <path d="M90.57,191.33L88.17,193a0.48,0.48,0,0,1-.37,0l-2.51-1.11a0.07,0.07,0,0,1,0-.11,0.07,0.07,0,0,1,0-.08,0.07,0.07,0,0,1,0-.08,0.06,0.06,0,0,1,0-.08,0.06,0.06,0,0,1,0-.07,0.06,0.06,0,0,1,0-.08,0.06,0.06,0,0,1,0-.08,0.07,0.07,0,0,1,0-.08,0.06,0.06,0,0,1,0-.07s0-.1.08-0.16l2.38-1.58a0.49,0.49,0,0,1,.37,0l2.46,1a0.13,0.13,0,0,1,.08.16,0.1,0.1,0,0,1,0,.08,0.09,0.09,0,0,1,0,.08,0.09,0.09,0,0,1,0,.08,0.09,0.09,0,0,1,0,.07,0.1,0.1,0,0,1,0,.08,0.09,0.09,0,0,1,0,.07,0.09,0.09,0,0,1,0,.08,0.09,0.09,0,0,1,0,.07A0.1,0.1,0,0,1,90.57,191.33Z" style="fill: #314993"/>
              <path d="M79.94,186.89l-2.4,1.62a0.49,0.49,0,0,1-.37,0l-2.51-1.11a0.07,0.07,0,0,1,0-.11,0.07,0.07,0,0,1,0-.07,0.07,0.07,0,0,1,0-.08,0.07,0.07,0,0,1,0-.08,0.07,0.07,0,0,1,0-.07,0.07,0.07,0,0,1,0-.08,0.07,0.07,0,0,1,0-.08,0.07,0.07,0,0,1,0-.08,0.07,0.07,0,0,1,0-.08s0-.11.08-0.15L77.08,185a0.48,0.48,0,0,1,.37-0.05l2.46,1a0.13,0.13,0,0,1,.09.16,0.1,0.1,0,0,1,0,.08,0.1,0.1,0,0,1,0,.07,0.1,0.1,0,0,1,0,.08,0.1,0.1,0,0,1,0,.08,0.1,0.1,0,0,1,0,.08,0.1,0.1,0,0,1,0,.08,0.1,0.1,0,0,1,0,.08,0.1,0.1,0,0,1,0,.08A0.1,0.1,0,0,1,79.94,186.89Z" style="fill: #314993"/>
              <path d="M76.39,185.41L74,187a0.48,0.48,0,0,1-.37,0L71.11,186a0.07,0.07,0,0,1,0-.11,0.06,0.06,0,0,1,0-.08,0.05,0.05,0,0,1,0-.07,0.06,0.06,0,0,1,0-.08,0.06,0.06,0,0,1,0-.08,0.05,0.05,0,0,1,0-.07,0.06,0.06,0,0,1,0-.08,1.58,1.58,0,0,1,0-.15s0-.11.08-0.16l2.38-1.58a0.48,0.48,0,0,1,.37,0l2.46,1a0.13,0.13,0,0,1,.08.16,0.08,0.08,0,0,1,0,.07,0.09,0.09,0,0,1,0,.08,0.09,0.09,0,0,1,0,.08,0.09,0.09,0,0,1,0,.08,0.08,0.08,0,0,1,0,.08,0.09,0.09,0,0,1,0,.08,0.08,0.08,0,0,1,0,.07,0.09,0.09,0,0,1,0,.08A0.1,0.1,0,0,1,76.39,185.41Z" style="fill: #314993"/>
              <path d="M109.13,209.9a0.07,0.07,0,0,1,0-.07,0.07,0.07,0,0,1,0-.08,0.07,0.07,0,0,1,0-.08,0.07,0.07,0,0,1,0-.08,0.07,0.07,0,0,1,0-.08,0.06,0.06,0,0,1,0-.07,0.07,0.07,0,0,1,0-.08,0.07,0.07,0,0,1,0-.08s0-.1.08-0.15l2.38-1.58a0.47,0.47,0,0,1,.37,0l2.46,1a0.13,0.13,0,0,1,.08.16,0.1,0.1,0,0,1,0,.07,0.11,0.11,0,0,1,0,.08,0.1,0.1,0,0,1,0,.07,0.11,0.11,0,0,1,0,.08,0.11,0.11,0,0,1,0,.08,0.1,0.1,0,0,1,0,.07,0.11,0.11,0,0,1,0,.08,0.11,0.11,0,0,1,0,.08,0.11,0.11,0,0,1-.05.13l-2.4,1.62a0.48,0.48,0,0,1-.37,0L109.17,210A0.07,0.07,0,0,1,109.13,209.9Z" style="fill: #314993"/>
              <path d="M112.68,207.33a0.06,0.06,0,0,1,0-.08,0.06,0.06,0,0,1,0-.08,0.06,0.06,0,0,1,0-.08,0.06,0.06,0,0,1,0-.08,0.06,0.06,0,0,1,0-.08,0.06,0.06,0,0,1,0-.07,0.06,0.06,0,0,1,0-.08,0.06,0.06,0,0,1,0-.08s0-.11.08-0.15l2.38-1.58a0.48,0.48,0,0,1,.37,0l2.46,1a0.13,0.13,0,0,1,.08.16,0.09,0.09,0,0,1,0,.08,0.09,0.09,0,0,1,0,.08,0.08,0.08,0,0,1,0,.07,0.09,0.09,0,0,1,0,.08,0.09,0.09,0,0,1,0,.08,0.08,0.08,0,0,1,0,.08,0.09,0.09,0,0,1,0,.08,0.09,0.09,0,0,1,0,.08,0.1,0.1,0,0,1-.05.13l-2.4,1.62a0.48,0.48,0,0,1-.37,0l-2.51-1.11A0.07,0.07,0,0,1,112.68,207.33Z" style="fill: #314993"/>
              <path d="M114.46,205.4l-2.4,1.62a0.48,0.48,0,0,1-.37,0L109.17,206a0.07,0.07,0,0,1,0-.11,0.07,0.07,0,0,1,0-.08,0.07,0.07,0,0,1,0-.08,0.07,0.07,0,0,1,0-.08,0.07,0.07,0,0,1,0-.08,0.07,0.07,0,0,1,0-.08,0.07,0.07,0,0,1,0-.08,0.07,0.07,0,0,1,0-.07,0.07,0.07,0,0,1,0-.08s0-.1.08-0.16l2.38-1.58a0.47,0.47,0,0,1,.37,0l2.46,1a0.13,0.13,0,0,1,.08.17,0.11,0.11,0,0,1,0,.08,0.1,0.1,0,0,1,0,.07,0.11,0.11,0,0,1,0,.08,0.11,0.11,0,0,1,0,.08,0.1,0.1,0,0,1,0,.07,0.11,0.11,0,0,1,0,.08,0.11,0.11,0,0,1,0,.08,0.11,0.11,0,0,1,0,.08A0.11,0.11,0,0,1,114.46,205.4Z" style="fill: #314993"/>
              <path d="M120.56,199.69a0.11,0.11,0,0,1-.06.13l-2.4,1.62a0.49,0.49,0,0,1-.37,0l-2.51-1.11a0.27,0.27,0,0,1,0-.18,0.07,0.07,0,0,1,0-.08,0.07,0.07,0,0,1,0-.08,0.07,0.07,0,0,1,0-.07,0.07,0.07,0,0,1,0-.08,0.07,0.07,0,0,1,0-.08,0.07,0.07,0,0,1,0-.07,0.07,0.07,0,0,1,0-.08s0-.1.08-0.16l2.38-1.58a0.5,0.5,0,0,1,.37,0l2.46,1a0.13,0.13,0,0,1,.09.16,0.16,0.16,0,0,1,0,.08,0.15,0.15,0,0,1,0,.07,0.16,0.16,0,0,1,0,.08,0.16,0.16,0,0,1,0,.08,0.15,0.15,0,0,1,0,.07,0.16,0.16,0,0,1,0,.08,0.16,0.16,0,0,1,0,.08A0.15,0.15,0,0,1,120.56,199.69Z" style="fill: #314993"/>
              <path d="M92.19,187.84a0.1,0.1,0,0,1-.06.13l-2.4,1.62a0.47,0.47,0,0,1-.37,0l-2.51-1.11a0.62,0.62,0,0,1,0-.26,0.07,0.07,0,0,1,0-.07,0.07,0.07,0,0,1,0-.08,0.07,0.07,0,0,1,0-.07,0.07,0.07,0,0,1,0-.08,0.07,0.07,0,0,1,0-.08,0.07,0.07,0,0,1,0-.08s0-.1.08-0.15l2.38-1.58a0.49,0.49,0,0,1,.37,0l2.46,1a0.13,0.13,0,0,1,.08.16,0.1,0.1,0,0,1,0,.08,0.09,0.09,0,0,1,0,.08,0.1,0.1,0,0,1,0,.08,0.1,0.1,0,0,1,0,.08,0.1,0.1,0,0,1,0,.08,0.1,0.1,0,0,1,0,.07,0.1,0.1,0,0,1,0,.08A0.09,0.09,0,0,1,92.19,187.84Z" style="fill: #314993"/>
              <path d="M78,181.92A0.1,0.1,0,0,1,78,182l-2.4,1.62a0.47,0.47,0,0,1-.37,0l-2.51-1.11a0.27,0.27,0,0,1,0-.18,0.07,0.07,0,0,1,0-.08,0.06,0.06,0,0,1,0-.07,0.07,0.07,0,0,1,0-.08,0.06,0.06,0,0,1,0-.07,0.07,0.07,0,0,1,0-.08,0.06,0.06,0,0,1,0-.08,0.06,0.06,0,0,1,0-.08s0-.1.08-0.15l2.38-1.58a0.5,0.5,0,0,1,.37,0l2.46,1a0.13,0.13,0,0,1,.08.16,0.08,0.08,0,0,1,0,.07,0.09,0.09,0,0,1,0,.08,0.09,0.09,0,0,1,0,.08,0.09,0.09,0,0,1,0,.08,0.09,0.09,0,0,1,0,.08,0.08,0.08,0,0,1,0,.07,0.09,0.09,0,0,1,0,.08A0.09,0.09,0,0,1,78,181.92Z" style="fill: #314993"/>
              <path d="M94.17,192.68a0.1,0.1,0,0,1-.06.13l-2.4,1.62a0.48,0.48,0,0,1-.37,0l-2.51-1.11a0.07,0.07,0,0,1,0-.11,0.06,0.06,0,0,1,0-.08,0.07,0.07,0,0,1,0-.08,0.06,0.06,0,0,1,0-.08,0.06,0.06,0,0,1,0-.08,0.06,0.06,0,0,1,0-.08,0.06,0.06,0,0,1,0-.08,0.06,0.06,0,0,1,0-.07,0.06,0.06,0,0,1,0-.08s0-.1.08-0.15l2.38-1.58a0.48,0.48,0,0,1,.37,0l2.46,1a0.13,0.13,0,0,1,.08.16,0.09,0.09,0,0,1,0,.08,0.08,0.08,0,0,1,0,.07,0.09,0.09,0,0,1,0,.08,0.09,0.09,0,0,1,0,.08,0.08,0.08,0,0,1,0,.08,0.09,0.09,0,0,1,0,.08,0.08,0.08,0,0,1,0,.08A0.08,0.08,0,0,1,94.17,192.68Z" style="fill: #314993"/>
              <path d="M87.08,189.72a0.1,0.1,0,0,1-.05.13l-2.4,1.62a0.48,0.48,0,0,1-.37,0l-2.51-1.11a0.07,0.07,0,0,1,0-.11,0.07,0.07,0,0,1,0-.08,0.07,0.07,0,0,1,0-.08,0.07,0.07,0,0,1,0-.08,0.07,0.07,0,0,1,0-.08,0.07,0.07,0,0,1,0-.07,0.07,0.07,0,0,1,0-.08,0.07,0.07,0,0,1,0-.08,0.07,0.07,0,0,1,0-.07s0-.11.08-0.16L84.17,188a0.48,0.48,0,0,1,.37,0L87,189a0.13,0.13,0,0,1,.09.16,0.09,0.09,0,0,1,0,.08,0.09,0.09,0,0,1,0,.08,0.09,0.09,0,0,1,0,.08,0.08,0.08,0,0,1,0,.07,0.09,0.09,0,0,1,0,.08,0.09,0.09,0,0,1,0,.08,0.08,0.08,0,0,1,0,.07A0.09,0.09,0,0,1,87.08,189.72Z" style="fill: #314993"/>
              <path d="M83.54,188.24a0.1,0.1,0,0,1-.05.13L81.08,190a0.48,0.48,0,0,1-.37,0l-2.51-1.11a0.07,0.07,0,0,1,0-.11,0.07,0.07,0,0,1,0-.08,0.07,0.07,0,0,1,0-.08,0.07,0.07,0,0,1,0-.08,0.07,0.07,0,0,1,0-.08,0.07,0.07,0,0,1,0-.08,0.07,0.07,0,0,1,0-.07,0.07,0.07,0,0,1,0-.08,0.07,0.07,0,0,1,0-.08s0-.11.09-0.15l2.38-1.58a0.47,0.47,0,0,1,.37,0l2.46,1a0.13,0.13,0,0,1,.08.16,0.09,0.09,0,0,1,0,.08,0.09,0.09,0,0,1,0,.08,0.09,0.09,0,0,1,0,.07,0.09,0.09,0,0,1,0,.08,0.09,0.09,0,0,1,0,.08,0.09,0.09,0,0,1,0,.07,0.09,0.09,0,0,1,0,.08A0.09,0.09,0,0,1,83.54,188.24Z" style="fill: #314993"/>
              <path d="M72.9,183.8a0.1,0.1,0,0,1-.05.13l-2.4,1.62a0.48,0.48,0,0,1-.37,0l-2.51-1.11a0.07,0.07,0,0,1,0-.11,0.06,0.06,0,0,1,0-.07,0.07,0.07,0,0,1,0-.08,0.06,0.06,0,0,1,0-.08,0.07,0.07,0,0,1,0-.08,0.06,0.06,0,0,1,0-.08,0.06,0.06,0,0,1,0-.07,0.07,0.07,0,0,1,0-.08,0.06,0.06,0,0,1,0-.07s0-.11.08-0.16L70,182a0.48,0.48,0,0,1,.37,0l2.46,1a0.13,0.13,0,0,1,.08.16,0.08,0.08,0,0,1,0,.08,0.08,0.08,0,0,1,0,.08,0.07,0.07,0,0,1,0,.07,0.08,0.08,0,0,1,0,.08,0.08,0.08,0,0,1,0,.08,0.08,0.08,0,0,1,0,.08,0.08,0.08,0,0,1,0,.07A0.08,0.08,0,0,1,72.9,183.8Z" style="fill: #314993"/>
              <path d="M103.82,211.17s0-.1.09-0.15l2.38-1.58a0.47,0.47,0,0,1,.37,0l2.46,1a0.13,0.13,0,0,1,.08.16,0.08,0.08,0,0,1,0,.07,0.09,0.09,0,0,1,0,.08,0.09,0.09,0,0,1,0,.08,0.08,0.08,0,0,1,0,.08,0.09,0.09,0,0,1,0,.08,0.09,0.09,0,0,1,0,.08,0.09,0.09,0,0,1,0,.08,0.08,0.08,0,0,1,0,.08,0.1,0.1,0,0,1-.05.13l-2.4,1.62a0.48,0.48,0,0,1-.37,0l-2.51-1.11a0.07,0.07,0,0,1,0-.11,0.07,0.07,0,0,1,0-.07,0.07,0.07,0,0,1,0-.08,0.07,0.07,0,0,1,0-.07,0.07,0.07,0,0,1,0-.08,0.08,0.08,0,0,1,0-.08,0.07,0.07,0,0,1,0-.08,0.07,0.07,0,0,1,0-.08A0.07,0.07,0,0,1,103.82,211.17Z" style="fill: #314993"/>
              <path d="M93.19,206.73s0-.11.08-0.15L95.65,205a0.48,0.48,0,0,1,.37,0l2.46,1a0.13,0.13,0,0,1,.08.16,0.08,0.08,0,0,1,0,.08,0.08,0.08,0,0,1,0,.08,0.08,0.08,0,0,1,0,.07,0.08,0.08,0,0,1,0,.08,0.08,0.08,0,0,1,0,.08,0.08,0.08,0,0,1,0,.08,0.08,0.08,0,0,1,0,.08,0.08,0.08,0,0,1,0,.08,0.1,0.1,0,0,1-.05.13l-2.4,1.62a0.49,0.49,0,0,1-.37,0l-2.51-1.11a0.07,0.07,0,0,1,0-.11,0.06,0.06,0,0,1,0-.08,0.06,0.06,0,0,1,0-.08,0.06,0.06,0,0,1,0-.08,0.06,0.06,0,0,1,0-.08,0.06,0.06,0,0,1,0-.08,0.06,0.06,0,0,1,0-.07,0.06,0.06,0,0,1,0-.08A0.06,0.06,0,0,1,93.19,206.73Z" style="fill: #314993"/>
              <path d="M68.44,196.36s0-.1.08-0.16l2.38-1.58a0.48,0.48,0,0,1,.37,0l23.67,9.93a0.13,0.13,0,0,1,.08.17,0.1,0.1,0,0,1,0,.08,0.09,0.09,0,0,1,0,.07,0.1,0.1,0,0,1,0,.08,0.1,0.1,0,0,1,0,.08,0.1,0.1,0,0,1,0,.07,0.1,0.1,0,0,1,0,.08,0.1,0.1,0,0,1,0,.08,0.1,0.1,0,0,1,0,.08,0.1,0.1,0,0,1-.06.13L92.56,207a0.47,0.47,0,0,1-.37,0l-23.71-10a0.07,0.07,0,0,1,0-.11,0.07,0.07,0,0,1,0-.07,0.07,0.07,0,0,1,0-.08,0.07,0.07,0,0,1,0-.08,0.07,0.07,0,0,1,0-.08,0.07,0.07,0,0,1,0-.08,0.07,0.07,0,0,1,0-.08,0.07,0.07,0,0,1,0-.08A0.07,0.07,0,0,1,68.44,196.36Z" style="fill: #314993"/>
              <path d="M64.82,194.88s0-.1.08-0.15l2.38-1.58a0.49,0.49,0,0,1,.37,0l2.46,1a0.13,0.13,0,0,1,.08.16,0.1,0.1,0,0,1,0,.08,0.09,0.09,0,0,1,0,.08,0.09,0.09,0,0,1,0,.08,0.09,0.09,0,0,1,0,.08,0.09,0.09,0,0,1,0,.08,0.09,0.09,0,0,1,0,.07,0.1,0.1,0,0,1,0,.08,0.09,0.09,0,0,1,0,.08,0.1,0.1,0,0,1-.05.13l-2.4,1.62a0.47,0.47,0,0,1-.37,0l-2.51-1.11a0.07,0.07,0,0,1,0-.11,3,3,0,0,0,0-.15,0.07,0.07,0,0,1,0-.08,0.06,0.06,0,0,1,0-.08,0.07,0.07,0,0,1,0-.08,0.06,0.06,0,0,1,0-.07,0.07,0.07,0,0,1,0-.08A0.07,0.07,0,0,1,64.82,194.88Z" style="fill: #314993"/>
              <path d="M54.19,190.43s0-.11.08-0.16l2.38-1.58a0.47,0.47,0,0,1,.37,0l2.46,1a0.12,0.12,0,0,1,.08.16,0.09,0.09,0,0,1,0,.08,3,3,0,0,0,0,.15,0.08,0.08,0,0,1,0,.07,0.09,0.09,0,0,1,0,.08,0.08,0.08,0,0,1,0,.08,1.52,1.52,0,0,1,0,.15,0.1,0.1,0,0,1-.05.13l-2.4,1.62a0.47,0.47,0,0,1-.37,0l-2.51-1.11a0.07,0.07,0,0,1,0-.11,0.07,0.07,0,0,1,0-.07,0.07,0.07,0,0,1,0-.08,0.07,0.07,0,0,1,0-.08,0.06,0.06,0,0,1,0-.08,0.07,0.07,0,0,1,0-.08,0.07,0.07,0,0,1,0-.08,0.06,0.06,0,0,1,0-.08A0.07,0.07,0,0,1,54.19,190.43Z" style="fill: #314993"/>
              <path d="M84.32,198.92s0-.1.08-0.16l2.38-1.58a0.48,0.48,0,0,1,.37,0l2.46,1a0.13,0.13,0,0,1,.08.16,0.09,0.09,0,0,1,0,.07,0.09,0.09,0,0,1,0,.08,0.09,0.09,0,0,1,0,.08,0.09,0.09,0,0,1,0,.08,0.09,0.09,0,0,1,0,.08,0.09,0.09,0,0,1,0,.08,0.09,0.09,0,0,1,0,.08,0.09,0.09,0,0,1,0,.08,0.1,0.1,0,0,1-.06.13l-2.4,1.62a0.48,0.48,0,0,1-.37,0l-2.51-1.11a0.07,0.07,0,0,1,0-.11,0.07,0.07,0,0,1,0-.08,0.07,0.07,0,0,1,0-.08,0.07,0.07,0,0,1,0-.08,0.07,0.07,0,0,1,0-.08,0.07,0.07,0,0,1,0-.08,0.07,0.07,0,0,1,0-.08,0.07,0.07,0,0,1,0-.08A0.07,0.07,0,0,1,84.32,198.92Z" style="fill: #314993"/>
              <path d="M63,190s0-.1.08-0.16l2.38-1.58a0.48,0.48,0,0,1,.37,0l2.46,1a0.13,0.13,0,0,1,.09.16,0.11,0.11,0,0,1,0,.08,0.11,0.11,0,0,1,0,.08,0.1,0.1,0,0,1,0,.07,0.11,0.11,0,0,1,0,.08,0.11,0.11,0,0,1,0,.08,0.1,0.1,0,0,1,0,.07,0.11,0.11,0,0,1,0,.08,0.11,0.11,0,0,1,0,.08,0.1,0.1,0,0,1-.06.13L66,191.81a0.48,0.48,0,0,1-.37,0l-2.51-1.11a0.07,0.07,0,0,1,0-.11,0.07,0.07,0,0,1,0-.08,0.06,0.06,0,0,1,0-.07,0.07,0.07,0,0,1,0-.08,0.06,0.06,0,0,1,0-.07,0.07,0.07,0,0,1,0-.08,0.06,0.06,0,0,1,0-.07,0.07,0.07,0,0,1,0-.08A0.07,0.07,0,0,1,63,190Z" style="fill: #314993"/>
              <path d="M84.32,194.88s0-.1.08-0.15l2.38-1.58a0.49,0.49,0,0,1,.37,0l2.46,1a0.13,0.13,0,0,1,.08.16,0.09,0.09,0,0,1,0,.08,0.09,0.09,0,0,1,0,.08,0.09,0.09,0,0,1,0,.08,0.09,0.09,0,0,1,0,.08,0.09,0.09,0,0,1,0,.08,0.09,0.09,0,0,1,0,.07,0.1,0.1,0,0,1,0,.08,0.09,0.09,0,0,1,0,.08,0.1,0.1,0,0,1-.06.13l-2.4,1.62a0.47,0.47,0,0,1-.37,0l-2.51-1.11a0.07,0.07,0,0,1,0-.11,0.07,0.07,0,0,1,0-.08,0.07,0.07,0,0,1,0-.07,0.07,0.07,0,0,1,0-.08,0.07,0.07,0,0,1,0-.08,0.07,0.07,0,0,1,0-.08,0.06,0.06,0,0,1,0-.07,0.07,0.07,0,0,1,0-.08A0.07,0.07,0,0,1,84.32,194.88Z" style="fill: #314993"/>
              <path d="M100.36,209.53l2.38-1.58a0.48,0.48,0,0,1,.37,0l2.46,1a0.13,0.13,0,0,1,.09.16,0.08,0.08,0,0,1,0,.07,0.09,0.09,0,0,1,0,.08,0.09,0.09,0,0,1,0,.08,0.08,0.08,0,0,1,0,.07,0.09,0.09,0,0,1,0,.08,0.09,0.09,0,0,1,0,.08,0.08,0.08,0,0,1,0,.07,0.09,0.09,0,0,1,0,.08,0.1,0.1,0,0,1-.05.13l-2.4,1.62a0.48,0.48,0,0,1-.37,0l-2.51-1.11a0.07,0.07,0,0,1,0-.11,0.07,0.07,0,0,1,0-.07,0.07,0.07,0,0,1,0-.08,0.07,0.07,0,0,1,0-.08,0.07,0.07,0,0,1,0-.08,0.07,0.07,0,0,1,0-.08,0.07,0.07,0,0,1,0-.08,0.07,0.07,0,0,1,0-.08,0.07,0.07,0,0,1,0-.08S100.27,209.58,100.36,209.53Z" style="fill: #314993"/>
              <path d="M96.81,208.05l2.38-1.58a0.49,0.49,0,0,1,.37,0l2.46,1a0.13,0.13,0,0,1,.08.16,0.09,0.09,0,0,1,0,.08,0.09,0.09,0,0,1,0,.08,0.1,0.1,0,0,1,0,.08,0.08,0.08,0,0,1,0,.07,0.09,0.09,0,0,1,0,.08,0.09,0.09,0,0,1,0,.08,0.08,0.08,0,0,1,0,.07,0.08,0.08,0,0,1,0,.08,0.1,0.1,0,0,1-.05.13L99.65,210a0.47,0.47,0,0,1-.37,0l-2.51-1.11a0.07,0.07,0,0,1,0-.11,0.07,0.07,0,0,1,0-.08,0.07,0.07,0,0,1,0-.08,0.07,0.07,0,0,1,0-.08,0.07,0.07,0,0,1,0-.08,0.07,0.07,0,0,1,0-.07,0.07,0.07,0,0,1,0-.08,0.07,0.07,0,0,1,0-.08,0.07,0.07,0,0,1,0-.08S96.72,208.1,96.81,208.05Z" style="fill: #314993"/>
              <path d="M61.36,193.24l2.38-1.58a0.47,0.47,0,0,1,.36,0l2.46,1a0.13,0.13,0,0,1,.08.16,0.08,0.08,0,0,1,0,.08,0.08,0.08,0,0,1,0,.08,0.08,0.08,0,0,1,0,.08,0.08,0.08,0,0,1,0,.08,0.08,0.08,0,0,1,0,.07,0.08,0.08,0,0,1,0,.08,0.08,0.08,0,0,1,0,.08,0.08,0.08,0,0,1,0,.08,0.1,0.1,0,0,1-.05.13l-2.4,1.62a0.48,0.48,0,0,1-.37,0l-2.51-1.11a0.07,0.07,0,0,1,0-.11,0.07,0.07,0,0,1,0-.08,0.07,0.07,0,0,1,0-.08,0.07,0.07,0,0,1,0-.08,0.06,0.06,0,0,1,0-.07,0.07,0.07,0,0,1,0-.08,0.06,0.06,0,0,1,0-.08,0.06,0.06,0,0,1,0-.07,0.06,0.06,0,0,1,0-.08S61.27,193.29,61.36,193.24Z" style="fill: #314993"/>
              <path d="M57.82,191.76l2.38-1.58a0.48,0.48,0,0,1,.37,0l2.46,1a0.13,0.13,0,0,1,.08.16,0.08,0.08,0,0,1,0,.07,0.09,0.09,0,0,1,0,.08,0.08,0.08,0,0,1,0,.07,0.09,0.09,0,0,1,0,.08,0.08,0.08,0,0,1,0,.07,0.09,0.09,0,0,1,0,.08,0.08,0.08,0,0,1,0,.08,0.09,0.09,0,0,1,0,.08,0.1,0.1,0,0,1-.05.13l-2.4,1.62a0.47,0.47,0,0,1-.37,0l-2.51-1.11a0.07,0.07,0,0,1,0-.11,0.06,0.06,0,0,1,0-.08,0.06,0.06,0,0,1,0-.08,0.06,0.06,0,0,1,0-.08,0.06,0.06,0,0,1,0-.08,0.06,0.06,0,0,1,0-.08,0.06,0.06,0,0,1,0-.08,0.06,0.06,0,0,1,0-.07,0.06,0.06,0,0,1,0-.08S57.73,191.81,57.82,191.76Z" style="fill: #314993"/>
              <path d="M69.37,181.71a0.1,0.1,0,0,1,0,.08,0.1,0.1,0,0,1,0,.07,0.1,0.1,0,0,1,0,.08,0.1,0.1,0,0,1,0,.07,0.1,0.1,0,0,1,0,.08,0.1,0.1,0,0,1,0,.08,0.1,0.1,0,0,1,0,.08,0.1,0.1,0,0,1,0,.08,0.1,0.1,0,0,1-.06.13l-2.4,1.62a0.49,0.49,0,0,1-.37,0L64,183a0.07,0.07,0,0,1,0-.11,0.06,0.06,0,0,1,0-.07,0.07,0.07,0,0,1,0-.08,0.07,0.07,0,0,1,0-.08,0.07,0.07,0,0,1,0-.08,0.07,0.07,0,0,1,0-.07,0.07,0.07,0,0,1,0-.08,0.07,0.07,0,0,1,0-.08,0.07,0.07,0,0,1,0-.08s0-.1.08-0.15l2.38-1.58a0.49,0.49,0,0,1,.37-0.05l2.46,1A0.13,0.13,0,0,1,69.37,181.71Z" style="fill: #314993"/>
              <path d="M105.67,207.66l2.38-1.58a0.48,0.48,0,0,1,.37,0l2.46,1a0.13,0.13,0,0,1,.08.16,0.1,0.1,0,0,1,0,.08,0.1,0.1,0,0,1,0,.07,0.11,0.11,0,0,1,0,.08,0.1,0.1,0,0,1,0,.07,0.1,0.1,0,0,1,0,.08,0.1,0.1,0,0,1,0,.07,0.1,0.1,0,0,1,0,.08,0.1,0.1,0,0,1,0,.08,0.1,0.1,0,0,1-.06.13l-2.4,1.62a0.47,0.47,0,0,1-.37,0l-2.51-1.11a0.07,0.07,0,0,1,0-.11,0.06,0.06,0,0,1,0-.08,0.06,0.06,0,0,1,0-.08,0.06,0.06,0,0,1,0-.08,0.06,0.06,0,0,1,0-.08,0.06,0.06,0,0,1,0-.08,0.06,0.06,0,0,1,0-.07,0.06,0.06,0,0,1,0-.08,0.06,0.06,0,0,1,0-.08S105.58,207.71,105.67,207.66Z" style="fill: #314993"/>
              <path d="M102.13,206.17l2.38-1.58a0.48,0.48,0,0,1,.37,0l2.46,1a0.13,0.13,0,0,1,.08.16,0.09,0.09,0,0,1,0,.08,0.08,0.08,0,0,1,0,.07,0.09,0.09,0,0,1,0,.08,0.09,0.09,0,0,1,0,.08,0.08,0.08,0,0,1,0,.08,0.09,0.09,0,0,1,0,.08,0.09,0.09,0,0,1,0,.08,0.09,0.09,0,0,1,0,.08,0.1,0.1,0,0,1-.05.13l-2.4,1.62a0.48,0.48,0,0,1-.37,0L102.08,207a0.07,0.07,0,0,1,0-.11,0.07,0.07,0,0,1,0-.08,0.07,0.07,0,0,1,0-.08,0.07,0.07,0,0,1,0-.08,0.07,0.07,0,0,1,0-.08,0.07,0.07,0,0,1,0-.08,0.07,0.07,0,0,1,0-.08,0.07,0.07,0,0,1,0-.07,0.07,0.07,0,0,1,0-.08S102,206.23,102.13,206.17Z" style="fill: #314993"/>
              <path d="M98.58,204.69l2.38-1.58a0.48,0.48,0,0,1,.37,0l2.46,1a0.13,0.13,0,0,1,.08.16,0.09,0.09,0,0,1,0,.08,0.09,0.09,0,0,1,0,.08,0.09,0.09,0,0,1,0,.08,0.09,0.09,0,0,1,0,.08,0.09,0.09,0,0,1,0,.07,0.09,0.09,0,0,1,0,.08,0.09,0.09,0,0,1,0,.07,0.09,0.09,0,0,1,0,.08,0.1,0.1,0,0,1-.05.13l-2.4,1.62a0.48,0.48,0,0,1-.37,0l-2.51-1.11a0.07,0.07,0,0,1,0-.11,0.06,0.06,0,0,1,0-.07,0.06,0.06,0,0,1,0-.08,0.06,0.06,0,0,1,0-.08,0.06,0.06,0,0,1,0-.07,0.06,0.06,0,0,1,0-.08,0.06,0.06,0,0,1,0-.08,0.06,0.06,0,0,1,0-.08,0.06,0.06,0,0,1,0-.08S98.49,204.74,98.58,204.69Z" style="fill: #314993"/>
              <path d="M95,203.21l2.38-1.58a0.48,0.48,0,0,1,.37,0l2.46,1a0.13,0.13,0,0,1,.09.16,0.11,0.11,0,0,1,0,.08,0.11,0.11,0,0,1,0,.08,0.11,0.11,0,0,1,0,.08,0.1,0.1,0,0,1,0,.07,0.11,0.11,0,0,1,0,.08,0.11,0.11,0,0,1,0,.08,0.1,0.1,0,0,1,0,.07,0.11,0.11,0,0,1,0,.08,0.1,0.1,0,0,1-.06.13l-2.4,1.62a0.48,0.48,0,0,1-.37,0L95,204.08a0.07,0.07,0,0,1,0-.11,0.07,0.07,0,0,1,0-.07,0.07,0.07,0,0,1,0-.08,0.07,0.07,0,0,1,0-.08,0.07,0.07,0,0,1,0-.08,0.07,0.07,0,0,1,0-.07,0.07,0.07,0,0,1,0-.08,0.07,0.07,0,0,1,0-.08,0.07,0.07,0,0,1,0-.08S94.95,203.26,95,203.21Z" style="fill: #314993"/>
              <path d="M91.49,201.73l2.38-1.58a0.48,0.48,0,0,1,.37,0l2.46,1a0.13,0.13,0,0,1,.08.16,0.09,0.09,0,0,1,0,.07,0.1,0.1,0,0,1,0,.08,0.09,0.09,0,0,1,0,.08,0.09,0.09,0,0,1,0,.08,0.09,0.09,0,0,1,0,.08,0.09,0.09,0,0,1,0,.07,0.09,0.09,0,0,1,0,.08,0.09,0.09,0,0,1,0,.08,0.1,0.1,0,0,1-.06.13l-2.4,1.62a0.48,0.48,0,0,1-.37,0l-2.51-1.11a0.07,0.07,0,0,1,0-.11,0.06,0.06,0,0,1,0-.08,0.06,0.06,0,0,1,0-.08,0.06,0.06,0,0,1,0-.08,0.06,0.06,0,0,1,0-.08,0.06,0.06,0,0,1,0-.08,0.06,0.06,0,0,1,0-.07,0.06,0.06,0,0,1,0-.08,0.06,0.06,0,0,1,0-.08S91.4,201.78,91.49,201.73Z" style="fill: #314993"/>
              <path d="M87.94,200.25l2.38-1.58a0.47,0.47,0,0,1,.37,0l2.46,1a0.13,0.13,0,0,1,.08.16,0.1,0.1,0,0,1,0,.08,0.09,0.09,0,0,1,0,.08,0.09,0.09,0,0,1,0,.08,0.1,0.1,0,0,1,0,.08,0.09,0.09,0,0,1,0,.07,0.09,0.09,0,0,1,0,.08,0.09,0.09,0,0,1,0,.08,0.09,0.09,0,0,1,0,.07,0.1,0.1,0,0,1-.05.13l-2.4,1.62a0.48,0.48,0,0,1-.37,0l-2.51-1.11a0.07,0.07,0,0,1,0-.11,0.07,0.07,0,0,1,0-.08,0.07,0.07,0,0,1,0-.07,0.07,0.07,0,0,1,0-.08,0.07,0.07,0,0,1,0-.08,0.07,0.07,0,0,1,0-.08,0.07,0.07,0,0,1,0-.07,0.07,0.07,0,0,1,0-.08,0.07,0.07,0,0,1,0-.08S87.86,200.3,87.94,200.25Z" style="fill: #314993"/>
              <path d="M80.86,197.29l2.38-1.58a0.47,0.47,0,0,1,.37,0l2.46,1a0.13,0.13,0,0,1,.08.16,0.09,0.09,0,0,1,0,.08,0.09,0.09,0,0,1,0,.08,0.08,0.08,0,0,1,0,.07,0.09,0.09,0,0,1,0,.08,0.09,0.09,0,0,1,0,.08,0.09,0.09,0,0,1,0,.08,0.09,0.09,0,0,1,0,.08,0.08,0.08,0,0,1,0,.07,0.1,0.1,0,0,1-.05.13l-2.4,1.62a0.47,0.47,0,0,1-.37,0l-2.51-1.11a0.07,0.07,0,0,1,0-.11,0.06,0.06,0,0,1,0-.07,0.06,0.06,0,0,1,0-.08,0.06,0.06,0,0,1,0-.08,0.06,0.06,0,0,1,0-.08,0.06,0.06,0,0,1,0-.07,0.06,0.06,0,0,1,0-.08,0.06,0.06,0,0,1,0-.08,0.06,0.06,0,0,1,0-.07S80.77,197.34,80.86,197.29Z" style="fill: #314993"/>
              <path d="M77.31,195.81l2.38-1.58a0.48,0.48,0,0,1,.37,0l2.46,1a0.13,0.13,0,0,1,.08.16,0.09,0.09,0,0,1,0,.08,0.09,0.09,0,0,1,0,.08,0.09,0.09,0,0,1,0,.08,0.09,0.09,0,0,1,0,.08,0.09,0.09,0,0,1,0,.08,0.09,0.09,0,0,1,0,.07,0.09,0.09,0,0,1,0,.08,0.09,0.09,0,0,1,0,.08,0.1,0.1,0,0,1-.06.13l-2.4,1.62a0.48,0.48,0,0,1-.37,0l-2.51-1.11a0.07,0.07,0,0,1,0-.11,0.07,0.07,0,0,1,0-.08,0.07,0.07,0,0,1,0-.08,0.07,0.07,0,0,1,0-.07,0.07,0.07,0,0,1,0-.08,0.07,0.07,0,0,1,0-.08,0.07,0.07,0,0,1,0-.07,0.07,0.07,0,0,1,0-.08,0.07,0.07,0,0,1,0-.08S77.22,195.86,77.31,195.81Z" style="fill: #314993"/>
              <path d="M73.76,194.33l2.38-1.58a0.47,0.47,0,0,1,.37,0l2.46,1a0.13,0.13,0,0,1,.08.16,0.09,0.09,0,0,1,0,.08,0.09,0.09,0,0,1,0,.07,0.09,0.09,0,0,1,0,.08,0.1,0.1,0,0,1,0,.08,0.09,0.09,0,0,1,0,.07,0.09,0.09,0,0,1,0,.08,0.09,0.09,0,0,1,0,.08,0.09,0.09,0,0,1,0,.08,0.1,0.1,0,0,1-.05.13l-2.41,1.62a0.48,0.48,0,0,1-.37,0l-2.51-1.11a0.07,0.07,0,0,1,0-.11,0.06,0.06,0,0,1,0-.08,0.06,0.06,0,0,1,0-.08,0.06,0.06,0,0,1,0-.08,0.06,0.06,0,0,1,0-.08,0.06,0.06,0,0,1,0-.08,0.06,0.06,0,0,1,0-.08,0.06,0.06,0,0,1,0-.08,0.06,0.06,0,0,1,0-.08S73.68,194.38,73.76,194.33Z" style="fill: #314993"/>
              <path d="M70.22,192.84l2.38-1.58a0.5,0.5,0,0,1,.37,0l2.46,1a0.13,0.13,0,0,1,.08.16,0.09,0.09,0,0,1,0,.08,0.09,0.09,0,0,1,0,.07,0.09,0.09,0,0,1,0,.08,0.09,0.09,0,0,1,0,.08,0.09,0.09,0,0,1,0,.07,0.09,0.09,0,0,1,0,.08,0.09,0.09,0,0,1,0,.08,0.09,0.09,0,0,1,0,.07,0.1,0.1,0,0,1-.05.13l-2.4,1.62a0.49,0.49,0,0,1-.37,0l-2.51-1.11a0.27,0.27,0,0,1,0-.18,0.07,0.07,0,0,1,0-.08,0.07,0.07,0,0,1,0-.07,0.07,0.07,0,0,1,0-.08,0.07,0.07,0,0,1,0-.08,0.07,0.07,0,0,1,0-.08,0.07,0.07,0,0,1,0-.08,0.07,0.07,0,0,1,0-.08S70.13,192.89,70.22,192.84Z" style="fill: #314993"/>
              <path d="M66.67,191.36l2.38-1.58a0.48,0.48,0,0,1,.37,0l2.46,1a0.13,0.13,0,0,1,.09.16,0.1,0.1,0,0,1,0,.07,0.11,0.11,0,0,1,0,.08,0.11,0.11,0,0,1,0,.08,0.11,0.11,0,0,1,0,.08,0.11,0.11,0,0,1,0,.08,0.11,0.11,0,0,1,0,.08,0.11,0.11,0,0,1,0,.08,0.11,0.11,0,0,1,0,.08,0.1,0.1,0,0,1-.06.13l-2.4,1.62a0.48,0.48,0,0,1-.37,0l-2.51-1.11a0.07,0.07,0,0,1,0-.11,0.06,0.06,0,0,1,0-.07,0.06,0.06,0,0,1,0-.08,0.06,0.06,0,0,1,0-.08,0.06,0.06,0,0,1,0-.08,0.06,0.06,0,0,1,0-.08,0.06,0.06,0,0,1,0-.08,0.06,0.06,0,0,1,0-.08,0.06,0.06,0,0,1,0-.08S66.58,191.41,66.67,191.36Z" style="fill: #314993"/>
              <path d="M59.58,188.4L62,186.82a0.48,0.48,0,0,1,.37,0l2.46,1a0.13,0.13,0,0,1,.08.16,0.09,0.09,0,0,1,0,.08,0.09,0.09,0,0,1,0,.08,0.09,0.09,0,0,1,0,.07,0.1,0.1,0,0,1,0,.08,0.09,0.09,0,0,1,0,.07,0.09,0.09,0,0,1,0,.08,0.1,0.1,0,0,1,0,.08,0.09,0.09,0,0,1,0,.08,0.1,0.1,0,0,1-.05.13l-2.4,1.62a0.47,0.47,0,0,1-.37,0l-2.51-1.11a0.07,0.07,0,0,1,0-.11,0.06,0.06,0,0,1,0-.08,0.06,0.06,0,0,1,0-.07,0.06,0.06,0,0,1,0-.08,0.06,0.06,0,0,1,0-.08,0.06,0.06,0,0,1,0-.08,0.06,0.06,0,0,1,0-.08,0.06,0.06,0,0,1,0-.07,0.06,0.06,0,0,1,0-.08S59.49,188.45,59.58,188.4Z" style="fill: #314993"/>
              <path d="M61.34,186.5a0.09,0.09,0,0,1,0,.08,0.08,0.08,0,0,1,0,.07,0.09,0.09,0,0,1,0,.08,0.09,0.09,0,0,1,0,.08,0.08,0.08,0,0,1,0,.07,0.09,0.09,0,0,1,0,.08,0.09,0.09,0,0,1,0,.08,0.08,0.08,0,0,1,0,.07,0.1,0.1,0,0,1-.05.13l-2.4,1.62a0.49,0.49,0,0,1-.37,0L56,187.79a0.07,0.07,0,0,1,0-.11,0.08,0.08,0,0,1,0-.08,0.08,0.08,0,0,1,0-.08,0.07,0.07,0,0,1,0-.08,0.07,0.07,0,0,1,0-.08,0.08,0.08,0,0,1,0-.08,0.08,0.08,0,0,1,0-.08,0.07,0.07,0,0,1,0-.07,0.08,0.08,0,0,1,0-.08s0-.11.08-0.16l2.38-1.58a0.49,0.49,0,0,1,.37,0l2.46,1A0.13,0.13,0,0,1,61.34,186.5Z" style="fill: #314993"/>
              <path d="M105.67,203.61l2.38-1.58a0.48,0.48,0,0,1,.37,0l2.46,1a0.13,0.13,0,0,1,.08.16,0.1,0.1,0,0,1,0,.07,0.1,0.1,0,0,1,0,.08,0.1,0.1,0,0,1,0,.07,0.1,0.1,0,0,1,0,.08,0.1,0.1,0,0,1,0,.08,0.1,0.1,0,0,1,0,.08,0.09,0.09,0,0,1,0,.07,0.11,0.11,0,0,1,0,.08,0.1,0.1,0,0,1-.06.13l-2.4,1.62a0.48,0.48,0,0,1-.37,0l-2.51-1.11a0.07,0.07,0,0,1,0-.11,0.06,0.06,0,0,1,0-.08,0.06,0.06,0,0,1,0-.08,0.06,0.06,0,0,1,0-.08,0.06,0.06,0,0,1,0-.08,0.06,0.06,0,0,1,0-.08,0.06,0.06,0,0,1,0-.08,0.06,0.06,0,0,1,0-.07,0.06,0.06,0,0,1,0-.08S105.58,203.66,105.67,203.61Z" style="fill: #314993"/>
              <path d="M102.13,202.13l2.38-1.58a0.49,0.49,0,0,1,.37,0l2.46,1a0.13,0.13,0,0,1,.08.16,0.08,0.08,0,0,1,0,.08,0.09,0.09,0,0,1,0,.08,0.08,0.08,0,0,1,0,.08,0.09,0.09,0,0,1,0,.08,0.09,0.09,0,0,1,0,.08,0.1,0.1,0,0,1,0,.08,0.08,0.08,0,0,1,0,.07,0.09,0.09,0,0,1,0,.08,0.1,0.1,0,0,1-.05.13l-2.4,1.62a0.48,0.48,0,0,1-.37,0L102.08,203a0.07,0.07,0,0,1,0-.11,0.07,0.07,0,0,1,0-.07,0.07,0.07,0,0,1,0-.08,0.07,0.07,0,0,1,0-.08,0.07,0.07,0,0,1,0-.08,0.07,0.07,0,0,1,0-.08,0.07,0.07,0,0,1,0-.08,0.07,0.07,0,0,1,0-.08,0.07,0.07,0,0,1,0-.07S102,202.18,102.13,202.13Z" style="fill: #314993"/>
              <path d="M98.58,200.65l2.38-1.58a0.48,0.48,0,0,1,.37,0l2.46,1a0.13,0.13,0,0,1,.08.16,0.09,0.09,0,0,1,0,.08,0.09,0.09,0,0,1,0,.08,0.09,0.09,0,0,1,0,.08,0.09,0.09,0,0,1,0,.08,0.09,0.09,0,0,1,0,.08,0.09,0.09,0,0,1,0,.07,0.1,0.1,0,0,1,0,.08,0.09,0.09,0,0,1,0,.08,0.1,0.1,0,0,1-.05.13l-2.4,1.62a0.48,0.48,0,0,1-.37,0l-2.51-1.11a0.07,0.07,0,0,1,0-.11,0.06,0.06,0,0,1,0-.08,0.06,0.06,0,0,1,0-.08,0.06,0.06,0,0,1,0-.07,0.06,0.06,0,0,1,0-.08,0.06,0.06,0,0,1,0-.08,0.06,0.06,0,0,1,0-.07,0.06,0.06,0,0,1,0-.08,0.06,0.06,0,0,1,0-.08S98.49,200.7,98.58,200.65Z" style="fill: #314993"/>
              <path d="M95,199.17l2.38-1.58a0.48,0.48,0,0,1,.37,0l2.46,1a0.13,0.13,0,0,1,.09.16,0.11,0.11,0,0,1,0,.08,0.1,0.1,0,0,1,0,.07,0.11,0.11,0,0,1,0,.08,0.11,0.11,0,0,1,0,.08,0.1,0.1,0,0,1,0,.07,0.11,0.11,0,0,1,0,.08,0.11,0.11,0,0,1,0,.08,0.11,0.11,0,0,1,0,.08,0.1,0.1,0,0,1-.06.13l-2.4,1.62a0.47,0.47,0,0,1-.37,0L95,200a0.07,0.07,0,0,1,0-.11,0.07,0.07,0,0,1,0-.07,0.07,0.07,0,0,1,0-.08,0.07,0.07,0,0,1,0-.08,0.07,0.07,0,0,1,0-.07,0.07,0.07,0,0,1,0-.08,0.07,0.07,0,0,1,0-.08,0.07,0.07,0,0,1,0-.07,0.07,0.07,0,0,1,0-.08S94.95,199.21,95,199.17Z" style="fill: #314993"/>
              <path d="M91.49,197.68l2.38-1.58a0.48,0.48,0,0,1,.37,0l2.46,1a0.13,0.13,0,0,1,.08.16,0.09,0.09,0,0,1,0,.08,0.1,0.1,0,0,1,0,.08,0.09,0.09,0,0,1,0,.08,0.09,0.09,0,0,1,0,.07,0.09,0.09,0,0,1,0,.08,0.09,0.09,0,0,1,0,.08,0.1,0.1,0,0,1,0,.08,0.09,0.09,0,0,1,0,.07,0.1,0.1,0,0,1-.06.13l-2.4,1.62a0.46,0.46,0,0,1-.37,0l-2.51-1.11a0.07,0.07,0,0,1,0-.11,0.06,0.06,0,0,1,0-.07,0.06,0.06,0,0,1,0-.08,0.06,0.06,0,0,1,0-.08,0.06,0.06,0,0,1,0-.08,0.06,0.06,0,0,1,0-.08,0.06,0.06,0,0,1,0-.08,0.06,0.06,0,0,1,0-.07,0.06,0.06,0,0,1,0-.08S91.4,197.73,91.49,197.68Z" style="fill: #314993"/>
              <path d="M87.94,196.2l2.38-1.58a0.48,0.48,0,0,1,.37,0l2.46,1a0.13,0.13,0,0,1,.08.16,0.1,0.1,0,0,1,0,.08,0.09,0.09,0,0,1,0,.08,0.09,0.09,0,0,1,0,.08,0.09,0.09,0,0,1,0,.07,0.09,0.09,0,0,1,0,.08,0.09,0.09,0,0,1,0,.08,0.09,0.09,0,0,1,0,.08,0.09,0.09,0,0,1,0,.08,0.1,0.1,0,0,1-.05.13l-2.4,1.62a0.47,0.47,0,0,1-.37,0l-2.51-1.11a0.07,0.07,0,0,1,0-.11,0.07,0.07,0,0,1,0-.07,0.07,0.07,0,0,1,0-.08,0.07,0.07,0,0,1,0-.08,0.07,0.07,0,0,1,0-.08,0.07,0.07,0,0,1,0-.08,0.07,0.07,0,0,1,0-.08,0.07,0.07,0,0,1,0-.08,0.07,0.07,0,0,1,0-.07S87.86,196.25,87.94,196.2Z" style="fill: #314993"/>
              <path d="M80.86,193.24l2.38-1.58a0.48,0.48,0,0,1,.37,0l2.46,1a0.13,0.13,0,0,1,.08.16,0.09,0.09,0,0,1,0,.08,0.08,0.08,0,0,1,0,.08,0.09,0.09,0,0,1,0,.08,0.09,0.09,0,0,1,0,.08,0.08,0.08,0,0,1,0,.07,0.09,0.09,0,0,1,0,.08,0.09,0.09,0,0,1,0,.08,0.09,0.09,0,0,1,0,.08,0.1,0.1,0,0,1-.05.13l-2.4,1.62a0.48,0.48,0,0,1-.37,0l-2.51-1.11a0.07,0.07,0,0,1,0-.11,0.06,0.06,0,0,1,0-.08,0.06,0.06,0,0,1,0-.08,0.06,0.06,0,0,1,0-.08,0.06,0.06,0,0,1,0-.07,0.06,0.06,0,0,1,0-.08,0.06,0.06,0,0,1,0-.08,0.06,0.06,0,0,1,0-.07,0.06,0.06,0,0,1,0-.08S80.77,193.29,80.86,193.24Z" style="fill: #314993"/>
              <path d="M77.31,191.76l2.38-1.58a0.48,0.48,0,0,1,.37,0l2.46,1a0.13,0.13,0,0,1,.08.16,0.09,0.09,0,0,1,0,.07,0.1,0.1,0,0,1,0,.08,0.09,0.09,0,0,1,0,.07,0.1,0.1,0,0,1,0,.08,0.09,0.09,0,0,1,0,.07,0.09,0.09,0,0,1,0,.08,0.09,0.09,0,0,1,0,.08,0.09,0.09,0,0,1,0,.08,0.1,0.1,0,0,1-.06.13l-2.4,1.62a0.47,0.47,0,0,1-.37,0l-2.51-1.11a0.07,0.07,0,0,1,0-.11,0.07,0.07,0,0,1,0-.08,0.07,0.07,0,0,1,0-.08,0.07,0.07,0,0,1,0-.08,0.07,0.07,0,0,1,0-.08,0.07,0.07,0,0,1,0-.08,0.07,0.07,0,0,1,0-.08,0.07,0.07,0,0,1,0-.07,0.07,0.07,0,0,1,0-.08S77.22,191.81,77.31,191.76Z" style="fill: #314993"/>
              <path d="M73.76,190.28l2.38-1.58a0.47,0.47,0,0,1,.37,0l2.46,1a0.13,0.13,0,0,1,.08.16,0.09,0.09,0,0,1,0,.07,0.09,0.09,0,0,1,0,.08,0.1,0.1,0,0,1,0,.08,0.09,0.09,0,0,1,0,.07,0.09,0.09,0,0,1,0,.08,0.09,0.09,0,0,1,0,.08,0.09,0.09,0,0,1,0,.08,0.09,0.09,0,0,1,0,.08,0.1,0.1,0,0,1-.05.13l-2.41,1.62a0.47,0.47,0,0,1-.37,0l-2.51-1.11a0.07,0.07,0,0,1,0-.11,0.06,0.06,0,0,1,0-.07,0.06,0.06,0,0,1,0-.08,0.06,0.06,0,0,1,0-.08,0.06,0.06,0,0,1,0-.08,0.06,0.06,0,0,1,0-.08,0.06,0.06,0,0,1,0-.08,0.06,0.06,0,0,1,0-.08,0.06,0.06,0,0,1,0-.07S73.68,190.33,73.76,190.28Z" style="fill: #314993"/>
              <path d="M70.22,188.8l2.38-1.58a0.5,0.5,0,0,1,.37,0l2.46,1a0.13,0.13,0,0,1,.08.16,0.09,0.09,0,0,1,0,.08,0.09,0.09,0,0,1,0,.08,0.09,0.09,0,0,1,0,.07,0.09,0.09,0,0,1,0,.08,0.09,0.09,0,0,1,0,.08,0.09,0.09,0,0,1,0,.07,0.09,0.09,0,0,1,0,.08,0.1,0.1,0,0,1,0,.08,0.1,0.1,0,0,1-.05.13l-2.4,1.62a0.48,0.48,0,0,1-.37,0l-2.51-1.11a0.27,0.27,0,0,1,0-.18,0.07,0.07,0,0,1,0-.07,0.07,0.07,0,0,1,0-.08,0.07,0.07,0,0,1,0-.07,0.07,0.07,0,0,1,0-.08,0.06,0.06,0,0,1,0-.07,0.07,0.07,0,0,1,0-.08,0.07,0.07,0,0,1,0-.07S70.13,188.85,70.22,188.8Z" style="fill: #314993"/>
              <path d="M66.67,187.32l2.38-1.58a0.48,0.48,0,0,1,.37,0l2.46,1a0.13,0.13,0,0,1,.09.16,0.11,0.11,0,0,1,0,.07,0.11,0.11,0,0,1,0,.08,0.11,0.11,0,0,1,0,.08,0.11,0.11,0,0,1,0,.08,0.11,0.11,0,0,1,0,.08,0.1,0.1,0,0,1,0,.07,0.11,0.11,0,0,1,0,.08,0.11,0.11,0,0,1,0,.08,0.1,0.1,0,0,1-.06.13l-2.4,1.62a0.47,0.47,0,0,1-.37,0l-2.51-1.11a0.07,0.07,0,0,1,0-.11,0.06,0.06,0,0,1,0-.08,0.06,0.06,0,0,1,0-.08,0.06,0.06,0,0,1,0-.08,0.06,0.06,0,0,1,0-.08,0.06,0.06,0,0,1,0-.08,0.06,0.06,0,0,1,0-.08,0.06,0.06,0,0,1,0-.08,0.06,0.06,0,0,1,0-.08S66.58,187.37,66.67,187.32Z" style="fill: #314993"/>
              <path d="M63.13,185.84l2.38-1.58a0.48,0.48,0,0,1,.37,0l2.46,1a0.13,0.13,0,0,1,.09.16,0.11,0.11,0,0,1,0,.08,0.1,0.1,0,0,1,0,.07,0.11,0.11,0,0,1,0,.08,0.11,0.11,0,0,1,0,.08,0.1,0.1,0,0,1,0,.07,0.11,0.11,0,0,1,0,.08,0.12,0.12,0,0,1,0,.08,0.1,0.1,0,0,1,0,.07,0.1,0.1,0,0,1-.06.13L66,187.77a0.47,0.47,0,0,1-.37,0l-2.51-1.11a0.07,0.07,0,0,1,0-.11,0.06,0.06,0,0,1,0-.07,0.07,0.07,0,0,1,0-.08,0.07,0.07,0,0,1,0-.08,0.06,0.06,0,0,1,0-.07,0.07,0.07,0,0,1,0-.08,0.07,0.07,0,0,1,0-.08,0.06,0.06,0,0,1,0-.08,0.07,0.07,0,0,1,0-.08S63,185.89,63.13,185.84Z" style="fill: #314993"/>
              <path d="M64.89,183.93a0.09,0.09,0,0,1,0,.08,0.09,0.09,0,0,1,0,.08,0.1,0.1,0,0,1,0,.08,0.09,0.09,0,0,1,0,.07,0.09,0.09,0,0,1,0,.08,0.09,0.09,0,0,1,0,.08,0.09,0.09,0,0,1,0,.08,0.09,0.09,0,0,1,0,.08,0.1,0.1,0,0,1-.05.13l-2.4,1.62a0.46,0.46,0,0,1-.37,0l-2.51-1.11a0.07,0.07,0,0,1,0-.11,0.07,0.07,0,0,1,0-.08,0.07,0.07,0,0,1,0-.08,0.07,0.07,0,0,1,0-.08,0.06,0.06,0,0,1,0-.07,0.07,0.07,0,0,1,0-.08,0.06,0.06,0,0,1,0-.08,0.07,0.07,0,0,1,0-.08,0.06,0.06,0,0,1,0-.07s0-.11.08-0.16L62,182.77a0.48,0.48,0,0,1,.37,0l2.46,1A0.12,0.12,0,0,1,64.89,183.93Z" style="fill: #314993"/>
            </g>
            <g>
              <g>
                <path d="M118.8,201c-0.11.06-.13,0.15,0,0.19l2.51,1.11a0.46,0.46,0,0,0,.37,0l2.4-1.62c0.11-.07.06-0.18,0-0.22l-2.46-1a0.48,0.48,0,0,0-.37,0Z" style="fill: #8cbee7"/>
                <path d="M115.26,199.51c-0.11.07-.13,0.15,0,0.19l2.51,1.11a0.48,0.48,0,0,0,.37,0l2.4-1.62c0.12-.06.06-0.18,0-0.22l-2.46-1a0.49,0.49,0,0,0-.37,0Z" style="fill: #8cbee7"/>
                <path d="M111.72,198c-0.11.06-.13,0.15,0,0.19l2.51,1.11a0.48,0.48,0,0,0,.37,0l2.4-1.62c0.11-.07.06-0.18,0-0.22l-2.46-1a0.48,0.48,0,0,0-.37,0Z" style="fill: #8cbee7"/>
                <path d="M108.17,196.55c-0.11.07-.13,0.15,0,0.19l2.51,1.11a0.48,0.48,0,0,0,.37,0l2.4-1.62a0.12,0.12,0,0,0,0-.22l-2.46-1a0.48,0.48,0,0,0-.37,0Z" style="fill: #8cbee7"/>
                <path d="M104.62,195.07c-0.11.06-.13,0.14,0,0.19l2.51,1.11a0.47,0.47,0,0,0,.37,0l2.4-1.62c0.11-.07.06-0.18,0-0.22l-2.46-1a0.47,0.47,0,0,0-.37,0Z" style="fill: #8cbee7"/>
                <path d="M101.08,193.59c-0.11.06-.13,0.15,0,0.19l2.51,1.11a0.47,0.47,0,0,0,.37,0l2.4-1.62c0.12-.07.06-0.18,0-0.22l-2.47-1a0.49,0.49,0,0,0-.37,0Z" style="fill: #8cbee7"/>
                <path d="M97.53,192.1c-0.11.07-.13,0.15,0,0.19L100,193.4a0.48,0.48,0,0,0,.37,0l2.4-1.62c0.12-.07.06-0.18,0-0.22l-2.46-1a0.5,0.5,0,0,0-.37,0Z" style="fill: #8cbee7"/>
                <path d="M94,190.62c-0.11.06-.13,0.15,0,0.19l2.51,1.11a0.49,0.49,0,0,0,.37,0l2.4-1.62c0.12-.07.06-0.18,0-0.22l-2.46-1a0.48,0.48,0,0,0-.37,0Z" style="fill: #8cbee7"/>
                <path d="M90.44,189.14c-0.11.06-.13,0.15,0,0.19l2.51,1.11a0.49,0.49,0,0,0,.37,0l2.4-1.62c0.12-.06.06-0.18,0-0.22l-2.46-1a0.48,0.48,0,0,0-.37,0Z" style="fill: #8cbee7"/>
                <path d="M86.9,187.66c-0.11.06-.13,0.15,0,0.19L89.37,189a0.48,0.48,0,0,0,.37,0l2.4-1.62a0.12,0.12,0,0,0,0-.22l-2.46-1a0.49,0.49,0,0,0-.37,0Z" style="fill: #8cbee7"/>
                <path d="M83.35,186.18c-0.11.07-.13,0.15,0,0.19l2.51,1.11a0.48,0.48,0,0,0,.37,0l2.4-1.62c0.12-.06.06-0.18,0-0.22l-2.47-1a0.48,0.48,0,0,0-.37,0Z" style="fill: #8cbee7"/>
                <path d="M79.81,184.7c-0.11.07-.13,0.15,0,0.19L82.28,186a0.48,0.48,0,0,0,.37,0l2.4-1.62c0.11-.07.06-0.18,0-0.22l-2.46-1a0.47,0.47,0,0,0-.37,0Z" style="fill: #8cbee7"/>
                <path d="M76.26,183.22c-0.11.06-.13,0.15,0,0.19l2.52,1.11a0.47,0.47,0,0,0,.37,0l2.4-1.62c0.12-.07.06-0.18,0-0.22l-2.46-1a0.5,0.5,0,0,0-.37,0Z" style="fill: #8cbee7"/>
                <path d="M72.72,181.74c-0.11.06-.13,0.14,0,0.19L75.19,183a0.47,0.47,0,0,0,.37,0l2.4-1.62a0.12,0.12,0,0,0,0-.22l-2.46-1a0.5,0.5,0,0,0-.37,0Z" style="fill: #8cbee7"/>
                <path d="M69.17,180.25c-0.11.07-.14,0.15,0,0.19l2.51,1.11a0.48,0.48,0,0,0,.37,0l2.4-1.62c0.12-.06.06-0.18,0-0.22l-2.47-1a0.47,0.47,0,0,0-.37,0Z" style="fill: #8cbee7"/>
              </g>
              <g>
                <path d="M103.91,211c-0.12.06-.13,0.15,0,0.19l2.51,1.11a0.46,0.46,0,0,0,.37,0l2.4-1.62c0.11-.06.06-0.18,0-0.22l-2.46-1a0.47,0.47,0,0,0-.37,0Z" style="fill: #8cbee7"/>
                <path d="M100.36,209.53c-0.11.07-.13,0.15,0,0.19l2.51,1.11a0.48,0.48,0,0,0,.37,0l2.4-1.62c0.11-.06.06-0.18,0-0.22l-2.46-1a0.48,0.48,0,0,0-.37,0Z" style="fill: #8cbee7"/>
                <path d="M96.81,208.05c-0.11.07-.13,0.15,0,0.19l2.51,1.11a0.47,0.47,0,0,0,.37,0l2.4-1.62c0.11-.07.06-0.18,0-0.22l-2.46-1a0.49,0.49,0,0,0-.37,0Z" style="fill: #8cbee7"/>
                <path d="M93.27,206.57c-0.11.06-.13,0.15,0,0.19l2.51,1.11a0.47,0.47,0,0,0,.37,0l2.4-1.62c0.11-.06.06-0.18,0-0.22l-2.46-1a0.48,0.48,0,0,0-.37,0Z" style="fill: #8cbee7"/>
                <path d="M68.52,196.2c-0.11.07-.13,0.15,0,0.19l23.71,10a0.47,0.47,0,0,0,.37,0l2.4-1.62c0.11-.06.06-0.18,0-0.22l-23.67-9.93a0.48,0.48,0,0,0-.37,0Z" style="fill: #8cbee7"/>
                <path d="M64.91,194.72c-0.11.06-.13,0.15,0,0.19L67.38,196a0.48,0.48,0,0,0,.37,0l2.4-1.62c0.11-.06.06-0.18,0-0.22l-2.46-1a0.49,0.49,0,0,0-.37,0Z" style="fill: #8cbee7"/>
                <path d="M61.36,193.24c-0.12.06-.14,0.15,0,0.19l2.51,1.11a0.48,0.48,0,0,0,.37,0l2.4-1.62a0.12,0.12,0,0,0,0-.22l-2.46-1a0.47,0.47,0,0,0-.36,0Z" style="fill: #8cbee7"/>
                <path d="M57.82,191.76c-0.11.06-.14,0.15,0,0.19l2.51,1.11a0.48,0.48,0,0,0,.37,0l2.4-1.62c0.11-.06.06-0.18,0-0.22l-2.46-1a0.48,0.48,0,0,0-.37,0Z" style="fill: #8cbee7"/>
                <path d="M54.27,190.28c-0.11.07-.13,0.15,0,0.19l2.51,1.11a0.48,0.48,0,0,0,.37,0l2.4-1.62c0.11-.07.06-0.18,0-0.22l-2.46-1a0.47,0.47,0,0,0-.37,0Z" style="fill: #8cbee7"/>
              </g>
              <g>
                <path d="M117.24,204.35c-0.12.07-.13,0.15,0,0.19l2.51,1.11a0.48,0.48,0,0,0,.37,0l2.4-1.62c0.11-.06.06-0.18,0-0.22l-2.46-1a0.48,0.48,0,0,0-.37,0Z" style="fill: #8cbee7"/>
                <path d="M113.7,202.87c-0.11.07-.13,0.15,0,0.19l2.51,1.11a0.48,0.48,0,0,0,.37,0l2.4-1.62c0.11-.07.06-0.18,0-0.22l-2.46-1a0.47,0.47,0,0,0-.37,0Z" style="fill: #8cbee7"/>
                <path d="M110.15,201.39c-0.11.07-.13,0.15,0,0.19l2.51,1.11a0.49,0.49,0,0,0,.37,0l2.4-1.62c0.11-.07.06-0.18,0-0.22l-2.46-1a0.49,0.49,0,0,0-.37,0Z" style="fill: #8cbee7"/>
                <path d="M106.61,199.91c-0.12.07-.14,0.15,0,0.19l2.51,1.11a0.48,0.48,0,0,0,.37,0l2.4-1.62c0.11-.06.06-0.18,0-0.22l-2.46-1a0.48,0.48,0,0,0-.37.05Z" style="fill: #8cbee7"/>
                <path d="M103.06,198.43c-0.11.06-.14,0.15,0,0.19l2.51,1.11a0.47,0.47,0,0,0,.37,0l2.4-1.62a0.12,0.12,0,0,0,0-.22l-2.46-1a0.48,0.48,0,0,0-.37,0Z" style="fill: #8cbee7"/>
                <path d="M99.52,196.94c-0.11.07-.13,0.15,0,0.19l2.51,1.11a0.48,0.48,0,0,0,.37,0l2.4-1.62a0.12,0.12,0,0,0,0-.22l-2.46-1a0.49,0.49,0,0,0-.37,0Z" style="fill: #8cbee7"/>
                <path d="M96,195.46c-0.11.07-.13,0.15,0,0.19l2.51,1.11a0.48,0.48,0,0,0,.37,0l2.4-1.62c0.12-.07.06-0.18,0-0.22l-2.46-1a0.49,0.49,0,0,0-.37,0Z" style="fill: #8cbee7"/>
                <path d="M92.43,194c-0.12.07-.13,0.15,0,0.19l2.51,1.11a0.48,0.48,0,0,0,.37,0l2.4-1.62c0.11-.07.06-0.18,0-0.22l-2.46-1a0.48,0.48,0,0,0-.37.05Z" style="fill: #8cbee7"/>
                <path d="M88.88,192.5c-0.11.06-.13,0.15,0,0.18l2.51,1.11a0.48,0.48,0,0,0,.37,0l2.4-1.62c0.12-.06.06-0.18,0-0.22l-2.46-1a0.48,0.48,0,0,0-.37,0Z" style="fill: #8cbee7"/>
                <path d="M85.33,191c-0.11.07-.13,0.15,0,0.19l2.51,1.11a0.48,0.48,0,0,0,.37,0l2.4-1.62a0.12,0.12,0,0,0,0-.22l-2.46-1a0.49,0.49,0,0,0-.37,0Z" style="fill: #8cbee7"/>
                <path d="M81.79,189.54c-0.11.07-.13,0.15,0,0.19l2.51,1.11a0.48,0.48,0,0,0,.37,0l2.4-1.62c0.11-.06.06-0.18,0-0.22l-2.46-1a0.48,0.48,0,0,0-.37,0Z" style="fill: #8cbee7"/>
                <path d="M78.25,188.06c-0.11.07-.14,0.15,0,0.19l2.51,1.11a0.48,0.48,0,0,0,.37,0l2.4-1.62c0.11-.06.06-0.18,0-0.22l-2.46-1a0.47,0.47,0,0,0-.37,0Z" style="fill: #8cbee7"/>
                <path d="M74.7,186.58c-0.12.06-.13,0.15,0,0.19l2.51,1.11a0.49,0.49,0,0,0,.37,0l2.4-1.62a0.12,0.12,0,0,0,0-.22l-2.46-1a0.48,0.48,0,0,0-.37.05Z" style="fill: #8cbee7"/>
                <path d="M71.16,185.09c-0.12.06-.13,0.15,0,0.19l2.51,1.11a0.47,0.47,0,0,0,.37,0l2.4-1.62c0.11-.07.06-0.18,0-0.22l-2.46-1a0.48,0.48,0,0,0-.37,0Z" style="fill: #8cbee7"/>
                <path d="M67.61,183.61c-0.12.07-.13,0.15,0,0.19l2.51,1.11a0.5,0.5,0,0,0,.37,0l2.4-1.62a0.12,0.12,0,0,0,0-.22l-2.46-1a0.48,0.48,0,0,0-.37,0Z" style="fill: #8cbee7"/>
                <path d="M64.08,182.13c-0.11.07-.13,0.15,0,0.19l2.51,1.11a0.49,0.49,0,0,0,.37,0l2.4-1.62c0.12-.07.06-0.18,0-0.22l-2.46-1a0.49,0.49,0,0,0-.37.05Z" style="fill: #8cbee7"/>
              </g>
              <g>
                <path d="M109.22,209.14c-0.11.06-.14,0.15,0,0.19l2.51,1.11a0.48,0.48,0,0,0,.37,0l2.4-1.62a0.12,0.12,0,0,0,0-.22l-2.46-1a0.48,0.48,0,0,0-.37,0Z" style="fill: #8cbee7"/>
                <path d="M105.67,207.66c-0.11.06-.13,0.15,0,0.19l2.51,1.11a0.48,0.48,0,0,0,.37,0l2.4-1.62c0.12-.07.06-0.18,0-0.22l-2.46-1a0.48,0.48,0,0,0-.37,0Z" style="fill: #8cbee7"/>
                <path d="M102.13,206.17c-0.11.06-.13,0.15,0,0.19l2.51,1.11a0.48,0.48,0,0,0,.37,0l2.4-1.62c0.12-.07.06-0.18,0-0.22l-2.46-1a0.48,0.48,0,0,0-.37,0Z" style="fill: #8cbee7"/>
                <path d="M98.58,204.69c-0.11.07-.13,0.15,0,0.19l2.51,1.11a0.48,0.48,0,0,0,.37,0l2.4-1.62c0.12-.07.06-0.18,0-0.22l-2.46-1a0.48,0.48,0,0,0-.37,0Z" style="fill: #8cbee7"/>
                <path d="M95,203.21c-0.11.07-.13,0.15,0,0.19l2.51,1.11a0.49,0.49,0,0,0,.37,0l2.4-1.62a0.12,0.12,0,0,0,0-.22l-2.46-1a0.49,0.49,0,0,0-.37,0Z" style="fill: #8cbee7"/>
                <path d="M91.49,201.73c-0.11.06-.13,0.15,0,0.19L94,203a0.48,0.48,0,0,0,.37,0l2.4-1.62c0.12-.07.06-0.18,0-0.22l-2.46-1a0.48,0.48,0,0,0-.37,0Z" style="fill: #8cbee7"/>
                <path d="M87.94,200.25c-0.11.07-.13,0.15,0,0.19l2.51,1.11a0.47,0.47,0,0,0,.37,0l2.4-1.62c0.11-.07.06-0.18,0-0.22l-2.46-1a0.47,0.47,0,0,0-.36,0Z" style="fill: #8cbee7"/>
                <path d="M84.4,198.77c-0.11.07-.13,0.15,0,0.19l2.51,1.11a0.48,0.48,0,0,0,.37,0l2.4-1.62c0.12-.07.06-0.18,0-0.22l-2.46-1a0.48,0.48,0,0,0-.37,0Z" style="fill: #8cbee7"/>
                <path d="M80.86,197.29c-0.11.07-.13,0.15,0,0.19l2.51,1.11a0.49,0.49,0,0,0,.37,0l2.4-1.62a0.12,0.12,0,0,0,0-.22l-2.46-1a0.48,0.48,0,0,0-.37,0Z" style="fill: #8cbee7"/>
                <path d="M77.31,195.81c-0.11.07-.13,0.15,0,0.19l2.51,1.11a0.47,0.47,0,0,0,.37,0l2.4-1.62c0.12-.07.06-0.18,0-0.22l-2.47-1a0.48,0.48,0,0,0-.37,0Z" style="fill: #8cbee7"/>
                <path d="M73.76,194.33c-0.11.07-.13,0.15,0,0.19l2.51,1.11a0.47,0.47,0,0,0,.37,0L79,194c0.11-.07.06-0.18,0-0.22l-2.46-1a0.47,0.47,0,0,0-.37,0Z" style="fill: #8cbee7"/>
                <path d="M70.22,192.84c-0.11.07-.14,0.15,0,0.19l2.51,1.11a0.49,0.49,0,0,0,.37,0l2.4-1.62c0.12-.07.06-0.18,0-0.22l-2.46-1a0.5,0.5,0,0,0-.37,0Z" style="fill: #8cbee7"/>
                <path d="M66.67,191.36c-0.11.07-.13,0.15,0,0.19l2.51,1.11a0.48,0.48,0,0,0,.37,0l2.4-1.62c0.12-.07.06-0.18,0-0.22l-2.46-1a0.48,0.48,0,0,0-.37,0Z" style="fill: #8cbee7"/>
                <path d="M63.13,189.88c-0.11.07-.13,0.15,0,0.19l2.51,1.11a0.47,0.47,0,0,0,.37,0l2.4-1.62a0.12,0.12,0,0,0,0-.22l-2.46-1a0.48,0.48,0,0,0-.37,0Z" style="fill: #8cbee7"/>
                <path d="M59.58,188.4c-0.11.07-.13,0.15,0,0.19l2.51,1.11a0.47,0.47,0,0,0,.37,0l2.4-1.62c0.11-.07.06-0.18,0-0.22l-2.46-1a0.48,0.48,0,0,0-.37,0Z" style="fill: #8cbee7"/>
                <path d="M56,186.92c-0.11.07-.13,0.15,0,0.19l2.51,1.11a0.48,0.48,0,0,0,.37,0l2.4-1.62c0.11-.06.06-0.18,0-0.22l-2.46-1a0.49,0.49,0,0,0-.37,0Z" style="fill: #8cbee7"/>
              </g>
              <g>
                <path d="M112.76,206.57c-0.12.06-.13,0.15,0,0.19l2.51,1.11a0.47,0.47,0,0,0,.37,0l2.4-1.62c0.11-.06.06-0.18,0-0.22l-2.46-1a0.47,0.47,0,0,0-.36,0Z" style="fill: #8cbee7"/>
                <path d="M109.22,205.09c-0.11.07-.14,0.15,0,0.19l2.51,1.11a0.47,0.47,0,0,0,.37,0l2.4-1.62c0.12-.06.06-0.18,0-0.22l-2.46-1a0.48,0.48,0,0,0-.37,0Z" style="fill: #8cbee7"/>
                <path d="M105.67,203.61c-0.11.07-.13,0.15,0,0.19l2.51,1.11a0.47,0.47,0,0,0,.37,0l2.4-1.62c0.12-.06.06-0.18,0-0.22l-2.46-1a0.47,0.47,0,0,0-.37,0Z" style="fill: #8cbee7"/>
                <path d="M102.13,202.13c-0.11.07-.13,0.15,0,0.19l2.51,1.11a0.47,0.47,0,0,0,.37,0l2.4-1.62c0.12-.07.06-0.18,0-0.22l-2.46-1a0.49,0.49,0,0,0-.37,0Z" style="fill: #8cbee7"/>
                <path d="M98.58,200.65c-0.11.07-.13,0.15,0,0.19l2.51,1.11a0.47,0.47,0,0,0,.37,0l2.4-1.62c0.12-.06.06-0.18,0-0.22l-2.46-1a0.48,0.48,0,0,0-.37,0Z" style="fill: #8cbee7"/>
                <path d="M95,199.17c-0.11.07-.13,0.15,0,0.19l2.51,1.11a0.48,0.48,0,0,0,.37,0l2.4-1.62a0.12,0.12,0,0,0,0-.22l-2.46-1a0.49,0.49,0,0,0-.37,0Z" style="fill: #8cbee7"/>
                <path d="M91.49,197.68c-0.11.06-.13,0.15,0,0.19L94,199a0.47,0.47,0,0,0,.37,0l2.4-1.62c0.12-.06.06-0.18,0-0.22l-2.46-1a0.48,0.48,0,0,0-.37,0Z" style="fill: #8cbee7"/>
                <path d="M87.94,196.2c-0.11.07-.13,0.15,0,0.19l2.51,1.11a0.48,0.48,0,0,0,.37,0l2.4-1.62a0.12,0.12,0,0,0,0-.22l-2.46-1a0.48,0.48,0,0,0-.36,0Z" style="fill: #8cbee7"/>
                <path d="M84.4,194.72c-0.11.06-.13,0.15,0,0.19L86.87,196a0.48,0.48,0,0,0,.37,0l2.4-1.62c0.12-.06.06-0.18,0-0.22l-2.46-1a0.49,0.49,0,0,0-.37,0Z" style="fill: #8cbee7"/>
                <path d="M80.86,193.24c-0.11.06-.13,0.15,0,0.19l2.51,1.11a0.48,0.48,0,0,0,.37,0l2.4-1.62a0.12,0.12,0,0,0,0-.22l-2.46-1a0.48,0.48,0,0,0-.37,0Z" style="fill: #8cbee7"/>
                <path d="M77.31,191.76c-0.11.06-.13,0.15,0,0.19l2.51,1.11a0.48,0.48,0,0,0,.37,0l2.4-1.62c0.12-.06.06-0.18,0-0.22l-2.47-1a0.48,0.48,0,0,0-.37,0Z" style="fill: #8cbee7"/>
                <path d="M73.76,190.28c-0.11.07-.13,0.15,0,0.19l2.51,1.11a0.48,0.48,0,0,0,.37,0l2.4-1.62c0.11-.07.06-0.18,0-0.22l-2.46-1a0.47,0.47,0,0,0-.37,0Z" style="fill: #8cbee7"/>
                <path d="M70.22,188.8c-0.11.06-.14,0.15,0,0.19l2.51,1.11a0.49,0.49,0,0,0,.37,0l2.4-1.62c0.12-.07.06-0.18,0-0.22l-2.46-1a0.5,0.5,0,0,0-.37,0Z" style="fill: #8cbee7"/>
                <path d="M66.67,187.32c-0.11.07-.13,0.15,0,0.19l2.51,1.11a0.47,0.47,0,0,0,.37,0l2.4-1.62c0.12-.06.06-0.18,0-0.22l-2.46-1a0.47,0.47,0,0,0-.37,0Z" style="fill: #8cbee7"/>
                <path d="M63.13,185.84c-0.11.06-.13,0.15,0,0.19l2.51,1.11a0.47,0.47,0,0,0,.37,0l2.4-1.62c0.11-.06.06-0.18,0-0.22l-2.46-1a0.48,0.48,0,0,0-.37,0Z" style="fill: #8cbee7"/>
                <path d="M59.59,184.35c-0.11.06-.13,0.15,0,0.19l2.51,1.11a0.47,0.47,0,0,0,.37,0l2.4-1.62c0.11-.06.06-0.18,0-0.22l-2.46-1a0.48,0.48,0,0,0-.37,0Z" style="fill: #8cbee7"/>
              </g>
            </g>
          </g>
        </g>
      </g>
      <g>
        <path d="M31.33,147.86l11.08,46.28a1.41,1.41,0,0,0,.86,1.52L108.47,223a1.06,1.06,0,0,0,1.38-1.21L98.78,175.9a1.5,1.5,0,0,0-1-1.67l-65.07-27.3A1,1,0,0,0,31.33,147.86Z" style="fill: #314993"/>
        <path d="M111.64,221.36L109.25,223a1,1,0,0,0,.59-0.9L98.78,176l2-1.38,11.08,46.24A0.6,0.6,0,0,1,111.64,221.36Z" style="fill: #414286"/>
        <path d="M98.1,174.38a1.68,1.68,0,0,1,.68,1.59l2-1.36a1.89,1.89,0,0,0-.72-1.58Z" style="fill: #4c4e9a"/>
        <path d="M100.08,173a0.93,0.93,0,0,0-.21-0.14L34.8,145.58a1.7,1.7,0,0,0-1.74.09l-1.28.86a1,1,0,0,0-.42,1s0.14-1,1.37-.56L98.1,174.38Z" style="fill: #6270b3"/>
      </g>
    </g>
  </g>
</svg>
