<svg xmlns="http://www.w3.org/2000/svg" xmlns:xlink="http://www.w3.org/1999/xlink" width="300" height="300" viewBox="0 0 300 300">
  <defs>
    <clipPath id="ef52e5fe-6bba-409e-85a3-6d98ede446ab">
      <path id="f9003b1a-3c71-4bff-b2d4-83f8e46ac6fb" data-name="SVGID" d="M50,209.62c-6.15,6-9,13-6.48,15.6s9.65,0,15.79-6,9-13,6.47-15.61a3.23,3.23,0,0,0-1.54-.87c-3.25-.84-9.07,1.87-14.24,6.89" style="fill: none"/>
    </clipPath>
    <linearGradient id="cdadc237-7bf3-41ff-b910-ef1be8279b59" x1="-570.43" y1="602.82" x2="-570.01" y2="602.82" gradientTransform="matrix(67.46, 0, 0, 67.46, 38527.22, -40450.19)" gradientUnits="userSpaceOnUse">
      <stop offset="0" stop-color="#85b644"/>
      <stop offset="0.08" stop-color="#8cba48"/>
      <stop offset="0.42" stop-color="#a3c856"/>
      <stop offset="0.73" stop-color="#b1d15e"/>
      <stop offset="1" stop-color="#b6d461"/>
    </linearGradient>
    <clipPath id="2ec04f71-0cf2-4a25-ac21-30fadca1d706">
      <path id="95aa0c1b-ae1c-4d3f-9fd9-f4650b7f6f4a" data-name="SVGID" d="M202.07,204.9c-2,3.06,2.07,9.41,9.19,14.17s14.57,6.14,16.61,3.08-2.06-9.42-9.19-14.18c-6.66-4.45-13.59-5.95-16.15-3.61a3,3,0,0,0-.47.54" style="fill: none"/>
    </clipPath>
    <linearGradient id="c7172bbe-a433-47e2-8dd6-8bdf58613426" x1="-553.56" y1="603.64" x2="-553.14" y2="603.64" gradientTransform="translate(-40512.76 -37123.85) rotate(-90) scale(67.47)" xlink:href="#cdadc237-7bf3-41ff-b910-ef1be8279b59"/>
    <clipPath id="d42d05f9-e6cf-4f80-a332-76a4f1b80f11">
      <path id="a892de2b-3ead-4a73-9f6c-19fe2a487211" data-name="SVGID" d="M159.27,249.61c-3.45,1.27-3.85,8.83-.88,16.87S166.58,280,170,278.72s3.86-8.83.88-16.87c-2.78-7.52-7.52-12.8-11-12.4a2.94,2.94,0,0,0-.7.17" style="fill: none"/>
    </clipPath>
    <linearGradient id="e22a8cd2-a369-4c70-8081-c92bac9e1df9" x1="-560.2" y1="602.71" x2="-559.78" y2="602.71" gradientTransform="matrix(0, -67.47, 67.47, 0, -40501.68, -37519.54)" xlink:href="#cdadc237-7bf3-41ff-b910-ef1be8279b59"/>
    <clipPath id="43ba06e4-e40c-426b-918e-a38cd45ac8a6">
      <path id="f63c8773-c412-41e5-ab1c-348520abd96f" data-name="SVGID" d="M82.52,256.32c-3.58,7.79-3.77,15.34-.42,16.89s9-3.52,12.56-11.31,3.76-15.35.41-16.89a3.25,3.25,0,0,0-1.75-.25c-3.34.38-7.79,5-10.8,11.56" style="fill: none"/>
    </clipPath>
    <linearGradient id="f7e18d11-f599-4b55-b618-8fb44ba5e16e" x1="-570.96" y1="599.75" x2="-570.54" y2="599.75" gradientTransform="translate(-40370.81 -38247.69) rotate(-90) scale(67.46)" xlink:href="#cdadc237-7bf3-41ff-b910-ef1be8279b59"/>
    <clipPath id="af4f85e9-102b-4964-b887-dbf2ca788a9a">
      <path id="74430c6a-84a5-40e8-bd02-b5efd1d9bbe4" data-name="SVGID" d="M62.32,147.34a83.2,83.2,0,1,0,63.59-42.79,83.2,83.2,0,0,0-63.59,42.79" style="fill: none"/>
    </clipPath>
    <linearGradient id="d4a3ef2c-4244-4fbd-a621-11feada7664e" x1="-567.97" y1="613.84" x2="-567.55" y2="613.84" gradientTransform="matrix(-392.5, 0, 0, -392.5, -222713.93, 241124.4)" gradientUnits="userSpaceOnUse">
      <stop offset="0" stop-color="#b6d461"/>
      <stop offset="1" stop-color="#b6d461"/>
      <stop offset="1" stop-color="#85b644"/>
    </linearGradient>
    <clipPath id="80f983b4-cee3-4b27-9916-e021fd206335">
      <path id="29fc2e51-d933-4c65-a6ce-a9045e3dda6b" data-name="SVGID" d="M81.48,128.36A79.77,79.77,0,1,0,126.16,108a79.78,79.78,0,0,0-44.67,20.4" style="fill: none"/>
    </clipPath>
    <linearGradient id="cce1e48f-83eb-4fd7-b0eb-05fb7897ce12" x1="-568.37" y1="611.9" x2="-567.94" y2="611.9" gradientTransform="matrix(0, -376.45, 376.45, 0, -230213.99, -213690.52)" xlink:href="#cdadc237-7bf3-41ff-b910-ef1be8279b59"/>
  </defs>
  <title>00_遊戲人物</title>
  <g style="isolation: isolate">
    <g id="e7cde1ce-348d-4d92-b805-1249786ec2a7" data-name="圖層 1">
      <g>
        <g>
          <g>
            <g style="clip-path: url(#ef52e5fe-6bba-409e-85a3-6d98ede446ab)">
              <rect x="39.02" y="202.52" width="31" height="25.2" transform="translate(-166.14 191.55) rotate(-69.68)" style="fill: url(#cdadc237-7bf3-41ff-b910-ef1be8279b59)"/>
            </g>
            <g style="clip-path: url(#2ec04f71-0cf2-4a25-ac21-30fadca1d706)">
              <rect x="198.8" y="196.38" width="32.89" height="34.89" transform="translate(-27.35 396.02) rotate(-81.72)" style="fill: url(#c7172bbe-a433-47e2-8dd6-8bdf58613426)"/>
            </g>
            <g style="clip-path: url(#d42d05f9-e6cf-4f80-a332-76a4f1b80f11)">
              <rect x="148.26" y="247.12" width="32.89" height="34.89" transform="translate(-139.78 198.16) rotate(-45.79)" style="fill: url(#e22a8cd2-a369-4c70-8081-c92bac9e1df9)"/>
            </g>
            <g style="clip-path: url(#43ba06e4-e40c-426b-918e-a38cd45ac8a6)">
              <rect x="76.07" y="244.34" width="25.2" height="31" transform="translate(-3.6 1.26) rotate(-0.8)" style="fill: url(#f7e18d11-f599-4b55-b618-8fb44ba5e16e)"/>
            </g>
            <g style="clip-path: url(#af4f85e9-102b-4964-b887-dbf2ca788a9a)">
              <rect x="27.76" y="89.2" width="216.43" height="207.25" transform="translate(-48.79 46.09) rotate(-16.35)" style="fill: url(#d4a3ef2c-4244-4fbd-a621-11feada7664e)"/>
            </g>
            <g style="clip-path: url(#80f983b4-cee3-4b27-9916-e021fd206335)">
              <rect x="14.24" y="69.53" width="243.42" height="245.99" transform="translate(-98.19 219.53) rotate(-61.35)" style="fill: url(#cce1e48f-83eb-4fd7-b0eb-05fb7897ce12)"/>
            </g>
          </g>
          <path d="M197.88,186.47c9.79,3.43,5.85,17.78-7.09,14.8-13.76-3.16-6-19.38,7.09-14.8" style="fill: #ed7c78"/>
          <path d="M71.89,186.79c9.79,3.43,5.85,17.78-7.09,14.8-13.76-3.16-6-19.38,7.09-14.8" style="fill: #ed7c78"/>
          <g>
            <circle cx="93.06" cy="171.49" r="19.77" style="fill: #fff"/>
            <g>
              <path d="M107.61,164.76a5.37,5.37,0,1,1-7.12-7.49A16.14,16.14,0,1,0,107.61,164.76Z" style="fill: #4a3e37"/>
              <path d="M93.07,182.73a11.25,11.25,0,1,0-11.25-11.25A11.27,11.27,0,0,0,93.07,182.73Z" style="fill: #191919;fill-rule: evenodd"/>
              <path d="M97.61,162a5.37,5.37,0,0,0,10,2.73,16.16,16.16,0,0,0-7.12-7.49A5.39,5.39,0,0,0,97.61,162Z" style="fill: #fff"/>
            </g>
          </g>
          <g>
            <circle cx="167.08" cy="171.49" r="19.77" style="fill: #fff"/>
            <g>
              <path d="M181.63,164.76a5.37,5.37,0,1,1-7.12-7.49A16.14,16.14,0,1,0,181.63,164.76Z" style="fill: #4a3e37"/>
              <path d="M167.08,182.73a11.25,11.25,0,1,0-11.25-11.25A11.27,11.27,0,0,0,167.08,182.73Z" style="fill: #191919;fill-rule: evenodd"/>
              <path d="M171.62,162a5.37,5.37,0,0,0,10,2.73,16.17,16.17,0,0,0-7.12-7.49A5.39,5.39,0,0,0,171.62,162Z" style="fill: #fff"/>
            </g>
          </g>
          <path d="M144.82,198.23c-2.27-1.64-4.43,2.12-2.19,3.75,4.61,3.34.49,9.3-3.71,10.31-4.48,1.08-11.82-1.31-11.11-6.95a1.25,1.25,0,0,0-1.47-1.46,1.93,1.93,0,0,0-3.12.92c-0.6,2.42-.73,4.37-2.63,6.22a7.19,7.19,0,0,1-7,2c-4.35-1.34-6.24-6.67-5-10.72a1.6,1.6,0,0,0-2.92-1.23,11.49,11.49,0,0,0,7.14,16.22c4.4,1.14,9.93-1.36,12.67-5.32,3.3,4.16,11.38,5.64,15.94,4,7.55-2.7,10.24-12.82,3.32-17.8" style="fill: #4a3e37"/>
        </g>
        <g>
          <path d="M7.45,151.33l12.07,22.14,7.35,0.61,7.34,1,16.94,63.79A2.61,2.61,0,0,0,56,237.09L39.1,173.44,45.31,167l4.61-4.2-4.83-25.37Z" style="fill: #e5e5e4"/>
          <path d="M61,242.26a5.66,5.66,0,0,1-3.9,7h0a5.66,5.66,0,0,1-6.92-4l-9.76-41.57c-0.84-3-.06-3.65,2.93-4.47h0c3-.82,3.71-0.63,4.54,2.41Z" style="fill: #524740"/>
        </g>
        <g>
          <path d="M207.43,100.43s-18.16-31.88-63.79-36.29S73.75,81.46,73.75,81.46L81,124a477.59,477.59,0,0,0,121.5,8Z" style="fill: #fbfcff"/>
          <path d="M207.43,100.43s-18.16-31.88-63.79-36.29S73.75,81.46,73.75,81.46l1.32,5.22c6.66,6.11,15.21,10.11,24.3,9.66,6-.42,14.56-0.52,17.24-5.83,1.7,5,6.92,8.07,11.63,10.08,19,8.38,40.75,9.84,57.83,2.05,2.14,4.48-.81,17.8-4.9,30.2q10.67-.19,21.3-0.86Z" style="fill: #69a0ba;opacity: 0.25;mix-blend-mode: multiply"/>
          <path d="M118.91,86.09c2.19,2.78,4,5.67,7.26,8.09,9.82,7.62,22.38,12.75,34.47,13a35.3,35.3,0,0,0,15-2c2.39-.81,5-1.28,6.83-2.31,1.54-.91,3.6-3.17,5.14-3.3,4.09-.6,11.55,4.69,15.45,6.1a32.86,32.86,0,0,0,14,1.53c9.89-1,19.64-5.48,22.78-14.35,3-10,4.1-21.31-1.44-31.55-5.87-10.91-13.3-18.55-25-24.36-10.69-5.37-22.77-7.14-34.18-6.8h-0.24a47.9,47.9,0,0,0-20.82-8.51c-13.1-2.21-29.49,2.56-37.57,11.15-7.28-5.74-19.18-8-27.87-8.55C82,23.57,70.87,26.16,63,31.95c-17,12.38-18.71,37.59-.11,54,9,7.51,22.06,9.72,32.81,8C104.21,92.63,111.05,88.75,118.91,86.09Z" style="fill: #fbfcff"/>
          <g style="opacity: 0.25;mix-blend-mode: multiply">
            <path d="M118.91,86.09c2.19,2.78,4,5.67,7.26,8.09,9.82,7.62,22.38,12.75,34.47,13a35.3,35.3,0,0,0,15-2c2.39-.81,5-1.28,6.83-2.31,1.54-.91,3.6-3.17,5.14-3.3,4.09-.6,11.55,4.69,15.45,6.1a32.86,32.86,0,0,0,14,1.53c9.89-1,19.64-5.48,22.78-14.35,3-10,4.1-21.31-1.44-31.55-5.87-10.91-13.3-18.55-25-24.36a60.84,60.84,0,0,0-12-4.46c10.22,5,18.63,13.6,25.51,22.73,5.88,7.62,5.61,16.92,1.5,24.32a18.53,18.53,0,0,1-17.1,9.39c-8.06-.48-15.9-5.44-22.68-10.75-1.26,20.45-26.22,26.49-45.77,18.69C131.14,92.4,123,82.74,117.15,72.71,109.29,86.59,89.26,91,73,84c-11.77-5-19.4-14.47-23.44-25.12,0.2,9.44,4.44,19.22,13.29,27,9,7.51,22.06,9.72,32.81,8C104.21,92.63,111.05,88.75,118.91,86.09Z" style="fill: #69a0ba"/>
          </g>
          <g style="opacity: 0.25;mix-blend-mode: multiply">
            <path d="M224,61.58c0.23,6.92-.6,13.68-5.12,19-3.9,4.53-10.37,3.11-16.32,1.92C211.57,77.73,222.34,71.83,224,61.58Z" style="fill: #69a0ba"/>
          </g>
          <g style="opacity: 0.25;mix-blend-mode: multiply">
            <path d="M197.63,53.26A45.68,45.68,0,0,1,194.85,68c-3.42,8.77-14.31,10.85-23.77,10,6.19-4.9,12.2-10.14,18.74-15.15A22,22,0,0,0,197.63,53.26Z" style="fill: #69a0ba"/>
          </g>
          <g style="opacity: 0.25;mix-blend-mode: multiply">
            <path d="M110.3,74.82c-11.77-7.72-9.87-21.74-7.36-32.45-6.65,5.35-10.87,13.09-7.43,21.84C97.39,69.58,103.81,75.82,110.3,74.82Z" style="fill: #69a0ba"/>
          </g>
          <g style="opacity: 0.25;mix-blend-mode: multiply">
            <path d="M58.84,44.24a35.12,35.12,0,0,1,5.55-5C60.68,50.7,62.56,66,76.6,72.27c-6.83-1.29-14-2.47-18.67-8.5C53.27,56.94,54.23,49,58.84,44.24Z" style="fill: #69a0ba"/>
          </g>
          <g style="opacity: 0.25;mix-blend-mode: multiply">
            <path d="M94.46,74.3C80,67.2,79.58,51.52,80.41,38.64A21.9,21.9,0,0,0,74.29,58.7C76.3,66.83,85.15,76.25,94.46,74.3Z" style="fill: #69a0ba"/>
          </g>
          <g style="opacity: 0.25;mix-blend-mode: multiply">
            <path d="M133.39,46.36c-3.54,10.92-5.1,24.07,3,35-5.93-2.8-9.91-7.46-11.08-13.07C123.49,59.75,127.76,52.31,133.39,46.36Z" style="fill: #69a0ba"/>
          </g>
          <g style="opacity: 0.25;mix-blend-mode: multiply">
            <path d="M154.16,45.41c3.83,12.95,5.23,27.42-6.08,35.69C146.05,68.44,147.54,55.83,154.16,45.41Z" style="fill: #69a0ba"/>
          </g>
          <g style="opacity: 0.25;mix-blend-mode: multiply">
            <path d="M234.55,77.54A62.62,62.62,0,0,0,236.93,65a29.45,29.45,0,0,1,1.27,15.7c-1.64,5.76-6.59,10.64-13.59,9.81C225.88,84.88,232.91,83.3,234.55,77.54Z" style="fill: #69a0ba"/>
          </g>
        </g>
        <g>
          <g>
            <g>
              <path d="M197.26,119.83c-0.37,4.65,3.9,8.78,9.52,9.22s10.48-3,10.84-7.64-3.9-8.78-9.53-9.22-10.47,3-10.83,7.64" style="fill: #efdc3c"/>
              <path d="M187,118.33c-2.51,3.93-.69,9.58,4.06,12.62s10.65,2.3,13.17-1.64,0.68-9.58-4.07-12.61-10.64-2.3-13.15,1.64" style="fill: #efdc3c"/>
              <path d="M199.62,128.66c-1.56,4.41,1.49,9.5,6.82,11.37s10.88-.17,12.44-4.58-1.52-9.49-6.82-11.36-10.9.18-12.44,4.58" style="fill: #efdc3c"/>
            </g>
            <g>
              <path d="M187.39,117.35c3.7,2.84,9.48,1.51,12.91-3s3.19-10.41-.51-13.25-9.5-1.5-12.92,3-3.19,10.4.52,13.24" style="fill: #eebc2a"/>
              <path d="M173.12,106.95c-2.51,3.93-.69,9.58,4.05,12.62s10.65,2.3,13.17-1.64,0.69-9.58-4.06-12.62-10.64-2.3-13.16,1.64" style="fill: #eebc2a"/>
              <path d="M185.76,117.27c-1.54,4.4,1.52,9.49,6.82,11.37s10.89-.18,12.45-4.58-1.52-9.49-6.82-11.37-10.88.18-12.45,4.58" style="fill: #eebc2a"/>
            </g>
          </g>
          <g>
            <path d="M207.43,123.79a7.3,7.3,0,0,1-1.83,4.88l-0.29.3-0.29.29-0.3.3-0.33.27-0.36.25-0.34.25a13.91,13.91,0,0,1-2.34,1.15l-0.47.12-0.42.1-0.42.13-0.47.06c-8.39,1.17-13.12-6.88-15.71-13.49-0.38-1-.75-2-1.12-3-0.09-.22-0.18-0.46-0.29-0.67a15,15,0,0,0-3.61-5.88l-0.24-.19a7.61,7.61,0,0,0-7.13-1.19l-0.16.06-0.14.06-0.16,0-0.19.1c-0.13-.22-0.25-0.41-0.36-0.63-0.3-.55-0.59-1.09-0.86-1.66l-0.16-.43,0.46-.19a10.76,10.76,0,0,1,10,1c3.43,2.35,5,6.12,6.44,9.83,2,5.28,4.7,12.75,11.23,13.79,3.8,0.44,8.26-1.81,8.24-6.2-0.5-4.1-5.62-5.74-8.24-5.51a11.36,11.36,0,0,0-6.84,2.29c-0.23.18-.49,0.36-0.73,0.55l-0.07,0-0.08,0-0.1,0H189.6l-0.09,0-0.06,0-0.09,0H189.3l-0.09-.06h0l-0.06,0-0.08-.05-0.06,0,0,0,0-.07,0-.07,0,0,0-.08,0-.06,0-.08,0-.09,0-.07,0-.08V119.7l0-.09,0-.06,0.06-.08,0-.08,0,0,0.08-.07,0.35-.24a21.72,21.72,0,0,1,3.16-1.86c5.48-2.4,14.47-.81,14.86,6.62" style="fill: #008742"/>
            <path d="M179.65,117.58a17.93,17.93,0,0,1-1.87-.43A20.27,20.27,0,0,1,163,98.23l3-.32a21.32,21.32,0,0,0,13.66,19.67" style="fill: #7db82e"/>
            <path d="M184.34,122.13h0.31l0.05,0,0.1,0h0.06l0.07,0.05,0.06,0,0.06,0,0,0.08,0,0,0.06,0,0,0.07,0,0.07v0.07l0.05,0.08v0.06l0,0.07v0.07l0,0.09v0.15l0,0.05,0,0.08-0.06.06,0,0.08a2,2,0,0,1-.52.31l-0.49.18-0.49.19-0.49.18-0.51.16-0.5.13-0.55.17-0.54.13-0.52.1a21,21,0,0,1-6.73.24l-0.56-.1-0.57-.12-0.57-.13-0.54-.15-0.57-.2-0.53-.21c-4-1.7-6.54-4.69-7-9.05l0-.41V114l0-.41,0.05-.42,0-.39,0.06-.42,0.12-.41a2.61,2.61,0,0,1,.12-0.53c0.05-.2.15-0.42,0.21-0.63a0.54,0.54,0,0,0,.09-0.26c0.11-.25.21-0.5,0.36-0.77l0.07-.18,2.15,2.92-0.08.29,0,0.25,0,0.27,0,0.24,0,0.28,0,0.24v0.25l0,0.25,0,0.26,0,0.24,0,0.27,0,0.23,0,0.25c1.42,6.16,9,7.68,14.3,7.09l0.52-.07,0.49-.08,0.5-.1,0.46-.12a10.44,10.44,0,0,0,1.42-.45" style="fill: #7db82e"/>
          </g>
        </g>
        <g>
          <g>
            <g>
              <path d="M249.75,209.45a4.35,4.35,0,0,1-6.21,4h0c-2.06,4.16-5.61,7.53-10.25,8l-0.27,0-0.42,0h-0.18c-4,.06-8.69-2-13.92-7.41a12.91,12.91,0,0,1-2-2.77q-0.26-.49-0.49-1c-3.26-7.33.51-16.57,8.27-12.95a10.18,10.18,0,0,0,3.8,1,4.37,4.37,0,0,1,8.4-2.12c2.13-.67,4.12-0.81,6.17,1.11a4.39,4.39,0,0,1,4.91,4.41A4.36,4.36,0,0,1,249.75,209.45Z" style="fill: #b8cb56"/>
              <g>
                <path d="M234.37,222.21h0l0.42-.08H235s0,0,0-.07a23.42,23.42,0,0,1,.25-4c0-.3.09-0.61,0.15-0.91a37,37,0,0,1,1.25-4.89l0-.06c0.1-.32.21-0.64,0.32-1a52.54,52.54,0,0,1,2.32-5.5c0.14-.29.28-0.58,0.43-0.86a55.75,55.75,0,0,1,3.54-6.07,0.44,0.44,0,0,0-.11-0.61,0.44,0.44,0,0,0-.61.11s-1.1,1.59-2.48,4.07h0l-0.44.81c-0.29.53-.58,1.1-0.88,1.7h0l-0.19.4c-0.33.67-.65,1.37-1,2.1l-0.37.86h0c-0.5,1.18-1,2.43-1.39,3.72q-0.43,1.31-.75,2.57c-0.08.33-.16,0.65-0.23,1h0a28.35,28.35,0,0,0-.68,4.83h0c0,0.34,0,.68,0,1s0,0.57,0,.85Z" style="fill: #e5f0d6"/>
                <path d="M234.42,204.37a10.24,10.24,0,0,1-.92-3.61,0.44,0.44,0,0,1,.88-0.05,10.91,10.91,0,0,0,3.68,7.1,0.44,0.44,0,1,1-.55.69A12.12,12.12,0,0,1,234.42,204.37Z" style="fill: #e5f0d6"/>
                <path d="M238.35,201.34a5.27,5.27,0,0,1-.47-1.85,0.44,0.44,0,1,1,.88-0.05,5.12,5.12,0,0,0,1.73,3.34,0.44,0.44,0,1,1-.55.69A6.19,6.19,0,0,1,238.35,201.34Z" style="fill: #e5f0d6"/>
                <path d="M231.81,211.43a10.22,10.22,0,0,1-.92-3.61,0.44,0.44,0,1,1,.88-0.05,10.91,10.91,0,0,0,3.68,7.1,0.44,0.44,0,0,1-.55.69A12.13,12.13,0,0,1,231.81,211.43Z" style="fill: #e5f0d6"/>
                <path d="M229.45,216.24a9.8,9.8,0,0,1-.55-1.53,0.44,0.44,0,0,1,.85-0.23,10.89,10.89,0,0,0,5,6.23,0.44,0.44,0,0,1,.19.6,0.44,0.44,0,0,1-.59.19A12,12,0,0,1,229.45,216.24Z" style="fill: #e5f0d6"/>
                <path d="M236.07,212a0.48,0.48,0,0,1,0-.14,0.44,0.44,0,0,1,.4-0.48,11,11,0,0,0,7-3.91,0.44,0.44,0,0,1,.7.53,11.64,11.64,0,0,1-7.6,4.26A0.44,0.44,0,0,1,236.07,212Z" style="fill: #e5f0d6"/>
                <path d="M238.64,205.47a0.43,0.43,0,0,1,0-.27,0.44,0.44,0,0,1,.52-0.34h0a5.16,5.16,0,0,0,3.67-.79,0.44,0.44,0,1,1,.52.71,6,6,0,0,1-4.37.94A0.44,0.44,0,0,1,238.64,205.47Z" style="fill: #e5f0d6"/>
                <path d="M234.73,217.85a0.44,0.44,0,0,1,.36-0.62,10.93,10.93,0,0,0,7-3.91,0.44,0.44,0,0,1,.7.53,11.65,11.65,0,0,1-7.6,4.25A0.44,0.44,0,0,1,234.73,217.85Z" style="fill: #e5f0d6"/>
                <path d="M234.79,222.13l-0.42.08a0.44,0.44,0,0,1,.32-0.09h0.1Z" style="fill: #e5f0d6"/>
              </g>
            </g>
            <g>
              <path d="M276.3,211.66a3.67,3.67,0,0,1-5.24,3.38h0c-1.74,3.51-4.73,6.36-8.65,6.73l-0.23,0-0.36,0h-0.15c-3.35,0-7.34-1.69-11.76-6.26a10.9,10.9,0,0,1-1.72-2.34q-0.22-.41-0.41-0.83c-2.75-6.19.43-14,7-10.93a8.6,8.6,0,0,0,3.21.83,3.69,3.69,0,0,1,7.09-1.79c1.8-.57,3.48-0.69,5.21.94a3.7,3.7,0,0,1,4.15,3.72,3.65,3.65,0,0,1,1.1.32,3.68,3.68,0,0,1,1.8,4.89A3.64,3.64,0,0,1,276.3,211.66Z" style="fill: #b8cb56"/>
              <g>
                <path d="M263.32,222.44h0l0.35-.07h0.22v-0.06a19.77,19.77,0,0,1,.21-3.36c0-.26.08-0.51,0.13-0.77a31.21,31.21,0,0,1,1.05-4.13l0-.05c0.09-.27.18-0.54,0.27-0.8a44.29,44.29,0,0,1,2-4.64l0.36-.72a47.11,47.11,0,0,1,3-5.12,0.37,0.37,0,0,0-.09-0.52,0.37,0.37,0,0,0-.52.09s-0.93,1.34-2.09,3.44h0l-0.37.68c-0.24.45-.49,0.93-0.74,1.43h0l-0.16.33c-0.28.56-.55,1.15-0.83,1.77l-0.31.73h0c-0.42,1-.82,2.05-1.17,3.14q-0.36,1.11-.63,2.17c-0.07.28-.14,0.55-0.2,0.82h0a23.91,23.91,0,0,0-.57,4.08h0c0,0.29,0,.58,0,0.86s0,0.48,0,.72Z" style="fill: #e5f0d6"/>
                <path d="M263.36,207.38a8.65,8.65,0,0,1-.78-3.05,0.37,0.37,0,0,1,.74,0,9.21,9.21,0,0,0,3.11,6,0.37,0.37,0,1,1-.47.58A10.22,10.22,0,0,1,263.36,207.38Z" style="fill: #e5f0d6"/>
                <path d="M266.68,204.82a4.47,4.47,0,0,1-.4-1.57,0.37,0.37,0,1,1,.74,0,4.33,4.33,0,0,0,1.46,2.82,0.37,0.37,0,1,1-.47.58A5.23,5.23,0,0,1,266.68,204.82Z" style="fill: #e5f0d6"/>
                <path d="M261.16,213.34a8.62,8.62,0,0,1-.78-3.05,0.37,0.37,0,1,1,.74,0,9.21,9.21,0,0,0,3.11,6,0.37,0.37,0,0,1-.47.58A10.24,10.24,0,0,1,261.16,213.34Z" style="fill: #e5f0d6"/>
                <path d="M259.16,217.4a8.27,8.27,0,0,1-.47-1.3,0.37,0.37,0,0,1,.72-0.19,9.2,9.2,0,0,0,4.24,5.26,0.37,0.37,0,0,1,.16.5,0.37,0.37,0,0,1-.5.16A10.09,10.09,0,0,1,259.16,217.4Z" style="fill: #e5f0d6"/>
                <path d="M264.75,213.81a0.41,0.41,0,0,1,0-.12,0.37,0.37,0,0,1,.34-0.4,9.25,9.25,0,0,0,5.89-3.3,0.37,0.37,0,0,1,.59.45,9.83,9.83,0,0,1-6.42,3.59A0.37,0.37,0,0,1,264.75,213.81Z" style="fill: #e5f0d6"/>
                <path d="M266.92,208.3a0.36,0.36,0,0,1,0-.23,0.37,0.37,0,0,1,.44-0.29h0a4.36,4.36,0,0,0,3.1-.67,0.37,0.37,0,1,1,.44.6,5,5,0,0,1-3.69.8A0.37,0.37,0,0,1,266.92,208.3Z" style="fill: #e5f0d6"/>
                <path d="M263.62,218.75a0.38,0.38,0,0,1,0-.12,0.37,0.37,0,0,1,.33-0.41,9.23,9.23,0,0,0,5.9-3.3,0.37,0.37,0,0,1,.59.45A9.83,9.83,0,0,1,264,219,0.37,0.37,0,0,1,263.62,218.75Z" style="fill: #e5f0d6"/>
                <path d="M263.67,222.37l-0.35.07a0.37,0.37,0,0,1,.27-0.08h0.08Z" style="fill: #e5f0d6"/>
              </g>
            </g>
            <ellipse cx="245.36" cy="221.21" rx="47.2" ry="2.88" transform="translate(-1.07 1.2) rotate(-0.28)" style="fill: #b4b5b5"/>
            <ellipse cx="245.35" cy="220.85" rx="39.4" ry="2.41" transform="translate(-1.07 1.2) rotate(-0.28)" style="fill: #ececed"/>
            <g id="50486c83-7444-43be-8e45-7d27e3816681" data-name="tomato">
              <path d="M219.1,216.19a3.65,3.65,0,0,1-5.75,3h0a3.65,3.65,0,0,1,3.88-6.18l0.24,0.15h0A3.64,3.64,0,0,1,219.1,216.19Z" style="fill: #e04236"/>
              <path d="M216,212.85a13.88,13.88,0,0,1,.89,1.64,2.58,2.58,0,0,1-1.52-1.93h0a10.88,10.88,0,0,1-1.28,2.17,3.35,3.35,0,0,1,.55-1.89,8.36,8.36,0,0,1-1.51.53,3.65,3.65,0,0,1,4.1-.36l0.09,0.13A2.34,2.34,0,0,1,216,212.85Z" style="fill: #3dab4a"/>
              <path d="M219.1,216.19a3.65,3.65,0,0,1-5.75,3h0c6.67-2.73,4.19-5.94,4.13-6A3.64,3.64,0,0,1,219.1,216.19Z" style="fill: #aa3228;opacity: 0.24"/>
              <path d="M212.63,214.54a2.64,2.64,0,0,0,0,3.09C212.54,215.15,212.12,217.35,212.63,214.54Z" style="fill: #e98881"/>
            </g>
            <g>
              <path d="M276.08,220.86a5.55,5.55,0,0,0,2.69-4.78c0-6-8-7-12.34-7.1a130.74,130.74,0,0,1-38.79-5.34c-8.72-2.84-12,5.14-12.34,12.43a24.53,24.53,0,0,0,.67,4.78h60.11Z" style="fill: #be966a"/>
              <g>
                <path d="M225.5,220.86H222c-0.12-5.69,1.6-12.43,3.33-17.73a11.22,11.22,0,0,1,1.85.39A40.34,40.34,0,0,0,225.5,220.86Z" style="fill: #a47a4f"/>
                <path d="M242.85,207.18a33.58,33.58,0,0,0-3.49,13.68h-2.62a84.35,84.35,0,0,1,4-14.06Z" style="fill: #a47a4f"/>
                <path d="M256.65,220.86h-2.58a82.52,82.52,0,0,1,.3-12.29l2,0.14A34.75,34.75,0,0,0,256.65,220.86Z" style="fill: #a47a4f"/>
                <path d="M272.54,220.86h-2.28a91.33,91.33,0,0,1,.56-11.45,18.84,18.84,0,0,1,2,.47A32.67,32.67,0,0,0,272.54,220.86Z" style="fill: #a47a4f"/>
              </g>
              <path d="M278.12,213.44c-1-.12-2-0.27-2.8.94-1.55,2.48-1.59,1.05-5.7,2.64s-5.93-3-10.28-3.36-3.92,1-7.63,2.8-7.6-6-13-.19-0.55-8.45-4.58-1.89,2.38-3.19-5.34-1.22c-5.64,1.44-8.17-4.94-9.12-8.49,1.91-1.57,4.52-2.16,8-1A130.8,130.8,0,0,0,266.43,209C270.06,209.09,276.13,209.81,278.12,213.44Z" style="fill: #cbaa86;opacity: 0.58"/>
              <g>
                <path d="M277.77,212.89q-2.45.82-4.88,1.37l-0.58.13-0.5.11-1.3.26h0a55.35,55.35,0,0,1-6.65.79l-0.7,0a61.36,61.36,0,0,1-10-.37l-1-.13a70.33,70.33,0,0,1-7.63-1.46h0l-1.06-.27h0c-1-.27-2-0.55-3-0.86l-1.81-.58a85.64,85.64,0,0,1-8.27-3.23l-0.53-.24h0c-2.77-1.27-5.21-2.57-7.27-3.76h0l-0.47-.28h0l-1-.6a7.72,7.72,0,0,1,4.77-.6,12.4,12.4,0,0,1,1.87.46l0.11,0,0.31,0.09h0l0.7,0.21h0a121.25,121.25,0,0,0,14.07,3.2l1,0.16h0l1,0.16h0l1.5,0.22h0q5.05,0.69,10.15,1l0.75,0q4.52,0.25,9.1.22l1.15,0.05,0.63,0C271.57,209.35,275.85,210.23,277.77,212.89Z" style="fill: #a47a4f"/>
                <g>
                  <path d="M228.78,204l-0.43.07-0.95.15a33.75,33.75,0,0,1-4.91.46h0l-0.47-.28a29.92,29.92,0,0,0,5-.43l0.94-.16,0.13,0h0Z" style="fill: #584942"/>
                  <path d="M246.42,207.73l-2,.08-0.81,0c-2.95.12-5.89,0.27-8.83,0.48h0l-1,.07h0l-3.42.29-0.53-.24,3.58-.3h0l1-.07h0c3-.21,5.93-0.36,8.91-0.49l0.81,0,0.82,0h0Z" style="fill: #584942"/>
                  <path d="M271.81,214.49l-1.3.26h0c-2.4-.1-4.78-0.48-7.17-0.75-3.06-.35-6.16-0.43-9.24-0.48l-3.1,0h-0.86q-2.83,0-5.65.14h0l-1.06-.27q3.17-.15,6.35-0.18h0.86l3,0c3.12,0,6.28.1,9.39,0.46a72.46,72.46,0,0,0,8.59.82A0.68,0.68,0,0,1,271.81,214.49Z" style="fill: #584942"/>
                  <path d="M240.38,212.49l-1.81-.58q-2.38-1.82-4.84-3.52h0l-0.37-.26h0c-2-1.35-3.94-2.65-5.95-3.92L227,204l-1.22-.77a12.4,12.4,0,0,1,1.87.46l0.11,0,0.18,0.11,0.41,0.26q3.05,1.94,6,4h0l0.37,0.26h0C236.66,209.67,238.54,211.05,240.38,212.49Z" style="fill: #584942"/>
                  <path d="M253.15,215.21l-1-.13q-1-.79-2-1.6l-0.38-.31q-3.16-2.59-6.19-5.33l-0.29-.27-0.43-.39,1,0.16h0l0.21,0.19,0.29,0.26q3.06,2.75,6.23,5.37h0l0.38,0.31Q252.07,214.36,253.15,215.21Z" style="fill: #584942"/>
                </g>
                <path d="M263.85,215.54l-0.7,0c-2.26-2.2-4.38-4.57-6.57-6.86l0.75,0C259.49,211,261.59,213.37,263.85,215.54Z" style="fill: #584942"/>
                <path d="M272.89,214.25l-0.58.13c-1-.94-1.91-1.9-2.78-2.93a27.61,27.61,0,0,1-1.95-2.42l0.63,0a27.06,27.06,0,0,0,2.79,3.25C271.62,213,272.25,213.63,272.89,214.25Z" style="fill: #584942"/>
              </g>
            </g>
            <g>
              <path d="M257.33,210.42a6.05,6.05,0,0,1-1-1.12,7.86,7.86,0,0,1-.79-1.32,5.61,5.61,0,0,1-.48-1.48,2.32,2.32,0,0,1,.19-1.55,4.14,4.14,0,0,0,.31,1.42c0.17,0.45.37,0.89,0.58,1.33C256.49,208.59,257,209.46,257.33,210.42Z" style="fill: #066c38"/>
              <path d="M256.74,210.42a6,6,0,0,0-1.48.42,7.88,7.88,0,0,0-1.36.72,5.62,5.62,0,0,0-1.18,1,2.32,2.32,0,0,0-.64,1.43,4.14,4.14,0,0,1,1-1.06c0.38-.3.78-0.57,1.18-0.84C255.08,211.56,255.92,211.05,256.74,210.42Z" style="fill: #108d42"/>
              <path d="M252.91,209.76a4.58,4.58,0,0,0-1.14.27,6,6,0,0,0-1.06.5,4.27,4.27,0,0,0-.93.74,1.76,1.76,0,0,0-.53,1.06,3.15,3.15,0,0,1,.79-0.77c0.3-.21.61-0.41,0.93-0.6C251.61,210.57,252.27,210.21,252.91,209.76Z" style="fill: #066c38"/>
              <path d="M249.88,209.08a3.14,3.14,0,0,0-.77.22,4.11,4.11,0,0,0-.71.37,2.93,2.93,0,0,0-.61.53,1.2,1.2,0,0,0-.33.74,2.14,2.14,0,0,1,.52-0.55c0.19-.16.4-0.3,0.61-0.44C249,209.67,249.45,209.41,249.88,209.08Z" style="fill: #066c38"/>
              <path d="M245.63,207.32a3.14,3.14,0,0,0-.77.22,4.1,4.1,0,0,0-.71.37,2.92,2.92,0,0,0-.61.53,1.21,1.21,0,0,0-.33.74,2.15,2.15,0,0,1,.52-0.55c0.19-.16.4-0.3,0.61-0.44C244.77,207.91,245.21,207.65,245.63,207.32Z" style="fill: #066c38"/>
              <path d="M241.78,205.35a3.14,3.14,0,0,0-.77.22,4.12,4.12,0,0,0-.71.37,2.92,2.92,0,0,0-.61.53,1.2,1.2,0,0,0-.33.74,2.15,2.15,0,0,1,.52-0.55c0.19-.16.4-0.3,0.61-0.44C240.92,205.94,241.35,205.68,241.78,205.35Z" style="fill: #066c38"/>
              <path d="M254.45,210a5.13,5.13,0,0,1-.89-1,6.67,6.67,0,0,1-.68-1.12,4.77,4.77,0,0,1-.41-1.26,2,2,0,0,1,.16-1.32,3.52,3.52,0,0,0,.26,1.21c0.14,0.38.32,0.76,0.49,1.13C253.73,208.45,254.13,209.19,254.45,210Z" style="fill: #066c38"/>
              <path d="M251.8,209.46a5.12,5.12,0,0,1-1-.79,6.68,6.68,0,0,1-.86-1,4.76,4.76,0,0,1-.62-1.17,2,2,0,0,1-.07-1.33,3.53,3.53,0,0,0,.47,1.15c0.21,0.35.44,0.69,0.68,1C250.83,208,251.35,208.71,251.8,209.46Z" style="fill: #066c38"/>
              <path d="M247.9,208.25a5.14,5.14,0,0,1-.89-1,6.68,6.68,0,0,1-.68-1.12,4.78,4.78,0,0,1-.41-1.26,2,2,0,0,1,.16-1.32,3.52,3.52,0,0,0,.26,1.21c0.14,0.38.32,0.76,0.49,1.13C247.19,206.69,247.59,207.43,247.9,208.25Z" style="fill: #066c38"/>
              <path d="M244,206.52a4.28,4.28,0,0,1-.74-0.8,5.6,5.6,0,0,1-.56-0.93,4,4,0,0,1-.34-1.05,1.65,1.65,0,0,1,.13-1.1,2.93,2.93,0,0,0,.22,1c0.12,0.32.26,0.63,0.41,0.95C243.4,205.22,243.73,205.84,244,206.52Z" style="fill: #066c38"/>
              <path d="M240.57,204.58A3.2,3.2,0,0,1,240,204a4.19,4.19,0,0,1-.42-0.7,3,3,0,0,1-.25-0.79,1.23,1.23,0,0,1,.1-0.82,2.2,2.2,0,0,0,.16.76c0.09,0.24.2,0.47,0.31,0.71C240.13,203.61,240.37,204.07,240.57,204.58Z" style="fill: #108d42"/>
              <path d="M255.26,210.42s-1.37-2.48-.81-3.2C254.56,207.72,255.12,209.47,255.26,210.42Z" style="fill: #108d42"/>
              <path d="M254.15,209.95s-1.59,2.35-2.48,2.18C252.07,211.8,253.37,210.5,254.15,209.95Z" style="fill: #108d42"/>
              <path d="M247.47,208s-1.17,1.74-1.84,1.61C245.93,209.38,246.89,208.42,247.47,208Z" style="fill: #108d42"/>
              <path d="M243.84,206.1s-1.17,1.74-1.84,1.61C242.3,207.47,243.26,206.51,243.84,206.1Z" style="fill: #108d42"/>
              <path d="M240.3,204.43s-2,.61-2.44.1C238.24,204.53,239.59,204.39,240.3,204.43Z" style="fill: #108d42"/>
              <path d="M249.14,208.82s-1.37-2.48-.81-3.2C248.44,206.12,249,207.87,249.14,208.82Z" style="fill: #108d42"/>
              <path d="M245.37,207.53s-1.37-2.48-.81-3.2C244.67,204.83,245.23,206.58,245.37,207.53Z" style="fill: #108d42"/>
              <path d="M241.6,205.14s-1-1.83-.6-2.36C241.09,203.15,241.5,204.44,241.6,205.14Z" style="fill: #108d42"/>
              <path d="M237.9,202.78a41.34,41.34,0,0,0,6.31,3.62,42.14,42.14,0,0,0,6.79,2.54,41.48,41.48,0,0,0,7.1,1.23c1.2,0.11,2.4.16,3.6,0.16s2.42-.07,3.63-0.19l0,0.08A22,22,0,0,1,258,211a29,29,0,0,1-7.23-1.43,42.69,42.69,0,0,1-6.78-2.81,41.57,41.57,0,0,1-6.18-3.93Z" style="fill: #066c38"/>
            </g>
            <g id="9212ed35-ada8-4228-a080-e5a9eec2223b" data-name="tomato">
              <path d="M281.77,217.85a3.65,3.65,0,0,1-5.75,3h0a3.65,3.65,0,0,1,3.88-6.18l0.24,0.15h0A3.64,3.64,0,0,1,281.77,217.85Z" style="fill: #e04236"/>
              <path d="M278.7,214.51a13.85,13.85,0,0,1,.89,1.64,2.58,2.58,0,0,1-1.52-1.93h0a10.87,10.87,0,0,1-1.28,2.17,3.36,3.36,0,0,1,.55-1.89,8.35,8.35,0,0,1-1.51.53,3.65,3.65,0,0,1,4.1-.36l0.09,0.13A2.34,2.34,0,0,1,278.7,214.51Z" style="fill: #3dab4a"/>
              <path d="M281.77,217.85a3.65,3.65,0,0,1-5.75,3h0c6.67-2.73,4.19-5.94,4.13-6A3.64,3.64,0,0,1,281.77,217.85Z" style="fill: #aa3228;opacity: 0.24"/>
              <path d="M275.31,216.2a2.64,2.64,0,0,0,0,3.09C275.21,216.81,274.8,219,275.31,216.2Z" style="fill: #e98881"/>
            </g>
            <g id="3b4e752e-3b1e-44e2-b82b-af0447df7a3e" data-name="lemon cut">
              <g style="opacity: 0.24">
                <g>
                  <path d="M223.3,215.23a1,1,0,0,1-2,0,0.94,0.94,0,0,1,.13-0.48,1,1,0,0,1,1.69,0A0.94,0.94,0,0,1,223.3,215.23Z" style="fill: #95795b"/>
                  <path d="M223.17,214.75a1,1,0,0,1-1.69,0A1,1,0,0,1,223.17,214.75Z" style="fill: #95795b"/>
                </g>
                <path d="M217.47,212.53c-0.38.73-1.22,2.76-1.31,2.74a8.42,8.42,0,0,1,.68-3.11c0.25-.48,1.44-1.8,1.64-1.58S217.71,212.06,217.47,212.53Z" style="fill: #95795b;opacity: 0.42"/>
                <path d="M217.76,221.08a7.42,7.42,0,0,1,3-13.12C220.19,208.2,210.81,212,217.76,221.08Z" style="fill: #95795b"/>
              </g>
              <g>
                <path d="M228.72,214.2a7.71,7.71,0,1,1-3.89-6.7h0A7.73,7.73,0,0,1,228.72,214.2Z" style="fill: #e9bd18"/>
                <path d="M228.43,214.2a7.42,7.42,0,1,1-3.75-6.45h0A7.42,7.42,0,0,1,228.43,214.2Z" style="fill: #f4e097"/>
                <path d="M228.07,214.2a7.06,7.06,0,0,1-6.89,7.06h-0.34a7.06,7.06,0,0,1,0-14.12h0.34a7,7,0,0,1,3.32.92h0A7.06,7.06,0,0,1,228.07,214.2Z" style="fill: #ebc83b"/>
                <path d="M221.18,207.14v14.12h-0.34V207.14h0.34Z" style="fill: #f4e097"/>
                <path d="M215,210.51l12.23,7.06-0.08.15-0.09.15-12.23-7.06,0.08-.15Z" style="fill: #f4e097"/>
                <path d="M214.82,217.56L227,210.5l0.09,0.15,0.08,0.15L215,217.86l-0.09-.15Z" style="fill: #f4e097"/>
              </g>
              <path d="M228.72,214.2a7.71,7.71,0,0,1-13.49,5.1l0.42,0,0.54,0a12.79,12.79,0,0,0,4.65-.58l0.34-.13a7.37,7.37,0,0,0,3.18-2.32l0.21-.28a9.78,9.78,0,0,0,1.63-4.66c0-.14,0-0.28,0-0.42,0-.53,0-1,0-1.47q0-.29,0-0.55c0-.15,0-0.29,0-0.43A7.68,7.68,0,0,1,228.72,214.2Z" style="fill: #b2972a;opacity: 0.24"/>
            </g>
          </g>
          <g id="a117f43d-a122-4c64-b248-56820b0cf3f1" data-name="smoke" style="opacity: 0.32">
            <path d="M270,162.8S246,149,233.26,147.61c-9.08-1-12.34-.58-5.7,7.41,5.89,7.08,34.28,15.19,29.18,26.45,9.72-5.1-10.56-16.7-13.65-19.42C223.25,144.66,270,162.8,270,162.8Z" style="fill: #bbbcbc"/>
          </g>
          <g id="ddf0bf72-8f10-430a-8671-6edc77a3d914" data-name="smoke" style="opacity: 0.32">
            <path d="M257.68,179.4s-11.83-6.8-18.12-7.5c-4.48-.5-6.09-0.29-2.81,3.66,2.91,3.49,16.92,7.5,14.4,13.05,4.8-2.52-5.21-8.25-6.74-9.58C234.61,170.44,257.68,179.4,257.68,179.4Z" style="fill: #bbbcbc"/>
          </g>
        </g>
      </g>
    </g>
  </g>
</svg>
