<svg xmlns="http://www.w3.org/2000/svg" xmlns:xlink="http://www.w3.org/1999/xlink" width="300" height="300" viewBox="0 0 300 300">
  <defs>
    <clipPath id="e5e0ef00-a1f2-462b-856a-88d668d203ac">
      <path id="503c980f-ee68-4bca-89d1-0eb4b41240bc" data-name="SVGID" d="M70,164.41c-6.15,6-9,13-6.48,15.6s9.65,0,15.79-6,9-13,6.47-15.61a3.24,3.24,0,0,0-1.54-.87c-3.25-.84-9.07,1.87-14.24,6.89" style="fill: none"/>
    </clipPath>
    <linearGradient id="f2194a01-e860-40e5-b067-f79fb4d97956" x1="-564.14" y1="1000.8" x2="-563.72" y2="1000.8" gradientTransform="translate(38124.73 -67344.9) scale(67.46)" gradientUnits="userSpaceOnUse">
      <stop offset="0" stop-color="#85b644"/>
      <stop offset="0.08" stop-color="#8cba48"/>
      <stop offset="0.42" stop-color="#a3c856"/>
      <stop offset="0.73" stop-color="#b1d15e"/>
      <stop offset="1" stop-color="#b6d461"/>
    </linearGradient>
    <clipPath id="9e598dd0-98f6-4431-bd47-3cdfe58cc34b">
      <path id="2662cf79-38cf-4e49-a94a-85970e93e47d" data-name="SVGID" d="M222.07,159.7c-2,3.06,2.07,9.41,9.19,14.17s14.57,6.14,16.61,3.08-2.06-9.42-9.19-14.18c-6.66-4.45-13.59-5.95-16.15-3.61a3,3,0,0,0-.47.54" style="fill: none"/>
    </clipPath>
    <linearGradient id="30b3cb96-dd53-48e8-89e2-663b0457d9f3" x1="-552.91" y1="1010.21" x2="-552.48" y2="1010.21" gradientTransform="translate(-67925.34 -37125.54) rotate(-90) scale(67.47)" xlink:href="#f2194a01-e860-40e5-b067-f79fb4d97956"/>
    <clipPath id="d58aa373-f578-480b-bd85-189dbea89c43">
      <path id="3458d0ae-6af4-4bb9-90cc-054fb2d4cded" data-name="SVGID" d="M179.26,204.41c-3.45,1.27-3.85,8.83-.88,16.87s8.19,13.53,11.65,12.24,3.86-8.83.88-16.87c-2.78-7.52-7.52-12.8-11-12.4a2.94,2.94,0,0,0-.7.17" style="fill: none"/>
    </clipPath>
    <linearGradient id="8fa57dfd-8f8a-435c-893d-12a6a98db499" x1="-555.81" y1="1007.64" x2="-555.39" y2="1007.64" gradientTransform="translate(-67803.79 -37268.76) rotate(-90) scale(67.47)" xlink:href="#f2194a01-e860-40e5-b067-f79fb4d97956"/>
    <clipPath id="43b0a423-9c00-4cfe-92f1-359d780b7890">
      <path id="a6073116-3b4c-454f-b1b8-59aae0d727fb" data-name="SVGID" d="M102.51,211.12c-3.58,7.79-3.77,15.34-.42,16.89s9-3.52,12.56-11.31,3.76-15.35.41-16.89a3.24,3.24,0,0,0-1.75-.25c-3.34.38-7.79,5-10.8,11.56" style="fill: none"/>
    </clipPath>
    <linearGradient id="c9cad107-bd33-4660-a4ce-14a5f05ed41b" x1="-564.37" y1="1000.14" x2="-563.94" y2="1000.14" gradientTransform="translate(-67362.51 -37849.04) rotate(-90) scale(67.46)" xlink:href="#f2194a01-e860-40e5-b067-f79fb4d97956"/>
    <clipPath id="0cfc7cc0-f5d4-4004-9580-6120d2e13d98">
      <path id="6babcf11-c12a-47ee-9409-97f0593e4c73" data-name="SVGID" d="M82.31,102.13A83.2,83.2,0,1,0,145.9,59.34a83.2,83.2,0,0,0-63.59,42.79" style="fill: none"/>
    </clipPath>
    <linearGradient id="612166c3-228e-4de7-86d8-fd0cbabefd10" x1="-568.34" y1="1014.91" x2="-567.92" y2="1014.91" gradientTransform="matrix(-392.5, 0, 0, -392.5, -222839.91, 398502.23)" gradientUnits="userSpaceOnUse">
      <stop offset="0" stop-color="#b6d461"/>
      <stop offset="1" stop-color="#b6d461"/>
      <stop offset="1" stop-color="#85b644"/>
    </linearGradient>
    <clipPath id="d03e8408-1f2f-4253-adc4-34dcd813a04a">
      <path id="f7fc0055-2dd1-4ed6-884d-5f4a5f472bcc" data-name="SVGID" d="M101.48,83.16a79.77,79.77,0,1,0,44.67-20.4,79.78,79.78,0,0,0-44.67,20.4" style="fill: none"/>
    </clipPath>
    <linearGradient id="3bcea472-ff9e-4d47-b6f3-c7015f3ca171" x1="-567.85" y1="1012.96" x2="-567.42" y2="1012.96" gradientTransform="matrix(0, -376.45, 376.45, 0, -381173.96, -213539.07)" xlink:href="#f2194a01-e860-40e5-b067-f79fb4d97956"/>
    <clipPath id="9dc9e8f5-d935-443f-a15c-200f95556e54">
      <rect id="a330e9d1-1f91-49c2-aa65-87bcaf904826" data-name="SVGID" x="202.52" y="130.37" width="27" height="21.76" style="fill: none"/>
    </clipPath>
    <clipPath id="1025c280-15a9-40a9-9d3a-8e5420c6c7c1">
      <rect id="844757a2-5416-4341-987f-3b21112f94fb" data-name="SVGID" x="78.44" y="131.67" width="27" height="21.76" style="fill: none"/>
    </clipPath>
  </defs>
  <title>00_遊戲人物</title>
  <g style="isolation: isolate">
    <g id="4e941ac6-5dcb-4c37-8862-d83a4049d4ce" data-name="圖層 1">
      <g>
        <g>
          <g style="clip-path: url(#e5e0ef00-a1f2-462b-856a-88d668d203ac)">
            <rect x="59.01" y="157.31" width="31" height="25.2" transform="translate(-110.7 180.79) rotate(-69.68)" style="fill: url(#f2194a01-e860-40e5-b067-f79fb4d97956)"/>
          </g>
          <g style="clip-path: url(#9e598dd0-98f6-4431-bd47-3cdfe58cc34b)">
            <rect x="218.8" y="151.17" width="32.89" height="34.89" transform="translate(34.5 377.11) rotate(-81.72)" style="fill: url(#30b3cb96-dd53-48e8-89e2-663b0457d9f3)"/>
          </g>
          <g style="clip-path: url(#d58aa373-f578-480b-bd85-189dbea89c43)">
            <rect x="168.25" y="201.91" width="32.89" height="34.89" transform="translate(-101.33 198.81) rotate(-45.79)" style="fill: url(#8fa57dfd-8f8a-435c-893d-12a6a98db499)"/>
          </g>
          <g style="clip-path: url(#43b0a423-9c00-4cfe-92f1-359d780b7890)">
            <rect x="96.07" y="199.14" width="25.2" height="31" transform="translate(-2.97 1.53) rotate(-0.79)" style="fill: url(#c9cad107-bd33-4660-a4ce-14a5f05ed41b)"/>
          </g>
          <g style="clip-path: url(#0cfc7cc0-f5d4-4004-9580-6120d2e13d98)">
            <rect x="47.76" y="43.99" width="216.43" height="207.25" transform="translate(-35.25 49.89) rotate(-16.35)" style="fill: url(#612166c3-228e-4de7-86d8-fd0cbabefd10)"/>
          </g>
          <g style="clip-path: url(#d03e8408-1f2f-4253-adc4-34dcd813a04a)">
            <rect x="34.23" y="24.33" width="243.42" height="245.99" transform="translate(-48.11 213.54) rotate(-61.35)" style="fill: url(#3bcea472-ff9e-4d47-b6f3-c7015f3ca171)"/>
          </g>
          <g>
            <g>
              <g>
                <path d="M217.26,74.63c-0.37,4.65,3.9,8.78,9.52,9.22s10.48-3,10.84-7.64-3.9-8.78-9.53-9.22-10.47,3-10.83,7.64" style="fill: #efdc3c"/>
                <path d="M207,73.13c-2.51,3.93-.69,9.59,4.05,12.62s10.65,2.3,13.17-1.64,0.68-9.58-4.07-12.61-10.64-2.3-13.15,1.63" style="fill: #efdc3c"/>
                <path d="M219.62,83.45c-1.56,4.41,1.49,9.5,6.82,11.37s10.88-.17,12.44-4.58-1.52-9.49-6.82-11.36-10.9.18-12.44,4.58" style="fill: #efdc3c"/>
              </g>
              <g>
                <path d="M207.39,72.14c3.7,2.84,9.48,1.51,12.91-3s3.19-10.41-.51-13.25-9.5-1.5-12.92,3-3.19,10.4.52,13.24" style="fill: #eebc2a"/>
                <path d="M193.11,61.74c-2.51,3.93-.69,9.58,4.05,12.62s10.65,2.3,13.17-1.64,0.69-9.58-4.06-12.62-10.64-2.3-13.16,1.64" style="fill: #eebc2a"/>
                <path d="M205.76,72.07c-1.54,4.4,1.52,9.49,6.82,11.37s10.89-.18,12.45-4.58-1.52-9.49-6.82-11.37-10.88.18-12.45,4.58" style="fill: #eebc2a"/>
              </g>
            </g>
            <g>
              <path d="M227.42,78.58a7.3,7.3,0,0,1-1.83,4.88l-0.29.3L225,84l-0.3.3-0.33.27-0.36.25-0.34.25a14,14,0,0,1-2.34,1.15l-0.47.12-0.42.1-0.42.13-0.47.06c-8.39,1.17-13.12-6.88-15.71-13.49-0.38-1-.75-2-1.12-3-0.09-.22-0.18-0.46-0.29-0.67a15,15,0,0,0-3.61-5.88l-0.24-.19a7.61,7.61,0,0,0-7.13-1.19l-0.16.06-0.14.05-0.16,0-0.19.1c-0.13-.22-0.25-0.41-0.36-0.63-0.3-.55-0.59-1.09-0.86-1.66-0.05-.14-0.11-0.28-0.16-0.43l0.46-.19a10.76,10.76,0,0,1,10,1c3.43,2.35,5,6.13,6.44,9.83,2,5.28,4.7,12.75,11.23,13.79,3.8,0.44,8.26-1.8,8.24-6.2-0.5-4.1-5.62-5.74-8.24-5.51a11.35,11.35,0,0,0-6.84,2.29c-0.23.18-.49,0.36-0.73,0.55l-0.07,0-0.08,0-0.1,0h-0.13l-0.09,0-0.06,0-0.09,0H209.3l-0.09-.06h0l-0.06,0L209,75.28l-0.06,0,0,0,0-.07,0-.07,0,0,0-.08,0-.06,0-.08,0-.09,0-.07,0-.08V74.49l0-.09,0-.05,0.06-.08,0-.08,0,0,0.08-.07,0.35-.24A21.73,21.73,0,0,1,212.56,72c5.48-2.4,14.47-.81,14.86,6.62" style="fill: #008742"/>
              <path d="M199.64,72.37a17.62,17.62,0,0,1-1.87-.43A20.28,20.28,0,0,1,183,53l3-.32a21.32,21.32,0,0,0,13.66,19.67" style="fill: #7db82e"/>
              <path d="M204.33,76.92h0.31l0.05,0,0.1,0h0.06L204.92,77,205,77l0.06,0,0,0.07,0,0,0.06,0,0,0.07,0,0.07v0.07l0.05,0.08v0.06l0,0.07v0.07l0,0.09v0.15l0,0.05,0,0.08-0.06.06,0,0.07a2,2,0,0,1-.52.31l-0.49.18-0.49.19-0.49.17-0.51.16-0.5.13-0.55.17-0.54.13-0.52.1a21,21,0,0,1-6.73.24l-0.56-.1-0.57-.12-0.57-.12-0.54-.15L191,79.3l-0.53-.21c-4-1.7-6.54-4.69-7-9.05l0-.41V68.84l0-.41,0.05-.42,0-.39,0.06-.42,0.12-.41a2.59,2.59,0,0,1,.12-0.53c0.05-.2.15-0.42,0.21-0.63a0.55,0.55,0,0,0,.09-0.26c0.11-.25.21-0.5,0.36-0.77l0.07-.18,2.15,2.92-0.08.29,0,0.25,0,0.27,0,0.24,0,0.28,0,0.24v0.25l0,0.25,0,0.26,0,0.24,0,0.27,0,0.23,0,0.25c1.42,6.17,9,7.68,14.31,7.09l0.52-.07,0.49-.09,0.5-.1,0.46-.12a10.42,10.42,0,0,0,1.42-.45" style="fill: #7db82e"/>
            </g>
          </g>
        </g>
        <path d="M129.54,168.4a21.29,21.29,0,0,0,3.77,3.65,31,31,0,0,0,18.46,5.62c8.83,0,17.57-3.16,23.36-8.45,5.39-4.92,8-14.67,5.6-20.87-1.52-3.92-4.86-5.94-9.62-5.8-3.08.09-5.52,1.22-8.11,2.42-3,1.37-6,2.8-10,2.44a27.26,27.26,0,0,1-8-2.39c-2.71-1.12-5.27-2.19-8-2.25h-0.61c-5.66,0-9.59,2-11.37,5.73-2.81,5.92.18,14.5,4.59,19.91" style="fill: #2c230d"/>
        <path d="M137,142.26c-4.63-.11-7.9,1-10.08,2.89,0.29,5,2.87,9.65,8.19,9.85,5.75,0.22,7.87-5.44,8.69-11a19.56,19.56,0,0,0-6.81-1.71" style="fill: #fff"/>
        <path d="M171.1,142c-4.47.12-7.74,2.42-11.47,3.83,2.31,6.64,10.59,12.44,14.23-3.65a14.13,14.13,0,0,0-2.75-.18" style="fill: #fff"/>
        <path d="M173.21,171.47c-6.29-6.82-12.31-13.36-23.58-10.09-7.47,2.17-11.32,7.11-13.14,13.27,11.12,5.82,26.65,4.26,36.71-3.18" style="fill: #e14d11"/>
        <path d="M126.81,91.37c26.43,8.3,18.54,53.15-11.57,42.61C91.11,125.52,99,82.64,126.81,91.37" style="fill: #fff"/>
        <path d="M120,105.14c13,2.85,11.1,29.13-4.7,24.24-13.56-4.2-10.27-27.53,4.7-24.24" style="fill: #2c230d"/>
        <path d="M186.57,91.37C213,99.67,205.11,144.52,175,134c-24.13-8.45-16.22-51.34,11.57-42.61" style="fill: #fff"/>
        <path d="M179.73,105.14c13,2.85,11.1,29.13-4.7,24.24-13.56-4.2-10.27-27.53,4.7-24.24" style="fill: #2c230d"/>
        <g style="opacity: 0.5">
          <g style="clip-path: url(#9dc9e8f5-d935-443f-a15c-200f95556e54)">
            <path d="M227.32,134.82c3.34,4.42,3.23,12.28-2.81,15.64s-16.95,1.42-20.47-3.23c-7.47-9.87,14.38-24.22,23.28-12.41" style="fill: #e0256d"/>
          </g>
        </g>
        <g style="opacity: 0.5">
          <g style="clip-path: url(#1025c280-15a9-40a9-9d3a-8e5420c6c7c1)">
            <path d="M80.64,136.12c-3.34,4.42-3.23,12.28,2.81,15.64s16.95,1.42,20.47-3.23c7.47-9.87-14.38-24.22-23.28-12.41" style="fill: #e0256d"/>
          </g>
        </g>
        <g>
          <g>
            <path d="M76.93,199.82l-7.13,1L51.6,38.15a4.26,4.26,0,0,1,7.13-1Z" style="fill: #563424"/>
            <path d="M69.8,200.79L51.6,38.15a4.38,4.38,0,0,1,3.29-2.44Z" style="fill: #774531"/>
          </g>
          <g>
            <path d="M80,188.43c1.12,0.08-.58,10,0.64,15l0.07,0.52,0.92,6.72a174.22,174.22,0,0,1,27.26,43.07c-0.36-.45-0.73-0.85-1-1.18s-0.66-.72-0.74-0.79c0.05,0.09.24,0.45,0.51,0.95a19.29,19.29,0,0,1,1,2.15,11.91,11.91,0,0,1,.46,1.58c-0.46.21-1,.4-1.42,0.6a0.33,0.33,0,0,0-.06-0.16,10.53,10.53,0,0,0-1.47-2.55,9.35,9.35,0,0,0-.89-1s0.24,0.42.6,1.13a8.46,8.46,0,0,1,.81,2.65l0,0.26a4.46,4.46,0,0,1-1.22.47,31.51,31.51,0,0,1-1.76-3.45c-0.71-1.54-1.41-3.09-2.07-4.2a16.43,16.43,0,0,0-1.12-1.75,14.44,14.44,0,0,1,.9,1.87c0.49,1.16,1,2.77,1.5,4.39a36.31,36.31,0,0,0,1.32,3.6c-1.34.49-2.68,0.95-4,1.36-0.14-.52-0.32-1.06-0.51-1.61A22,22,0,0,0,98.29,255a7.56,7.56,0,0,1-.59-1.28,5.83,5.83,0,0,0,.34,1.4,19.7,19.7,0,0,1,.86,3.19,14.64,14.64,0,0,1,.22,1.73c-1.36.4-2.72,0.78-4.11,1.13-0.05-.18-0.1-0.37-0.15-0.53-0.21-.79-0.46-1.62-0.75-2.43-0.55-1.64-1.18-3.22-1.68-4.41-0.43-1-.73-1.75-0.81-1.92,0,0.17.27,0.93,0.56,2,0.34,1.24.76,2.89,1.09,4.55,0.17,0.83.31,1.66,0.43,2.45,0,0.2.06,0.4,0.08,0.6-1.45.34-2.92,0.66-4.38,0.95-0.07-.29-0.14-0.57-0.22-0.86a15.33,15.33,0,0,0-1.75-4.33,8,8,0,0,0-.94-1.23c-0.19-.18-0.33-0.32-0.39-0.37s0.17,0.21.33,0.43a7.29,7.29,0,0,1,.77,1.29,14.68,14.68,0,0,1,1.13,4.37q0.06,0.45.09,0.87-3.89.69-7.87,1.13c-0.31-.79-0.56-1.55-0.75-2.18s-0.37-1.21-.41-1.32c0,0.12.07,0.65,0.15,1.38s0.15,1.36.29,2.17c-1.14.11-2.29,0.2-3.45,0.29l-0.91.05-0.15-.66a23.46,23.46,0,0,0-1.58-3.92c-0.46-.89-0.84-1.49-0.93-1.62,0.06,0.14.35,0.79,0.67,1.72a21.87,21.87,0,0,1,1,4c0,0.18,0,.36.05,0.54-1.79.08-3.58,0.14-5.37,0.14H67.88a50.48,50.48,0,0,0-1.06-5.82q-0.19-.75-0.38-1.34c-0.13-.39-0.25-0.74-0.37-1s-0.28-.69-0.34-0.8c0,0.12.14,0.4,0.27,0.82s0.18,0.63.27,1,0.2,0.86.28,1.37a50,50,0,0,1,.57,5.76c-1.41,0-2.8-.07-4.22-0.14-0.26-3-.66-6-1.05-8.24s-0.71-3.74-.78-4.1c0,0.35.28,1.93,0.51,4.15s0.46,5.15.53,8.14c-0.44,0-.89-0.06-1.33-0.09,0-.07,0-0.15,0-0.25a18,18,0,0,0-.14-2.62,5,5,0,0,0-.25-1.08,10.21,10.21,0,0,1,0,1.09,17.84,17.84,0,0,1-.44,2.5c0,0.11,0,.19-0.07.28-1-.07-2-0.15-3-0.25a1.43,1.43,0,0,0,.09-0.21,18.94,18.94,0,0,0,.9-3.27,11.5,11.5,0,0,0,.19-1.42c-0.06.2-.21,0.7-0.45,1.35a19,19,0,0,1-1.42,3l-0.3.48-1.58-.15c0.11-.67.24-1.36,0.41-2.08,0.32-1.35.7-2.7,1-3.7s0.46-1.51.52-1.65c-0.08.14-.37,0.73-0.77,1.55s-1.06,2.23-1.61,3.53c-0.14.39-.29,0.77-0.42,1.15,1.82-14.14,5.68-28.42,10.59-42.71,0.8-2.33,1.64-4.66,2.49-7l-0.82-6.12-0.09-.59-1.43-6.67c-0.55-3.72,5.75-6.22,11.22-7.65C79.37,190.48,80,188.43,80,188.43Z" style="fill: #d08000"/>
            <g>
              <path d="M102.18,257.06a35.15,35.15,0,0,0-3.48-10.51c-0.69-1.34-1.22-2.18-1.22-2.18s0.44,0.9,1,2.29a34.3,34.3,0,0,1,2.27,10.56c0.06,1.14.05,2,0,2.29l1.67-.55C102.39,258.51,102.31,257.86,102.18,257.06Z" style="fill: #bc7015"/>
              <path d="M95.37,250.09s0,3.26.34,6.52c0.13,1.53.32,3,.48,4.23l1.38-.38c-0.31-1.12-.68-2.55-1-4C95.84,253.32,95.37,250.09,95.37,250.09Z" style="fill: #bc7015"/>
              <path d="M82.87,254.94c-0.33-2.11-.69-4.37-1.07-6.62a117,117,0,0,0-2.69-12.27c-0.46-1.65-.92-3-1.24-3.94l-0.54-1.47,0.47,1.5c0.27,1,.67,2.33,1.05,4a116.33,116.33,0,0,1,2.09,12.32c0.28,2.26.53,4.52,0.76,6.64s0.43,4.09.48,5.77c0,1,0,1.88,0,2.65l1.59-.2c0-.75,0-1.6-0.11-2.54C83.5,259,83.21,257,82.87,254.94Z" style="fill: #bc7015"/>
              <path d="M106.7,251.56c-0.8-1.54-1.8-3.3-3-5.12s-2.47-3.7-3.8-5.56c-2.69-3.71-5.45-7.33-7.39-10.15-1-1.4-1.74-2.61-2.22-3.48s-0.73-1.39-.73-1.39,0.21,0.53.66,1.42,1.15,2.14,2.06,3.6c1.81,2.91,4.41,6.68,6.9,10.49,1.24,1.91,2.45,3.84,3.5,5.68s1.94,3.61,2.65,5.15c0.41,0.93.75,1.76,1,2.49a10.67,10.67,0,0,1,1.2,2.17s0,0.1.05,0.15l1.21-.5-0.43-1.12C108.07,254.44,107.48,253.11,106.7,251.56Z" style="fill: #bc7015"/>
              <path d="M85.41,239.58l-0.8-1.2,0.74,1.24c0.46,0.79,1.1,1.94,1.8,3.34a59.84,59.84,0,0,1,4.12,10.7,59.22,59.22,0,0,1,1.33,6c0.12,0.7.22,1.37,0.3,2l0.88-.2c0-.19,0-0.4-0.08-0.6-0.11-.79-0.25-1.61-0.42-2.45-0.34-1.66-.76-3.31-1.1-4.55l-0.29-1a60.57,60.57,0,0,0-4.5-10C86.61,241.46,85.91,240.35,85.41,239.58Z" style="fill: #bc7015"/>
              <path d="M71.22,254.73a45.62,45.62,0,0,0-1.35-7.45c-0.26-1-.52-1.81-0.71-2.38l-0.3-.89,0.23,0.91c0.14,0.58.34,1.41,0.52,2.42a45.06,45.06,0,0,1,.75,7.44,44.75,44.75,0,0,1-.5,7.41c-0.13.85-.26,1.56-0.37,2.11h1.65c0.06-.54.13-1.19,0.18-1.93A45.92,45.92,0,0,0,71.22,254.73Z" style="fill: #bc7015"/>
              <path d="M61.59,256c-0.27-2.53-.54-4.22-0.54-4.22s0.22,1,.52,2.57a47.16,47.16,0,0,1-.21-6.9,30.86,30.86,0,0,1,1.47-7.85c0.75-2.46,1.62-4.71,2.35-6.64,1.49-3.86,2.27-6.51,2.27-6.51s-0.88,2.61-2.52,6.41c-0.8,1.9-1.76,4.12-2.62,6.57a31.6,31.6,0,0,0-1.81,8c-0.5,5.58.26,11.13,0.75,15.22l0.19,1.49,0.68,0C62,261.13,61.83,258.21,61.59,256Z" style="fill: #bc7015"/>
            </g>
            <path d="M75.33,191.55c2,1.62-6.85,13.41-6,20.66,0.9,7.95-3.54,25.53-1.33,30.88,3,7.33,3,16.41,1.16,21.23H67.88a50.48,50.48,0,0,0-1.06-5.82q-0.19-.75-0.38-1.34c-0.13-.39-0.25-0.74-0.37-1s-0.28-.69-0.34-0.8c0,0.12.14,0.4,0.27,0.82s0.18,0.63.27,1,0.2,0.86.28,1.37a50,50,0,0,1,.57,5.76c-1.41,0-2.8-.07-4.22-0.14-0.26-3-.66-6-1.05-8.24s-0.71-3.74-.78-4.1c0,0.35.28,1.93,0.51,4.15s0.46,5.15.53,8.14c-0.44,0-.89-0.06-1.33-0.09,0-.07,0-0.15,0-0.25a18,18,0,0,0-.14-2.62,5,5,0,0,0-.25-1.08,10.21,10.21,0,0,1,0,1.09,17.84,17.84,0,0,1-.44,2.5c0,0.11,0,.19-0.07.28-1-.07-2-0.15-3-0.25a1.43,1.43,0,0,0,.09-0.21,18.94,18.94,0,0,0,.9-3.27,11.5,11.5,0,0,0,.19-1.42c-0.06.2-.21,0.7-0.45,1.35a19,19,0,0,1-1.42,3l-0.3.48-1.58-.15c0.11-.67.24-1.36,0.41-2.08,0.32-1.35.7-2.7,1-3.7s0.46-1.51.52-1.65c-0.08.14-.37,0.73-0.77,1.55s-1.06,2.23-1.61,3.53c-0.14.39-.29,0.77-0.42,1.15,1.82-14.14,5.68-28.42,10.59-42.71,0.8-2.33,1.64-4.66,2.49-7l-0.82-6.12-0.09-.59-1.43-6.67C63.57,195.47,69.87,193,75.33,191.55Z" style="fill: #ed912e;opacity: 0.30000000000000004;mix-blend-mode: screen"/>
            <polygon points="80.59 203.4 81.02 206.56 65.74 207.27 65.55 205.87 80.59 203.4" style="fill: #563424"/>
            <polygon points="81.3 208.64 81.57 210.63 66.46 212.58 65.84 208.02 81.3 208.64" style="fill: #563424"/>
          </g>
        </g>
      </g>
    </g>
  </g>
</svg>
