<svg id="905e1bda-4a1e-4481-a0f2-ceacbf9cfd60" data-name="圖層 1" xmlns="http://www.w3.org/2000/svg" xmlns:xlink="http://www.w3.org/1999/xlink" width="300" height="300" viewBox="0 0 300 300">
  <defs>
    <clipPath id="c6b6d763-cfbf-41dc-84d9-2ec9325b2a3a">
      <path id="27b5117f-a89e-4e2e-9884-ba20355be2a1" data-name="SVGID" d="M73,182.28c-6.15,6-9,13-6.48,15.6s9.65,0,15.79-6,9-13,6.47-15.61a3.24,3.24,0,0,0-1.54-.87c-3.25-.84-9.07,1.87-14.24,6.89" style="fill: none"/>
    </clipPath>
    <linearGradient id="fe4a591a-5e49-4c08-8240-acf15c520522" x1="-558.81" y1="1398.88" x2="-558.39" y2="1398.88" gradientTransform="translate(37769.71 -94182.68) scale(67.46)" gradientUnits="userSpaceOnUse">
      <stop offset="0" stop-color="#85b644"/>
      <stop offset="0.08" stop-color="#8cba48"/>
      <stop offset="0.42" stop-color="#a3c856"/>
      <stop offset="0.73" stop-color="#b1d15e"/>
      <stop offset="1" stop-color="#b6d461"/>
    </linearGradient>
    <clipPath id="802909c3-6334-4530-820f-fea5bec5059b">
      <path id="3a894d1a-a249-45ad-99f5-380ffb4b855f" data-name="SVGID" d="M225,177.56c-2,3.06,2.07,9.41,9.19,14.17s14.57,6.14,16.61,3.08-2.06-9.42-9.19-14.18C235,176.18,228,174.68,225.49,177a3,3,0,0,0-.47.54" style="fill: none"/>
    </clipPath>
    <linearGradient id="8a003562-eb62-4dde-a076-79f351429d6e" x1="-552.13" y1="1415.82" x2="-551.71" y2="1415.82" gradientTransform="translate(-95290.07 -37056.42) rotate(-90) scale(67.47)" xlink:href="#fe4a591a-5e49-4c08-8240-acf15c520522"/>
    <clipPath id="2c886375-9b82-486c-8ba0-261d8e9a9972">
      <path id="8eae2ebd-0deb-46f9-a52d-4cc09c4df340" data-name="SVGID" d="M182.21,222.28c-3.45,1.27-3.85,8.83-.88,16.87s8.19,13.53,11.65,12.24,3.86-8.83.88-16.87c-2.78-7.52-7.52-12.8-11-12.4a2.94,2.94,0,0,0-.7.17" style="fill: none"/>
    </clipPath>
    <linearGradient id="a700b35f-9bd6-4bfd-9225-3f5757ecb95d" x1="-551.89" y1="1411.73" x2="-551.47" y2="1411.73" gradientTransform="translate(-95065.94 -36986.56) rotate(-90) scale(67.47)" xlink:href="#fe4a591a-5e49-4c08-8240-acf15c520522"/>
    <clipPath id="a868913c-78f5-4d1e-841f-a47c1666f4fc">
      <path id="c3cc1457-1d6a-4ff6-9b31-64aa9cc2cc44" data-name="SVGID" d="M105.47,229c-3.58,7.79-3.77,15.34-.42,16.89s9-3.52,12.56-11.31,3.76-15.35.41-16.89a3.25,3.25,0,0,0-1.75-.25c-3.34.38-7.79,5-10.8,11.56" style="fill: none"/>
    </clipPath>
    <linearGradient id="5997c609-f096-4c83-b6ed-5988c19a6fc9" x1="-558.71" y1="1400.26" x2="-558.28" y2="1400.26" gradientTransform="matrix(0, -67.46, 67.46, 0, -94352.97, -37450.79)" xlink:href="#fe4a591a-5e49-4c08-8240-acf15c520522"/>
    <clipPath id="b1334d80-1185-4dd0-8b9b-0d95beef5493">
      <path id="76c4a759-459b-4fa8-b8df-cc39179f3223" data-name="SVGID" d="M85.27,120a83.2,83.2,0,1,0,63.59-42.79A83.2,83.2,0,0,0,85.27,120" style="fill: none"/>
    </clipPath>
    <linearGradient id="f6e3a480-0dbc-4225-8b00-3c1030c97794" x1="-568.62" y1="1415.84" x2="-568.2" y2="1415.84" gradientTransform="matrix(-392.5, 0, 0, -392.5, -222948.49, 555887.69)" gradientUnits="userSpaceOnUse">
      <stop offset="0" stop-color="#b6d461"/>
      <stop offset="1" stop-color="#b6d461"/>
      <stop offset="1" stop-color="#85b644"/>
    </linearGradient>
    <clipPath id="3d02b703-abb8-4450-b3c5-358c7a928463">
      <path id="26c0e934-947f-462e-ac2f-219c72932a37" data-name="SVGID" d="M104.43,101a79.77,79.77,0,1,0,44.67-20.4A79.77,79.77,0,0,0,104.43,101" style="fill: none"/>
    </clipPath>
    <linearGradient id="3566de8d-38ab-481f-b91a-a8eef6ede50b" x1="-567.37" y1="1413.86" x2="-566.94" y2="1413.86" gradientTransform="matrix(0, -376.45, 376.45, 0, -532087.36, -213340)" xlink:href="#fe4a591a-5e49-4c08-8240-acf15c520522"/>
    <clipPath id="4b4f87ee-51a5-403d-82ec-d29cc580aec6">
      <rect id="24817263-2ff8-494f-9a60-7e9fb6172392" data-name="SVGID" x="205.47" y="148.24" width="27" height="21.76" style="fill: none"/>
    </clipPath>
    <clipPath id="e518a21c-1db1-47b8-be8d-832436447193">
      <rect id="b09f82d5-37e1-4fd7-8900-8adf9ff243b0" data-name="SVGID" x="81.4" y="149.54" width="27" height="21.76" style="fill: none"/>
    </clipPath>
  </defs>
  <title>00_遊戲人物</title>
  <g>
    <g>
      <path d="M92.68,106.28c-1.36,17.22-.86,33.36-1.06,39.1C91.4,151.72,78,178,54.61,159.86,88.65,158.85,52.23,113.1,92.68,106.28Z" style="fill: #6e4529"/>
      <g>
        <g>
          <g style="clip-path: url(#c6b6d763-cfbf-41dc-84d9-2ec9325b2a3a)">
            <rect x="61.97" y="175.18" width="31" height="25.2" transform="translate(-125.53 195.22) rotate(-69.68)" style="fill: url(#fe4a591a-5e49-4c08-8240-acf15c520522)"/>
          </g>
          <g style="clip-path: url(#802909c3-6334-4530-820f-fea5bec5059b)">
            <rect x="221.75" y="169.04" width="32.89" height="34.89" transform="translate(19.35 395.33) rotate(-81.72)" style="fill: url(#8a003562-eb62-4dde-a076-79f351429d6e)"/>
          </g>
          <g style="clip-path: url(#2c886375-9b82-486c-8ba0-261d8e9a9972)">
            <rect x="171.21" y="219.78" width="32.89" height="34.89" transform="matrix(0.7, -0.72, 0.72, 0.7, -113.24, 206.34)" style="fill: url(#a700b35f-9bd6-4bfd-9225-3f5757ecb95d)"/>
          </g>
          <g style="clip-path: url(#a868913c-78f5-4d1e-841f-a47c1666f4fc)">
            <rect x="99.02" y="217" width="25.2" height="31" transform="translate(-3.22 1.57) rotate(-0.8)" style="fill: url(#5997c609-f096-4c83-b6ed-5988c19a6fc9)"/>
          </g>
          <g style="clip-path: url(#b1334d80-1185-4dd0-8b9b-0d95beef5493)">
            <rect x="50.71" y="61.86" width="216.43" height="207.24" transform="translate(-40.17 51.45) rotate(-16.35)" style="fill: url(#f6e3a480-0dbc-4225-8b00-3c1030c97794)"/>
          </g>
          <g style="clip-path: url(#3d02b703-abb8-4450-b3c5-358c7a928463)">
            <rect x="37.19" y="42.2" width="243.42" height="245.99" transform="translate(-62.25 225.44) rotate(-61.35)" style="fill: url(#3566de8d-38ab-481f-b91a-a8eef6ede50b)"/>
          </g>
        </g>
        <g style="opacity: 0.5">
          <g style="clip-path: url(#4b4f87ee-51a5-403d-82ec-d29cc580aec6)">
            <path d="M230.28,152.69c3.34,4.42,3.23,12.28-2.81,15.64s-16.95,1.42-20.47-3.23c-7.47-9.87,14.38-24.22,23.28-12.41" style="fill: #e0256d"/>
          </g>
        </g>
        <g style="opacity: 0.5">
          <g style="clip-path: url(#e518a21c-1db1-47b8-be8d-832436447193)">
            <path d="M83.59,154c-3.34,4.42-3.23,12.28,2.81,15.64s16.95,1.42,20.47-3.23c7.47-9.87-14.38-24.22-23.28-12.41" style="fill: #e0256d"/>
          </g>
        </g>
        <g>
          <g>
            <path d="M184.67,135.85a12.32,12.32,0,1,0,24.63,0A12.12,12.12,0,0,0,209,133l0,0a10,10,0,0,0,4.59-6.6c-3.29,1.13-8.66,0-8.66,0h0A12.31,12.31,0,0,0,184.67,135.85Z" style="fill: #4a3e37"/>
            <circle cx="192.24" cy="133" r="3.32" style="fill: #fff"/>
          </g>
          <g>
            <path d="M114.71,123.53a12.28,12.28,0,0,0-7.91,2.88h0s-5.38,1.13-8.67,0a10,10,0,0,0,4.59,6.6l0,0A12.31,12.31,0,1,0,114.71,123.53Zm-5.92,12.79a3.32,3.32,0,1,1,3.32-3.31A3.32,3.32,0,0,1,108.79,136.32Z" style="fill: #4a3e37"/>
            <circle cx="108.79" cy="133" r="3.32" style="fill: #fff"/>
          </g>
        </g>
        <path d="M169.31,164.57c-7.83,11.84-22,7.44-29.6-2.23-3-3.85-9.61.12-6.55,4,11.39,14.48,31.62,18.92,42.91,1.85,2.73-4.13-4.06-7.73-6.76-3.63" style="fill: #4a3e37"/>
      </g>
      <path d="M83.41,76.69c4.18,1.79,9.33.75,11.33-1-4.69-13,.08-30,14.26-32.84-0.55,33,91.4-7.32,116.85,35.17-0.84,0,3.45,6.68-3,12.87C214.4,100,192.67,114.82,169,113.53c9.34-3.06,28.24-13.9,28.14-19.32-13.14,6.79-33.07,16.3-65.27,17.93C101.47,113.69,77.89,101.32,83.41,76.69Z" style="fill: #6e4529"/>
      <path d="M214.46,100.6c3.89,21.18,5.35,41.26,6.33,48.35,1.09,7.83,21.06,38.64,47.76,13.2C226.22,165.27,265.51,103.86,214.46,100.6Z" style="fill: #6e4529"/>
      <g>
        <g>
          <g>
            <path d="M220.21,92.5c-0.37,4.65,3.9,8.78,9.52,9.22s10.48-3,10.84-7.64-3.9-8.78-9.53-9.22-10.47,3-10.83,7.64" style="fill: #efdc3c"/>
            <path d="M209.92,91c-2.51,3.93-.69,9.59,4.06,12.62s10.65,2.3,13.17-1.64,0.68-9.58-4.07-12.61-10.64-2.3-13.15,1.63" style="fill: #efdc3c"/>
            <path d="M222.57,101.32c-1.56,4.41,1.49,9.5,6.82,11.37s10.88-.17,12.44-4.58-1.52-9.49-6.82-11.36-10.9.18-12.44,4.58" style="fill: #efdc3c"/>
          </g>
          <g>
            <path d="M210.34,90c3.7,2.84,9.48,1.51,12.91-3s3.19-10.41-.51-13.25-9.5-1.5-12.92,3-3.19,10.4.52,13.24" style="fill: #eebc2a"/>
            <path d="M196.06,79.61c-2.51,3.93-.69,9.58,4.05,12.62s10.65,2.3,13.17-1.64S214,81,209.22,78s-10.64-2.29-13.16,1.64" style="fill: #eebc2a"/>
            <path d="M208.71,89.94c-1.54,4.4,1.52,9.49,6.82,11.37s10.89-.18,12.45-4.58-1.52-9.49-6.82-11.37-10.88.18-12.45,4.58" style="fill: #eebc2a"/>
          </g>
        </g>
        <g>
          <path d="M230.38,96.45a7.3,7.3,0,0,1-1.83,4.88l-0.29.3-0.29.29-0.3.3-0.33.27-0.36.25-0.34.25a14,14,0,0,1-2.34,1.15l-0.47.12-0.42.1-0.42.13-0.47.06c-8.39,1.17-13.12-6.88-15.71-13.49-0.38-1-.75-2-1.12-3-0.09-.22-0.18-0.46-0.29-0.67a15,15,0,0,0-3.61-5.88l-0.24-.19a7.61,7.61,0,0,0-7.13-1.19l-0.16.06-0.14.05-0.16,0-0.19.1c-0.13-.22-0.25-0.41-0.36-0.63-0.3-.55-0.59-1.09-0.86-1.66-0.05-.14-0.11-0.28-0.16-0.43l0.46-.19a10.76,10.76,0,0,1,10,1c3.43,2.35,5,6.13,6.44,9.83,2,5.28,4.7,12.75,11.23,13.79,3.8,0.44,8.26-1.8,8.24-6.2-0.5-4.1-5.62-5.74-8.24-5.51a11.35,11.35,0,0,0-6.84,2.29c-0.23.18-.49,0.36-0.73,0.55l-0.07,0-0.08,0-0.1,0h-0.13l-0.09,0-0.06,0-0.09,0h-0.05l-0.09-.06h0l-0.06,0L212,93.15l-0.06,0,0,0,0-.07,0-.07,0,0,0-.08,0-.06,0-.08,0-.09,0-.07,0-.08V92.36l0-.09,0-.05,0.06-.08,0-.08,0,0,0.08-.07,0.35-.24a21.75,21.75,0,0,1,3.16-1.86C221,87.43,230,89,230.38,96.45" style="fill: #008742"/>
          <path d="M202.6,90.24a17.58,17.58,0,0,1-1.87-.43,20.28,20.28,0,0,1-14.78-18.92l3-.32A21.32,21.32,0,0,0,202.6,90.24" style="fill: #7db82e"/>
          <path d="M207.29,94.79h0.31l0.05,0,0.1,0h0.06l0.07,0.05,0.06,0,0.06,0L208,95l0,0,0.06,0,0,0.07,0,0.07V95.3l0.05,0.08v0.06l0,0.07v0.07l0,0.09v0.15l0,0.05,0,0.08-0.06.06,0,0.07a2,2,0,0,1-.52.31l-0.49.18-0.49.19-0.49.17-0.51.16-0.5.13-0.55.17-0.54.13-0.52.1a21,21,0,0,1-6.73.24l-0.56-.1-0.57-.12-0.57-.12-0.54-.15-0.57-.2L193.44,97c-4-1.7-6.54-4.69-7-9.05l0-.41V86.71l0-.41,0.05-.42,0-.39,0.06-.42,0.12-.41a2.59,2.59,0,0,1,.12-0.53c0.05-.2.15-0.42,0.21-0.63a0.55,0.55,0,0,0,.09-0.26c0.11-.25.21-0.5,0.36-0.77l0.07-.18,2.15,2.92-0.08.29,0,0.25,0,0.27,0,0.24,0,0.28,0,0.24V87l0,0.25,0,0.26,0,0.24,0,0.27,0,0.23,0,0.25c1.42,6.17,9,7.68,14.3,7.09l0.52-.07,0.49-.09,0.5-.1,0.46-.12a10.41,10.41,0,0,0,1.42-.45" style="fill: #7db82e"/>
        </g>
      </g>
    </g>
    <g>
      <path d="M109.45,220.07l-2.15,6.76h0c-1.31,4.08-2.65,8.31-9.39,29.47a1.17,1.17,0,0,1-1.1.83H47.08a1.19,1.19,0,0,1-1.16-.92c-5.84-18.36-7.48-23.54-9.15-28.79l-2.32-7.36h75Z" style="fill: #58b4f5"/>
      <polygon points="109.45 220.07 108.56 222.94 35.34 222.94 34.45 220.07 109.45 220.07" style="fill: #358ccc"/>
      <path d="M32,214.32h79.92a0.59,0.59,0,0,1,.57.57v4.62a0.57,0.57,0,0,1-.57.57H32a0.55,0.55,0,0,1-.57-0.57v-4.62a0.57,0.57,0,0,1,.57-0.57h0Z" style="fill: #58b4f5;fill-rule: evenodd"/>
      <path d="M59.18,226.63h0a2,2,0,0,1,2,2v7.51a2,2,0,0,1-2,2h0a2,2,0,0,1-2-2v-7.51a2,2,0,0,1,2-2h0Zm0,13.95h0a2,2,0,0,1,2,2v7.51a2,2,0,0,1-2,2h0a2,2,0,0,1-2-2V242.6a2,2,0,0,1,2-2h0Zm8.16-13.95h0a2,2,0,0,1,2,2v7.51a2,2,0,0,1-2,2h0a2,2,0,0,1-2-2v-7.51a2,2,0,0,1,2-2h0Zm0,13.95h0a2,2,0,0,1,2,2v7.51a2,2,0,0,1-2,2h0a2,2,0,0,1-2-2V242.6a2,2,0,0,1,2-2h0Zm8.16-13.95h0a2,2,0,0,1,2,2v7.51a2,2,0,0,1-2,2h0a2,2,0,0,1-2-2v-7.51a2,2,0,0,1,2-2h0Zm0,13.95h0a2,2,0,0,1,2,2v7.51a2,2,0,0,1-2,2h0a2,2,0,0,1-2-2V242.6a2,2,0,0,1,2-2h0Zm8.16-13.95h0a2,2,0,0,1,2,2v7.51a2,2,0,0,1-2,2h0a2,2,0,0,1-2-2v-7.51a2,2,0,0,1,2-2h0Zm0,13.95h0a2,2,0,0,1,2,2v7.51a2,2,0,0,1-2,2h0a2,2,0,0,1-2-2V242.6a2,2,0,0,1,2-2h0Zm8.16-13.95h0a2,2,0,0,1,2,2v7.51a2,2,0,0,1-2,2h0a2,2,0,0,1-2-2v-7.51a2,2,0,0,1,2-2h0Zm0,13.95h0a2,2,0,0,1,2,2v7.51a2,2,0,0,1-2,2h0a2,2,0,0,1-2-2V242.6a2,2,0,0,1,2-2h0ZM51,226.63h0a2,2,0,0,1,2,2v7.51a2,2,0,0,1-2,2h0a2,2,0,0,1-2-2v-7.51a2,2,0,0,1,2-2h0Zm0,13.95h0a2,2,0,0,1,2,2v7.51a2,2,0,0,1-2,2h0a2,2,0,0,1-2-2V242.6a2,2,0,0,1,2-2h0Z" style="fill: #358ccc;fill-rule: evenodd"/>
      <path d="M59.18,226.63h0a2,2,0,0,1,2,2v0.48h0v0.12h0v0.12h0v0.12h0v0.12h0v0.12h0v0.12h0V230h0v0.12h0v0.12h0v0.69h0V231h0v0.12h0v0.12h0v0.12h0v0.12h0v0.12h0v0.12h0v0.12h0V232h0v0.57h0v0.12h0v0.12h0v0.12h0V233h0v0.12h0v0.12h0v0.12h0v0.12h0v0.12h0v0.57h0v0.12h0v0.12h0v0.12h0v0.12h0v0.12h0v0.12h0V235h0a2,2,0,0,1-2,2h0a2,2,0,0,1-2-2h0v-0.12h0v-0.12h0v-0.12h0v-0.12h0v-0.12h0v-0.12h0v-0.12h0V233.6h0v-0.12h0v-0.12h0v-0.12h0v-0.12h0V233h0v-0.12h0v-0.12h0v-0.12h0v-0.12h0V232h0v-0.12h0v-0.12h0v-0.12h0v-0.12h0v-0.12h0v-0.12h0v-0.12h0V231h0v-0.12h0v-0.69h0v-0.12h0V230h0v-0.12h0v-0.12h0v-0.12h0v-0.12h0v-0.12h0v-0.12h0v-0.12h0v-0.48a2,2,0,0,1,2-2h0Zm2,22.32a2,2,0,0,1-2,2h0a2,2,0,0,1-2-2v-0.24h0v-0.12h0v-0.12h0v-0.12h0v-0.12h0v-0.12h0V248h0v-0.12h0v-0.12h0v-0.12h0v-0.57h0V247h0v-0.12h0v-0.12h0v-0.12h0v-0.12h0v-0.12h0v-0.12h0v-0.12h0V246h0v-0.57h0v-0.12h0v-0.12h0v-0.12h0V245h0v-0.12h0v-0.12h0V244.6h0v-0.12h0v-0.12h0v-0.57h0v-0.12h0v-0.12h0v-0.12h0v-0.12h0V243.2h0v-0.12h0V243h0v-0.12h0v-0.12h0V242.6a2,2,0,0,1,2-2h0a2,2,0,0,1,2,2v0.12h0v0.12h0V243h0v0.12h0v0.12h0v0.12h0v0.12h0v0.12h0v0.12h0v0.12h0v0.57h0v0.12h0v0.12h0v0.12h0v0.12h0V245h0v0.12h0v0.12h0v0.12h0v0.12h0V246h0v0.12h0v0.12h0v0.12h0v0.12h0v0.12h0v0.12h0v0.12h0V247h0v0.12h0v0.57h0v0.12h0v0.12h0V248h0v0.12h0v0.12h0v0.12h0v0.12h0v0.12h0v0.12h0v0.24ZM69.37,235a2,2,0,0,1-2,2h0a2,2,0,0,1-2-2h0v-0.12h0v-0.12h0v-0.12h0v-0.12h0v-0.12h0v-0.12h0v-0.12h0V233.6h0v-0.12h0v-0.12h0v-0.12h0v-0.12h0V233h0v-0.12h0v-0.12h0v-0.12h0v-0.12h0V232h0v-0.12h0v-0.12h0v-0.12h0v-0.12h0v-0.12h0v-0.12h0v-0.12h0V231h0v-0.12h0v-0.69h0v-0.12h0V230h0v-0.12h0v-0.12h0v-0.12h0v-0.12h0v-0.12h0v-0.12h0v-0.12h0v-0.48a2,2,0,0,1,2-2h0a2,2,0,0,1,2,2v0.48h0v0.12h0v0.12h0v0.12h0v0.12h0v0.12h0v0.12h0V230h0v0.12h0v0.12h0v0.69h0V231h0v0.12h0v0.12h0v0.12h0v0.12h0v0.12h0v0.12h0v0.12h0V232h0v0.57h0v0.12h0v0.12h0v0.12h0V233h0v0.12h0v0.12h0v0.12h0v0.12h0v0.12h0v0.57h0v0.12h0v0.12h0v0.12h0v0.12h0v0.12h0v0.12h0V235h0Zm0,13.95a2,2,0,0,1-2,2h0a2,2,0,0,1-2-2v-0.24h0v-0.12h0v-0.12h0v-0.12h0v-0.12h0v-0.12h0V248h0v-0.12h0v-0.12h0v-0.12h0v-0.57h0V247h0v-0.12h0v-0.12h0v-0.12h0v-0.12h0v-0.12h0v-0.12h0v-0.12h0V246h0v-0.57h0v-0.12h0v-0.12h0v-0.12h0V245h0v-0.12h0v-0.12h0V244.6h0v-0.12h0v-0.12h0v-0.57h0v-0.12h0v-0.12h0v-0.12h0v-0.12h0V243.2h0v-0.12h0V243h0v-0.12h0v-0.12h0V242.6a2,2,0,0,1,2-2h0a2,2,0,0,1,2,2v0.12h0v0.12h0V243h0v0.12h0v0.12h0v0.12h0v0.12h0v0.12h0v0.12h0v0.12h0v0.57h0v0.12h0v0.12h0v0.12h0v0.12h0V245h0v0.12h0v0.12h0v0.12h0v0.12h0V246h0v0.12h0v0.12h0v0.12h0v0.12h0v0.12h0v0.12h0v0.12h0V247h0v0.12h0v0.57h0v0.12h0v0.12h0V248h0v0.12h0v0.12h0v0.12h0v0.12h0v0.12h0v0.12h0v0.24ZM77.54,235a2,2,0,0,1-2,2h0a2,2,0,0,1-2-2h0v-0.12h0v-0.12h0v-0.12h0v-0.12h0v-0.12h0v-0.12h0v-0.12h0V233.6h0v-0.12h0v-0.12h0v-0.12h0v-0.12h0V233h0v-0.12h0v-0.12h0v-0.12h0v-0.12h0V232h0v-0.12h0v-0.12h0v-0.12h0v-0.12h0v-0.12h0v-0.12h0v-0.12h0V231h0v-0.12h0v-0.69h0v-0.12h0V230h0v-0.12h0v-0.12h0v-0.12h0v-0.12h0v-0.12h0v-0.12h0v-0.12h0v-0.48a2,2,0,0,1,2-2h0a2,2,0,0,1,2,2v0.48h0v0.12h0v0.12h0v0.12h0v0.12h0v0.12h0v0.12h0V230h0v0.12h0v0.12h0v0.69h0V231h0v0.12h0v0.12h0v0.12h0v0.12h0v0.12h0v0.12h0v0.12h0V232h0v0.57h0v0.12h0v0.12h0v0.12h0V233h0v0.12h0v0.12h0v0.12h0v0.12h0v0.12h0v0.57h0v0.12h0v0.12h0v0.12h0v0.12h0v0.12h0v0.12h0V235h0Zm0,13.95a2,2,0,0,1-2,2h0a2,2,0,0,1-2-2v-0.24h0v-0.12h0v-0.12h0v-0.12h0v-0.12h0v-0.12h0V248h0v-0.12h0v-0.12h0v-0.12h0v-0.57h0V247h0v-0.12h0v-0.12h0v-0.12h0v-0.12h0v-0.12h0v-0.12h0v-0.12h0V246h0v-0.57h0v-0.12h0v-0.12h0v-0.12h0V245h0v-0.12h0v-0.12h0V244.6h0v-0.12h0v-0.12h0v-0.57h0v-0.12h0v-0.12h0v-0.12h0v-0.12h0V243.2h0v-0.12h0V243h0v-0.12h0v-0.12h0V242.6a2,2,0,0,1,2-2h0a2,2,0,0,1,2,2v0.12h0v0.12h0V243h0v0.12h0v0.12h0v0.12h0v0.12h0v0.12h0v0.12h0v0.12h0v0.57h0v0.12h0v0.12h0v0.12h0v0.12h0V245h0v0.12h0v0.12h0v0.12h0v0.12h0V246h0v0.12h0v0.12h0v0.12h0v0.12h0v0.12h0v0.12h0v0.12h0V247h0v0.12h0v0.57h0v0.12h0v0.12h0V248h0v0.12h0v0.12h0v0.12h0v0.12h0v0.12h0v0.12h0v0.24ZM85.7,235a2,2,0,0,1-2,2h0a2,2,0,0,1-2-2h0v-0.12h0v-0.12h0v-0.12h0v-0.12h0v-0.12h0v-0.12h0v-0.12h0V233.6h0v-0.12h0v-0.12h0v-0.12h0v-0.12h0V233h0v-0.12h0v-0.12h0v-0.12h0v-0.12h0V232h0v-0.12h0v-0.12h0v-0.12h0v-0.12h0v-0.12h0v-0.12h0v-0.12h0V231h0v-0.12h0v-0.69h0v-0.12h0V230h0v-0.12h0v-0.12h0v-0.12h0v-0.12h0v-0.12h0v-0.12h0v-0.12h0v-0.48a2,2,0,0,1,2-2h0a2,2,0,0,1,2,2v0.48h0v0.12h0v0.12h0v0.12h0v0.12h0v0.12h0v0.12h0V230h0v0.12h0v0.12h0v0.69h0V231h0v0.12h0v0.12h0v0.12h0v0.12h0v0.12h0v0.12h0v0.12h0V232h0v0.57h0v0.12h0v0.12h0v0.12h0V233h0v0.12h0v0.12h0v0.12h0v0.12h0v0.12h0v0.57h0v0.12h0v0.12h0v0.12h0v0.12h0v0.12h0v0.12h0V235h0Zm0,13.95a2,2,0,0,1-2,2h0a2,2,0,0,1-2-2v-0.24h0v-0.12h0v-0.12h0v-0.12h0v-0.12h0v-0.12h0V248h0v-0.12h0v-0.12h0v-0.12h0v-0.57h0V247h0v-0.12h0v-0.12h0v-0.12h0v-0.12h0v-0.12h0v-0.12h0v-0.12h0V246h0v-0.57h0v-0.12h0v-0.12h0v-0.12h0V245h0v-0.12h0v-0.12h0V244.6h0v-0.12h0v-0.12h0v-0.57h0v-0.12h0v-0.12h0v-0.12h0v-0.12h0V243.2h0v-0.12h0V243h0v-0.12h0v-0.12h0V242.6a2,2,0,0,1,2-2h0a2,2,0,0,1,2,2v0.12h0v0.12h0V243h0v0.12h0v0.12h0v0.12h0v0.12h0v0.12h0v0.12h0v0.12h0v0.57h0v0.12h0v0.12h0v0.12h0v0.12h0V245h0v0.12h0v0.12h0v0.12h0v0.12h0V246h0v0.12h0v0.12h0v0.12h0v0.12h0v0.12h0v0.12h0v0.12h0V247h0v0.12h0v0.57h0v0.12h0v0.12h0V248h0v0.12h0v0.12h0v0.12h0v0.12h0v0.12h0v0.12h0v0.24ZM93.87,235a2,2,0,0,1-2,2h0a2,2,0,0,1-2-2v-6.35a2,2,0,0,1,2-2h0a2,2,0,0,1,2,2V235Zm0,13.95a2,2,0,0,1-2,2h0a2,2,0,0,1-2-2V242.6a2,2,0,0,1,2-2h0a2,2,0,0,1,2,2v6.35ZM53,235a2,2,0,0,1-2,2h0a2,2,0,0,1-2-2v-6.35a2,2,0,0,1,2-2h0a2,2,0,0,1,2,2V235Zm0,13.95a2,2,0,0,1-2,2h0a2,2,0,0,1-2-2V242.6a2,2,0,0,1,2-2h0a2,2,0,0,1,2,2v6.35Z" style="fill: #3e69b0;fill-rule: evenodd"/>
      <path d="M51.14,219.12h0a2.15,2.15,0,0,0,2.8-1.19l13.59-21.48a2.15,2.15,0,0,0-1.19-2.8h0a2.15,2.15,0,0,0-2.83,1.19L49.94,216.29a2.18,2.18,0,0,0,1.19,2.83h0Z" style="fill: #4d4c42;fill-rule: evenodd"/>
      <path d="M52.39,216a1,1,0,0,1,.54,1.25,1,1,0,0,1-1.25.51,0.91,0.91,0,0,1-.54-1.22,1,1,0,0,1,1.25-.54h0Z" style="fill: #d5ab07;fill-rule: evenodd"/>
      <path d="M92.76,219.12h0a2.15,2.15,0,0,1-2.8-1.19L76.37,196.44a2.15,2.15,0,0,1,1.19-2.8h0a2.1,2.1,0,0,1,2.8,1.19L94,216.29a2.18,2.18,0,0,1-1.19,2.83h0Z" style="fill: #4d4c42;fill-rule: evenodd"/>
      <path d="M91.51,216a0.95,0.95,0,1,0,.72,1.76,0.91,0.91,0,0,0,.54-1.22,1,1,0,0,0-1.25-.54h0Z" style="fill: #d5ab07;fill-rule: evenodd"/>
    </g>
  </g>
</svg>
