<svg id="80ca92f0-cc8a-4c6f-8372-bd00f8a0c828" data-name="圖層 1" xmlns="http://www.w3.org/2000/svg" xmlns:xlink="http://www.w3.org/1999/xlink" width="300" height="300" viewBox="0 0 300 300">
  <defs>
    <clipPath id="26def2a5-4d1a-4000-abcb-0d3badf7fff9">
      <path id="5d5de6a2-10ba-4263-91b2-4b1a68e6f1bc" data-name="SVGID" d="M101,141.72c-8.26-2.27-15.76-1.22-16.73,2.33s4.94,8.29,13.2,10.55,15.76,1.21,16.73-2.34a3.24,3.24,0,0,0,0-1.77c-0.92-3.23-6.21-6.87-13.16-8.77" style="fill: none"/>
    </clipPath>
    <linearGradient id="44bf3a96-1cec-488b-a189-b5d3537b5e6f" x1="-575.07" y1="205.13" x2="-574.64" y2="205.13" gradientTransform="matrix(67.46, 0, 0, 67.46, 38881.75, -13687.52)" gradientUnits="userSpaceOnUse">
      <stop offset="0" stop-color="#85b644"/>
      <stop offset="0.08" stop-color="#8cba48"/>
      <stop offset="0.42" stop-color="#a3c856"/>
      <stop offset="0.73" stop-color="#b1d15e"/>
      <stop offset="1" stop-color="#b6d461"/>
    </linearGradient>
    <clipPath id="1cf7f1e0-29c9-49c8-aec7-23d03be1df80">
      <path id="df50bf64-0a49-417f-9eb7-773b750fd4ec" data-name="SVGID" d="M253.34,154c1.38,3.41,8.95,3.58,16.89.36s13.27-8.61,11.87-12-8.95-3.58-16.89-.36c-7.43,3-12.55,7.91-12.06,11.33a3,3,0,0,0,.19.69" style="fill: none"/>
    </clipPath>
    <linearGradient id="3d5403f6-5121-4389-9af4-3ffeb6fe4ff4" x1="-555.21" y1="198.79" x2="-554.78" y2="198.79" gradientTransform="translate(-37179.72 13559.64) rotate(-180) scale(67.47)" xlink:href="#44bf3a96-1cec-488b-a189-b5d3537b5e6f"/>
    <clipPath id="110c6201-3710-4351-a10b-9be18942258d">
      <path id="f91d0d6f-c016-4110-b5e9-dc16f9f8db1b" data-name="SVGID" d="M212,196.25c-3.45,1.27-3.85,8.83-.88,16.87s8.19,13.53,11.65,12.24,3.86-8.83.88-16.87c-2.78-7.52-7.52-12.8-11-12.4a2.94,2.94,0,0,0-.7.17" style="fill: none"/>
    </clipPath>
    <linearGradient id="3604d6fe-4e8b-4d85-933d-0ad5088340b6" x1="-564.34" y1="199.57" x2="-563.92" y2="199.57" gradientTransform="translate(-13248.01 -37852.52) rotate(-90) scale(67.47)" xlink:href="#44bf3a96-1cec-488b-a189-b5d3537b5e6f"/>
    <clipPath id="0980c376-1258-4447-a0c9-ca48b7725906">
      <path id="30e61642-3889-4007-ab3e-20a8b72e767c" data-name="SVGID" d="M135.27,203c-3.58,7.79-3.77,15.34-.42,16.89s9-3.52,12.56-11.31,3.76-15.35.41-16.89a3.25,3.25,0,0,0-1.75-.25c-3.34.38-7.79,5-10.8,11.56" style="fill: none"/>
    </clipPath>
    <linearGradient id="2eb93ae1-648f-431b-a41e-0947301f449c" x1="-576.11" y1="200.46" x2="-575.69" y2="200.46" gradientTransform="translate(-13380.66 -38647.03) rotate(-90) scale(67.46)" xlink:href="#44bf3a96-1cec-488b-a189-b5d3537b5e6f"/>
    <clipPath id="37821697-a94c-4433-a1ae-9bc3476cbb15">
      <path id="7bf6ee13-ba66-4903-b255-e5717671b947" data-name="SVGID" d="M115.07,94a83.2,83.2,0,1,0,63.59-42.79A83.2,83.2,0,0,0,115.07,94" style="fill: none"/>
    </clipPath>
    <linearGradient id="fee715f2-84bf-4123-a3fe-91e260cdfdab" x1="-567.86" y1="212.95" x2="-567.43" y2="212.95" gradientTransform="matrix(-392.5, 0, 0, -392.5, -222613.23, 83721.68)" gradientUnits="userSpaceOnUse">
      <stop offset="0" stop-color="#b6d461"/>
      <stop offset="1" stop-color="#b6d461"/>
      <stop offset="1" stop-color="#85b644"/>
    </linearGradient>
    <clipPath id="471db581-8351-43e5-ad27-27f90e4825a5">
      <path id="e81d832e-77e2-4471-a4be-cdb8791cf9a3" data-name="SVGID" d="M134.23,75a79.77,79.77,0,1,0,44.67-20.4A79.77,79.77,0,0,0,134.23,75" style="fill: none"/>
    </clipPath>
    <linearGradient id="8f55e4cf-02a9-4dbb-bab6-9a0aea643aed" x1="-568.93" y1="211.16" x2="-568.51" y2="211.16" gradientTransform="matrix(0, -376.45, 376.45, 0, -79302.71, -213957.02)" xlink:href="#44bf3a96-1cec-488b-a189-b5d3537b5e6f"/>
    <clipPath id="7279c5e0-a2b2-42e7-8cda-5303813d444b">
      <rect id="fb5531e5-4540-4290-837a-cb9603281f0c" data-name="SVGID" x="235.27" y="122.21" width="27" height="21.76" style="fill: none"/>
    </clipPath>
    <clipPath id="c821b12e-c61f-4b53-ab49-1a8b95b63e71">
      <rect id="6712af1b-187e-4723-8c3f-8e93db4cdce0" data-name="SVGID" x="111.2" y="123.51" width="27" height="21.76" style="fill: none"/>
    </clipPath>
  </defs>
  <title>00_遊戲人物</title>
  <g>
    <g>
      <g>
        <g style="clip-path: url(#26def2a5-4d1a-4000-abcb-0d3badf7fff9)">
          <rect x="83.03" y="135.76" width="31" height="25.2" transform="translate(-24.64 19.72) rotate(-10.17)" style="fill: url(#44bf3a96-1cec-488b-a189-b5d3537b5e6f)"/>
        </g>
        <g style="clip-path: url(#1cf7f1e0-29c9-49c8-aec7-23d03be1df80)">
          <rect x="250.68" y="131.66" width="34.89" height="32.89" transform="translate(-22.11 246.04) rotate(-47.56)" style="fill: url(#3d5403f6-5121-4389-9af4-3ffeb6fe4ff4)"/>
        </g>
        <g style="clip-path: url(#110c6201-3710-4351-a10b-9be18942258d)">
          <rect x="201" y="193.76" width="32.89" height="34.89" transform="translate(-85.56 219.82) rotate(-45.79)" style="fill: url(#3604d6fe-4e8b-4d85-933d-0ad5088340b6)"/>
        </g>
        <g style="clip-path: url(#0980c376-1258-4447-a0c9-ca48b7725906)">
          <rect x="128.82" y="190.98" width="25.2" height="31" transform="translate(-2.85 1.98) rotate(-0.8)" style="fill: url(#2eb93ae1-648f-431b-a41e-0947301f449c)"/>
        </g>
        <g style="clip-path: url(#37821697-a94c-4433-a1ae-9bc3476cbb15)">
          <rect x="80.51" y="35.83" width="216.43" height="207.24" transform="translate(-31.63 58.79) rotate(-16.35)" style="fill: url(#fee715f2-84bf-4123-a3fe-91e260cdfdab)"/>
        </g>
        <g style="clip-path: url(#471db581-8351-43e5-ad27-27f90e4825a5)">
          <rect x="66.99" y="16.17" width="243.42" height="245.99" transform="translate(-23.9 238.04) rotate(-61.35)" style="fill: url(#8f55e4cf-02a9-4dbb-bab6-9a0aea643aed)"/>
        </g>
        <g>
          <g>
            <g>
              <path d="M250,66.47c-0.37,4.65,3.9,8.78,9.52,9.22s10.48-3,10.84-7.64-3.9-8.78-9.53-9.22-10.47,3-10.83,7.64" style="fill: #efdc3c"/>
              <path d="M239.72,65c-2.51,3.93-.69,9.59,4.06,12.62s10.65,2.3,13.17-1.64,0.68-9.58-4.07-12.61S242.23,61,239.72,65" style="fill: #efdc3c"/>
              <path d="M252.37,75.29c-1.56,4.41,1.49,9.5,6.82,11.37s10.88-.17,12.44-4.58-1.52-9.49-6.82-11.36-10.9.18-12.44,4.58" style="fill: #efdc3c"/>
            </g>
            <g>
              <path d="M240.14,64c3.7,2.84,9.48,1.51,12.91-3s3.19-10.41-.51-13.25-9.5-1.5-12.92,3-3.19,10.4.52,13.24" style="fill: #eebc2a"/>
              <path d="M225.86,53.58c-2.51,3.93-.69,9.58,4.05,12.62s10.65,2.3,13.17-1.64S243.77,55,239,51.95s-10.64-2.29-13.16,1.64" style="fill: #eebc2a"/>
              <path d="M238.51,63.91c-1.54,4.4,1.52,9.49,6.82,11.37s10.89-.18,12.45-4.58-1.52-9.49-6.82-11.37-10.88.18-12.45,4.58" style="fill: #eebc2a"/>
            </g>
          </g>
          <g>
            <path d="M260.18,70.42a7.3,7.3,0,0,1-1.83,4.88l-0.29.3-0.29.29-0.3.3-0.33.27-0.36.25-0.34.25a14,14,0,0,1-2.34,1.15l-0.47.12-0.42.1-0.42.13-0.47.06c-8.39,1.17-13.12-6.88-15.71-13.49-0.38-1-.75-2-1.12-3-0.09-.22-0.18-0.46-0.29-0.67a15,15,0,0,0-3.61-5.88l-0.24-.19a7.61,7.61,0,0,0-7.13-1.19l-0.16.06-0.14.05-0.16,0-0.19.1c-0.13-.22-0.25-0.41-0.36-0.63-0.3-.55-0.59-1.09-0.86-1.66-0.05-.14-0.11-0.28-0.16-0.43l0.46-.19a10.76,10.76,0,0,1,10,1c3.43,2.35,5,6.13,6.44,9.83,2,5.28,4.7,12.75,11.23,13.79,3.8,0.44,8.26-1.8,8.24-6.2-0.5-4.1-5.62-5.74-8.24-5.51a11.35,11.35,0,0,0-6.84,2.29c-0.23.18-.49,0.36-0.73,0.55l-0.07,0-0.08,0-0.1,0h-0.13l-0.09,0-0.06,0-0.09,0H242L242,67.23h0l-0.06,0-0.08-.05-0.06,0,0,0,0-.07,0-.07,0,0,0-.08,0-.06,0-.08,0-.09,0-.07,0-.08V66.33l0-.09,0-.05,0.06-.08,0-.08,0,0,0.08-.07,0.35-.24a21.75,21.75,0,0,1,3.16-1.86c5.48-2.4,14.47-.81,14.86,6.62" style="fill: #008742"/>
            <path d="M232.4,64.22a17.58,17.58,0,0,1-1.87-.43,20.28,20.28,0,0,1-14.78-18.92l3-.32A21.32,21.32,0,0,0,232.4,64.22" style="fill: #7db82e"/>
            <path d="M237.09,68.76h0.31l0.05,0,0.1,0h0.06l0.07,0.05,0.06,0,0.06,0,0,0.07,0,0,0.06,0,0,0.07,0,0.07v0.07l0.05,0.08v0.06l0,0.07v0.07l0,0.09v0.15l0,0.05,0,0.08L238,70l0,0.07a2,2,0,0,1-.52.31l-0.49.18-0.49.19-0.49.17-0.51.16-0.5.13-0.55.17-0.54.13-0.52.1a21,21,0,0,1-6.73.24l-0.56-.1-0.57-.12-0.57-.12-0.54-.15-0.57-.2-0.53-.21c-4-1.7-6.54-4.69-7-9.05l0-.41V60.68l0-.41,0.05-.42,0-.39,0.06-.42,0.12-.41a2.59,2.59,0,0,1,.12-0.53c0.05-.2.15-0.42,0.21-0.63a0.55,0.55,0,0,0,.09-0.26c0.11-.25.21-0.5,0.36-0.77l0.07-.18,2.15,2.92-0.08.29,0,0.25,0,0.27,0,0.24,0,0.28,0,0.24V61l0,0.25,0,0.26,0,0.24,0,0.27,0,0.23,0,0.25c1.42,6.17,9,7.68,14.3,7.09l0.52-.07,0.49-.09,0.5-.1,0.46-.12a10.41,10.41,0,0,0,1.42-.45" style="fill: #7db82e"/>
          </g>
        </g>
      </g>
      <g style="opacity: 0.5">
        <g style="clip-path: url(#7279c5e0-a2b2-42e7-8cda-5303813d444b)">
          <path d="M260.08,126.66c3.34,4.42,3.23,12.28-2.81,15.64s-16.95,1.42-20.47-3.23c-7.47-9.87,14.38-24.22,23.28-12.41" style="fill: #e0256d"/>
        </g>
      </g>
      <g style="opacity: 0.5">
        <g style="clip-path: url(#c821b12e-c61f-4b53-ab49-1a8b95b63e71)">
          <path d="M113.39,128c-3.34,4.42-3.23,12.28,2.81,15.64s16.95,1.42,20.47-3.23c7.47-9.87-14.38-24.22-23.28-12.41" style="fill: #e0256d"/>
        </g>
      </g>
      <g>
        <g>
          <path d="M214.47,109.82a12.32,12.32,0,1,0,24.63,0,12.12,12.12,0,0,0-.35-2.87l0,0a10,10,0,0,0,4.59-6.6c-3.29,1.13-8.66,0-8.66,0h0A12.31,12.31,0,0,0,214.47,109.82Z" style="fill: #4a3e37"/>
          <circle cx="222.04" cy="106.98" r="3.32" style="fill: #fff"/>
        </g>
        <g>
          <path d="M144.51,97.5a12.28,12.28,0,0,0-7.91,2.88h0s-5.38,1.13-8.67,0a10,10,0,0,0,4.59,6.6l0,0A12.31,12.31,0,1,0,144.51,97.5Zm-5.92,12.79a3.32,3.32,0,1,1,3.32-3.31A3.32,3.32,0,0,1,138.59,110.29Z" style="fill: #4a3e37"/>
          <circle cx="138.59" cy="106.98" r="3.32" style="fill: #fff"/>
        </g>
      </g>
      <path d="M199.11,138.55c-7.83,11.84-22,7.44-29.6-2.23-3-3.85-9.61.12-6.55,4,11.39,14.48,31.62,18.92,42.91,1.85,2.73-4.13-4.06-7.73-6.76-3.63" style="fill: #4a3e37"/>
    </g>
    <g>
      <g>
        <path d="M34.82,234.48l-0.48,12.85c2.65,2.75,6.19,3,10.4,1.4l2.49-7.54-12.41-6.71h0Z" style="fill: #363440"/>
        <path d="M66.75,230.76l-0.48,12.85c2.65,2.75,6.19,3,10.4,1.4l2.49-7.54-12.41-6.71h0Z" style="fill: #363440"/>
      </g>
      <path d="M89.24,164.22l8.84,8.15-3.67,4.41-3.94-4.29L80.9,226a7.27,7.27,0,0,1-6.28,5.94l-36.93,4.5L42.85,241,39,243.74l-9.1-8.3v0a7.27,7.27,0,0,1-2.9-7.18l10-55.75a7.27,7.27,0,0,1,6.28-5.94l39.57-4.82A7.27,7.27,0,0,1,89,164Z" style="fill: #7d68bd"/>
      <path d="M89.5,164.45l4,3.67-44.33,5.3a6.06,6.06,0,0,0-5.21,4.77l-5,23.93a2.06,2.06,0,1,1-4-.85l5-23.92a10.17,10.17,0,0,1,8.75-8l40.85-4.88h0Z" style="fill: #9d87e0"/>
      <path d="M46.78,180.61a6.18,6.18,0,0,1,5.34-5.05L94,170.47a6.19,6.19,0,0,1,6.84,7.23l-10.38,58a6.18,6.18,0,0,1-5.34,5.05l-41.83,5.09a6.19,6.19,0,0,1-6.84-7.23l10.38-58h0Z" style="fill: #9d87e0"/>
      <path d="M46.27,219.89a4.63,4.63,0,0,1,4-3.9l33.51-3.91a4.63,4.63,0,0,1,5.11,5.29l-1.76,11.58a4.63,4.63,0,0,1-4,3.9l-33.51,3.91a4.63,4.63,0,0,1-5.11-5.29l1.76-11.58h0Z" style="fill: #7d68bd"/>
      <path d="M52.13,181.72a2.52,2.52,0,0,1,2.19-2l36.55-4.26a2.52,2.52,0,0,1,2.77,3l-1.13,5.94a2.52,2.52,0,0,1-2.18,2l-36.53,4.31a2.52,2.52,0,0,1-2.77-3l1.12-6h0Z" style="fill: #7d68bd"/>
      <path d="M57.62,184l7.65-37.71a2.23,2.23,0,0,1,2-1.71l24.6-2.55a2.3,2.3,0,0,1,1.86.63,1.92,1.92,0,0,1,.55,1.76l-7.54,37.24a2.28,2.28,0,0,1-2.61,1.69A2,2,0,0,1,82.33,181l7-34.55-20,2.07L62,184.73a2.28,2.28,0,0,1-2.61,1.69A2,2,0,0,1,57.62,184h0Z" style="fill: #c7e3f4"/>
    </g>
  </g>
</svg>
