<svg id="01b48a52-5079-4129-a141-00b653ece820" data-name="圖層 1" xmlns="http://www.w3.org/2000/svg" xmlns:xlink="http://www.w3.org/1999/xlink" width="300" height="300" viewBox="0 0 300 300">
  <defs>
    <clipPath id="6c0041f6-9922-451a-a4ae-5f98288aea9f">
      <path id="90c420e5-1d50-4f08-9f48-a390cbaffa32" data-name="SVGID" d="M90.44,171.21c-6.15,6-9,13-6.48,15.6s9.65,0,15.79-6,9-13,6.47-15.6a3.22,3.22,0,0,0-1.54-.87c-3.25-.84-9.07,1.87-14.24,6.89" style="fill: none"/>
    </clipPath>
    <linearGradient id="0ad918fd-086a-4ab6-9e2f-0e218673b371" x1="-547.45" y1="2194.94" x2="-547.03" y2="2194.94" gradientTransform="translate(37017.9 -147900.71) scale(67.46)" gradientUnits="userSpaceOnUse">
      <stop offset="0" stop-color="#85b644"/>
      <stop offset="0.08" stop-color="#8cba48"/>
      <stop offset="0.42" stop-color="#a3c856"/>
      <stop offset="0.73" stop-color="#b1d15e"/>
      <stop offset="1" stop-color="#b6d461"/>
    </linearGradient>
    <clipPath id="2e8bdc04-912e-4767-995d-12d97e30a09b">
      <path id="850b208b-e149-4c0a-a64e-7af5734a5d09" data-name="SVGID" d="M242.47,166.5c-2,3.06,2.06,9.41,9.19,14.17s14.57,6.14,16.61,3.08-2.06-9.42-9.19-14.18c-6.66-4.46-13.59-5.95-16.15-3.61a3,3,0,0,0-.47.55" style="fill: none"/>
    </clipPath>
    <linearGradient id="24f3705c-898d-4835-8823-1c80ea9f8bf9" x1="-550.66" y1="2227.75" x2="-550.23" y2="2227.75" gradientTransform="translate(-150056.02 -36969.52) rotate(-90) scale(67.47)" xlink:href="#0ad918fd-086a-4ab6-9e2f-0e218673b371"/>
    <clipPath id="69544944-0279-481d-86c4-857a3ad78c86">
      <path id="14d3da32-4503-4ab5-a814-14b97249a4c2" data-name="SVGID" d="M199.66,211.21c-3.45,1.27-3.85,8.83-.88,16.87s8.2,13.53,11.65,12.24,3.86-8.83.88-16.87c-2.78-7.52-7.52-12.8-11-12.4a2.81,2.81,0,0,0-.7.17" style="fill: none"/>
    </clipPath>
    <linearGradient id="8598f1f9-73eb-4c64-b831-bd78acdf8a7c" x1="-543.7" y1="2220.53" x2="-543.27" y2="2220.53" gradientTransform="matrix(0, -67.47, 67.47, 0, -149620.31, -36444.61)" xlink:href="#0ad918fd-086a-4ab6-9e2f-0e218673b371"/>
    <clipPath id="5c657f8a-de2c-4208-b035-f52605b5fa12">
      <path id="61ab2f44-ba95-4a99-b81d-a5f382cf530d" data-name="SVGID" d="M122.92,217.91c-3.58,7.78-3.77,15.34-.42,16.89s9-3.52,12.56-11.3,3.76-15.35.41-16.89a3.22,3.22,0,0,0-1.75-.25c-3.34.38-7.79,5-10.8,11.56" style="fill: none"/>
    </clipPath>
    <linearGradient id="1ec30b6f-3507-4da1-ae09-4d78e60f192d" x1="-546.69" y1="2200.69" x2="-546.26" y2="2200.69" gradientTransform="translate(-148335.1 -36653.03) rotate(-90) scale(67.46)" xlink:href="#0ad918fd-086a-4ab6-9e2f-0e218673b371"/>
    <clipPath id="df92fd33-536a-44dd-b5d0-d8011689a786">
      <path id="2ed39230-1ee8-425a-a141-d2c8a887910c" data-name="SVGID" d="M102.71,108.93A83.2,83.2,0,1,0,166.3,66.14a83.2,83.2,0,0,0-63.59,42.79" style="fill: none"/>
    </clipPath>
    <linearGradient id="9c402d7e-c6ce-4299-b2d4-43fe178f1310" x1="-569.25" y1="2217.81" x2="-568.82" y2="2217.81" gradientTransform="matrix(-392.5, 0, 0, -392.5, -223173, 870654.77)" gradientUnits="userSpaceOnUse">
      <stop offset="0" stop-color="#b6d461"/>
      <stop offset="1" stop-color="#b6d461"/>
      <stop offset="1" stop-color="#85b644"/>
    </linearGradient>
    <clipPath id="c40c4919-bf4e-440b-8e3e-4ad8703d5933">
      <path id="fda46505-7db8-4bbf-8198-76a1476d5808" data-name="SVGID" d="M121.88,90a79.78,79.78,0,1,0,44.67-20.4A79.78,79.78,0,0,0,121.88,90" style="fill: none"/>
    </clipPath>
    <linearGradient id="c214938a-d37d-433f-b551-0bc3fcbc4619" x1="-566.37" y1="2215.77" x2="-565.95" y2="2215.77" gradientTransform="matrix(0, -376.45, 376.45, 0, -833949.3, -212976.19)" xlink:href="#0ad918fd-086a-4ab6-9e2f-0e218673b371"/>
    <clipPath id="939b8b21-6a71-4e5e-8ca4-a813aa991afb">
      <path id="49b331a0-b3e9-43c7-a3b1-a7b3aa887e28" data-name="SVGID" d="M194.59,116a18.76,18.76,0,1,0,3.16-.64,18.78,18.78,0,0,0-3.16.64" style="fill: none"/>
    </clipPath>
    <linearGradient id="cc0956d1-ef9e-4710-adb1-fe1f59ac6e3e" x1="-554.45" y1="2224.04" x2="-554.03" y2="2224.04" gradientTransform="translate(-196713.92 -48946.66) rotate(-90) scale(88.54)" gradientUnits="userSpaceOnUse">
      <stop offset="0" stop-color="#231815"/>
      <stop offset="0.34" stop-color="#322b29"/>
      <stop offset="0.69" stop-color="#3d3837"/>
      <stop offset="1" stop-color="#413d3c"/>
    </linearGradient>
    <clipPath id="e389eca8-e277-40cf-916b-cc4d1a622b2a">
      <path id="afa47543-53ab-46f6-8ad4-0803937fe51c" data-name="SVGID" d="M195.18,123.41a11.67,11.67,0,1,0,2-.4,11.68,11.68,0,0,0-2,.4" style="fill: none"/>
    </clipPath>
    <linearGradient id="abc7a87c-291e-4f14-918a-53d243e5afde" x1="-576.61" y1="2183.35" x2="-576.19" y2="2183.35" gradientTransform="translate(32009.76 -120318.09) rotate(0.01) scale(55.17)" gradientUnits="userSpaceOnUse">
      <stop offset="0" stop-color="#898a8a"/>
      <stop offset="0.02" stop-color="#878888"/>
      <stop offset="0.38" stop-color="#727271"/>
      <stop offset="0.71" stop-color="#656463"/>
      <stop offset="1" stop-color="#605f5e"/>
    </linearGradient>
    <clipPath id="287b5f5a-6b63-416d-bcab-831f28413271">
      <path id="daa9a197-fd02-439a-92fa-2a62164eb29e" data-name="SVGID" d="M122.07,118a18.76,18.76,0,1,0,3.16-.64,19,19,0,0,0-3.16.64" style="fill: none"/>
    </clipPath>
    <linearGradient id="4802394e-56d7-47f5-a718-c97f301858a3" x1="-553.74" y1="2223.63" x2="-553.32" y2="2223.63" gradientTransform="matrix(0, -88.54, 88.54, 0, -196752.6, -48871.49)" xlink:href="#cc0956d1-ef9e-4710-adb1-fe1f59ac6e3e"/>
    <clipPath id="3b1caf21-13c2-485e-968a-86b242534324">
      <path id="1f4d574b-960c-4f7e-a576-2144142551b2" data-name="SVGID" d="M122.66,125.35a11.67,11.67,0,1,0,2-.4,11.57,11.57,0,0,0-2,.4" style="fill: none"/>
    </clipPath>
    <linearGradient id="51c17895-0aad-418c-9d70-d4f7d81d1d9e" x1="-577.89" y1="2183.01" x2="-577.46" y2="2183.01" gradientTransform="matrix(55.17, 0, 0, 55.17, 32000.62, -120299.37)" xlink:href="#abc7a87c-291e-4f14-918a-53d243e5afde"/>
  </defs>
  <title>00_遊戲人物</title>
  <g>
    <g>
      <g>
        <g style="clip-path: url(#6c0041f6-9922-451a-a4ae-5f98288aea9f)">
          <rect x="79.41" y="164.11" width="31" height="25.2" transform="matrix(0.35, -0.94, 0.94, 0.35, -103.76, 204.35)" style="fill: url(#0ad918fd-086a-4ab6-9e2f-0e218673b371)"/>
        </g>
        <g style="clip-path: url(#2e8bdc04-912e-4767-995d-12d97e30a09b)">
          <rect x="239.2" y="157.97" width="32.89" height="34.89" transform="translate(45.24 403.12) rotate(-81.72)" style="fill: url(#24f3705c-898d-4835-8823-1c80ea9f8bf9)"/>
        </g>
        <g style="clip-path: url(#69544944-0279-481d-86c4-857a3ad78c86)">
          <rect x="188.65" y="208.71" width="32.89" height="34.89" transform="translate(-100.02 215.49) rotate(-45.79)" style="fill: url(#8598f1f9-73eb-4c64-b831-bd78acdf8a7c)"/>
        </g>
        <g style="clip-path: url(#5c657f8a-de2c-4208-b035-f52605b5fa12)">
          <rect x="116.47" y="205.93" width="25.2" height="31" transform="translate(-3.06 1.81) rotate(-0.79)" style="fill: url(#1ec30b6f-3507-4da1-ae09-4d78e60f192d)"/>
        </g>
        <g style="clip-path: url(#df92fd33-536a-44dd-b5d0-d8011689a786)">
          <rect x="68.16" y="50.79" width="216.43" height="207.24" transform="translate(-36.34 55.91) rotate(-16.35)" style="fill: url(#9c402d7e-c6ce-4299-b2d4-43fe178f1310)"/>
        </g>
        <g style="clip-path: url(#c40c4919-bf4e-440b-8e3e-4ad8703d5933)">
          <rect x="54.64" y="31.13" width="243.42" height="245.99" transform="translate(-43.45 234.99) rotate(-61.35)" style="fill: url(#c214938a-d37d-433f-b551-0bc3fcbc4619)"/>
        </g>
        <g>
          <g>
            <g>
              <path d="M237.66,81.42c-0.37,4.65,3.9,8.78,9.52,9.22s10.47-3,10.84-7.64-3.9-8.78-9.53-9.22-10.47,3-10.82,7.63" style="fill: #efdc3c"/>
              <path d="M227.37,79.93c-2.51,3.93-.69,9.58,4.05,12.62s10.65,2.3,13.17-1.64,0.68-9.58-4.07-12.62-10.64-2.3-13.15,1.64" style="fill: #efdc3c"/>
              <path d="M240,90.25c-1.56,4.41,1.49,9.5,6.82,11.37s10.88-.17,12.44-4.58-1.52-9.48-6.82-11.36-10.9.18-12.45,4.58" style="fill: #efdc3c"/>
            </g>
            <g>
              <path d="M227.79,78.94c3.7,2.84,9.48,1.51,12.91-3s3.19-10.41-.51-13.25-9.5-1.5-12.92,3-3.19,10.4.52,13.24" style="fill: #eebc2a"/>
              <path d="M213.51,68.54c-2.51,3.93-.69,9.58,4.05,12.62s10.65,2.3,13.16-1.64,0.69-9.58-4.06-12.62-10.64-2.3-13.16,1.64" style="fill: #eebc2a"/>
              <path d="M226.16,78.87c-1.54,4.4,1.52,9.49,6.82,11.37s10.89-.18,12.45-4.58-1.52-9.49-6.82-11.37-10.88.18-12.45,4.58" style="fill: #eebc2a"/>
            </g>
          </g>
          <g>
            <path d="M247.83,85.38A7.3,7.3,0,0,1,246,90.25l-0.29.3-0.29.29-0.3.3-0.33.27-0.35.25-0.34.25a13.81,13.81,0,0,1-2.34,1.15l-0.46.12-0.42.1-0.42.13-0.47.06c-8.39,1.16-13.12-6.88-15.7-13.49-0.38-1-.75-2-1.12-3-0.09-.22-0.18-0.46-0.29-0.67a15,15,0,0,0-3.61-5.88L219,70.25a7.62,7.62,0,0,0-7.13-1.18l-0.16.06-0.14.06-0.16,0-0.19.1c-0.13-.22-0.25-0.41-0.36-0.63-0.3-.55-0.59-1.09-0.86-1.66-0.05-.15-0.11-0.28-0.16-0.43l0.45-.19a10.76,10.76,0,0,1,10,1c3.43,2.35,5,6.12,6.44,9.83,2,5.28,4.7,12.75,11.23,13.79,3.8,0.44,8.26-1.81,8.24-6.2-0.5-4.1-5.62-5.74-8.24-5.51a11.37,11.37,0,0,0-6.84,2.29c-0.23.18-.49,0.36-0.73,0.55l-0.07,0-0.08,0-0.1,0H230l-0.09,0-0.06,0-0.09,0H229.7l-0.09-.06h0l-0.06,0-0.08-.05L229.37,82l0,0,0-.07,0-.07,0,0,0-.08V81.67l0-.08V81.5l0-.07,0-.08V81.29l0-.09,0-.06,0.06-.08,0-.08,0,0,0.08-.07,0.35-.24A21.62,21.62,0,0,1,233,78.76c5.48-2.4,14.47-.81,14.86,6.62" style="fill: #008742"/>
            <path d="M220,79.17a18,18,0,0,1-1.87-.43A20.27,20.27,0,0,1,203.4,59.82l3-.32A21.31,21.31,0,0,0,220,79.17" style="fill: #7db82e"/>
            <path d="M224.74,83.72H225l0.05,0,0.1,0h0.06l0.07,0.05,0.06,0,0.06,0,0,0.08,0,0,0.06,0,0,0.07,0,0.07v0.07l0,0.08v0.06l0,0.07V84.5l0,0.09v0.15l0,0.05,0,0.08-0.06.06,0,0.08a1.93,1.93,0,0,1-.52.31l-0.49.18-0.49.19-0.49.18-0.51.16-0.5.14-0.55.17-0.54.13-0.52.1a21.07,21.07,0,0,1-6.73.24l-0.56-.1-0.57-.13-0.57-.13L212,86.3l-0.57-.2-0.53-.21c-4-1.7-6.54-4.69-7-9.05l0-.41V75.64l0-.4,0.05-.42,0-.39L204,74l0.12-.41a2.61,2.61,0,0,1,.12-0.53c0.05-.2.15-0.42,0.21-0.63a0.54,0.54,0,0,0,.09-0.25c0.11-.25.21-0.5,0.36-0.77l0.07-.17,2.15,2.92-0.08.29,0,0.24L207,75l0,0.24,0,0.28,0,0.24V76l0,0.25,0,0.26,0,0.24L207,77l0,0.23,0,0.25c1.42,6.16,9,7.68,14.3,7.09l0.52-.07,0.49-.09,0.5-.1,0.46-.13a10.47,10.47,0,0,0,1.42-.45" style="fill: #7db82e"/>
          </g>
        </g>
      </g>
      <g>
        <path d="M179.56,140.38a23.38,23.38,0,1,0,15.85-29,23.37,23.37,0,0,0-15.85,29" style="fill: #fff"/>
        <g style="clip-path: url(#939b8b21-6a71-4e5e-8ca4-a813aa991afb)">
          <rect x="172.34" y="106.97" width="55.25" height="55.61" transform="translate(-14.17 245.67) rotate(-61.36)" style="fill: url(#cc0956d1-ef9e-4710-adb1-fe1f59ac6e3e)"/>
        </g>
        <g style="clip-path: url(#e389eca8-e277-40cf-916b-cc4d1a622b2a)">
          <rect x="184.01" y="120.96" width="29.03" height="28.27" transform="translate(-30.01 61.39) rotate(-16.36)" style="fill: url(#abc7a87c-291e-4f14-918a-53d243e5afde)"/>
        </g>
        <g>
          <path d="M193.76,132a8.42,8.42,0,1,0,5.72-10.45A8.42,8.42,0,0,0,193.76,132" style="fill: #fff"/>
          <path d="M192.64,144.34a3.77,3.77,0,1,0,2.56-4.68,3.76,3.76,0,0,0-2.56,4.68" style="fill: #fff"/>
        </g>
      </g>
      <path d="M216.43,169.93c0.06,2.68,5.35,4.75,11.83,4.62s11.68-2.42,11.63-5.11-5.35-4.76-11.83-4.62-11.69,2.42-11.63,5.11" style="fill: #f0b7bb"/>
      <path d="M100,166.47c-0.45,2.65,4.38,5.66,10.78,6.72s11.92-.23,12.36-2.89-4.39-5.65-10.77-6.71-11.92.23-12.37,2.88" style="fill: #f0b7bb"/>
      <g>
        <path d="M107,142.31a23.38,23.38,0,1,0,15.85-29,23.37,23.37,0,0,0-15.85,29" style="fill: #fff"/>
        <g style="clip-path: url(#287b5f5a-6b63-416d-bcab-831f28413271)">
          <rect x="99.82" y="108.91" width="55.26" height="55.61" transform="translate(-53.63 183.02) rotate(-61.35)" style="fill: url(#4802394e-56d7-47f5-a718-c97f301858a3)"/>
        </g>
        <g style="clip-path: url(#3b1caf21-13c2-485e-968a-86b242534324)">
          <rect x="111.5" y="122.9" width="29.03" height="28.26" transform="translate(-33.49 41.03) rotate(-16.36)" style="fill: url(#51c17895-0aad-418c-9d70-d4f7d81d1d9e)"/>
        </g>
        <g>
          <path d="M121.24,134A8.42,8.42,0,1,0,127,123.53,8.42,8.42,0,0,0,121.24,134" style="fill: #fff"/>
          <path d="M120.12,146.28a3.77,3.77,0,1,0,2.56-4.68,3.76,3.76,0,0,0-2.56,4.68" style="fill: #fff"/>
        </g>
      </g>
      <path d="M186.46,166.51c-2.27-1.64-4.43,2.12-2.19,3.75,4.61,3.34.49,9.3-3.71,10.31-4.48,1.08-11.82-1.31-11.11-6.95a1.25,1.25,0,0,0-1.47-1.46,1.93,1.93,0,0,0-3.12.92c-0.6,2.42-.73,4.37-2.63,6.22a7.19,7.19,0,0,1-7,2c-4.35-1.34-6.24-6.67-5-10.72a1.6,1.6,0,0,0-2.92-1.23,11.49,11.49,0,0,0,7.14,16.22c4.4,1.14,9.93-1.36,12.67-5.31,3.3,4.16,11.38,5.64,15.94,4,7.55-2.7,10.24-12.82,3.32-17.8" style="fill: #4a3e37"/>
    </g>
    <g>
      <path d="M87.51,187.81l-7,3.3a7.87,7.87,0,0,1-10.47-3.73l-3.3-7a7.87,7.87,0,0,1,3.73-10.47l7-3.3a7.87,7.87,0,0,1,10.48,3.74l3.3,7A7.87,7.87,0,0,1,87.51,187.81ZM71.66,172.38a5.18,5.18,0,0,0-2.45,6.89l3.3,7a5.18,5.18,0,0,0,6.89,2.46l7-3.3a5.17,5.17,0,0,0,2.45-6.88l-3.3-7a5.17,5.17,0,0,0-6.89-2.46Z" style="fill: #bc2e08"/>
      <g>
        <polygon points="96 165.32 105.44 170.14 105.42 159.4 96 164.24 96 165.32" style="fill: #ef5018"/>
        <ellipse cx="105.74" cy="164.77" rx="1.98" ry="5.45" transform="translate(-0.2 0.13) rotate(-0.07)" style="fill: #ef5018"/>
        <polygon points="101.85 161.51 44.96 132.47 45.05 197.23 101.86 168.04 101.85 161.51" style="fill: #fd6220"/>
        <ellipse cx="101.64" cy="164.78" rx="1.23" ry="3.38" transform="translate(-0.17 0.11) rotate(-0.06)" style="fill: #fd6220"/>
        <path d="M102.87,164.78a8.09,8.09,0,0,0-.19-1.76L45,148.46l0,32.79,57.66-14.71A8.19,8.19,0,0,0,102.87,164.78Z" style="fill: #ff7443"/>
        <ellipse cx="43.15" cy="164.86" rx="11.95" ry="32.83" transform="translate(-0.23 0.06) rotate(-0.08)" style="fill: #fd6220"/>
        <ellipse cx="43.15" cy="164.86" rx="10.64" ry="29.22" transform="translate(-0.22 0.06) rotate(-0.08)" style="fill: #bc2e08"/>
        <path d="M40.41,165c0,12.5,3.21,22.95,7.47,25.61,3.52-4.77,5.93-14.72,5.91-26.24,0-10.85-2.18-20.3-5.38-25.34C43.86,141.09,40.39,151.94,40.41,165Z" style="fill: #a81c00"/>
        <path d="M51.84,181.6a68.74,68.74,0,0,0,2-17,69.27,69.27,0,0,0-1.9-16.56C50.1,152,49,158.13,49,165S50.09,177.64,51.84,181.6Z" style="fill: #751100"/>
      </g>
    </g>
  </g>
</svg>
