<svg id="bbbb8b9a-d923-4df4-98dd-072ff141be29" data-name="圖層 4" xmlns="http://www.w3.org/2000/svg" xmlns:xlink="http://www.w3.org/1999/xlink" viewBox="0 0 47 45.5"><defs><linearGradient id="b9b67375-52fd-4470-8d07-bc9dc942ee09" x1="1334.67" y1="462.44" x2="1334.67" y2="416.97" gradientUnits="userSpaceOnUse"><stop offset="0" stop-color="#49312c"/><stop offset="0.43" stop-color="#3c2925"/><stop offset="1" stop-color="#30211e"/></linearGradient></defs><title>04_人物簡介前導頁_綠色居家</title><path d="M1334.7,417a7.5,7.5,0,0,0-6.7,4.1l-3.2,6.6-7.3,1a7.4,7.4,0,0,0-4.1,12.7l5.2,5.1-1.2,7.2a7.3,7.3,0,0,0,7.3,8.7,8.5,8.5,0,0,0,3.5-.8l6.5-3.4,6.5,3.4a7.7,7.7,0,0,0,3.4.8,7.3,7.3,0,0,0,5.7-2.6,7.4,7.4,0,0,0,1.6-6.1l-1.2-7.2,5.2-5.1a7.2,7.2,0,0,0,1.9-7.6,7.5,7.5,0,0,0-6-5.1l-7.2-1-3.3-6.6a7.3,7.3,0,0,0-6.6-4.1Z" transform="translate(-1311.1 -417)" fill="url(#b9b67375-52fd-4470-8d07-bc9dc942ee09)"/><path d="M1338,422.8l3.2,6.5a3.6,3.6,0,0,0,2.9,2l7.2,1.1a3.8,3.8,0,0,1,2.1,6.4l-5.3,5.1a3.7,3.7,0,0,0-1.1,3.3l1.3,7.2a3.7,3.7,0,0,1-5.4,3.9l-6.5-3.4a3.6,3.6,0,0,0-3.5,0l-6.4,3.4a3.7,3.7,0,0,1-5.4-3.9l1.2-7.2a3.7,3.7,0,0,0-1.1-3.3l-5.2-5.1a3.8,3.8,0,0,1,2-6.4l7.3-1.1a3.6,3.6,0,0,0,2.8-2l3.2-6.5A3.7,3.7,0,0,1,1338,422.8Z" transform="translate(-1311.1 -417)" fill="#fff"/><g opacity="0.5"><path d="M1318,433.6l7.3-1a4,4,0,0,0,2.8-2.1l3.2-6.5a3.7,3.7,0,0,1,6.7,0l3.2,6.5a4,4,0,0,0,2.9,2.1l7.2,1a3.7,3.7,0,0,1,3.1,3.1,3.7,3.7,0,0,0-3.1-4.3l-7.2-1.1a3.6,3.6,0,0,1-2.9-2l-3.2-6.5a3.7,3.7,0,0,0-6.7,0l-3.2,6.5a3.6,3.6,0,0,1-2.8,2l-7.3,1.1a3.7,3.7,0,0,0-3.1,4.3A3.8,3.8,0,0,1,1318,433.6Z" transform="translate(-1311.1 -417)" fill="#fff"/></g><path d="M1334.7,441.8c-8,0-15.1-2.4-19.8-6.1a3.9,3.9,0,0,0,1.1,3.1l5.2,5.1a3.7,3.7,0,0,1,1.1,3.3l-1.2,7.2a3.7,3.7,0,0,0,5.4,3.9l6.4-3.4a3.6,3.6,0,0,1,3.5,0l6.5,3.4a3.7,3.7,0,0,0,5.4-3.9l-1.3-7.2a3.7,3.7,0,0,1,1.1-3.3l5.3-5.1a3.9,3.9,0,0,0,1.1-3.1C1349.7,439.4,1342.6,441.8,1334.7,441.8Z" transform="translate(-1311.1 -417)" fill="#333" opacity="0.1"/></svg>