<svg id="e17dd293-450b-465c-a433-04f2a463dfbd" data-name="圖層 4" xmlns="http://www.w3.org/2000/svg" xmlns:xlink="http://www.w3.org/1999/xlink" viewBox="0 0 47 45.5"><defs><linearGradient id="ff1214a8-697d-4027-aa2c-725baef0ea42" x1="1172.91" y1="462.44" x2="1172.91" y2="416.97" gradientUnits="userSpaceOnUse"><stop offset="0" stop-color="#49312c"/><stop offset="0.43" stop-color="#3c2925"/><stop offset="1" stop-color="#30211e"/></linearGradient><radialGradient id="a94495f5-113e-4076-bf25-b2e8975fe4d3" cx="1172.91" cy="439.7" r="19.43" gradientUnits="userSpaceOnUse"><stop offset="0" stop-color="#f1c40f"/><stop offset="0.33" stop-color="#f1c00f"/><stop offset="0.63" stop-color="#f2b510"/><stop offset="0.92" stop-color="#f3a212"/><stop offset="1" stop-color="#f39c12"/></radialGradient></defs><title>04_人物簡介前導頁_綠色居家</title><path d="M1172.9,417a7.6,7.6,0,0,0-6.7,4.1l-3.2,6.6-7.3,1a7.2,7.2,0,0,0-5.9,5.1,7.4,7.4,0,0,0,1.8,7.6l5.3,5.1-1.3,7.2a7.9,7.9,0,0,0,1.7,6.1,7.3,7.3,0,0,0,5.7,2.6,8.1,8.1,0,0,0,3.4-.8l6.5-3.4,6.5,3.4a8.4,8.4,0,0,0,3.4.8,7.3,7.3,0,0,0,5.7-2.6,7.9,7.9,0,0,0,1.7-6.1l-1.3-7.2,5.3-5.1a7.6,7.6,0,0,0,1.9-7.6,7.5,7.5,0,0,0-6-5.1l-7.3-1-3.2-6.6a7.5,7.5,0,0,0-6.7-4.1Z" transform="translate(-1149.4 -417)" fill="url(#ff1214a8-697d-4027-aa2c-725baef0ea42)"/><g id="b670a69d-0e43-4e15-a552-71a053c3d8f5" data-name="star"><path d="M1176.2,422.8l3.3,6.5a3.5,3.5,0,0,0,2.8,2l7.2,1.1a3.8,3.8,0,0,1,2.1,6.4l-5.2,5.1a3.7,3.7,0,0,0-1.1,3.3l1.2,7.2a3.7,3.7,0,0,1-5.4,3.9l-6.5-3.4a3.4,3.4,0,0,0-3.4,0l-6.5,3.4a3.7,3.7,0,0,1-5.4-3.9l1.2-7.2a3.9,3.9,0,0,0-1-3.3l-5.3-5.1a3.8,3.8,0,0,1,2.1-6.4l7.2-1.1a3.5,3.5,0,0,0,2.8-2l3.3-6.5A3.6,3.6,0,0,1,1176.2,422.8Z" transform="translate(-1149.4 -417)" fill="url(#a94495f5-113e-4076-bf25-b2e8975fe4d3)"/><g opacity="0.5"><path d="M1156.3,433.6l7.2-1a3.8,3.8,0,0,0,2.8-2.1l3.3-6.5a3.6,3.6,0,0,1,6.6,0l3.3,6.5a3.8,3.8,0,0,0,2.8,2.1l7.2,1a3.8,3.8,0,0,1,3.2,3.1,3.8,3.8,0,0,0-3.2-4.3l-7.2-1.1a3.5,3.5,0,0,1-2.8-2l-3.3-6.5a3.6,3.6,0,0,0-6.6,0l-3.3,6.5a3.5,3.5,0,0,1-2.8,2l-7.2,1.1a3.8,3.8,0,0,0-3.2,4.3A3.8,3.8,0,0,1,1156.3,433.6Z" transform="translate(-1149.4 -417)" fill="#fff"/></g><path d="M1172.9,441.8c-7.9,0-15-2.4-19.8-6.1a3.9,3.9,0,0,0,1.1,3.1l5.3,5.1a3.9,3.9,0,0,1,1,3.3l-1.2,7.2a3.7,3.7,0,0,0,5.4,3.9l6.5-3.4a3.4,3.4,0,0,1,3.4,0l6.5,3.4a3.7,3.7,0,0,0,5.4-3.9l-1.2-7.2a3.7,3.7,0,0,1,1.1-3.3l5.2-5.1a3.9,3.9,0,0,0,1.1-3.1C1188,439.4,1180.9,441.8,1172.9,441.8Z" transform="translate(-1149.4 -417)" fill="#333" opacity="0.1"/></g></svg>