<?xml version="1.0" encoding="utf-8"?>
<!-- Generator: Adobe Illustrator 19.2.1, SVG Export Plug-In . SVG Version: 6.00 Build 0)  -->
<svg version="1.0" id="圖層_1" xmlns="http://www.w3.org/2000/svg" xmlns:xlink="http://www.w3.org/1999/xlink" x="0px" y="0px"
	 viewBox="0 0 50 50" style="enable-background:new 0 0 50 50;" xml:space="preserve">
<style type="text/css">
	.st0{fill:#FFFFFF;}
	.st1{fill:#7ABC34;}
</style>
<polygon class="st0" points="25.4,29.3 23,30.7 21,29.3 21,24.8 20.6,24.1 25.8,24.1 25.4,24.9 "/>
<rect x="20.7" y="22.9" class="st0" width="5" height="0.5"/>
<g>
	<path class="st1" d="M24.1,33.2c0.1-0.3,0.1-0.6,0.1-0.9c0-2.2-1.8-3.9-3.9-3.9c-2.2,0-3.9,1.8-3.9,3.9c0,0.3,0,0.5,0.1,0.8h-2.2
		c-2.7,0-5,2.2-5,5s2.2,5,5,5H23c2.7,0,5-2.2,5-5C27.9,35.7,26.3,33.8,24.1,33.2L24.1,33.2z M20.3,29.6c1.5,0,2.7,1.2,2.7,2.7
		c0,1.5-1.2,2.7-2.7,2.7s-2.7-1.2-2.7-2.7C17.5,30.8,18.8,29.6,20.3,29.6L20.3,29.6z M23,41.8h-8.7c-1.6,0-3-1-3.5-2.5
		c0.6,0.3,1.3,0.4,2,0.4h11.8c0.3,0,0.6-0.3,0.6-0.6s-0.3-0.6-0.6-0.6H12.7c-0.8,0-1.6-0.3-2.2-0.7c0.1-2,1.8-3.5,3.7-3.5h2.6
		c0.7,1.2,1.9,1.9,3.4,1.9c1.4,0,2.7-0.7,3.3-1.9c1.8,0.3,3.1,1.9,3.1,3.7C26.7,40.1,25,41.8,23,41.8L23,41.8z M40.7,28.8
		c-0.1-2.6-0.6-3.6-1.7-5.5c-0.1-0.2-0.3-0.5-0.4-0.8l-4.8-8.9c-0.1-0.2-0.2-0.3-0.3-0.5c-0.6-1.2-1.3-2.5-2.7-2.8V7.6
		c0-0.3-0.3-0.6-0.6-0.6h-4.9c-0.3,0-0.6,0.3-0.6,0.6v2.6c-1.6,0.3-2.7,1.6-3,3.5l-0.5,3.1c-0.1,0.3,0.2,0.6,0.5,0.7
		s0.6-0.2,0.7-0.5l0.5-3.1c0.2-1.3,1-2.6,2.5-2.6h4.8c1.1,0,1.5,0.8,2.3,2.2c0.1,0.2,0.2,0.4,0.3,0.5l4.8,8.9
		c0.2,0.3,0.3,0.6,0.4,0.8c1,1.9,1.5,2.7,1.5,5v9.6c0,1.9-1.5,3.4-3.4,3.4h-8.3c-0.3,0-0.6,0.3-0.6,0.6s0.3,0.6,0.6,0.6h8.3
		c2.5,0,4.6-2,4.6-4.6L40.7,28.8L40.7,28.8L40.7,28.8z M29.6,10.1h-3.7V8.2h3.7V10.1z M21.2,22.9c1.2,0,2.3-1,2.3-2.3
		c0-1.2-1-2.3-2.3-2.3c-1.2,0-2.3,1-2.3,2.3C18.9,21.9,20,22.9,21.2,22.9L21.2,22.9z M21.2,19.6c0.6,0,1,0.5,1,1s-0.5,1-1,1
		c-0.6,0-1-0.5-1-1S20.6,19.6,21.2,19.6L21.2,19.6z M21.2,24.5l-0.3,2.2c0,0.3-0.3,0.5-0.6,0.5h-0.1c-0.3-0.1-0.6-0.4-0.5-0.7
		l0.3-2.2c0.1-0.3,0.4-0.6,0.7-0.5C21,23.8,21.3,24.1,21.2,24.5L21.2,24.5z M14.2,27.8c1.5,0,2.8-1.2,2.8-2.8c0-1.5-1.2-2.8-2.8-2.8
		c-1.5,0-2.8,1.2-2.8,2.8C11.5,26.5,12.7,27.8,14.2,27.8L14.2,27.8z M14.2,23.4c0.9,0,1.6,0.7,1.6,1.6s-0.7,1.6-1.6,1.6
		c-0.9,0-1.6-0.7-1.6-1.6C12.7,24.1,13.4,23.4,14.2,23.4L14.2,23.4z M19.7,31.1c0-0.3,0.3-0.6,0.6-0.6c1,0,1.8,0.8,1.8,1.8
		c0,0.3-0.3,0.6-0.6,0.6c-0.3,0-0.6-0.3-0.6-0.6c0-0.4-0.3-0.6-0.6-0.6C19.9,31.7,19.7,31.4,19.7,31.1L19.7,31.1z M15.1,15.8
		c1.2,0,2.3-1,2.3-2.3c0-1.2-1-2.3-2.3-2.3c-1.2,0-2.3,1-2.3,2.3C12.9,14.7,13.9,15.8,15.1,15.8L15.1,15.8z M15.1,12.5
		c0.6,0,1,0.5,1,1c0,0.6-0.5,1-1,1c-0.6,0-1-0.5-1-1C14.1,12.9,14.5,12.5,15.1,12.5L15.1,12.5z M33.7,28.6c0.2,0.1,0.4,0.1,0.6,0.1
		c0.3,0,0.7-0.1,1-0.3c1-0.6,1.4-1.9,0.9-2.9l0,0L31,15.7c-0.6-1-1.9-1.4-2.9-0.9c-1,0.6-1.4,1.9-0.9,2.9l5.2,9.8
		C32.7,28,33.1,28.4,33.7,28.6L33.7,28.6z M28.6,15.9c0.1-0.1,0.3-0.1,0.4-0.1c0.3,0,0.7,0.2,0.8,0.5l5.2,9.8c0.2,0.5,0.1,1-0.4,1.3
		c-0.5,0.2-1,0.1-1.3-0.4l-5.2-9.8C28,16.7,28.1,16.1,28.6,15.9L28.6,15.9z"/>
</g>
</svg>
