<?xml version="1.0" encoding="utf-8"?>
<!-- Generator: Adobe Illustrator 19.2.1, SVG Export Plug-In . SVG Version: 6.00 Build 0)  -->
<svg version="1.0" id="圖層_1" xmlns="http://www.w3.org/2000/svg" xmlns:xlink="http://www.w3.org/1999/xlink" x="0px" y="0px"
	 viewBox="0 0 50 50" style="enable-background:new 0 0 50 50;" xml:space="preserve">
<style type="text/css">
	.st0{fill:#7ABC34;}
</style>
<path class="st0" d="M17,27.1c-0.2-0.4-0.1-0.9,0.3-1.2l18-17.1c0.3-0.3,0.5-0.7,0.5-1.2c0-0.4-0.2-0.9-0.5-1.2l-0.7-0.7
	c-0.3-0.3-0.7-0.5-1.2-0.5c-0.4,0-0.9,0.2-1.2,0.5L15.1,23.9c-0.3,0.3-0.8,0.4-1.2,0.2c-2.1-0.9-4.2-0.2-6.2,1.7
	c-2.4,2.4-4.7,7.5-2.3,9.9c2.4,2.4,7.5,0.1,9.9-2.3C17.1,31.6,17.8,29.2,17,27.1L17,27.1z M32.2,8.9c-0.4-0.4-0.4-1.2,0-1.6
	c0.4-0.4,1.2-0.4,1.6,0c0.4,0.4,0.4,1.2,0,1.6C33.3,9.3,32.6,9.3,32.2,8.9L32.2,8.9z"/>
<path class="st0" d="M29.5,34.7c0.3-0.6,0.7-1.1,1.1-1.5l14.8-14.1c0.3-0.3,0.5-0.8,0.5-1.2c0-0.4-0.1-0.9-0.4-1.2L44.8,16
	c-0.3-0.3-0.8-0.4-1.2-0.4s-0.9,0.2-1.2,0.5L28.5,31c-0.4,0.5-0.9,0.8-1.5,1.1c-2.9,1.5-7.7,4-8.4,4.8c-3.6,3.6-4.9,5.2-4.8,6.5
	c0,0.1,0.1,0.2,0.2,0.3c0.1,0,0.3,0,0.3-0.1l5.1-4.9c0.2-0.2,0.6-0.3,0.9,0l0.1,0.1c0.3,0.3,0.2,0.7-0.1,0.9l-4.7,5.6
	c-0.2,0.2-0.2,0.5,0,0.7s0.5,0.2,0.7,0l5.6-4.7c0.2-0.2,0.7-0.3,0.9-0.1l0.1,0.1c0.3,0.3,0.2,0.7-0.1,0.9l-4.9,5.2
	c-0.1,0.1-0.1,0.2-0.1,0.3s0.2,0.2,0.3,0.2c1.2,0.1,2.9-1.3,6.5-4.8C25.6,42.4,28.1,37.6,29.5,34.7L29.5,34.7z M42.4,19.3
	c-0.4-0.4-0.4-1.2,0-1.6s1.2-0.4,1.6,0c0.4,0.4,0.4,1.2,0,1.6C43.6,19.7,42.8,19.7,42.4,19.3L42.4,19.3z"/>
</svg>
