<?xml version="1.0" encoding="utf-8"?>
<!-- Generator: Adobe Illustrator 19.2.1, SVG Export Plug-In . SVG Version: 6.00 Build 0)  -->
<svg version="1.0" id="圖層_1" xmlns="http://www.w3.org/2000/svg" xmlns:xlink="http://www.w3.org/1999/xlink" x="0px" y="0px"
	 viewBox="0 0 50 50" style="enable-background:new 0 0 50 50;" xml:space="preserve">
<style type="text/css">
	.st0{fill:#7ABC34;}
</style>
<path class="st0" d="M26,9.6c-8.5,0-15.3,6.9-15.3,15.3c0,8.5,6.9,15.3,15.3,15.3c8.5,0,15.3-6.9,15.3-15.3S34.4,9.6,26,9.6L26,9.6z
	 M26,37.8c-7.1,0-12.9-5.8-12.9-12.9S18.9,12,26,12s12.9,5.8,12.9,12.9S33.1,37.8,26,37.8L26,37.8z"/>
<path class="st0" d="M26,17.1c-4.3,0-7.8,3.5-7.8,7.8s3.5,7.8,7.8,7.8s7.8-3.5,7.8-7.8S30.3,17.1,26,17.1L26,17.1z M26,31.5
	c-3.6,0-6.6-3-6.6-6.6s3-6.6,6.6-6.6s6.6,3,6.6,6.6C32.6,28.6,29.6,31.5,26,31.5L26,31.5z"/>
<path class="st0" d="M4.5,23.3v12.2c0,0.7,0.5,1.2,1.2,1.2s1.2-0.5,1.2-1.2V23.2c0.7-0.1,1.5-0.4,2.3-0.8l0.7-0.3v-4.7
	c0-0.7-0.5-1.2-1.2-1.2s-1.2,0.5-1.2,1.2v3.2c-0.2,0.1-0.4,0.1-0.6,0.2v-3.4c0-0.7-0.5-1.2-1.2-1.2s-1.2,0.5-1.2,1.2v3.5
	c-0.2-0.1-0.4-0.1-0.6-0.2v-3.3c0-0.7-0.5-1.2-1.2-1.2s-1.2,0.5-1.2,1.2v4.5l0.4,0.4C2,22.3,2.9,23.1,4.5,23.3L4.5,23.3z"/>
<path class="st0" d="M45.6,14.5c-0.1,0.1-0.3,0.1-0.4,0.2l0,0c-0.1,0.1-2.8,2.7-2.9,6.2c0,2,0.8,3.8,2.4,5.5c0,0,0.1,0,0.1,0.1v9
	c0,0.7,0.5,1.2,1.2,1.2s1.2-0.5,1.2-1.2V15.6l0,0c0-0.1,0-0.2-0.1-0.3l0,0C47,15.2,47,15,46.9,14.9l0,0l0,0
	c-0.1-0.1-0.2-0.2-0.4-0.3l0,0c-0.1-0.1-0.3-0.1-0.4-0.1l0,0l0,0C45.9,14.4,45.7,14.5,45.6,14.5L45.6,14.5L45.6,14.5z M44.7,21
	c0-0.3,0-0.7,0.1-1v2C44.7,21.7,44.7,21.4,44.7,21L44.7,21z"/>
</svg>
