<?xml version="1.0" encoding="utf-8"?>
<!-- Generator: Adobe Illustrator 19.2.1, SVG Export Plug-In . SVG Version: 6.00 Build 0)  -->
<svg version="1.0" id="圖層_1" xmlns="http://www.w3.org/2000/svg" xmlns:xlink="http://www.w3.org/1999/xlink" x="0px" y="0px"
	 viewBox="0 0 50 50" style="enable-background:new 0 0 50 50;" xml:space="preserve">
<style type="text/css">
	.st0{fill:#7ABC34;}
</style>
<g>
	<g>
		<path class="st0" d="M26.8,9.2c-0.3-0.5-1.1-0.5-1.4,0c-0.4,0.6-9.6,14.2-9.6,19.6c0,5.7,4.6,10.3,10.3,10.3s10.3-4.6,10.3-10.3
			C36.4,23.4,27.2,9.7,26.8,9.2L26.8,9.2z M26.1,37.4c-4.8,0-8.6-3.9-8.6-8.6c0-3.8,5.7-13.2,8.6-17.7c2.9,4.5,8.6,13.9,8.6,17.7
			C34.7,33.6,30.9,37.4,26.1,37.4L26.1,37.4z M26.9,35c0,0.5-0.4,0.8-0.8,0.8c-3.9,0-7-3.1-7-7c0-0.5,0.4-0.8,0.8-0.8
			c0.5,0,0.8,0.4,0.8,0.8c0,2.9,2.4,5.3,5.3,5.3C26.6,34.2,26.9,34.5,26.9,35L26.9,35z"/>
	</g>
</g>
</svg>
