<?xml version="1.0" encoding="utf-8"?>
<!-- Generator: Adobe Illustrator 19.2.1, SVG Export Plug-In . SVG Version: 6.00 Build 0)  -->
<svg version="1.0" id="圖層_1" xmlns="http://www.w3.org/2000/svg" xmlns:xlink="http://www.w3.org/1999/xlink" x="0px" y="0px"
	 viewBox="0 0 50 50" style="enable-background:new 0 0 50 50;" xml:space="preserve">
<style type="text/css">
	.st0{fill:#7ABC34;}
</style>
<g>
	<path class="st0" d="M23.5,15.1L23.5,15.1c-1.9,1.1-4.6,4.7-4.7,9.2h4.7V15.1z"/>
	<path class="st0" d="M24,15.1v9.2h4.8C28.6,20,25.9,16.3,24,15.1z"/>
	<path class="st0" d="M13.6,24.7L13.6,24.7c-0.4,5.7,2.9,12.2,10,14.9c0.3,0.3,0.5,0.5,0.7,0.9v2.8h1.3c0-1.8,0-3.5,0-5.3
		c0.2-0.2,0.1-1.1,1.3-2c5.7-4.4,11.5-13,4-22.6c0.7-1.2,1.7-1.7,2.6-2c-1-1.2-2.7-2.3-4.8-2.1c-2.3,1.1-4.3,3.1-5.8,5.1
		c-5.6,0.7-8.8,5-9.2,9.9l0,0h4.5c0.1-4.4,2.5-8.1,5.1-9.9h0.4l0,0H24l0,0l0,0h0.1l0,0h0.4c2.5,1.8,5,5.4,4.9,10
		c-0.1,0.2-0.2,0.2-0.3,0.3l0,0l0,0l0,0l0,0l0,0h-5v4c-0.2,0-0.3,0.1-0.5,0.3v-4.3h-4.7c0,2.2,0.7,4.6,2.3,7
		c0.1,0.2-0.3,0.3-0.4,0.4c-1.8-2.5-2.5-5-2.5-7.4L13.6,24.7L13.6,24.7L13.6,24.7z M16.5,31.6c1.3,1,2.5,2,3.9,2.3
		c0,0.9,0.1,1.8,0.5,2.8C18.8,35.2,17.4,33.4,16.5,31.6z M30.1,10.4c0.4,0.2,0.8,0.4,1.2,0.8c-0.4,0.3-0.9,0.7-1.3,1
		c-0.4-0.3-0.7-0.6-0.9-0.9C28.8,10.3,29.5,10.3,30.1,10.4z M24.5,14.4c0.5-0.6,0.9-1.1,1.3-1.6c0.5-0.5,1-0.9,1.7-1.4
		c0.5,1.3,1.8,2.1,2.7,3.1c0.8,0.9,1,2.3,1.2,3.5C30.2,16.2,26.2,14.3,24.5,14.4z M25.2,36.3c-0.4,0.6-1,1.1-1.6,1.3
		c-1.1,0-2-1.6-1.8-4.4c1.4-3.4,4.6-4.3,6.1-5.7c1.1-1,2.2-1.7,3.4-3.4c0.7-1.5,1.2-3,1.3-4.5C35,28.5,28.9,32.6,25.2,36.3z"/>
	<path class="st0" d="M28.9,24.7L28.9,24.7L28.9,24.7z"/>
</g>
</svg>
