<svg xmlns="http://www.w3.org/2000/svg" xmlns:xlink="http://www.w3.org/1999/xlink" viewBox="0 0 402.5 325.7"><defs><clipPath id="e5e05c2b-62c0-4a1e-875b-35a2e19bfa67"><path id="b61a83db-1d57-4afe-9a8b-c4aceb76eeda" data-name="SVGID" d="M69.6,197c-5.4,5.2-7.9,11.2-5.7,13.5s8.4,0,13.7-5.2,7.8-11.2,5.6-13.5a2.7,2.7,0,0,0-1.3-.7c-2.8-.8-7.9,1.6-12.3,5.9" fill="none"/></clipPath><linearGradient id="ba9459bb-8cdf-4d76-bf66-be6c707bd6ee" x1="-3167.64" y1="351.57" x2="-3167.27" y2="351.57" gradientTransform="translate(213762.9 -23500.7) scale(67.46)" gradientUnits="userSpaceOnUse"><stop offset="0" stop-color="#85b644"/><stop offset="0.08" stop-color="#8cba48"/><stop offset="0.42" stop-color="#a3c856"/><stop offset="0.73" stop-color="#b1d15e"/><stop offset="1" stop-color="#b6d461"/></linearGradient><clipPath id="ee3d3060-aaa7-4062-9ed3-cdd7ef8baed3"><path id="edbcdfaf-63c9-4614-83b8-0341c7bc9758" data-name="SVGID" d="M201.1,193c-1.8,2.6,1.8,8.1,7.9,12.2s12.7,5.3,14.4,2.7-1.8-8.2-7.9-12.3-11.8-5.1-14-3.1a1,1,0,0,0-.4.5" fill="none"/></clipPath><linearGradient id="a9164cfe-362f-4c72-bb48-48c4a1386bb4" x1="-3199.23" y1="315.98" x2="-3198.87" y2="315.98" gradientTransform="translate(-21101.1 -215649.2) rotate(-90) scale(67.47)" xlink:href="#ba9459bb-8cdf-4d76-bf66-be6c707bd6ee"/><clipPath id="b398bc35-315b-45e4-aeaa-62cc134ba5fd"><path id="e30f69e7-ac09-44bd-884d-1895e77e4430" data-name="SVGID" d="M164.1,231.6c-3,1.1-3.4,7.7-.8,14.6s7.1,11.7,10.1,10.6,3.3-7.6.7-14.6-6.5-11-9.4-10.7h-.6" fill="none"/></clipPath><linearGradient id="bee9646b-3ef3-40a3-8dce-db4adfab74f2" x1="-3197.61" y1="337.66" x2="-3197.24" y2="337.66" gradientTransform="translate(-22614.7 -215494.8) rotate(-90) scale(67.47)" xlink:href="#ba9459bb-8cdf-4d76-bf66-be6c707bd6ee"/><clipPath id="a69c7766-0db7-4ef8-9107-757aa54b6ead"><path id="fb154e47-2436-4e00-95e7-9499a53b8bff" data-name="SVGID" d="M97.6,237.4c-3.1,6.8-3.2,13.3-.3,14.7s7.8-3.1,10.8-9.8,3.3-13.3.4-14.6a2.7,2.7,0,0,0-1.5-.3c-2.9.4-6.7,4.4-9.4,10" fill="none"/></clipPath><linearGradient id="a82a01fe-a0fe-4b03-8ebd-bc51eaec75ee" x1="-3182.39" y1="349.38" x2="-3182.02" y2="349.38" gradientTransform="translate(-23456.6 -214443.5) rotate(-90) scale(67.46)" xlink:href="#ba9459bb-8cdf-4d76-bf66-be6c707bd6ee"/><clipPath id="b84364c3-8573-48e6-9a9f-b6be30c5e287"><path id="ef8f593b-ffb5-41e7-955a-b91b9caba471" data-name="SVGID" d="M80.2,143.1a71.9,71.9,0,1,0,55-37,71.9,71.9,0,0,0-55,37" fill="none"/></clipPath><linearGradient id="e91f6237-c5f5-4d65-bbe7-904fcecd4cb7" x1="-3181.05" y1="322.11" x2="-3180.69" y2="322.11" gradientTransform="matrix(-392.5, 0, 0, -392.5, -1248361.46, 126603.75)" gradientUnits="userSpaceOnUse"><stop offset="0" stop-color="#b6d461"/><stop offset="1" stop-color="#b6d461"/><stop offset="1" stop-color="#85b644"/></linearGradient><clipPath id="e229c36d-b78e-4728-8359-2a1046355049"><path id="e154b224-f1b2-4dd9-a648-fd1c182169e7" data-name="SVGID" d="M96.8,126.7a69,69,0,1,0,38.6-17.6,69.1,69.1,0,0,0-38.6,17.6" fill="none"/></clipPath><linearGradient id="b51a2e3d-d8e6-4ae9-9650-e2deffa646a8" x1="-3181.71" y1="325.41" x2="-3181.34" y2="325.41" gradientTransform="matrix(0, -376.45, 376.45, 0, -122362.17, -1197500.84)" xlink:href="#ba9459bb-8cdf-4d76-bf66-be6c707bd6ee"/></defs><title>資產 2</title><g style="isolation:isolate"><g id="f216ad0e-50cb-4a99-892f-252fc6513690" data-name="圖層 2"><g id="b02a1323-5620-4c58-a018-14a59c294ad4" data-name="圖層 4"><path d="M338.6,8c-3.2-.4-5.9,2.3-6,6-.4,12.9-.9,25.6-1.6,38.2,3.5-12.1,7.3-24.3,11.2-36.8C343.3,11.9,341.7,8.5,338.6,8Z" fill="#c12106"/><path d="M370.4,35.7c-1.6-1.4-4.5-.9-6.4,1.2-6.6,7-13.1,14.3-19.1,21.7a289.9,289.9,0,0,1,24-17.5C371.3,39.5,372,37.2,370.4,35.7Z" fill="#fda014"/><path d="M402.5,61.8c-.4-2.4-4.3-3.9-8.5-3.2a230.8,230.8,0,0,0-41.6,11.7,254.4,254.4,0,0,1,43-4.4C399.7,65.9,402.9,64.1,402.5,61.8Z" fill="#9fb603"/><path d="M270.7,42.9c-.9,1.6.9,3.7,4,4.9a215.2,215.2,0,0,1,29.8,14A204.2,204.2,0,0,0,277.6,43C274.8,41.3,271.6,41.4,270.7,42.9Z" fill="#fdc63a"/><path d="M286.3,7c-3.6,1.6-3.6,5.4-.4,8.6a218.3,218.3,0,0,1,29.8,37.9,334.1,334.1,0,0,0-19.3-42.6C294.4,7,289.8,5.3,286.3,7Z" fill="#16c1d1"/><path d="M361.4,7.9c-.3,1.5.8,2.9,2.6,3.4s3.4-.3,3.7-1.7-.8-3-2.6-3.4S361.7,6.5,361.4,7.9Z" fill="#16c1d1"/><path d="M319.1,40a2.8,2.8,0,0,0,2.6,2.9,2.7,2.7,0,0,0,3.2-2.1,2.8,2.8,0,0,0-2.6-2.9A2.7,2.7,0,0,0,319.1,40Z" fill="#fda014"/><path d="M319.3,69a2.7,2.7,0,0,0,2.6,2.8,2.7,2.7,0,0,0,3.2-2.1,2.9,2.9,0,0,0-5.8-.7Z" fill="#fda014"/><path d="M362.3,76.5a2,2,0,0,0,1.5,2.8,3.3,3.3,0,0,0,3.5-1.7,2.2,2.2,0,0,0-1.6-2.9A3.1,3.1,0,0,0,362.3,76.5Z" fill="#fdc63a"/><path d="M279.3,59.2a3.4,3.4,0,0,0,2.9,2.6c1.4.1,2.4-.8,2.2-2.1a3.1,3.1,0,0,0-2.8-2.6C280.1,57,279.1,57.9,279.3,59.2Z" fill="#9fb603"/><path d="M353.7,21.9a2.2,2.2,0,0,0,1.9,2.4,2.2,2.2,0,0,0,2.7-1.4,2.2,2.2,0,0,0-1.9-2.4A2.2,2.2,0,0,0,353.7,21.9Z" fill="#fda014"/><path d="M321.5,1.7c-.2,1.1.8,2,2.1,2.1s2.6-.6,2.7-1.7-.8-2-2.1-2.1A2.4,2.4,0,0,0,321.5,1.7Z" fill="#9fb603"/><path d="M354,58.2a1.9,1.9,0,0,0,1.5,2.3,2.2,2.2,0,0,0,2.5-1.4,1.9,1.9,0,0,0-1.5-2.2A2,2,0,0,0,354,58.2Z" fill="#a81d05"/><path d="M383.6,79.9a1.4,1.4,0,0,0,1,2,2.5,2.5,0,0,0,2.7-1,1.4,1.4,0,0,0-.9-2.1A2.6,2.6,0,0,0,383.6,79.9Z" fill="#16c1d1"/><path d="M379.3,49.8a2,2,0,0,0,1.5,2.4,2.3,2.3,0,0,0,2.7-1.1,1.9,1.9,0,0,0-1.4-2.4A2.3,2.3,0,0,0,379.3,49.8Z" fill="#9fb603"/><path d="M307.7,69.9a2,2,0,0,0,1.7,2.1,1.7,1.7,0,0,0,1.9-1.6,2,2,0,0,0-1.7-2.1A1.7,1.7,0,0,0,307.7,69.9Z" fill="#9fb603"/><path d="M313.9,15.4c-.1,1.3,1.1,2.4,2.7,2.6a3.1,3.1,0,0,0,3.3-2.2,2.7,2.7,0,0,0-2.7-2.6A3,3,0,0,0,313.9,15.4Z" fill="#a81d05"/><path d="M288,27.9l-4.5-5.8L279.2,28Z" fill="#fda014"/><path d="M336.1,56.3l-7.7,1.3c1.8,1.8,3.4,3.6,5,5.5Z" fill="#fda014"/><path d="M387.1,36.3l5.9-4.5c-2.9-1-5.8-1.9-8.8-2.7C385.2,31.5,386.2,33.9,387.1,36.3Z" fill="#16c1d1"/><path d="M384.6,9l-2.5,2.2-4-.9,2.2,3.1-1.5,2.9,3.9-.3,3.1,2.7c.1-1.1.1-2.2.2-3.3l3.4-1.1-3.7-1.9C385.3,11.3,385,10.1,384.6,9Z" fill="#9fb603"/><path d="M338.4,67.5l-2.6,2.2-4-.9,2.2,3.1-1.5,2.9,3.9-.3,3.1,2.7c.1-1.1.1-2.2.2-3.3l3.4-1.1-3.7-1.9C339,69.8,338.7,68.6,338.4,67.5Z" fill="#a81d05"/><path d="M319.8,133.6c1.1.2,2.6-2.3,3.3-5.5q3-17.1,4.8-35.1c-3.4,11.6-6.4,23-9,34.3C318.2,130.5,318.6,133.4,319.8,133.6Z" fill="#c12106"/><path d="M304.1,111.4c1,1.1,2.4.3,3.1-1.8a139.2,139.2,0,0,1,9.7-22.4,112.7,112.7,0,0,0-13.2,19C302.8,108,303,110.3,304.1,111.4Z" fill="#fda014"/><path d="M278,91.7c1.7,2.2,4.2,2.9,6,1.4a158.5,158.5,0,0,1,24.7-17c-11.2,3.4-21.2,6.9-29.5,9.9C276.7,86.9,276.3,89.4,278,91.7Z" fill="#9fb603"/><path d="M371.1,104.6c1.8-1.3,2-3.3.4-4.7-5.6-4.8-11.9-10.1-19-15.6a185.7,185.7,0,0,1,13.6,19.5C367.1,105.5,369.3,105.8,371.1,104.6Z" fill="#fdc63a"/><path d="M340.3,134.8a11.7,11.7,0,0,0,5-7.5c1.2-10.6-.7-22.6-4.9-35.5,1.5,13.9,1,27-2.1,39C337.5,134.3,338.1,136,340.3,134.8Z" fill="#9fb603"/><path d="M311.3,135.6c0-1.3-.5-2.4-1.1-2.6s-1.2.7-1.1,2,.5,2.5,1.1,2.7S311.2,136.9,311.3,135.6Z" fill="#16c1d1"/><path d="M335.1,104.3a2,2,0,0,0-1.3-2.7,2.3,2.3,0,0,0-2.5,2,2,2,0,0,0,1.2,2.7A2.5,2.5,0,0,0,335.1,104.3Z" fill="#fda014"/><path d="M298,70.7a2.8,2.8,0,0,0-2.5-2.7,1.9,1.9,0,0,0-2.3,2.1,3.2,3.2,0,0,0,2.6,2.7A1.9,1.9,0,0,0,298,70.7Z" fill="#fdc63a"/><path d="M375.2,89.2a1.7,1.7,0,0,0-1.1-2.7,3.4,3.4,0,0,0-3.5,1.7,1.7,1.7,0,0,0,1.1,2.6A3.4,3.4,0,0,0,375.2,89.2Z" fill="#9fb603"/><path d="M313.7,122.4c.1-1-.3-1.9-.9-2s-1.2.5-1.2,1.5a2.1,2.1,0,0,0,1,2C313.1,124,313.7,123.3,313.7,122.4Z" fill="#fda014"/><path d="M325.2,138.4c.3-.9.2-1.7-.3-1.7s-1.1.6-1.4,1.5-.1,1.7.3,1.8S324.9,139.3,325.2,138.4Z" fill="#9fb603"/><path d="M309.9,88.2a1.9,1.9,0,0,0-1.5-2.1c-.9-.2-1.6.5-1.6,1.5a2.2,2.2,0,0,0,1.5,2.1A1.4,1.4,0,0,0,309.9,88.2Z" fill="#a81d05"/><path d="M278.3,70a2.7,2.7,0,0,0-2.1-2,1.2,1.2,0,0,0-1.4,1.5,2.7,2.7,0,0,0,2.1,2A1.2,1.2,0,0,0,278.3,70Z" fill="#16c1d1"/><path d="M295.6,99.2a2.3,2.3,0,0,0-1.6-2c-.8-.2-1.3.5-1.1,1.4a2.6,2.6,0,0,0,1.6,2.1C295.2,100.9,295.7,100.2,295.6,99.2Z" fill="#9fb603"/><path d="M351.9,76.4a1.7,1.7,0,0,0-1.3-2.1,2.1,2.1,0,0,0-2.4,1.4,1.6,1.6,0,0,0,1.3,2.1A2.2,2.2,0,0,0,351.9,76.4Z" fill="#9fb603"/><path d="M332.1,126.5c.5-1.1.2-2.1-.6-2.3s-1.7.8-2.1,2-.1,2.1.6,2.2S331.7,127.7,332.1,126.5Z" fill="#a81d05"/><path d="M350.7,116.3a48.6,48.6,0,0,1-.7,5.5l5.7-4.9Z" fill="#fda014"/><path d="M324.1,89.1l6.3-1.3c-1.3-1.8-2.7-3.6-4.1-5.3C325.5,84.7,324.8,86.9,324.1,89.1Z" fill="#fda014"/><path d="M296.4,113.5l-.6,5.5,3.9.8Q298.2,116.7,296.4,113.5Z" fill="#16c1d1"/><path d="M304.4,138.4c.1-.8.1-1.7.2-2.5h1.3l-1.2-2.5c-.1-.9-.1-1.9-.2-2.8l-1.1.9c-.4-.6-1-1.2-1.5-1.8.3,1,.5,2,.8,3l-.6,1.7,1.4,1Z" fill="#9fb603"/><g opacity="0.5"><path d="M338.6,8c-3.2-.4-5.9,2.3-6,6-.4,12.9-.9,25.6-1.6,38.2,3.5-12.1,7.3-24.3,11.2-36.8C343.3,11.9,341.7,8.5,338.6,8Z" fill="#fff"/><path d="M370.4,35.7c-1.6-1.4-4.5-.9-6.4,1.2-6.6,7-13.1,14.3-19.1,21.7a289.9,289.9,0,0,1,24-17.5C371.3,39.5,372,37.2,370.4,35.7Z" fill="#fff"/><path d="M402.5,61.8c-.4-2.4-4.3-3.9-8.5-3.2a230.8,230.8,0,0,0-41.6,11.7,254.4,254.4,0,0,1,43-4.4C399.7,65.9,402.9,64.1,402.5,61.8Z" fill="#fff"/><path d="M270.7,42.9c-.9,1.6.9,3.7,4,4.9a215.2,215.2,0,0,1,29.8,14A204.2,204.2,0,0,0,277.6,43C274.8,41.3,271.6,41.4,270.7,42.9Z" fill="#fff"/><path d="M286.3,7c-3.6,1.6-3.6,5.4-.4,8.6a218.3,218.3,0,0,1,29.8,37.9,334.1,334.1,0,0,0-19.3-42.6C294.4,7,289.8,5.3,286.3,7Z" fill="#fff"/><path d="M361.4,7.9c-.3,1.5.8,2.9,2.6,3.4s3.4-.3,3.7-1.7-.8-3-2.6-3.4S361.7,6.5,361.4,7.9Z" fill="#fff"/><path d="M319.1,40a2.8,2.8,0,0,0,2.6,2.9,2.7,2.7,0,0,0,3.2-2.1,2.8,2.8,0,0,0-2.6-2.9A2.7,2.7,0,0,0,319.1,40Z" fill="#fff"/><path d="M319.3,69a2.7,2.7,0,0,0,2.6,2.8,2.7,2.7,0,0,0,3.2-2.1,2.9,2.9,0,0,0-5.8-.7Z" fill="#fff"/><path d="M362.3,76.5a2,2,0,0,0,1.5,2.8,3.3,3.3,0,0,0,3.5-1.7,2.2,2.2,0,0,0-1.6-2.9A3.1,3.1,0,0,0,362.3,76.5Z" fill="#fff"/><path d="M279.3,59.2a3.4,3.4,0,0,0,2.9,2.6c1.4.1,2.4-.8,2.2-2.1a3.1,3.1,0,0,0-2.8-2.6C280.1,57,279.1,57.9,279.3,59.2Z" fill="#fff"/><path d="M353.7,21.9a2.2,2.2,0,0,0,1.9,2.4,2.2,2.2,0,0,0,2.7-1.4,2.2,2.2,0,0,0-1.9-2.4A2.2,2.2,0,0,0,353.7,21.9Z" fill="#fff"/><path d="M321.5,1.7c-.2,1.1.8,2,2.1,2.1s2.6-.6,2.7-1.7-.8-2-2.1-2.1A2.4,2.4,0,0,0,321.5,1.7Z" fill="#fff"/><path d="M354,58.2a1.9,1.9,0,0,0,1.5,2.3,2.2,2.2,0,0,0,2.5-1.4,1.9,1.9,0,0,0-1.5-2.2A2,2,0,0,0,354,58.2Z" fill="#fff"/><path d="M383.6,79.9a1.4,1.4,0,0,0,1,2,2.5,2.5,0,0,0,2.7-1,1.4,1.4,0,0,0-.9-2.1A2.6,2.6,0,0,0,383.6,79.9Z" fill="#fff"/><path d="M379.3,49.8a2,2,0,0,0,1.5,2.4,2.3,2.3,0,0,0,2.7-1.1,1.9,1.9,0,0,0-1.4-2.4A2.3,2.3,0,0,0,379.3,49.8Z" fill="#fff"/><path d="M307.7,69.9a2,2,0,0,0,1.7,2.1,1.7,1.7,0,0,0,1.9-1.6,2,2,0,0,0-1.7-2.1A1.7,1.7,0,0,0,307.7,69.9Z" fill="#fff"/><path d="M313.9,15.4c-.1,1.3,1.1,2.4,2.7,2.6a3.1,3.1,0,0,0,3.3-2.2,2.7,2.7,0,0,0-2.7-2.6A3,3,0,0,0,313.9,15.4Z" fill="#fff"/><path d="M288,27.9l-4.5-5.8L279.2,28Z" fill="#fff"/><path d="M336.1,56.3l-7.7,1.3c1.8,1.8,3.4,3.6,5,5.5Z" fill="#fff"/><path d="M387.1,36.3l5.9-4.5c-2.9-1-5.8-1.9-8.8-2.7C385.2,31.5,386.2,33.9,387.1,36.3Z" fill="#fff"/><path d="M384.6,9l-2.5,2.2-4-.9,2.2,3.1-1.5,2.9,3.9-.3,3.1,2.7c.1-1.1.1-2.2.2-3.3l3.4-1.1-3.7-1.9C385.3,11.3,385,10.1,384.6,9Z" fill="#fff"/><path d="M338.4,67.5l-2.6,2.2-4-.9,2.2,3.1-1.5,2.9,3.9-.3,3.1,2.7c.1-1.1.1-2.2.2-3.3l3.4-1.1-3.7-1.9C339,69.8,338.7,68.6,338.4,67.5Z" fill="#fff"/><path d="M319.8,133.6c1.1.2,2.6-2.3,3.3-5.5q3-17.1,4.8-35.1c-3.4,11.6-6.4,23-9,34.3C318.2,130.5,318.6,133.4,319.8,133.6Z" fill="#fff"/><path d="M304.1,111.4c1,1.1,2.4.3,3.1-1.8a139.2,139.2,0,0,1,9.7-22.4,112.7,112.7,0,0,0-13.2,19C302.8,108,303,110.3,304.1,111.4Z" fill="#fff"/><path d="M278,91.7c1.7,2.2,4.2,2.9,6,1.4a158.5,158.5,0,0,1,24.7-17c-11.2,3.4-21.2,6.9-29.5,9.9C276.7,86.9,276.3,89.4,278,91.7Z" fill="#fff"/><path d="M371.1,104.6c1.8-1.3,2-3.3.4-4.7-5.6-4.8-11.9-10.1-19-15.6a185.7,185.7,0,0,1,13.6,19.5C367.1,105.5,369.3,105.8,371.1,104.6Z" fill="#fff"/><path d="M340.3,134.8a11.7,11.7,0,0,0,5-7.5c1.2-10.6-.7-22.6-4.9-35.5,1.5,13.9,1,27-2.1,39C337.5,134.3,338.1,136,340.3,134.8Z" fill="#fff"/><path d="M311.3,135.6c0-1.3-.5-2.4-1.1-2.6s-1.2.7-1.1,2,.5,2.5,1.1,2.7S311.2,136.9,311.3,135.6Z" fill="#fff"/><path d="M335.1,104.3a2,2,0,0,0-1.3-2.7,2.3,2.3,0,0,0-2.5,2,2,2,0,0,0,1.2,2.7A2.5,2.5,0,0,0,335.1,104.3Z" fill="#fff"/><path d="M298,70.7a2.8,2.8,0,0,0-2.5-2.7,1.9,1.9,0,0,0-2.3,2.1,3.2,3.2,0,0,0,2.6,2.7A1.9,1.9,0,0,0,298,70.7Z" fill="#fff"/><path d="M375.2,89.2a1.7,1.7,0,0,0-1.1-2.7,3.4,3.4,0,0,0-3.5,1.7,1.7,1.7,0,0,0,1.1,2.6A3.4,3.4,0,0,0,375.2,89.2Z" fill="#fff"/><path d="M313.7,122.4c.1-1-.3-1.9-.9-2s-1.2.5-1.2,1.5a2.1,2.1,0,0,0,1,2C313.1,124,313.7,123.3,313.7,122.4Z" fill="#fff"/><path d="M325.2,138.4c.3-.9.2-1.7-.3-1.7s-1.1.6-1.4,1.5-.1,1.7.3,1.8S324.9,139.3,325.2,138.4Z" fill="#fff"/><path d="M309.9,88.2a1.9,1.9,0,0,0-1.5-2.1c-.9-.2-1.6.5-1.6,1.5a2.2,2.2,0,0,0,1.5,2.1A1.4,1.4,0,0,0,309.9,88.2Z" fill="#fff"/><path d="M278.3,70a2.7,2.7,0,0,0-2.1-2,1.2,1.2,0,0,0-1.4,1.5,2.7,2.7,0,0,0,2.1,2A1.2,1.2,0,0,0,278.3,70Z" fill="#fff"/><path d="M295.6,99.2a2.3,2.3,0,0,0-1.6-2c-.8-.2-1.3.5-1.1,1.4a2.6,2.6,0,0,0,1.6,2.1C295.2,100.9,295.7,100.2,295.6,99.2Z" fill="#fff"/><path d="M351.9,76.4a1.7,1.7,0,0,0-1.3-2.1,2.1,2.1,0,0,0-2.4,1.4,1.6,1.6,0,0,0,1.3,2.1A2.2,2.2,0,0,0,351.9,76.4Z" fill="#fff"/><path d="M332.1,126.5c.5-1.1.2-2.1-.6-2.3s-1.7.8-2.1,2-.1,2.1.6,2.2S331.7,127.7,332.1,126.5Z" fill="#fff"/><path d="M350.7,116.3a48.6,48.6,0,0,1-.7,5.5l5.7-4.9Z" fill="#fff"/><path d="M324.1,89.1l6.3-1.3c-1.3-1.8-2.7-3.6-4.1-5.3C325.5,84.7,324.8,86.9,324.1,89.1Z" fill="#fff"/><path d="M296.4,113.5l-.6,5.5,3.9.8Q298.2,116.7,296.4,113.5Z" fill="#fff"/><path d="M304.4,138.4c.1-.8.1-1.7.2-2.5h1.3l-1.2-2.5c-.1-.9-.1-1.9-.2-2.8l-1.1.9c-.4-.6-1-1.2-1.5-1.8.3,1,.5,2,.8,3l-.6,1.7,1.4,1Z" fill="#fff"/></g><g clip-path="url(#e5e05c2b-62c0-4a1e-875b-35a2e19bfa67)"><rect x="60" y="190.9" width="26.8" height="21.8" transform="translate(-141.3 200.6) rotate(-69.7)" fill="url(#ba9459bb-8cdf-4d76-bf66-be6c707bd6ee)"/></g><g clip-path="url(#ee3d3060-aaa7-4062-9ed3-cdd7ef8baed3)"><rect x="198.3" y="185.6" width="28.5" height="30.18" transform="matrix(0.14, -0.99, 0.99, 0.14, -16.7, 382.04)" fill="url(#a9164cfe-362f-4c72-bb48-48c4a1386bb4)"/></g><g clip-path="url(#b398bc35-315b-45e4-aeaa-62cc134ba5fd)"><rect x="154.5" y="229.5" width="28.5" height="30.18" transform="translate(-124.2 195) rotate(-45.8)" fill="url(#bee9646b-3ef3-40a3-8dce-db4adfab74f2)"/></g><g clip-path="url(#a69c7766-0db7-4ef8-9107-757aa54b6ead)"><rect x="92.1" y="227.1" width="21.8" height="26.82" transform="translate(-3.3 1.5) rotate(-0.8)" fill="url(#a82a01fe-a0fe-4b03-8ebd-bc51eaec75ee)"/></g><g clip-path="url(#b84364c3-8573-48e6-9a9f-b6be30c5e287)"><rect x="50.3" y="92.8" width="187.3" height="179.32" transform="translate(-45.6 47.9) rotate(-16.4)" fill="url(#e91f6237-c5f5-4d65-bbe7-904fcecd4cb7)"/></g><g clip-path="url(#e229c36d-b78e-4728-8359-2a1046355049)"><rect x="38.6" y="75.8" width="210.6" height="212.84" transform="translate(-85 221.1) rotate(-61.4)" fill="url(#b51a2e3d-d8e6-4ae9-9650-e2deffa646a8)"/></g><path d="M197.5,177c8.4,3,5,15.4-6.2,12.8s-5.1-16.8,6.2-12.8" fill="#ed7c78"/><path d="M88.4,177.3c8.5,3,5.1,15.4-6.1,12.8s-5.1-16.8,6.1-12.8" fill="#ed7c78"/><circle cx="106.8" cy="164" r="17.1" transform="translate(-72.3 243.2) rotate(-80.8)" fill="#fff"/><path d="M119.4,158.2a4.7,4.7,0,0,1-8.7-2.3,4.8,4.8,0,0,1,2.5-4.2A14,14,0,0,0,92.9,164a13.9,13.9,0,0,0,27.8,0A14.4,14.4,0,0,0,119.4,158.2Z" fill="#4a3e37"/><path d="M106.8,173.8A9.8,9.8,0,1,0,97,164,9.8,9.8,0,0,0,106.8,173.8Z" fill="#191919" fill-rule="evenodd"/><path d="M110.7,155.9a4.7,4.7,0,0,0,8.7,2.3,14.4,14.4,0,0,0-6.2-6.5A4.8,4.8,0,0,0,110.7,155.9Z" fill="#fff"/><circle cx="170.8" cy="164" r="17.1" transform="translate(-19.1 305.5) rotate(-80.5)" fill="#fff"/><path d="M183.4,158.2a4.6,4.6,0,0,1-4,2.3,4.7,4.7,0,0,1-4.7-4.6,5,5,0,0,1,2.5-4.2,13.7,13.7,0,0,0-6.4-1.5A13.9,13.9,0,1,0,184.7,164,14.4,14.4,0,0,0,183.4,158.2Z" fill="#4a3e37"/><circle cx="170.8" cy="164" r="9.7" transform="matrix(0.74, -0.68, 0.68, 0.74, -65.97, 159.24)" fill="#191919"/><path d="M174.7,155.9a4.7,4.7,0,0,0,4.7,4.6,4.6,4.6,0,0,0,4-2.3,14.4,14.4,0,0,0-6.2-6.5A5,5,0,0,0,174.7,155.9Z" fill="#fff"/><path d="M151.6,187.2c-2-1.4-3.9,1.8-1.9,3.2,3.9,2.9.4,8.1-3.3,8.9s-10.2-1.1-9.6-6a1,1,0,0,0-1.2-1.2,1.7,1.7,0,0,0-2.7.8c-.6,2.1-.7,3.8-2.3,5.4a6.2,6.2,0,0,1-6,1.7c-3.8-1.1-5.4-5.8-4.3-9.3a1.4,1.4,0,0,0-2.6-1,9.9,9.9,0,0,0,6.2,14c3.8,1,8.6-1.2,11-4.6,2.8,3.6,9.8,4.9,13.8,3.5,6.5-2.4,8.8-11.1,2.9-15.4" fill="#4a3e37"/><path d="M32.7,146.6l10.4,19.2,6.4.5,6.3.9,14.7,55.2a2.2,2.2,0,0,0,2.8,1,2.2,2.2,0,0,0,1.4-2.6L60.1,165.7l5.4-5.5,3.9-3.7-4.1-21.9Z" fill="#e5e5e4"/><path d="M79,225.3a4.8,4.8,0,0,1-3.3,6h0a4.9,4.9,0,0,1-6-3.4l-8.5-36c-.7-2.6,0-3.2,2.6-3.9h0c2.5-.7,3.2-.5,3.9,2.1Z" fill="#524740"/><path d="M205.7,102.6S190,75,150.5,71.2s-60.4,15-60.4,15l6.2,36.7a415.7,415.7,0,0,0,105.1,7Z" fill="#fbfcff"/><path d="M205.7,102.6S190,75,150.5,71.2s-60.4,15-60.4,15l1.1,4.5c5.8,5.3,13.2,8.7,21,8.3,5.2-.3,12.6-.4,14.9-5,1.5,4.3,6,7,10.1,8.7,16.5,7.3,35.3,8.5,50,1.8,1.9,3.9-.6,15.4-4.2,26.1,6.2-.1,12.3-.3,18.4-.7Z" fill="#69a0ba" opacity="0.25" style="mix-blend-mode:multiply"/><path d="M129.1,90.2c1.9,2.4,3.5,4.9,6.3,7,8.5,6.5,19.4,11,29.8,11.2a30.9,30.9,0,0,0,13-1.7c2.1-.7,4.3-1.1,5.9-2s3.2-2.8,4.5-2.9c3.5-.5,10,4.1,13.4,5.3a28.7,28.7,0,0,0,12,1.3c8.6-.8,17-4.7,19.7-12.4s3.6-18.4-1.2-27.3S221,52.6,210.9,47.6s-19.7-6.2-29.6-5.9h-.2a42.9,42.9,0,0,0-18-7.3c-11.4-1.9-25.5,2.2-32.5,9.6-6.3-4.9-16.6-6.9-24.2-7.4-9.2-.5-18.8,1.7-25.7,6.7C66.1,54,64.6,75.8,80.7,90c7.7,6.5,19,8.4,28.3,7C116.4,95.8,122.3,92.5,129.1,90.2Z" fill="#fbfcff"/><g opacity="0.25" style="mix-blend-mode:multiply"><path d="M129.1,90.2c1.9,2.4,3.5,4.9,6.3,7,8.5,6.5,19.4,11,29.8,11.2a30.9,30.9,0,0,0,13-1.7c2.1-.7,4.3-1.1,5.9-2s3.2-2.8,4.5-2.9c3.5-.5,10,4.1,13.4,5.3a28.7,28.7,0,0,0,12,1.3c8.6-.8,17-4.7,19.7-12.4s3.6-18.4-1.2-27.3S221,52.6,210.9,47.6a59.2,59.2,0,0,0-10.4-3.8c8.8,4.3,16.1,11.7,22.1,19.6s4.8,14.7,1.3,21.1a16.1,16.1,0,0,1-14.8,8.1c-7-.4-13.8-4.7-19.7-9.3-1,17.7-22.6,22.9-39.6,16.2-10.1-3.9-17.1-12.2-22.2-20.9-6.8,12-24.1,15.8-38.2,9.8C79.3,84,72.7,75.9,69.2,66.6,69.3,74.8,73,83.3,80.7,90s19,8.4,28.3,7C116.4,95.8,122.3,92.5,129.1,90.2Z" fill="#69a0ba"/></g><g opacity="0.25" style="mix-blend-mode:multiply"><path d="M220.1,68.9c.2,6-.6,11.9-4.5,16.5s-9,2.7-14.1,1.6C209.3,82.9,218.6,77.8,220.1,68.9Z" fill="#69a0ba"/></g><g opacity="0.25" style="mix-blend-mode:multiply"><path d="M197.2,61.8a36.7,36.7,0,0,1-2.4,12.7c-2.9,7.6-12.3,9.4-20.5,8.7,5.3-4.2,10.5-8.7,16.2-13.1A18.7,18.7,0,0,0,197.2,61.8Z" fill="#69a0ba"/></g><g opacity="0.25" style="mix-blend-mode:multiply"><path d="M121.7,80.4c-10.2-6.7-8.5-18.8-6.4-28.1-5.7,4.7-9.4,11.4-6.4,18.9C110.5,75.9,116.1,81.3,121.7,80.4Z" fill="#69a0ba"/></g><g opacity="0.25" style="mix-blend-mode:multiply"><path d="M77.2,53.9A33.4,33.4,0,0,1,82,49.6c-3.2,9.9-1.6,23.2,10.5,28.6-5.9-1.1-12.1-2.1-16.1-7.4S73.2,58.1,77.2,53.9Z" fill="#69a0ba"/></g><g opacity="0.25" style="mix-blend-mode:multiply"><path d="M108,80C95.4,73.8,95.1,60.2,95.8,49.1a19,19,0,0,0-5.3,17.4C92.3,73.5,99.9,81.6,108,80Z" fill="#69a0ba"/></g><g opacity="0.25" style="mix-blend-mode:multiply"><path d="M141.7,55.8c-3.1,9.4-4.4,20.8,2.6,30.2-5.2-2.4-8.6-6.4-9.6-11.3C133.1,67.4,136.8,60.9,141.7,55.8Z" fill="#69a0ba"/></g><g opacity="0.25" style="mix-blend-mode:multiply"><path d="M159.6,55c3.3,11.2,4.6,23.7-5.2,30.8C152.6,74.9,153.9,64,159.6,55Z" fill="#69a0ba"/></g><g opacity="0.25" style="mix-blend-mode:multiply"><path d="M229.2,82.8a53.4,53.4,0,0,0,2-10.9,24.5,24.5,0,0,1,1.1,13.6c-1.4,5-5.7,9.2-11.7,8.5C221.7,89.1,227.8,87.7,229.2,82.8Z" fill="#69a0ba"/></g><path d="M196.9,119.4c-.3,4,3.4,7.5,8.3,7.9s9-2.5,9.3-6.6-3.3-7.6-8.2-8-9.1,2.6-9.4,6.7" fill="#efdc3c"/><path d="M188,118.1c-2.2,3.4-.6,8.2,3.5,10.9s9.2,2,11.4-1.4.6-8.3-3.5-11-9.2-1.9-11.4,1.5" fill="#efdc3c"/><path d="M199,127c-1.4,3.8,1.3,8.2,5.9,9.8s9.4-.1,10.7-3.9-1.3-8.3-5.9-9.9-9.4.2-10.7,4" fill="#efdc3c"/><path d="M188.4,117.2c3.2,2.5,8.2,1.3,11.2-2.6s2.7-9-.5-11.4-8.2-1.3-11.2,2.5-2.7,9,.5,11.5" fill="#eebc2a"/><path d="M176,108.2c-2.1,3.4-.6,8.3,3.5,10.9s9.3,2,11.4-1.4.6-8.3-3.5-10.9-9.2-2-11.4,1.4" fill="#eebc2a"/><path d="M187,117.1c-1.4,3.8,1.3,8.2,5.9,9.9s9.4-.2,10.7-4-1.3-8.2-5.8-9.8-9.5.1-10.8,3.9" fill="#eebc2a"/><path d="M205.7,122.8a6.1,6.1,0,0,1-1.6,4.2l-.2.2-.3.3-.2.3-.3.2-.3.2-.3.2-2,1h-1.6c-7.2,1-11.3-6-13.6-11.7l-.9-2.6-.3-.6a12.4,12.4,0,0,0-3.1-5l-.2-.2a6.3,6.3,0,0,0-6.2-1h-.5l-.3-.6c-.3-.4-.5-.9-.8-1.4s-.1-.3-.1-.4h.4a9.3,9.3,0,0,1,8.6.8c3,2.1,4.3,5.3,5.6,8.5s4,11.1,9.7,12c3.3.3,7.1-1.6,7.1-5.4s-4.8-5-7.1-4.8a10.5,10.5,0,0,0-5.9,2l-.7.5h-.8l.3-.2a16.1,16.1,0,0,1,2.8-1.7c4.7-2,12.5-.7,12.8,5.8" fill="#008742"/><path d="M181.7,117.4l-1.6-.4a17.4,17.4,0,0,1-12.8-16.3l2.6-.3a18.4,18.4,0,0,0,11.8,17" fill="#7db82e"/><path d="M185.7,121.3h.8l-.5.2-.4.2h-.4l-.5.2h-.8l-.5.2h-.9a16.7,16.7,0,0,1-5.9.2h-1.9l-.5-.2-.4-.2c-3.5-1.5-5.7-4-6.1-7.8v-2.8c0-.2.1-.3.1-.5s.2-.3.2-.5v-.2l.3-.7v-.2l1.8,2.6v2.8c1.3,5.4,7.8,6.7,12.4,6.2h1.7l1.2-.4" fill="#7db82e"/><path d="M242.3,196.9a3,3,0,0,1-.3,1.6,3.9,3.9,0,0,1-5,1.9h0c-1.8,3.6-4.9,6.5-8.9,6.9h-.8c-3.4,0-7.5-1.7-12-6.4a18.8,18.8,0,0,1-1.8-2.4l-.4-.9c-2.8-6.3.5-14.3,7.2-11.2a8.2,8.2,0,0,0,3.3.9,3.9,3.9,0,0,1,.3-2.1,3.8,3.8,0,0,1,6.9.2c1.9-.5,3.6-.7,5.4,1a3.4,3.4,0,0,1,2,.3,3.9,3.9,0,0,1,2.2,3.5l1.1.3a3.9,3.9,0,0,1,1.9,5.1A4.5,4.5,0,0,1,242.3,196.9Z" fill="#b8cb56"/><path d="M229,207.9h.6c0-1.1.1-2.2.2-3.4s.1-.6.2-.8a37.7,37.7,0,0,1,1-4.3h.1c.1-.3.1-.6.2-.8s1.4-3.4,2.1-4.8l.3-.7a56,56,0,0,1,3.1-5.3c.1-.2.1-.4-.1-.5s-.4-.1-.5.1a25,25,0,0,0-2.2,3.5h0a2.5,2.5,0,0,1-.4.7l-.7,1.5h0l-.2.3a14.2,14.2,0,0,0-.8,1.8,3,3,0,0,0-.4.8h0l-1.2,3.2-.6,2.2a2.9,2.9,0,0,0-.2.9h0a31.2,31.2,0,0,0-.6,4.1h0V208Z" fill="#e5f0d6"/><path d="M229.1,192.5a9.4,9.4,0,0,1-.8-3.1c0-.2.1-.4.3-.4s.4.1.4.3a10.2,10.2,0,0,0,3.2,6.2c.2.1.2.3.1.5a.3.3,0,0,1-.5.1A10.9,10.9,0,0,1,229.1,192.5Z" fill="#e5f0d6"/><path d="M232.5,189.9a4.2,4.2,0,0,1-.4-1.6c0-.2.1-.4.3-.4s.4.1.4.3a4.3,4.3,0,0,0,1.5,2.9.4.4,0,0,1-.4.6A4.3,4.3,0,0,1,232.5,189.9Z" fill="#e5f0d6"/><path d="M226.8,198.6a9.4,9.4,0,0,1-.8-3.1.4.4,0,0,1,.4-.4c.2,0,.4.1.4.3a8.9,8.9,0,0,0,3.2,6.2.3.3,0,0,1,0,.5c-.1.2-.3.2-.5.1A10.9,10.9,0,0,1,226.8,198.6Z" fill="#e5f0d6"/><path d="M224.8,202.8a5.8,5.8,0,0,1-.5-1.4c-.1-.2.1-.4.3-.4s.4,0,.4.2a8.9,8.9,0,0,0,4.4,5.4.3.3,0,0,1,.1.5.4.4,0,0,1-.5.2A10.9,10.9,0,0,1,224.8,202.8Z" fill="#e5f0d6"/><path d="M230.5,199.1h0c0-.2.1-.4.3-.4s3.8-.5,6.1-3.4c.1-.2.3-.2.5-.1a.3.3,0,0,1,.1.5,9.9,9.9,0,0,1-6.6,3.7A.5.5,0,0,1,230.5,199.1Z" fill="#e5f0d6"/><path d="M232.7,193.4v-.2c0-.2.3-.3.5-.3h0a4,4,0,0,0,3.1-.7.5.5,0,0,1,.6.1c.1.2.1.4-.1.5a5.2,5.2,0,0,1-3.8.9Z" fill="#e5f0d6"/><path d="M229.4,204.2V204a.4.4,0,0,1,.4-.4,9.4,9.4,0,0,0,6-3.4c.1-.1.4-.2.5,0s.2.3.1.5a10.2,10.2,0,0,1-6.6,3.7C229.6,204.4,229.4,204.3,229.4,204.2Z" fill="#e5f0d6"/><path d="M229.4,207.9h0Z" fill="#e5f0d6"/><path d="M265.3,198.8a3.5,3.5,0,0,1-.3,1.4,3.1,3.1,0,0,1-4.2,1.5h0c-1.5,3.1-4.1,5.5-7.5,5.9h-.6c-2.9,0-6.4-1.5-10.2-5.4a8,8,0,0,1-1.5-2.1,4.3,4.3,0,0,1-.4-.7c-2.3-5.3.4-12.1,6.1-9.4a10.4,10.4,0,0,0,2.8.7,3.7,3.7,0,0,1,.2-1.8,3.4,3.4,0,0,1,4.3-1.5,3.7,3.7,0,0,1,1.6,1.7c1.6-.4,3-.6,4.5.9a3.2,3.2,0,0,1,1.7.2,3.4,3.4,0,0,1,1.9,3l.9.2a3.3,3.3,0,0,1,1.6,4.3A3.1,3.1,0,0,1,265.3,198.8Z" fill="#b8cb56"/><path d="M254.1,208.1h.5a14.6,14.6,0,0,1,.2-2.9,2,2,0,0,1,.1-.7,25.8,25.8,0,0,1,.9-3.5h0a1.4,1.4,0,0,0,.2-.7,37,37,0,0,1,1.7-4l.3-.6c1.4-2.6,2.6-4.4,2.6-4.4s.1-.4-.1-.5-.3,0-.4.1-.8,1.2-1.8,3h0l-.3.6-.7,1.2h0c0,.1-.1.2-.1.3a10.1,10.1,0,0,0-.7,1.5l-.3.7h0a16.9,16.9,0,0,0-1,2.7l-.6,1.8c0,.3-.1.5-.1.8h0a14.8,14.8,0,0,0-.5,3.5h0c0,.2-.1.5-.1.7a1.7,1.7,0,0,0,.1.7Z" fill="#e5f0d6"/><path d="M254.1,195.1a9.9,9.9,0,0,1-.7-2.6.4.4,0,0,1,.3-.4c.2,0,.4.1.4.3a7.9,7.9,0,0,0,2.7,5.2.4.4,0,0,1,0,.5h-.4A9,9,0,0,1,254.1,195.1Z" fill="#e5f0d6"/><path d="M257,192.9a5.7,5.7,0,0,1-.4-1.4l.3-.3c.2,0,.4.1.4.3a3.2,3.2,0,0,0,1.3,2.4.4.4,0,0,1,0,.5h-.5A4.7,4.7,0,0,1,257,192.9Z" fill="#e5f0d6"/><path d="M252.2,200.3a10.7,10.7,0,0,1-.7-2.7.3.3,0,0,1,.3-.3c.2,0,.4.1.4.3a8.1,8.1,0,0,0,2.7,5.2.3.3,0,0,1,0,.4.2.2,0,0,1-.4.1A10.4,10.4,0,0,1,252.2,200.3Z" fill="#e5f0d6"/><path d="M250.5,203.8a5.6,5.6,0,0,1-.4-1.2c-.1-.1,0-.3.2-.3s.4,0,.4.2a7.6,7.6,0,0,0,3.7,4.5.4.4,0,0,1,.1.5c-.1.1-.3.2-.4.1A8.9,8.9,0,0,1,250.5,203.8Z" fill="#e5f0d6"/><path d="M255.3,200.7h0c0-.2.1-.4.3-.4a7.9,7.9,0,0,0,5.1-2.8.3.3,0,1,1,.5.3,9,9,0,0,1-5.6,3.2Z" fill="#e5f0d6"/><path d="M257.2,195.9v-.2c0-.2.2-.3.4-.2h0a4,4,0,0,0,2.6-.6h.5c.1.2.1.4-.1.5a4.7,4.7,0,0,1-3.2.7Z" fill="#e5f0d6"/><path d="M254.3,204.9h0a.3.3,0,0,1,.3-.3,8.1,8.1,0,0,0,5.1-2.9h.5a.3.3,0,0,1,0,.4,8,8,0,0,1-5.5,3.1C254.5,205.1,254.4,205.1,254.3,204.9Z" fill="#e5f0d6"/><path d="M254.4,208.1h0Z" fill="#e5f0d6"/><path d="M197.7,207.3c0,1.3,18.3,2.4,40.9,2.3s40.8-1.4,40.8-2.7-18.3-2.4-40.9-2.3S197.7,205.9,197.7,207.3Z" fill="#b4b5b5"/><path d="M204.5,206.9c0,1.2,15.2,2,34.1,1.9s34-1.1,34-2.2-15.2-2-34.1-1.9S204.4,205.8,204.5,206.9Z" fill="#ececed"/><g id="a39d6f88-ac18-4dfc-9f95-732afa8eebb1" data-name="tomato"><path d="M215.8,202.7a3.1,3.1,0,0,1-3.1,3.2,3.3,3.3,0,0,1-1.9-.6h0a3.2,3.2,0,0,1-1.3-2.6,3.1,3.1,0,0,1,1.2-2.4,2.7,2.7,0,0,1,2-.7,2.6,2.6,0,0,1,1.5.4h.2A3,3,0,0,1,215.8,202.7Z" fill="#e04236"/><path d="M213.2,199.8a10.7,10.7,0,0,1,.7,1.5,2.3,2.3,0,0,1-1.3-1.7h0a10,10,0,0,1-1.1,1.9,2.6,2.6,0,0,1,.5-1.7l-1.3.5a2.7,2.7,0,0,1,2-.7,2.6,2.6,0,0,1,1.5.4h.1C214.1,200.2,213.7,200,213.2,199.8Z" fill="#3dab4a"/><path d="M215.8,202.7a3.1,3.1,0,0,1-3.1,3.2,3.3,3.3,0,0,1-1.9-.6h0c5.8-2.4,3.7-5.1,3.6-5.2A3,3,0,0,1,215.8,202.7Z" fill="#aa3228" opacity="0.24"/><path d="M210.2,201.3a2.3,2.3,0,0,0,0,2.7C210.1,201.8,209.8,203.7,210.2,201.3Z" fill="#e98881"/></g><path d="M265.1,206.8a5.1,5.1,0,0,0,2.4-4.2c-.1-5.1-6.9-6-10.7-6.1a116,116,0,0,1-33.6-4.6c-7.5-2.5-10.4,4.4-10.7,10.7a30.3,30.3,0,0,0,.6,4.2Z" fill="#be966a"/><path d="M221.4,206.8h-3.1c-.1-5,1.4-10.8,2.9-15.4l1.6.4A35,35,0,0,0,221.4,206.8Z" fill="#a47a4f"/><path d="M236.4,194.9a29.5,29.5,0,0,0-3,11.9h-2.3a72.6,72.6,0,0,1,3.4-12.2Z" fill="#a47a4f"/><path d="M248.3,206.8h-2.2a92.3,92.3,0,0,1,.2-10.7H248A31.2,31.2,0,0,0,248.3,206.8Z" fill="#a47a4f"/><path d="M262.1,206.8h-2a72.5,72.5,0,0,1,.5-9.9l1.7.4A27.7,27.7,0,0,0,262.1,206.8Z" fill="#a47a4f"/><path d="M266.9,200.3c-.9-.1-1.8-.2-2.4.9s-1.4.9-5,2.2-5.1-2.5-8.9-2.9-3.4.9-6.6,2.5-6.5-5.2-11.2-.2-.5-7.3-4-1.6,2.1-2.8-4.6-1.1c-4.9,1.3-7.1-4.3-7.9-7.3,1.7-1.4,3.9-1.9,6.9-.9a115.5,115.5,0,0,0,33.6,4.6C259.9,196.6,265.2,197.2,266.9,200.3Z" fill="#cbaa86" opacity="0.58"/><path d="M266.6,199.9l-4.2,1.1-.5.2h-.5l-1.1.2h0a57.3,57.3,0,0,1-5.8.7h-.6a61.3,61.3,0,0,1-8.6-.3h-.9a64.2,64.2,0,0,1-6.6-1.3h0l-.9-.2h0l-2.7-.8-1.5-.5a60,60,0,0,1-7.2-2.8l-.4-.2H225c-2.3-1.1-4.5-2.2-6.2-3.2h0l-.5-.3h0l-.8-.5a6.1,6.1,0,0,1,4.1-.5l1.6.4h.4l.6.2h0a102.2,102.2,0,0,0,12.2,2.7l.9.2h.9l1.3.2h0c2.9.4,5.8.7,8.8.9h.6l7.9.2h1.5C261.2,196.8,264.9,197.6,266.6,199.9Z" fill="#a47a4f"/><path d="M224.2,192.2h-.4l-.8.2-4.2.4h0l-.5-.3a21.8,21.8,0,0,0,4.4-.4h.9Z" fill="#584942"/><path d="M239.5,195.4H237l-7.6.4h-.9l-3,.2-.4-.2,3-.2h.9l7.7-.4h1.5Z" fill="#584942"/><path d="M261.4,201.3l-1.1.2h0c-2.1-.1-4.1-.4-6.2-.7a71.4,71.4,0,0,0-8-.4h-8.3l-.9-.2,5.5-.2h3.3c2.7.1,5.4.1,8.1.4a63.4,63.4,0,0,0,7.5.7A.1.1,0,0,1,261.4,201.3Z" fill="#584942"/><path d="M234.2,199.5l-1.5-.5-4.2-3h0l-.3-.2h-.1c-1.6-1.2-3.4-2.3-5.1-3.4l-.3-.3-1.1-.6,1.6.4h.3l.3.2,5.2,3.5h0l.4.2h0Z" fill="#584942"/><path d="M245.3,201.9h-.9l-1.7-1.4-.3-.3c-1.9-1.5-3.6-3-5.4-4.6l-.3-.2-.3-.4.9.2h.1l.3.3,5.4,4.6h0l.3.3Z" fill="#584942"/><path d="M254.5,202.2h-.6c-1.9-1.9-3.7-4-5.6-5.9h.6C250.8,198.3,252.6,200.3,254.5,202.2Z" fill="#584942"/><path d="M262.4,201l-.5.2a28.4,28.4,0,0,1-2.4-2.6,12,12,0,0,1-1.7-2.1h.5a34.8,34.8,0,0,0,2.4,2.8Z" fill="#584942"/><path d="M248.9,197.7a7.6,7.6,0,0,1-.9-.9,7.5,7.5,0,0,1-.7-1.2,5,5,0,0,1-.4-1.3,1.5,1.5,0,0,1,.2-1.3,5,5,0,0,0,.2,1.2l.5,1.2A16.3,16.3,0,0,1,248.9,197.7Z" fill="#066c38"/><path d="M248.4,197.7l-1.3.4-1.2.6-1,.9a1.8,1.8,0,0,0-.5,1.2l.8-.9,1.1-.7C247,198.7,247.7,198.3,248.4,197.7Z" fill="#108d42"/><path d="M245.1,197.2l-1,.2-.9.4a2.7,2.7,0,0,0-.8.7,1.1,1.1,0,0,0-.5.9,4.6,4.6,0,0,1,.7-.7l.8-.5Z" fill="#066c38"/><path d="M242.5,196.6l-.7.2-.6.3-.5.4a.9.9,0,0,0-.3.7,1,1,0,0,1,.4-.5,1,1,0,0,0,.5-.4Z" fill="#066c38"/><path d="M238.8,195.1h-.7l-.6.4a1,1,0,0,0-.5.4.9.9,0,0,0-.3.7l.4-.5.6-.4Z" fill="#066c38"/><path d="M235.4,193.3l-.6.2-.6.4-.6.4a1.4,1.4,0,0,0-.2.7,1,1,0,0,1,.4-.5l.5-.4Z" fill="#066c38"/><path d="M246.4,197.4l-.8-.9-.6-.9-.3-1.1a1.7,1.7,0,0,1,.1-1.2,2,2,0,0,0,.3,1.1l.4,1Z" fill="#066c38"/><path d="M244.1,196.9l-.9-.7a2.7,2.7,0,0,1-.7-.8l-.6-1.1a1.4,1.4,0,0,1,0-1.1,1.8,1.8,0,0,0,.4,1l.6.9Z" fill="#066c38"/><path d="M240.7,195.9l-.7-.9a4.7,4.7,0,0,1-.6-.9,4.9,4.9,0,0,1-.4-1.1,2.5,2.5,0,0,1,.2-1.2,4.3,4.3,0,0,0,.2,1.1,10.4,10.4,0,0,1,.4,1A9.3,9.3,0,0,1,240.7,195.9Z" fill="#066c38"/><path d="M237.4,194.4l-.7-.7a5.6,5.6,0,0,0-.5-.8l-.3-1a2.8,2.8,0,0,1,.1-.9,2.9,2.9,0,0,0,.2.9l.4.8Z" fill="#066c38"/><path d="M234.4,192.7l-.5-.5-.3-.6-.3-.7a1.5,1.5,0,0,1,.1-.7,12362528204867.7,12362528204867.7,0,0,0,.4,1.2Z" fill="#108d42"/><path d="M247.1,197.7s-1.2-2.1-.7-2.7A25.6,25.6,0,0,1,247.1,197.7Z" fill="#108d42"/><path d="M246.2,197.3s-1.4,2.1-2.2,1.9S245.5,197.8,246.2,197.3Z" fill="#108d42"/><path d="M240.4,195.6s-1,1.5-1.6,1.4Z" fill="#108d42"/><path d="M237.2,194s-1,1.5-1.6,1.4S236.7,194.3,237.2,194Z" fill="#108d42"/><path d="M234.2,192.6s-1.8.5-2.2,0Z" fill="#108d42"/><path d="M241.8,196.3s-1.2-2.1-.7-2.7A25.6,25.6,0,0,1,241.8,196.3Z" fill="#108d42"/><path d="M238.6,195.2s-1.2-2.1-.7-2.7A27.5,27.5,0,0,0,238.6,195.2Z" fill="#108d42"/><path d="M235.3,193.2s-.9-1.6-.5-2.1S235.2,192.6,235.3,193.2Z" fill="#108d42"/><path d="M232.1,191.1a29.8,29.8,0,0,0,5.5,3.1,31.4,31.4,0,0,0,5.8,2.2,32.2,32.2,0,0,0,6.2,1.1l3.1.2,3.1-.2h0a18.8,18.8,0,0,1-6.3.6,26.2,26.2,0,0,1-6.2-1.2,38.3,38.3,0,0,1-5.9-2.4,37.7,37.7,0,0,1-5.4-3.4Z" fill="#066c38"/><g id="aba9a33b-cb4f-454c-87fe-d713d5cefe9d" data-name="tomato"><path d="M270.1,204.2a3.2,3.2,0,0,1-3.2,3.1,2.8,2.8,0,0,1-1.8-.6h0a3.1,3.1,0,0,1-1.4-2.5,3.3,3.3,0,0,1,1.2-2.5,3.2,3.2,0,0,1,2-.7,2.4,2.4,0,0,1,1.5.4h.2A3.3,3.3,0,0,1,270.1,204.2Z" fill="#e04236"/><path d="M267.4,201.3l.8,1.4a2.8,2.8,0,0,1-1.4-1.7h0a10,10,0,0,1-1.1,1.9,2.7,2.7,0,0,1,.5-1.6l-1.3.4a3.2,3.2,0,0,1,2-.7,2.4,2.4,0,0,1,1.5.4h.1A1.7,1.7,0,0,1,267.4,201.3Z" fill="#3dab4a"/><path d="M270.1,204.2a3.2,3.2,0,0,1-3.2,3.1,2.8,2.8,0,0,1-1.8-.6h0c5.7-2.3,3.6-5.1,3.5-5.2A3.3,3.3,0,0,1,270.1,204.2Z" fill="#aa3228" opacity="0.24"/><path d="M264.5,202.7a2.3,2.3,0,0,0,0,2.7C264.4,203.3,264,205.2,264.5,202.7Z" fill="#e98881"/></g><g id="e0efd6c4-6096-4ee4-97ab-ecced339eb80" data-name="lemon cut"><g opacity="0.24"><path d="M219.5,201.9a.9.9,0,0,1-.9.8.8.8,0,0,1-.8-.8c0-.2,0-.3.1-.4a.8.8,0,0,1,1.4,0A.5.5,0,0,1,219.5,201.9Z" fill="#95795b"/><path d="M219.3,201.5a.8.8,0,0,1-1.4,0,.8.8,0,0,1,1.4,0Z" fill="#95795b"/><path d="M214.4,199.6c-.3.6-1,2.3-1.1,2.3a5.5,5.5,0,0,1,.6-2.7c.2-.4,1.2-1.5,1.4-1.3S214.6,199.2,214.4,199.6Z" fill="#95795b" opacity="0.42"/><path d="M214.7,207a6.6,6.6,0,0,1-2.5-5.1,6.4,6.4,0,0,1,5.1-6.3C216.8,195.8,208.6,199.1,214.7,207Z" fill="#95795b"/></g><path d="M224.1,201a6.6,6.6,0,0,1-6.6,6.7,7,7,0,0,1-4.1-1.4l-.9-.9a6.4,6.4,0,0,1-1.7-4.4,6.7,6.7,0,0,1,5.3-6.5l1.4-.2a6.3,6.3,0,0,1,3.3.9h0l1.2.9A6.7,6.7,0,0,1,224.1,201Z" fill="#e9bd18"/><path d="M223.9,201a6.4,6.4,0,0,1-6.4,6.4,6.8,6.8,0,0,1-4-1.3,6.4,6.4,0,0,1-2.4-5.1,6.3,6.3,0,0,1,5.1-6.3h1.3a7.2,7.2,0,0,1,3.2.8h0A6.5,6.5,0,0,1,223.9,201Z" fill="#f4e097"/><path d="M223.6,201a6.2,6.2,0,0,1-6,6.1h-.3a5.9,5.9,0,0,1-3.6-1.3,6,6,0,0,1-2.3-4.8,6.2,6.2,0,0,1,4.8-6h1.4a5.7,5.7,0,0,1,2.9.8h0A6.1,6.1,0,0,1,223.6,201Z" fill="#ebc83b"/><path d="M217.6,194.9v12.2h-.3V194.9h.3Z" fill="#f4e097"/><path d="M212.3,197.8l10.5,6.1h0v.2l-10.6-6.1v-.2Z" fill="#f4e097"/><path d="M212.1,203.9l10.6-6.1h.1v.2l-10.5,6.1V204Z" fill="#f4e097"/><path d="M224.1,201a6.6,6.6,0,0,1-6.6,6.7,7,7,0,0,1-4.1-1.4l-.9-.9h.8a15,15,0,0,0,4-.5l.3-.2a5.8,5.8,0,0,0,2.8-2l.2-.2a9.2,9.2,0,0,0,1.4-4v-2.5A6.7,6.7,0,0,1,224.1,201Z" fill="#b2972a" opacity="0.24"/></g><g id="f7c6e71c-009a-4647-bec4-b5b037e127f3" data-name="smoke" opacity="0.32"><path d="M259.8,156.5s-20.7-11.9-31.7-13.1c-7.9-.9-10.7-.5-5,6.4s29.7,13.1,25.3,22.9c8.4-4.4-9.1-14.5-11.8-16.8C219.4,140.8,259.8,156.5,259.8,156.5Z" fill="#bbbcbc"/></g><g id="ac2c1649-a9f0-4272-add1-0560deb8fbdf" data-name="smoke" opacity="0.32"><path d="M249.2,170.9s-10.2-5.9-15.7-6.5c-3.9-.4-5.2-.2-2.4,3.2s14.6,6.5,12.5,11.3c4.1-2.2-4.6-7.2-5.9-8.3C229.2,163.1,249.2,170.9,249.2,170.9Z" fill="#bbbcbc"/></g></g></g></g></svg>