<svg xmlns="http://www.w3.org/2000/svg" xmlns:xlink="http://www.w3.org/1999/xlink" viewBox="0 0 389.3 371.7"><defs><clipPath id="ee646ddd-605c-4e19-8598-94344409826f"><path id="afb448bc-962d-4843-bdf0-d4834cb67e5e" data-name="SVGID" d="M85.3,243.1c-5.3,5.1-7.8,11.2-5.6,13.5s8.3-.1,13.6-5.3,7.9-11.2,5.6-13.5a2.7,2.7,0,0,0-1.3-.7c-2.8-.7-7.8,1.6-12.3,6" fill="none"/></clipPath><linearGradient id="b16ae90c-1c15-40dc-96b8-3989bbcddda4" x1="-3165.33" y1="-563.43" x2="-3164.96" y2="-563.43" gradientTransform="translate(213618.2 38274.4) scale(67.46)" gradientUnits="userSpaceOnUse"><stop offset="0" stop-color="#85b644"/><stop offset="0.08" stop-color="#8cba48"/><stop offset="0.42" stop-color="#a3c856"/><stop offset="0.73" stop-color="#b1d15e"/><stop offset="1" stop-color="#b6d461"/></linearGradient><clipPath id="b94ba44f-18f8-4d93-9adc-adfb2c3b9d2a"><path id="b33b2541-dadb-4bc2-9f23-033b545c1686" data-name="SVGID" d="M216.8,239c-1.7,2.6,1.8,8.1,8,12.2s12.6,5.4,14.4,2.7-1.8-8.1-8-12.3-11.8-5.1-14-3.1l-.4.5" fill="none"/></clipPath><linearGradient id="bad7a148-245c-41e2-8a2f-8c49878b3cdf" x1="-3185.56" y1="-618.16" x2="-3185.19" y2="-618.16" gradientTransform="translate(41943.8 -214678.4) rotate(-90) scale(67.47)" xlink:href="#b16ae90c-1c15-40dc-96b8-3989bbcddda4"/><clipPath id="b98d57da-6f2c-4717-a38a-df77fc8df005"><path id="feaaacc2-339e-42c8-864c-fe640d6ac9ae" data-name="SVGID" d="M179.8,277.7c-3,1.1-3.3,7.6-.8,14.6s7.1,11.7,10.1,10.6,3.4-7.7.8-14.6-6.5-11.1-9.5-10.8l-.6.2" fill="none"/></clipPath><linearGradient id="b372fa13-ed79-4aab-b83a-7f34e153fc8f" x1="-3191.85" y1="-592.58" x2="-3191.48" y2="-592.58" gradientTransform="translate(40166.8 -215060.5) rotate(-90) scale(67.47)" xlink:href="#b16ae90c-1c15-40dc-96b8-3989bbcddda4"/><clipPath id="bbb2b9ac-aa3f-4270-98fb-2dd75a478e55"><path id="ef73cfbe-acaa-4462-b3ee-304f00976e1e" data-name="SVGID" d="M113.4,283.5c-3.1,6.7-3.3,13.2-.4,14.6s7.8-3.1,10.9-9.8,3.2-13.3.3-14.6a2.4,2.4,0,0,0-1.5-.2c-2.9.3-6.7,4.3-9.3,10" fill="none"/></clipPath><linearGradient id="a2009264-afff-4aa8-b153-ba37d31c3d71" x1="-3180.97" y1="-570.79" x2="-3180.6" y2="-570.79" gradientTransform="translate(38637 -214298.4) rotate(-90) scale(67.46)" xlink:href="#b16ae90c-1c15-40dc-96b8-3989bbcddda4"/><clipPath id="b7793015-ab00-4c89-998d-0e7a0be03f0e"><path id="a4bdd7ff-d5e7-427a-82f1-f9bb26f22ec4" data-name="SVGID" d="M95.9,189.2a72,72,0,1,0,97.7-28.7,72.1,72.1,0,0,0-97.7,28.7" fill="none"/></clipPath><linearGradient id="aa1407e7-2d7f-4f66-b3fc-1a794047b0e0" x1="-3164.62" y1="-600.23" x2="-3164.25" y2="-600.23" gradientTransform="matrix(-392.5, 0, 0, -392.5, -1241893.46, -235371.07)" gradientUnits="userSpaceOnUse"><stop offset="0" stop-color="#b6d461"/><stop offset="1" stop-color="#b6d461"/><stop offset="1" stop-color="#85b644"/></linearGradient><clipPath id="bbbb950e-e9f4-4987-b8f1-d0bb557c8681"><path id="b412ecb4-0890-43a0-b2fd-256d16cef134" data-name="SVGID" d="M112.5,172.8a68.9,68.9,0,1,0,38.6-17.7,69,69,0,0,0-38.6,17.7" fill="none"/></clipPath><linearGradient id="a3c4f685-8d17-462e-87a5-1e150bbafbec" x1="-3167.2" y1="-596.82" x2="-3166.83" y2="-596.82" gradientTransform="matrix(0, -376.45, 376.45, 0, 224824.93, -1191994.29)" xlink:href="#b16ae90c-1c15-40dc-96b8-3989bbcddda4"/><linearGradient id="affdc2d2-0885-44cc-95b4-e6b64f54dd42" x1="256.17" y1="254.18" x2="256.17" y2="229.07" gradientUnits="userSpaceOnUse"><stop offset="0" stop-color="#736357"/><stop offset="1"/></linearGradient></defs><title>資產 1</title><g style="isolation:isolate"><g id="e5dad123-5205-4c68-9c4e-36550658b387" data-name="圖層 2"><g id="f77ffa76-b71a-4dcd-b3a4-a64ff1eaecc2" data-name="圖層 4"><path d="M34.9,159.4c-1.5-.8-2.9-2.1-3-3.8s1.4-3.6,3-3c-.3-1.5-1.8-2.5-3.2-3a20.5,20.5,0,0,1-4.3-1.8c-1.2-.9-2.1-2.7-1.3-4s2.5-1.5,3.4-2.7a3.8,3.8,0,0,0-.4-4.5,23.1,23.1,0,0,0-3.9-3.1c-1.3-1-2.6-2.3-2.7-4s3.2-4.9,6-4.4,5,2.8,6.9,5a9.1,9.1,0,0,0,2.9,2.6,3.2,3.2,0,0,0,3.6-.2c1.7-1.6.5-5.2,2.6-6.5s3.1,0,3.9,1.3a14.3,14.3,0,0,1,1.2,4.5,6.1,6.1,0,0,0,1.9,4.1c1.9,1.3,4.4.5,6.6.8,4,.5,6.7,4.9,6.3,8.8s-3.2,7.4-6.6,9.5-7.8,3.5-11.5,5.2A12.7,12.7,0,0,1,34.9,159.4Z" fill="#fd7a27"/><path d="M32.5,134.1S43.2,153.2,53.9,157" fill="none" stroke="#fff" stroke-miterlimit="10"/><path d="M21.8,110.5c-4.3-.5-7.9-3.1-10.6-6.3S6.9,98,6.7,94.4a9.3,9.3,0,0,0,4.9,1.4c2.5.1,5.2-1,5.9-3.6a5.6,5.6,0,0,0-2.3-6.1,6.3,6.3,0,0,0-7.1.2A8.1,8.1,0,0,0,5,90.1,11.5,11.5,0,0,1,2.6,79.9C3,78.5.9,77.7.5,79.1A13.6,13.6,0,0,0,4.4,92.7h.1a16.7,16.7,0,0,0,2.4,9c3.1,5.5,8.2,10.1,14.7,10.9C23,112.9,23.2,110.7,21.8,110.5Zm-11-23A3.7,3.7,0,0,1,15.4,90c.6,2.5-1.9,3.7-4,3.6a8.1,8.1,0,0,1-4.5-1.8A5.7,5.7,0,0,1,10.8,87.5Z" fill="#d4a787"/><path d="M354.4,30.2c0-5.1,2.4-9.8,5.9-13.5s6.6-6,10.9-6.8a12.3,12.3,0,0,0-1,6c.3,2.9,2.1,5.9,5.3,6.5a6.9,6.9,0,0,0,6.8-3.7c1.4-2.7.6-6.1-1.3-8.4a9.6,9.6,0,0,0-5-3.1,13.6,13.6,0,0,1,11.7-4.4c1.7.2,2.3-2.4.6-2.6a16.2,16.2,0,0,0-15.5,6.7h-.1a20.9,20.9,0,0,0-10.3,4.2c-6,4.6-10.7,11.3-10.7,19.1A1.4,1.4,0,0,0,354.4,30.2Zm25.5-16.5a4.3,4.3,0,0,1-2.2,5.8c-2.9,1.1-4.7-1.7-4.9-4.2a10.8,10.8,0,0,1,1.4-5.6A6.6,6.6,0,0,1,379.9,13.7Z" fill="#d4a787"/><path d="M357.4,56.7s3.9,5.6,2.2,10.1l-1.8,4.5-1.6-.9s-.1,8.1-2.7,11.4c0,0-11.9-9.5-10.6-15.5,0,0-2.6,4.1-6.4,9.4L332.6,81l.2-3.5s-6.5,5.2-12.5,7.4a4.3,4.3,0,0,1-.1-.5,56,56,0,0,1-.8-14l-2.8,2.1,2.2-6.1c2.2-6.2,4.1-10.6,4.1-10.6-4.2,4.5-18.7-.1-18.7-.1,1.2-3.9,7.9-8.6,7.9-8.6l-1.7-.8,2.8-4c2.7-4,9.6-3.9,9.6-3.9a21,21,0,0,1-10.6-13.6s4.2.2,12.2,1.3,15.5,13.4,15.5,13.4l3.1,1.9h.2a24.2,24.2,0,0,0,3.6,1.6s14.4-.7,19.8,5.2,8,9.5,8,9.5A21.2,21.2,0,0,1,357.4,56.7Z" fill="#e27739"/><line x1="325.9" y1="73.2" x2="347.2" y2="34.2" fill="none" stroke="#000" stroke-miterlimit="10" stroke-width="0.63"/><path d="M357.4,56.7s3.9,5.6,2.2,10.1l-1.8,4.5-1.6-.9s-.1,8.1-2.7,11.4c0,0-11.9-9.5-10.6-15.5,0,0-2.6,4.1-6.4,9.4L332.6,81l.2-3.5s-6.5,5.2-12.5,7.4a4.3,4.3,0,0,1-.1-.5l12.5-23.6L343,41.4h.2a24.2,24.2,0,0,0,3.6,1.6s14.4-.7,19.8,5.2,8,9.5,8,9.5A21.2,21.2,0,0,1,357.4,56.7Z" fill="#e27739" opacity="0.4" style="mix-blend-mode:multiply"/><path d="M319,49.8c3.4.5,6.7-.7,10.1-1.6s7-1.4,9.9.4" fill="none" stroke="#000" stroke-miterlimit="10" stroke-width="0.63"/><path d="M335.6,55.3c.5,1.3-.1,2.8-.1,4.2a14.2,14.2,0,0,0,.8,4,7.2,7.2,0,0,1,0,4.1" fill="none" stroke="#000" stroke-miterlimit="10" stroke-width="0.63"/><path d="M322.8,69c-.3.4-.7.8-1.2.7s-.5-.9-.4-1.4a16.2,16.2,0,0,1,3.2-7.9c.2-.3.9-1.2,1.3-.9s.1.9,0,1.2-.9,2.4-1.3,3.7A17.9,17.9,0,0,1,322.8,69Z" fill="#fff6e6" opacity="0.47" style="mix-blend-mode:soft-light"/><g clip-path="url(#ee646ddd-605c-4e19-8598-94344409826f)"><rect x="75.7" y="236.9" width="26.8" height="21.8" transform="translate(-174.2 245.4) rotate(-69.7)" fill="url(#b16ae90c-1c15-40dc-96b8-3989bbcddda4)"/></g><g clip-path="url(#b94ba44f-18f8-4d93-9adc-adfb2c3b9d2a)"><rect x="214" y="231.6" width="28.5" height="30.18" transform="matrix(0.14, -0.99, 0.99, 0.14, -48.77, 437.01)" fill="url(#bad7a148-245c-41e2-8a2f-8c49878b3cdf)"/></g><g clip-path="url(#b98d57da-6f2c-4717-a38a-df77fc8df005)"><rect x="170.3" y="275.5" width="28.5" height="30.18" transform="translate(-152.5 220.2) rotate(-45.8)" fill="url(#b372fa13-ed79-4aab-b83a-7f34e153fc8f)"/></g><g clip-path="url(#bbb2b9ac-aa3f-4270-98fb-2dd75a478e55)"><rect x="107.8" y="273.1" width="21.8" height="26.82" transform="translate(-4 1.7) rotate(-0.8)" fill="url(#a2009264-afff-4aa8-b153-ba37d31c3d71)"/></g><g clip-path="url(#b7793015-ab00-4c89-998d-0e7a0be03f0e)"><rect x="66" y="138.9" width="187.3" height="179.32" transform="translate(-57.9 54.2) rotate(-16.4)" fill="url(#aa1407e7-2d7f-4f66-b3fc-1a794047b0e0)"/></g><g clip-path="url(#bbbb950e-e9f4-4987-b8f1-d0bb557c8681)"><rect x="54.3" y="121.9" width="210.6" height="212.84" transform="translate(-117.2 258.9) rotate(-61.4)" fill="url(#a3c4f685-8d17-462e-87a5-1e150bbafbec)"/></g><path d="M104.2,223.3c8.5,3,5.1,15.4-6.1,12.8s-5.2-16.7,6.1-12.8" fill="#ed7c78"/><path d="M213.2,223c8.5,3,5.1,15.4-6.1,12.8s-5.2-16.7,6.1-12.8" fill="#ed7c78"/><path d="M152.2,283.6l-19-10.8-5.7,2.9-5.8,2.6L80.1,239.2a2.2,2.2,0,0,0-2.7,3.5l41.4,39.1-1.6,7.6-1.5,5.1L130.8,311Z" fill="#e5e5e4"/><path d="M71.3,241.2a4.9,4.9,0,0,1-.3-6.9h0a4.8,4.8,0,0,1,6.9-.2l26.2,26.1c2,1.8,1.7,2.6-.1,4.6h0c-1.9,2-2.5,2.1-4.5.3Z" fill="#524740"/><path d="M221.5,148.6s-15.7-27.6-55.2-31.4-60.5,15-60.5,15l6.2,36.7a416.4,416.4,0,0,0,105.2,7Z" fill="#fbfcff"/><path d="M221.5,148.6s-15.7-27.6-55.2-31.4-60.5,15-60.5,15l1.1,4.5c5.8,5.3,13.2,8.7,21.1,8.4,5.1-.4,12.6-.5,14.9-5.1,1.5,4.4,6,7,10.1,8.7,16.4,7.3,35.2,8.5,50,1.8,1.8,3.9-.7,15.4-4.3,26.1,6.2-.1,12.3-.3,18.5-.7Z" fill="#69a0ba" opacity="0.25" style="mix-blend-mode:multiply"/><path d="M144.9,136.2c1.9,2.4,3.5,4.9,6.3,7,8.5,6.6,19.3,11,29.8,11.2a31.3,31.3,0,0,0,13-1.7c2-.7,4.3-1.1,5.9-2s3.1-2.8,4.4-2.9c3.6-.5,10,4.1,13.4,5.3a27.6,27.6,0,0,0,12.1,1.3c8.5-.8,17-4.7,19.7-12.4s3.5-18.4-1.3-27.3a47,47,0,0,0-21.6-21.1c-9.2-4.6-19.7-6.1-29.6-5.8h-.2a41.3,41.3,0,0,0-18-7.4c-11.3-1.9-25.5,2.2-32.5,9.7-6.3-5-16.6-6.9-24.1-7.4-9.3-.6-18.9,1.6-25.7,6.6-14.7,10.8-16.2,32.6-.1,46.7,7.7,6.5,19.1,8.4,28.4,7C132.2,141.8,138.1,138.5,144.9,136.2Z" fill="#fbfcff"/><g opacity="0.25" style="mix-blend-mode:multiply"><path d="M144.9,136.2c1.9,2.4,3.5,4.9,6.3,7,8.5,6.6,19.3,11,29.8,11.2a31.3,31.3,0,0,0,13-1.7c2-.7,4.3-1.1,5.9-2s3.1-2.8,4.4-2.9c3.6-.5,10,4.1,13.4,5.3a27.6,27.6,0,0,0,12.1,1.3c8.5-.8,17-4.7,19.7-12.4s3.5-18.4-1.3-27.3a47,47,0,0,0-21.6-21.1,53.9,53.9,0,0,0-10.4-3.8c8.9,4.3,16.2,11.8,22.1,19.7s4.9,14.6,1.3,21a16.1,16.1,0,0,1-14.8,8.1c-7-.4-13.7-4.7-19.6-9.3-1.1,17.7-22.7,22.9-39.6,16.2-10.1-3.9-17.2-12.2-22.2-20.9-6.9,12-24.2,15.8-38.2,9.8-10.2-4.3-16.8-12.5-20.3-21.7.2,8.1,3.8,16.6,11.5,23.3s19.1,8.4,28.4,7C132.2,141.8,138.1,138.5,144.9,136.2Z" fill="#69a0ba"/></g><g opacity="0.25" style="mix-blend-mode:multiply"><path d="M235.8,115c.2,6-.5,11.8-4.4,16.4s-9,2.7-14.2,1.6C225,128.9,234.4,123.8,235.8,115Z" fill="#69a0ba"/></g><g opacity="0.25" style="mix-blend-mode:multiply"><path d="M213,107.8a42.7,42.7,0,0,1-2.4,12.8c-3,7.5-12.4,9.4-20.6,8.7,5.4-4.3,10.6-8.8,16.2-13.2A18.5,18.5,0,0,0,213,107.8Z" fill="#69a0ba"/></g><g opacity="0.25" style="mix-blend-mode:multiply"><path d="M137.4,126.4c-10.2-6.7-8.5-18.8-6.3-28-5.8,4.6-9.4,11.3-6.5,18.8C126.3,121.9,131.8,127.3,137.4,126.4Z" fill="#69a0ba"/></g><g opacity="0.25" style="mix-blend-mode:multiply"><path d="M92.9,100a33.4,33.4,0,0,1,4.8-4.4c-3.2,10-1.6,23.2,10.6,28.6-5.9-1.1-12.1-2.1-16.2-7.3S88.9,104.1,92.9,100Z" fill="#69a0ba"/></g><g opacity="0.25" style="mix-blend-mode:multiply"><path d="M123.7,126c-12.5-6.2-12.9-19.7-12.1-30.9a19,19,0,0,0-5.3,17.4C108,119.5,115.7,127.7,123.7,126Z" fill="#69a0ba"/></g><g opacity="0.25" style="mix-blend-mode:multiply"><path d="M157.4,101.8c-3.1,9.5-4.4,20.8,2.6,30.3-5.1-2.5-8.6-6.5-9.6-11.4C148.8,113.4,152.5,107,157.4,101.8Z" fill="#69a0ba"/></g><g opacity="0.25" style="mix-blend-mode:multiply"><path d="M175.4,101c3.3,11.2,4.5,23.7-5.3,30.9C168.4,120.9,169.6,110,175.4,101Z" fill="#69a0ba"/></g><g opacity="0.25" style="mix-blend-mode:multiply"><path d="M244.9,128.8a52.4,52.4,0,0,0,2.1-10.9,25.5,25.5,0,0,1,1.1,13.6c-1.4,5-5.7,9.2-11.8,8.5C237.4,135.1,243.5,133.8,244.9,128.8Z" fill="#69a0ba"/></g><path d="M212.7,165.4c-.3,4,3.3,7.6,8.2,8s9.1-2.6,9.4-6.7-3.4-7.5-8.3-7.9-9,2.6-9.3,6.6" fill="#efdc3c"/><path d="M203.8,164.1c-2.2,3.4-.6,8.3,3.5,10.9s9.2,2,11.4-1.4.6-8.3-3.6-10.9-9.2-2-11.3,1.4" fill="#efdc3c"/><path d="M214.7,173c-1.3,3.8,1.3,8.2,5.9,9.8s9.4-.1,10.8-3.9-1.3-8.2-5.9-9.9-9.5.2-10.8,4" fill="#efdc3c"/><path d="M204.1,163.2c3.2,2.5,8.2,1.3,11.2-2.5s2.8-9.1-.4-11.5-8.3-1.3-11.2,2.6-2.8,9,.4,11.4" fill="#eebc2a"/><path d="M191.8,154.2c-2.2,3.4-.6,8.3,3.5,10.9s9.2,2,11.4-1.4.6-8.3-3.5-10.9-9.2-2-11.4,1.4" fill="#eebc2a"/><path d="M202.7,163.2c-1.3,3.8,1.3,8.2,5.9,9.8s9.4-.2,10.8-4-1.3-8.2-5.9-9.8-9.4.2-10.8,4" fill="#eebc2a"/><path d="M221.5,168.8a6.7,6.7,0,0,1-1.6,4.2l-.3.3-.2.2-.3.3-.3.2-.3.2-.3.2a5.4,5.4,0,0,1-2,1h-1.5c-7.3,1-11.4-6-13.6-11.7-.3-.8-.7-1.7-1-2.6s-.1-.4-.2-.5c-.8-1.9-1.6-3.8-3.2-5.1l-.2-.2a6.4,6.4,0,0,0-6.1-1h-.6l-.3-.5a10.1,10.1,0,0,1-.7-1.5c-.1-.1-.1-.2-.2-.4h.4a9.3,9.3,0,0,1,8.6.8c3,2.1,4.3,5.3,5.6,8.5s4.1,11.1,9.7,12c3.3.4,7.2-1.6,7.2-5.4s-4.9-4.9-7.2-4.7a9.6,9.6,0,0,0-5.9,1.9l-.6.5h-.8l.3-.2a14.8,14.8,0,0,1,2.7-1.6c4.7-2.1,12.5-.7,12.9,5.7" fill="#008742"/><path d="M197.4,163.4l-1.6-.3A17.7,17.7,0,0,1,183,146.7l2.6-.3a18.5,18.5,0,0,0,11.8,17" fill="#7db82e"/><path d="M201.5,167.4h.7l-.5.3h-.4l-.4.2h-.4l-.5.2h-1.8a16.2,16.2,0,0,1-5.8.2h-1.9l-.5-.2-.5-.2a9.2,9.2,0,0,1-6.1-7.8v-2.8a1.1,1.1,0,0,1,.1-.5,4.3,4.3,0,0,0,.1-.5v-.2l.3-.7h.1l1.8,2.5v2.8c1.2,5.4,7.7,6.7,12.4,6.2h1.3l.4-.2,1.2-.3" fill="#7db82e"/><path d="M258.1,242.9a3.5,3.5,0,0,1-.4,1.7,3.7,3.7,0,0,1-5,1.8h0c-1.8,3.6-4.8,6.5-8.9,6.9h-.7c-3.5.1-7.5-1.7-12.1-6.4a8.1,8.1,0,0,1-1.7-2.4,5.9,5.9,0,0,1-.4-.8c-2.9-6.4.4-14.4,7.1-11.2a11.3,11.3,0,0,0,3.3.8,3.9,3.9,0,0,1,.3-2.1,3.8,3.8,0,0,1,5-1.8,3.7,3.7,0,0,1,2,2.1,4.8,4.8,0,0,1,5.3.9,3.2,3.2,0,0,1,2.1.4,3.7,3.7,0,0,1,2.2,3.4l1.1.4a3.7,3.7,0,0,1,1.8,5A3.2,3.2,0,0,1,258.1,242.9Z" fill="#b8cb56"/><path d="M244.8,254h.6a13.2,13.2,0,0,1,.2-3.4c0-.3.1-.5.1-.8a23.8,23.8,0,0,1,1.1-4.2h0l.3-.8c.6-1.7,1.3-3.3,2-4.8a2.5,2.5,0,0,1,.4-.7,59.6,59.6,0,0,1,3-5.3.4.4,0,1,0-.6-.4s-1,1.4-2.2,3.5h0l-.3.7-.8,1.5h0l-.2.3c-.2.6-.5,1.2-.8,1.9l-.3.7h0a17.5,17.5,0,0,0-1.2,3.2c-.3.8-.5,1.5-.7,2.2a2.9,2.9,0,0,1-.2.9h0a30.3,30.3,0,0,0-.6,4.2h0V254Z" fill="#e5f0d6"/><path d="M244.8,238.5a9.4,9.4,0,0,1-.8-3.1.4.4,0,0,1,.4-.4.4.4,0,0,1,.4.4,8.8,8.8,0,0,0,3.2,6.1c.1.1.2.4,0,.5s-.3.2-.5.1A10.9,10.9,0,0,1,244.8,238.5Z" fill="#e5f0d6"/><path d="M248.2,235.9a7.5,7.5,0,0,1-.4-1.6.4.4,0,0,1,.4-.4.4.4,0,0,1,.4.4,4.3,4.3,0,0,0,1.5,2.8c.1.2.2.4,0,.6a.3.3,0,0,1-.5,0A4.3,4.3,0,0,1,248.2,235.9Z" fill="#e5f0d6"/><path d="M242.6,244.6a7.5,7.5,0,0,1-.8-3.1c0-.2.1-.4.3-.4a.4.4,0,0,1,.4.4,9.7,9.7,0,0,0,3.2,6.1.3.3,0,0,1,.1.5.5.5,0,0,1-.6.1A11.4,11.4,0,0,1,242.6,244.6Z" fill="#e5f0d6"/><path d="M240.5,248.8c-.2-.4-.3-.9-.5-1.3a.5.5,0,0,1,.3-.5c.2-.1.4.1.5.3.9,3.6,4.3,5.3,4.3,5.4a.4.4,0,0,1,.2.5c-.1.2-.3.2-.5.1A9.6,9.6,0,0,1,240.5,248.8Z" fill="#e5f0d6"/><path d="M246.2,245.1h0a.4.4,0,0,1,.4-.4,9.4,9.4,0,0,0,6-3.4.3.3,0,0,1,.5-.1c.2.1.2.4.1.6a9.9,9.9,0,0,1-6.6,3.6C246.5,245.4,246.3,245.3,246.2,245.1Z" fill="#e5f0d6"/><path d="M248.5,239.5a.4.4,0,0,1-.1-.3.5.5,0,0,1,.5-.3h0a4.4,4.4,0,0,0,3.2-.6c.1-.2.4-.1.5,0a.5.5,0,0,1-.1.6,5.4,5.4,0,0,1-3.8.8Z" fill="#e5f0d6"/><path d="M245.1,250.2h0c-.1-.2.1-.4.3-.5a9.3,9.3,0,0,0,6-3.3.5.5,0,0,1,.6-.1c.1.1.2.4,0,.5a9.8,9.8,0,0,1-6.5,3.7Z" fill="#e5f0d6"/><path d="M245.1,253.9h0Z" fill="#e5f0d6"/><path d="M281.1,244.8a3.2,3.2,0,0,1-.3,1.4,3.3,3.3,0,0,1-4.3,1.6h0c-1.5,3-4.1,5.5-7.5,5.8h-.6c-2.9.1-6.4-1.4-10.2-5.4a9.5,9.5,0,0,1-1.5-2l-.3-.7c-2.4-5.4.3-12.1,6-9.5a6.1,6.1,0,0,0,2.8.7,2.5,2.5,0,0,1,.3-1.7,3.2,3.2,0,0,1,4.2-1.6,3.1,3.1,0,0,1,1.6,1.8,4,4,0,0,1,4.5.8,3.2,3.2,0,0,1,3.6,3.2,1.7,1.7,0,0,1,1,.3,3.1,3.1,0,0,1,1.5,4.2A3.1,3.1,0,0,1,281.1,244.8Z" fill="#b8cb56"/><path d="M269.8,254.2h.5c0-1,.1-1.9.2-3s.1-.4.1-.6a27,27,0,0,1,.9-3.6h0l.3-.7a38.9,38.9,0,0,1,1.7-4.1l.3-.6a24.9,24.9,0,0,1,2.6-4.4.4.4,0,1,0-.6-.4s-.8,1.2-1.8,3h0l-.3.6-.6,1.2h0l-.2.3-.7,1.5-.3.7h0l-1,2.7a13.3,13.3,0,0,0-.5,1.9,6.4,6.4,0,0,0-.2.7h0a22.7,22.7,0,0,0-.5,3.5h0v1.4Z" fill="#e5f0d6"/><path d="M269.9,241.1a6.6,6.6,0,0,1-.7-2.6c0-.2.1-.3.3-.4a.3.3,0,0,1,.3.3,7.9,7.9,0,0,0,2.7,5.2c.2.1.2.3.1.5h-.5A7.1,7.1,0,0,1,269.9,241.1Z" fill="#e5f0d6"/><path d="M272.7,238.9a5,5,0,0,1-.3-1.3c0-.2.1-.4.3-.4a.3.3,0,0,1,.3.3,4.3,4.3,0,0,0,1.3,2.5c.1.1.2.3,0,.4s-.3.2-.4.1A5.3,5.3,0,0,1,272.7,238.9Z" fill="#e5f0d6"/><path d="M268,246.3a6,6,0,0,1-.7-2.7.3.3,0,0,1,.3-.3.3.3,0,0,1,.3.3,7.9,7.9,0,0,0,2.7,5.2c.1.1.2.3.1.4s-.4.2-.5.1A9.2,9.2,0,0,1,268,246.3Z" fill="#e5f0d6"/><path d="M266.2,249.8c-.1-.4-.3-.7-.4-1.1s.1-.4.2-.4.4,0,.4.2a8.8,8.8,0,0,0,3.7,4.6c.2,0,.2.2.1.4s-.2.2-.4.1A8.2,8.2,0,0,1,266.2,249.8Z" fill="#e5f0d6"/><path d="M271.1,246.7H271c0-.2.1-.3.3-.4a7.7,7.7,0,0,0,5.1-2.8c.1-.2.3-.2.5-.1a.4.4,0,0,1,0,.5,8.5,8.5,0,0,1-5.5,3.1C271.2,246.9,271.1,246.8,271.1,246.7Z" fill="#e5f0d6"/><path d="M272.9,241.9v-.2c.1-.1.2-.3.4-.2h0a3.7,3.7,0,0,0,2.7-.6.2.2,0,0,1,.4.1.3.3,0,0,1,0,.4,4.2,4.2,0,0,1-3.2.7Z" fill="#e5f0d6"/><path d="M270.1,251h0a.3.3,0,0,1,.2-.4,7.6,7.6,0,0,0,5.1-2.8c.2-.2.4-.2.5-.1s.2.3.1.4a9,9,0,0,1-5.6,3.2Z" fill="#e5f0d6"/><path d="M270.1,254.1h0Z" fill="#e5f0d6"/><path d="M268.7,240.9a1.9,1.9,0,0,1-.1.8,1.8,1.8,0,0,1-2.5.9h0a5.7,5.7,0,0,1-4.4,3.4h-.4c-1.7.1-3.7-.8-5.9-3.1a4.7,4.7,0,0,1-.9-1.2l-.2-.4c-1.4-3.2.2-7.1,3.5-5.6a5.8,5.8,0,0,0,1.6.5,2.2,2.2,0,0,1,.2-1.1,1.9,1.9,0,0,1,2.5-.9,1.7,1.7,0,0,1,.9,1.1,2.5,2.5,0,0,1,2.7.4,1.8,1.8,0,0,1,1,.2,1.8,1.8,0,0,1,1.1,1.7l.5.2a1.7,1.7,0,0,1,.9,2.4A1.8,1.8,0,0,1,268.7,240.9Z" fill="#534741"/><path d="M262.1,246.4h.3c0-.5.1-1.1.1-1.7a.6.6,0,0,0,.1-.4,16,16,0,0,1,.5-2.1h.1a.6.6,0,0,1,.1-.4,13.3,13.3,0,0,1,1-2.4c0-.1.1-.2.2-.3a12.7,12.7,0,0,1,1.5-2.6.4.4,0,0,0-.1-.3h-.2a11.5,11.5,0,0,0-1.1,1.7h0l-.2.3a3,3,0,0,1-.4.8h0l-.5.9c0,.2-.1.3-.1.4h0l-.6,1.6-.3,1.1a.6.6,0,0,0-.1.4h0a7.6,7.6,0,0,0-.3,2.1h0v.8Z" fill="#e5f0d6"/><path d="M262.2,238.7a3.3,3.3,0,0,1-.4-1.5c0-.1,0-.2.2-.2s.1.1.2.2a4.7,4.7,0,0,0,1.5,3,.4.4,0,0,1,.1.3h-.3A4.5,4.5,0,0,1,262.2,238.7Z" fill="#e5f0d6"/><path d="M263.9,237.4c-.2-.2-.2-.5-.3-.8l.2-.2.2.2a3,3,0,0,0,.8,1.5.1.1,0,0,1,0,.2h-.3A2,2,0,0,1,263.9,237.4Z" fill="#e5f0d6"/><path d="M261.1,241.8a4.2,4.2,0,0,1-.4-1.6c0-.1,0-.2.1-.2l.2.2a5.1,5.1,0,0,0,1.6,3,.2.2,0,0,1,0,.3h-.2A3.7,3.7,0,0,1,261.1,241.8Z" fill="#e5f0d6"/><path d="M260,243.8a1.4,1.4,0,0,0-.2-.6.4.4,0,0,1,.1-.3l.3.2a4.9,4.9,0,0,0,2.1,2.6.4.4,0,0,1,.1.3h-.3A6.7,6.7,0,0,1,260,243.8Z" fill="#e5f0d6"/><path d="M262.9,242h0c-.1-.1,0-.2.1-.2a4.6,4.6,0,0,0,3-1.6h.3a.2.2,0,0,1,0,.3,5,5,0,0,1-3.2,1.8Z" fill="#e5f0d6"/><path d="M264,239.2h0l.2-.2h0a2.2,2.2,0,0,0,1.6-.3h.2a.2.2,0,0,1,0,.3,2.7,2.7,0,0,1-1.9.4C264,239.3,264,239.3,264,239.2Z" fill="#e5f0d6"/><path d="M262.3,244.5h0a.2.2,0,0,1,.2-.2,4.7,4.7,0,0,0,2.9-1.6h.3a.2.2,0,0,1,0,.3,4.8,4.8,0,0,1-3.2,1.8Z" fill="#e5f0d6"/><path d="M262.3,246.3h0Z" fill="#e5f0d6"/><path d="M213.4,253.3c.1,1.4,18.3,2.4,40.9,2.3s40.8-1.3,40.8-2.7-18.3-2.4-40.8-2.3S213.4,251.9,213.4,253.3Z" fill="#b4b5b5"/><path d="M220.2,252.9c0,1.2,15.3,2.1,34.1,2s34.1-1.1,34.1-2.3-15.3-2-34.1-1.9S220.2,251.8,220.2,252.9Z" fill="#ececed"/><g id="fde36b38-012f-432d-8bd1-b1d505038dc7" data-name="tomato"><path d="M231.6,248.7a3.2,3.2,0,0,1-3.2,3.2,2.8,2.8,0,0,1-1.8-.6h0a3.1,3.1,0,0,1-1.4-2.6,3.3,3.3,0,0,1,1.2-2.4,3.2,3.2,0,0,1,2-.7,2.4,2.4,0,0,1,1.5.4h.3A3.4,3.4,0,0,1,231.6,248.7Z" fill="#e04236"/><path d="M228.9,245.9a5.8,5.8,0,0,1,.8,1.4,2.3,2.3,0,0,1-1.3-1.7h-.1a6.5,6.5,0,0,1-1.1,1.9,4.9,4.9,0,0,1,.5-1.7l-1.3.5a3.2,3.2,0,0,1,2-.7,2.4,2.4,0,0,1,1.5.4h.1A1.7,1.7,0,0,1,228.9,245.9Z" fill="#3dab4a"/><path d="M231.6,248.7a3.2,3.2,0,0,1-3.2,3.2,2.8,2.8,0,0,1-1.8-.6h0c5.8-2.3,3.6-5.1,3.6-5.2A3.4,3.4,0,0,1,231.6,248.7Z" fill="#aa3228" opacity="0.24"/><path d="M226,247.3a2.3,2.3,0,0,0,0,2.7C225.9,247.8,225.5,249.8,226,247.3Z" fill="#e98881"/></g><path d="M280.9,252.8a4.8,4.8,0,0,0,2.3-4.1c0-5.2-6.9-6.1-10.7-6.2a111.6,111.6,0,0,1-33.5-4.6c-7.6-2.5-10.4,4.4-10.7,10.8a14.5,14.5,0,0,0,.6,4.1Z" fill="#be966a"/><path d="M237.1,252.8h-3c-.1-4.9,1.4-10.8,2.9-15.4l1.6.4A35.2,35.2,0,0,0,237.1,252.8Z" fill="#a47a4f"/><path d="M252.1,241a28.6,28.6,0,0,0-3,11.8h-2.3a87.2,87.2,0,0,1,3.4-12.2Z" fill="#a47a4f"/><path d="M264.1,252.8h-2.3a72.1,72.1,0,0,1,.3-10.6h1.7A28.3,28.3,0,0,0,264.1,252.8Z" fill="#a47a4f"/><path d="M277.8,252.8h-2a73.4,73.4,0,0,1,.5-9.9l1.8.4A27.7,27.7,0,0,0,277.8,252.8Z" fill="#a47a4f"/><path d="M282.6,246.4c-.8-.1-1.7-.3-2.4.8s-1.4.9-4.9,2.3-5.2-2.6-8.9-2.9-3.4.8-6.6,2.4-6.6-5.2-11.3-.2-.5-7.3-3.9-1.6,2-2.8-4.7-1.1c-4.8,1.3-7-4.2-7.9-7.3,1.7-1.4,4-1.9,7-.9a111.6,111.6,0,0,0,33.5,4.6C275.7,242.6,280.9,243.2,282.6,246.4Z" fill="#cbaa86" opacity="0.58"/><path d="M282.3,245.9l-4.2,1.2h-.9l-1.2.2h0a37,37,0,0,1-5.7.7h-.6a49.9,49.9,0,0,1-8.7-.3h-.9a51.3,51.3,0,0,1-6.6-1.3h0l-.9-.2h0l-2.6-.7-1.6-.6a52.5,52.5,0,0,1-7.1-2.8l-.5-.2h0c-2.4-1.1-4.5-2.2-6.3-3.2h0l-.4-.3h0l-.9-.5a6.9,6.9,0,0,1,4.1-.5l1.7.4h.3l.6.2h0a107.3,107.3,0,0,0,12.2,2.8h1.8l1.3.2h0c2.9.4,5.8.7,8.8.9h.6c2.7.2,5.3.2,7.9.2h1.6C277,242.8,280.7,243.6,282.3,245.9Z" fill="#a47a4f"/><path d="M239.9,238.2h-1.2a29.8,29.8,0,0,1-4.2.4h0l-.4-.3a20.8,20.8,0,0,0,4.3-.3l.8-.2h.1Z" fill="#584942"/><path d="M255.2,241.4h-2.5l-7.6.4h-.9l-2.9.2-.5-.2,3.1-.2h.9l7.7-.4h1.4Z" fill="#584942"/><path d="M277.2,247.3l-1.2.2h0c-2-.1-4.1-.4-6.2-.7s-5.3-.3-8-.4h-8.3l-.9-.2,5.5-.2h3.3a74.9,74.9,0,0,1,8.2.3,59.8,59.8,0,0,0,7.4.8Z" fill="#584942"/><path d="M250,245.6l-1.6-.6-4.2-3h0l-.3-.2h0l-5.2-3.4-.3-.2-1.1-.7,1.7.4h.2l.4.3,5.2,3.4h0l.3.2h0Z" fill="#584942"/><path d="M261,247.9h-.9l-1.7-1.4-.3-.3-5.4-4.6-.2-.2-.4-.3h.9l.2.2a.2.2,0,0,1,.2.2l5.4,4.6h0l.4.3Z" fill="#584942"/><path d="M270.3,248.2h-.6c-2-1.9-3.8-3.9-5.7-5.9h.6C266.5,244.3,268.3,246.3,270.3,248.2Z" fill="#584942"/><path d="M278.1,247.1h-.5l-2.4-2.5-1.7-2.1h.6a22,22,0,0,0,2.4,2.8Z" fill="#584942"/><path d="M264.6,243.8l-.9-1-.7-1.2c-.1-.4-.3-.8-.4-1.2a3.2,3.2,0,0,1,.2-1.4,2.1,2.1,0,0,0,.3,1.2,6.1,6.1,0,0,0,.5,1.2C263.9,242.2,264.3,242.9,264.6,243.8Z" fill="#066c38"/><path d="M264.1,243.8l-1.2.3-1.2.6-1,.9a2.2,2.2,0,0,0-.6,1.3,2.8,2.8,0,0,1,.9-1l1-.7Z" fill="#108d42"/><path d="M260.8,243.2l-1,.2-.9.4-.8.7a1.5,1.5,0,0,0-.4.9c.1-.3.4-.5.6-.7l.8-.5A9.5,9.5,0,0,0,260.8,243.2Z" fill="#066c38"/><path d="M258.2,242.6l-.7.2-.6.3-.5.5a.7.7,0,0,0-.3.6c.1-.2.3-.3.5-.5l.5-.3Z" fill="#066c38"/><path d="M254.5,241.1l-.6.2-.7.3-.5.4a1.5,1.5,0,0,0-.3.7l.5-.5.5-.4A4.1,4.1,0,0,0,254.5,241.1Z" fill="#066c38"/><path d="M251.2,239.4l-.7.2-.6.3-.5.4a.9.9,0,0,0-.3.7l.4-.5.6-.4Z" fill="#066c38"/><path d="M262.1,243.4a2.7,2.7,0,0,1-.7-.8l-.6-1a3.6,3.6,0,0,1-.4-1.1,2,2,0,0,1,.2-1.1,3,3,0,0,0,.2,1l.4,1A17.6,17.6,0,0,1,262.1,243.4Z" fill="#066c38"/><path d="M259.9,242.9a2.2,2.2,0,0,1-.9-.7,3,3,0,0,1-.8-.8l-.5-1a2.5,2.5,0,0,1-.1-1.2,3,3,0,0,0,.4,1l.6.9Z" fill="#066c38"/><path d="M256.5,241.9l-.8-.8-.6-1a4.5,4.5,0,0,1-.3-1.1,1.4,1.4,0,0,1,.1-1.1,3.6,3.6,0,0,0,.2,1c.2.3.3.7.5,1Z" fill="#066c38"/><path d="M253.1,240.4l-.6-.7a3.5,3.5,0,0,1-.5-.8,1.6,1.6,0,0,1-.3-.9,1.2,1.2,0,0,1,.1-1,2.9,2.9,0,0,0,.2.9l.3.8A13,13,0,0,1,253.1,240.4Z" fill="#066c38"/><path d="M250.1,238.7l-.4-.5a2.1,2.1,0,0,1-.4-.6,1.9,1.9,0,0,1-.2-.7.6.6,0,0,1,.1-.7,1.3,1.3,0,0,0,.1.6l.3.7A6.1,6.1,0,0,1,250.1,238.7Z" fill="#108d42"/><path d="M262.8,243.8s-1.1-2.2-.7-2.8A22.6,22.6,0,0,1,262.8,243.8Z" fill="#108d42"/><path d="M261.9,243.3s-1.4,2.1-2.2,1.9S261.2,243.8,261.9,243.3Z" fill="#108d42"/><path d="M256.1,241.7s-1,1.5-1.6,1.4S255.6,242,256.1,241.7Z" fill="#108d42"/><path d="M253,240s-1,1.5-1.6,1.4Z" fill="#108d42"/><path d="M249.9,238.6s-1.7.5-2.1.1A12.8,12.8,0,0,1,249.9,238.6Z" fill="#108d42"/><path d="M257.6,242.4s-1.2-2.2-.7-2.8Z" fill="#108d42"/><path d="M254.3,241.3s-1.2-2.2-.7-2.8A22.6,22.6,0,0,1,254.3,241.3Z" fill="#108d42"/><path d="M251,239.2s-.8-1.6-.5-2.1S250.9,238.6,251,239.2Z" fill="#108d42"/><path d="M247.8,237.1a34.1,34.1,0,0,0,5.5,3.2,41.9,41.9,0,0,0,5.9,2.2,40.9,40.9,0,0,0,6.1,1l3.1.2,3.2-.2h0a19.1,19.1,0,0,1-6.3.7A22.1,22.1,0,0,1,259,243a33.2,33.2,0,0,1-5.9-2.4,43.2,43.2,0,0,1-5.3-3.4Z" fill="#066c38"/><g id="ef5268df-4c37-4a78-a45a-2ac64b3bc886" data-name="tomato"><path d="M285.8,250.2a3.1,3.1,0,0,1-3.2,3.1,3.7,3.7,0,0,1-1.8-.5h0a3.2,3.2,0,0,1-1.3-2.6,3.3,3.3,0,0,1,1.1-2.5,3.7,3.7,0,0,1,2-.7,4.2,4.2,0,0,1,1.6.4l.2.2h0A3.1,3.1,0,0,1,285.8,250.2Z" fill="#e04236"/><path d="M283.1,247.3a6.4,6.4,0,0,1,.8,1.4,2,2,0,0,1-1.3-1.7h0a7.7,7.7,0,0,1-1.1,1.9,3.1,3.1,0,0,1,.4-1.6,4,4,0,0,1-1.3.4,3.7,3.7,0,0,1,2-.7,4.2,4.2,0,0,1,1.6.4h0C284.1,247.6,283.6,247.5,283.1,247.3Z" fill="#3dab4a"/><path d="M285.8,250.2a3.1,3.1,0,0,1-3.2,3.1,3.7,3.7,0,0,1-1.8-.5h0c5.8-2.4,3.6-5.2,3.6-5.2A3.1,3.1,0,0,1,285.8,250.2Z" fill="#aa3228" opacity="0.24"/><path d="M280.2,248.8a2.1,2.1,0,0,0,0,2.6C280.1,249.3,279.8,251.2,280.2,248.8Z" fill="#e98881"/></g><g id="fb8124f0-37d0-46a7-88fe-103c493d6937" data-name="lemon cut"><g opacity="0.24"><path d="M235.2,247.9a.8.8,0,0,1-.8.8.8.8,0,0,1-.9-.8.6.6,0,0,1,.1-.4,1,1,0,0,1,.8-.4,1,1,0,0,1,.7.4A.6.6,0,0,1,235.2,247.9Z" fill="#95795b"/><path d="M235.1,247.5a.8.8,0,0,1-.7.4.8.8,0,0,1-.8-.4,1,1,0,0,1,.8-.4A1,1,0,0,1,235.1,247.5Z" fill="#95795b"/><path d="M230.1,245.6a17,17,0,0,1-1.1,2.3,9,9,0,0,1,.6-2.6c.2-.5,1.2-1.6,1.4-1.4S230.4,245.2,230.1,245.6Z" fill="#95795b" opacity="0.42"/><path d="M230.4,253a6.4,6.4,0,0,1,2.6-11.4C232.5,241.8,224.4,245.1,230.4,253Z" fill="#95795b"/></g><path d="M239.9,247a6.7,6.7,0,0,1-6.7,6.7,6.6,6.6,0,0,1-4.1-1.4l-.9-.9a6.6,6.6,0,0,1,3.7-10.9h1.3a7.3,7.3,0,0,1,3.3.8h0l1.2.9A6.4,6.4,0,0,1,239.9,247Z" fill="#e9bd18"/><path d="M239.6,247a6.3,6.3,0,0,1-6.4,6.4,6.4,6.4,0,0,1-6.4-6.4,6.4,6.4,0,0,1,5.1-6.3h1.3a6.6,6.6,0,0,1,3.2.8h0A6.5,6.5,0,0,1,239.6,247Z" fill="#f4e097"/><path d="M239.3,247a6,6,0,0,1-5.9,6.1h-.3a5.7,5.7,0,0,1-3.6-1.3,5.8,5.8,0,0,1-2.4-4.8,6.2,6.2,0,0,1,4.9-6h1.4a5.4,5.4,0,0,1,2.8.8h0A6,6,0,0,1,239.3,247Z" fill="#ebc83b"/><path d="M233.4,240.9v12.2h-.3V240.9h.3Z" fill="#f4e097"/><path d="M228,243.8l10.6,6.1v.2h-.1l-10.5-6.1h0Z" fill="#f4e097"/><path d="M227.9,249.9l10.5-6.1v.2h.1L228,250.2h-.1Z" fill="#f4e097"/><path d="M239.9,247a6.7,6.7,0,0,1-6.7,6.7,6.6,6.6,0,0,1-4.1-1.4l-.9-.9h.8a12.1,12.1,0,0,0,4.1-.5h.3a6.4,6.4,0,0,0,2.7-2l.2-.3a7.7,7.7,0,0,0,1.4-4v-.4a5.3,5.3,0,0,0,.1-1.2v-.5a.8.8,0,0,1-.1-.4A6.4,6.4,0,0,1,239.9,247Z" fill="#b2972a" opacity="0.24"/></g><path d="M284.4,247.9h0c-.1,0-.2-.3-.2-.3l-1.3-.5-.3-.7h0l-.2-.2c0-.1,0-.2-.1-.2h0l-.2-.3H282l-.3-.3-.2-.2h-.1a.2.2,0,0,1-.2-.2,2.6,2.6,0,0,0,.7-1,3.1,3.1,0,0,0-1.5-4.2,1.7,1.7,0,0,0-1-.3,3.2,3.2,0,0,0-3.6-3.2,4,4,0,0,0-4.5-.8,3.1,3.1,0,0,0-1.6-1.8,3.2,3.2,0,0,0-4.2,1.6,2.5,2.5,0,0,0-.3,1.7,6.1,6.1,0,0,1-2.8-.7c-2.2-1-4-.6-5.2.6l-1-.4a3.7,3.7,0,0,0-2.2-3.4,3.2,3.2,0,0,0-2.1-.4,4.8,4.8,0,0,0-5.3-.9,3.7,3.7,0,0,0-2-2.1,3.8,3.8,0,0,0-5,1.8,3.9,3.9,0,0,0-.3,2.1,11.3,11.3,0,0,1-3.3-.8c-6.3-3-9.5,3.8-7.6,9.9a6.4,6.4,0,0,0-1.9,4.6,6.7,6.7,0,0,0,1.7,4.4l.4.5c.1.3.2,1,.3,1h1c1,1,2.1.9,3.3.9s2.4.1,3.4-.9h3.1c1.2,0,2.6.5,3.7.5h1.3a1.5,1.5,0,0,0-.1.7h1.2c0-.2-.2-.5-.2-.8h18.9a5.4,5.4,0,0,0,4,.7h1.2v.6h1.1c0-.3-.2-.5-.2-.7s.7-.5,1.2-.5h9c.6,0,1.2.5,1.8.5a3.1,3.1,0,0,0,3.2-3C285.8,249.3,285.2,247.9,284.4,247.9Z" opacity="0.52" fill="url(#affdc2d2-0885-44cc-95b4-e6b64f54dd42)"/><path d="M239.2,245.8a2.9,2.9,0,0,1-.2.9,2,2,0,0,1-2.6.9h0a5.8,5.8,0,0,1-4.5,3.5h-.4c-1.7.1-3.8-.8-6.1-3.2l-.9-1.2-.2-.5c-1.4-3.2.2-7.3,3.6-5.7a6.4,6.4,0,0,0,1.7.5,2.2,2.2,0,0,1,.2-1.1,1.9,1.9,0,0,1,2.5-.9,1.9,1.9,0,0,1,1,1,2.5,2.5,0,0,1,2.7.5,2.2,2.2,0,0,1,1.1.2,1.9,1.9,0,0,1,1.1,1.8h.6a2.1,2.1,0,0,1,.9,2.6A1.5,1.5,0,0,1,239.2,245.8Z" fill="#534741"/><path d="M232.4,251.5h.3a11.5,11.5,0,0,1,.1-1.8c0-.1.1-.2.1-.4a20.9,20.9,0,0,1,.5-2.1h0l.2-.4a18.6,18.6,0,0,1,1-2.5l.2-.3c.8-1.6,1.5-2.7,1.5-2.7a.2.2,0,0,0,0-.3H236a19.3,19.3,0,0,0-1.1,1.8h0l-.2.3-.3.8h-.1a9.3,9.3,0,0,0-.5,1c0,.1-.1.2-.1.3h0a11.5,11.5,0,0,0-.6,1.7,4.9,4.9,0,0,0-.4,1.1.6.6,0,0,1-.1.4h0l-.3,2.2h0v.8Z" fill="#e5f0d6"/><path d="M232.4,243.6a6.2,6.2,0,0,1-.4-1.6l.2-.2a.2.2,0,0,1,.2.2,4.7,4.7,0,0,0,1.6,3.1.4.4,0,0,1,.1.3h-.3A4.3,4.3,0,0,1,232.4,243.6Z" fill="#e5f0d6"/><path d="M234.2,242.3c-.2-.2-.2-.5-.3-.8l.2-.2h.2a2.6,2.6,0,0,0,.8,1.5.2.2,0,0,1,0,.3c0,.1-.2.1-.2,0A1.4,1.4,0,0,1,234.2,242.3Z" fill="#e5f0d6"/><path d="M231.3,246.7a3.8,3.8,0,0,1-.4-1.6c0-.1,0-.2.2-.2l.2.2a4.7,4.7,0,0,0,1.6,3.1.2.2,0,0,1,0,.3h-.3A5.8,5.8,0,0,1,231.3,246.7Z" fill="#e5f0d6"/><path d="M230.2,248.8l-.2-.6a.4.4,0,0,1,.1-.3l.3.2a4.8,4.8,0,0,0,2.2,2.7.4.4,0,0,1,.1.3h-.3A4.5,4.5,0,0,1,230.2,248.8Z" fill="#e5f0d6"/><path d="M233.2,247h-.1a.2.2,0,0,1,.2-.2,5,5,0,0,0,3.1-1.7h.2c.1.1.2.2.1.3a5.1,5.1,0,0,1-3.4,1.9Z" fill="#e5f0d6"/><path d="M234.3,244.1h0l.2-.2h0a2.2,2.2,0,0,0,1.6-.3h.3a.4.4,0,0,1-.1.3,2.7,2.7,0,0,1-1.9.4Z" fill="#e5f0d6"/><path d="M232.6,249.5h-.1l.2-.2a4.5,4.5,0,0,0,3.1-1.8h.3c0,.1.1.2,0,.3a6.2,6.2,0,0,1-3.3,1.9A.2.2,0,0,1,232.6,249.5Z" fill="#e5f0d6"/><path d="M232.6,251.4h0Z" fill="#e5f0d6"/><g id="aa4b87f5-bc01-422d-bba7-9d7156daa79e" data-name="smoke" opacity="0.32"><path d="M275.6,202.6s-20.7-12-31.8-13.2c-7.8-.9-10.7-.5-4.9,6.4s29.7,13.2,25.2,22.9c8.4-4.4-9.1-14.5-11.8-16.8C235.2,186.9,275.6,202.6,275.6,202.6Z" fill="#bbbcbc"/></g><g id="aaa87607-a028-470c-9d46-504c3bc18b2a" data-name="smoke" opacity="0.32"><path d="M264.9,216.9s-10.2-5.9-15.6-6.5-5.3-.2-2.5,3.2,14.7,6.5,12.5,11.3c4.1-2.2-4.5-7.2-5.8-8.3C245,209.2,264.9,216.9,264.9,216.9Z" fill="#bbbcbc"/></g><rect x="123.6" y="199.2" width="5.6" height="25.03" transform="translate(-112.7 151.3) rotate(-45)" fill="#4a3e37"/><rect x="123.6" y="199.2" width="5.6" height="25.03" transform="translate(186.7 -27.3) rotate(45)" fill="#4a3e37"/><rect x="182.3" y="199.2" width="5.6" height="25.03" transform="translate(-95.5 192.9) rotate(-45)" fill="#4a3e37"/><rect x="182.3" y="199.2" width="5.6" height="25.03" transform="translate(203.9 -68.9) rotate(45)" fill="#4a3e37"/><path d="M186.4,247.3c-1.4-4.4-4.6-7.2-8.3-7.2a7.8,7.8,0,0,0-4.1,1.2,12,12,0,0,0-2.3,2.2l-.9,1.1a6.7,6.7,0,0,1-2.5,1.6,5.6,5.6,0,0,1-6.3-2,8.8,8.8,0,0,0-7-4.1,7.8,7.8,0,0,0-5.4,2.5,6.3,6.3,0,0,0-1.1,1.2l-.8,1a6.7,6.7,0,0,1-2,1.2,5.1,5.1,0,0,1-2.9.5,6.1,6.1,0,0,1-3.5-1.9l-1-1a8.8,8.8,0,0,0-2.4-2.3,7.2,7.2,0,0,0-4-1.2c-3.6,0-6.8,2.7-8.2,7a1.6,1.6,0,0,0,.7,2,1.3,1.3,0,0,0,1.8-.4c1.7-2.2,4.6-4.1,7.5-3.1a9.4,9.4,0,0,1,3.6,3,8.7,8.7,0,0,0,5.2,3h.9a8.1,8.1,0,0,0,6.4-3.4l.3-.3a4.9,4.9,0,0,1,1.7-1.8,6.3,6.3,0,0,1,2.5-.9,4.3,4.3,0,0,1,2.9.5,4.2,4.2,0,0,1,1.4.9l1.5,1.5a12.9,12.9,0,0,0,1.6,1.7,7.2,7.2,0,0,0,10-.5l1.1-1.1,2.1-2a5.3,5.3,0,0,1,6.5.2,18.2,18.2,0,0,1,2.5,2.4,1.3,1.3,0,0,0,1.7.4A1.7,1.7,0,0,0,186.4,247.3Z" fill="#4a3e37"/></g></g></g></svg>