<svg xmlns="http://www.w3.org/2000/svg" xmlns:xlink="http://www.w3.org/1999/xlink" viewBox="0 0 389.3 346.6"><defs><clipPath id="e390cb29-0eda-4a3e-ab82-b4a10b8285a4"><path id="eb0565d5-022a-40e4-b54b-cf5f7d0b34be" data-name="SVGID" d="M84,191.2c-6.4,6.2-9.4,13.5-6.7,16.3s10.1-.1,16.5-6.3,9.4-13.6,6.7-16.3a2.4,2.4,0,0,0-1.6-.9c-3.4-.9-9.5,1.9-14.9,7.2" fill="none"/></clipPath><linearGradient id="a74502c8-b4f5-4fe6-9fec-1383c831e63b" x1="-3164.62" y1="-562.89" x2="-3164.17" y2="-562.89" gradientTransform="translate(213567.4 38186.8) scale(67.46)" gradientUnits="userSpaceOnUse"><stop offset="0" stop-color="#85b644"/><stop offset="0.08" stop-color="#8cba48"/><stop offset="0.42" stop-color="#a3c856"/><stop offset="0.73" stop-color="#b1d15e"/><stop offset="1" stop-color="#b6d461"/></linearGradient><clipPath id="a4d58c6b-0a2c-4797-a43d-3ccd904926c2"><path id="bb90bf13-7f01-4766-894a-01cf9dbd1de3" data-name="SVGID" d="M243,186.3c-2.2,3.1,2.1,9.8,9.6,14.8s15.2,6.4,17.3,3.2-2.1-9.9-9.6-14.8-14.2-6.3-16.8-3.8c-.2.2-.4.3-.5.6" fill="none"/></clipPath><linearGradient id="a01ad4bd-bed6-4c9b-b7dc-fd30d507862e" x1="-3185.87" y1="-616.52" x2="-3185.43" y2="-616.52" gradientTransform="translate(41861.7 -214748.2) rotate(-90) scale(67.47)" xlink:href="#a74502c8-b4f5-4fe6-9fec-1383c831e63b"/><clipPath id="f6828b0f-6011-4da3-a9a0-1ebe5e77da8e"><path id="aa316a8c-45d8-4de0-ab37-f1794668a5c3" data-name="SVGID" d="M198.2,233c-3.6,1.3-4,9.2-.9,17.6s8.6,14.2,12.2,12.8,4-9.2.9-17.6-7.9-13.4-11.5-13l-.7.2" fill="none"/></clipPath><linearGradient id="a36ec7e5-d9d7-4ccf-bcce-fad6a164aff0" x1="-3191.62" y1="-591.11" x2="-3191.18" y2="-591.11" gradientTransform="translate(40087.4 -215084.5) rotate(-90) scale(67.47)" xlink:href="#a74502c8-b4f5-4fe6-9fec-1383c831e63b"/><clipPath id="a270c300-aebf-44da-bedd-b440eb12dc3b"><path id="b5dee4bb-9ee1-4a30-89a7-4d8ee42876d5" data-name="SVGID" d="M118,240c-3.8,8.1-4,16-.5,17.7s9.4-3.7,13.2-11.9,3.9-16,.4-17.6a2.8,2.8,0,0,0-1.8-.3c-3.5.4-8.2,5.3-11.3,12.1" fill="none"/></clipPath><linearGradient id="bdff9a2e-1acf-4565-9076-af7b14c9c229" x1="-3180.33" y1="-569.88" x2="-3179.88" y2="-569.88" gradientTransform="translate(38580.3 -214295.9) rotate(-90) scale(67.46)" xlink:href="#a74502c8-b4f5-4fe6-9fec-1383c831e63b"/><clipPath id="f2744eb1-1559-479f-9097-59e931ae30eb"><path id="e19158b5-7103-4362-ac33-3e64355f16e8" data-name="SVGID" d="M96.9,126.1a86.8,86.8,0,1,0,66.4-44.8,86.8,86.8,0,0,0-66.4,44.8" fill="none"/></clipPath><linearGradient id="bb779fa8-952a-4c6e-87bc-87bbba61473b" x1="-3164.71" y1="-599.28" x2="-3164.26" y2="-599.28" gradientTransform="matrix(-392.5, 0, 0, -392.5, -1241896.63, -235057)" gradientUnits="userSpaceOnUse"><stop offset="0" stop-color="#b6d461"/><stop offset="1" stop-color="#b6d461"/><stop offset="1" stop-color="#85b644"/></linearGradient><clipPath id="ee756a26-8287-4153-a143-e17a373c0aa6"><path id="e2801957-025c-4096-a9de-9145baa35b40" data-name="SVGID" d="M116.9,106.2a83.4,83.4,0,1,0,46.7-21.3,83.5,83.5,0,0,0-46.7,21.3" fill="none"/></clipPath><linearGradient id="a6ef5a45-8690-47df-8416-c41f59618043" x1="-3167.17" y1="-595.85" x2="-3166.72" y2="-595.85" gradientTransform="matrix(0, -376.45, 376.45, 0, 224475.48, -1192023.81)" xlink:href="#a74502c8-b4f5-4fe6-9fec-1383c831e63b"/><linearGradient id="bc905e32-99ef-4040-af06-1b4d6f7abd55" x1="173.21" y1="251.18" x2="173.21" y2="84.36" gradientUnits="userSpaceOnUse"><stop offset="0" stop-color="#b6d461" stop-opacity="0"/><stop offset="0.05" stop-color="#b6cf5d" stop-opacity="0.13"/><stop offset="0.16" stop-color="#b6c557" stop-opacity="0.36"/><stop offset="0.27" stop-color="#b6bd51" stop-opacity="0.56"/><stop offset="0.39" stop-color="#b6b74c" stop-opacity="0.72"/><stop offset="0.51" stop-color="#b6b149" stop-opacity="0.84"/><stop offset="0.65" stop-color="#b6ae46" stop-opacity="0.93"/><stop offset="0.8" stop-color="#b6ac44" stop-opacity="0.98"/><stop offset="1" stop-color="#b6ab44"/></linearGradient><clipPath id="ac0eda73-2c30-4ae3-9c91-0cda7ab28fe1"><rect id="a829ea47-b649-4298-b8d4-ece51cde26b4" data-name="SVGID" x="222.5" y="155.6" width="28.2" height="22.75" fill="none"/></clipPath><clipPath id="b18b2281-c694-485d-a531-56b40129ef7b"><rect id="b7f99339-ca9e-4eb8-8b91-5e774e295b08" data-name="SVGID" x="92.8" y="156.9" width="28.2" height="22.75" fill="none"/></clipPath></defs><title>資產 2</title><g style="isolation:isolate"><g id="b7f245d5-089e-4fac-8cfe-907a60bafc76" data-name="圖層 2"><g id="ee27a230-8ed1-485c-91f2-b68bd260621d" data-name="圖層 4"><path d="M34.9,160.3a5.6,5.6,0,0,1-3-3.9c-.2-1.7,1.5-3.5,3.1-3a5,5,0,0,0-3.3-3,23,23,0,0,1-4.3-1.8c-1.2-.9-2-2.7-1.3-4s2.5-1.5,3.4-2.7.6-3.2-.4-4.5a19.7,19.7,0,0,0-3.9-3.1,6.2,6.2,0,0,1-2.7-4c-.2-2.8,3.2-4.9,6-4.4s5.1,2.8,6.9,5a10.2,10.2,0,0,0,2.9,2.6,3.2,3.2,0,0,0,3.6-.2c1.8-1.6.6-5.2,2.6-6.5s3.1.1,3.9,1.4a11.1,11.1,0,0,1,1.2,4.4,5.8,5.8,0,0,0,2,4.1c1.8,1.3,4.3.5,6.5.8,4,.5,6.7,4.9,6.3,8.9s-3.2,7.4-6.6,9.5-7.7,3.4-11.5,5.1A12.7,12.7,0,0,1,34.9,160.3Z" fill="#fd7a27"/><path d="M32.5,135s10.7,19,21.4,22.9" fill="none" stroke="#fff" stroke-miterlimit="10"/><path d="M21.8,111.3A16.3,16.3,0,0,1,11.2,105c-2.1-2.7-4.3-6.2-4.5-9.8a10.8,10.8,0,0,0,4.9,1.5c2.5,0,5.2-1.1,5.9-3.7a5.6,5.6,0,0,0-2.3-6.1,6.6,6.6,0,0,0-7,.2,7.1,7.1,0,0,0-3.1,3.8A11.1,11.1,0,0,1,2.6,80.7C3,79.3.9,78.5.5,79.9A13.8,13.8,0,0,0,4.4,93.5h.1a16.4,16.4,0,0,0,2.4,9c3.1,5.5,8.2,10.2,14.7,10.9A1.1,1.1,0,0,0,21.8,111.3Zm-10.9-23a3.6,3.6,0,0,1,4.5,2.5c.6,2.6-1.9,3.7-4,3.6a8.4,8.4,0,0,1-4.5-1.8A5.8,5.8,0,0,1,10.9,88.3Z" fill="#d4a787"/><path d="M354.5,31.1a19,19,0,0,1,5.8-13.5c2.8-3,6.7-6.1,10.9-6.9a12.3,12.3,0,0,0-1,6c.3,3,2.1,6,5.3,6.5a6.7,6.7,0,0,0,6.8-3.7c1.4-2.7.6-6.1-1.3-8.4a8.5,8.5,0,0,0-5-3,13.4,13.4,0,0,1,11.7-4.5c1.7.2,2.4-2.4.6-2.6a16.2,16.2,0,0,0-15.4,6.7h-.1A21.3,21.3,0,0,0,362.4,12c-6,4.6-10.7,11.3-10.6,19.1A1.4,1.4,0,0,0,354.5,31.1ZM380,14.5a4.3,4.3,0,0,1-2.3,5.8c-2.9,1.1-4.7-1.6-4.8-4.2a9.4,9.4,0,0,1,1.4-5.6A7.1,7.1,0,0,1,380,14.5Z" fill="#d4a787"/><path d="M357.4,57.5s3.9,5.6,2.2,10.1l-1.8,4.5-1.6-.8s-.1,8.1-2.6,11.3c0,0-12-9.4-10.7-15.5,0,0-2.6,4.1-6.4,9.4l-3.8,5.3V78.3s-6.5,5.2-12.5,7.4a4.3,4.3,0,0,1-.1-.5,60.9,60.9,0,0,1-.8-13.9l-2.8,2,2.3-6.1c2.2-6.2,4.1-10.6,4.1-10.6-4.3,4.5-18.8-.1-18.8-.1,1.3-3.9,7.9-8.6,7.9-8.6l-1.6-.8,2.7-4c2.7-4,9.6-3.9,9.6-3.9a21,21,0,0,1-10.6-13.6s4.3.2,12.3,1.3S340,40.3,340,40.3a28.6,28.6,0,0,0,3,1.9h.2a15.4,15.4,0,0,0,3.6,1.6s14.4-.7,19.8,5.3,8,9.4,8,9.4A21.2,21.2,0,0,1,357.4,57.5Z" fill="#e27739"/><line x1="326" y1="74" x2="347.2" y2="35.1" fill="none" stroke="#000" stroke-miterlimit="10" stroke-width="0.63"/><path d="M357.4,57.5s3.9,5.6,2.2,10.1l-1.8,4.5-1.6-.8s-.1,8.1-2.6,11.3c0,0-12-9.4-10.7-15.5,0,0-2.6,4.1-6.4,9.4l-3.8,5.3V78.3s-6.5,5.2-12.5,7.4a4.3,4.3,0,0,1-.1-.5l12.5-23.6L343,42.2h.2a15.4,15.4,0,0,0,3.6,1.6s14.4-.7,19.8,5.3,8,9.4,8,9.4A21.2,21.2,0,0,1,357.4,57.5Z" fill="#e27739" opacity="0.4" style="mix-blend-mode:multiply"/><path d="M319,50.6c3.4.5,6.8-.7,10.1-1.6s7-1.4,10,.4" fill="none" stroke="#000" stroke-miterlimit="10" stroke-width="0.63"/><path d="M335.6,56.1c.5,1.4,0,2.8-.1,4.2a13.5,13.5,0,0,0,.8,4,7.2,7.2,0,0,1,.1,4.1" fill="none" stroke="#000" stroke-miterlimit="10" stroke-width="0.63"/><path d="M322.8,69.8c-.2.4-.7.8-1.1.7s-.6-.9-.5-1.4a17.7,17.7,0,0,1,3.2-7.9c.2-.3.9-1.2,1.4-.9s0,.9-.1,1.2-.9,2.5-1.2,3.8A15.4,15.4,0,0,1,322.8,69.8Z" fill="#fff6e6" opacity="0.47" style="mix-blend-mode:soft-light"/><g clip-path="url(#e390cb29-0eda-4a3e-ab82-b4a10b8285a4)"><rect x="72.5" y="183.8" width="32.4" height="26.34" transform="translate(-126.8 211.7) rotate(-69.7)" fill="url(#a74502c8-b4f5-4fe6-9fec-1383c831e63b)"/></g><g clip-path="url(#a4d58c6b-0a2c-4797-a43d-3ccd904926c2)"><rect x="239.6" y="177.3" width="34.4" height="36.47" transform="translate(26.2 421.5) rotate(-81.7)" fill="url(#a01ad4bd-bed6-4c9b-b7dc-fd30d507862e)"/></g><g clip-path="url(#f6828b0f-6011-4da3-a9a0-1ebe5e77da8e)"><rect x="186.7" y="230.4" width="34.4" height="36.47" transform="translate(-116.5 221.4) rotate(-45.8)" fill="url(#a36ec7e5-d9d7-4ccf-bcce-fad6a164aff0)"/></g><g clip-path="url(#a270c300-aebf-44da-bedd-b440eb12dc3b)"><rect x="111.2" y="227.5" width="26.3" height="32.41" transform="translate(-3.4 1.7) rotate(-0.8)" fill="url(#bdff9a2e-1acf-4565-9076-af7b14c9c229)"/></g><g clip-path="url(#f2744eb1-1559-479f-9097-59e931ae30eb)"><rect x="60.7" y="65.3" width="226.3" height="216.66" transform="translate(-41.9 56) rotate(-16.4)" fill="url(#bb779fa8-952a-4c6e-87bc-87bbba61473b)"/></g><g clip-path="url(#ee756a26-8287-4153-a143-e17a373c0aa6)"><rect x="46.6" y="44.7" width="254.5" height="257.17" transform="translate(-61.6 242.8) rotate(-61.4)" fill="url(#a6ef5a45-8690-47df-8416-c41f59618043)"/></g><path d="M237.9,97.3c-.3,4.9,4.1,9.2,10,9.7s10.9-3.2,11.3-8-4.1-9.2-9.9-9.7-11,3.2-11.4,8" fill="#efdc3c"/><path d="M227.2,95.7c-2.6,4.2-.7,10.1,4.2,13.2s11.2,2.4,13.8-1.7.7-10-4.3-13.2-11.1-2.4-13.7,1.7" fill="#efdc3c"/><path d="M240.4,106.5c-1.6,4.6,1.6,10,7.1,11.9s11.4-.2,13-4.8-1.5-9.9-7.1-11.8-11.4.1-13,4.7" fill="#efdc3c"/><path d="M227.6,94.7c3.9,3,9.9,1.6,13.5-3.1s3.4-10.9-.5-13.8-9.9-1.6-13.5,3.1-3.4,10.9.5,13.8" fill="#eebc2a"/><path d="M212.7,83.8c-2.6,4.2-.7,10.1,4.2,13.2s11.2,2.4,13.8-1.7.7-10-4.2-13.2-11.2-2.4-13.8,1.7" fill="#eebc2a"/><path d="M225.9,94.6c-1.6,4.6,1.6,10,7.1,11.9s11.4-.2,13.1-4.8-1.6-9.9-7.2-11.8-11.3.1-13,4.7" fill="#eebc2a"/><path d="M248.6,101.4a7.8,7.8,0,0,1-1.9,5.1l-.3.4-.3.3-.4.3-.3.3-.4.2-.3.3a19.2,19.2,0,0,1-2.5,1.2h-1.8c-8.8,1.2-13.8-7.2-16.5-14.1-.3-1-.7-2.1-1.1-3.1l-.3-.7a16.5,16.5,0,0,0-3.8-6.2l-.2-.2a8.1,8.1,0,0,0-7.5-1.2h-.7L210,84l-1-1.7c0-.2-.1-.3-.1-.5l.5-.2a11,11,0,0,1,10.4,1.1c3.6,2.4,5.2,6.4,6.7,10.2,2.1,5.6,4.9,13.4,11.8,14.5,3.9.4,8.6-1.9,8.6-6.5s-5.9-6-8.7-5.8a11.7,11.7,0,0,0-7.1,2.4l-.8.6h-.9l.3-.2a29,29,0,0,1,3.3-2c5.8-2.5,15.2-.8,15.6,6.9" fill="#008742"/><path d="M219.5,95l-1.9-.5a21.3,21.3,0,0,1-15.5-19.8l3.2-.3A22.2,22.2,0,0,0,219.5,95" fill="#7db82e"/><path d="M224.4,99.7h.9l-.6.3-.5.2-.5.2-.5.2h-.5l-.5.2h-.6l-.6.2h-.5a24.1,24.1,0,0,1-7.1.2h-1.7l-.6-.2-.6-.2-.5-.2c-4.2-1.8-6.9-4.9-7.4-9.5V89.1a4.3,4.3,0,0,0,.1-.5,1.9,1.9,0,0,0,.2-.7v-.2a2,2,0,0,1,.4-.8v-.2l2.2,3v3.5c1.5,6.4,9.4,8,15,7.4H223l1.4-.5" fill="#7db82e"/><path id="ab539d1e-03d5-4ade-97d4-5ac39c7b3c09" data-name="SVGID" d="M116.9,106.2a83.4,83.4,0,1,0,46.7-21.3,83.5,83.5,0,0,0-46.7,21.3" fill="url(#bc905e32-99ef-4040-af06-1b4d6f7abd55)"/><path d="M143.4,114.8c27.6,8.7,19.4,55.6-12.1,44.6-25.2-8.9-17-53.7,12.1-44.6" fill="#fff"/><path d="M140.8,116.1c13.5,2.9,11.6,30.4-4.9,25.3-14.2-4.4-10.8-28.8,4.9-25.3" fill="#2c230d"/><path d="M205.9,114.8c27.6,8.7,19.3,55.6-12.1,44.6-25.3-8.9-17-53.7,12.1-44.6" fill="#fff"/><path d="M208,116.1c13.6,2.9,11.6,30.4-4.9,25.3-14.2-4.4-10.7-28.8,4.9-25.3" fill="#2c230d"/><g opacity="0.5"><g clip-path="url(#ac0eda73-2c30-4ae3-9c91-0cda7ab28fe1)"><path d="M248.5,160.2c3.5,4.7,3.3,12.9-3,16.4s-17.7,1.5-21.4-3.4c-7.8-10.3,15.1-25.3,24.4-13" fill="#e0256d"/></g></g><g opacity="0.5"><g clip-path="url(#b18b2281-c694-485d-a531-56b40129ef7b)"><path d="M95.1,161.6c-3.5,4.6-3.4,12.8,3,16.4s17.7,1.4,21.4-3.4c7.8-10.3-15.1-25.3-24.4-13" fill="#e0256d"/></g></g><path d="M114.8,285.3l-.3-7.5,171.1-2.6a4.5,4.5,0,0,1,.3,7.5Z" fill="#563424"/><path d="M114.5,277.8l171.1-2.6a4.7,4.7,0,0,1,2.2,3.7Z" fill="#774531"/><path d="M126.3,289.6c-.2,1.2-10.3-1.6-15.6-.8h-.6l-7,.2a182.4,182.4,0,0,1-47.6,24.1l1.3-1c.5-.3.9-.6.9-.7l-1,.5a11.2,11.2,0,0,1-2.4.8l-1.6.4a9.8,9.8,0,0,1-.5-1.6h.1a11.1,11.1,0,0,0,2.9-1.3l1-.8-1.2.5a10.6,10.6,0,0,1-2.8.6h-.3a5,5,0,0,1-.4-1.3l3.8-1.5a46,46,0,0,0,4.6-1.7l1.9-1-2,.7-4.7,1.2a20.2,20.2,0,0,0-3.9,1c-.4-1.5-.7-2.9-1-4.4l1.7-.3a29.9,29.9,0,0,0,3.3-1.2l1.4-.5-1.5.2a23.5,23.5,0,0,1-3.4.6H49.9c-.3-1.4-.5-2.9-.8-4.4h.6l2.6-.5,4.8-1.3,2.1-.6-2.2.3c-1.3.3-3.1.5-4.8.7l-2.6.2h-.7c-.2-1.5-.4-3.1-.5-4.6l.9-.2a14.6,14.6,0,0,0,4.7-1.3l1.4-.9.4-.4-.5.3a6,6,0,0,1-1.4.7,15.5,15.5,0,0,1-4.7.7h-.9c-.2-2.7-.3-5.5-.4-8.3l2.4-.5,1.4-.3H47.9c0-1.2.1-2.4.1-3.6v-1h.7A32.5,32.5,0,0,0,53,276l1.7-.8-1.8.5a40.6,40.6,0,0,1-4.3.6h-.5c.1-1.9.2-3.7.4-5.6a5.3,5.3,0,0,1,.1-1.3,48.4,48.4,0,0,0,6.1-.5l1.5-.3,1.1-.3.8-.2-.8.2H56.2l-1.5.2a39.9,39.9,0,0,1-6,0c.1-1.4.3-2.9.5-4.4a79,79,0,0,0,8.7-.2l4.4-.4H57.9l-8.5-.3a7.8,7.8,0,0,1,.2-1.4h3a2,2,0,0,0,1.1-.2H52.6l-2.6-.7h-.2c.1-1.1.3-2.1.5-3.2h.2a14.6,14.6,0,0,0,3.4,1.3l1.4.3-1.4-.6a23.8,23.8,0,0,1-2.9-1.7l-.5-.4.3-1.6,2.2.6,3.7,1.4,1.7.8-1.6-1-3.5-2-1.1-.6c14.5,3.3,29,8.8,43.3,15.3l7.1,3.3,6.4-.2h.6l7.1-.9c4-.2,5.9,6.6,6.9,12.5C124.3,288.8,126.3,289.6,126.3,289.6Z" fill="#d08000"/><path d="M52.7,305.8a49.7,49.7,0,0,0,5.8-.8,45.3,45.3,0,0,0,5.5-1.7l2.4-1.1-2.5.8a50.5,50.5,0,0,1-5.6,1.1,37,37,0,0,1-5.6.2l-2.4-.2a11.6,11.6,0,0,0,.4,1.8Z" fill="#bc7015"/><path d="M60.6,299.4s-3.4-.3-6.8-.3H49.3l.3,1.5,4.3-.7C57.2,299.6,60.6,299.4,60.6,299.4Z" fill="#bc7015"/><path d="M56.8,285.9l7-.4a130.5,130.5,0,0,0,13.1-1.6l4.2-.9,1.6-.4-1.6.3-4.3.7a115,115,0,0,1-13,1H50.7a11.2,11.2,0,0,1-2.7-.3V286h2.7A43.2,43.2,0,0,0,56.8,285.9Z" fill="#bc7015"/><path d="M58,311.1l5.6-2.6c2-1,4.1-2.2,6.1-3.4l11.4-6.7c1.5-.8,2.8-1.5,3.8-1.9l1.5-.6-1.5.5-4,1.8-11.6,6.1c-2.1,1.1-4.2,2.2-6.3,3.1a45.9,45.9,0,0,1-5.6,2.2l-2.7.9-2.4,1h-.1a5,5,0,0,0,.4,1.3l1.2-.3Z" fill="#bc7015"/><path d="M72.6,290.1l1.3-.7-1.4.7-3.6,1.5a60.2,60.2,0,0,1-11.6,3.2c-2.1.4-4.3.6-6.3.8H48.8a2.8,2.8,0,0,1,.1.9h.7l2.6-.2c1.7-.2,3.5-.4,4.8-.7l1.1-.2A66.2,66.2,0,0,0,69,291.9Z" fill="#bc7015"/><path d="M58.2,273.8a57.9,57.9,0,0,0,7.9-.6l2.6-.5.9-.3-1,.2-2.5.3a40.5,40.5,0,0,1-7.8,0,46.3,46.3,0,0,1-7.7-1.2l-2.2-.6c0,.5-.1,1.1-.1,1.7l2,.4A57.9,57.9,0,0,0,58.2,273.8Z" fill="#bc7015"/><path d="M57.9,263.7h4.4l-2.7.2a58.1,58.1,0,0,1,7.2.5,33.7,33.7,0,0,1,8,2.3l6.7,3.1c3.9,2,6.6,3.1,6.6,3.1s-2.7-1.2-6.5-3.3c-1.9-1-4.1-2.3-6.5-3.4a35,35,0,0,0-8.1-2.7c-5.8-1.1-11.6-.8-15.9-.7H49.5a1.7,1.7,0,0,0-.1.7Z" fill="#bc7015"/><path d="M123.6,284.5c-1.9,1.9-13.3-8.5-20.9-8.4s-26.2-6.2-32-4.5c-8,2.4-17.4,1.5-22.2-.9a5.3,5.3,0,0,1,.1-1.3,48.4,48.4,0,0,0,6.1-.5l1.5-.3,1.1-.3.8-.2-.8.2H56.2l-1.5.2a39.9,39.9,0,0,1-6,0c.1-1.4.3-2.9.5-4.4a79,79,0,0,0,8.7-.2l4.4-.4H57.9l-8.5-.3a7.8,7.8,0,0,1,.2-1.4h3a2,2,0,0,0,1.1-.2H52.6l-2.6-.7h-.2c.1-1.1.3-2.1.5-3.2h.2a14.6,14.6,0,0,0,3.4,1.3l1.4.3-1.4-.6a23.8,23.8,0,0,1-2.9-1.7l-.5-.4.3-1.6,2.2.6,3.7,1.4,1.7.8-1.6-1-3.5-2-1.1-.6c14.5,3.3,29,8.8,43.3,15.3l7.1,3.3,6.4-.2h.6l7.1-.9C120.7,271.8,122.6,278.6,123.6,284.5Z" fill="#ed912e" opacity="0.3" style="mix-blend-mode:screen"/><polygon points="110.7 288.8 107.4 288.9 108.2 272.9 109.6 272.9 110.7 288.8" fill="#563424"/><polygon points="105.2 289 103.1 289 102.6 273.1 107.4 272.9 105.2 289" fill="#563424"/><path d="M192.6,201.9a1.7,1.7,0,0,0,2.9-1.5h0c-2.3-7.5-9.8-26.3-28.4-26.3s-26.4,19-28.7,26.5h0a1.6,1.6,0,0,0,2.8,1.5c3.8-3.9,14.9-10.3,25.7-10.3S188.9,198,192.6,201.9Z" fill="#4a3e37"/></g></g></g></svg>