<svg xmlns="http://www.w3.org/2000/svg" xmlns:xlink="http://www.w3.org/1999/xlink" viewBox="0 0 418.1 346.6"><defs><clipPath id="ba391b66-5693-476f-9b85-f304a03ef4a7"><path id="e5a8bc4e-7c6a-40d7-a704-bb2481800b71" data-name="SVGID" d="M84,191.2c-6.4,6.2-9.4,13.5-6.7,16.3s10.1-.1,16.5-6.3,9.4-13.6,6.7-16.3a2.4,2.4,0,0,0-1.6-.9c-3.4-.9-9.5,1.9-14.9,7.2" fill="none"/></clipPath><linearGradient id="ed2f5279-504f-40c7-a349-f7a26e7398da" x1="-3151.72" y1="376.37" x2="-3151.27" y2="376.37" gradientTransform="translate(212701.7 -25178.6) scale(67.46)" gradientUnits="userSpaceOnUse"><stop offset="0" stop-color="#85b644"/><stop offset="0.08" stop-color="#8cba48"/><stop offset="0.42" stop-color="#a3c856"/><stop offset="0.73" stop-color="#b1d15e"/><stop offset="1" stop-color="#b6d461"/></linearGradient><clipPath id="f876196f-db72-4e25-b016-2fee330c9ee8"><path id="fc821ae8-44db-4664-b43e-ab68d0c1bda3" data-name="SVGID" d="M243,186.3c-2.2,3.1,2.1,9.8,9.6,14.8s15.2,6.4,17.3,3.2-2.1-9.9-9.6-14.8-14.2-6.3-16.8-3.8c-.2.2-.4.3-.5.6" fill="none"/></clipPath><linearGradient id="a797ba73-ae47-437e-9175-e3919c9ebbbd" x1="-3184.08" y1="341.44" x2="-3183.64" y2="341.44" gradientTransform="translate(-22774.6 -214629.4) rotate(-90) scale(67.47)" xlink:href="#ed2f5279-504f-40c7-a349-f7a26e7398da"/><clipPath id="b0a16179-3789-412e-bfb4-29bbecd93ac4"><path id="b2adb1e7-b263-4ca8-89f9-92c6b45a01cb" data-name="SVGID" d="M198.2,233c-3.6,1.3-4,9.2-.9,17.6s8.6,14.2,12.2,12.8,4-9.2.9-17.6-7.9-13.4-11.5-13l-.7.2" fill="none"/></clipPath><linearGradient id="b1e39a2b-7361-4576-9d29-31a9558ba084" x1="-3182.09" y1="363.04" x2="-3181.65" y2="363.04" gradientTransform="translate(-24291.4 -214441.4) rotate(-90) scale(67.47)" xlink:href="#ed2f5279-504f-40c7-a349-f7a26e7398da"/><clipPath id="a8e4ef82-5e99-41a0-8475-851b574f6a8f"><path id="ed27b30d-f9e0-490b-848a-e53df5e30c61" data-name="SVGID" d="M118,240c-3.8,8.1-4,16-.5,17.7s9.4-3.7,13.2-11.9,3.9-16,.4-17.6a2.8,2.8,0,0,0-1.8-.3c-3.5.4-8.2,5.3-11.3,12.1" fill="none"/></clipPath><linearGradient id="f1b540d6-ec0b-4db5-8c53-52c629c5dbbd" x1="-3166.56" y1="374.43" x2="-3166.11" y2="374.43" gradientTransform="translate(-25126 -213369.8) rotate(-90) scale(67.46)" xlink:href="#ed2f5279-504f-40c7-a349-f7a26e7398da"/><clipPath id="b522f8f2-60fb-4463-be79-e53f82faca93"><path id="b65adf93-b4d9-463c-ba79-7214abd6a77f" data-name="SVGID" d="M96.9,126.1a86.8,86.8,0,1,0,66.4-44.8,86.8,86.8,0,0,0-66.4,44.8" fill="none"/></clipPath><linearGradient id="fd0aacbd-3f7e-4343-a6ae-c23fa70d60c6" x1="-3165.61" y1="347.14" x2="-3165.16" y2="347.14" gradientTransform="matrix(-392.5, 0, 0, -392.5, -1242253.07, 136416.89)" gradientUnits="userSpaceOnUse"><stop offset="0" stop-color="#b6d461"/><stop offset="1" stop-color="#b6d461"/><stop offset="1" stop-color="#85b644"/></linearGradient><clipPath id="bd0341ce-6bb9-45cd-ad49-c90c5a725191"><path id="b4d5c0df-5a53-4968-a9f0-481235277bff" data-name="SVGID" d="M116.9,106.2a83.4,83.4,0,1,0,46.7-21.3,83.5,83.5,0,0,0-46.7,21.3" fill="none"/></clipPath><linearGradient id="f589f5b8-3d71-427f-8405-70675c295e31" x1="-3166.19" y1="350.46" x2="-3165.74" y2="350.46" gradientTransform="matrix(0, -376.45, 376.45, 0, -131763.29, -1191653.72)" xlink:href="#ed2f5279-504f-40c7-a349-f7a26e7398da"/><clipPath id="fc6d684c-1fc1-4915-99a8-97d0ddef5a13"><rect id="ba65ad45-907d-4431-9438-cfaa6831ba01" data-name="SVGID" x="222.5" y="155.6" width="28.2" height="22.75" fill="none"/></clipPath><clipPath id="fc633602-25f5-4240-bc1b-e87d73f6d405"><rect id="f3b04d24-1d08-405b-b63a-1db3befb0373" data-name="SVGID" x="92.8" y="156.9" width="28.2" height="22.75" fill="none"/></clipPath></defs><title>資產 1</title><g style="isolation:isolate"><g id="b2680778-3e7c-42d2-a412-a453a54de41d" data-name="圖層 2"><g id="e8df367e-0263-4d6c-bcaf-55f7722a53f9" data-name="圖層 4"><path d="M354.1,33c-3.1-.5-5.8,2.2-5.9,5.9-.4,13-.9,25.7-1.6,38.2,3.5-12,7.2-24.3,11.2-36.7C358.9,36.8,357.3,33.5,354.1,33Z" fill="#c12106"/><path d="M386,60.7c-1.6-1.4-4.5-.9-6.4,1.1-6.7,7.1-13.1,14.4-19.1,21.8a250.1,250.1,0,0,1,24-17.5C386.9,64.5,387.6,62.1,386,60.7Z" fill="#fda014"/><path d="M418,86.7c-.4-2.3-4.3-3.8-8.5-3.1A212.6,212.6,0,0,0,368,95.3a254.3,254.3,0,0,1,42.9-4.4C415.2,90.8,418.5,89.1,418,86.7Z" fill="#9fb603"/><path d="M286.2,67.9c-.9,1.5,1,3.6,4,4.8a235.3,235.3,0,0,1,29.9,14.1,199.4,199.4,0,0,0-27-18.9C290.3,66.3,287.2,66.3,286.2,67.9Z" fill="#fdc63a"/><path d="M301.8,31.9c-3.5,1.7-3.6,5.5-.4,8.7a222,222,0,0,1,29.9,37.8A340.5,340.5,0,0,0,312,35.9C309.9,32,305.3,30.3,301.8,31.9Z" fill="#16c1d1"/><path d="M376.9,32.9c-.3,1.4.9,2.9,2.6,3.3s3.4-.3,3.8-1.7-.8-2.9-2.6-3.4S377.2,31.5,376.9,32.9Z" fill="#16c1d1"/><path d="M334.7,65a2.8,2.8,0,0,0,2.6,2.9,2.7,2.7,0,0,0,3.1-2.2,2.7,2.7,0,0,0-2.5-2.9A2.7,2.7,0,0,0,334.7,65Z" fill="#fda014"/><path d="M334.9,93.9a2.7,2.7,0,0,0,2.5,2.9,2.7,2.7,0,0,0,3.2-2.1,2.7,2.7,0,0,0-2.5-2.9C336.5,91.6,335,92.5,334.9,93.9Z" fill="#fda014"/><path d="M377.9,101.4a2,2,0,0,0,1.5,2.8,3,3,0,0,0,3.4-1.6,2,2,0,0,0-1.5-2.9A3,3,0,0,0,377.9,101.4Z" fill="#fdc63a"/><path d="M294.8,84.2a3.2,3.2,0,0,0,2.9,2.5,1.9,1.9,0,0,0,2.3-2.1,3,3,0,0,0-2.9-2.5A1.9,1.9,0,0,0,294.8,84.2Z" fill="#9fb603"/><path d="M369.3,46.8a2,2,0,0,0,1.8,2.4,1.9,1.9,0,1,0-1.8-2.4Z" fill="#fda014"/><path d="M337,26.7a2.1,2.1,0,0,0,2.2,2.1,2.5,2.5,0,0,0,2.7-1.7c.1-1.1-.8-2-2.2-2.1A2.4,2.4,0,0,0,337,26.7Z" fill="#9fb603"/><path d="M369.5,83.2a1.8,1.8,0,0,0,1.5,2.2,2,2,0,0,0,2.5-1.3,1.7,1.7,0,0,0-1.4-2.2A2.1,2.1,0,0,0,369.5,83.2Z" fill="#a81d05"/><path d="M399.2,104.8a1.4,1.4,0,0,0,.9,2.1,2.7,2.7,0,0,0,2.8-1.1c.5-.8.1-1.7-1-2A2.5,2.5,0,0,0,399.2,104.8Z" fill="#16c1d1"/><path d="M394.9,74.8a1.8,1.8,0,0,0,1.4,2.3,2.2,2.2,0,0,0,2.8-1,2,2,0,0,0-1.5-2.4A2.1,2.1,0,0,0,394.9,74.8Z" fill="#9fb603"/><path d="M323.2,94.8a2.2,2.2,0,0,0,1.7,2.1,1.5,1.5,0,0,0,1.9-1.5,2,2,0,0,0-1.7-2.1A1.5,1.5,0,0,0,323.2,94.8Z" fill="#9fb603"/><path d="M329.5,40.3c-.2,1.3,1,2.5,2.7,2.6a2.9,2.9,0,0,0,3.2-2.1c.2-1.4-1-2.5-2.7-2.7S329.6,39,329.5,40.3Z" fill="#a81d05"/><path d="M303.5,52.9c-1.4-2-2.9-4-4.4-5.9-1.5,2-3,4-4.3,5.9C297.7,52.9,300.6,52.8,303.5,52.9Z" fill="#fda014"/><path d="M351.6,81.3,344,82.5l5,5.5C349.8,85.8,350.7,83.5,351.6,81.3Z" fill="#fda014"/><path d="M402.7,61.3l5.8-4.6L399.8,54C400.8,56.5,401.7,58.9,402.7,61.3Z" fill="#16c1d1"/><path d="M400.2,33.9l-2.5,2.2-4.1-.9,2.3,3.2-1.5,2.9,3.9-.3,3,2.6c.1-1,.2-2.1.2-3.2l3.5-1.1-3.8-1.9C400.9,36.2,400.5,35.1,400.2,33.9Z" fill="#9fb603"/><path d="M353.9,92.4l-2.5,2.2-4.1-.8,2.3,3.1-1.5,2.9,3.9-.3,3,2.7c.1-1.1.2-2.2.2-3.3l3.5-1.1-3.8-1.9C354.6,94.7,354.2,93.6,353.9,92.4Z" fill="#a81d05"/><path d="M335.3,158.5c1.2.3,2.7-2.2,3.3-5.5,2-11.4,3.6-23.1,4.9-35.1-3.4,11.6-6.5,23.1-9.1,34.4C333.7,155.5,334.1,158.3,335.3,158.5Z" fill="#c12106"/><path d="M319.6,136.4c1.1,1.1,2.4.3,3.1-1.8a139.2,139.2,0,0,1,9.7-22.4,115.3,115.3,0,0,0-13.1,18.9C318.3,132.9,318.5,135.3,319.6,136.4Z" fill="#fda014"/><path d="M293.5,116.6c1.7,2.3,4.2,2.9,6,1.4a172.9,172.9,0,0,1,24.8-16.9c-11.3,3.4-21.2,6.8-29.6,9.9C292.3,111.9,291.9,114.4,293.5,116.6Z" fill="#9fb603"/><path d="M386.6,129.5c1.8-1.2,2.1-3.3.5-4.7-5.6-4.7-12-10-19-15.5a167,167,0,0,1,13.6,19.5C382.7,130.5,384.8,130.8,386.6,129.5Z" fill="#fdc63a"/><path d="M355.8,159.7a11.3,11.3,0,0,0,5-7.5c1.2-10.5-.6-22.5-4.8-35.5,1.4,14,1,27.1-2.1,39.1C353,159.2,353.7,160.9,355.8,159.7Z" fill="#9fb603"/><path d="M326.8,160.6c.1-1.3-.4-2.5-1.1-2.7s-1.1.8-1.1,2,.5,2.5,1.1,2.7S326.8,161.9,326.8,160.6Z" fill="#16c1d1"/><path d="M350.7,129.2a2,2,0,0,0-1.3-2.6,2.4,2.4,0,0,0-2.6,2c-.3,1.3.3,2.5,1.3,2.6A2.6,2.6,0,0,0,350.7,129.2Z" fill="#fda014"/><path d="M313.6,95.7a3,3,0,0,0-2.5-2.8,2,2,0,0,0-2.3,2.1,3,3,0,0,0,2.5,2.7A1.9,1.9,0,0,0,313.6,95.7Z" fill="#fdc63a"/><path d="M390.8,114.2a1.8,1.8,0,0,0-1.2-2.7,3.4,3.4,0,0,0-3.5,1.6,1.8,1.8,0,0,0,1.2,2.7A3.8,3.8,0,0,0,390.8,114.2Z" fill="#9fb603"/><path d="M329.3,147.3a1.9,1.9,0,0,0-1-2c-.6-.1-1.1.6-1.2,1.5s.5,1.9,1,2S329.2,148.3,329.3,147.3Z" fill="#fda014"/><path d="M340.7,163.4c.4-.9.2-1.7-.3-1.8s-1.1.6-1.4,1.5-.1,1.8.3,1.8S340.4,164.3,340.7,163.4Z" fill="#9fb603"/><path d="M325.5,113.1a2.2,2.2,0,0,0-1.6-2.1,1.5,1.5,0,0,0-1.6,1.6,2,2,0,0,0,1.6,2C324.7,114.8,325.4,114.1,325.5,113.1Z" fill="#a81d05"/><path d="M293.9,94.9a2.7,2.7,0,0,0-2.2-1.9,1.2,1.2,0,0,0-1.4,1.5,2.7,2.7,0,0,0,2.1,1.9A1.3,1.3,0,0,0,293.9,94.9Z" fill="#16c1d1"/><path d="M311.2,124.2a2.7,2.7,0,0,0-1.7-2.1c-.8-.1-1.3.5-1.1,1.5a2.8,2.8,0,0,0,1.7,2.1C310.8,125.8,311.3,125.2,311.2,124.2Z" fill="#9fb603"/><path d="M367.4,101.4a1.6,1.6,0,0,0-1.3-2.1,1.9,1.9,0,0,0-2.3,1.3,1.7,1.7,0,0,0,1.2,2.2A2.2,2.2,0,0,0,367.4,101.4Z" fill="#9fb603"/><path d="M347.7,151.5c.4-1.2.1-2.2-.6-2.3s-1.8.7-2.2,1.9-.1,2.2.6,2.3S347.2,152.6,347.7,151.5Z" fill="#a81d05"/><path d="M366.3,141.3a50.2,50.2,0,0,1-.8,5.4l5.8-4.8Z" fill="#fda014"/><path d="M339.6,114l6.3-1.3-4.1-5.3C341.1,109.6,340.3,111.8,339.6,114Z" fill="#fda014"/><path d="M312,138.4a54.3,54.3,0,0,0-.6,5.5l3.9.9Z" fill="#16c1d1"/><path d="M320,163.3a19.4,19.4,0,0,1,.2-2.4h1.2l-1.2-2.4c0-1-.1-1.9-.1-2.9l-1.1,1-1.5-1.9c.2,1,.5,2,.7,3.1l-.6,1.7,1.4.9C319.3,161.4,319.7,162.4,320,163.3Z" fill="#9fb603"/><g opacity="0.5"><path d="M354.1,33c-3.1-.5-5.8,2.2-5.9,5.9-.4,13-.9,25.7-1.6,38.2,3.5-12,7.2-24.3,11.2-36.7C358.9,36.8,357.3,33.5,354.1,33Z" fill="#fff"/><path d="M386,60.7c-1.6-1.4-4.5-.9-6.4,1.1-6.7,7.1-13.1,14.4-19.1,21.8a250.1,250.1,0,0,1,24-17.5C386.9,64.5,387.6,62.1,386,60.7Z" fill="#fff"/><path d="M418,86.7c-.4-2.3-4.3-3.8-8.5-3.1A212.6,212.6,0,0,0,368,95.3a254.3,254.3,0,0,1,42.9-4.4C415.2,90.8,418.5,89.1,418,86.7Z" fill="#fff"/><path d="M286.2,67.9c-.9,1.5,1,3.6,4,4.8a235.3,235.3,0,0,1,29.9,14.1,199.4,199.4,0,0,0-27-18.9C290.3,66.3,287.2,66.3,286.2,67.9Z" fill="#fff"/><path d="M301.8,31.9c-3.5,1.7-3.6,5.5-.4,8.7a222,222,0,0,1,29.9,37.8A340.5,340.5,0,0,0,312,35.9C309.9,32,305.3,30.3,301.8,31.9Z" fill="#fff"/><path d="M376.9,32.9c-.3,1.4.9,2.9,2.6,3.3s3.4-.3,3.8-1.7-.8-2.9-2.6-3.4S377.2,31.5,376.9,32.9Z" fill="#fff"/><path d="M334.7,65a2.8,2.8,0,0,0,2.6,2.9,2.7,2.7,0,0,0,3.1-2.2,2.7,2.7,0,0,0-2.5-2.9A2.7,2.7,0,0,0,334.7,65Z" fill="#fff"/><path d="M334.9,93.9a2.7,2.7,0,0,0,2.5,2.9,2.7,2.7,0,0,0,3.2-2.1,2.7,2.7,0,0,0-2.5-2.9C336.5,91.6,335,92.5,334.9,93.9Z" fill="#fff"/><path d="M377.9,101.4a2,2,0,0,0,1.5,2.8,3,3,0,0,0,3.4-1.6,2,2,0,0,0-1.5-2.9A3,3,0,0,0,377.9,101.4Z" fill="#fff"/><path d="M294.8,84.2a3.2,3.2,0,0,0,2.9,2.5,1.9,1.9,0,0,0,2.3-2.1,3,3,0,0,0-2.9-2.5A1.9,1.9,0,0,0,294.8,84.2Z" fill="#fff"/><path d="M369.3,46.8a2,2,0,0,0,1.8,2.4,1.9,1.9,0,1,0-1.8-2.4Z" fill="#fff"/><path d="M337,26.7a2.1,2.1,0,0,0,2.2,2.1,2.5,2.5,0,0,0,2.7-1.7c.1-1.1-.8-2-2.2-2.1A2.4,2.4,0,0,0,337,26.7Z" fill="#fff"/><path d="M369.5,83.2a1.8,1.8,0,0,0,1.5,2.2,2,2,0,0,0,2.5-1.3,1.7,1.7,0,0,0-1.4-2.2A2.1,2.1,0,0,0,369.5,83.2Z" fill="#fff"/><path d="M399.2,104.8a1.4,1.4,0,0,0,.9,2.1,2.7,2.7,0,0,0,2.8-1.1c.5-.8.1-1.7-1-2A2.5,2.5,0,0,0,399.2,104.8Z" fill="#fff"/><path d="M394.9,74.8a1.8,1.8,0,0,0,1.4,2.3,2.2,2.2,0,0,0,2.8-1,2,2,0,0,0-1.5-2.4A2.1,2.1,0,0,0,394.9,74.8Z" fill="#fff"/><path d="M323.2,94.8a2.2,2.2,0,0,0,1.7,2.1,1.5,1.5,0,0,0,1.9-1.5,2,2,0,0,0-1.7-2.1A1.5,1.5,0,0,0,323.2,94.8Z" fill="#fff"/><path d="M329.5,40.3c-.2,1.3,1,2.5,2.7,2.6a2.9,2.9,0,0,0,3.2-2.1c.2-1.4-1-2.5-2.7-2.7S329.6,39,329.5,40.3Z" fill="#fff"/><path d="M303.5,52.9c-1.4-2-2.9-4-4.4-5.9-1.5,2-3,4-4.3,5.9C297.7,52.9,300.6,52.8,303.5,52.9Z" fill="#fff"/><path d="M351.6,81.3,344,82.5l5,5.5C349.8,85.8,350.7,83.5,351.6,81.3Z" fill="#fff"/><path d="M402.7,61.3l5.8-4.6L399.8,54C400.8,56.5,401.7,58.9,402.7,61.3Z" fill="#fff"/><path d="M400.2,33.9l-2.5,2.2-4.1-.9,2.3,3.2-1.5,2.9,3.9-.3,3,2.6c.1-1,.2-2.1.2-3.2l3.5-1.1-3.8-1.9C400.9,36.2,400.5,35.1,400.2,33.9Z" fill="#fff"/><path d="M353.9,92.4l-2.5,2.2-4.1-.8,2.3,3.1-1.5,2.9,3.9-.3,3,2.7c.1-1.1.2-2.2.2-3.3l3.5-1.1-3.8-1.9C354.6,94.7,354.2,93.6,353.9,92.4Z" fill="#fff"/><path d="M335.3,158.5c1.2.3,2.7-2.2,3.3-5.5,2-11.4,3.6-23.1,4.9-35.1-3.4,11.6-6.5,23.1-9.1,34.4C333.7,155.5,334.1,158.3,335.3,158.5Z" fill="#fff"/><path d="M319.6,136.4c1.1,1.1,2.4.3,3.1-1.8a139.2,139.2,0,0,1,9.7-22.4,115.3,115.3,0,0,0-13.1,18.9C318.3,132.9,318.5,135.3,319.6,136.4Z" fill="#fff"/><path d="M293.5,116.6c1.7,2.3,4.2,2.9,6,1.4a172.9,172.9,0,0,1,24.8-16.9c-11.3,3.4-21.2,6.8-29.6,9.9C292.3,111.9,291.9,114.4,293.5,116.6Z" fill="#fff"/><path d="M386.6,129.5c1.8-1.2,2.1-3.3.5-4.7-5.6-4.7-12-10-19-15.5a167,167,0,0,1,13.6,19.5C382.7,130.5,384.8,130.8,386.6,129.5Z" fill="#fff"/><path d="M355.8,159.7a11.3,11.3,0,0,0,5-7.5c1.2-10.5-.6-22.5-4.8-35.5,1.4,14,1,27.1-2.1,39.1C353,159.2,353.7,160.9,355.8,159.7Z" fill="#fff"/><path d="M326.8,160.6c.1-1.3-.4-2.5-1.1-2.7s-1.1.8-1.1,2,.5,2.5,1.1,2.7S326.8,161.9,326.8,160.6Z" fill="#fff"/><path d="M350.7,129.2a2,2,0,0,0-1.3-2.6,2.4,2.4,0,0,0-2.6,2c-.3,1.3.3,2.5,1.3,2.6A2.6,2.6,0,0,0,350.7,129.2Z" fill="#fff"/><path d="M313.6,95.7a3,3,0,0,0-2.5-2.8,2,2,0,0,0-2.3,2.1,3,3,0,0,0,2.5,2.7A1.9,1.9,0,0,0,313.6,95.7Z" fill="#fff"/><path d="M390.8,114.2a1.8,1.8,0,0,0-1.2-2.7,3.4,3.4,0,0,0-3.5,1.6,1.8,1.8,0,0,0,1.2,2.7A3.8,3.8,0,0,0,390.8,114.2Z" fill="#fff"/><path d="M329.3,147.3a1.9,1.9,0,0,0-1-2c-.6-.1-1.1.6-1.2,1.5s.5,1.9,1,2S329.2,148.3,329.3,147.3Z" fill="#fff"/><path d="M340.7,163.4c.4-.9.2-1.7-.3-1.8s-1.1.6-1.4,1.5-.1,1.8.3,1.8S340.4,164.3,340.7,163.4Z" fill="#fff"/><path d="M325.5,113.1a2.2,2.2,0,0,0-1.6-2.1,1.5,1.5,0,0,0-1.6,1.6,2,2,0,0,0,1.6,2C324.7,114.8,325.4,114.1,325.5,113.1Z" fill="#fff"/><path d="M293.9,94.9a2.7,2.7,0,0,0-2.2-1.9,1.2,1.2,0,0,0-1.4,1.5,2.7,2.7,0,0,0,2.1,1.9A1.3,1.3,0,0,0,293.9,94.9Z" fill="#fff"/><path d="M311.2,124.2a2.7,2.7,0,0,0-1.7-2.1c-.8-.1-1.3.5-1.1,1.5a2.8,2.8,0,0,0,1.7,2.1C310.8,125.8,311.3,125.2,311.2,124.2Z" fill="#fff"/><path d="M367.4,101.4a1.6,1.6,0,0,0-1.3-2.1,1.9,1.9,0,0,0-2.3,1.3,1.7,1.7,0,0,0,1.2,2.2A2.2,2.2,0,0,0,367.4,101.4Z" fill="#fff"/><path d="M347.7,151.5c.4-1.2.1-2.2-.6-2.3s-1.8.7-2.2,1.9-.1,2.2.6,2.3S347.2,152.6,347.7,151.5Z" fill="#fff"/><path d="M366.3,141.3a50.2,50.2,0,0,1-.8,5.4l5.8-4.8Z" fill="#fff"/><path d="M339.6,114l6.3-1.3-4.1-5.3C341.1,109.6,340.3,111.8,339.6,114Z" fill="#fff"/><path d="M312,138.4a54.3,54.3,0,0,0-.6,5.5l3.9.9Z" fill="#fff"/><path d="M320,163.3a19.4,19.4,0,0,1,.2-2.4h1.2l-1.2-2.4c0-1-.1-1.9-.1-2.9l-1.1,1-1.5-1.9c.2,1,.5,2,.7,3.1l-.6,1.7,1.4.9C319.3,161.4,319.7,162.4,320,163.3Z" fill="#fff"/></g><g clip-path="url(#ba391b66-5693-476f-9b85-f304a03ef4a7)"><rect x="72.5" y="183.8" width="32.4" height="26.34" transform="translate(-126.8 211.7) rotate(-69.7)" fill="url(#ed2f5279-504f-40c7-a349-f7a26e7398da)"/></g><g clip-path="url(#f876196f-db72-4e25-b016-2fee330c9ee8)"><rect x="239.6" y="177.3" width="34.4" height="36.47" transform="translate(26.2 421.5) rotate(-81.7)" fill="url(#a797ba73-ae47-437e-9175-e3919c9ebbbd)"/></g><g clip-path="url(#b0a16179-3789-412e-bfb4-29bbecd93ac4)"><rect x="186.7" y="230.4" width="34.4" height="36.47" transform="translate(-116.5 221.4) rotate(-45.8)" fill="url(#b1e39a2b-7361-4576-9d29-31a9558ba084)"/></g><g clip-path="url(#a8e4ef82-5e99-41a0-8475-851b574f6a8f)"><rect x="111.2" y="227.5" width="26.3" height="32.41" transform="translate(-3.4 1.7) rotate(-0.8)" fill="url(#f1b540d6-ec0b-4db5-8c53-52c629c5dbbd)"/></g><g clip-path="url(#b522f8f2-60fb-4463-be79-e53f82faca93)"><rect x="60.7" y="65.3" width="226.3" height="216.66" transform="translate(-41.9 56) rotate(-16.4)" fill="url(#fd0aacbd-3f7e-4343-a6ae-c23fa70d60c6)"/></g><g clip-path="url(#bd0341ce-6bb9-45cd-ad49-c90c5a725191)"><rect x="46.6" y="44.7" width="254.5" height="257.17" transform="translate(-61.6 242.8) rotate(-61.4)" fill="url(#f589f5b8-3d71-427f-8405-70675c295e31)"/></g><path d="M237.9,97.3c-.3,4.9,4.1,9.2,10,9.7s10.9-3.2,11.3-8-4.1-9.2-9.9-9.7-11,3.2-11.4,8" fill="#efdc3c"/><path d="M227.2,95.7c-2.6,4.2-.7,10.1,4.2,13.2s11.2,2.4,13.8-1.7.7-10-4.3-13.2-11.1-2.4-13.7,1.7" fill="#efdc3c"/><path d="M240.4,106.5c-1.6,4.6,1.6,10,7.1,11.9s11.4-.2,13-4.8-1.5-9.9-7.1-11.8-11.4.1-13,4.7" fill="#efdc3c"/><path d="M227.6,94.7c3.9,3,9.9,1.6,13.5-3.1s3.4-10.9-.5-13.8-9.9-1.6-13.5,3.1-3.4,10.9.5,13.8" fill="#eebc2a"/><path d="M212.7,83.8c-2.6,4.2-.7,10.1,4.2,13.2s11.2,2.4,13.8-1.7.7-10-4.2-13.2-11.2-2.4-13.8,1.7" fill="#eebc2a"/><path d="M225.9,94.6c-1.6,4.6,1.6,10,7.1,11.9s11.4-.2,13.1-4.8-1.6-9.9-7.2-11.8-11.3.1-13,4.7" fill="#eebc2a"/><path d="M248.6,101.4a7.8,7.8,0,0,1-1.9,5.1l-.3.4-.3.3-.4.3-.3.3-.4.2-.3.3a19.2,19.2,0,0,1-2.5,1.2h-1.8c-8.8,1.2-13.8-7.2-16.5-14.1-.3-1-.7-2.1-1.1-3.1l-.3-.7a16.5,16.5,0,0,0-3.8-6.2l-.2-.2a8.1,8.1,0,0,0-7.5-1.2h-.7L210,84l-1-1.7c0-.2-.1-.3-.1-.5l.5-.2a11,11,0,0,1,10.4,1.1c3.6,2.4,5.2,6.4,6.7,10.2,2.1,5.6,4.9,13.4,11.8,14.5,3.9.4,8.6-1.9,8.6-6.5s-5.9-6-8.7-5.8a11.7,11.7,0,0,0-7.1,2.4l-.8.6h-.9l.3-.2a29,29,0,0,1,3.3-2c5.8-2.5,15.2-.8,15.6,6.9" fill="#008742"/><path d="M219.5,95l-1.9-.5a21.3,21.3,0,0,1-15.5-19.8l3.2-.3A22.2,22.2,0,0,0,219.5,95" fill="#7db82e"/><path d="M224.4,99.7h.9l-.6.3-.5.2-.5.2-.5.2h-.5l-.5.2h-.6l-.6.2h-.5a24.1,24.1,0,0,1-7.1.2h-1.7l-.6-.2-.6-.2-.5-.2c-4.2-1.8-6.9-4.9-7.4-9.5V89.1a4.3,4.3,0,0,0,.1-.5,1.9,1.9,0,0,0,.2-.7v-.2a2,2,0,0,1,.4-.8v-.2l2.2,3v3.5c1.5,6.4,9.4,8,15,7.4H223l1.4-.5" fill="#7db82e"/><path d="M146.2,195.4a28.3,28.3,0,0,0,4,3.8c5.1,3.8,11.9,5.8,19.3,5.8,9.2,0,18.3-3.3,24.4-8.8s8.4-15.3,5.9-21.8c-1.6-4.1-5.1-6.2-10.1-6.1-3.2.1-5.8,1.3-8.5,2.6s-6.3,2.9-10.4,2.5a29.2,29.2,0,0,1-8.4-2.5c-2.8-1.2-5.5-2.3-8.4-2.3h-.7c-5.9,0-10,2-11.9,5.9-2.9,6.2.2,15.2,4.8,20.9" fill="#2c230d"/><path d="M154,168c-4.8-.1-8.3,1.1-10.5,3.1.3,5.1,3,10,8.5,10.2s8.2-5.6,9.1-11.5A21.8,21.8,0,0,0,154,168" fill="#fff"/><path d="M189.7,167.8c-4.7.1-8.1,2.5-12,4,2.4,6.9,11.1,13,14.9-3.8a13.7,13.7,0,0,0-2.9-.2" fill="#fff"/><path d="M191.9,198.6c-6.6-7.2-12.9-14-24.7-10.6-7.8,2.3-11.8,7.4-13.7,13.9,11.6,6.1,27.9,4.4,38.4-3.3" fill="#e14d11"/><path d="M143.4,114.8c27.6,8.7,19.4,55.6-12.1,44.6-25.2-8.9-17-53.7,12.1-44.6" fill="#fff"/><path d="M136.2,129.2c13.6,3,11.6,30.5-4.9,25.4-14.1-4.4-10.7-28.8,4.9-25.4" fill="#2c230d"/><path d="M205.9,114.8c27.6,8.7,19.3,55.6-12.1,44.6-25.3-8.9-17-53.7,12.1-44.6" fill="#fff"/><path d="M198.7,129.2c13.6,3,11.6,30.5-4.9,25.4-14.2-4.4-10.7-28.8,4.9-25.4" fill="#2c230d"/><g opacity="0.5"><g clip-path="url(#fc6d684c-1fc1-4915-99a8-97d0ddef5a13)"><path d="M248.5,160.2c3.5,4.7,3.3,12.9-3,16.4s-17.7,1.5-21.4-3.4c-7.8-10.3,15.1-25.3,24.4-13" fill="#e0256d"/></g></g><g opacity="0.5"><g clip-path="url(#fc633602-25f5-4240-bc1b-e87d73f6d405)"><path d="M95.1,161.6c-3.5,4.6-3.4,12.8,3,16.4s17.7,1.4,21.4-3.4c7.8-10.3-15.1-25.3-24.4-13" fill="#e0256d"/></g></g><path d="M91.2,228.2l-7.4,1-19-170a4.4,4.4,0,0,1,7.4-1Z" fill="#563424"/><path d="M83.8,229.2l-19-170a4.4,4.4,0,0,1,3.4-2.6Z" fill="#774531"/><path d="M94.4,216.3c1.2.1-.6,10.5.7,15.6v.6l1,7a181.7,181.7,0,0,1,28.5,45l-1.1-1.2-.7-.8a7.9,7.9,0,0,0,.5,1l1.1,2.2c.2.6.3,1.2.5,1.7l-1.5.6c0-.1,0-.1-.1-.2a10.5,10.5,0,0,0-1.5-2.6,3.8,3.8,0,0,0-1-1l.7,1.1a11.5,11.5,0,0,1,.8,2.8v.3a12.3,12.3,0,0,1-1.3.5,40.2,40.2,0,0,1-1.8-3.6,44.8,44.8,0,0,0-2.2-4.4,10.6,10.6,0,0,0-1.2-1.9c.1.2.5.9,1,2s1,2.9,1.5,4.6.9,2.6,1.4,3.7l-4.2,1.5a10.9,10.9,0,0,0-.5-1.7c-.5-1.2-1.1-2.4-1.5-3.2a3,3,0,0,1-.6-1.4,6.4,6.4,0,0,0,.3,1.5,22.2,22.2,0,0,1,.9,3.3,12.4,12.4,0,0,1,.2,1.8,30.3,30.3,0,0,1-4.3,1.2,4.3,4.3,0,0,0-.1-.5,25.8,25.8,0,0,0-.8-2.6c-.6-1.7-1.2-3.3-1.8-4.6s-.7-1.8-.8-2,.3,1,.6,2.1.8,3,1.1,4.8.3,1.7.5,2.5a1.3,1.3,0,0,0,.1.6l-4.6,1-.3-.9a15.6,15.6,0,0,0-1.8-4.5,4.9,4.9,0,0,0-1-1.3l-.4-.4.4.5.8,1.3a18.3,18.3,0,0,1,1.1,4.6,2.8,2.8,0,0,1,.1.9c-2.7.5-5.4.9-8.2,1.2-.3-.8-.6-1.6-.8-2.3s-.4-1.2-.4-1.3.1.6.2,1.4a11.1,11.1,0,0,0,.3,2.3l-3.6.3h-1l-.2-.7a27,27,0,0,0-1.6-4.1,12.3,12.3,0,0,0-1-1.6,7.8,7.8,0,0,1,.7,1.8,20.5,20.5,0,0,1,1,4.1,1.3,1.3,0,0,1,.1.6H81.8c-.3-2.2-.7-4.4-1.1-6.1a10.3,10.3,0,0,1-.4-1.4l-.4-1-.4-.9a4.6,4.6,0,0,1,.3.9l.3,1.1.3,1.4a46.7,46.7,0,0,1,.6,6H76.6c-.3-3.2-.7-6.3-1.1-8.6s-.8-4-.8-4.3.3,2,.5,4.3.5,5.4.6,8.5H74.4v-.2a23,23,0,0,0-.2-2.8,5.3,5.3,0,0,0-.3-1.1,3.9,3.9,0,0,1,0,1.1,14.7,14.7,0,0,1-.4,2.7.4.4,0,0,0-.1.3l-3.2-.3c0-.1.1-.1.1-.2a19.3,19.3,0,0,0,.9-3.4,5.8,5.8,0,0,0,.2-1.5,11.9,11.9,0,0,1-.4,1.4c-.4.9-.9,2-1.5,3.1l-.3.5-1.7-.2c.1-.7.3-1.4.4-2.1l1.1-3.9a14.7,14.7,0,0,0,.5-1.7,10.1,10.1,0,0,1-.8,1.6,34,34,0,0,0-1.6,3.7l-.5,1.2c1.9-14.8,6-29.7,11.1-44.7.8-2.4,1.7-4.8,2.6-7.3l-.9-6.4v-.6l-1.5-7c-.5-3.8,6.1-6.5,11.8-8S94.4,216.3,94.4,216.3Z" fill="#d08000"/><path d="M117.6,288a30.4,30.4,0,0,0-1.4-5.6A35.4,35.4,0,0,0,114,277a15.7,15.7,0,0,0-1.3-2.2,15.5,15.5,0,0,1,1,2.4,38.6,38.6,0,0,1,1.7,5.4,44.9,44.9,0,0,1,.7,5.6c.1,1.2.1,2.1.1,2.4l1.7-.6A10.6,10.6,0,0,0,117.6,288Z" fill="#bc7015"/><path d="M110.5,280.8s.1,3.4.4,6.8c.1,1.6.3,3.2.5,4.4l1.4-.4c-.3-1.2-.7-2.7-1-4.2C111,284.1,110.5,280.8,110.5,280.8Z" fill="#bc7015"/><path d="M97.5,285.8q-.6-3.3-1.2-6.9a120.4,120.4,0,0,0-2.8-12.8c-.5-1.7-1-3.2-1.3-4.1l-.5-1.6a14.5,14.5,0,0,0,.4,1.6c.3,1,.7,2.4,1.1,4.2A91.2,91.2,0,0,1,95.4,279c.3,2.4.6,4.8.8,7a46.8,46.8,0,0,1,.5,6,26,26,0,0,1,0,2.8l1.7-.2c0-.8-.1-1.7-.1-2.7S97.8,288,97.5,285.8Z" fill="#bc7015"/><path d="M122.4,282.3c-.9-1.6-1.9-3.5-3.1-5.4s-2.6-3.8-4-5.8c-2.8-3.9-5.7-7.6-7.7-10.6-1.1-1.5-1.8-2.7-2.4-3.6a9.9,9.9,0,0,1-.7-1.5,9.9,9.9,0,0,0,.7,1.5,41.9,41.9,0,0,0,2.1,3.8c1.9,3,4.6,7,7.2,10.9,1.3,2,2.6,4,3.7,6s2,3.8,2.8,5.4l1.1,2.6a11.4,11.4,0,0,1,1.2,2.2c0,.1.1.1.1.2l1.2-.5c-.1-.3-.2-.7-.4-1.2S123.2,283.9,122.4,282.3Z" fill="#bc7015"/><path d="M100.1,269.8l-.8-1.3a9.2,9.2,0,0,0,.7,1.3,32.9,32.9,0,0,1,1.9,3.5,57.1,57.1,0,0,1,4.3,11.2,49.8,49.8,0,0,1,1.4,6.2l.3,2.2,1-.3a1.3,1.3,0,0,1-.1-.6,22.1,22.1,0,0,0-.5-2.5c-.3-1.8-.8-3.5-1.1-4.8l-.3-1.1a69,69,0,0,0-4.7-10.4C101.4,271.7,100.6,270.6,100.1,269.8Z" fill="#bc7015"/><path d="M85.3,285.6a47,47,0,0,0-1.5-7.8,20.6,20.6,0,0,0-.7-2.5l-.3-.9a6.6,6.6,0,0,1,.2.9,26.1,26.1,0,0,1,.6,2.6,53.7,53.7,0,0,1,.8,7.8,43.8,43.8,0,0,1-.6,7.7,10.9,10.9,0,0,1-.4,2.2h1.8a16.8,16.8,0,0,1,.2-2A73,73,0,0,0,85.3,285.6Z" fill="#bc7015"/><path d="M75.2,286.9c-.3-2.6-.6-4.4-.6-4.4a26.3,26.3,0,0,1,.6,2.7A43.3,43.3,0,0,1,75,278a30.6,30.6,0,0,1,1.5-8.2c.8-2.6,1.7-5,2.5-7,1.5-4,2.3-6.8,2.3-6.8s-.9,2.7-2.6,6.7c-.8,2-1.9,4.3-2.8,6.9a31.4,31.4,0,0,0-1.8,8.3c-.6,5.8.2,11.6.7,15.9a10,10,0,0,1,.2,1.6h.7A69.5,69.5,0,0,0,75.2,286.9Z" fill="#bc7015"/><path d="M89.6,219.5c2,1.7-7.2,14.1-6.3,21.7s-3.7,26.6-1.4,32.2c3.1,7.7,3.1,17.2,1.2,22.2H81.8c-.3-2.2-.7-4.4-1.1-6.1a10.3,10.3,0,0,1-.4-1.4l-.4-1-.4-.9a4.6,4.6,0,0,1,.3.9l.3,1.1.3,1.4a46.7,46.7,0,0,1,.6,6H76.6c-.3-3.2-.7-6.3-1.1-8.6s-.8-4-.8-4.3.3,2,.5,4.3.5,5.4.6,8.5H74.4v-.2a23,23,0,0,0-.2-2.8,5.3,5.3,0,0,0-.3-1.1,3.9,3.9,0,0,1,0,1.1,14.7,14.7,0,0,1-.4,2.7.4.4,0,0,0-.1.3l-3.2-.3c0-.1.1-.1.1-.2a19.3,19.3,0,0,0,.9-3.4,5.8,5.8,0,0,0,.2-1.5,11.9,11.9,0,0,1-.4,1.4c-.4.9-.9,2-1.5,3.1l-.3.5-1.7-.2c.1-.7.3-1.4.4-2.1l1.1-3.9a14.7,14.7,0,0,0,.5-1.7,10.1,10.1,0,0,1-.8,1.6,34,34,0,0,0-1.6,3.7l-.5,1.2c1.9-14.8,6-29.7,11.1-44.7.8-2.4,1.7-4.8,2.6-7.3l-.9-6.4v-.6l-1.5-7C77.3,223.7,83.9,221,89.6,219.5Z" fill="#ed912e" opacity="0.3" style="mix-blend-mode:screen"/><polygon points="95.1 231.9 95.5 235.2 79.5 236 79.3 234.5 95.1 231.9" fill="#563424"/><polygon points="95.8 237.4 96.1 239.5 80.3 241.5 79.7 236.8 95.8 237.4" fill="#563424"/></g></g></g></svg>