<svg xmlns="http://www.w3.org/2000/svg" xmlns:xlink="http://www.w3.org/1999/xlink" viewBox="0 0 391.8 309.7"><defs><clipPath id="e67ca09d-6ece-4787-960a-c2eef2dc2270"><path id="f65b52e9-b971-45ed-996a-2c911f026b48" data-name="SVGID" d="M220.2,198.3c10.8,4.8,21.8,6.1,24.5,2.8s-3.7-9.8-14.5-14.6-21.8-6.1-24.6-2.8a2.8,2.8,0,0,0-.6,1.8c0,3.5,6.1,8.7,15.2,12.8" fill="none"/></clipPath><linearGradient id="f176f705-cc57-4639-ad9c-7e4077d6498a" x1="-3211.41" y1="311.11" x2="-3210.97" y2="311.11" gradientTransform="matrix(-96.27, -7.36, 10.13, -67.06, -312083.15, -2566)" gradientUnits="userSpaceOnUse"><stop offset="0" stop-color="#81ae46"/><stop offset="0.06" stop-color="#86b149"/><stop offset="0.4" stop-color="#9dbf57"/><stop offset="0.72" stop-color="#abc85f"/><stop offset="1" stop-color="#b0cb62"/></linearGradient><clipPath id="a537cb63-0994-467b-9ba9-58ac4ce74f85"><path id="f6927381-d24a-4047-a7e1-3c32d12060cd" data-name="SVGID" d="M72.5,189.5c-9.4,7.1-15.8,16.2-14.3,20.2s10.4,1.4,19.8-5.8,15.8-16.2,14.3-20.1a2.9,2.9,0,0,0-1.3-1.4c-3.1-1.7-10.6,1.1-18.5,7.1" fill="none"/></clipPath><linearGradient id="b38dfe16-5348-45f0-9a08-2bb96b864471" x1="-3163.83" y1="342.59" x2="-3163.39" y2="342.59" gradientTransform="matrix(52.74, -80.88, 53.93, 41.12, 148436, -269768.8)" xlink:href="#f176f705-cc57-4639-ad9c-7e4077d6498a"/><clipPath id="af8c8542-0148-47f8-bb71-3a805cc600a1"><path id="ab699bc3-2663-4f4b-ad2f-c9979eba9a77" data-name="SVGID" d="M176.4,239.5c7.7,7.3,16.8,11.3,20.2,8.9s-.2-10.2-8.1-17.3-16.7-11.3-20.1-8.9a2.6,2.6,0,0,0-1.1,1.4c-1,3.3,2.5,9.8,9.1,15.9" fill="none"/></clipPath><linearGradient id="b7c5b2d2-2bdf-4be4-b55e-45399ce26eaf" x1="-3215.38" y1="300.92" x2="-3214.95" y2="300.92" gradientTransform="matrix(-81.16, -32.87, 29.05, -62.81, -269505.59, -86533.9)" gradientUnits="userSpaceOnUse"><stop offset="0" stop-color="#7fa746"/><stop offset="0.02" stop-color="#81a847"/><stop offset="0.38" stop-color="#98b755"/><stop offset="0.71" stop-color="#a6c15e"/><stop offset="1" stop-color="#abc461"/></linearGradient><clipPath id="f076d6c0-0092-4324-89ba-8fdc8fb7d735"><path id="e9f97d18-2ed1-4666-b4e7-a1f9cf5cd28a" data-name="SVGID" d="M109.1,237.2c-1.5,9.8.7,18.5,4.9,19.3s8.7-6.7,10-16.6-.7-18.5-4.8-19.2a3.5,3.5,0,0,0-2,.2c-3.5,1.4-6.9,7.9-8.1,16.3" fill="none"/></clipPath><linearGradient id="ee35193e-a168-405f-a73b-5253bad31bdb" x1="-3194.74" y1="339.43" x2="-3194.31" y2="339.43" gradientTransform="matrix(-22.27, -75.67, 72.75, -20.74, -95720.47, -234453.35)" xlink:href="#b7c5b2d2-2bdf-4be4-b55e-45399ce26eaf"/><clipPath id="a6981d6b-dfa5-45d4-a3a1-6423eaba5412"><path id="ba28738e-70e7-4cd3-b7ab-98c49bff76d5" data-name="SVGID" d="M67.7,133.9a83.7,83.7,0,1,0,102.1-60,83.6,83.6,0,0,0-102.1,60" fill="none"/></clipPath><linearGradient id="bd684e9e-e44d-424a-b9b4-15d7263807bc" x1="-3190.97" y1="321.54" x2="-3190.55" y2="321.54" gradientTransform="matrix(-338.32, 199, -199, -338.32, -1015354.34, 743899.85)" gradientUnits="userSpaceOnUse"><stop offset="0" stop-color="#abc461"/><stop offset="1" stop-color="#abc461"/><stop offset="1" stop-color="#7fa746"/></linearGradient><clipPath id="e1c4e824-c504-4b27-ac73-e6182ecf3f2c"><path id="ecd9e114-b3f1-485c-9e0b-06290fe8f805" data-name="SVGID" d="M81.7,110.7a80.3,80.3,0,1,0,38.6-30.9,79.4,79.4,0,0,0-38.6,30.9" fill="none"/></clipPath><linearGradient id="b0766fd2-0549-4c4b-b28e-af683eaa852b" x1="-3192.26" y1="324.4" x2="-3191.83" y2="324.4" gradientTransform="matrix(-364.39, -94.51, 94.51, -364.39, -1193669.43, -183299.36)" xlink:href="#b7c5b2d2-2bdf-4be4-b55e-45399ce26eaf"/><linearGradient id="be5aa7f3-81f7-4697-8835-994cca6c0779" x1="-3192.26" y1="324.71" x2="-3191.84" y2="324.71" gradientTransform="matrix(-364.39, -94.51, 94.51, -364.39, -1193669.43, -183299.36)" xlink:href="#b7c5b2d2-2bdf-4be4-b55e-45399ce26eaf"/></defs><title>資產 4</title><g id="bcd5eeba-f56a-4460-a4dd-d23fdc4cf2c7" data-name="圖層 2"><g id="ab11e31c-4e01-4629-b3b2-cb6ce88a825d" data-name="圖層 4"><g clip-path="url(#e67ca09d-6ece-4787-960a-c2eef2dc2270)"><polygon points="250.5 181.3 205.3 177.4 202 203.5 247.2 207.4 250.5 181.3" fill="url(#f176f705-cc57-4639-ad9c-7e4077d6498a)"/></g><g clip-path="url(#a537cb63-0994-467b-9ba9-58ac4ce74f85)"><polygon points="72.8 224.3 98 186.5 76.7 171.1 51.5 208.8 72.8 224.3" fill="url(#b38dfe16-5348-45f0-9a08-2bb96b864471)"/></g><g clip-path="url(#af8c8542-0148-47f8-bb71-3a805cc600a1)"><polygon points="207.6 231.3 170.1 216.1 159.2 239.8 196.7 255 207.6 231.3" fill="url(#b7c5b2d2-2bdf-4be4-b55e-45399ce26eaf)"/></g><g clip-path="url(#f076d6c0-0092-4324-89ba-8fdc8fb7d735)"><polygon points="135.7 252.9 125.5 217.9 98.1 225.7 108.4 260.8 135.7 252.9" fill="url(#ee35193e-a168-405f-a73b-5253bad31bdb)"/></g><g clip-path="url(#a6981d6b-dfa5-45d4-a3a1-6423eaba5412)"><path d="M281.1,191.1a53,53,0,0,0,7-12.4L191.8,15.1,3.9,125.5,109.7,305.4,282.3,203.9C278.8,200.9,277.4,196,281.1,191.1Z" fill="url(#bd684e9e-e44d-424a-b9b4-15d7263807bc)"/></g><g clip-path="url(#e1c4e824-c504-4b27-ac73-e6182ecf3f2c)"><path d="M284,111.4c-7.1-13.5-10.8-27.7-7.2-42.8a9,9,0,0,1,.8-2.3L61.5,10.2,0,247.6l239.8,62.1,49.8-192.3c0-.3-.1-.6-.1-1A9.5,9.5,0,0,1,284,111.4Z" fill="url(#b0766fd2-0549-4c4b-b28e-af683eaa852b)"/><path d="M298.6,71.7a10.3,10.3,0,0,1-.4,3,26.6,26.6,0,0,0-.2,10.5l3.3-12.8Z" fill="url(#be5aa7f3-81f7-4697-8835-994cca6c0779)"/></g><path d="M206,85.6c-.4,4.7,3.8,8.9,9.5,9.4s10.5-3,11-7.6-3.9-8.9-9.6-9.4-10.5,3-10.9,7.6" fill="#dacc48"/><path d="M195.6,84.1c-2.5,3.9-.7,9.6,4.1,12.7s10.6,2.3,13.1-1.6.8-9.6-4-12.7-10.7-2.4-13.2,1.6" fill="#dacc48"/><path d="M208.3,94.5c-1.6,4.4,1.4,9.6,6.8,11.5s10.9-.1,12.6-4.5-1.5-9.6-6.9-11.5-10.9.1-12.5,4.5" fill="#dacc48"/><path d="M196,83.1c3.8,2.9,9.6,1.5,13.1-2.9s3.2-10.5-.5-13.4-9.5-1.6-13,3-3.3,10.5.4,13.3" fill="#dcb036"/><path d="M181.7,72.5c-2.5,3.9-.7,9.7,4,12.8s10.7,2.4,13.3-1.6.7-9.7-4-12.7-10.7-2.4-13.3,1.5" fill="#dcb036"/><path d="M194.4,83c-1.6,4.4,1.5,9.5,6.8,11.5s10.9-.1,12.5-4.6-1.4-9.5-6.7-11.4-11,.1-12.6,4.5" fill="#dcb036"/><path d="M216.1,89.7a6.8,6.8,0,0,1-1.8,4.9l-.3.3-.3.3-.3.2-.3.3-.4.3-.3.2L210,97.4h-1.8c-8.5,1.1-13.2-7-15.7-13.7-.4-1-.8-2-1.1-3l-.3-.7a16.2,16.2,0,0,0-3.6-5.9l-.3-.3a8.1,8.1,0,0,0-7.1-1.2h-.7l-.3-.5-.9-1.7-.2-.4.5-.2a10.7,10.7,0,0,1,10,1c3.5,2.4,5,6.2,6.5,9.9,2,5.4,4.6,13,11.2,14,3.8.5,8.3-1.8,8.4-6.2s-5.7-5.8-8.3-5.6a11.4,11.4,0,0,0-6.9,2.3l-.8.6h-1.2v-.2h.3l.4-.3c1.1-.6,1.9-1.2,3.2-1.8,5.4-2.3,14.5-.7,14.8,6.8" fill="#157c3f"/><path d="M188.2,83.2a7.2,7.2,0,0,1-1.9-.4,20.4,20.4,0,0,1-14.7-19.2l3-.2a21.2,21.2,0,0,0,13.6,19.8" fill="#75a734"/><path d="M192.9,87.9h.9l-.6.3-.5.2-.5.2h-.5l-.5.2h-.5l-.5.2h-1.1a22.1,22.1,0,0,1-6.8.2h-1.7l-.5-.2-.6-.2L179,90c-4-1.8-6.6-4.8-7.1-9.1V78l.2-.4a.7.7,0,0,1,.1-.6c0-.2.2-.4.2-.6v-.2l.3-.8v-.2l2.1,2.9v3.4c1.4,6.1,9,7.8,14.4,7.2h2l1.4-.4" fill="#75a734"/><path d="M244.6,108.1s-10.9,9.1-24.5,7.3c-10.2-1.3-88.4-12.1-118-15.5-3.6-.4-11.1-.5-14.5-1.6S73.9,89.5,73.9,84.9s12.6-2,14.9-1.8,13,1.7,13,1.7,8.2-21.5,11.1-28.2,3.9-24.1,52.1-14.4c14.6,3,45.9,3.3,49.9,8.1s5,24.6,5.2,31.5.4,21.6,2.7,22.5a57.1,57.1,0,0,0,11.5,2.2C239.9,107,245.2,106.9,244.6,108.1Z" fill="#221714"/><path d="M206,85.6c-.4,4.7,3.8,8.9,9.5,9.4s10.5-3,11-7.6-3.9-8.9-9.6-9.4-10.5,3-10.9,7.6" fill="#dacc48"/><path d="M195.6,84.1c-2.5,3.9-.7,9.6,4.1,12.7s10.6,2.3,13.1-1.6.8-9.6-4-12.7-10.7-2.4-13.2,1.6" fill="#dacc48"/><path d="M208.3,94.5c-1.6,4.4,1.4,9.6,6.8,11.5s10.9-.1,12.6-4.5-1.5-9.6-6.9-11.5-10.9.1-12.5,4.5" fill="#dacc48"/><path d="M196,83.1c3.8,2.9,9.6,1.5,13.1-2.9s3.2-10.5-.5-13.4-9.5-1.6-13,3-3.3,10.5.4,13.3" fill="#dcb036"/><path d="M181.7,72.5c-2.5,3.9-.7,9.7,4,12.8s10.7,2.4,13.3-1.6.7-9.7-4-12.7-10.7-2.4-13.3,1.5" fill="#dcb036"/><path d="M194.4,83c-1.6,4.4,1.5,9.5,6.8,11.5s10.9-.1,12.5-4.6-1.4-9.5-6.7-11.4-11,.1-12.6,4.5" fill="#dcb036"/><path d="M216.1,89.7a6.8,6.8,0,0,1-1.8,4.9l-.3.3-.3.3-.3.2-.3.3-.4.3-.3.2L210,97.4h-1.8c-8.5,1.1-13.2-7-15.7-13.7-.4-1-.8-2-1.1-3l-.3-.7a16.2,16.2,0,0,0-3.6-5.9l-.3-.3a8.1,8.1,0,0,0-7.1-1.2h-.7l-.3-.5-.9-1.7-.2-.4.5-.2a10.7,10.7,0,0,1,10,1c3.5,2.4,5,6.2,6.5,9.9,2,5.4,4.6,13,11.2,14,3.8.5,8.3-1.8,8.4-6.2s-5.7-5.8-8.3-5.6a11.4,11.4,0,0,0-6.9,2.3l-.8.6h-1.2v-.2h.3l.4-.3c1.1-.6,1.9-1.2,3.2-1.8,5.4-2.3,14.5-.7,14.8,6.8" fill="#157c3f"/><path d="M188.2,83.2a7.2,7.2,0,0,1-1.9-.4,20.4,20.4,0,0,1-14.7-19.2l3-.2a21.2,21.2,0,0,0,13.6,19.8" fill="#75a734"/><path d="M192.9,87.9h.9l-.6.3-.5.2-.5.2h-.5l-.5.2h-.5l-.5.2h-1.1a22.1,22.1,0,0,1-6.8.2h-1.7l-.5-.2-.6-.2L179,90c-4-1.8-6.6-4.8-7.1-9.1V78l.2-.4a.7.7,0,0,1,.1-.6c0-.2.2-.4.2-.6v-.2l.3-.8v-.2l2.1,2.9v3.4c1.4,6.1,9,7.8,14.4,7.2h2l1.4-.4" fill="#75a734"/><path d="M155.3,192.1c0,3.2-5.3,5.8-11.8,5.8s-11.9-2.6-11.9-5.8,5.3-5.9,11.9-5.9S155.3,188.8,155.3,192.1Z" fill="#ac3b3c"/><path d="M183.4,187.9a9.3,9.3,0,0,1-6.8,1.2c-5.1-.9-9.9-6.4-11.5-8.9-2.9-4.6-7.2-10.1-12.8-10.8s-8.8,5.9-8.8,5.9-3.3-6.6-8.9-5.9-9.9,6.2-12.7,10.8c-1.6,2.5-6.5,8-11.6,8.9a9.5,9.5,0,0,1-6.8-1.2s-.7,3.7,4.2,5.2c9.8,3,27.5,1.3,33.4-7.9a17.1,17.1,0,0,0,2.4-6,15,15,0,0,0,2.4,6c5.9,9.2,23.5,10.9,33.3,7.9C184.1,191.6,183.4,187.9,183.4,187.9Z" fill="#161722"/><path d="M166.9,147.4c11.9,1.6,23.1,7,34.6,1.1,3-1.5.4-5.9-2.6-4.4-9.9,5.1-20.5-.2-30.6-1.6-3.2-.4-4.6,4.5-1.4,4.9Z" fill="#161722"/><path d="M129.1,139.8c-10.2,1.3-20.8,6.6-30.7,1.5-2.9-1.5-5.5,3-2.6,4.5,11.6,5.9,22.8.5,34.7-1.1,3.2-.5,1.8-5.4-1.4-4.9Z" fill="#161722"/><path d="M55.9,178.7l-29,19.6s-1.3,1,.1,1.8l60.3,25.2a2.5,2.5,0,0,0,2.2-.2l29.7-20c1.3-.9-.5-1.7-.5-1.7l-59.8-25A3.6,3.6,0,0,0,55.9,178.7Z" fill="#6270b3"/><path d="M78.5,188l-5.8,3.8s-.2.2.1.4l14.9,6.1c.2.1.4-.1.4-.1l6-3.9c.2-.2-.2-.3-.2-.3l-14.8-6.1A.7.7,0,0,0,78.5,188Z" fill="#7786c1"/><path d="M94.1,194.3h-.2l-14.8-6a.7.7,0,0,0-.6.1l-5.6,3.7h-.1c-.3-.2-.1-.4-.1-.4l5.8-3.8a.7.7,0,0,1,.6-.1L93.9,194S94.3,194.1,94.1,194.3Z" fill="#2c365f"/><polygon points="119.7 204.3 119.7 204.3 119.7 204.3 119.7 204.3" fill="#6d7296"/><path d="M88.4,225.5a2.6,2.6,0,0,0,1.1-.4l29.7-20c.3-.3.5-.5.5-.7.2,2.5-.5,3.3-.5,3.3L89.5,227.8a2.6,2.6,0,0,1-1.1.4Z" fill="#414286"/><path d="M26.4,199Z" fill="#8085af"/><path d="M26.4,199.1c-.1.3,0,.7.6,1l60.3,25.2a3,3,0,0,0,1.3.2v2.6a2,2,0,0,1-1.3-.1L26.7,202.7C25.5,202.2,26.2,199.6,26.4,199.1Z" fill="#2c365f"/><path d="M50.6,185.3l-19.1,13a.8.8,0,0,0,.1,1.5l54.7,22.8a2.4,2.4,0,0,0,1.9-.1l19.6-13.4c1.1-.7-.4-1.3-.4-1.3L53,185A2.7,2.7,0,0,0,50.6,185.3Z" fill="#7786c1"/><path d="M99.6,209.7l-2.3-1.1h-.1v-.2l2.2-1.5h.4l2.3,1s.1.1,0,.1.1.1,0,.1.1,0,0,.1h0c.1.1.1.1,0,.1s.1,0,0,.1h0c.1.1.1.1,0,.1s.1.1,0,.1.1.1,0,.1l-2.2,1.5Z" fill="#314993"/><path d="M95.6,205.3l-2.3,1.6H93l-2.4-1h0V205l2.2-1.4h.4l2.3,1a.1.1,0,0,1,0,.2h0Z" fill="#314993"/><path d="M92.3,204,90,205.5h-.3l-2.4-1h0a.1.1,0,0,1,.1-.1l2.2-1.5h.3l2.3,1c.1,0,.2.1.1.2h0Z" fill="#314993"/><path d="M89,202.6l-2.3,1.5h-.3l-2.4-1h.1l2.2-1.5c.1,0,.3-.1.3,0l2.3.9v.2h0Z" fill="#314993"/><path d="M85.7,201.2l-2.3,1.5a.2.2,0,0,1-.3,0l-2.4-1h.1l2.2-1.5h.3l2.3,1h.1Z" fill="#314993"/><path d="M82.3,199.8l-2.2,1.5h-.3l-2.4-1.1h0c-.1-.1,0-.1.1-.2l2.2-1.5H80l2.3,1h.1A.1.1,0,0,1,82.3,199.8Z" fill="#314993"/><path d="M79,198.4l-2.2,1.5h-.3l-2.4-1.1s-.1,0,0-.1h0c-.1-.1,0-.1,0-.2l2.3-1.4h.3l2.3,1h0Z" fill="#314993"/><path d="M75.7,197l-2.2,1.6h-.4l-2.3-1c-.1-.1-.1-.1,0-.1s-.1-.1,0-.1-.1,0,0-.1h0c-.1-.1-.1-.1,0-.1s-.1-.1,0-.1-.1,0,0-.1h0c-.1,0-.1-.1,0-.1s0-.1,0-.1l2.3-1.5h.3l2.3,1c.1,0,.1.1.1.2h-.1Z" fill="#314993"/><path d="M69.1,194.3l-2.2,1.5h-.4l-2.3-1a.1.1,0,0,1-.1-.1h.1l2.2-1.5h.4l2.3.9v.2h0A.1.1,0,0,1,69.1,194.3Z" fill="#314993"/><path d="M65.8,192.9l-2.2,1.5h-.4l-2.3-1.1h-.1c0-.1,0-.1.1-.2l2.2-1.5h.4l2.3,1h0Z" fill="#314993"/><path d="M62.5,191.5,60.3,193h-.4L57.6,192h-.1v-.2l2.2-1.4h.4l2.3,1h0Z" fill="#314993"/><path d="M55.9,188.8l-2.3,1.5h-.3l-2.3-1a.1.1,0,0,1-.1-.1H51l2.2-1.5h.4l2.3,1a.1.1,0,0,1,0,.2h0Z" fill="#314993"/><path d="M95.8,211.7h0c-.1,0,0-.1,0-.2l2.3-1.4h.3l2.3,1c.1,0,.1.1.1.2h-.1l-2.2,1.6h-.3l-2.4-1C95.8,211.7,95.7,211.7,95.8,211.7Z" fill="#314993"/><path d="M97.4,209.9l-2.2,1.5h-.4l-2.3-1c-.1,0-.1-.1,0-.1s-.1-.1,0-.1-.1,0,0-.1h0c-.1-.1-.1-.1,0-.1s-.1-.1,0-.1h0c-.1-.1-.1-.1,0-.1s-.1-.1,0-.1,0-.1,0-.1l2.3-1.5h.3l2.3,1c.1,0,.1.1.1.2h0C97.5,209.8,97.5,209.8,97.4,209.9Z" fill="#314993"/><path d="M94.1,208.5,91.9,210h-.4l-2.3-1c-.1,0-.1-.1,0-.1s-.1-.1,0-.1h0c-.1-.1-.1-.1,0-.1s-.1-.1,0-.1-.1,0,0-.1h0c-.1,0-.1-.1,0-.1s-.1,0,0-.1-.1-.1,0-.1l2.3-1.5h.3l2.3.9c.1.1.1.1.1.2h-.1Z" fill="#314993"/><path d="M90.8,207.1l-2.2,1.5h-.4l-2.3-1h0l2.2-1.5c.2,0,.3-.1.4,0l2.3,1h0Z" fill="#314993"/><path d="M87.5,205.7l-2.2,1.5h-.4l-2.3-1.1h-.1v-.2l2.2-1.5h.4l2.3,1h0Z" fill="#314993"/><path d="M84.2,204.3,82,205.8h-.4l-2.3-1.1c-.1,0-.1,0-.1-.1h0V204l2.2-1.4h.4l2.3,1s.1.1,0,.1.1.1,0,.1.1.1,0,.1.1,0,0,.1h0c.1,0,.1.1,0,.1s.1,0,0,.1h0c.1.1.1.1,0,.1S84.3,204.3,84.2,204.3Z" fill="#314993"/><path d="M80.9,202.9l-2.3,1.6h-.3l-2.3-1h-.1a.1.1,0,0,1,.1-.1l2.2-1.5h.4l2.3,1a.1.1,0,0,1,0,.2h0c.1.1.1.1,0,.1s.1,0,0,.1h0c.1.1.1.1,0,.1s.1.1,0,.1.1,0,0,.1h0C81,202.9,80.9,202.9,80.9,202.9Z" fill="#314993"/><path d="M77.6,201.6l-2.3,1.5H75l-2.3-1h0l2.2-1.5a.3.3,0,0,1,.4,0l2.3.9c0,.1.1.1,0,.2h0Z" fill="#314993"/><path d="M71,198.8l-2.3,1.5h-.3L66,199.3h0v-.2l2.2-1.5h.3l2.3,1H71Z" fill="#314993"/><path d="M61,194.7l-2.2,1.5h-.3l-2.4-1h.1l2.2-1.5h.3l2.3,1c.1,0,.1.1.1.2h0Z" fill="#314993"/><path d="M57.7,193.3l-2.2,1.5h-.4l-2.3-1s-.1-.1,0-.1,0-.1,0-.1h0c-.1-.1,0-.1,0-.1s0-.1,0-.1,0,0,0-.1h0c-.1-.1,0-.1,0-.1s0,0,0-.1,0-.1,0-.1l2.3-1.5h.3l2.3.9v.2h-.1Z" fill="#314993"/><path d="M88.3,216.1h0v-.2l2.2-1.5h.3l2.3,1h.1L91,217.2h-.3l-2.4-1.1Z" fill="#314993"/><path d="M91.6,213.7h0V213l2.2-1.5h.3l2.3,1h.1l-2.3,1.5H94l-2.4-1.1Z" fill="#314993"/><path d="M93.3,211.9,91,213.4h-.3l-2.4-1.1h0c0-.1,0-.1.1-.2l2.2-1.4h.3l2.3,1h.1Z" fill="#314993"/><path d="M98.9,206.6c.1,0,0,.1,0,.1l-2.3,1.5h-.3L94,207.2h-.1v-.2l2.2-1.4h.4l2.3,1s.1.1,0,.1h0Z" fill="#314993"/><path d="M72.5,195.5v.2l-2.2,1.5c-.1,0-.3.1-.4,0l-2.3-1c-.1,0-.1-.1,0-.1s-.1-.1,0-.1-.1,0,0-.1h0c-.1,0-.1-.1,0-.1s-.1,0,0-.1h0c-.1-.1-.1-.1,0-.1s-.1-.1,0-.1,0-.1,0-.1l2.3-1.5h.3l2.3.9v.2h0Z" fill="#314993"/><path d="M59.2,190c.1.1,0,.1,0,.1l-2.3,1.5h-.3l-2.3-1h-.1v-.2l2.2-1.4h.4l2.3,1a.1.1,0,0,1,0,.2h0c.1,0,.1.1,0,.1s.1,0,0,.1h0c.1.1.1.1,0,.1s.1.1,0,.1h0C59.3,190,59.3,190,59.2,190Z" fill="#314993"/><path d="M74.3,200.1h0L72,201.7a.2.2,0,0,1-.3,0l-2.4-1h.1l2.2-1.5h.3l2.3.9v.2h0Z" fill="#314993"/><path d="M67.7,197.3h0l-2.3,1.5h-.3l-2.4-1.1h0c0-.1,0-.1.1-.2l2.2-1.4h.3l2.3,1h.1Z" fill="#314993"/><path d="M64.4,195.9h-.1l-2.2,1.5h-.3l-2.4-1h0v-.2l2.2-1.4H62l2.3,1c.1,0,.1.1.1.2h0Z" fill="#314993"/><path d="M54.5,191.8h-.1l-2.2,1.5h-.4l-2.3-1c-.1,0-.1-.1,0-.1s-.1,0,0-.1h0c-.1-.1-.1-.1,0-.1s-.1,0,0-.1h0c-.1-.1-.1-.1,0-.1s-.1-.1,0-.1-.1,0,0-.1,0-.1,0-.1l2.3-1.5h.3l2.3,1h.1Z" fill="#314993"/><path d="M83.3,217.3a.1.1,0,0,1,.1-.1l2.2-1.5H86l2.3,1a.1.1,0,0,1,0,.2h0c.1.1.1.1,0,.1s.1.1,0,.1.1,0,0,.1h0c.1,0,.1.1,0,.1s.1,0,0,.1h0c.1.1.1.1,0,.2L86.1,219h-.4l-2.3-1h-.1Z" fill="#314993"/><path d="M73.4,213.2V213l2.2-1.5H76l2.3,1h.1l-2.3,1.5h-.3l-2.4-1.1h0Z" fill="#314993"/><path d="M50.3,203.5v-.2l2.2-1.4h.3L75,211.1h.1l-2.3,1.5h-.3l-22.2-9.3h0Z" fill="#314993"/><path d="M46.9,202.1H47l2.2-1.5h.4l2.3,1v.2h0v.2l-2.2,1.5h-.4l-2.3-1a.1.1,0,0,1-.1-.1h0Z" fill="#314993"/><path d="M37,198v-.2l2.2-1.5h.4l2.3,1s.1.1,0,.1h0l-2.3,1.5h-.3L37,198.6h0Z" fill="#314993"/><path d="M65.1,205.9v-.2l2.2-1.4h.4l2.3,1s.1.1,0,.1.1.1,0,.1.1.1,0,.1.1,0,0,.1h0c.1.1.1.1,0,.1s.1,0,0,.1h0c.1.1.1.1,0,.1s.1.1,0,.1l-2.2,1.5h-.4l-2.3-1h-.1Z" fill="#314993"/><path d="M45.3,197.6c-.1,0,0-.1.1-.2l2.2-1.4h.3l2.3,1c.1,0,.1.1.1.2h-.1L48,199.2h-.3l-2.4-1h0Z" fill="#314993"/><path d="M65.1,202.1h.1l2.2-1.5h.4l2.3,1a.1.1,0,0,1,0,.2h0c.1.1.1.1,0,.1s.1.1,0,.1.1,0,0,.1h0c.1,0,.1.1,0,.1s.1,0,0,.1h0c.1.1.1.1,0,.2l-2.2,1.5h-.4l-2.3-1a.1.1,0,0,1-.1-.1h0Z" fill="#314993"/><path d="M80.1,215.8l2.2-1.5c.1,0,.3-.1.4,0l2.3.9c0,.1.1.1,0,.2h0c.1,0,0,0,0,.1l-2.3,1.5h-.3l-2.3-1h0Z" fill="#314993"/><path d="M76.8,214.4l2.2-1.5h.4l2.2,1h.1l-2.3,1.5a.2.2,0,0,1-.3,0l-2.4-1h.1Z" fill="#314993"/><path d="M43.7,200.6l2.2-1.5h.4l2.3.9c0,.1.1.1,0,.2s.1,0,0,.1h0c.1.1.1.1,0,.1s.1,0,0,.1h0c.1.1.1.1,0,.1s.1.1,0,.1.1,0,0,.1.1,0,0,.1l-2.2,1.5H46l-2.3-1h0Z" fill="#314993"/><path d="M40.4,199.2l2.2-1.5H43l2.3,1s.1,0,0,.1h0c.1,0,0,.1,0,.1L43,201h-.3l-2.3-1h-.1A.1.1,0,0,1,40.4,199.2Z" fill="#314993"/><path d="M51.2,189.8h-.1L48.9,192h-.4L46.2,191c-.1,0-.1,0,0-.1h0c-.1-.1-.1-.1,0-.1s-.1-.1,0-.1-.1,0,0-.1h0c-.1,0-.1-.1,0-.1s-.1,0,0-.1h0c-.1-.1,0-.1,0-.2l2.3-1.5h.3l2.3,1A.1.1,0,0,1,51.2,189.8Z" fill="#314993"/><path d="M85.1,214l2.2-1.4h.3l2.3,1H90a.1.1,0,0,1-.1.1l-2.2,1.5h-.3L85,214.8h0C84.9,214.1,85,214.1,85.1,214Z" fill="#314993"/><path d="M81.7,212.7l2.3-1.5h.3l2.3,1c.1,0,.1.1.1.2h-.1l-2.2,1.6H84l-2.3-1c0-.1-.1-.1,0-.1s0-.1,0-.1,0-.1,0-.1,0,0,0-.1h0c-.1,0,0-.1,0-.1s0,0,0-.1h0c-.1-.1,0-.1,0-.1S81.7,212.7,81.7,212.7Z" fill="#314993"/><path d="M78.4,211.3l2.3-1.5a.2.2,0,0,1,.3,0l2.3.9c.1,0,.1.1.1.2h0v.2l-2.2,1.5h-.4l-2.3-1c-.1,0-.1-.1,0-.1s-.1-.1,0-.1-.1,0,0-.1h0c-.1-.1-.1-.1,0-.1s-.1,0,0-.1h0c-.1-.1-.1-.1,0-.1s-.1-.1,0-.1S78.4,211.3,78.4,211.3Z" fill="#314993"/><path d="M75.1,209.9l2.3-1.5h.3l2.3.9v.2H80l-2.2,1.5c-.1,0-.3.1-.4,0l-2.3-1h0Z" fill="#314993"/><path d="M71.8,208.5,74,207h.4l2.3,1h.1a.1.1,0,0,1-.1.1l-2.2,1.5h-.4l-2.3-1.1c-.1,0-.1,0-.1-.1h.1Z" fill="#314993"/><path d="M68.5,207.1l2.2-1.4h.4l2.3,1h0l-2.2,1.5h-.4l-2.3-1.1h-.1C68.4,207.2,68.4,207.2,68.5,207.1Z" fill="#314993"/><path d="M61.9,204.4l2.2-1.5h.4l2.3,1a.1.1,0,0,1,0,.2h0c.1.1,0,.1,0,.2l-2.3,1.5h-.3l-2.3-1h0Z" fill="#314993"/><path d="M58.6,203l2.2-1.5h.4l2.2.9c.1.1.2.1.1.2h0v.2l-2.3,1.5h-.3l-2.4-1h.1Z" fill="#314993"/><path d="M55.3,201.6l2.2-1.5h.3l2.3.9v.2h0l-2.3,1.5h-.3l-2.4-1h.1Z" fill="#314993"/><path d="M52,200.2l2.2-1.5h.3l2.3,1a.1.1,0,0,1,.1.1h0L54.6,202h-.3L51.9,201h0Z" fill="#314993"/><path d="M48.7,198.8l2.2-1.4h.3l2.3,1h.1l-2.3,1.5H51l-2.4-1.1h0Z" fill="#314993"/><path d="M42,196.1l2.3-1.5h.3l2.3,1c.1,0,.1.1.1.2h0c0,.1,0,.1-.1.2l-2.2,1.5h-.3l-2.4-1s-.1-.1,0-.1h0C41.9,196.2,42,196.1,42,196.1Z" fill="#314993"/><path d="M43.7,194.3h-.1l-2.2,1.5h-.3l-2.4-1h0c-.1,0,0-.1,0-.1l2.3-1.5h.3l2.3.9C43.7,194.2,43.7,194.2,43.7,194.3Z" fill="#314993"/><path d="M85.1,210.3l2.2-1.5h.3l2.3,1c.1,0,.1.1.1.2h-.1l-2.2,1.6h-.3l-2.4-1h.1Z" fill="#314993"/><path d="M81.7,208.9l2.3-1.5h.3l2.3.9v.2h0v.2l-2.2,1.5c-.1,0-.3.1-.4,0l-2.3-1s-.1-.1,0-.1,0-.1,0-.1,0,0,0-.1h0c-.1,0,0-.1,0-.1s0,0,0-.1h0c-.1-.1,0-.1,0-.1s0-.1,0-.1S81.7,208.9,81.7,208.9Z" fill="#314993"/><path d="M78.4,207.5l2.3-1.5H81l2.3.9v.2h0a.1.1,0,0,1-.1.1l-2.2,1.5h-.4l-2.3-1c-.1,0-.1-.1,0-.1s-.1,0,0-.1h0c-.1-.1-.1-.1,0-.1s-.1-.1,0-.1-.1,0,0-.1h0c-.1,0-.1-.1,0-.1s-.1,0,0-.1S78.4,207.5,78.4,207.5Z" fill="#314993"/><path d="M75.1,206.1l2.3-1.5h.3l2.3,1h0l-2.2,1.5h-.4l-2.3-1.1H75C75,206.2,75,206.2,75.1,206.1Z" fill="#314993"/><path d="M71.8,204.7l2.2-1.4h.4l2.3,1h0l-2.2,1.5h-.4l-2.3-1.1h-.1Z" fill="#314993"/><path d="M68.5,203.3l2.2-1.4h.4l2.3,1v.2h-.1l-2.2,1.5h-.4l-2.3-1h-.1Z" fill="#314993"/><path d="M61.9,200.6l2.2-1.5h.4l2.3.9c0,.1.1.1,0,.2h0c.1,0,0,0,0,.1l-2.3,1.5h-.3l-2.3-1h0Z" fill="#314993"/><path d="M58.6,199.2l2.2-1.5h.4l2.2,1c.1,0,.2,0,.1.1h0L61.2,201h-.3l-2.4-1h0A.1.1,0,0,1,58.6,199.2Z" fill="#314993"/><path d="M55.3,197.8l2.2-1.5h.3l2.3,1h.1l-2.3,1.5h-.3l-2.4-1.1h0Z" fill="#314993"/><path d="M52,196.4l2.2-1.4h.3l2.3,1h.1l-2.3,1.5h-.3l-2.4-1.1h0Z" fill="#314993"/><path d="M48.7,195.1l2.2-1.5h.3l2.3,1c.1,0,.1.1.1.2h0l-2.3,1.6H51l-2.4-1h.1Z" fill="#314993"/><path d="M45.4,193.7l2.2-1.5h.3l2.3.9c.1.1.1.1.1.2h0v.2L48,195.5h-.3l-2.4-1h0C45.2,193.8,45.3,193.7,45.4,193.7Z" fill="#314993"/><path d="M47,191.9h-.1l-2.2,1.5h-.3l-2.4-1h.1l2.2-1.5c.1,0,.2-.1.3,0l2.3.9Z" fill="#314993"/><path d="M97.3,207.8c-.1.1-.1.2,0,.2l2.3,1h.4l2.2-1.5c.1-.1.1-.2,0-.2l-2.3-1h-.4Z" fill="#8cbee7"/><path d="M94,206.4c-.1.1-.1.2,0,.2l2.3,1h.3l2.3-1.5a.1.1,0,0,0,0-.2l-2.3-1h-.4Z" fill="#8cbee7"/><path d="M90.7,205v.2l2.4,1.1h.3l2.3-1.5a.1.1,0,0,0,0-.2l-2.3-1h-.4Z" fill="#8cbee7"/><path d="M87.4,203.7a.1.1,0,0,0-.1.1l2.4,1.1H90l2.3-1.5c.1,0,0-.1-.1-.2l-2.3-1h-.3Z" fill="#8cbee7"/><path d="M84.1,202.3c-.1,0-.1.1-.1.2l2.4,1h.3l2.3-1.6c.1,0,0-.1-.1-.2l-2.3-.9c0-.1-.2,0-.3,0Z" fill="#8cbee7"/><path d="M80.8,200.9c-.1.1-.2.1-.1.2l2.4,1h.3l2.3-1.5c.1-.1,0-.2-.1-.2l-2.3-1H83Z" fill="#8cbee7"/><path d="M77.5,199.5c-.1.1-.2.2-.1.2l2.4,1c0,.1.2,0,.3,0l2.2-1.5c.2-.1.1-.2,0-.2L80,198h-.3Z" fill="#8cbee7"/><path d="M74.1,198.1c-.1.1-.1.2,0,.2l2.4,1.1h.3l2.2-1.5c.1-.1.1-.2,0-.2l-2.3-1h-.3Z" fill="#8cbee7"/><path d="M70.8,196.8c-.1,0-.1.1,0,.1l2.3,1.1h.4l2.2-1.5c.1,0,.1-.2,0-.2l-2.3-1h-.3Z" fill="#8cbee7"/><path d="M67.5,195.4c-.1,0-.1.1,0,.1l2.3,1.1h.4l2.2-1.5c.1,0,.1-.1,0-.2l-2.3-.9h-.3Z" fill="#8cbee7"/><path d="M64.2,194c-.1.1-.1.1,0,.2l2.3,1h.4l2.2-1.6c.1,0,.1-.1,0-.2l-2.3-.9h-.4Z" fill="#8cbee7"/><path d="M60.9,192.6c-.1.1-.1.1,0,.2l2.3,1h.4l2.2-1.5c.1-.1.1-.2,0-.2l-2.3-1h-.4Z" fill="#8cbee7"/><path d="M57.6,191.2c-.1.1-.1.2,0,.2l2.3,1h.4l2.2-1.5c.1-.1.1-.2,0-.2l-2.3-1h-.4Z" fill="#8cbee7"/><path d="M54.3,189.8c-.1.1-.1.2,0,.2l2.3,1.1h.3l2.3-1.5a.1.1,0,0,0,0-.2l-2.3-1h-.4Z" fill="#8cbee7"/><path d="M51,188.5c-.1,0-.1.1,0,.1l2.3,1.1h.3l2.3-1.5c.1,0,0-.1,0-.2l-2.3-1h-.4Z" fill="#8cbee7"/><path d="M83.4,217.2c-.1,0-.1.1,0,.1l2.3,1.1h.4l2.2-1.5c.1,0,0-.1,0-.2l-2.3-1h-.4Z" fill="#8cbee7"/><path d="M80.1,215.8c-.1,0-.1.1,0,.2l2.3,1h.3l2.3-1.6c.1,0,0-.1,0-.2l-2.3-.9c-.1-.1-.3,0-.4,0Z" fill="#8cbee7"/><path d="M76.8,214.4v.2l2.4,1h.3l2.3-1.5c.1-.1,0-.2-.1-.2l-2.2-1H79Z" fill="#8cbee7"/><path d="M73.5,213v.2l2.4,1c.1.1.2,0,.3,0l2.3-1.5c.1-.1,0-.2-.1-.2l-2.3-1h-.3Z" fill="#8cbee7"/><path d="M50.4,203.3v.2l22.2,9.3h.3l2.3-1.5c.1-.1,0-.2-.1-.2l-22.1-9.3h-.3Z" fill="#8cbee7"/><path d="M47,202c-.1,0-.1.1,0,.1l2.3,1.1h.4l2.2-1.5c.1,0,.1-.1,0-.2l-2.3-1h-.4Z" fill="#8cbee7"/><path d="M43.7,200.6c-.1,0-.1.1,0,.2l2.3,1h.4l2.2-1.5c.1,0,.1-.1,0-.2l-2.3-.9h-.4Z" fill="#8cbee7"/><path d="M40.4,199.2c-.1.1-.1.1,0,.2l2.3,1H43l2.3-1.5a.1.1,0,0,0,0-.2l-2.3-1h-.4Z" fill="#8cbee7"/><path d="M37.1,197.8v.2l2.4,1h.3l2.3-1.5a.1.1,0,0,0,0-.2l-2.3-1h-.4Z" fill="#8cbee7"/><path d="M95.8,210.9c-.1.1-.1.2,0,.2l2.4,1.1h.3l2.2-1.5c.1-.1.1-.2,0-.2l-2.3-1h-.3Z" fill="#8cbee7"/><path d="M92.5,209.6c-.1,0-.1.1,0,.1l2.3,1.1h.4l2.2-1.5c.1,0,.1-.1,0-.2l-2.3-1h-.3Z" fill="#8cbee7"/><path d="M89.2,208.2c-.1,0-.1.1,0,.2l2.3,1h.4l2.2-1.6c.1,0,.1-.1,0-.2l-2.3-.9h-.3Z" fill="#8cbee7"/><path d="M85.9,206.8c-.1.1-.1.1,0,.2l2.3,1h.4l2.2-1.5c.1-.1.1-.2,0-.2l-2.3-1c-.1-.1-.2,0-.4,0Z" fill="#8cbee7"/><path d="M82.6,205.4c-.1.1-.1.2,0,.2l2.3,1h.4l2.2-1.5c.1-.1.1-.2,0-.2l-2.3-1h-.4Z" fill="#8cbee7"/><path d="M79.3,204c-.1.1-.1.2,0,.2l2.3,1a.3.3,0,0,0,.4,0l2.2-1.5c.1-.1.1-.2,0-.2l-2.3-1h-.4Z" fill="#8cbee7"/><path d="M76,202.7c-.1,0-.1.1,0,.1l2.3,1.1h.3l2.3-1.5c.1,0,0-.2,0-.2l-2.3-1h-.4Z" fill="#8cbee7"/><path d="M72.7,201.3c-.1,0-.1.1,0,.1l2.3,1.1h.3l2.3-1.5c.1,0,0-.1,0-.2l-2.3-.9a.3.3,0,0,0-.4,0Z" fill="#8cbee7"/><path d="M69.4,199.9v.2l2.4,1H72l2.3-1.6c.1,0,0-.1-.1-.2l-2.3-.9h-.3Z" fill="#8cbee7"/><path d="M66.1,198.5v.2l2.4,1c.1.1.2,0,.3,0l2.3-1.5c.1-.1,0-.2-.1-.2l-2.3-1h-.3Z" fill="#8cbee7"/><path d="M62.8,197.1c-.1.1-.2.2-.1.2l2.4,1h.3l2.3-1.5c.1-.1,0-.2-.1-.2l-2.3-1H65Z" fill="#8cbee7"/><path d="M59.5,195.7c-.1.1-.2.2-.1.2l2.4,1.1h.3l2.2-1.5c.2-.1.1-.2,0-.2l-2.3-1h-.3Z" fill="#8cbee7"/><path d="M56.2,194.4c-.2,0-.2.1-.1.1l2.4,1.1h.3L61,194c.1,0,.1-.1,0-.2l-2.3-1h-.3Z" fill="#8cbee7"/><path d="M52.8,193c-.1,0-.1.1,0,.2l2.3,1h.4l2.2-1.5c.1,0,.1-.1,0-.2l-2.3-.9h-.3Z" fill="#8cbee7"/><path d="M49.5,191.6c-.1.1-.1.1,0,.2l2.3,1h.4l2.2-1.5c.1-.1.1-.2,0-.2l-2.3-1h-.3Z" fill="#8cbee7"/><path d="M46.2,190.2c-.1.1-.1.2,0,.2l2.3,1h.4l2.2-1.5c.1-.1.1-.2,0-.2l-2.3-1h-.3Z" fill="#8cbee7"/><path d="M88.4,215.4c-.1.1-.2.2-.1.2l2.4,1H91l2.2-1.5c.2-.1.1-.2,0-.2l-2.3-1h-.3Z" fill="#8cbee7"/><path d="M85.1,214c-.2.1-.2.2-.1.2l2.4,1c0,.1.2.1.3,0l2.2-1.5c.1-.1.1-.2,0-.2l-2.3-1h-.3Z" fill="#8cbee7"/><path d="M81.7,212.7c-.1,0-.1.1,0,.1l2.3,1.1h.4l2.2-1.5c.1-.1.1-.2,0-.2l-2.3-1H84Z" fill="#8cbee7"/><path d="M78.4,211.3c-.1,0-.1.1,0,.1l2.3,1.1h.4l2.2-1.5c.1,0,.1-.1,0-.2l-2.3-.9a.2.2,0,0,0-.3,0Z" fill="#8cbee7"/><path d="M75.1,209.9c-.1,0-.1.1,0,.2l2.3,1h.4l2.2-1.6c.1,0,.1-.1,0-.2l-2.3-.9h-.4Z" fill="#8cbee7"/><path d="M71.8,208.5c-.1.1-.1.1,0,.2l2.3,1c.1.1.3,0,.4,0l2.2-1.5c.1-.1.1-.2,0-.2l-2.3-1H74Z" fill="#8cbee7"/><path d="M68.5,207.1c-.1.1-.1.2,0,.2l2.3,1h.4l2.2-1.5c.1-.1.1-.2,0-.2l-2.3-1h-.4Z" fill="#8cbee7"/><path d="M65.2,205.7c-.1.1-.1.2,0,.2l2.3,1.1h.4l2.2-1.5a.1.1,0,0,0,0-.2l-2.3-1h-.4Z" fill="#8cbee7"/><path d="M61.9,204.4c-.1,0-.1.1,0,.1l2.3,1.1h.3l2.3-1.5c.1,0,0-.2,0-.2l-2.3-1h-.4Z" fill="#8cbee7"/><path d="M58.6,203c-.1,0-.1.1-.1.2l2.4,1h.3l2.3-1.5c.1,0,0-.1-.1-.2l-2.3-.9h-.3Z" fill="#8cbee7"/><path d="M55.3,201.6c-.1.1-.1.1-.1.2l2.4,1h.3l2.3-1.5c.1-.1,0-.2-.1-.3l-2.3-.9h-.3Z" fill="#8cbee7"/><path d="M52,200.2c-.1.1-.2.1-.1.2l2.4,1h.3l2.3-1.5c.1-.1,0-.2-.1-.2l-2.3-1h-.3Z" fill="#8cbee7"/><path d="M48.7,198.8c-.1.1-.2.2-.1.2l2.4,1h.3l2.3-1.5c.1-.1,0-.2-.1-.2l-2.3-1h-.3Z" fill="#8cbee7"/><path d="M45.4,197.4c-.2.1-.2.2-.1.2l2.4,1.1H48l2.2-1.5c.1-.1.1-.2,0-.2l-2.3-1h-.3Z" fill="#8cbee7"/><path d="M42,196.1c-.1,0-.1.1,0,.1l2.4,1.1h.3l2.2-1.5c.1,0,.1-.1,0-.2l-2.3-1h-.3Z" fill="#8cbee7"/><path d="M38.7,194.7c-.1,0-.1.1,0,.2l2.4,1h.3l2.2-1.5c.1,0,.1-.1,0-.2l-2.3-.9H41Z" fill="#8cbee7"/><path d="M91.7,213c-.1.1-.2.2-.1.2l2.4,1c.1.1.2,0,.3,0l2.3-1.5c.1-.1,0-.2-.1-.2l-2.3-1h-.3Z" fill="#8cbee7"/><path d="M88.4,211.6c-.1.1-.2.2-.1.2l2.4,1H91l2.2-1.5c.2-.1.1-.2,0-.2l-2.3-1h-.3Z" fill="#8cbee7"/><path d="M85.1,210.3c-.2,0-.2.1-.1.1l2.4,1.1h.3l2.2-1.5c.1,0,.1-.2,0-.2l-2.3-1h-.3Z" fill="#8cbee7"/><path d="M81.7,208.9c-.1,0-.1.1,0,.1l2.3,1.1h.4l2.2-1.5c.1,0,.1-.1,0-.2l-2.3-.9H84Z" fill="#8cbee7"/><path d="M78.4,207.5c-.1.1-.1.1,0,.2l2.3,1h.4l2.2-1.6c.1,0,.1-.1,0-.2L81,206h-.3Z" fill="#8cbee7"/><path d="M75.1,206.1c-.1.1-.1.1,0,.2l2.3,1h.4l2.2-1.5c.1-.1.1-.2,0-.2l-2.3-1h-.4Z" fill="#8cbee7"/><path d="M71.8,204.7c-.1.1-.1.2,0,.2l2.3,1h.4l2.2-1.5c.1-.1.1-.2,0-.2l-2.3-1H74Z" fill="#8cbee7"/><path d="M68.5,203.3c-.1.1-.1.2,0,.2l2.3,1.1h.4l2.2-1.5c.1-.1.1-.2,0-.2l-2.3-1h-.4Z" fill="#8cbee7"/><path d="M65.2,202c-.1,0-.1.1,0,.1l2.3,1.1h.4l2.2-1.5c.1,0,0-.1,0-.2l-2.3-1h-.4Z" fill="#8cbee7"/><path d="M61.9,200.6c-.1,0-.1.1,0,.2l2.3,1h.3l2.3-1.5c.1,0,0-.1,0-.2l-2.3-.9h-.4Z" fill="#8cbee7"/><path d="M58.6,199.2v.2l2.4,1h.3l2.3-1.5c.1-.1,0-.2-.1-.2l-2.3-1h-.3Z" fill="#8cbee7"/><path d="M55.3,197.8v.2l2.4,1h.3l2.3-1.5c.1-.1,0-.2-.1-.2l-2.3-1h-.3Z" fill="#8cbee7"/><path d="M52,196.4c-.1.1-.2.2-.1.2l2.4,1h.3l2.3-1.5c.1-.1,0-.2-.1-.2l-2.3-1h-.3Z" fill="#8cbee7"/><path d="M48.7,195.1h-.1l2.4,1.1h.3l2.3-1.5c.1,0,0-.2-.1-.2l-2.3-1h-.3Z" fill="#8cbee7"/><path d="M45.4,193.7c-.2,0-.2.1-.1.1l2.4,1.1H48l2.2-1.5c.1,0,.1-.1,0-.2l-2.3-.9h-.3Z" fill="#8cbee7"/><path d="M42.1,192.3c-.1,0-.2.1-.1.2l2.4,1h.3l2.2-1.6c.2,0,.1-.1,0-.2l-2.3-.9c-.1-.1-.2,0-.3,0Z" fill="#8cbee7"/><path d="M15.7,158.2,26,201.4c0,1.2.8,1.4.8,1.4l60.9,25.6a1.1,1.1,0,0,0,1.3-1.2L78.6,184.4c0-1.4-.9-1.6-.9-1.6L17,157.4S15.7,156.8,15.7,158.2Z" fill="#314993"/><path d="M90.6,226.8l-2.2,1.5c.5-.1.5-.8.5-.8l-10.3-43,1.9-1.3,10.3,43.1S90.9,226.7,90.6,226.8Z" fill="#414286"/><path d="M78,183s.6.3.6,1.5l1.9-1.3a1.8,1.8,0,0,0-.7-1.5Z" fill="#4c4e9a"/><path d="M79.8,181.7h-.2L18.9,156.1a1.5,1.5,0,0,0-1.6.1l-1.2.8a1,1,0,0,0-.4.9s.2-.9,1.3-.5L78,183Z" fill="#6270b3"/><path d="M327.9,8c-3.2-.4-5.9,2.3-6,6-.4,12.9-.9,25.6-1.6,38.2,3.5-12.1,7.3-24.3,11.2-36.8C332.7,11.9,331,8.5,327.9,8Z" fill="#c12106"/><path d="M359.7,35.7c-1.6-1.4-4.4-.9-6.4,1.2-6.6,7-13.1,14.3-19.1,21.7a289.9,289.9,0,0,1,24-17.5C360.6,39.5,361.4,37.2,359.7,35.7Z" fill="#fda014"/><path d="M391.8,61.8c-.4-2.4-4.3-3.9-8.5-3.2a230.8,230.8,0,0,0-41.6,11.7,255.5,255.5,0,0,1,43-4.4C389,65.9,392.2,64.1,391.8,61.8Z" fill="#9fb603"/><path d="M260,42.9c-.9,1.6.9,3.7,4,4.9a215.2,215.2,0,0,1,29.8,14A204.2,204.2,0,0,0,266.9,43C264.1,41.3,260.9,41.4,260,42.9Z" fill="#fdc63a"/><path d="M275.6,7c-3.6,1.6-3.6,5.4-.4,8.6A218.3,218.3,0,0,1,305,53.5a348.1,348.1,0,0,0-19.2-42.6C283.7,7,279.1,5.3,275.6,7Z" fill="#16c1d1"/><path d="M350.7,7.9c-.3,1.5.8,2.9,2.6,3.4s3.4-.3,3.7-1.7-.8-3-2.5-3.4S351,6.5,350.7,7.9Z" fill="#16c1d1"/><path d="M308.4,40a2.8,2.8,0,0,0,2.6,2.9,2.7,2.7,0,0,0,3.2-2.1,2.8,2.8,0,0,0-2.6-2.9A2.7,2.7,0,0,0,308.4,40Z" fill="#fda014"/><path d="M308.6,69a2.7,2.7,0,0,0,2.6,2.8,2.7,2.7,0,0,0,3.2-2.1,2.9,2.9,0,0,0-5.8-.7Z" fill="#fda014"/><path d="M351.6,76.5a2,2,0,0,0,1.6,2.8,3.2,3.2,0,0,0,3.4-1.7,2.2,2.2,0,0,0-1.5-2.9A3.2,3.2,0,0,0,351.6,76.5Z" fill="#fdc63a"/><path d="M268.6,59.2a3.4,3.4,0,0,0,2.9,2.6,2,2,0,0,0,2.3-2.1,3.3,3.3,0,0,0-2.9-2.6C269.4,57,268.4,57.9,268.6,59.2Z" fill="#9fb603"/><path d="M343,21.9a2.2,2.2,0,0,0,1.9,2.4,2.2,2.2,0,0,0,2.7-1.4,2.2,2.2,0,0,0-1.9-2.4A2.2,2.2,0,0,0,343,21.9Z" fill="#fda014"/><path d="M310.8,1.7c-.2,1.1.8,2,2.2,2.1a2.2,2.2,0,0,0,2.6-1.7c.2-1-.8-2-2.1-2.1A2.4,2.4,0,0,0,310.8,1.7Z" fill="#9fb603"/><path d="M343.3,58.2a1.9,1.9,0,0,0,1.5,2.3,2.2,2.2,0,0,0,2.5-1.4,1.9,1.9,0,0,0-1.5-2.2A2,2,0,0,0,343.3,58.2Z" fill="#a81d05"/><path d="M372.9,79.9a1.4,1.4,0,0,0,1,2,2.5,2.5,0,0,0,2.7-1,1.4,1.4,0,0,0-.9-2.1A2.6,2.6,0,0,0,372.9,79.9Z" fill="#16c1d1"/><path d="M368.6,49.8a2,2,0,0,0,1.5,2.4,2.3,2.3,0,0,0,2.7-1.1,1.9,1.9,0,0,0-1.4-2.4A2.3,2.3,0,0,0,368.6,49.8Z" fill="#9fb603"/><path d="M297,69.9a2,2,0,0,0,1.7,2.1,1.7,1.7,0,0,0,1.9-1.6,2,2,0,0,0-1.7-2.1A1.7,1.7,0,0,0,297,69.9Z" fill="#9fb603"/><path d="M303.2,15.4c-.1,1.3,1.1,2.4,2.7,2.6a3,3,0,0,0,3.3-2.2,2.7,2.7,0,0,0-2.7-2.6A3,3,0,0,0,303.2,15.4Z" fill="#a81d05"/><path d="M277.3,27.9l-4.5-5.8L268.5,28Z" fill="#fda014"/><path d="M325.4,56.3l-7.7,1.3c1.8,1.8,3.4,3.6,5,5.5Z" fill="#fda014"/><path d="M376.4,36.3l5.9-4.5c-2.9-1-5.8-1.9-8.8-2.7C374.5,31.5,375.5,33.9,376.4,36.3Z" fill="#16c1d1"/><path d="M374,9l-2.6,2.2-4-.9,2.2,3.1-1.5,2.9L372,16l3.1,2.7c.1-1.1.1-2.2.2-3.3l3.4-1.1L375,12.4C374.6,11.3,374.3,10.1,374,9Z" fill="#9fb603"/><path d="M327.7,67.5l-2.6,2.2-4-.9,2.2,3.1-1.5,2.9,3.9-.3,3.1,2.7c.1-1.1.1-2.2.2-3.3l3.4-1.1-3.7-1.9C328.3,69.8,328,68.6,327.7,67.5Z" fill="#a81d05"/><path d="M309.1,133.6c1.2.2,2.7-2.3,3.3-5.5q3-17.1,4.8-35.1c-3.4,11.6-6.4,23-9,34.3C307.5,130.5,307.9,133.4,309.1,133.6Z" fill="#c12106"/><path d="M293.4,111.4c1,1.1,2.4.3,3.1-1.8a139.2,139.2,0,0,1,9.7-22.4,112.7,112.7,0,0,0-13.2,19C292.1,108,292.3,110.3,293.4,111.4Z" fill="#fda014"/><path d="M267.3,91.7c1.7,2.2,4.2,2.9,6,1.4a163.4,163.4,0,0,1,24.7-17c-11.2,3.4-21.2,6.9-29.5,9.9C266,86.9,265.6,89.4,267.3,91.7Z" fill="#9fb603"/><path d="M360.4,104.6c1.8-1.3,2-3.3.4-4.7-5.5-4.8-11.9-10.1-19-15.6a171.8,171.8,0,0,1,13.6,19.5C356.4,105.5,358.6,105.8,360.4,104.6Z" fill="#fdc63a"/><path d="M329.6,134.8a11.7,11.7,0,0,0,5-7.5c1.2-10.6-.7-22.6-4.9-35.5,1.5,13.9,1,27-2.1,39C326.8,134.3,327.5,136,329.6,134.8Z" fill="#9fb603"/><path d="M300.6,135.6c0-1.3-.5-2.4-1.1-2.6s-1.2.7-1.1,2,.5,2.5,1.1,2.7S300.5,136.9,300.6,135.6Z" fill="#16c1d1"/><path d="M324.4,104.3a2,2,0,0,0-1.3-2.7,2.4,2.4,0,0,0-2.5,2c-.3,1.3.2,2.5,1.2,2.7A2.5,2.5,0,0,0,324.4,104.3Z" fill="#fda014"/><path d="M287.4,70.7a3,3,0,0,0-2.6-2.7,1.9,1.9,0,0,0-2.3,2.1,3.2,3.2,0,0,0,2.6,2.7A2,2,0,0,0,287.4,70.7Z" fill="#fdc63a"/><path d="M364.5,89.2a1.7,1.7,0,0,0-1.1-2.7,3.4,3.4,0,0,0-3.5,1.7,1.7,1.7,0,0,0,1.1,2.6A3.3,3.3,0,0,0,364.5,89.2Z" fill="#9fb603"/><path d="M303.1,122.4c0-1-.4-1.9-1-2s-1.2.5-1.2,1.5a2.1,2.1,0,0,0,1,2C302.5,124,303,123.3,303.1,122.4Z" fill="#fda014"/><path d="M314.5,138.4c.3-.9.2-1.7-.3-1.7s-1.1.6-1.4,1.5-.1,1.7.3,1.8S314.2,139.3,314.5,138.4Z" fill="#9fb603"/><path d="M299.2,88.2a1.9,1.9,0,0,0-1.5-2.1c-.9-.2-1.6.5-1.6,1.5a2.2,2.2,0,0,0,1.5,2.1A1.4,1.4,0,0,0,299.2,88.2Z" fill="#a81d05"/><path d="M267.6,70a2.7,2.7,0,0,0-2.1-2,1.2,1.2,0,0,0-1.4,1.5,2.7,2.7,0,0,0,2.1,2A1.2,1.2,0,0,0,267.6,70Z" fill="#16c1d1"/><path d="M284.9,99.2a2.3,2.3,0,0,0-1.6-2c-.8-.2-1.3.5-1.1,1.4a2.6,2.6,0,0,0,1.6,2.1C284.6,100.9,285,100.2,284.9,99.2Z" fill="#9fb603"/><path d="M341.2,76.4a1.7,1.7,0,0,0-1.3-2.1,2.1,2.1,0,0,0-2.4,1.4,1.6,1.6,0,0,0,1.3,2.1A2.2,2.2,0,0,0,341.2,76.4Z" fill="#9fb603"/><path d="M321.4,126.5c.5-1.1.2-2.1-.6-2.3s-1.7.8-2.1,2-.1,2.1.6,2.2S321,127.7,321.4,126.5Z" fill="#a81d05"/><path d="M340.1,116.3c-.2,1.9-.5,3.7-.8,5.5l5.7-4.9Z" fill="#fda014"/><path d="M313.4,89.1l6.3-1.3c-1.3-1.8-2.7-3.6-4.1-5.3C314.8,84.7,314.1,86.9,313.4,89.1Z" fill="#fda014"/><path d="M285.7,113.5c-.2,1.8-.4,3.7-.5,5.5l3.8.8Q287.5,116.7,285.7,113.5Z" fill="#16c1d1"/><path d="M293.8,138.4c0-.8.1-1.7.1-2.5h1.3l-1.2-2.5a26.2,26.2,0,0,1-.1-2.8l-1.2.9a11.9,11.9,0,0,0-1.5-1.8c.3,1,.5,2,.8,3l-.6,1.7,1.4,1C293.1,136.4,293.4,137.4,293.8,138.4Z" fill="#9fb603"/><g opacity="0.5"><path d="M327.9,8c-3.2-.4-5.9,2.3-6,6-.4,12.9-.9,25.6-1.6,38.2,3.5-12.1,7.3-24.3,11.2-36.8C332.7,11.9,331,8.5,327.9,8Z" fill="#fff"/><path d="M359.7,35.7c-1.6-1.4-4.4-.9-6.4,1.2-6.6,7-13.1,14.3-19.1,21.7a289.9,289.9,0,0,1,24-17.5C360.6,39.5,361.4,37.2,359.7,35.7Z" fill="#fff"/><path d="M391.8,61.8c-.4-2.4-4.3-3.9-8.5-3.2a230.8,230.8,0,0,0-41.6,11.7,255.5,255.5,0,0,1,43-4.4C389,65.9,392.2,64.1,391.8,61.8Z" fill="#fff"/><path d="M260,42.9c-.9,1.6.9,3.7,4,4.9a215.2,215.2,0,0,1,29.8,14A204.2,204.2,0,0,0,266.9,43C264.1,41.3,260.9,41.4,260,42.9Z" fill="#fff"/><path d="M275.6,7c-3.6,1.6-3.6,5.4-.4,8.6A218.3,218.3,0,0,1,305,53.5a348.1,348.1,0,0,0-19.2-42.6C283.7,7,279.1,5.3,275.6,7Z" fill="#fff"/><path d="M350.7,7.9c-.3,1.5.8,2.9,2.6,3.4s3.4-.3,3.7-1.7-.8-3-2.5-3.4S351,6.5,350.7,7.9Z" fill="#fff"/><path d="M308.4,40a2.8,2.8,0,0,0,2.6,2.9,2.7,2.7,0,0,0,3.2-2.1,2.8,2.8,0,0,0-2.6-2.9A2.7,2.7,0,0,0,308.4,40Z" fill="#fff"/><path d="M308.6,69a2.7,2.7,0,0,0,2.6,2.8,2.7,2.7,0,0,0,3.2-2.1,2.9,2.9,0,0,0-5.8-.7Z" fill="#fff"/><path d="M351.6,76.5a2,2,0,0,0,1.6,2.8,3.2,3.2,0,0,0,3.4-1.7,2.2,2.2,0,0,0-1.5-2.9A3.2,3.2,0,0,0,351.6,76.5Z" fill="#fff"/><path d="M268.6,59.2a3.4,3.4,0,0,0,2.9,2.6,2,2,0,0,0,2.3-2.1,3.3,3.3,0,0,0-2.9-2.6C269.4,57,268.4,57.9,268.6,59.2Z" fill="#fff"/><path d="M343,21.9a2.2,2.2,0,0,0,1.9,2.4,2.2,2.2,0,0,0,2.7-1.4,2.2,2.2,0,0,0-1.9-2.4A2.2,2.2,0,0,0,343,21.9Z" fill="#fff"/><path d="M310.8,1.7c-.2,1.1.8,2,2.2,2.1a2.2,2.2,0,0,0,2.6-1.7c.2-1-.8-2-2.1-2.1A2.4,2.4,0,0,0,310.8,1.7Z" fill="#fff"/><path d="M343.3,58.2a1.9,1.9,0,0,0,1.5,2.3,2.2,2.2,0,0,0,2.5-1.4,1.9,1.9,0,0,0-1.5-2.2A2,2,0,0,0,343.3,58.2Z" fill="#fff"/><path d="M372.9,79.9a1.4,1.4,0,0,0,1,2,2.5,2.5,0,0,0,2.7-1,1.4,1.4,0,0,0-.9-2.1A2.6,2.6,0,0,0,372.9,79.9Z" fill="#fff"/><path d="M368.6,49.8a2,2,0,0,0,1.5,2.4,2.3,2.3,0,0,0,2.7-1.1,1.9,1.9,0,0,0-1.4-2.4A2.3,2.3,0,0,0,368.6,49.8Z" fill="#fff"/><path d="M297,69.9a2,2,0,0,0,1.7,2.1,1.7,1.7,0,0,0,1.9-1.6,2,2,0,0,0-1.7-2.1A1.7,1.7,0,0,0,297,69.9Z" fill="#fff"/><path d="M303.2,15.4c-.1,1.3,1.1,2.4,2.7,2.6a3,3,0,0,0,3.3-2.2,2.7,2.7,0,0,0-2.7-2.6A3,3,0,0,0,303.2,15.4Z" fill="#fff"/><path d="M277.3,27.9l-4.5-5.8L268.5,28Z" fill="#fff"/><path d="M325.4,56.3l-7.7,1.3c1.8,1.8,3.4,3.6,5,5.5Z" fill="#fff"/><path d="M376.4,36.3l5.9-4.5c-2.9-1-5.8-1.9-8.8-2.7C374.5,31.5,375.5,33.9,376.4,36.3Z" fill="#fff"/><path d="M374,9l-2.6,2.2-4-.9,2.2,3.1-1.5,2.9L372,16l3.1,2.7c.1-1.1.1-2.2.2-3.3l3.4-1.1L375,12.4C374.6,11.3,374.3,10.1,374,9Z" fill="#fff"/><path d="M327.7,67.5l-2.6,2.2-4-.9,2.2,3.1-1.5,2.9,3.9-.3,3.1,2.7c.1-1.1.1-2.2.2-3.3l3.4-1.1-3.7-1.9C328.3,69.8,328,68.6,327.7,67.5Z" fill="#fff"/><path d="M309.1,133.6c1.2.2,2.7-2.3,3.3-5.5q3-17.1,4.8-35.1c-3.4,11.6-6.4,23-9,34.3C307.5,130.5,307.9,133.4,309.1,133.6Z" fill="#fff"/><path d="M293.4,111.4c1,1.1,2.4.3,3.1-1.8a139.2,139.2,0,0,1,9.7-22.4,112.7,112.7,0,0,0-13.2,19C292.1,108,292.3,110.3,293.4,111.4Z" fill="#fff"/><path d="M267.3,91.7c1.7,2.2,4.2,2.9,6,1.4a163.4,163.4,0,0,1,24.7-17c-11.2,3.4-21.2,6.9-29.5,9.9C266,86.9,265.6,89.4,267.3,91.7Z" fill="#fff"/><path d="M360.4,104.6c1.8-1.3,2-3.3.4-4.7-5.5-4.8-11.9-10.1-19-15.6a171.8,171.8,0,0,1,13.6,19.5C356.4,105.5,358.6,105.8,360.4,104.6Z" fill="#fff"/><path d="M329.6,134.8a11.7,11.7,0,0,0,5-7.5c1.2-10.6-.7-22.6-4.9-35.5,1.5,13.9,1,27-2.1,39C326.8,134.3,327.5,136,329.6,134.8Z" fill="#fff"/><path d="M300.6,135.6c0-1.3-.5-2.4-1.1-2.6s-1.2.7-1.1,2,.5,2.5,1.1,2.7S300.5,136.9,300.6,135.6Z" fill="#fff"/><path d="M324.4,104.3a2,2,0,0,0-1.3-2.7,2.4,2.4,0,0,0-2.5,2c-.3,1.3.2,2.5,1.2,2.7A2.5,2.5,0,0,0,324.4,104.3Z" fill="#fff"/><path d="M287.4,70.7a3,3,0,0,0-2.6-2.7,1.9,1.9,0,0,0-2.3,2.1,3.2,3.2,0,0,0,2.6,2.7A2,2,0,0,0,287.4,70.7Z" fill="#fff"/><path d="M364.5,89.2a1.7,1.7,0,0,0-1.1-2.7,3.4,3.4,0,0,0-3.5,1.7,1.7,1.7,0,0,0,1.1,2.6A3.3,3.3,0,0,0,364.5,89.2Z" fill="#fff"/><path d="M303.1,122.4c0-1-.4-1.9-1-2s-1.2.5-1.2,1.5a2.1,2.1,0,0,0,1,2C302.5,124,303,123.3,303.1,122.4Z" fill="#fff"/><path d="M314.5,138.4c.3-.9.2-1.7-.3-1.7s-1.1.6-1.4,1.5-.1,1.7.3,1.8S314.2,139.3,314.5,138.4Z" fill="#fff"/><path d="M299.2,88.2a1.9,1.9,0,0,0-1.5-2.1c-.9-.2-1.6.5-1.6,1.5a2.2,2.2,0,0,0,1.5,2.1A1.4,1.4,0,0,0,299.2,88.2Z" fill="#fff"/><path d="M267.6,70a2.7,2.7,0,0,0-2.1-2,1.2,1.2,0,0,0-1.4,1.5,2.7,2.7,0,0,0,2.1,2A1.2,1.2,0,0,0,267.6,70Z" fill="#fff"/><path d="M284.9,99.2a2.3,2.3,0,0,0-1.6-2c-.8-.2-1.3.5-1.1,1.4a2.6,2.6,0,0,0,1.6,2.1C284.6,100.9,285,100.2,284.9,99.2Z" fill="#fff"/><path d="M341.2,76.4a1.7,1.7,0,0,0-1.3-2.1,2.1,2.1,0,0,0-2.4,1.4,1.6,1.6,0,0,0,1.3,2.1A2.2,2.2,0,0,0,341.2,76.4Z" fill="#fff"/><path d="M321.4,126.5c.5-1.1.2-2.1-.6-2.3s-1.7.8-2.1,2-.1,2.1.6,2.2S321,127.7,321.4,126.5Z" fill="#fff"/><path d="M340.1,116.3c-.2,1.9-.5,3.7-.8,5.5l5.7-4.9Z" fill="#fff"/><path d="M313.4,89.1l6.3-1.3c-1.3-1.8-2.7-3.6-4.1-5.3C314.8,84.7,314.1,86.9,313.4,89.1Z" fill="#fff"/><path d="M285.7,113.5c-.2,1.8-.4,3.7-.5,5.5l3.8.8Q287.5,116.7,285.7,113.5Z" fill="#fff"/><path d="M293.8,138.4c0-.8.1-1.7.1-2.5h1.3l-1.2-2.5a26.2,26.2,0,0,1-.1-2.8l-1.2.9a11.9,11.9,0,0,0-1.5-1.8c.3,1,.5,2,.8,3l-.6,1.7,1.4,1C293.1,136.4,293.4,137.4,293.8,138.4Z" fill="#fff"/></g></g></g></svg>