<svg xmlns="http://www.w3.org/2000/svg" xmlns:xlink="http://www.w3.org/1999/xlink" viewBox="0 0 389.3 342.8"><defs><clipPath id="a8a63832-0d94-4bcc-bb44-038126faf455"><path id="e674d9e9-458d-4c79-8b57-ea1673bba234" data-name="SVGID" d="M251.8,231.4c10.8,4.9,21.8,6.1,24.5,2.9s-3.7-9.8-14.5-14.6-21.8-6.1-24.6-2.9a3.2,3.2,0,0,0-.6,1.8c0,3.5,6.1,8.8,15.2,12.8" fill="none"/></clipPath><linearGradient id="eb112c4d-0328-4b3c-a494-322c0d7c3516" x1="-3186.51" y1="-622.91" x2="-3186.07" y2="-622.91" gradientTransform="matrix(-96.27, -7.36, 10.13, -67.06, -300191.78, -64987.23)" gradientUnits="userSpaceOnUse"><stop offset="0" stop-color="#81ae46"/><stop offset="0.06" stop-color="#86b149"/><stop offset="0.4" stop-color="#9dbf57"/><stop offset="0.72" stop-color="#abc85f"/><stop offset="1" stop-color="#b0cb62"/></linearGradient><clipPath id="a122e485-b87d-4f5d-8136-22e59b53bdd6"><path id="fe7e10c1-4931-4d51-80f1-f68c9c995fce" data-name="SVGID" d="M104.1,222.7c-9.4,7.1-15.8,16.1-14.3,20.1s10.4,1.5,19.8-5.7,15.8-16.2,14.3-20.2a2.9,2.9,0,0,0-1.3-1.4c-3.1-1.7-10.6,1.1-18.5,7.2" fill="none"/></clipPath><linearGradient id="e21abaa7-874f-443f-abd5-860c8eead37f" x1="-3145.23" y1="-569.63" x2="-3144.79" y2="-569.63" gradientTransform="matrix(52.74, -80.88, 53.93, 41.12, 196685.2, -230716.88)" xlink:href="#eb112c4d-0328-4b3c-a494-322c0d7c3516"/><clipPath id="e97866fd-5606-4dba-990d-16e4c6843832"><path id="ecc3959e-eb1e-40e0-a526-7f7396421ca9" data-name="SVGID" d="M208,272.7c7.7,7.3,16.8,11.2,20.2,8.9s-.2-10.2-8.1-17.4-16.7-11.3-20.1-8.9a3.3,3.3,0,0,0-1.1,1.5c-1,3.3,2.5,9.7,9.1,15.9" fill="none"/></clipPath><linearGradient id="add26d12-b01d-4aed-9b5c-219c4495372e" x1="-3193.57" y1="-631.8" x2="-3193.14" y2="-631.8" gradientTransform="matrix(-81.16, -32.87, 29.05, -62.81, -240605.07, -144368.14)" gradientUnits="userSpaceOnUse"><stop offset="0" stop-color="#7fa746"/><stop offset="0.02" stop-color="#81a847"/><stop offset="0.38" stop-color="#98b755"/><stop offset="0.71" stop-color="#a6c15e"/><stop offset="1" stop-color="#abc461"/></linearGradient><clipPath id="e3f99d07-f411-43ab-9fdd-8b6649e48e13"><path id="e8b57f1d-be9f-4b7e-9f94-a223f168bf23" data-name="SVGID" d="M140.7,270.3c-1.5,9.9.7,18.5,4.9,19.3s8.7-6.7,10-16.5-.7-18.6-4.8-19.3a4.7,4.7,0,0,0-2,.2c-3.5,1.4-6.9,7.9-8.1,16.3" fill="none"/></clipPath><linearGradient id="b9ba68cd-64ea-48ea-9582-c9dbbf02a01b" x1="-3179.94" y1="-584.03" x2="-3179.52" y2="-584.03" gradientTransform="matrix(-22.27, -75.67, 72.75, -20.74, -28173.97, -252452.21)" xlink:href="#add26d12-b01d-4aed-9b5c-219c4495372e"/><clipPath id="e612cf01-eda6-4e00-8dc4-b65b811b8cc4"><path id="b01147ca-8ccc-47bd-a03e-f00fa73abc77" data-name="SVGID" d="M99.3,167a83.6,83.6,0,1,0,51.6-57.4A83.7,83.7,0,0,0,99.3,167" fill="none"/></clipPath><linearGradient id="b812d1b4-e343-4929-9d53-8860be2b90f5" x1="-3163.32" y1="-600.53" x2="-3162.89" y2="-600.53" gradientTransform="matrix(-338.32, 199, -199, -338.32, -1189458.32, 426475.44)" gradientUnits="userSpaceOnUse"><stop offset="0" stop-color="#abc461"/><stop offset="1" stop-color="#abc461"/><stop offset="1" stop-color="#7fa746"/></linearGradient><clipPath id="e928c544-5f8e-47fb-b553-85eaf9f6eadc"><path id="beeefd82-57a2-46f0-b985-9398e65d07db" data-name="SVGID" d="M113.3,143.8a80.3,80.3,0,1,0,38.6-30.9,80.3,80.3,0,0,0-38.6,30.9" fill="none"/></clipPath><linearGradient id="e9496a36-8dab-4628-842b-d54cc029f91d" x1="-3166.47" y1="-598.02" x2="-3166.04" y2="-598.02" gradientTransform="matrix(-364.39, -94.51, 94.51, -364.39, -1097066.89, -516953.64)" xlink:href="#add26d12-b01d-4aed-9b5c-219c4495372e"/><linearGradient id="b26bbfc2-aee0-4fde-99ff-3c64bdf8d0dd" x1="-3166.47" y1="-597.71" x2="-3166.06" y2="-597.71" gradientTransform="matrix(-364.39, -94.51, 94.51, -364.39, -1097066.89, -516953.64)" xlink:href="#add26d12-b01d-4aed-9b5c-219c4495372e"/></defs><title>資產 5</title><g style="isolation:isolate"><g id="bb04880a-4839-4e05-a14a-226a5e30a54b" data-name="圖層 2"><g id="f44d5455-08e9-441f-9f17-16ba9ad70661" data-name="圖層 4"><g clip-path="url(#a8a63832-0d94-4bcc-bb44-038126faf455)"><polygon points="282.1 214.5 236.9 210.5 233.6 236.6 278.8 240.6 282.1 214.5" fill="url(#eb112c4d-0328-4b3c-a494-322c0d7c3516)"/></g><g clip-path="url(#a122e485-b87d-4f5d-8136-22e59b53bdd6)"><polygon points="104.4 257.4 129.6 219.7 108.3 204.2 83.1 241.9 104.4 257.4" fill="url(#e21abaa7-874f-443f-abd5-860c8eead37f)"/></g><g clip-path="url(#e97866fd-5606-4dba-990d-16e4c6843832)"><polygon points="239.2 264.5 201.7 249.3 190.8 272.9 228.3 288.1 239.2 264.5" fill="url(#add26d12-b01d-4aed-9b5c-219c4495372e)"/></g><g clip-path="url(#e3f99d07-f411-43ab-9fdd-8b6649e48e13)"><polygon points="167.3 286.1 157.1 251.1 129.7 258.9 140 293.9 167.3 286.1" fill="url(#b9ba68cd-64ea-48ea-9582-c9dbbf02a01b)"/></g><g clip-path="url(#e612cf01-eda6-4e00-8dc4-b65b811b8cc4)"><path d="M312.7,224.3a53,53,0,0,0,7-12.4L223.4,48.2,35.5,158.7,141.3,338.6,313.9,237.1C310.4,234,309,229.2,312.7,224.3Z" fill="url(#b812d1b4-e343-4929-9d53-8860be2b90f5)"/></g><g clip-path="url(#e928c544-5f8e-47fb-b553-85eaf9f6eadc)"><path d="M315.6,144.5c-7.1-13.4-10.8-27.7-7.2-42.7a8.5,8.5,0,0,1,.8-2.4L93.1,43.3,31.6,280.7l239.8,62.1,49.8-192.2c0-.3-.1-.7-.1-1A10,10,0,0,1,315.6,144.5Z" fill="url(#e9496a36-8dab-4628-842b-d54cc029f91d)"/><path d="M330.2,104.9a11.3,11.3,0,0,1-.4,3,26.5,26.5,0,0,0-.2,10.5l3.3-12.8Z" fill="url(#b26bbfc2-aee0-4fde-99ff-3c64bdf8d0dd)"/></g><path d="M237.6,118.8c-.4,4.6,3.8,8.9,9.5,9.3s10.5-2.9,11-7.6-3.9-8.9-9.6-9.3-10.5,2.9-10.9,7.6" fill="#dacc48"/><path d="M227.2,117.2c-2.5,4-.7,9.7,4.1,12.7s10.6,2.4,13.1-1.5.8-9.7-4-12.7-10.7-2.4-13.2,1.5" fill="#dacc48"/><path d="M239.9,127.7c-1.6,4.4,1.4,9.6,6.8,11.5s10.9-.1,12.6-4.5-1.5-9.6-6.9-11.6-10.9.2-12.5,4.6" fill="#dacc48"/><path d="M227.6,116.2c3.8,2.9,9.6,1.6,13.1-2.9s3.2-10.5-.5-13.3-9.5-1.6-13,2.9-3.3,10.5.4,13.3" fill="#dcb036"/><path d="M213.3,105.6c-2.5,4-.7,9.7,4,12.8s10.7,2.4,13.3-1.6.7-9.6-4-12.7-10.7-2.4-13.3,1.5" fill="#dcb036"/><path d="M226,116.1c-1.6,4.5,1.5,9.6,6.8,11.5s10.9-.1,12.5-4.5-1.4-9.6-6.7-11.5-11,.1-12.6,4.5" fill="#dcb036"/><path d="M247.7,122.8a6.6,6.6,0,0,1-1.8,4.9l-.3.3-.3.3-.3.3-.3.2-.4.3-.3.3-2.4,1.1h-.9l-.4.2h-.5c-8.5,1.2-13.2-7-15.7-13.7a26.5,26.5,0,0,1-1.1-3,3.3,3.3,0,0,0-.3-.6,16.6,16.6,0,0,0-3.6-6l-.3-.2a7.5,7.5,0,0,0-7.1-1.2H211l-.3-.6-.9-1.6c-.1-.2-.1-.4-.2-.5l.5-.2a10.7,10.7,0,0,1,10,1.1c3.5,2.4,5,6.1,6.5,9.9,2,5.3,4.6,12.9,11.2,13.9,3.8.5,8.3-1.7,8.4-6.1s-5.7-5.8-8.3-5.6a11.3,11.3,0,0,0-6.9,2.2l-.8.6h-.9l.4-.3a16.5,16.5,0,0,1,3.2-1.8c5.4-2.4,14.5-.7,14.8,6.7" fill="#157c3f"/><path d="M219.8,116.4l-1.9-.4a20.5,20.5,0,0,1-14.7-19.2l3-.3a21.4,21.4,0,0,0,13.6,19.9" fill="#75a734"/><path d="M224.5,121h1v.2h-.1l-.6.3-.5.2-.5.2-.5.2h-.5l-.5.2-.5.2h-.6l-.5.2a22.1,22.1,0,0,1-6.8.1h-.6l-.5-.2h-1.1l-.6-.3-.5-.2c-4-1.7-6.6-4.7-7.1-9.1v-2.9l.2-.4c-.1-.2,0-.3.1-.5s.2-.4.2-.6a.4.4,0,0,0,.1-.3l.3-.8v-.2l2.1,3v.9h0v2.3c1.4,6.2,9,7.8,14.4,7.2h1.6l.4-.2a3.3,3.3,0,0,0,1.4-.4" fill="#75a734"/><path d="M276.2,141.2s-10.9,9.2-24.5,7.4c-10.2-1.4-88.4-12.2-118-15.6-3.6-.4-11.1-.4-14.5-1.6s-13.7-8.8-13.7-13.3,12.6-2,14.9-1.8,13,1.7,13,1.7,8.2-21.6,11.1-28.2,3.9-24.2,52.1-14.4c14.6,2.9,45.9,3.3,49.9,8s5,24.6,5.2,31.5.4,21.6,2.7,22.6a68.9,68.9,0,0,0,11.5,2.1C271.5,140.2,276.8,140.1,276.2,141.2Z" fill="#221714"/><path d="M237.6,118.8c-.4,4.6,3.8,8.9,9.5,9.3s10.5-2.9,11-7.6-3.9-8.9-9.6-9.3-10.5,2.9-10.9,7.6" fill="#dacc48"/><path d="M227.2,117.2c-2.5,4-.7,9.7,4.1,12.7s10.6,2.4,13.1-1.5.8-9.7-4-12.7-10.7-2.4-13.2,1.5" fill="#dacc48"/><path d="M239.9,127.7c-1.6,4.4,1.4,9.6,6.8,11.5s10.9-.1,12.6-4.5-1.5-9.6-6.9-11.6-10.9.2-12.5,4.6" fill="#dacc48"/><path d="M227.6,116.2c3.8,2.9,9.6,1.6,13.1-2.9s3.2-10.5-.5-13.3-9.5-1.6-13,2.9-3.3,10.5.4,13.3" fill="#dcb036"/><path d="M213.3,105.6c-2.5,4-.7,9.7,4,12.8s10.7,2.4,13.3-1.6.7-9.6-4-12.7-10.7-2.4-13.3,1.5" fill="#dcb036"/><path d="M226,116.1c-1.6,4.5,1.5,9.6,6.8,11.5s10.9-.1,12.5-4.5-1.4-9.6-6.7-11.5-11,.1-12.6,4.5" fill="#dcb036"/><path d="M247.7,122.8a6.6,6.6,0,0,1-1.8,4.9l-.3.3-.3.3-.3.3-.3.2-.4.3-.3.3-2.4,1.1h-.9l-.4.2h-.5c-8.5,1.2-13.2-7-15.7-13.7a26.5,26.5,0,0,1-1.1-3,3.3,3.3,0,0,0-.3-.6,16.6,16.6,0,0,0-3.6-6l-.3-.2a7.5,7.5,0,0,0-7.1-1.2H211l-.3-.6-.9-1.6c-.1-.2-.1-.4-.2-.5l.5-.2a10.7,10.7,0,0,1,10,1.1c3.5,2.4,5,6.1,6.5,9.9,2,5.3,4.6,12.9,11.2,13.9,3.8.5,8.3-1.7,8.4-6.1s-5.7-5.8-8.3-5.6a11.3,11.3,0,0,0-6.9,2.2l-.8.6h-.9l.4-.3a16.5,16.5,0,0,1,3.2-1.8c5.4-2.4,14.5-.7,14.8,6.7" fill="#157c3f"/><path d="M219.8,116.4l-1.9-.4a20.5,20.5,0,0,1-14.7-19.2l3-.3a21.4,21.4,0,0,0,13.6,19.9" fill="#75a734"/><path d="M224.5,121h1v.2h-.1l-.6.3-.5.2-.5.2-.5.2h-.5l-.5.2-.5.2h-.6l-.5.2a22.1,22.1,0,0,1-6.8.1h-.6l-.5-.2h-1.1l-.6-.3-.5-.2c-4-1.7-6.6-4.7-7.1-9.1v-2.9l.2-.4c-.1-.2,0-.3.1-.5s.2-.4.2-.6a.4.4,0,0,0,.1-.3l.3-.8v-.2l2.1,3v.9h0v2.3c1.4,6.2,9,7.8,14.4,7.2h1.6l.4-.2a3.3,3.3,0,0,0,1.4-.4" fill="#75a734"/><path d="M186.9,225.2c0,3.3-5.3,5.9-11.8,5.9s-11.9-2.6-11.9-5.9,5.3-5.9,11.9-5.9S186.9,222,186.9,225.2Z" fill="#ac3b3c"/><path d="M215,221a9.6,9.6,0,0,1-6.8,1.3c-5-.9-9.9-6.4-11.5-9-2.9-4.5-7.2-10.1-12.8-10.8s-8.8,6-8.8,6-3.3-6.7-8.9-6-9.9,6.3-12.7,10.8c-1.6,2.6-6.5,8.1-11.6,9a9.8,9.8,0,0,1-6.8-1.3s-.7,3.7,4.2,5.3c9.8,3,27.5,1.3,33.4-8a17.1,17.1,0,0,0,2.4-6,15,15,0,0,0,2.4,6c5.9,9.3,23.5,11,33.3,8C215.7,224.7,215,221,215,221Z" fill="#161722"/><polyline points="138.7 166.3 153.5 176.1 137.6 183.7" fill="none" stroke="#000" stroke-linecap="round" stroke-linejoin="round" stroke-width="5.6"/><polyline points="213.2 186.7 198.8 176.9 214.3 169.3" fill="none" stroke="#000" stroke-linecap="round" stroke-linejoin="round" stroke-width="5.6"/><path d="M240.5,192.1a8.1,8.1,0,0,1,.5,11.5,8.2,8.2,0,0,1-11.5.5c-3.3-3.1-9.1-19.4-9.1-19.4S237.2,189.1,240.5,192.1Z" fill="#2fa7bf"/><path d="M113.4,183.1a8.1,8.1,0,1,0,9.3,13.3c3.7-2.5,11.7-17.9,11.7-17.9S117.1,180.5,113.4,183.1Z" fill="#2fa7bf"/><path d="M80.6,271.4,56.3,296.6a1,1,0,0,0,.5,1.7L121,310.4a2.6,2.6,0,0,0,2.1-.7l25-25.8c1-1.1-.9-1.4-.9-1.4L83.5,270.4A3.5,3.5,0,0,0,80.6,271.4Z" fill="#6270b3"/><path d="M104.7,275.7l-4.9,5s-.2.2.1.3l15.9,2.9a.7.7,0,0,0,.4-.2l5-5.1c.2-.2-.2-.3-.2-.3l-15.8-2.8A.4.4,0,0,0,104.7,275.7Z" fill="#7786c1"/><path d="M121.2,278.6l-.2.2L105.3,276a.4.4,0,0,0-.5.2L100,281h-.1c-.3-.1-.1-.3-.1-.3l4.9-5a.4.4,0,0,1,.5-.2l15.8,2.8S121.4,278.4,121.2,278.6Z" fill="#2c365f"/><polygon points="148.3 283.1 148.3 283.1 148.3 283.1 148.3 283.1" fill="#6d7296"/><path d="M122.1,310.3a2,2,0,0,0,1-.6l25-25.8a1.1,1.1,0,0,0,.3-.6c.7,2.3.2,3.3.2,3.3l-24.9,25.8a3.9,3.9,0,0,1-1,.5Z" fill="#414286"/><path d="M56,297.2Z" fill="#8085af"/><path d="M56,297.4a1,1,0,0,0,.8.9L121,310.4a2.8,2.8,0,0,0,1.3-.1l.6,2.6a3.2,3.2,0,0,1-1.4.1L57.1,300.9C55.8,300.6,55.9,298,56,297.4Z" fill="#2c365f"/><path d="M76.8,278.9l-16,16.6a.9.9,0,0,0,.4,1.5l58.3,11a2,2,0,0,0,1.8-.6l16.4-17.1c.9-.9-.7-1.2-.7-1.2l-57.9-11A2.5,2.5,0,0,0,76.8,278.9Z" fill="#7786c1"/><path d="M129.8,292.5l-2.5-.5c-.1,0-.1,0-.1-.1h0c0-.1-.1-.1,0-.1s-.1,0-.1-.1h0v-.2l1.8-1.9h.4l2.4.5c.1,0,.1,0,.1.1h.1c.1.1.1.1,0,.2l-1.9,1.9Z" fill="#314993"/><path d="M125,289.1l-1.9,2h-.3l-2.5-.5h-.2c-.1,0,0-.1,0-.1L122,288l.3-.2,2.5.5a.3.3,0,0,1,.1.2h0a.1.1,0,0,0,.1.1h0Z" fill="#314993"/><path d="M121.4,288.5l-1.8,1.9h-.4l-2.5-.5h-.1c-.1-.1-.1-.1,0-.2l1.9-1.9h.3l2.4.5c.1,0,.2,0,.2.1h0c.1,0,.1,0,.1.1h0Z" fill="#314993"/><path d="M117.9,287.8l-1.9,1.9c0,.1-.2.2-.3.2l-2.5-.6s-.1,0,0-.1H113v-.2l1.8-1.9h.4l2.4.5a.1.1,0,0,1,.1.1s.1.1,0,.1.1,0,.1.1h0s.1.1,0,.1S118,287.8,117.9,287.8Z" fill="#314993"/><path d="M114.4,287.1l-1.9,2h-.3l-2.5-.5h-.1s-.1,0,0-.1h-.1a.1.1,0,0,1,.1-.1l1.8-1.9c.1-.1.3-.2.4-.1l2.4.4c.1,0,.1.1.1.2h.1C114.5,287,114.5,287.1,114.4,287.1Z" fill="#314993"/><path d="M110.9,286.5l-1.9,1.9c-.1.1-.2.2-.3.1l-2.5-.5c-.1,0-.1,0-.1-.1H106c-.1-.1,0-.1,0-.2l1.9-1.9h.3l2.5.5a.1.1,0,0,1,.1.1h.1Z" fill="#314993"/><path d="M107.4,285.8l-1.9,2h-.4l-2.5-.6h0c-.1,0-.1-.1,0-.1s-.1,0-.1-.1h0c-.1,0-.1-.1,0-.2l1.9-1.9h.3l2.5.5h.2Z" fill="#314993"/><path d="M103.8,285.1l-1.8,2h-.4l-2.5-.5s-.1-.1,0-.1a.1.1,0,0,1-.1-.1h0s-.1-.1,0-.1-.1,0-.1-.1a.1.1,0,0,1,.1-.1l1.9-1.9a.2.2,0,0,1,.3-.1l2.4.4c.1,0,.2.1.1.2h.2C103.9,285.1,103.9,285.1,103.8,285.1Z" fill="#314993"/><path d="M96.8,283.8l-1.9,2h-.3l-2.5-.6H92a.1.1,0,0,1-.1-.1h0v-.2l1.9-1.9h.3l2.5.5a.1.1,0,0,1,.1.1h.1Z" fill="#314993"/><path d="M93.3,283.1l-1.9,2h-.3l-2.6-.5h-.1c-.1,0-.1-.1,0-.1l1.9-1.9c.1-.1.2-.2.3-.1l2.5.4a.3.3,0,0,1,.1.2h0c0,.1.1.1,0,.1h.1Z" fill="#314993"/><path d="M89.7,282.5l-1.8,1.9c-.1.1-.3.2-.4.1L85,284h-.1c-.1-.1-.1-.1,0-.2l1.9-1.9h.3l2.4.5c.1,0,.2,0,.1.1h.1Z" fill="#314993"/><path d="M82.7,281.2l-1.9,1.9h-.3l-2.5-.5h-.1c-.1,0-.1,0-.1-.1h0a.1.1,0,0,1,.1-.1l1.8-1.9H80l2.5.4c.1.1.1.1.1.2h0s.1.1,0,.1h.1Z" fill="#314993"/><path d="M126.5,295.3c-.1,0-.1-.1,0-.1h-.1a.1.1,0,0,1-.1-.1h.1l1.9-1.9.3-.2,2.4.5c.1,0,.2.1.1.2h.2a.1.1,0,0,1-.1.1l-1.8,2H129l-2.5-.5Z" fill="#314993"/><path d="M127.7,293.2l-1.9,1.9h-.3l-2.5-.5h-.1c0-.1-.1-.1,0-.1h-.1c0-.1,0-.1.1-.2l1.8-1.9h.4l2.4.5c.1,0,.1,0,.1.1h.1C127.8,293.1,127.8,293.1,127.7,293.2Z" fill="#314993"/><path d="M124.2,292.5l-1.9,1.9-.3.2-2.5-.6c-.1,0-.1,0-.1-.1h-.1v-.2l1.8-1.9h.3l2.5.5a.1.1,0,0,1,.1.1h.1Z" fill="#314993"/><path d="M120.7,291.8l-1.9,2h-.3l-2.5-.5h-.1a.1.1,0,0,1-.1-.1h0c-.1,0,0-.1,0-.1l1.9-1.9c.1-.1.2-.2.3-.1l2.5.4v.2h0a.1.1,0,0,0,.1.1h0Z" fill="#314993"/><path d="M117.1,291.2l-1.8,1.9h-.4l-2.5-.5h-.1c-.1-.1-.1-.1,0-.2l1.9-1.9h.3l2.4.5c.1,0,.2,0,.2.1h0a.1.1,0,0,1,.1.1h0C117.2,291.1,117.2,291.1,117.1,291.2Z" fill="#314993"/><path d="M113.6,290.5l-1.9,2h-.3l-2.5-.6s-.1,0,0-.1h-.2v-.2l1.8-1.9h.4l2.4.5a.1.1,0,0,1,.1.1s.1.1,0,.1.1,0,.1.1h0s.1.1,0,.1S113.7,290.5,113.6,290.5Z" fill="#314993"/><path d="M110.1,289.8l-1.9,2h-.3l-2.5-.5h-.1s-.1,0,0-.1h0l1.8-1.9c.1-.1.3-.2.4-.1l2.4.4c.1,0,.1.1.1.2h.1C110.2,289.8,110.2,289.8,110.1,289.8Z" fill="#314993"/><path d="M106.6,289.2l-1.9,1.9c-.1.1-.2.2-.3.1l-2.5-.5h-.2v-.2l1.9-1.9h.3l2.5.5a.1.1,0,0,1,.1.1h0s.1,0,0,.1h.1Z" fill="#314993"/><path d="M99.5,287.8l-1.8,2h-.4l-2.5-.5s-.1-.1,0-.1a.1.1,0,0,1-.1-.1h0s-.1-.1,0-.1-.1,0-.1-.1h.1l1.9-1.9a.2.2,0,0,1,.3-.1l2.4.4c.1,0,.2.1.1.2h.2C99.6,287.8,99.6,287.8,99.5,287.8Z" fill="#314993"/><path d="M89,285.9l-1.9,1.9h-.3l-2.6-.5h-.1c-.1,0-.1-.1,0-.1l1.9-1.9c.1-.1.2-.2.3-.1l2.5.4c0,.1.1.1.1.2h0c0,.1.1.1,0,.1a.1.1,0,0,1,.1.1h0Z" fill="#314993"/><path d="M85.4,285.2l-1.8,1.9c-.1.1-.3.2-.4.1l-2.5-.5h-.1c-.1-.1-.1-.1,0-.2l1.9-1.9h.3l2.4.5c.1,0,.2,0,.1.1s.1,0,.1.1h0a.1.1,0,0,1,.1.1h-.1Z" fill="#314993"/><path d="M120.1,301.2c-.1,0-.1,0,0-.1H120c-.1,0-.1,0,0-.1s-.1,0,0-.1l1.9-1.9h.3l2.4.4c.1.1.2.1.2.2h0a.1.1,0,0,1,.1.1h0v.2l-1.8,1.9h-.4l-2.5-.5Z" fill="#314993"/><path d="M122.8,298.2h-.1l1.9-1.9.3-.2,2.5.5h.2l-1.9,2h-.3l-2.5-.5Z" fill="#314993"/><path d="M124.1,296.1l-1.9,1.9h-.3l-2.6-.5h-.1c-.1-.1-.1-.1,0-.2l1.9-1.9h.3l2.5.4c0,.1.1.1.1.2h0a.1.1,0,0,1,.1.1h0Z" fill="#314993"/><path d="M128.5,289.7h0l-1.9,1.9-.3.2-2.5-.6c-.1,0-.1,0-.1-.1h-.1v-.2l1.9-1.9h.3l2.5.5a.1.1,0,0,1,.1.1h.1Z" fill="#314993"/><path d="M100.3,284.3c.1.1.1.1,0,.2l-1.9,1.9c-.1.1-.2.2-.3.1l-2.5-.5c-.1,0-.1,0-.1-.1h0a.1.1,0,0,1-.1-.1h0v-.2l1.8-1.9h.4l2.4.5c.1,0,.1,0,.1.1h.1Z" fill="#314993"/><path d="M86.2,281.7c.1,0,.1.1,0,.1l-1.9,2H84l-2.5-.6h-.1s-.1,0,0-.1h-.1v-.2l1.8-1.9h.4l2.4.5a.1.1,0,0,1,.1.1h0c.1,0,.1,0,.1.1h0S86.3,281.7,86.2,281.7Z" fill="#314993"/><path d="M103.1,288.4h0l-1.9,2h-.3l-2.6-.6h0c-.1,0-.1-.1,0-.1s-.1,0-.1-.1h0c-.1,0-.1-.1,0-.2l1.9-1.9h.3l2.5.5h.2Z" fill="#314993"/><path d="M96,287.1c.1,0,.1,0,0,.1l-1.9,1.9c-.1.1-.2.2-.3.1l-2.5-.5h-.1a.1.1,0,0,1-.1-.1h0c0-.1,0-.1.1-.2L93,286h.4l2.4.5c.1,0,.1,0,.1.1H96Z" fill="#314993"/><path d="M92.5,286.4h0l-1.9,2h-.3l-2.5-.6h-.1c0-.1-.1-.1,0-.1h-.1v-.2l1.9-1.9h.3l2.5.5a.1.1,0,0,1,.1.1h.1Z" fill="#314993"/><path d="M81.9,284.4c.1,0,.1.1,0,.1l-1.9,2h-.3l-2.5-.5a.1.1,0,0,0-.1-.1h0l1.8-2h.4l2.4.5a.1.1,0,0,1,.1.1h0a.1.1,0,0,1,.1.1h0S82,284.4,81.9,284.4Z" fill="#314993"/><path d="M115.5,303.4c-.1,0-.1-.1,0-.2l1.9-1.9h.3l2.5.5h.2l-1.9,1.9-.3.2-2.6-.6h0c-.1,0-.1-.1,0-.1s-.1,0-.1-.1h0Z" fill="#314993"/><path d="M104.9,301.4v-.2l1.9-1.9h.3l2.5.5a.1.1,0,0,1,.1.1h.1l-1.9,2h-.3l-2.5-.6c-.1,0-.1,0-.1-.1h-.1Z" fill="#314993"/><path d="M80.3,296.7h0l1.9-1.9.3-.2,23.6,4.5v.2h0c0,.1.1.1,0,.1s.1,0,.1.1h0l-1.9,2h-.3l-23.6-4.5h-.1c-.1,0-.1,0-.1-.1h0Z" fill="#314993"/><path d="M76.7,296.1c0-.1,0-.1.1-.2l1.8-1.9H79l2.4.5c.1,0,.1,0,.1.1h.1c.1,0,.1,0,0,.1l-1.9,1.9c-.1.1-.2.2-.3.1l-2.5-.5h-.1a.1.1,0,0,1-.1-.1Z" fill="#314993"/><path d="M66.1,294.1c0-.1,0-.1.1-.2l1.9-1.9c0-.1.2-.1.3-.1l2.4.5c.1,0,.2,0,.1.1a.1.1,0,0,1,.1.1h0s.1.1,0,.1.1,0,.1.1H71l-1.8,1.9c-.1.1-.3.2-.4.1l-2.5-.5h-.2Z" fill="#314993"/><path d="M95.3,296v-.2l1.9-1.9h.3l2.5.5h.1s.1.1,0,.1.1,0,.1.1h0L98.3,297l-.3.2-2.5-.6c-.1,0-.1,0-.1-.1h-.1Z" fill="#314993"/><path d="M74.2,292c-.1,0-.1-.1,0-.2l1.9-1.9h.3l2.4.5h.3a.1.1,0,0,1-.1.1l-1.8,2h-.4l-2.5-.6h0c0-.1-.1-.1,0-.1a.1.1,0,0,1-.1-.1h0C74.1,292.1,74.1,292,74.2,292Z" fill="#314993"/><path d="M94.5,292.3a.3.3,0,0,1,.1-.2l1.8-1.9h.3l2.5.5h.2l-1.9,2h-.3l-2.5-.6h-.1c-.1,0-.1-.1,0-.1s-.1,0-.1-.1h0Z" fill="#314993"/><path d="M112,302.6l1.9-1.9.3-.2,2.4.5c.1,0,.2.1.1.2h.2a.1.1,0,0,1-.1.1l-1.8,2h-.4l-2.5-.5s-.1-.1,0-.1a.1.1,0,0,1-.1-.1h0c0-.1-.1-.1,0-.1s-.1,0-.1-.1Z" fill="#314993"/><path d="M108.5,301.9l1.8-1.9h.4l2.4.5c.1,0,.1,0,.1.1h.1c.1.1.1.1,0,.2l-1.9,1.9h-.3l-2.5-.5h-.2C108.4,302,108.4,302,108.5,301.9Z" fill="#314993"/><path d="M73.2,295.2l1.9-1.9h.3l2.5.5H78c0,.1.1.1,0,.1h.1l-1.9,2h-.3l-2.5-.6h-.1c-.1-.1-.1-.1,0-.1h-.1Z" fill="#314993"/><path d="M69.7,294.6l1.9-1.9c.1-.1.2-.2.3-.1l2.5.4c0,.1.1.1.1.2h0a.1.1,0,0,1,.1.1h0v.2l-1.9,1.9h-.3l-2.6-.5h-.1C69.6,294.7,69.6,294.6,69.7,294.6Z" fill="#314993"/><path d="M78.3,283.2h.1c.1.1.1.1,0,.2l-1.9,1.9h-.3l-2.5-.5h-.1l1.8-1.9c.1-.1.3-.2.4-.1l2.4.4Z" fill="#314993"/><path d="M116.5,299.8l1.8-1.9h.4l2.4.5h.2c.1,0,.1.1,0,.1l-1.9,1.9-.3.2-2.5-.6c-.1,0-.1,0-.1-.1h0s-.1-.1,0-.1h-.1C116.4,299.9,116.4,299.9,116.5,299.8Z" fill="#314993"/><path d="M113,299.2l1.8-1.9.3-.2,2.5.5h.1s.1,0,0,.1h.1l-1.9,2h-.3l-2.5-.5H113c-.1,0-.1,0-.1-.1h0A.1.1,0,0,1,113,299.2Z" fill="#314993"/><path d="M109.4,298.5l1.9-1.9h.3l2.5.5a.1.1,0,0,1,.1.1h.1v.2l-1.9,1.9h-.3l-2.5-.5a.1.1,0,0,1-.1-.1h0c0-.1-.1-.1,0-.1s-.1,0-.1-.1h0C109.3,298.6,109.4,298.6,109.4,298.5Z" fill="#314993"/><path d="M105.9,297.8l1.9-1.9h.3l2.4.5h.3a.1.1,0,0,1-.1.1l-1.8,1.9-.4.2-2.5-.6h0a.1.1,0,0,1-.1-.1h0C105.8,298,105.8,297.9,105.9,297.8Z" fill="#314993"/><path d="M102.4,297.2l1.8-1.9.4-.2,2.4.5c.1,0,.1.1.1.2h.1l-1.9,2c0,.1-.2.1-.3.1l-2.5-.5s-.1-.1,0-.1h-.1c-.1-.1-.1-.1,0-.1h-.1A.1.1,0,0,1,102.4,297.2Z" fill="#314993"/><path d="M98.9,296.5l1.8-1.9h.4l2.4.5c.1,0,.1,0,.1.1h0a.1.1,0,0,1,.1.1h0c.1.1.1.1,0,.2l-1.9,1.9h-.3l-2.5-.5c-.1,0-.1,0-.1-.1h-.1Z" fill="#314993"/><path d="M91.8,295.2l1.9-1.9c.1-.1.2-.2.3-.1l2.5.4a.3.3,0,0,1,.1.2h.1l-1.9,2h-.3l-2.6-.5h0c-.1,0-.1,0,0-.1h-.1C91.7,295.3,91.7,295.2,91.8,295.2Z" fill="#314993"/><path d="M88.3,294.5l1.9-1.9h.3l2.4.5c.1,0,.2,0,.1.1h.1s.1,0,0,.1h.1v.2l-1.8,1.9h-.4l-2.5-.5s-.1,0,0-.1h-.2Z" fill="#314993"/><path d="M84.8,293.8l1.8-1.9H87l2.4.5h.1s.1,0,0,.1h.1c.1,0,.1.1,0,.1L87.7,295l-.3.2-2.5-.6c-.1,0-.1,0-.1-.1h0c-.1,0-.1,0,0-.1h-.1A.3.3,0,0,1,84.8,293.8Z" fill="#314993"/><path d="M81.2,293.2l1.9-1.9c.1-.1.2-.2.3-.1l2.5.4c.1,0,.1.1.1.2h.1l-1.9,2h-.3l-2.5-.5a.1.1,0,0,1-.1-.1h0c-.1,0-.1,0-.1-.1h0Z" fill="#314993"/><path d="M77.7,292.5l1.9-1.9h.3l2.5.5a.1.1,0,0,1,.1.1h.1v.2l-1.9,1.9h-.3l-2.5-.5c-.1,0-.1,0-.1-.1h0a.1.1,0,0,1-.1-.1h0C77.6,292.6,77.7,292.6,77.7,292.5Z" fill="#314993"/><path d="M70.7,291.2l1.8-1.9c.1-.1.3-.2.4-.1l2.4.4c.1,0,.1.1.1.2h.1c0,.1.1.1,0,.1s.1.1,0,.1l-1.9,2h-.3l-2.5-.5h-.1a.1.1,0,0,1-.1-.1h0A.1.1,0,0,1,70.7,291.2Z" fill="#314993"/><path d="M71.9,289.1H72c.1.1.1.1,0,.2l-1.9,1.9c-.1.1-.2.2-.3.1l-2.5-.5c-.1,0-.1,0-.1-.1h-.1v-.2l1.8-1.9h.4l2.4.5C71.9,289,71.9,289,71.9,289.1Z" fill="#314993"/><path d="M115.7,296.1l1.9-1.9h.3l2.4.5h.1a.1.1,0,0,1,.1.1h0c.1,0,.1,0,.1.1h-.1l-1.8,1.9-.4.2-2.5-.6s-.1,0,0-.1h-.2A.3.3,0,0,1,115.7,296.1Z" fill="#314993"/><path d="M112.2,295.5l1.8-1.9.4-.2,2.4.5c.1,0,.1.1.1.2h0s.1.1,0,.1.1,0,.1.1h0c.1,0,.1.1,0,.1l-1.9,2h-.3l-2.5-.5a.1.1,0,0,1-.1-.1h-.1A.1.1,0,0,1,112.2,295.5Z" fill="#314993"/><path d="M108.6,294.8l1.9-1.9h.3l2.5.5h.2v.2l-1.9,1.9h-.3l-2.5-.5c-.1,0-.1,0-.1-.1h0s-.1,0,0-.1h-.1Z" fill="#314993"/><path d="M105.1,294.1l1.9-1.9h.3l2.5.5h.1s.1,0,0,.1h.1l-1.9,1.9-.3.2-2.6-.6h-.1C105,294.3,105.1,294.2,105.1,294.1Z" fill="#314993"/><path d="M101.6,293.5l1.9-1.9c.1-.1.2-.2.3-.1l2.4.4a.2.2,0,0,1,.2.2h0l-1.8,2h-.4l-2.5-.5h0c-.1,0-.1-.1,0-.1s-.1,0-.1-.1h0c-.1,0-.1,0,0-.1S101.5,293.5,101.6,293.5Z" fill="#314993"/><path d="M98.1,292.8l1.8-1.9h.4l2.4.5h.2c.1.1.1.1,0,.2L101,294c-.1.1-.2.2-.3.1l-2.5-.5a.1.1,0,0,1-.1-.1h0c-.1,0-.1,0-.1-.1h0C98,292.9,98,292.9,98.1,292.8Z" fill="#314993"/><path d="M91,291.5l1.9-1.9c.1-.1.2-.2.3-.1l2.5.4a.3.3,0,0,1,.1.2h.1l-1.9,2h-.3l-2.5-.5a.1.1,0,0,1-.1-.1h0a.1.1,0,0,1-.1-.1h0C90.9,291.6,91,291.5,91,291.5Z" fill="#314993"/><path d="M87.5,290.8l1.9-1.9h.3l2.5.5h.1c0,.1.1.1,0,.1h.1c0,.1,0,.1-.1.2L90.5,292c-.1.1-.3.2-.4.1l-2.5-.5h-.1C87.4,290.9,87.4,290.9,87.5,290.8Z" fill="#314993"/><path d="M84,290.1l1.9-1.9h.3l2.4.5h.1c0,.1.1.1,0,.1h.1a.1.1,0,0,1,.1.1h-.1l-1.9,2h-.3l-2.5-.6h-.2A.3.3,0,0,1,84,290.1Z" fill="#314993"/><path d="M80.5,289.5l1.8-1.9c.1-.1.3-.2.4-.1l2.4.4c.1,0,.1.1.1.2h0c.1,0,.1,0,.1.1h0c.1.1.1.1,0,.1l-1.9,2h-.3l-2.5-.5a.1.1,0,0,1-.1-.1h-.1A.1.1,0,0,1,80.5,289.5Z" fill="#314993"/><path d="M76.9,288.8l1.9-1.9h.3l2.5.5h.1s.1.1,0,.1h.1L79.9,290c-.1.1-.2.2-.3.1l-2.5-.5c-.1,0-.1,0-.1-.1h0c-.1,0-.1,0,0-.1h-.1Z" fill="#314993"/><path d="M73.4,288.1l1.9-1.9h.3l2.5.5h.2l-1.9,2h-.3l-2.6-.6h-.1C73.3,288.3,73.3,288.2,73.4,288.1Z" fill="#314993"/><path d="M74.7,286.1h0c.1,0,.1,0,.1.1h0v.2l-1.8,1.9h-.4l-2.5-.5h-.1s-.1,0,0-.1-.1-.1,0-.1l1.9-1.9c.1-.1.2-.2.3-.1l2.4.4A.2.2,0,0,1,74.7,286.1Z" fill="#314993"/><path d="M127.2,291.2c-.1.1-.1.2,0,.2l2.5.5h.3l1.9-2c.1,0,0-.1-.1-.1l-2.4-.5H129Z" fill="#8cbee7"/><path d="M123.6,290.5v.2l2.6.5c0,.1.2,0,.3-.1l1.9-1.9c.1-.1,0-.2-.1-.2l-2.5-.5h-.3Z" fill="#8cbee7"/><path d="M120.1,289.9c-.1,0-.1.1,0,.1l2.5.6h.4l1.8-2c.1-.1.1-.2,0-.2l-2.5-.5-.3.2Z" fill="#8cbee7"/><path d="M116.6,289.2c-.1.1-.1.2,0,.2l2.5.5h.3l1.9-2c.1,0,0-.1-.1-.1l-2.4-.5h-.3Z" fill="#8cbee7"/><path d="M113.1,288.5c-.1.1-.1.2,0,.2l2.5.5c.1.1.2,0,.3-.1l1.9-1.9c.1-.1,0-.2-.1-.2l-2.4-.5h-.4Z" fill="#8cbee7"/><path d="M109.6,287.9c-.1,0-.1.1,0,.1l2.5.6h.3l1.9-2c.1-.1,0-.2-.1-.2l-2.5-.4h-.3Z" fill="#8cbee7"/><path d="M106,287.2c-.1.1-.1.2,0,.2l2.5.5h.4l1.8-1.9c.1-.1.1-.2,0-.2l-2.5-.5h-.3Z" fill="#8cbee7"/><path d="M102.5,286.5c-.1.1-.1.2,0,.2l2.5.5a.2.2,0,0,0,.3-.1l1.9-1.9a.1.1,0,0,0,0-.2l-2.5-.5h-.3Z" fill="#8cbee7"/><path d="M99,285.9c-.1.1-.1.1,0,.2l2.5.5h.3l1.9-2c.1-.1,0-.2-.1-.2l-2.4-.4a.2.2,0,0,0-.3.1Z" fill="#8cbee7"/><path d="M95.5,285.2c-.1.1-.1.2,0,.2l2.5.5h.3l1.9-1.9c.1-.1,0-.2-.1-.2l-2.4-.5h-.4Z" fill="#8cbee7"/><path d="M91.9,284.5v.2l2.5.5c.1.1.3,0,.4-.1l1.9-1.9c0-.1,0-.2-.1-.2l-2.5-.5h-.3Z" fill="#8cbee7"/><path d="M88.4,283.9c-.1.1-.1.1,0,.2l2.5.5h.4l1.8-2c.1-.1.1-.1,0-.2l-2.5-.4c-.1-.1-.2,0-.3.1Z" fill="#8cbee7"/><path d="M84.9,283.2c-.1.1-.1.2,0,.2l2.5.5h.3l1.9-1.9c.1-.1,0-.2-.1-.2l-2.4-.5h-.3Z" fill="#8cbee7"/><path d="M81.4,282.5c-.1.1-.1.2,0,.2l2.5.6.3-.2,1.9-1.9c.1-.1,0-.2-.1-.2l-2.4-.5h-.4Z" fill="#8cbee7"/><path d="M77.9,281.9c-.1.1-.1.1-.1.2l2.6.5h.3l1.9-2c.1-.1,0-.1-.1-.2l-2.5-.4h-.3Z" fill="#8cbee7"/><path d="M115.5,303.2c-.1.1-.1.2,0,.2l2.5.5a.2.2,0,0,0,.3-.1l1.9-1.9a.1.1,0,0,0,0-.2l-2.5-.5h-.3Z" fill="#8cbee7"/><path d="M112,302.6c-.1,0-.1.1,0,.1l2.5.6h.3l1.9-2c.1-.1,0-.2-.1-.2l-2.4-.5-.3.2Z" fill="#8cbee7"/><path d="M108.5,301.9c-.1.1-.1.2,0,.2l2.5.5h.3l1.9-1.9c.1-.1,0-.2-.1-.2l-2.4-.5h-.4Z" fill="#8cbee7"/><path d="M104.9,301.2v.2l2.5.5c.1.1.3,0,.4-.1l1.9-1.9c0-.1,0-.2-.1-.2l-2.5-.5h-.3Z" fill="#8cbee7"/><path d="M80.3,296.6h0l23.6,4.6h.4l1.8-2c.1-.1.1-.2,0-.2l-23.6-4.5-.3.2Z" fill="#8cbee7"/><path d="M76.8,295.9c-.1.1-.1.2,0,.2l2.5.5h.3l1.9-1.9c.1-.1,0-.2-.1-.2l-2.4-.5h-.4Z" fill="#8cbee7"/><path d="M73.2,295.2c-.1.1-.1.2,0,.2l2.5.6.4-.2,1.8-1.9c.1-.1.1-.2,0-.2l-2.5-.5h-.3Z" fill="#8cbee7"/><path d="M69.7,294.6c-.1.1-.1.1,0,.2l2.5.5c.1,0,.3,0,.3-.1l1.9-2c.1,0,0-.1,0-.2l-2.5-.4c-.1-.1-.2,0-.3.1Z" fill="#8cbee7"/><path d="M66.2,293.9c-.1.1-.1.2,0,.2l2.5.5H69l1.9-1.9c.1-.1,0-.2-.1-.2l-2.4-.5c-.1,0-.3,0-.3.1Z" fill="#8cbee7"/><path d="M126.4,294.6c-.1,0-.1.1,0,.1l2.5.6h.3l1.9-2c.1-.1,0-.2-.1-.2l-2.4-.5-.3.2Z" fill="#8cbee7"/><path d="M122.9,293.9c-.1.1-.1.2,0,.2l2.5.5h.3l1.9-2c.1,0,0-.1-.1-.1l-2.4-.5h-.4Z" fill="#8cbee7"/><path d="M119.3,293.2v.2l2.6.5c0,.1.2,0,.3-.1l1.9-1.9c.1-.1,0-.2-.1-.2l-2.5-.5h-.3Z" fill="#8cbee7"/><path d="M115.8,292.6c-.1.1-.1.1,0,.1l2.5.6h.4l1.8-2c.1-.1.1-.2,0-.2l-2.5-.4c-.1-.1-.2,0-.3.1Z" fill="#8cbee7"/><path d="M112.3,291.9c-.1.1-.1.2,0,.2l2.5.5h.3l1.9-1.9c.1-.1,0-.2-.1-.2l-2.4-.5h-.3Z" fill="#8cbee7"/><path d="M108.8,291.2c-.1.1-.1.2,0,.2l2.5.5c.1.1.2,0,.3-.1l1.9-1.9c.1-.1,0-.2-.1-.2l-2.4-.5h-.4Z" fill="#8cbee7"/><path d="M105.3,290.6c-.1.1-.1.1,0,.2l2.5.5h.3l1.9-2c.1-.1,0-.2-.1-.2l-2.4-.4c-.1-.1-.3,0-.4.1Z" fill="#8cbee7"/><path d="M101.7,289.9c-.1.1-.1.2,0,.2l2.5.5h.4l1.8-1.9c.1-.1.1-.2,0-.2l-2.5-.5h-.3Z" fill="#8cbee7"/><path d="M98.2,289.2c-.1.1-.1.2,0,.2l2.5.5a.2.2,0,0,0,.3-.1l1.9-1.9a.1.1,0,0,0,0-.2l-2.5-.5h-.3Z" fill="#8cbee7"/><path d="M94.7,288.6c-.1.1-.1.1,0,.2l2.5.5h.3l1.9-2c.1-.1,0-.1-.1-.2l-2.4-.4a.2.2,0,0,0-.3.1Z" fill="#8cbee7"/><path d="M91.2,287.9c-.1.1-.1.2,0,.2l2.5.5H94l1.9-1.9c.1-.1,0-.2-.1-.2l-2.4-.5H93Z" fill="#8cbee7"/><path d="M87.6,287.2v.2l2.5.6.4-.2,1.9-1.9c0-.1,0-.2-.1-.2l-2.5-.5h-.3Z" fill="#8cbee7"/><path d="M84.1,286.6c-.1.1-.1.1,0,.2l2.5.5H87l1.8-2c.1-.1.1-.1,0-.2l-2.5-.4c-.1-.1-.2,0-.3.1Z" fill="#8cbee7"/><path d="M80.6,285.9c-.1.1-.1.2,0,.2l2.5.5h.3l1.9-1.9c.1-.1,0-.2-.1-.2l-2.4-.5h-.3Z" fill="#8cbee7"/><path d="M77.1,285.3c-.1,0-.1.1,0,.1l2.5.6.3-.2,1.9-1.9c.1-.1,0-.2-.1-.2l-2.4-.5h-.4Z" fill="#8cbee7"/><path d="M73.6,284.6c-.1.1-.1.1,0,.2l2.5.5h.3l1.9-2c.1,0,0-.1-.1-.2l-2.4-.4c-.1-.1-.3,0-.4.1Z" fill="#8cbee7"/><path d="M120,300.5c-.1.1-.1.1,0,.2l2.5.5h.3l1.9-2c.1,0,0-.1-.1-.2l-2.4-.4h-.3Z" fill="#8cbee7"/><path d="M116.5,299.8c-.1.1-.1.2,0,.2l2.5.5h.3l1.9-1.9c.1-.1,0-.2-.1-.2l-2.4-.5h-.4Z" fill="#8cbee7"/><path d="M113,299.2a.1.1,0,0,0-.1.1l2.6.6.3-.2,1.9-1.9c.1-.1,0-.2-.1-.2l-2.5-.5-.3.2Z" fill="#8cbee7"/><path d="M109.4,298.5c-.1.1-.1.2,0,.2l2.5.5h.4l1.8-2c.1,0,.1-.1,0-.1l-2.5-.5h-.3Z" fill="#8cbee7"/><path d="M105.9,297.8c-.1.1-.1.2,0,.2l2.5.5c.1.1.2,0,.3-.1l1.9-1.9c.1-.1,0-.2-.1-.2l-2.4-.5h-.3Z" fill="#8cbee7"/><path d="M102.4,297.2c-.1,0-.1.1,0,.1l2.5.6h.3l1.9-2c.1-.1,0-.2-.1-.2l-2.4-.5-.4.2Z" fill="#8cbee7"/><path d="M98.9,296.5c-.1.1-.1.2,0,.2l2.5.5h.3l1.9-2c.1,0,0-.1-.1-.1l-2.4-.5h-.4Z" fill="#8cbee7"/><path d="M95.3,295.8c-.1.1-.1.2,0,.2l2.5.5c.1.1.3,0,.4-.1l1.8-1.9c.1-.1.1-.2,0-.2l-2.5-.5h-.3Z" fill="#8cbee7"/><path d="M91.8,295.2c-.1,0-.1.1,0,.1l2.5.6h.3l1.9-2a.1.1,0,0,0,0-.2l-2.5-.4c-.1-.1-.2,0-.3.1Z" fill="#8cbee7"/><path d="M88.3,294.5c-.1.1-.1.2,0,.2l2.5.5h.3l1.9-2c.1,0,0-.1-.1-.1l-2.4-.5h-.3Z" fill="#8cbee7"/><path d="M84.8,293.8c-.1.1-.1.2,0,.2l2.5.5c.1.1.2,0,.3-.1l1.9-1.9c.1-.1,0-.2-.1-.2l-2.4-.5h-.4Z" fill="#8cbee7"/><path d="M81.2,293.2h0l2.5.6h.4l1.9-2c0-.1,0-.2-.1-.2l-2.5-.4c-.1-.1-.2,0-.3.1Z" fill="#8cbee7"/><path d="M77.7,292.5c-.1.1-.1.2,0,.2l2.5.5h.4l1.8-1.9c.1-.1.1-.2,0-.2l-2.5-.5h-.3Z" fill="#8cbee7"/><path d="M74.2,291.8c-.1.1-.1.2,0,.2l2.5.5c.1.1.2,0,.3-.1l1.9-1.9c.1-.1,0-.2-.1-.2l-2.4-.5h-.3Z" fill="#8cbee7"/><path d="M70.7,291.2c-.1.1-.1.1,0,.2l2.5.5h.3l1.9-2c.1-.1,0-.2-.1-.2l-2.4-.4c-.1-.1-.3,0-.4.1Z" fill="#8cbee7"/><path d="M67.2,290.5c-.1.1-.1.2,0,.2l2.5.5H70l1.9-1.9c.1-.1,0-.2-.1-.2l-2.4-.5H69Z" fill="#8cbee7"/><path d="M122.7,297.5c-.1,0-.1.1,0,.1l2.5.6h.4l1.8-2c.1-.1.1-.2,0-.2l-2.5-.5-.3.2Z" fill="#8cbee7"/><path d="M119.2,296.8c-.1.1-.1.2,0,.2l2.5.5c.1,0,.3,0,.3-.1l1.9-2c.1,0,0-.1,0-.2l-2.5-.4h-.3Z" fill="#8cbee7"/><path d="M115.7,296.1c-.1.1-.1.2,0,.2l2.5.5c.1.1.2,0,.3-.1l1.9-1.9c.1-.1,0-.2-.1-.2l-2.4-.5h-.3Z" fill="#8cbee7"/><path d="M112.2,295.5c-.1,0-.1.1,0,.1l2.5.6h.3l1.9-2c.1-.1,0-.2-.1-.2l-2.4-.5-.4.2Z" fill="#8cbee7"/><path d="M108.6,294.8v.2l2.6.5h.3l1.9-2h-.1l-2.5-.5h-.3Z" fill="#8cbee7"/><path d="M105.1,294.1c-.1.1-.1.2,0,.2l2.5.5c.1.1.3,0,.4-.1l1.8-1.9c.1-.1.1-.2,0-.2l-2.5-.5H107Z" fill="#8cbee7"/><path d="M101.6,293.5c-.1,0-.1.1,0,.1l2.5.6h.3l1.9-2c.1-.1,0-.2-.1-.2l-2.4-.4c-.1-.1-.2,0-.3.1Z" fill="#8cbee7"/><path d="M98.1,292.8c-.1.1-.1.2,0,.2l2.5.5h.3l1.9-1.9c.1-.1,0-.2-.1-.2l-2.4-.5h-.4Z" fill="#8cbee7"/><path d="M94.6,292.1a.3.3,0,0,0-.1.2l2.6.5h.3l1.9-1.9c.1-.1,0-.2-.1-.2l-2.5-.5h-.3Z" fill="#8cbee7"/><path d="M91,291.5c-.1.1-.1.1,0,.2l2.5.5h.4l1.8-2c.1-.1.1-.2,0-.2l-2.5-.4c-.1-.1-.2,0-.3.1Z" fill="#8cbee7"/><path d="M87.5,290.8c-.1.1-.1.2,0,.2l2.5.5h.3l1.9-1.9a.1.1,0,0,0,0-.2l-2.5-.5h-.3Z" fill="#8cbee7"/><path d="M84,290.1c-.1.1-.1.2,0,.2l2.5.5c.1.1.2,0,.3-.1l1.9-1.9c.1-.1,0-.2-.1-.2l-2.4-.5h-.3Z" fill="#8cbee7"/><path d="M80.5,289.5c-.1.1-.1.1,0,.2l2.5.5h.3l1.9-2c.1-.1,0-.1-.1-.2l-2.4-.4c-.1-.1-.3,0-.4.1Z" fill="#8cbee7"/><path d="M76.9,288.8c-.1.1-.1.2,0,.2l2.5.5h.4l1.8-1.9c.1-.1.1-.2,0-.2l-2.5-.5h-.3Z" fill="#8cbee7"/><path d="M73.4,288.1c-.1.1-.1.2,0,.2l2.5.6c.1,0,.3-.1.3-.2l1.9-1.9a.1.1,0,0,0,0-.2l-2.5-.5h-.3Z" fill="#8cbee7"/><path d="M69.9,287.5c-.1.1-.1.1,0,.2l2.5.5h.3l1.9-2c.1-.1,0-.1-.1-.2l-2.4-.4c-.1-.1-.2,0-.3.1Z" fill="#8cbee7"/><path d="M37,259.6l19.1,40.1c.3,1.2,1.1,1.3,1.1,1.3L122,313.3a1,1,0,0,0,1-1.4l-19-39.7c-.3-1.4-1.2-1.4-1.2-1.4L38.2,258.5S36.7,258.3,37,259.6Z" fill="#314993"/><path d="M124.6,311.2l-1.9,1.9a.9.9,0,0,0,.4-.9l-19.1-40,1.6-1.6,19.1,40S124.8,311,124.6,311.2Z" fill="#414286"/><path d="M103.1,270.9a1.5,1.5,0,0,1,.9,1.3l1.6-1.6a2,2,0,0,0-.9-1.3Z" fill="#4c4e9a"/><path d="M104.7,269.3h-.3L39.8,256.9a1.6,1.6,0,0,0-1.6.4l-1,1a1,1,0,0,0-.2,1s-.1-.9,1.1-.8l65,12.4Z" fill="#6270b3"/><path d="M34.9,159.4c-1.5-.8-2.9-2.1-3-3.8s1.4-3.6,3-3c-.3-1.5-1.8-2.5-3.2-3a20.5,20.5,0,0,1-4.3-1.8c-1.2-.9-2.1-2.7-1.3-4s2.5-1.5,3.4-2.7a3.8,3.8,0,0,0-.4-4.5,23.1,23.1,0,0,0-3.9-3.1c-1.3-1-2.6-2.3-2.7-4s3.2-4.9,6-4.4,5,2.8,6.9,5a9.1,9.1,0,0,0,2.9,2.6,3.2,3.2,0,0,0,3.6-.2c1.7-1.6.5-5.2,2.6-6.5s3.1,0,3.9,1.3a14.3,14.3,0,0,1,1.2,4.5,6.1,6.1,0,0,0,1.9,4.1c1.9,1.3,4.4.5,6.6.8,4,.5,6.7,4.9,6.3,8.8s-3.2,7.4-6.6,9.5-7.8,3.5-11.5,5.2A12.7,12.7,0,0,1,34.9,159.4Z" fill="#fd7a27"/><path d="M32.5,134.1S43.2,153.2,53.9,157" fill="none" stroke="#fff" stroke-miterlimit="10"/><path d="M21.8,110.5c-4.3-.5-7.9-3.1-10.6-6.3S6.9,98,6.7,94.4a9.3,9.3,0,0,0,4.9,1.4c2.5.1,5.2-1,5.9-3.6a5.6,5.6,0,0,0-2.3-6.1,6.3,6.3,0,0,0-7.1.2A8.1,8.1,0,0,0,5,90.1,11.5,11.5,0,0,1,2.6,79.9C3,78.5.9,77.7.5,79.1A13.6,13.6,0,0,0,4.4,92.7h.1a16.7,16.7,0,0,0,2.4,9c3.1,5.5,8.2,10.1,14.7,10.9C23,112.9,23.2,110.7,21.8,110.5Zm-11-23A3.7,3.7,0,0,1,15.4,90c.6,2.5-1.9,3.7-4,3.6a8.1,8.1,0,0,1-4.5-1.8A5.7,5.7,0,0,1,10.8,87.5Z" fill="#d4a787"/><path d="M354.4,30.2c0-5.1,2.4-9.8,5.9-13.5s6.6-6,10.9-6.8a12.3,12.3,0,0,0-1,6c.3,2.9,2.1,5.9,5.3,6.5a6.9,6.9,0,0,0,6.8-3.7c1.4-2.7.6-6.1-1.3-8.4a9.6,9.6,0,0,0-5-3.1,13.6,13.6,0,0,1,11.7-4.4c1.7.2,2.3-2.4.6-2.6a16.2,16.2,0,0,0-15.5,6.7h-.1a20.9,20.9,0,0,0-10.3,4.2c-6,4.6-10.7,11.3-10.7,19.1A1.4,1.4,0,0,0,354.4,30.2Zm25.5-16.5a4.3,4.3,0,0,1-2.2,5.8c-2.9,1.1-4.7-1.7-4.9-4.2a10.8,10.8,0,0,1,1.4-5.6A6.6,6.6,0,0,1,379.9,13.7Z" fill="#d4a787"/><path d="M357.4,56.7s3.9,5.6,2.2,10.1l-1.8,4.5-1.6-.9s-.1,8.1-2.7,11.4c0,0-11.9-9.5-10.6-15.5,0,0-2.6,4.1-6.4,9.4L332.6,81l.2-3.5s-6.5,5.2-12.5,7.4a4.3,4.3,0,0,1-.1-.5,56,56,0,0,1-.8-14l-2.8,2.1,2.2-6.1c2.2-6.2,4.1-10.6,4.1-10.6-4.2,4.5-18.7-.1-18.7-.1,1.2-3.9,7.9-8.6,7.9-8.6l-1.7-.8,2.8-4c2.7-4,9.6-3.9,9.6-3.9a21,21,0,0,1-10.6-13.6s4.2.2,12.2,1.3,15.5,13.4,15.5,13.4l3.1,1.9h.2a24.2,24.2,0,0,0,3.6,1.6s14.4-.7,19.8,5.2,8,9.5,8,9.5A21.2,21.2,0,0,1,357.4,56.7Z" fill="#e27739"/><line x1="325.9" y1="73.2" x2="347.2" y2="34.2" fill="none" stroke="#000" stroke-miterlimit="10" stroke-width="0.63"/><path d="M357.4,56.7s3.9,5.6,2.2,10.1l-1.8,4.5-1.6-.9s-.1,8.1-2.7,11.4c0,0-11.9-9.5-10.6-15.5,0,0-2.6,4.1-6.4,9.4L332.6,81l.2-3.5s-6.5,5.2-12.5,7.4a4.3,4.3,0,0,1-.1-.5l12.5-23.6L343,41.4h.2a24.2,24.2,0,0,0,3.6,1.6s14.4-.7,19.8,5.2,8,9.5,8,9.5A21.2,21.2,0,0,1,357.4,56.7Z" fill="#e27739" opacity="0.4" style="mix-blend-mode:multiply"/><path d="M319,49.8c3.4.5,6.7-.7,10.1-1.6s7-1.4,9.9.4" fill="none" stroke="#000" stroke-miterlimit="10" stroke-width="0.63"/><path d="M335.6,55.3c.5,1.3-.1,2.8-.1,4.2a14.2,14.2,0,0,0,.8,4,7.2,7.2,0,0,1,0,4.1" fill="none" stroke="#000" stroke-miterlimit="10" stroke-width="0.63"/><path d="M322.8,69c-.3.4-.7.8-1.2.7s-.5-.9-.4-1.4a16.2,16.2,0,0,1,3.2-7.9c.2-.3.9-1.2,1.3-.9s.1.9,0,1.2-.9,2.4-1.3,3.7A17.9,17.9,0,0,1,322.8,69Z" fill="#fff6e6" opacity="0.47" style="mix-blend-mode:soft-light"/></g></g></g></svg>