<svg xmlns="http://www.w3.org/2000/svg" xmlns:xlink="http://www.w3.org/1999/xlink" viewBox="0 0 389.3 346.1"><defs><clipPath id="a2261560-907d-44f9-8695-2911ab3438a9"><path id="f282e569-28a8-42a2-98b2-a599006d0f0a" data-name="SVGID" d="M102.5,208.2c-5.7,5.6-8.4,12.1-6,14.5s8.9,0,14.6-5.6,8.4-12,6-14.4a2.9,2.9,0,0,0-1.4-.8c-3-.8-8.4,1.7-13.2,6.3" fill="none"/></clipPath><linearGradient id="a7ca8152-e416-4fb8-a6c1-2c3465e03be0" x1="-3164.77" y1="-563.37" x2="-3164.38" y2="-563.37" gradientTransform="matrix(67.46, 0, 0, 67.46, 213597.5, 38234.29)" gradientUnits="userSpaceOnUse"><stop offset="0" stop-color="#85b644"/><stop offset="0.08" stop-color="#8cba48"/><stop offset="0.42" stop-color="#a3c856"/><stop offset="0.73" stop-color="#b1d15e"/><stop offset="1" stop-color="#b6d461"/></linearGradient><clipPath id="ad95dd83-89d2-4c34-84f4-280dd169b4ef"><path id="b226918a-87e9-44b4-aa03-fafcfa500613" data-name="SVGID" d="M243.5,203.9c-1.9,2.8,1.9,8.7,8.5,13.1s13.5,5.7,15.4,2.9-1.9-8.8-8.5-13.2-12.6-5.5-15-3.3a1,1,0,0,0-.4.5" fill="none"/></clipPath><linearGradient id="e0607d65-6f14-4f22-9c20-1c231ee2d119" x1="-3185.9" y1="-617.59" x2="-3185.5" y2="-617.59" gradientTransform="translate(41933.2 -214735.1) rotate(-90) scale(67.47)" xlink:href="#a7ca8152-e416-4fb8-a6c1-2c3465e03be0"/><clipPath id="b0a81ef5-45bf-405e-970d-c185a5b1e529"><path id="aa19f742-7d88-4674-b488-9fe8a5ab385f" data-name="SVGID" d="M203.8,245.3c-3.3,1.2-3.6,8.2-.9,15.7s7.6,12.5,10.8,11.3,3.6-8.2.9-15.6-7-11.9-10.2-11.5h-.6" fill="none"/></clipPath><linearGradient id="f9c3bbcd-2188-4b53-844f-5a78367d9b27" x1="-3191.8" y1="-591.99" x2="-3191.4" y2="-591.99" gradientTransform="translate(40152.2 -215087.4) rotate(-90) scale(67.47)" xlink:href="#a7ca8152-e416-4fb8-a6c1-2c3465e03be0"/><clipPath id="bcd12c7e-2675-4eea-b079-499c0610f9a1"><path id="e9f5e7c5-8c05-4867-82fe-cca1676b134b" data-name="SVGID" d="M132.6,251.6c-3.3,7.2-3.5,14.2-.4,15.6s8.3-3.2,11.6-10.5,3.5-14.2.4-15.6a2.9,2.9,0,0,0-1.6-.3c-3.1.4-7.2,4.7-10,10.8" fill="none"/></clipPath><linearGradient id="ad80ecd2-8440-41d5-81cc-f9e543d1e896" x1="-3180.51" y1="-570.5" x2="-3180.12" y2="-570.5" gradientTransform="translate(38636.6 -214298.7) rotate(-90) scale(67.46)" xlink:href="#a7ca8152-e416-4fb8-a6c1-2c3465e03be0"/><clipPath id="e8a649c1-bf5d-47db-968d-49354b810e38"><path id="a623133f-9ff3-42ca-b9b2-caaaa588a2b5" data-name="SVGID" d="M113.8,150.5a77.2,77.2,0,1,0,104.8-30.7,76.3,76.3,0,0,0-45.8-9,77.1,77.1,0,0,0-59,39.7" fill="none"/></clipPath><linearGradient id="abdba78d-8405-479d-8bf3-f3ad26943bb4" x1="-3164.72" y1="-600.15" x2="-3164.32" y2="-600.15" gradientTransform="matrix(-392.5, 0, 0, -392.5, -1241902.45, -235379.92)" gradientUnits="userSpaceOnUse"><stop offset="0" stop-color="#b6d461"/><stop offset="1" stop-color="#b6d461"/><stop offset="1" stop-color="#85b644"/></linearGradient><clipPath id="ab4c20ab-6f8a-441b-9096-6810b53c885e"><path id="a81f3293-fd59-405b-8a4a-56b975624f94" data-name="SVGID" d="M131.6,132.9A74.1,74.1,0,1,0,173,114a74,74,0,0,0-41.4,18.9" fill="none"/></clipPath><linearGradient id="b4009b1d-aa28-4671-b21a-8060d53d2ab3" x1="-3167.22" y1="-596.7" x2="-3166.82" y2="-596.7" gradientTransform="matrix(0, -376.45, 376.45, 0, 224805.15, -1192032.73)" xlink:href="#a7ca8152-e416-4fb8-a6c1-2c3465e03be0"/><clipPath id="e26f2701-355e-4ae4-80d7-97f4f3e690c8"><rect id="aae72ec2-f9fa-4cc5-89b6-f9f5ca257130" data-name="SVGID" x="225.3" y="176.7" width="25" height="20.18" fill="none"/></clipPath><clipPath id="b8b136f2-2dd3-4ef5-9f24-33083363408c"><rect id="edd2ad0e-5027-417f-9a3a-f881cc4c8c94" data-name="SVGID" x="110.3" y="177.9" width="25" height="20.18" fill="none"/></clipPath></defs><title>資產 1</title><g style="isolation:isolate"><g id="e9392b8d-0165-4eb1-89a0-f133d60f8aaa" data-name="圖層 2"><g id="ef263546-39ef-4065-9af0-a4d2c7dfa774" data-name="圖層 4"><path d="M34.9,159.4c-1.5-.8-2.9-2.1-3-3.8s1.4-3.6,3-3c-.3-1.5-1.8-2.5-3.2-3a20.5,20.5,0,0,1-4.3-1.8c-1.2-.9-2.1-2.7-1.3-4s2.5-1.5,3.4-2.7a3.8,3.8,0,0,0-.4-4.5,23.1,23.1,0,0,0-3.9-3.1c-1.3-1-2.6-2.3-2.7-4s3.2-4.9,6-4.4,5,2.8,6.9,5a9.1,9.1,0,0,0,2.9,2.6,3.2,3.2,0,0,0,3.6-.2c1.7-1.6.5-5.2,2.6-6.5s3.1,0,3.9,1.3a14.3,14.3,0,0,1,1.2,4.5,6.1,6.1,0,0,0,1.9,4.1c1.9,1.3,4.4.5,6.6.8,4,.5,6.7,4.9,6.3,8.8s-3.2,7.4-6.6,9.5-7.8,3.5-11.5,5.2A12.7,12.7,0,0,1,34.9,159.4Z" fill="#fd7a27"/><path d="M32.5,134.1S43.2,153.2,53.9,157" fill="none" stroke="#fff" stroke-miterlimit="10"/><path d="M21.8,110.5c-4.3-.5-7.9-3.1-10.6-6.3S6.9,98,6.7,94.4a9.3,9.3,0,0,0,4.9,1.4c2.5.1,5.2-1,5.9-3.6a5.6,5.6,0,0,0-2.3-6.1,6.3,6.3,0,0,0-7.1.2A8.1,8.1,0,0,0,5,90.1,11.5,11.5,0,0,1,2.6,79.9C3,78.5.9,77.7.5,79.1A13.6,13.6,0,0,0,4.4,92.7h.1a16.7,16.7,0,0,0,2.4,9c3.1,5.5,8.2,10.1,14.7,10.9C23,112.9,23.2,110.7,21.8,110.5Zm-11-23A3.7,3.7,0,0,1,15.4,90c.6,2.5-1.9,3.7-4,3.6a8.1,8.1,0,0,1-4.5-1.8A5.7,5.7,0,0,1,10.8,87.5Z" fill="#d4a787"/><path d="M354.4,30.2c0-5.1,2.4-9.8,5.9-13.5s6.6-6,10.9-6.8a12.3,12.3,0,0,0-1,6c.3,2.9,2.1,5.9,5.3,6.5a6.9,6.9,0,0,0,6.8-3.7c1.4-2.7.6-6.1-1.3-8.4a9.6,9.6,0,0,0-5-3.1,13.6,13.6,0,0,1,11.7-4.4c1.7.2,2.3-2.4.6-2.6a16.2,16.2,0,0,0-15.5,6.7h-.1a20.9,20.9,0,0,0-10.3,4.2c-6,4.6-10.7,11.3-10.7,19.1A1.4,1.4,0,0,0,354.4,30.2Zm25.5-16.5a4.3,4.3,0,0,1-2.2,5.8c-2.9,1.1-4.7-1.7-4.9-4.2a10.8,10.8,0,0,1,1.4-5.6A6.6,6.6,0,0,1,379.9,13.7Z" fill="#d4a787"/><path d="M357.4,56.7s3.9,5.6,2.2,10.1l-1.8,4.5-1.6-.9s-.1,8.1-2.7,11.4c0,0-11.9-9.5-10.6-15.5,0,0-2.6,4.1-6.4,9.4L332.6,81l.2-3.5s-6.5,5.2-12.5,7.4a4.3,4.3,0,0,1-.1-.5,56,56,0,0,1-.8-14l-2.8,2.1,2.2-6.1c2.2-6.2,4.1-10.6,4.1-10.6-4.2,4.5-18.7-.1-18.7-.1,1.2-3.9,7.9-8.6,7.9-8.6l-1.7-.8,2.8-4c2.7-4,9.6-3.9,9.6-3.9a21,21,0,0,1-10.6-13.6s4.2.2,12.2,1.3,15.5,13.4,15.5,13.4l3.1,1.9h.2a24.2,24.2,0,0,0,3.6,1.6s14.4-.7,19.8,5.2,8,9.5,8,9.5A21.2,21.2,0,0,1,357.4,56.7Z" fill="#e27739"/><line x1="325.9" y1="73.2" x2="347.2" y2="34.2" fill="none" stroke="#000" stroke-miterlimit="10" stroke-width="0.63"/><path d="M357.4,56.7s3.9,5.6,2.2,10.1l-1.8,4.5-1.6-.9s-.1,8.1-2.7,11.4c0,0-11.9-9.5-10.6-15.5,0,0-2.6,4.1-6.4,9.4L332.6,81l.2-3.5s-6.5,5.2-12.5,7.4a4.3,4.3,0,0,1-.1-.5l12.5-23.6L343,41.4h.2a24.2,24.2,0,0,0,3.6,1.6s14.4-.7,19.8,5.2,8,9.5,8,9.5A21.2,21.2,0,0,1,357.4,56.7Z" fill="#e27739" opacity="0.4" style="mix-blend-mode:multiply"/><path d="M319,49.8c3.4.5,6.7-.7,10.1-1.6s7-1.4,9.9.4" fill="none" stroke="#000" stroke-miterlimit="10" stroke-width="0.63"/><path d="M335.6,55.3c.5,1.3-.1,2.8-.1,4.2a14.2,14.2,0,0,0,.8,4,7.2,7.2,0,0,1,0,4.1" fill="none" stroke="#000" stroke-miterlimit="10" stroke-width="0.63"/><path d="M322.8,69c-.3.4-.7.8-1.2.7s-.5-.9-.4-1.4a16.2,16.2,0,0,1,3.2-7.9c.2-.3.9-1.2,1.3-.9s.1.9,0,1.2-.9,2.4-1.3,3.7A17.9,17.9,0,0,1,322.8,69Z" fill="#fff6e6" opacity="0.47" style="mix-blend-mode:soft-light"/><path d="M120.7,137.8c-1.2,15.9-.8,30.9-1,36.2s-12.6,30.2-34.3,13.5C117,186.5,83.2,144.1,120.7,137.8Z" fill="#6e4529"/><g clip-path="url(#a2261560-907d-44f9-8695-2911ab3438a9)"><rect x="92.2" y="201.7" width="28.7" height="23.37" transform="translate(-130.5 239.2) rotate(-69.7)" fill="url(#a7ca8152-e416-4fb8-a6c1-2c3465e03be0)"/></g><g clip-path="url(#ad95dd83-89d2-4c34-84f4-280dd169b4ef)"><rect x="240.4" y="196" width="30.5" height="32.35" transform="translate(8.9 434.6) rotate(-81.7)" fill="url(#e0607d65-6f14-4f22-9c20-1c231ee2d119)"/></g><g clip-path="url(#b0a81ef5-45bf-405e-970d-c185a5b1e529)"><rect x="193.5" y="243" width="30.5" height="32.35" transform="translate(-122.6 228.1) rotate(-45.8)" fill="url(#f9c3bbcd-2188-4b53-844f-5a78367d9b27)"/></g><g clip-path="url(#bcd12c7e-2675-4eea-b079-499c0610f9a1)"><rect x="126.6" y="240.4" width="23.4" height="28.75" transform="translate(-3.5 1.9) rotate(-0.8)" fill="url(#ad80ecd2-8440-41d5-81cc-f9e543d1e896)"/></g><g clip-path="url(#e8a649c1-bf5d-47db-968d-49354b810e38)"><rect x="81.8" y="96.6" width="200.7" height="192.2" transform="translate(-46.9 59.1) rotate(-16.4)" fill="url(#abdba78d-8405-479d-8bf3-f3ad26943bb4)"/></g><g clip-path="url(#ab4c20ab-6f8a-441b-9096-6810b53c885e)"><rect x="69.3" y="78.3" width="225.8" height="228.13" transform="translate(-74 260) rotate(-61.4)" fill="url(#b4009b1d-aa28-4671-b21a-8060d53d2ab3)"/></g><g opacity="0.5"><g clip-path="url(#e26f2701-355e-4ae4-80d7-97f4f3e690c8)"><path d="M248.3,180.8c3.1,4.1,3,11.4-2.6,14.5s-15.7,1.3-19-3c-6.9-9.1,13.4-22.5,21.6-11.5" fill="#e0256d"/></g></g><g opacity="0.5"><g clip-path="url(#b8b136f2-2dd3-4ef5-9f24-33083363408c)"><path d="M112.3,182c-3.1,4.1-3,11.4,2.6,14.5s15.7,1.3,19-3c6.9-9.1-13.4-22.4-21.6-11.5" fill="#e0256d"/></g></g><path d="M173.5,207.4h0c-.2.2.5-.3,0-.1l.6-.2c-.5.2.1.1.3.1s-.2-.2.4.1l1.2.6a12,12,0,0,0,3.1,1.8,5.1,5.1,0,0,0,4.3-.6,7.9,7.9,0,0,0,1.5-1.2l.5-.4h.2l.5-.3c-.6.3,0,0,.1,0l.7-.2c-.3.1-.3.1,0,.1h1.5s.7.3.4.1.2.2.3.2l.6.4c-.6-.5.6.8.2.2a3.2,3.2,0,0,0,5.5-3.2,10.1,10.1,0,0,0-7.3-4.1,9.5,9.5,0,0,0-7.5,2.7l-.4.3c-.3.3-.1.1.3,0s.6.1.1-.2l-.7-.6a10.6,10.6,0,0,0-5-2,7,7,0,0,0-7.5,4.9c-1.1,3.9,5,5.5,6.1,1.6Z" fill="#5a3a1c"/><path d="M148,147.6c11.4,0,19.7,10.9,19.7,22s-8.3,19.2-19.7,19.2-20-8.1-20-19.2S136.6,147.6,148,147.6Z" fill="#fff"/><path d="M213.3,147.6c11.4,0,19.7,10.9,19.7,22s-8.3,19.2-19.7,19.2-20-8.1-20-19.2S201.9,147.6,213.3,147.6Z" fill="#fff"/><circle cx="147.9" cy="168.2" r="5.6" fill="#4a3e37"/><circle cx="213.1" cy="168.2" r="5.6" fill="#4a3e37"/><path d="M158.8,179.8c-2.6,0-2.7,1.8-5.1,2H153c-2.4-.2-2.5-2-5.1-2s-2.7,1.8-5.1,2h-.7c-2.4-.2-2.6-2.1-5.2-1.9s-2.5,1.3-4.7,1.8a.1.1,0,0,0,.1.1,19.9,19.9,0,0,0,15.7,7c6.5,0,12-2.6,15.5-7a.1.1,0,0,0,.1-.1C161.4,181.1,161.3,179.8,158.8,179.8Z" fill="#76bde8"/><path d="M224,179.8c-2.6,0-2.7,1.8-5.1,2h-.7c-2.4-.2-2.5-2-5.1-2s-2.7,1.8-5.1,2h-.7c-2.4-.2-2.6-2.1-5.2-1.9s-2.5,1.3-4.7,1.8a.1.1,0,0,0,.1.1,19.9,19.9,0,0,0,15.7,7c6.5,0,12-2.6,15.5-7h.1C226.6,181.1,226.5,179.8,224,179.8Z" fill="#76bde8"/><path d="M112.1,110.3c3.9,1.7,8.7.7,10.5-.9-4.3-12.1.1-27.8,13.3-30.5-.6,30.7,84.7-6.7,108.3,32.7-.8-.1,3.2,6.2-2.8,11.9-7.8,8.5-28,22.2-49.9,21,8.6-2.8,26.2-12.9,26.1-17.9-12.2,6.3-30.7,15.1-60.6,16.6C128.9,144.6,107,133.2,112.1,110.3Z" fill="#6e4529"/><path d="M233.7,132.5c3.6,19.6,4.9,38.3,5.8,44.8s19.6,35.9,44.3,12.3C244.6,192.5,281,135.5,233.7,132.5Z" fill="#6e4529"/><path d="M239,125c-.4,4.3,3.6,8.1,8.8,8.5s9.7-2.7,10.1-7.1-3.6-8.1-8.9-8.5-9.7,2.8-10,7.1" fill="#efdc3c"/><path d="M229.4,123.6c-2.3,3.6-.6,8.9,3.8,11.7s9.9,2.1,12.2-1.5.6-8.9-3.8-11.7-9.8-2.2-12.2,1.5" fill="#efdc3c"/><path d="M241.2,133.2c-1.5,4,1.4,8.8,6.3,10.5s10.1-.2,11.5-4.2-1.4-8.8-6.3-10.6-10.1.2-11.5,4.3" fill="#efdc3c"/><path d="M229.8,122.7c3.5,2.6,8.8,1.4,12-2.8s3-9.6-.5-12.3-8.8-1.4-11.9,2.8-3,9.6.4,12.3" fill="#eebc2a"/><path d="M216.6,113c-2.3,3.7-.6,8.9,3.8,11.7s9.8,2.2,12.2-1.5.6-8.9-3.8-11.7-9.9-2.1-12.2,1.5" fill="#eebc2a"/><path d="M228.3,122.6c-1.4,4.1,1.4,8.8,6.3,10.5s10.1-.1,11.6-4.2-1.4-8.8-6.3-10.5-10.1.1-11.6,4.2" fill="#eebc2a"/><path d="M248.4,128.6a7.1,7.1,0,0,1-1.7,4.6l-.2.2-.3.3-.3.3-.3.2-.3.3-.3.2-2.2,1.1h-1.7c-7.7,1.1-12.1-6.3-14.5-12.5l-1.1-2.7a1.9,1.9,0,0,0-.2-.7,14.6,14.6,0,0,0-3.4-5.4l-.2-.2a7.1,7.1,0,0,0-6.6-1.1h-.6a3.3,3.3,0,0,0-.3-.6,8,8,0,0,1-.8-1.6l-.2-.4h.4a9.9,9.9,0,0,1,9.3.9c3.2,2.2,4.6,5.7,5.9,9.1,1.9,4.9,4.4,11.8,10.5,12.8,3.5.4,7.6-1.7,7.6-5.8s-5.2-5.3-7.6-5.1a11.3,11.3,0,0,0-6.4,2.1l-.7.6h-.8l.3-.3a16.9,16.9,0,0,1,2.9-1.7c5.1-2.2,13.5-.7,13.8,6.1" fill="#008742"/><path d="M222.7,122.9l-1.8-.4a18.9,18.9,0,0,1-13.7-17.6l2.8-.3a19.8,19.8,0,0,0,12.7,18.3" fill="#7db82e"/><path d="M227,127.1h.8l-.5.3-.5.2h-.4l-.5.2h-.5l-.4.2h-1.5a22.1,22.1,0,0,1-6.3.3h-1l-.5-.2h-.5l-.6-.2-.4-.2c-3.7-1.6-6.1-4.3-6.5-8.4v-3a4.3,4.3,0,0,0,.1-.5c.1-.2.1-.4.2-.6s.1-.1.1-.2l.3-.7v-.2l2,2.7v3.1c1.3,5.7,8.3,7.1,13.3,6.6h1.8l1.3-.4" fill="#7db82e"/><path d="M127.1,270.4l-1.9,6.3h0c-1.2,3.8-2.5,7.7-8.7,27.3a1.1,1.1,0,0,1-1,.8H69.3a1.2,1.2,0,0,1-1.1-.8c-5.4-17.1-6.9-21.9-8.5-26.7l-2.1-6.9Z" fill="#58b4f5"/><polygon points="127.1 270.4 126.3 273.1 58.4 273.1 57.6 270.4 127.1 270.4" fill="#358ccc"/><path d="M55.3,265.1h74.1a.6.6,0,0,1,.6.5v4.3a.6.6,0,0,1-.6.5H55.3a.5.5,0,0,1-.5-.5v-4.3a.5.5,0,0,1,.5-.5Z" fill="#58b4f5" fill-rule="evenodd"/><path d="M80.5,276.5h0a1.9,1.9,0,0,1,1.9,1.9v7a1.8,1.8,0,0,1-1.9,1.8h0a1.8,1.8,0,0,1-1.8-1.8v-7a1.9,1.9,0,0,1,1.8-1.9Zm0,13h0a1.8,1.8,0,0,1,1.9,1.8v7a1.9,1.9,0,0,1-1.9,1.9h0a1.9,1.9,0,0,1-1.8-1.9v-7a1.8,1.8,0,0,1,1.8-1.8Zm7.6-13h0a2,2,0,0,1,1.9,1.9v7a1.9,1.9,0,0,1-1.9,1.8h0a1.9,1.9,0,0,1-1.9-1.8v-7a2,2,0,0,1,1.9-1.9Zm0,13h0a1.9,1.9,0,0,1,1.9,1.8v7a2,2,0,0,1-1.9,1.9h0a2,2,0,0,1-1.9-1.9v-7a1.9,1.9,0,0,1,1.9-1.8Zm7.6-13h0a2,2,0,0,1,1.9,1.9v7a1.9,1.9,0,0,1-1.9,1.8h0a1.9,1.9,0,0,1-1.9-1.8v-7a2,2,0,0,1,1.9-1.9Zm0,13h0a1.9,1.9,0,0,1,1.9,1.8v7a2,2,0,0,1-1.9,1.9h0a2,2,0,0,1-1.9-1.9v-7a1.9,1.9,0,0,1,1.9-1.8Zm7.5-13h0a1.9,1.9,0,0,1,1.9,1.9v7a1.8,1.8,0,0,1-1.9,1.8h0a1.8,1.8,0,0,1-1.8-1.8v-7a1.9,1.9,0,0,1,1.8-1.9Zm0,13h0a1.8,1.8,0,0,1,1.9,1.8v7a1.9,1.9,0,0,1-1.9,1.9h0a1.9,1.9,0,0,1-1.8-1.9v-7a1.8,1.8,0,0,1,1.8-1.8Zm7.6-13h0a1.9,1.9,0,0,1,1.9,1.9v7a1.8,1.8,0,0,1-1.9,1.8h0a1.9,1.9,0,0,1-1.9-1.8v-7a2,2,0,0,1,1.9-1.9Zm0,13h0a1.8,1.8,0,0,1,1.9,1.8v7a1.9,1.9,0,0,1-1.9,1.9h0a2,2,0,0,1-1.9-1.9v-7a1.9,1.9,0,0,1,1.9-1.8ZM73,276.5h0a1.9,1.9,0,0,1,1.8,1.9v7a1.8,1.8,0,0,1-1.8,1.8h0a1.8,1.8,0,0,1-1.9-1.8v-7a1.9,1.9,0,0,1,1.9-1.9Zm0,13h0a1.8,1.8,0,0,1,1.8,1.8v7a1.9,1.9,0,0,1-1.8,1.9h0a1.9,1.9,0,0,1-1.9-1.9v-7a1.8,1.8,0,0,1,1.9-1.8Z" fill="#358ccc" fill-rule="evenodd"/><path d="M80.5,276.5h0a1.9,1.9,0,0,1,1.9,1.9h0v.2h0v.2h0v.2h0v.2h0a1.9,1.9,0,0,1-1.9,1.9h0a1.9,1.9,0,0,1-1.8-1.9h0v-.2h0v-.2h0v-.2h0v-.2h0a1.9,1.9,0,0,1,1.8-1.9Zm1.9,20.7a1.9,1.9,0,0,1-1.9,1.9h0a1.9,1.9,0,0,1-1.8-1.9h0v-.2h0v-.2h0v-.2h0v-.2h0a1.8,1.8,0,0,1,1.8-1.8h0a1.8,1.8,0,0,1,1.9,1.8h0v.2h0v.2h0v.2h0v.2h0ZM90,284.3a2,2,0,0,1-1.9,1.9h0a2,2,0,0,1-1.9-1.9h0v-.2h0v-.2h0v-.2h0v-.2h0a2,2,0,0,1,1.9-1.9h0a2,2,0,0,1,1.9,1.9h0v.2h0v.2h0v.2h0v.2h0Zm0,12.9a2,2,0,0,1-1.9,1.9h0a2,2,0,0,1-1.9-1.9h0v-.2h0v-.2h0v-.2h0v-.2h0a1.9,1.9,0,0,1,1.9-1.8h0a1.9,1.9,0,0,1,1.9,1.8h0v.2h0v.2h0v.2h0v.2h0Zm7.6-12.9a2,2,0,0,1-1.9,1.9h0a2,2,0,0,1-1.9-1.9h0v-.2h0v-.2h0v-.2h0v-.2h0a2,2,0,0,1,1.9-1.9h0a2,2,0,0,1,1.9,1.9h0v.2h0v.2h0v.2h0v.2h0Zm0,12.9a2,2,0,0,1-1.9,1.9h0a2,2,0,0,1-1.9-1.9h0v-.2h0v-.2h0v-.2h0v-.2h0a1.9,1.9,0,0,1,1.9-1.8h0a1.9,1.9,0,0,1,1.9,1.8h0v.2h0v.2h0v.2h0v.2h0Zm7.5-12.9a1.9,1.9,0,0,1-1.9,1.9h0a1.9,1.9,0,0,1-1.8-1.9h0v-.2h0v-.2h0v-.2h0v-.2h0a1.9,1.9,0,0,1,1.8-1.9h0a1.9,1.9,0,0,1,1.9,1.9h0v.2h0v.2h0v.2h0v.2h0Zm0,12.9a1.9,1.9,0,0,1-1.9,1.9h0a1.9,1.9,0,0,1-1.8-1.9h0v-.2h0v-.2h0v-.2h0v-.2h0a1.8,1.8,0,0,1,1.8-1.8h0a1.8,1.8,0,0,1,1.9,1.8h0v.2h0v.2h0v.2h0v.2h0Zm7.6-12.9a1.9,1.9,0,0,1-1.9,1.9h0a2,2,0,0,1-1.9-1.9v-5.9a2,2,0,0,1,1.9-1.9h0a1.9,1.9,0,0,1,1.9,1.9Zm0,12.9a1.9,1.9,0,0,1-1.9,1.9h0a2,2,0,0,1-1.9-1.9v-5.9a1.9,1.9,0,0,1,1.9-1.8h0a1.8,1.8,0,0,1,1.9,1.8ZM74.8,284.3a1.9,1.9,0,0,1-1.8,1.9h0a1.9,1.9,0,0,1-1.9-1.9v-5.9a1.9,1.9,0,0,1,1.9-1.9h0a1.9,1.9,0,0,1,1.8,1.9Zm0,12.9a1.9,1.9,0,0,1-1.8,1.9h0a1.9,1.9,0,0,1-1.9-1.9v-5.9a1.8,1.8,0,0,1,1.9-1.8h0a1.8,1.8,0,0,1,1.8,1.8Z" fill="#3e69b0" fill-rule="evenodd"/><path d="M73.1,269.6h0a2,2,0,0,0,2.6-1.2l12.6-19.9a2,2,0,0,0-1.1-2.6h0a2.1,2.1,0,0,0-2.7,1.1L72,266.9a2,2,0,0,0,1.1,2.7Z" fill="#4d4c42" fill-rule="evenodd"/><path d="M74.2,266.7a.9.9,0,1,1-1.1.5.8.8,0,0,1,1.1-.5Z" fill="#d5ab07" fill-rule="evenodd"/><path d="M111.7,269.6h0a2,2,0,0,1-2.6-1.2L96.5,248.5a2,2,0,0,1,1.1-2.6h0a2,2,0,0,1,2.6,1.1l12.6,19.9a2.1,2.1,0,0,1-1.1,2.7Z" fill="#4d4c42" fill-rule="evenodd"/><path d="M110.5,266.7a.8.8,0,0,0-.5,1.1.9.9,0,1,0,.5-1.1Z" fill="#d5ab07" fill-rule="evenodd"/></g></g></g></svg>