<svg xmlns="http://www.w3.org/2000/svg" xmlns:xlink="http://www.w3.org/1999/xlink" viewBox="0 0 394.9 316.7"><defs><clipPath id="b5fe8293-1fad-40ef-b199-127481447084"><path id="a1f46c7a-1dad-4c81-a38a-d65b85fccd21" data-name="SVGID" d="M74.5,178.8c-5.7,5.6-8.3,12-6,14.5s9,0,14.7-5.6,8.4-12,6-14.5l-1.4-.8c-3.1-.7-8.5,1.8-13.3,6.4" fill="none"/></clipPath><linearGradient id="a5f40c64-8d27-4fb8-8b50-1985aa9e7bd4" x1="-3174.95" y1="351.66" x2="-3174.56" y2="351.66" gradientTransform="translate(214260.5 -23525.7) scale(67.46)" gradientUnits="userSpaceOnUse"><stop offset="0" stop-color="#85b644"/><stop offset="0.08" stop-color="#8cba48"/><stop offset="0.42" stop-color="#a3c856"/><stop offset="0.73" stop-color="#b1d15e"/><stop offset="1" stop-color="#b6d461"/></linearGradient><clipPath id="b76a3934-fa8e-414e-9b44-8384da413bc6"><path id="a2395c9a-4f6f-4a2b-ade2-659a0404d6dd" data-name="SVGID" d="M215.5,174.5c-1.9,2.8,2,8.7,8.6,13.1s13.5,5.7,15.4,2.9-1.9-8.8-8.6-13.2-12.6-5.5-14.9-3.3l-.5.5" fill="none"/></clipPath><linearGradient id="e0fca3e2-ddfc-4cb2-8b0e-63e12f653b29" x1="-3207.16" y1="316.29" x2="-3206.76" y2="316.29" gradientTransform="translate(-21106.8 -216200.9) rotate(-90) scale(67.47)" xlink:href="#a5f40c64-8d27-4fb8-8b50-1985aa9e7bd4"/><clipPath id="ad079e5d-ca7e-4ac0-9d06-b674c1fa73ab"><path id="b2f4617a-1c2d-4202-906a-ffdbe926cd48" data-name="SVGID" d="M175.8,215.9c-3.2,1.2-3.5,8.2-.8,15.7s7.6,12.5,10.8,11.3,3.6-8.2.8-15.6-6.9-11.9-10.1-11.5h-.7" fill="none"/></clipPath><linearGradient id="b95d06a2-1810-4378-8f2a-ff2fe72c5222" x1="-3205.29" y1="338.02" x2="-3204.9" y2="338.02" gradientTransform="translate(-22626.4 -216027.2) rotate(-90) scale(67.47)" xlink:href="#a5f40c64-8d27-4fb8-8b50-1985aa9e7bd4"/><clipPath id="bd0c84b4-261d-4d94-a67d-9501195093f7"><path id="b12f24f5-a2d3-4ff4-b283-36098b98be57" data-name="SVGID" d="M104.7,222.1c-3.4,7.3-3.5,14.3-.4,15.7s8.3-3.3,11.6-10.5,3.5-14.2.4-15.6a2.9,2.9,0,0,0-1.6-.3c-3.1.4-7.2,4.7-10,10.7" fill="none"/></clipPath><linearGradient id="bd693b5c-3033-40ac-84a9-f50b6b165121" x1="-3189.79" y1="349.61" x2="-3189.4" y2="349.61" gradientTransform="translate(-23464.4 -214957.4) rotate(-90) scale(67.46)" xlink:href="#a5f40c64-8d27-4fb8-8b50-1985aa9e7bd4"/><clipPath id="ed0eccee-90d3-414d-a8f7-0851a59f547d"><path id="bcb41a7a-4bae-4494-841f-a8a761827047" data-name="SVGID" d="M85.9,121.1a77.3,77.3,0,1,0,59-39.7,77.2,77.2,0,0,0-59,39.7" fill="none"/></clipPath><linearGradient id="aead6364-7b0b-4407-bfc4-af1f438efbba" x1="-3188.74" y1="322.14" x2="-3188.35" y2="322.14" gradientTransform="matrix(-392.5, 0, 0, -392.5, -1251362.21, 126596.83)" gradientUnits="userSpaceOnUse"><stop offset="0" stop-color="#b6d461"/><stop offset="1" stop-color="#b6d461"/><stop offset="1" stop-color="#85b644"/></linearGradient><clipPath id="b00c46cd-53d9-49c9-abd5-9779a079979d"><path id="f0b9ef0c-0c38-40b7-a008-fd63a8e59d69" data-name="SVGID" d="M103.7,103.5a74,74,0,1,0,41.4-18.9,72.9,72.9,0,0,0-41.4,18.9" fill="none"/></clipPath><linearGradient id="ad3ad836-cfa5-465a-b422-fdd70ae369d1" x1="-3189.35" y1="325.48" x2="-3188.96" y2="325.48" gradientTransform="matrix(0, -376.45, 376.45, 0, -122377.37, -1200392.72)" xlink:href="#a5f40c64-8d27-4fb8-8b50-1985aa9e7bd4"/><clipPath id="a7b29d93-1c2c-41a6-ba40-671f8787ea5c"><rect id="f26da4a0-928c-469f-8d06-81ad3228500d" data-name="SVGID" x="197.4" y="147.3" width="25" height="20.18" fill="none"/></clipPath><clipPath id="a420bbcc-6171-4dc8-a464-6b0ef0b32be5"><rect id="b2d48a08-57fa-44f3-b265-86e88c4e42c4" data-name="SVGID" x="82.3" y="148.5" width="25" height="20.18" fill="none"/></clipPath></defs><title>資產 2</title><g id="a68f824c-6f0d-4292-a5fa-d7828bc0bfb4" data-name="圖層 2"><g id="bc361a5f-7982-4e4c-9aea-12672ebfafc5" data-name="圖層 4"><path d="M331,8c-3.2-.4-5.9,2.3-6,6-.4,12.9-.9,25.6-1.6,38.2,3.5-12.1,7.3-24.3,11.2-36.8C335.7,11.9,334.1,8.5,331,8Z" fill="#c12106"/><path d="M362.8,35.7c-1.6-1.4-4.5-.9-6.4,1.2-6.7,7-13.1,14.3-19.1,21.7a289.9,289.9,0,0,1,24-17.5C363.7,39.5,364.4,37.2,362.8,35.7Z" fill="#fda014"/><path d="M394.9,61.8c-.5-2.4-4.3-3.9-8.5-3.2a230.8,230.8,0,0,0-41.6,11.7,254.3,254.3,0,0,1,42.9-4.4C392,65.9,395.3,64.1,394.9,61.8Z" fill="#9fb603"/><path d="M263.1,42.9c-.9,1.6.9,3.7,3.9,4.9a216.5,216.5,0,0,1,29.9,14,198.9,198.9,0,0,0-27-18.8C267.1,41.3,264,41.4,263.1,42.9Z" fill="#fdc63a"/><path d="M278.6,7c-3.5,1.6-3.5,5.4-.3,8.6a218.3,218.3,0,0,1,29.8,37.9,334.1,334.1,0,0,0-19.3-42.6C286.8,7,282.1,5.3,278.6,7Z" fill="#16c1d1"/><path d="M353.8,7.9c-.3,1.5.8,2.9,2.6,3.4s3.4-.3,3.7-1.7a3.1,3.1,0,0,0-2.6-3.4C355.8,5.7,354.1,6.5,353.8,7.9Z" fill="#16c1d1"/><path d="M311.5,40a2.8,2.8,0,0,0,2.6,2.9,2.7,2.7,0,0,0,3.2-2.1,2.8,2.8,0,0,0-2.6-2.9A2.7,2.7,0,0,0,311.5,40Z" fill="#fda014"/><path d="M311.7,69a2.7,2.7,0,0,0,2.6,2.8,2.7,2.7,0,0,0,3.2-2.1,2.9,2.9,0,0,0-5.8-.7Z" fill="#fda014"/><path d="M354.7,76.5a2,2,0,0,0,1.5,2.8,3.3,3.3,0,0,0,3.5-1.7,2.2,2.2,0,0,0-1.6-2.9A3,3,0,0,0,354.7,76.5Z" fill="#fdc63a"/><path d="M271.7,59.2a3.2,3.2,0,0,0,2.8,2.6c1.5.1,2.5-.8,2.3-2.1a3.1,3.1,0,0,0-2.8-2.6C272.5,57,271.5,57.9,271.7,59.2Z" fill="#9fb603"/><path d="M346.1,21.9a2.2,2.2,0,0,0,1.9,2.4,2.2,2.2,0,0,0,2.7-1.4,2.2,2.2,0,0,0-1.9-2.4A2.1,2.1,0,0,0,346.1,21.9Z" fill="#fda014"/><path d="M313.9,1.7c-.2,1.1.8,2,2.1,2.1s2.6-.6,2.7-1.7-.8-2-2.1-2.1A2.4,2.4,0,0,0,313.9,1.7Z" fill="#9fb603"/><path d="M346.4,58.2a1.8,1.8,0,0,0,1.4,2.3,2.3,2.3,0,0,0,2.6-1.4,1.9,1.9,0,0,0-1.5-2.2A2,2,0,0,0,346.4,58.2Z" fill="#a81d05"/><path d="M376,79.9c-.5.8,0,1.7,1,2a2.5,2.5,0,0,0,2.7-1,1.4,1.4,0,0,0-.9-2.1A2.5,2.5,0,0,0,376,79.9Z" fill="#16c1d1"/><path d="M371.7,49.8a2,2,0,0,0,1.5,2.4,2.3,2.3,0,0,0,2.7-1.1,1.9,1.9,0,0,0-1.4-2.4A2.3,2.3,0,0,0,371.7,49.8Z" fill="#9fb603"/><path d="M300.1,69.9a2,2,0,0,0,1.7,2.1,1.7,1.7,0,0,0,1.9-1.6,2.1,2.1,0,0,0-1.7-2.1A1.6,1.6,0,0,0,300.1,69.9Z" fill="#9fb603"/><path d="M306.3,15.4c-.1,1.3,1.1,2.4,2.7,2.6s3.1-.9,3.2-2.2-1-2.5-2.7-2.6S306.4,14.1,306.3,15.4Z" fill="#a81d05"/><path d="M280.4,27.9l-4.5-5.8L271.6,28Z" fill="#fda014"/><path d="M328.4,56.3l-7.6,1.3c1.7,1.8,3.4,3.6,5,5.5Z" fill="#fda014"/><path d="M379.5,36.3l5.8-4.5-8.7-2.7C377.6,31.5,378.6,33.9,379.5,36.3Z" fill="#16c1d1"/><path d="M377,9l-2.5,2.2-4-.9,2.2,3.1-1.5,2.9,3.9-.3,3.1,2.7c.1-1.1.1-2.2.2-3.3l3.4-1.1L378,12.4C377.7,11.3,377.4,10.1,377,9Z" fill="#9fb603"/><path d="M330.7,67.5l-2.5,2.2-4-.9,2.2,3.1-1.5,2.9,3.9-.3,3.1,2.7c.1-1.1.1-2.2.2-3.3l3.4-1.1-3.8-1.9C331.4,69.8,331.1,68.6,330.7,67.5Z" fill="#a81d05"/><path d="M312.2,133.6c1.1.2,2.6-2.3,3.2-5.5,2.1-11.4,3.7-23.1,4.9-35.1-3.4,11.6-6.4,23-9,34.3C310.6,130.5,311,133.4,312.2,133.6Z" fill="#c12106"/><path d="M296.5,111.4c1,1.1,2.3.3,3-1.8a131.5,131.5,0,0,1,9.8-22.4,112.7,112.7,0,0,0-13.2,19A4.6,4.6,0,0,0,296.5,111.4Z" fill="#fda014"/><path d="M270.4,91.7c1.6,2.2,4.2,2.9,6,1.4a158.5,158.5,0,0,1,24.7-17c-11.2,3.4-21.2,6.9-29.5,9.9C269.1,86.9,268.7,89.4,270.4,91.7Z" fill="#9fb603"/><path d="M363.5,104.6c1.8-1.3,2-3.3.4-4.7-5.6-4.8-11.9-10.1-19-15.6a185.7,185.7,0,0,1,13.6,19.5C359.5,105.5,361.7,105.8,363.5,104.6Z" fill="#fdc63a"/><path d="M332.7,134.8a11.2,11.2,0,0,0,4.9-7.5c1.3-10.6-.6-22.6-4.8-35.5,1.4,13.9,1,27-2.1,39C329.9,134.3,330.5,136,332.7,134.8Z" fill="#9fb603"/><path d="M303.7,135.6c0-1.3-.5-2.4-1.1-2.6s-1.2.7-1.2,2,.6,2.5,1.2,2.7S303.6,136.9,303.7,135.6Z" fill="#16c1d1"/><path d="M327.5,104.3a2,2,0,0,0-1.3-2.7,2.3,2.3,0,0,0-2.5,2,2,2,0,0,0,1.2,2.7A2.5,2.5,0,0,0,327.5,104.3Z" fill="#fda014"/><path d="M290.4,70.7a2.8,2.8,0,0,0-2.5-2.7,1.9,1.9,0,0,0-2.3,2.1,3.1,3.1,0,0,0,2.6,2.7A1.9,1.9,0,0,0,290.4,70.7Z" fill="#fdc63a"/><path d="M367.6,89.2a1.7,1.7,0,0,0-1.1-2.7,3.4,3.4,0,0,0-3.5,1.7,1.6,1.6,0,0,0,1.1,2.6A3.4,3.4,0,0,0,367.6,89.2Z" fill="#9fb603"/><path d="M306.1,122.4c.1-1-.3-1.9-.9-2s-1.2.5-1.2,1.5a2.1,2.1,0,0,0,1,2C305.5,124,306.1,123.3,306.1,122.4Z" fill="#fda014"/><path d="M317.6,138.4c.3-.9.2-1.7-.3-1.7s-1.1.6-1.4,1.5-.2,1.7.3,1.8S317.3,139.3,317.6,138.4Z" fill="#9fb603"/><path d="M302.3,88.2a1.9,1.9,0,0,0-1.5-2.1c-.9-.2-1.6.5-1.6,1.5a2.1,2.1,0,0,0,1.5,2.1A1.4,1.4,0,0,0,302.3,88.2Z" fill="#a81d05"/><path d="M270.7,70a2.7,2.7,0,0,0-2.1-2c-1-.1-1.7.6-1.4,1.5a2.7,2.7,0,0,0,2.1,2A1.2,1.2,0,0,0,270.7,70Z" fill="#16c1d1"/><path d="M288,99.2a2.4,2.4,0,0,0-1.6-2c-.8-.2-1.3.5-1.1,1.4a2.6,2.6,0,0,0,1.6,2.1C287.6,100.9,288.1,100.2,288,99.2Z" fill="#9fb603"/><path d="M344.2,76.4a1.5,1.5,0,0,0-1.2-2.1,2.1,2.1,0,0,0-2.4,1.4,1.6,1.6,0,0,0,1.3,2.1A2,2,0,0,0,344.2,76.4Z" fill="#9fb603"/><path d="M324.5,126.5c.4-1.1.2-2.1-.6-2.3s-1.7.8-2.1,2-.2,2.1.6,2.2S324,127.7,324.5,126.5Z" fill="#a81d05"/><path d="M343.1,116.3a48.6,48.6,0,0,1-.7,5.5c1.8-1.7,3.8-3.3,5.7-4.9Z" fill="#fda014"/><path d="M316.5,89.1l6.3-1.3c-1.3-1.8-2.7-3.6-4.1-5.3C317.9,84.7,317.2,86.9,316.5,89.1Z" fill="#fda014"/><path d="M288.8,113.5c-.3,1.8-.4,3.7-.6,5.5l3.9.8Q290.6,116.7,288.8,113.5Z" fill="#16c1d1"/><path d="M296.8,138.4c.1-.8.1-1.7.2-2.5h1.3l-1.3-2.5a26.2,26.2,0,0,0-.1-2.8l-1.1.9-1.5-1.8c.3,1,.5,2,.8,3a11.5,11.5,0,0,0-.6,1.7l1.3,1A24.7,24.7,0,0,1,296.8,138.4Z" fill="#9fb603"/><g opacity="0.5"><path d="M331,8c-3.2-.4-5.9,2.3-6,6-.4,12.9-.9,25.6-1.6,38.2,3.5-12.1,7.3-24.3,11.2-36.8C335.7,11.9,334.1,8.5,331,8Z" fill="#fff"/><path d="M362.8,35.7c-1.6-1.4-4.5-.9-6.4,1.2-6.7,7-13.1,14.3-19.1,21.7a289.9,289.9,0,0,1,24-17.5C363.7,39.5,364.4,37.2,362.8,35.7Z" fill="#fff"/><path d="M394.9,61.8c-.5-2.4-4.3-3.9-8.5-3.2a230.8,230.8,0,0,0-41.6,11.7,254.3,254.3,0,0,1,42.9-4.4C392,65.9,395.3,64.1,394.9,61.8Z" fill="#fff"/><path d="M263.1,42.9c-.9,1.6.9,3.7,3.9,4.9a216.5,216.5,0,0,1,29.9,14,198.9,198.9,0,0,0-27-18.8C267.1,41.3,264,41.4,263.1,42.9Z" fill="#fff"/><path d="M278.6,7c-3.5,1.6-3.5,5.4-.3,8.6a218.3,218.3,0,0,1,29.8,37.9,334.1,334.1,0,0,0-19.3-42.6C286.8,7,282.1,5.3,278.6,7Z" fill="#fff"/><path d="M353.8,7.9c-.3,1.5.8,2.9,2.6,3.4s3.4-.3,3.7-1.7a3.1,3.1,0,0,0-2.6-3.4C355.8,5.7,354.1,6.5,353.8,7.9Z" fill="#fff"/><path d="M311.5,40a2.8,2.8,0,0,0,2.6,2.9,2.7,2.7,0,0,0,3.2-2.1,2.8,2.8,0,0,0-2.6-2.9A2.7,2.7,0,0,0,311.5,40Z" fill="#fff"/><path d="M311.7,69a2.7,2.7,0,0,0,2.6,2.8,2.7,2.7,0,0,0,3.2-2.1,2.9,2.9,0,0,0-5.8-.7Z" fill="#fff"/><path d="M354.7,76.5a2,2,0,0,0,1.5,2.8,3.3,3.3,0,0,0,3.5-1.7,2.2,2.2,0,0,0-1.6-2.9A3,3,0,0,0,354.7,76.5Z" fill="#fff"/><path d="M271.7,59.2a3.2,3.2,0,0,0,2.8,2.6c1.5.1,2.5-.8,2.3-2.1a3.1,3.1,0,0,0-2.8-2.6C272.5,57,271.5,57.9,271.7,59.2Z" fill="#fff"/><path d="M346.1,21.9a2.2,2.2,0,0,0,1.9,2.4,2.2,2.2,0,0,0,2.7-1.4,2.2,2.2,0,0,0-1.9-2.4A2.1,2.1,0,0,0,346.1,21.9Z" fill="#fff"/><path d="M313.9,1.7c-.2,1.1.8,2,2.1,2.1s2.6-.6,2.7-1.7-.8-2-2.1-2.1A2.4,2.4,0,0,0,313.9,1.7Z" fill="#fff"/><path d="M346.4,58.2a1.8,1.8,0,0,0,1.4,2.3,2.3,2.3,0,0,0,2.6-1.4,1.9,1.9,0,0,0-1.5-2.2A2,2,0,0,0,346.4,58.2Z" fill="#fff"/><path d="M376,79.9c-.5.8,0,1.7,1,2a2.5,2.5,0,0,0,2.7-1,1.4,1.4,0,0,0-.9-2.1A2.5,2.5,0,0,0,376,79.9Z" fill="#fff"/><path d="M371.7,49.8a2,2,0,0,0,1.5,2.4,2.3,2.3,0,0,0,2.7-1.1,1.9,1.9,0,0,0-1.4-2.4A2.3,2.3,0,0,0,371.7,49.8Z" fill="#fff"/><path d="M300.1,69.9a2,2,0,0,0,1.7,2.1,1.7,1.7,0,0,0,1.9-1.6,2.1,2.1,0,0,0-1.7-2.1A1.6,1.6,0,0,0,300.1,69.9Z" fill="#fff"/><path d="M306.3,15.4c-.1,1.3,1.1,2.4,2.7,2.6s3.1-.9,3.2-2.2-1-2.5-2.7-2.6S306.4,14.1,306.3,15.4Z" fill="#fff"/><path d="M280.4,27.9l-4.5-5.8L271.6,28Z" fill="#fff"/><path d="M328.4,56.3l-7.6,1.3c1.7,1.8,3.4,3.6,5,5.5Z" fill="#fff"/><path d="M379.5,36.3l5.8-4.5-8.7-2.7C377.6,31.5,378.6,33.9,379.5,36.3Z" fill="#fff"/><path d="M377,9l-2.5,2.2-4-.9,2.2,3.1-1.5,2.9,3.9-.3,3.1,2.7c.1-1.1.1-2.2.2-3.3l3.4-1.1L378,12.4C377.7,11.3,377.4,10.1,377,9Z" fill="#fff"/><path d="M330.7,67.5l-2.5,2.2-4-.9,2.2,3.1-1.5,2.9,3.9-.3,3.1,2.7c.1-1.1.1-2.2.2-3.3l3.4-1.1-3.8-1.9C331.4,69.8,331.1,68.6,330.7,67.5Z" fill="#fff"/><path d="M312.2,133.6c1.1.2,2.6-2.3,3.2-5.5,2.1-11.4,3.7-23.1,4.9-35.1-3.4,11.6-6.4,23-9,34.3C310.6,130.5,311,133.4,312.2,133.6Z" fill="#fff"/><path d="M296.5,111.4c1,1.1,2.3.3,3-1.8a131.5,131.5,0,0,1,9.8-22.4,112.7,112.7,0,0,0-13.2,19A4.6,4.6,0,0,0,296.5,111.4Z" fill="#fff"/><path d="M270.4,91.7c1.6,2.2,4.2,2.9,6,1.4a158.5,158.5,0,0,1,24.7-17c-11.2,3.4-21.2,6.9-29.5,9.9C269.1,86.9,268.7,89.4,270.4,91.7Z" fill="#fff"/><path d="M363.5,104.6c1.8-1.3,2-3.3.4-4.7-5.6-4.8-11.9-10.1-19-15.6a185.7,185.7,0,0,1,13.6,19.5C359.5,105.5,361.7,105.8,363.5,104.6Z" fill="#fff"/><path d="M332.7,134.8a11.2,11.2,0,0,0,4.9-7.5c1.3-10.6-.6-22.6-4.8-35.5,1.4,13.9,1,27-2.1,39C329.9,134.3,330.5,136,332.7,134.8Z" fill="#fff"/><path d="M303.7,135.6c0-1.3-.5-2.4-1.1-2.6s-1.2.7-1.2,2,.6,2.5,1.2,2.7S303.6,136.9,303.7,135.6Z" fill="#fff"/><path d="M327.5,104.3a2,2,0,0,0-1.3-2.7,2.3,2.3,0,0,0-2.5,2,2,2,0,0,0,1.2,2.7A2.5,2.5,0,0,0,327.5,104.3Z" fill="#fff"/><path d="M290.4,70.7a2.8,2.8,0,0,0-2.5-2.7,1.9,1.9,0,0,0-2.3,2.1,3.1,3.1,0,0,0,2.6,2.7A1.9,1.9,0,0,0,290.4,70.7Z" fill="#fff"/><path d="M367.6,89.2a1.7,1.7,0,0,0-1.1-2.7,3.4,3.4,0,0,0-3.5,1.7,1.6,1.6,0,0,0,1.1,2.6A3.4,3.4,0,0,0,367.6,89.2Z" fill="#fff"/><path d="M306.1,122.4c.1-1-.3-1.9-.9-2s-1.2.5-1.2,1.5a2.1,2.1,0,0,0,1,2C305.5,124,306.1,123.3,306.1,122.4Z" fill="#fff"/><path d="M317.6,138.4c.3-.9.2-1.7-.3-1.7s-1.1.6-1.4,1.5-.2,1.7.3,1.8S317.3,139.3,317.6,138.4Z" fill="#fff"/><path d="M302.3,88.2a1.9,1.9,0,0,0-1.5-2.1c-.9-.2-1.6.5-1.6,1.5a2.1,2.1,0,0,0,1.5,2.1A1.4,1.4,0,0,0,302.3,88.2Z" fill="#fff"/><path d="M270.7,70a2.7,2.7,0,0,0-2.1-2c-1-.1-1.7.6-1.4,1.5a2.7,2.7,0,0,0,2.1,2A1.2,1.2,0,0,0,270.7,70Z" fill="#fff"/><path d="M288,99.2a2.4,2.4,0,0,0-1.6-2c-.8-.2-1.3.5-1.1,1.4a2.6,2.6,0,0,0,1.6,2.1C287.6,100.9,288.1,100.2,288,99.2Z" fill="#fff"/><path d="M344.2,76.4a1.5,1.5,0,0,0-1.2-2.1,2.1,2.1,0,0,0-2.4,1.4,1.6,1.6,0,0,0,1.3,2.1A2,2,0,0,0,344.2,76.4Z" fill="#fff"/><path d="M324.5,126.5c.4-1.1.2-2.1-.6-2.3s-1.7.8-2.1,2-.2,2.1.6,2.2S324,127.7,324.5,126.5Z" fill="#fff"/><path d="M343.1,116.3a48.6,48.6,0,0,1-.7,5.5c1.8-1.7,3.8-3.3,5.7-4.9Z" fill="#fff"/><path d="M316.5,89.1l6.3-1.3c-1.3-1.8-2.7-3.6-4.1-5.3C317.9,84.7,317.2,86.9,316.5,89.1Z" fill="#fff"/><path d="M288.8,113.5c-.3,1.8-.4,3.7-.6,5.5l3.9.8Q290.6,116.7,288.8,113.5Z" fill="#fff"/><path d="M296.8,138.4c.1-.8.1-1.7.2-2.5h1.3l-1.3-2.5a26.2,26.2,0,0,0-.1-2.8l-1.1.9-1.5-1.8c.3,1,.5,2,.8,3a11.5,11.5,0,0,0-.6,1.7l1.3,1A24.7,24.7,0,0,1,296.8,138.4Z" fill="#fff"/></g><path d="M92.8,108.4c-1.3,15.9-.8,30.9-1,36.2S79.2,174.8,57.5,158C89.1,157.1,55.3,114.7,92.8,108.4Z" fill="#6e4529"/><g clip-path="url(#b5fe8293-1fad-40ef-b199-127481447084)"><rect x="64.3" y="172.2" width="28.7" height="23.37" transform="translate(-121.1 193.9) rotate(-69.7)" fill="url(#a5f40c64-8d27-4fb8-8b50-1985aa9e7bd4)"/></g><g clip-path="url(#b76a3934-fa8e-414e-9b44-8384da413bc6)"><rect x="212.5" y="166.6" width="30.5" height="32.35" transform="translate(14.1 381.8) rotate(-81.7)" fill="url(#e0fca3e2-ddfc-4cb2-8b0e-63e12f653b29)"/></g><g clip-path="url(#ad079e5d-ca7e-4ac0-9d06-b674c1fa73ab)"><rect x="165.6" y="213.6" width="30.5" height="32.35" transform="translate(-110 199.2) rotate(-45.8)" fill="url(#b95d06a2-1810-4378-8f2a-ff2fe72c5222)"/></g><g clip-path="url(#bd0c84b4-261d-4d94-a67d-9501195093f7)"><rect x="98.7" y="211" width="23.4" height="28.75" transform="translate(-3.1 1.6) rotate(-0.8)" fill="url(#bd693b5c-3033-40ac-84a9-f50b6b165121)"/></g><g clip-path="url(#ed0eccee-90d3-414d-a8f7-0851a59f547d)"><rect x="53.9" y="67.2" width="200.7" height="192.2" transform="translate(-39.7 50) rotate(-16.4)" fill="url(#aead6364-7b0b-4407-bfc4-af1f438efbba)"/></g><g clip-path="url(#b00c46cd-53d9-49c9-abd5-9779a079979d)"><rect x="41.3" y="48.9" width="225.8" height="228.13" transform="translate(-62.8 220.2) rotate(-61.4)" fill="url(#ad3ad836-cfa5-465a-b422-fdd70ae369d1)"/></g><g opacity="0.5"><g clip-path="url(#a7b29d93-1c2c-41a6-ba40-671f8787ea5c)"><path d="M220.4,151.4c3.1,4.1,3,11.4-2.6,14.5s-15.7,1.3-19-3c-6.9-9.2,13.4-22.5,21.6-11.5" fill="#e0256d"/></g></g><g opacity="0.5"><g clip-path="url(#a420bbcc-6171-4dc8-a464-6b0ef0b32be5)"><path d="M84.4,152.6c-3.1,4.1-3,11.4,2.6,14.5s15.7,1.3,19-3c6.9-9.2-13.4-22.5-21.6-11.5" fill="#e0256d"/></g></g><path d="M178.1,135.8a11.5,11.5,0,0,0,22.9,0,11.7,11.7,0,0,0-.4-2.7h.1a9.2,9.2,0,0,0,4.2-6.1c-3,1.1-8,0-8,0h0a11.4,11.4,0,0,0-18.8,8.8Z" fill="#4a3e37"/><path d="M185.1,130.1a2.9,2.9,0,0,0-3,3,3,3,0,0,0,3,3.1,3.1,3.1,0,0,0,3.1-3.1A3,3,0,0,0,185.1,130.1Z" fill="#fff"/><path d="M113.2,124.3a11.1,11.1,0,0,0-7.3,2.7h0s-5,1.1-8,0a9.2,9.2,0,0,0,4.2,6.1h0a11.8,11.8,0,0,0-.3,2.7,11.5,11.5,0,0,0,22.9,0A11.6,11.6,0,0,0,113.2,124.3Zm-5.5,11.9a3,3,0,0,1-3-3.1,2.9,2.9,0,0,1,3-3,3,3,0,0,1,3.1,3A3.1,3.1,0,0,1,107.7,136.2Z" fill="#4a3e37"/><path d="M107.7,136.2a3,3,0,0,1-3-3.1,2.9,2.9,0,0,1,3-3,3,3,0,0,1,3.1,3A3.1,3.1,0,0,1,107.7,136.2Z" fill="#fff"/><path d="M163.9,162.4c-7.3,11-20.4,6.9-27.5-2.1-2.8-3.5-8.9.2-6.1,3.8,10.6,13.4,29.4,17.5,39.8,1.7,2.6-3.9-3.7-7.2-6.2-3.4" fill="#4a3e37"/><path d="M84.2,80.9c3.9,1.7,8.7.7,10.5-.9-4.3-12.1.1-27.8,13.2-30.5-.5,30.6,84.8-6.8,108.4,32.6-.8,0,3.2,6.2-2.8,12-7.8,8.5-28,22.2-49.9,21,8.6-2.9,26.2-12.9,26.1-17.9-12.2,6.3-30.7,15.1-60.6,16.6C101,115.2,79.1,103.7,84.2,80.9Z" fill="#6e4529"/><path d="M205.7,103.1c3.7,19.6,5,38.3,5.9,44.8s19.5,35.9,44.3,12.3C216.6,163.1,253.1,106.1,205.7,103.1Z" fill="#6e4529"/><path d="M211.1,95.6c-.4,4.3,3.6,8.1,8.8,8.5s9.7-2.7,10.1-7.1-3.7-8.1-8.9-8.5-9.7,2.8-10,7.1" fill="#efdc3c"/><path d="M201.5,94.2c-2.3,3.6-.6,8.9,3.8,11.7s9.9,2.1,12.2-1.5.6-8.9-3.8-11.7-9.8-2.2-12.2,1.5" fill="#efdc3c"/><path d="M213.3,103.7c-1.5,4.1,1.3,8.9,6.3,10.6s10.1-.2,11.5-4.3-1.4-8.8-6.3-10.5-10.1.2-11.5,4.2" fill="#efdc3c"/><path d="M201.9,93.3c3.5,2.6,8.8,1.4,12-2.8s3-9.6-.5-12.3-8.8-1.4-12,2.8-2.9,9.6.5,12.3" fill="#eebc2a"/><path d="M188.7,83.6c-2.3,3.7-.7,8.9,3.7,11.7s9.9,2.1,12.3-1.5.6-8.9-3.8-11.7S191,80,188.7,83.6" fill="#eebc2a"/><path d="M200.4,93.2c-1.4,4.1,1.4,8.8,6.3,10.5s10.1-.1,11.6-4.2-1.4-8.8-6.3-10.6-10.1.2-11.6,4.3" fill="#eebc2a"/><path d="M220.5,99.2a7.1,7.1,0,0,1-1.7,4.6l-.3.2-.2.3-.3.3-.3.2-.3.3-.3.2-2.2,1.1h-1.7c-7.8,1.1-12.1-6.3-14.5-12.5l-1.1-2.7a6.4,6.4,0,0,0-.2-.7,13.8,13.8,0,0,0-3.4-5.4l-.2-.2a6.8,6.8,0,0,0-6.6-1.1h-.6l-.4-.5a8,8,0,0,0-.8-1.6c0-.1-.1-.2-.1-.4l.4-.2a10.2,10.2,0,0,1,9.3,1c3.1,2.1,4.6,5.6,5.9,9.1s4.4,11.8,10.4,12.8c3.6.4,7.7-1.7,7.7-5.8s-5.2-5.3-7.7-5.1a10.4,10.4,0,0,0-6.3,2.1l-.7.5h-.8l.3-.2a16.9,16.9,0,0,1,2.9-1.7c5.1-2.2,13.4-.8,13.8,6.1" fill="#008742"/><path d="M194.7,93.5l-1.7-.4a18.9,18.9,0,0,1-13.7-17.6l2.8-.3a19.7,19.7,0,0,0,12.6,18.3" fill="#7db82e"/><path d="M199.1,97.7h.7l-.4.3h-.5l-.4.2-.5.2h-.5l-.4.2h-1.5a19,19,0,0,1-6.3.2h-.5l-.5-.2h-1l-.6-.2-.5-.2c-3.6-1.6-6-4.3-6.4-8.4v-3a.9.9,0,0,1,.1-.5,1.4,1.4,0,0,1,.2-.6V87l.3-.7v-.2l2,2.7v3.1c1.3,5.7,8.3,7.1,13.2,6.6h1.9l1.3-.4" fill="#7db82e"/><path d="M108.4,213.9l-2,6.3h0c-1.2,3.7-2.5,7.7-8.7,27.3a1.1,1.1,0,0,1-1,.8H50.5a1.3,1.3,0,0,1-1.1-.9c-5.4-17-6.9-21.8-8.4-26.7l-2.2-6.8Z" fill="#58b4f5"/><polygon points="108.4 213.9 107.5 216.5 39.6 216.5 38.8 213.9 108.4 213.9" fill="#358ccc"/><path d="M36.5,208.5h74.2a.6.6,0,0,1,.5.6v4.3a.5.5,0,0,1-.5.5H36.5a.5.5,0,0,1-.5-.5v-4.3a.6.6,0,0,1,.5-.6Z" fill="#58b4f5" fill-rule="evenodd"/><path d="M61.7,220h0a1.8,1.8,0,0,1,1.9,1.8v7a1.9,1.9,0,0,1-1.9,1.9h0a1.9,1.9,0,0,1-1.8-1.9v-7a1.8,1.8,0,0,1,1.8-1.8Zm0,12.9h0a1.9,1.9,0,0,1,1.9,1.9v6.9a1.8,1.8,0,0,1-1.9,1.9h0a1.8,1.8,0,0,1-1.8-1.9v-6.9a1.9,1.9,0,0,1,1.8-1.9ZM69.3,220h0a1.9,1.9,0,0,1,1.9,1.8v7a2,2,0,0,1-1.9,1.9h0a2,2,0,0,1-1.9-1.9v-7a1.9,1.9,0,0,1,1.9-1.8Zm0,12.9h0a2,2,0,0,1,1.9,1.9v6.9a1.9,1.9,0,0,1-1.9,1.9h0a1.9,1.9,0,0,1-1.9-1.9v-6.9a2,2,0,0,1,1.9-1.9ZM76.9,220h0a1.9,1.9,0,0,1,1.9,1.8v7a2,2,0,0,1-1.9,1.9h0a2,2,0,0,1-1.9-1.9v-7a1.9,1.9,0,0,1,1.9-1.8Zm0,12.9h0a2,2,0,0,1,1.9,1.9v6.9a1.9,1.9,0,0,1-1.9,1.9h0a1.9,1.9,0,0,1-1.9-1.9v-6.9a2,2,0,0,1,1.9-1.9ZM84.5,220h0a1.8,1.8,0,0,1,1.8,1.8v7a1.9,1.9,0,0,1-1.8,1.9h0a1.9,1.9,0,0,1-1.9-1.9v-7a1.8,1.8,0,0,1,1.9-1.8Zm0,12.9h0a1.9,1.9,0,0,1,1.8,1.9v6.9a1.8,1.8,0,0,1-1.8,1.9h0a1.8,1.8,0,0,1-1.9-1.9v-6.9a1.9,1.9,0,0,1,1.9-1.9ZM92,220h0a1.8,1.8,0,0,1,1.9,1.8v7a1.9,1.9,0,0,1-1.9,1.9h0a2,2,0,0,1-1.9-1.9v-7A1.9,1.9,0,0,1,92,220Zm0,12.9h0a1.9,1.9,0,0,1,1.9,1.9v6.9a1.8,1.8,0,0,1-1.9,1.9h0a1.9,1.9,0,0,1-1.9-1.9v-6.9a2,2,0,0,1,1.9-1.9ZM54.2,220h0a1.8,1.8,0,0,1,1.8,1.8v7a1.9,1.9,0,0,1-1.8,1.9h0a1.9,1.9,0,0,1-1.9-1.9v-7a1.8,1.8,0,0,1,1.9-1.8Zm0,12.9h0a1.9,1.9,0,0,1,1.8,1.9v6.9a1.8,1.8,0,0,1-1.8,1.9h0a1.8,1.8,0,0,1-1.9-1.9v-6.9a1.9,1.9,0,0,1,1.9-1.9Z" fill="#358ccc" fill-rule="evenodd"/><path d="M61.7,220h0a1.8,1.8,0,0,1,1.9,1.8h0v.2h0v.2h0v.2h0a1.9,1.9,0,0,1-1.9,1.9h0a1.9,1.9,0,0,1-1.8-1.9h0v-.2h0v-.2h0v-.2h0a1.8,1.8,0,0,1,1.8-1.8Zm1.9,20.7a1.8,1.8,0,0,1-1.9,1.8h0a1.8,1.8,0,0,1-1.8-1.8h0v-.2h0v-.2h0v-.2h0v-.2h0a1.9,1.9,0,0,1,1.8-1.9h0a1.9,1.9,0,0,1,1.9,1.9h0v.2h0v.2h0v.2h0v.2h0Zm7.6-13a2,2,0,0,1-1.9,1.9h0a2,2,0,0,1-1.9-1.9h0v-.2h0v-.2h0v-.2h0a1.9,1.9,0,0,1,1.9-1.8h0a1.9,1.9,0,0,1,1.9,1.8h0v.2h0v.2h0v.2h0Zm0,13a1.9,1.9,0,0,1-1.9,1.8h0a1.9,1.9,0,0,1-1.9-1.8h0v-.2h0v-.2h0v-.2h0v-.2h0a2,2,0,0,1,1.9-1.9h0a2,2,0,0,1,1.9,1.9h0v.2h0v.2h0v.2h0v.2h0Zm7.6-13a2,2,0,0,1-1.9,1.9h0a2,2,0,0,1-1.9-1.9h0v-.2h0v-.2h0v-.2h0a1.9,1.9,0,0,1,1.9-1.8h0a1.9,1.9,0,0,1,1.9,1.8h0v.2h0v.2h0v.2h0Zm0,13a1.9,1.9,0,0,1-1.9,1.8h0a1.9,1.9,0,0,1-1.9-1.8h0v-.2h0v-.2h0v-.2h0v-.2h0a2,2,0,0,1,1.9-1.9h0a2,2,0,0,1,1.9,1.9h0v.2h0v.2h0v.2h0v.2h0Zm7.5-13a1.9,1.9,0,0,1-1.8,1.9h0a1.9,1.9,0,0,1-1.9-1.9h0v-.2h0v-.2h0v-.2h0a1.8,1.8,0,0,1,1.9-1.8h0a1.8,1.8,0,0,1,1.8,1.8h0v.2h0v.2h0v.2h0Zm0,13a1.8,1.8,0,0,1-1.8,1.8h0a1.8,1.8,0,0,1-1.9-1.8h0v-.2h0v-.2h0v-.2h0v-.2h0a1.9,1.9,0,0,1,1.9-1.9h0a1.9,1.9,0,0,1,1.8,1.9h0v.2h0v.2h0v.2h0v.2h0Zm7.6-13a1.9,1.9,0,0,1-1.9,1.9h0a2,2,0,0,1-1.9-1.9v-5.9A1.9,1.9,0,0,1,92,220h0a1.8,1.8,0,0,1,1.9,1.8Zm0,13a1.8,1.8,0,0,1-1.9,1.8h0a1.9,1.9,0,0,1-1.9-1.8v-5.9a2,2,0,0,1,1.9-1.9h0a1.9,1.9,0,0,1,1.9,1.9ZM56,227.7a1.9,1.9,0,0,1-1.8,1.9h0a1.9,1.9,0,0,1-1.9-1.9v-5.9a1.8,1.8,0,0,1,1.9-1.8h0a1.8,1.8,0,0,1,1.8,1.8Zm0,13a1.8,1.8,0,0,1-1.8,1.8h0a1.8,1.8,0,0,1-1.9-1.8v-5.9a1.9,1.9,0,0,1,1.9-1.9h0a1.9,1.9,0,0,1,1.8,1.9Z" fill="#3e69b0" fill-rule="evenodd"/><path d="M54.3,213h0a2,2,0,0,0,2.6-1.1L69.5,192a2,2,0,0,0-1.1-2.6h0a2,2,0,0,0-2.7,1.1L53.2,210.4a2,2,0,0,0,1.1,2.6Z" fill="#4d4c42" fill-rule="evenodd"/><path d="M55.4,210.1a.9.9,0,0,1,.5,1.2,1,1,0,0,1-1.1.5.9.9,0,0,1-.5-1.2.8.8,0,0,1,1.1-.5Z" fill="#d5ab07" fill-rule="evenodd"/><path d="M92.9,213h0a2,2,0,0,1-2.6-1.1L77.7,192a2,2,0,0,1,1.1-2.6h0a1.9,1.9,0,0,1,2.6,1.1L94,210.4a2,2,0,0,1-1.1,2.6Z" fill="#4d4c42" fill-rule="evenodd"/><path d="M91.7,210.1a.9.9,0,0,0,.7,1.7.9.9,0,1,0-.7-1.7Z" fill="#d5ab07" fill-rule="evenodd"/></g></g></svg>