<svg xmlns="http://www.w3.org/2000/svg" xmlns:xlink="http://www.w3.org/1999/xlink" viewBox="0 0 389.3 333.8"><defs><clipPath id="e7f33c97-b02a-4fa8-bcee-2ed3935084c2"><path id="b2f807ed-1af2-4d91-8b5c-207867f39d6c" data-name="SVGID" d="M119.3,185.1c-6.2,6-9.1,13-6.5,15.6s9.7,0,15.8-6,9-13,6.5-15.6a4.2,4.2,0,0,0-1.6-.9c-3.2-.8-9.1,1.9-14.2,6.9" fill="none"/></clipPath><linearGradient id="eb7ef4c9-37d3-4015-8af9-cc889ca8a375" x1="-3164.38" y1="-563.25" x2="-3163.96" y2="-563.25" gradientTransform="translate(213587.4 38203.4) scale(67.46)" gradientUnits="userSpaceOnUse"><stop offset="0" stop-color="#85b644"/><stop offset="0.08" stop-color="#8cba48"/><stop offset="0.42" stop-color="#a3c856"/><stop offset="0.73" stop-color="#b1d15e"/><stop offset="1" stop-color="#b6d461"/></linearGradient><clipPath id="bfddf6b7-0416-4055-87b3-f4fe80e65d74"><path id="f0a99ea8-08e8-40bf-a2d6-09f46c8d214f" data-name="SVGID" d="M271.3,180.4c-2,3.1,2.1,9.4,9.2,14.2s14.6,6.1,16.6,3-2.1-9.4-9.2-14.1-13.6-6-16.1-3.6a1.2,1.2,0,0,0-.5.5" fill="none"/></clipPath><linearGradient id="aaa7c954-fa22-444f-a0ec-78ead6ba5f5f" x1="-3186.29" y1="-617.2" x2="-3185.86" y2="-617.2" gradientTransform="translate(41935.3 -214783.1) rotate(-90) scale(67.47)" xlink:href="#eb7ef4c9-37d3-4015-8af9-cc889ca8a375"/><clipPath id="f83be9e9-ef86-4225-9dbb-50e095042bc9"><path id="b06123a0-68e5-49ea-87b8-0f56d51df27b" data-name="SVGID" d="M228.5,225.1c-3.5,1.3-3.9,8.8-.9,16.9s8.2,13.5,11.7,12.2,3.8-8.8.9-16.9-7.6-12.8-11-12.4l-.7.2" fill="none"/></clipPath><linearGradient id="ad278180-e83e-43ce-acac-4fb8a411c768" x1="-3191.88" y1="-591.53" x2="-3191.46" y2="-591.53" gradientTransform="translate(40146.1 -215111.2) rotate(-90) scale(67.47)" xlink:href="#eb7ef4c9-37d3-4015-8af9-cc889ca8a375"/><clipPath id="ae1d073d-c1d7-4d92-926e-cc1e76afa0e1"><path id="a38b91de-d35f-4499-858f-dceb26f34f31" data-name="SVGID" d="M151.8,231.8c-3.6,7.8-3.8,15.4-.5,16.9s9-3.5,12.6-11.3,3.8-15.4.4-16.9a3.2,3.2,0,0,0-1.7-.2c-3.4.3-7.8,5-10.8,11.5" fill="none"/></clipPath><linearGradient id="b56e2d61-a628-4819-97db-3ddaf06e28c2" x1="-3180.24" y1="-570.2" x2="-3179.82" y2="-570.2" gradientTransform="translate(38636.3 -214299) rotate(-90) scale(67.46)" xlink:href="#eb7ef4c9-37d3-4015-8af9-cc889ca8a375"/><clipPath id="eaea08e7-41a6-4c6e-9e5c-70d628e42624"><path id="b149c89f-dcff-4c37-893a-b34ca1309c13" data-name="SVGID" d="M131.6,122.8A83.1,83.1,0,1,0,195.1,80a83.1,83.1,0,0,0-63.5,42.8" fill="none"/></clipPath><linearGradient id="a9f83e26-1a68-4338-870b-533e54712d6c" x1="-3164.81" y1="-600.11" x2="-3164.38" y2="-600.11" gradientTransform="matrix(-392.5, 0, 0, -392.5, -1241908.37, -235387.4)" gradientUnits="userSpaceOnUse"><stop offset="0" stop-color="#b6d461"/><stop offset="1" stop-color="#b6d461"/><stop offset="1" stop-color="#85b644"/></linearGradient><clipPath id="a90e8fce-4c2a-4d55-9650-7f81289381a0"><path id="b099256b-a6dd-4f9b-ad9c-d8afea9253a1" data-name="SVGID" d="M150.7,103.9a79.8,79.8,0,1,0,44.7-20.4,79.8,79.8,0,0,0-44.7,20.4" fill="none"/></clipPath><linearGradient id="a380cb55-47f5-4eae-89e3-76cc2b59cc44" x1="-3167.25" y1="-596.62" x2="-3166.83" y2="-596.62" gradientTransform="matrix(0, -376.45, 376.45, 0, 224795.76, -1192065.65)" xlink:href="#eb7ef4c9-37d3-4015-8af9-cc889ca8a375"/><clipPath id="f6bc0023-c01d-4c28-bc89-6ea6f93c8ccd"><rect id="be8204c7-fefb-4f16-a3a7-b4f62f74691e" data-name="SVGID" x="251.8" y="151.1" width="27" height="21.76" fill="none"/></clipPath><clipPath id="b4fc2732-6595-4beb-91f3-62edf26f2fe6"><rect id="a9696d7c-fbc0-4060-a089-d031021cf8d9" data-name="SVGID" x="127.7" y="152.4" width="27" height="21.76" fill="none"/></clipPath><linearGradient id="f322328c-fc6b-4ae7-a684-178342b4165f" x1="-4238.1" y1="221.86" x2="-4238.1" y2="145.86" gradientTransform="matrix(-1, 0, 0, 1, -4082.87, 0)" gradientUnits="userSpaceOnUse"><stop offset="0" stop-color="#8ecfdc" stop-opacity="0.1"/><stop offset="0.42" stop-color="#66bed0" stop-opacity="0.7"/><stop offset="1" stop-color="#2fa7bf" stop-opacity="0.9"/></linearGradient><linearGradient id="ff1e0a7d-ffe7-4eb2-a4ff-0195f4d6c4fa" x1="249.9" y1="221.86" x2="249.9" y2="145.86" gradientTransform="matrix(1, 0, 0, 1, 0, 0)" xlink:href="#f322328c-fc6b-4ae7-a684-178342b4165f"/></defs><title>資產 1</title><g style="isolation:isolate"><g id="f8a6066c-ec8d-4849-9852-075599ee6717" data-name="圖層 2"><g id="edd8321c-5cb4-4dee-a012-95fd99818b18" data-name="圖層 4"><path d="M34.9,159.4c-1.5-.8-2.9-2.1-3-3.8s1.4-3.6,3-3c-.3-1.5-1.8-2.5-3.2-3a20.5,20.5,0,0,1-4.3-1.8c-1.2-.9-2.1-2.7-1.3-4s2.5-1.5,3.4-2.7a3.8,3.8,0,0,0-.4-4.5,23.1,23.1,0,0,0-3.9-3.1c-1.3-1-2.6-2.3-2.7-4s3.2-4.9,6-4.4,5,2.8,6.9,5a9.1,9.1,0,0,0,2.9,2.6,3.2,3.2,0,0,0,3.6-.2c1.7-1.6.5-5.2,2.6-6.5s3.1,0,3.9,1.3a14.3,14.3,0,0,1,1.2,4.5,6.1,6.1,0,0,0,1.9,4.1c1.9,1.3,4.4.5,6.6.8,4,.5,6.7,4.9,6.3,8.8s-3.2,7.4-6.6,9.5-7.8,3.5-11.5,5.2A12.7,12.7,0,0,1,34.9,159.4Z" fill="#fd7a27"/><path d="M32.5,134.1S43.2,153.2,53.9,157" fill="none" stroke="#fff" stroke-miterlimit="10"/><path d="M21.8,110.5c-4.3-.5-7.9-3.1-10.6-6.3S6.9,98,6.7,94.4a9.3,9.3,0,0,0,4.9,1.4c2.5.1,5.2-1,5.9-3.6a5.6,5.6,0,0,0-2.3-6.1,6.3,6.3,0,0,0-7.1.2A8.1,8.1,0,0,0,5,90.1,11.5,11.5,0,0,1,2.6,79.9C3,78.5.9,77.7.5,79.1A13.6,13.6,0,0,0,4.4,92.7h.1a16.7,16.7,0,0,0,2.4,9c3.1,5.5,8.2,10.1,14.7,10.9C23,112.9,23.2,110.7,21.8,110.5Zm-11-23A3.7,3.7,0,0,1,15.4,90c.6,2.5-1.9,3.7-4,3.6a8.1,8.1,0,0,1-4.5-1.8A5.7,5.7,0,0,1,10.8,87.5Z" fill="#d4a787"/><path d="M354.4,30.2c0-5.1,2.4-9.8,5.9-13.5s6.6-6,10.9-6.8a12.3,12.3,0,0,0-1,6c.3,2.9,2.1,5.9,5.3,6.5a6.9,6.9,0,0,0,6.8-3.7c1.4-2.7.6-6.1-1.3-8.4a9.6,9.6,0,0,0-5-3.1,13.6,13.6,0,0,1,11.7-4.4c1.7.2,2.3-2.4.6-2.6a16.2,16.2,0,0,0-15.5,6.7h-.1a20.9,20.9,0,0,0-10.3,4.2c-6,4.6-10.7,11.3-10.7,19.1A1.4,1.4,0,0,0,354.4,30.2Zm25.5-16.5a4.3,4.3,0,0,1-2.2,5.8c-2.9,1.1-4.7-1.7-4.9-4.2a10.8,10.8,0,0,1,1.4-5.6A6.6,6.6,0,0,1,379.9,13.7Z" fill="#d4a787"/><path d="M357.4,56.7s3.9,5.6,2.2,10.1l-1.8,4.5-1.6-.9s-.1,8.1-2.7,11.4c0,0-11.9-9.5-10.6-15.5,0,0-2.6,4.1-6.4,9.4L332.6,81l.2-3.5s-6.5,5.2-12.5,7.4a4.3,4.3,0,0,1-.1-.5,56,56,0,0,1-.8-14l-2.8,2.1,2.2-6.1c2.2-6.2,4.1-10.6,4.1-10.6-4.2,4.5-18.7-.1-18.7-.1,1.2-3.9,7.9-8.6,7.9-8.6l-1.7-.8,2.8-4c2.7-4,9.6-3.9,9.6-3.9a21,21,0,0,1-10.6-13.6s4.2.2,12.2,1.3,15.5,13.4,15.5,13.4l3.1,1.9h.2a24.2,24.2,0,0,0,3.6,1.6s14.4-.7,19.8,5.2,8,9.5,8,9.5A21.2,21.2,0,0,1,357.4,56.7Z" fill="#e27739"/><line x1="325.9" y1="73.2" x2="347.2" y2="34.2" fill="none" stroke="#000" stroke-miterlimit="10" stroke-width="0.63"/><path d="M357.4,56.7s3.9,5.6,2.2,10.1l-1.8,4.5-1.6-.9s-.1,8.1-2.7,11.4c0,0-11.9-9.5-10.6-15.5,0,0-2.6,4.1-6.4,9.4L332.6,81l.2-3.5s-6.5,5.2-12.5,7.4a4.3,4.3,0,0,1-.1-.5l12.5-23.6L343,41.4h.2a24.2,24.2,0,0,0,3.6,1.6s14.4-.7,19.8,5.2,8,9.5,8,9.5A21.2,21.2,0,0,1,357.4,56.7Z" fill="#e27739" opacity="0.4" style="mix-blend-mode:multiply"/><path d="M319,49.8c3.4.5,6.7-.7,10.1-1.6s7-1.4,9.9.4" fill="none" stroke="#000" stroke-miterlimit="10" stroke-width="0.63"/><path d="M335.6,55.3c.5,1.3-.1,2.8-.1,4.2a14.2,14.2,0,0,0,.8,4,7.2,7.2,0,0,1,0,4.1" fill="none" stroke="#000" stroke-miterlimit="10" stroke-width="0.63"/><path d="M322.8,69c-.3.4-.7.8-1.2.7s-.5-.9-.4-1.4a16.2,16.2,0,0,1,3.2-7.9c.2-.3.9-1.2,1.3-.9s.1.9,0,1.2-.9,2.4-1.3,3.7A17.9,17.9,0,0,1,322.8,69Z" fill="#fff6e6" opacity="0.47" style="mix-blend-mode:soft-light"/><g clip-path="url(#e7f33c97-b02a-4fa8-bcee-2ed3935084c2)"><rect x="108.3" y="178" width="31" height="25.2" transform="translate(-98 240.5) rotate(-69.7)" fill="url(#eb7ef4c9-37d3-4015-8af9-cc889ca8a375)"/></g><g clip-path="url(#bfddf6b7-0416-4055-87b3-f4fe80e65d74)"><rect x="268" y="171.9" width="32.9" height="34.89" transform="translate(56.2 443.6) rotate(-81.7)" fill="url(#aaa7c954-fa22-444f-a0ec-78ead6ba5f5f)"/></g><g clip-path="url(#f83be9e9-ef86-4225-9dbb-50e095042bc9)"><rect x="217.5" y="222.6" width="32.9" height="34.89" transform="translate(-101.3 240.4) rotate(-45.8)" fill="url(#ad278180-e83e-43ce-acac-4fb8a411c768)"/></g><g clip-path="url(#ae1d073d-c1d7-4d92-926e-cc1e76afa0e1)"><rect x="145.3" y="219.8" width="25.2" height="31" transform="translate(-3.3 2.2) rotate(-0.8)" fill="url(#b56e2d61-a628-4819-97db-3ddaf06e28c2)"/></g><g clip-path="url(#eaea08e7-41a6-4c6e-9e5c-70d628e42624)"><rect x="97" y="64.7" width="216.4" height="207.24" transform="translate(-39.1 64.6) rotate(-16.4)" fill="url(#a9f83e26-1a68-4338-870b-533e54712d6c)"/></g><g clip-path="url(#a90e8fce-4c2a-4d55-9650-7f81289381a0)"><rect x="83.5" y="45" width="243.4" height="245.99" transform="translate(-40.6 267.5) rotate(-61.4)" fill="url(#a380cb55-47f5-4eae-89e3-76cc2b59cc44)"/></g><path d="M266.5,95.3c-.4,4.7,3.9,8.8,9.5,9.2s10.5-2.9,10.9-7.6-3.9-8.8-9.6-9.2-10.4,3-10.8,7.6" fill="#efdc3c"/><path d="M256.2,93.8c-2.5,4-.7,9.6,4.1,12.6s10.6,2.3,13.1-1.6.7-9.6-4-12.6-10.7-2.3-13.2,1.6" fill="#efdc3c"/><path d="M268.9,104.2c-1.6,4.4,1.4,9.4,6.8,11.3s10.9-.2,12.4-4.6-1.5-9.5-6.8-11.3-10.9.2-12.4,4.6" fill="#efdc3c"/><path d="M256.6,92.8c3.7,2.9,9.5,1.5,12.9-2.9s3.2-10.4-.5-13.3-9.5-1.5-12.9,3-3.2,10.4.5,13.2" fill="#eebc2a"/><path d="M242.3,82.4c-2.5,4-.6,9.6,4.1,12.7s10.7,2.3,13.2-1.7.7-9.6-4.1-12.6-10.6-2.3-13.2,1.6" fill="#eebc2a"/><path d="M255,92.8c-1.5,4.4,1.5,9.5,6.8,11.3s10.9-.1,12.5-4.5-1.6-9.5-6.9-11.4-10.8.2-12.4,4.6" fill="#eebc2a"/><path d="M276.7,99.3a7.5,7.5,0,0,1-1.9,4.9l-.3.3-.2.2-.3.3-.4.3-.3.3-.4.2a16.7,16.7,0,0,1-2.3,1.2h-1.8c-8.4,1.1-13.1-6.9-15.7-13.5l-1.1-3-.3-.7a17.1,17.1,0,0,0-3.6-5.9h-.2a7.5,7.5,0,0,0-7.2-1.2h-.6l-.4-.6a13,13,0,0,1-.8-1.7l-.2-.4.5-.2a10.8,10.8,0,0,1,9.9,1c3.4,2.4,5,6.1,6.5,9.8,2,5.3,4.7,12.8,11.2,13.8,3.8.5,8.3-1.8,8.2-6.2s-5.6-5.7-8.2-5.5a12.4,12.4,0,0,0-6.9,2.3l-.7.6h-.9l.3-.3a25.8,25.8,0,0,1,3.2-1.8c5.5-2.4,14.5-.9,14.9,6.6" fill="#008742"/><path d="M248.9,93.1l-1.9-.5a20.4,20.4,0,0,1-14.8-18.9l3-.3a21.4,21.4,0,0,0,13.7,19.7" fill="#7db82e"/><path d="M253.6,97.6h.8l-.5.3-.5.2-.5.2-.5.2h-.5l-.5.2h-.6l-.5.2h-.5a21.5,21.5,0,0,1-6.7.2h-1.2l-.5-.2h-.6l-.6-.2-.5-.2a10.8,10.8,0,0,1-7-9.1V87.5a.7.7,0,0,1,.1-.5,2.5,2.5,0,0,1,.2-.7c.1,0,.1-.1.1-.2l.3-.8v-.2l2.2,3v3.3c1.4,6.1,9,7.6,14.3,7.1h2l1.4-.5" fill="#7db82e"/><g opacity="0.5"><g clip-path="url(#f6bc0023-c01d-4c28-bc89-6ea6f93c8ccd)"><path d="M276.6,155.5c3.3,4.4,3.2,12.3-2.8,15.7s-17,1.4-20.5-3.3c-7.5-9.8,14.4-24.2,23.3-12.4" fill="#e0256d"/></g></g><g opacity="0.5"><g clip-path="url(#b4fc2732-6595-4beb-91f3-62edf26f2fe6)"><path d="M129.9,156.8c-3.4,4.4-3.2,12.3,2.8,15.7s16.9,1.4,20.5-3.3c7.4-9.8-14.4-24.2-23.3-12.4" fill="#e0256d"/></g></g><path d="M168.3,145.9s11.1,11.6-1.2,22.2-12.9,18.5-4.1,23.5,11.3,22.3,6.9,30.3H145.6s19.7-14.3-3.7-31.4c0,0-12.4-12.3,4.4-19.8,0,0,24-12.8,5.1-24.8Z" fill="url(#f322328c-fc6b-4ae7-a684-178342b4165f)"/><path d="M236.8,145.9s-11.1,11.6,1.2,22.2,12.9,18.5,4.1,23.5-11.3,22.3-6.9,30.3h24.3s-19.6-14.3,3.7-31.4c0,0,12.4-12.3-4.4-19.8,0,0-23.9-13.3-5.1-24.8Z" fill="url(#ff1e0a7d-ffe7-4eb2-a4ff-0195f4d6c4fa)"/><path d="M181.3,188s5.2-18.3,24.8-18.3,24.5,18.1,24.5,18.1" fill="none" stroke="#4a3e37" stroke-linecap="round" stroke-linejoin="round" stroke-width="6"/><path d="M247.6,135.1s.1,10.7-9.4,10.7-9.3-10.6-9.3-10.6" fill="none" stroke="#4a3e37" stroke-linecap="round" stroke-linejoin="round" stroke-width="6"/><path d="M174.8,133.9s.1,10.6-9.4,10.6-9.3-10.5-9.3-10.5" fill="none" stroke="#4a3e37" stroke-linecap="round" stroke-linejoin="round" stroke-width="6"/><path d="M143.9,296.2l12.6-2.4c2.1-3.2,1.6-6.8-.9-10.5l-8-.7-3.7,13.6Z" fill="#363440"/><path d="M133.1,265.9l12.6-2.4c2.1-3.2,1.6-6.7-.9-10.5l-8-.7-3.7,13.6Z" fill="#363440"/><path d="M63.2,258.9l6-10.4,5.1,2.6L71,255.9l54.3-2.7a7.2,7.2,0,0,1,7.2,4.8l12.6,34.9,3.4-6L152,290l-6.1,10.8h0l-.6,1.2a7.3,7.3,0,0,1-5.7,3.2L83,308a7.2,7.2,0,0,1-7.2-4.8c-3.1-8.7-9.6-26.5-13.6-37.5a7.2,7.2,0,0,1,.8-6.5Z" fill="#7d68bd"/><path d="M63.4,258.6l2.7-4.7,15.1,42a5.9,5.9,0,0,0,5.8,4l24.4-.4a2,2,0,0,1,2.1,2,2,2,0,0,1-2,2.1l-24.4.5a10.4,10.4,0,0,1-9.8-6.8L63.4,258.6Z" fill="#9d87e0"/><path d="M88.7,296.6a6.1,6.1,0,0,1-6.1-4c-3.2-8.8-10.3-28.6-14.4-39.7a6.3,6.3,0,0,1,.7-5.5,6.4,6.4,0,0,1,4.8-2.8l58.9-2.9a6.3,6.3,0,0,1,6.1,4.1c3.2,8.7,10.4,28.5,14.4,39.6a6.5,6.5,0,0,1-.7,5.6,6.3,6.3,0,0,1-4.8,2.7l-58.9,2.9Z" fill="#9d87e0"/><path d="M127.1,288.3a4.5,4.5,0,0,1-4.7-3.1l-11.3-31.7a4.9,4.9,0,0,1,.4-4.1,4.7,4.7,0,0,1,3.6-2.1l11.6-.9a4.8,4.8,0,0,1,4.8,3.1l11.3,31.7a4.6,4.6,0,0,1-.5,4.1,4.7,4.7,0,0,1-3.5,2.1l-11.7.9Z" fill="#7d68bd"/><path d="M88.6,291.2a2.7,2.7,0,0,1-2.5-1.7L73.8,254.8a2.4,2.4,0,0,1,2.2-3.3l6.1-.3a2.5,2.5,0,0,1,2.4,1.7c2.2,6.1,9.6,26.6,12.4,34.6a2.6,2.6,0,0,1-.2,2.3,2.4,2.4,0,0,1-2,1.1l-6.1.3Z" fill="#7d68bd"/><path d="M89.6,285.3l-38.4,1a2.1,2.1,0,0,1-2.1-1.6L41,261.3a2.5,2.5,0,0,1,.2-1.9,1.9,1.9,0,0,1,1.6-.9l38-1.1a2.2,2.2,0,0,1,2.2,2.2,2,2,0,0,1-1.9,2.3l-35.2.9,6.5,19,36.9-1a2.3,2.3,0,0,1,2.2,2.2,2,2,0,0,1-1.9,2.3Z" fill="#c7e3f4"/></g></g></g></svg>