<svg xmlns="http://www.w3.org/2000/svg" xmlns:xlink="http://www.w3.org/1999/xlink" viewBox="0 0 382.6 331.6"><defs><clipPath id="f59e2aef-69e0-480c-a96c-f4b13cac5593"><path id="b7e374d5-51fc-4f61-8165-2b9f778979df" data-name="SVGID" d="M78.6,168.3c-8.3-2.2-15.8-1.2-16.7,2.4s4.9,8.3,13.2,10.5,15.7,1.2,16.7-2.3a5.4,5.4,0,0,0,0-1.8c-1-3.2-6.3-6.9-13.2-8.8" fill="none"/></clipPath><linearGradient id="e3f22558-9554-4aef-b5d0-9b11a8ea465f" x1="-3163.62" y1="333.15" x2="-3163.19" y2="333.15" gradientTransform="matrix(67.46, 0, 0, 67.46, 213492.25, -22286.45)" gradientUnits="userSpaceOnUse"><stop offset="0" stop-color="#85b644"/><stop offset="0.08" stop-color="#8cba48"/><stop offset="0.42" stop-color="#a3c856"/><stop offset="0.73" stop-color="#b1d15e"/><stop offset="1" stop-color="#b6d461"/></linearGradient><clipPath id="a246011e-d8a5-4bf8-9e6c-7d7a97bd7fb7"><path id="a1579df9-0fbc-49e5-9080-9b9a2dfe3f6e" data-name="SVGID" d="M230.9,180.6c1.4,3.4,9,3.6,16.9.4s13.3-8.6,11.9-12.1-9-3.5-16.9-.3-12.6,7.9-12.1,11.3a6.4,6.4,0,0,0,.2.7" fill="none"/></clipPath><linearGradient id="f652cb31-9a61-40cc-bebc-b21253d43bf9" x1="-3209.11" y1="293.88" x2="-3208.68" y2="293.88" gradientTransform="translate(-216268.3 19996.8) rotate(-180) scale(67.47)" xlink:href="#e3f22558-9554-4aef-b5d0-9b11a8ea465f"/><clipPath id="bde85091-7ec0-42a2-992f-de87821df90a"><path id="b2899b18-a76f-4b82-a446-f213c9d69691" data-name="SVGID" d="M189.6,222.9c-3.5,1.2-3.8,8.8-.9,16.8s8.2,13.6,11.7,12.3,3.8-8.9.9-16.9-7.6-12.8-11-12.4l-.7.2" fill="none"/></clipPath><linearGradient id="f32937e3-1a43-4359-b58f-5e44c584b225" x1="-3217.82" y1="350.12" x2="-3217.4" y2="350.12" gradientTransform="translate(-23428.5 -216863.5) rotate(-90) scale(67.47)" xlink:href="#e3f22558-9554-4aef-b5d0-9b11a8ea465f"/><clipPath id="b1e0dca0-421a-4963-8082-72f167e1c6a6"><path id="b3c0d4d4-09b9-47a9-a901-a2797b9e7ec4" data-name="SVGID" d="M112.9,229.6c-3.6,7.8-3.8,15.3-.5,16.9s9-3.6,12.6-11.3,3.8-15.4.4-16.9a2.5,2.5,0,0,0-1.7-.3c-3.4.4-7.8,5-10.8,11.6" fill="none"/></clipPath><linearGradient id="ba1d3db7-534b-423a-8397-5e81ff525d37" x1="-3202.02" y1="361.7" x2="-3201.6" y2="361.7" gradientTransform="matrix(0, -67.46, 67.46, 0, -24271.83, -215773.77)" xlink:href="#e3f22558-9554-4aef-b5d0-9b11a8ea465f"/><clipPath id="acf60b2d-d325-4430-ace0-7dabfefe8096"><path id="e7ee471d-c80c-47c5-864d-5f557239e5d3" data-name="SVGID" d="M92.7,120.6a83.1,83.1,0,1,0,63.5-42.8,83.1,83.1,0,0,0-63.5,42.8" fill="none"/></clipPath><linearGradient id="a60ff5d2-bed3-4c67-a1b5-2c982a5b916e" x1="-3201.09" y1="333.93" x2="-3200.67" y2="333.93" gradientTransform="matrix(-392.5, 0, 0, -392.5, -1256192.64, 131227.29)" gradientUnits="userSpaceOnUse"><stop offset="0" stop-color="#b6d461"/><stop offset="1" stop-color="#b6d461"/><stop offset="1" stop-color="#85b644"/></linearGradient><clipPath id="b934ba5f-5619-4fc6-95f7-907c2d9704e3"><path id="b489a0b7-b40e-4c0c-bb73-58ad50e024b3" data-name="SVGID" d="M111.8,101.6a79.8,79.8,0,1,0,44.7-20.4,79.8,79.8,0,0,0-44.7,20.4" fill="none"/></clipPath><linearGradient id="a390ef79-9ea7-4507-8e12-7f54492b781c" x1="-3201.68" y1="337.32" x2="-3201.26" y2="337.32" gradientTransform="matrix(0, -376.45, 376.45, 0, -126821.58, -1205026.52)" xlink:href="#e3f22558-9554-4aef-b5d0-9b11a8ea465f"/><clipPath id="a5ca2386-1975-411d-9d99-47b802e681c3"><rect id="fcf9e75f-8312-456c-9a04-a4e5d7d9a239" data-name="SVGID" x="212.9" y="148.8" width="27" height="21.76" fill="none"/></clipPath><clipPath id="a200d251-0704-428e-a21c-a7ef374bd811"><rect id="f9fbdaf0-b615-40e5-a917-2438d4d75cf6" data-name="SVGID" x="88.8" y="150.1" width="27" height="21.76" fill="none"/></clipPath></defs><title>資產 2</title><g id="b88a3b6e-b6af-4622-8491-8fc9aa76c689" data-name="圖層 2"><g id="a346efef-782d-41c5-a498-e8413e6fadde" data-name="圖層 4"><path d="M318.7,19.8c-3.2-.4-5.8,2.3-5.9,6-.5,12.9-1,25.6-1.6,38.2,3.4-12.1,7.2-24.4,11.1-36.8C323.5,23.6,321.9,20.3,318.7,19.8Z" fill="#c12106"/><path d="M350.6,47.5c-1.6-1.4-4.5-.9-6.5,1.1-6.6,7.1-13.1,14.4-19,21.8A288.1,288.1,0,0,1,349,52.9C351.4,51.3,352.2,48.9,350.6,47.5Z" fill="#fda014"/><path d="M382.6,73.6c-.4-2.4-4.3-3.9-8.5-3.2a227.5,227.5,0,0,0-41.5,11.7,253.2,253.2,0,0,1,42.9-4.4C379.8,77.6,383,75.9,382.6,73.6Z" fill="#9fb603"/><path d="M250.8,54.7c-.9,1.6.9,3.7,4,4.8a227.6,227.6,0,0,1,29.8,14.1,189.3,189.3,0,0,0-26.9-18.8C254.9,53.1,251.7,53.2,250.8,54.7Z" fill="#fdc63a"/><path d="M266.4,18.8c-3.5,1.6-3.6,5.4-.4,8.6a227,227,0,0,1,29.9,37.8,370.6,370.6,0,0,0-19.3-42.5C274.5,18.8,269.9,17.1,266.4,18.8Z" fill="#16c1d1"/><path d="M341.5,19.7c-.3,1.4.8,2.9,2.6,3.4s3.4-.3,3.7-1.7-.8-3-2.5-3.4S341.8,18.3,341.5,19.7Z" fill="#16c1d1"/><path d="M299.2,51.8a2.9,2.9,0,0,0,2.6,2.9,2.5,2.5,0,1,0-2.6-2.9Z" fill="#fda014"/><path d="M299.4,80.8a2.8,2.8,0,0,0,2.6,2.8,2.5,2.5,0,1,0,.6-5A2.8,2.8,0,0,0,299.4,80.8Z" fill="#fda014"/><path d="M342.4,88.2a2.1,2.1,0,0,0,1.6,2.9,3.2,3.2,0,0,0,3.4-1.7,2.1,2.1,0,0,0-1.5-2.9A3.2,3.2,0,0,0,342.4,88.2Z" fill="#fdc63a"/><path d="M259.4,71a3.4,3.4,0,0,0,2.9,2.6,2,2,0,0,0,2.3-2.2,3.2,3.2,0,0,0-2.9-2.5C260.2,68.8,259.2,69.7,259.4,71Z" fill="#9fb603"/><path d="M333.8,33.7a2.2,2.2,0,0,0,1.9,2.4,2.3,2.3,0,0,0,2.7-1.4,2.4,2.4,0,0,0-4.6-1Z" fill="#fda014"/><path d="M301.6,13.5c-.1,1.1.8,2,2.2,2.1a2.4,2.4,0,0,0,2.7-1.7,2.2,2.2,0,0,0-2.2-2.1A2.4,2.4,0,0,0,301.6,13.5Z" fill="#9fb603"/><path d="M334.1,70a1.9,1.9,0,0,0,1.5,2.3,2.2,2.2,0,0,0,2.5-1.4,1.7,1.7,0,0,0-1.5-2.2A2,2,0,0,0,334.1,70Z" fill="#a81d05"/><path d="M363.8,91.7a1.3,1.3,0,0,0,.9,2,2.5,2.5,0,0,0,2.7-1,1.3,1.3,0,0,0-.9-2.1A2.4,2.4,0,0,0,363.8,91.7Z" fill="#16c1d1"/><path d="M359.4,61.6a1.9,1.9,0,0,0,1.5,2.3,2.1,2.1,0,0,0,2.7-1,1.9,1.9,0,0,0-1.4-2.4A2.3,2.3,0,0,0,359.4,61.6Z" fill="#9fb603"/><path d="M287.8,81.7a1.9,1.9,0,0,0,1.7,2,1.5,1.5,0,0,0,1.9-1.5,2,2,0,0,0-1.7-2.1A1.7,1.7,0,0,0,287.8,81.7Z" fill="#9fb603"/><path d="M294,27.2a2.6,2.6,0,0,0,2.7,2.5,2.8,2.8,0,0,0,3.3-2.1,2.7,2.7,0,0,0-2.7-2.6C295.6,24.9,294.2,25.8,294,27.2Z" fill="#a81d05"/><path d="M268.1,39.7l-4.5-5.8c-1.5,1.9-2.9,3.9-4.3,5.9Z" fill="#fda014"/><path d="M316.2,68.1l-7.6,1.3c1.7,1.8,3.3,3.6,4.9,5.5Z" fill="#fda014"/><path d="M367.2,48.1l5.9-4.6-8.7-2.6Z" fill="#16c1d1"/><path d="M364.8,20.8l-2.6,2.1-4-.8,2.3,3.1-1.6,2.9,3.9-.3,3.1,2.7c.1-1.1.1-2.2.2-3.3l3.5-1.1-3.8-1.9C365.4,23.1,365.1,21.9,364.8,20.8Z" fill="#9fb603"/><path d="M318.5,79.3l-2.6,2.2-4-.9,2.3,3.1-1.6,2.9,3.9-.3,3.1,2.7c.1-1.1.2-2.2.2-3.3l3.5-1.1-3.8-1.9C319.1,81.6,318.8,80.4,318.5,79.3Z" fill="#a81d05"/><path d="M299.9,145.4c1.2.2,2.7-2.3,3.3-5.5,2-11.4,3.6-23.2,4.9-35.2-3.4,11.7-6.5,23.1-9.1,34.4C298.3,142.3,298.7,145.1,299.9,145.4Z" fill="#c12106"/><path d="M284.2,123.2c1.1,1.1,2.4.3,3.1-1.8A139.2,139.2,0,0,1,297,99a112.7,112.7,0,0,0-13.2,19C282.9,119.7,283.1,122.1,284.2,123.2Z" fill="#fda014"/><path d="M258.1,103.4c1.7,2.3,4.2,3,6,1.4a177.1,177.1,0,0,1,24.7-16.9c-11.2,3.4-21.1,6.9-29.5,9.9C256.9,98.7,256.4,101.2,258.1,103.4Z" fill="#9fb603"/><path d="M351.2,116.4c1.8-1.3,2-3.3.4-4.7-5.5-4.8-11.9-10.1-19-15.6a177.8,177.8,0,0,1,13.7,19.5C347.3,117.3,349.4,117.6,351.2,116.4Z" fill="#fdc63a"/><path d="M320.4,146.6a11.5,11.5,0,0,0,5-7.6c1.2-10.5-.7-22.5-4.9-35.4,1.5,13.9,1,27-2,39C317.6,146.1,318.3,147.8,320.4,146.6Z" fill="#9fb603"/><path d="M291.4,147.4c0-1.3-.5-2.4-1.1-2.6s-1.2.7-1.1,2,.5,2.5,1.1,2.6S291.4,148.7,291.4,147.4Z" fill="#16c1d1"/><path d="M315.2,116.1a2,2,0,0,0-1.2-2.7,2.4,2.4,0,0,0-2.6,2c-.3,1.3.2,2.5,1.3,2.7S314.8,117.4,315.2,116.1Z" fill="#fda014"/><path d="M278.2,82.5a3,3,0,0,0-2.6-2.7,1.9,1.9,0,0,0-2.3,2.1,3.2,3.2,0,0,0,2.6,2.7A2,2,0,0,0,278.2,82.5Z" fill="#fdc63a"/><path d="M355.3,101a1.7,1.7,0,0,0-1.1-2.7,3.4,3.4,0,0,0-3.5,1.6,1.8,1.8,0,0,0,1.1,2.7A3.4,3.4,0,0,0,355.3,101Z" fill="#9fb603"/><path d="M293.9,134.2c0-1-.4-1.9-1-2s-1.2.5-1.2,1.5a2.1,2.1,0,0,0,1,2C293.3,135.8,293.8,135.1,293.9,134.2Z" fill="#fda014"/><path d="M305.3,150.2c.3-.9.2-1.7-.3-1.8s-1.1.7-1.4,1.6-.1,1.7.3,1.7S305,151.1,305.3,150.2Z" fill="#9fb603"/><path d="M290.1,100a2.1,2.1,0,0,0-1.6-2.1c-.9-.2-1.6.5-1.6,1.5a2.2,2.2,0,0,0,1.5,2.1A1.6,1.6,0,0,0,290.1,100Z" fill="#a81d05"/><path d="M258.4,81.7a2.5,2.5,0,0,0-2.1-1.9,1.2,1.2,0,0,0-1.4,1.5,2.6,2.6,0,0,0,2.1,1.9C258,83.4,258.6,82.7,258.4,81.7Z" fill="#16c1d1"/><path d="M275.7,111a2.2,2.2,0,0,0-1.6-2c-.8-.2-1.3.4-1.1,1.4a2.6,2.6,0,0,0,1.6,2.1C275.4,112.7,275.9,112,275.7,111Z" fill="#9fb603"/><path d="M332,88.2a1.7,1.7,0,0,0-1.3-2.1,2.1,2.1,0,0,0-2.4,1.4,1.7,1.7,0,0,0,1.3,2.1A2.1,2.1,0,0,0,332,88.2Z" fill="#9fb603"/><path d="M312.2,138.3c.5-1.1.2-2.2-.6-2.3s-1.7.8-2.1,1.9-.1,2.2.6,2.3S311.8,139.5,312.2,138.3Z" fill="#a81d05"/><path d="M330.9,128.1c-.2,1.9-.5,3.7-.8,5.5l5.7-4.9Z" fill="#fda014"/><path d="M304.2,100.9l6.3-1.4-4.1-5.2C305.6,96.5,304.9,98.7,304.2,100.9Z" fill="#fda014"/><path d="M276.5,125.3c-.2,1.8-.4,3.6-.5,5.5l3.8.8Q278.3,128.5,276.5,125.3Z" fill="#16c1d1"/><path d="M284.6,150.2c0-.9.1-1.7.1-2.5H286l-1.2-2.5a26.2,26.2,0,0,1-.1-2.8l-1.1.9-1.5-1.9a28.2,28.2,0,0,0,.7,3.1l-.6,1.7,1.4,1C283.9,148.2,284.2,149.2,284.6,150.2Z" fill="#9fb603"/><g opacity="0.5"><path d="M318.7,19.8c-3.2-.4-5.8,2.3-5.9,6-.5,12.9-1,25.6-1.6,38.2,3.4-12.1,7.2-24.4,11.1-36.8C323.5,23.6,321.9,20.3,318.7,19.8Z" fill="#fff"/><path d="M350.6,47.5c-1.6-1.4-4.5-.9-6.5,1.1-6.6,7.1-13.1,14.4-19,21.8A288.1,288.1,0,0,1,349,52.9C351.4,51.3,352.2,48.9,350.6,47.5Z" fill="#fff"/><path d="M382.6,73.6c-.4-2.4-4.3-3.9-8.5-3.2a227.5,227.5,0,0,0-41.5,11.7,253.2,253.2,0,0,1,42.9-4.4C379.8,77.6,383,75.9,382.6,73.6Z" fill="#fff"/><path d="M250.8,54.7c-.9,1.6.9,3.7,4,4.8a227.6,227.6,0,0,1,29.8,14.1,189.3,189.3,0,0,0-26.9-18.8C254.9,53.1,251.7,53.2,250.8,54.7Z" fill="#fff"/><path d="M266.4,18.8c-3.5,1.6-3.6,5.4-.4,8.6a227,227,0,0,1,29.9,37.8,370.6,370.6,0,0,0-19.3-42.5C274.5,18.8,269.9,17.1,266.4,18.8Z" fill="#fff"/><path d="M341.5,19.7c-.3,1.4.8,2.9,2.6,3.4s3.4-.3,3.7-1.7-.8-3-2.5-3.4S341.8,18.3,341.5,19.7Z" fill="#fff"/><path d="M299.2,51.8a2.9,2.9,0,0,0,2.6,2.9,2.5,2.5,0,1,0-2.6-2.9Z" fill="#fff"/><path d="M299.4,80.8a2.8,2.8,0,0,0,2.6,2.8,2.5,2.5,0,1,0,.6-5A2.8,2.8,0,0,0,299.4,80.8Z" fill="#fff"/><path d="M342.4,88.2a2.1,2.1,0,0,0,1.6,2.9,3.2,3.2,0,0,0,3.4-1.7,2.1,2.1,0,0,0-1.5-2.9A3.2,3.2,0,0,0,342.4,88.2Z" fill="#fff"/><path d="M259.4,71a3.4,3.4,0,0,0,2.9,2.6,2,2,0,0,0,2.3-2.2,3.2,3.2,0,0,0-2.9-2.5C260.2,68.8,259.2,69.7,259.4,71Z" fill="#fff"/><path d="M333.8,33.7a2.2,2.2,0,0,0,1.9,2.4,2.3,2.3,0,0,0,2.7-1.4,2.4,2.4,0,0,0-4.6-1Z" fill="#fff"/><path d="M301.6,13.5c-.1,1.1.8,2,2.2,2.1a2.4,2.4,0,0,0,2.7-1.7,2.2,2.2,0,0,0-2.2-2.1A2.4,2.4,0,0,0,301.6,13.5Z" fill="#fff"/><path d="M334.1,70a1.9,1.9,0,0,0,1.5,2.3,2.2,2.2,0,0,0,2.5-1.4,1.7,1.7,0,0,0-1.5-2.2A2,2,0,0,0,334.1,70Z" fill="#fff"/><path d="M363.8,91.7a1.3,1.3,0,0,0,.9,2,2.5,2.5,0,0,0,2.7-1,1.3,1.3,0,0,0-.9-2.1A2.4,2.4,0,0,0,363.8,91.7Z" fill="#fff"/><path d="M359.4,61.6a1.9,1.9,0,0,0,1.5,2.3,2.1,2.1,0,0,0,2.7-1,1.9,1.9,0,0,0-1.4-2.4A2.3,2.3,0,0,0,359.4,61.6Z" fill="#fff"/><path d="M287.8,81.7a1.9,1.9,0,0,0,1.7,2,1.5,1.5,0,0,0,1.9-1.5,2,2,0,0,0-1.7-2.1A1.7,1.7,0,0,0,287.8,81.7Z" fill="#fff"/><path d="M294,27.2a2.6,2.6,0,0,0,2.7,2.5,2.8,2.8,0,0,0,3.3-2.1,2.7,2.7,0,0,0-2.7-2.6C295.6,24.9,294.2,25.8,294,27.2Z" fill="#fff"/><path d="M268.1,39.7l-4.5-5.8c-1.5,1.9-2.9,3.9-4.3,5.9Z" fill="#fff"/><path d="M316.2,68.1l-7.6,1.3c1.7,1.8,3.3,3.6,4.9,5.5Z" fill="#fff"/><path d="M367.2,48.1l5.9-4.6-8.7-2.6Z" fill="#fff"/><path d="M364.8,20.8l-2.6,2.1-4-.8,2.3,3.1-1.6,2.9,3.9-.3,3.1,2.7c.1-1.1.1-2.2.2-3.3l3.5-1.1-3.8-1.9C365.4,23.1,365.1,21.9,364.8,20.8Z" fill="#fff"/><path d="M318.5,79.3l-2.6,2.2-4-.9,2.3,3.1-1.6,2.9,3.9-.3,3.1,2.7c.1-1.1.2-2.2.2-3.3l3.5-1.1-3.8-1.9C319.1,81.6,318.8,80.4,318.5,79.3Z" fill="#fff"/><path d="M299.9,145.4c1.2.2,2.7-2.3,3.3-5.5,2-11.4,3.6-23.2,4.9-35.2-3.4,11.7-6.5,23.1-9.1,34.4C298.3,142.3,298.7,145.1,299.9,145.4Z" fill="#fff"/><path d="M284.2,123.2c1.1,1.1,2.4.3,3.1-1.8A139.2,139.2,0,0,1,297,99a112.7,112.7,0,0,0-13.2,19C282.9,119.7,283.1,122.1,284.2,123.2Z" fill="#fff"/><path d="M258.1,103.4c1.7,2.3,4.2,3,6,1.4a177.1,177.1,0,0,1,24.7-16.9c-11.2,3.4-21.1,6.9-29.5,9.9C256.9,98.7,256.4,101.2,258.1,103.4Z" fill="#fff"/><path d="M351.2,116.4c1.8-1.3,2-3.3.4-4.7-5.5-4.8-11.9-10.1-19-15.6a177.8,177.8,0,0,1,13.7,19.5C347.3,117.3,349.4,117.6,351.2,116.4Z" fill="#fff"/><path d="M320.4,146.6a11.5,11.5,0,0,0,5-7.6c1.2-10.5-.7-22.5-4.9-35.4,1.5,13.9,1,27-2,39C317.6,146.1,318.3,147.8,320.4,146.6Z" fill="#fff"/><path d="M291.4,147.4c0-1.3-.5-2.4-1.1-2.6s-1.2.7-1.1,2,.5,2.5,1.1,2.6S291.4,148.7,291.4,147.4Z" fill="#fff"/><path d="M315.2,116.1a2,2,0,0,0-1.2-2.7,2.4,2.4,0,0,0-2.6,2c-.3,1.3.2,2.5,1.3,2.7S314.8,117.4,315.2,116.1Z" fill="#fff"/><path d="M278.2,82.5a3,3,0,0,0-2.6-2.7,1.9,1.9,0,0,0-2.3,2.1,3.2,3.2,0,0,0,2.6,2.7A2,2,0,0,0,278.2,82.5Z" fill="#fff"/><path d="M355.3,101a1.7,1.7,0,0,0-1.1-2.7,3.4,3.4,0,0,0-3.5,1.6,1.8,1.8,0,0,0,1.1,2.7A3.4,3.4,0,0,0,355.3,101Z" fill="#fff"/><path d="M293.9,134.2c0-1-.4-1.9-1-2s-1.2.5-1.2,1.5a2.1,2.1,0,0,0,1,2C293.3,135.8,293.8,135.1,293.9,134.2Z" fill="#fff"/><path d="M305.3,150.2c.3-.9.2-1.7-.3-1.8s-1.1.7-1.4,1.6-.1,1.7.3,1.7S305,151.1,305.3,150.2Z" fill="#fff"/><path d="M290.1,100a2.1,2.1,0,0,0-1.6-2.1c-.9-.2-1.6.5-1.6,1.5a2.2,2.2,0,0,0,1.5,2.1A1.6,1.6,0,0,0,290.1,100Z" fill="#fff"/><path d="M258.4,81.7a2.5,2.5,0,0,0-2.1-1.9,1.2,1.2,0,0,0-1.4,1.5,2.6,2.6,0,0,0,2.1,1.9C258,83.4,258.6,82.7,258.4,81.7Z" fill="#fff"/><path d="M275.7,111a2.2,2.2,0,0,0-1.6-2c-.8-.2-1.3.4-1.1,1.4a2.6,2.6,0,0,0,1.6,2.1C275.4,112.7,275.9,112,275.7,111Z" fill="#fff"/><path d="M332,88.2a1.7,1.7,0,0,0-1.3-2.1,2.1,2.1,0,0,0-2.4,1.4,1.7,1.7,0,0,0,1.3,2.1A2.1,2.1,0,0,0,332,88.2Z" fill="#fff"/><path d="M312.2,138.3c.5-1.1.2-2.2-.6-2.3s-1.7.8-2.1,1.9-.1,2.2.6,2.3S311.8,139.5,312.2,138.3Z" fill="#fff"/><path d="M330.9,128.1c-.2,1.9-.5,3.7-.8,5.5l5.7-4.9Z" fill="#fff"/><path d="M304.2,100.9l6.3-1.4-4.1-5.2C305.6,96.5,304.9,98.7,304.2,100.9Z" fill="#fff"/><path d="M276.5,125.3c-.2,1.8-.4,3.6-.5,5.5l3.8.8Q278.3,128.5,276.5,125.3Z" fill="#fff"/><path d="M284.6,150.2c0-.9.1-1.7.1-2.5H286l-1.2-2.5a26.2,26.2,0,0,1-.1-2.8l-1.1.9-1.5-1.9a28.2,28.2,0,0,0,.7,3.1l-.6,1.7,1.4,1C283.9,148.2,284.2,149.2,284.6,150.2Z" fill="#fff"/></g><g clip-path="url(#f59e2aef-69e0-480c-a96c-f4b13cac5593)"><rect x="60.6" y="162.4" width="31" height="25.2" transform="translate(-29.7 16.2) rotate(-10.2)" fill="url(#e3f22558-9554-4aef-b5d0-9b11a8ea465f)"/></g><g clip-path="url(#a246011e-d8a5-4bf8-9e6c-7d7a97bd7fb7)"><rect x="228.3" y="158.3" width="34.9" height="32.89" transform="translate(-49 238.2) rotate(-47.6)" fill="url(#f652cb31-9a61-40cc-bebc-b21253d43bf9)"/></g><g clip-path="url(#bde85091-7ec0-42a2-992f-de87821df90a)"><rect x="178.6" y="220.4" width="32.9" height="34.89" transform="translate(-111.4 211.8) rotate(-45.8)" fill="url(#f32937e3-1a43-4359-b58f-5e44c584b225)"/></g><g clip-path="url(#b1e0dca0-421a-4963-8082-72f167e1c6a6)"><rect x="106.4" y="217.6" width="25.2" height="31" transform="translate(-3.2 1.7) rotate(-0.8)" fill="url(#ba1d3db7-534b-423a-8397-5e81ff525d37)"/></g><g clip-path="url(#acf60b2d-d325-4430-ace0-7dabfefe8096)"><rect x="58.1" y="62.5" width="216.4" height="207.24" transform="translate(-40 53.6) rotate(-16.4)" fill="url(#a60ff5d2-bed3-4c67-a1b5-2c982a5b916e)"/></g><g clip-path="url(#b934ba5f-5619-4fc6-95f7-907c2d9704e3)"><rect x="44.6" y="42.8" width="243.4" height="245.99" transform="translate(-58.9 232.2) rotate(-61.4)" fill="url(#a390ef79-9ea7-4507-8e12-7f54492b781c)"/></g><path d="M227.6,93.1c-.4,4.6,3.9,8.8,9.5,9.2s10.5-3,10.9-7.6-3.9-8.8-9.6-9.3-10.4,3-10.8,7.7" fill="#efdc3c"/><path d="M217.3,91.6c-2.5,3.9-.7,9.6,4.1,12.6s10.6,2.3,13.1-1.6.7-9.6-4-12.6-10.7-2.3-13.2,1.6" fill="#efdc3c"/><path d="M230,101.9c-1.6,4.4,1.5,9.5,6.8,11.4s10.9-.2,12.4-4.6-1.5-9.5-6.8-11.4-10.9.2-12.4,4.6" fill="#efdc3c"/><path d="M217.7,90.6c3.7,2.8,9.5,1.5,12.9-3s3.2-10.4-.5-13.2-9.5-1.5-12.9,3-3.2,10.4.5,13.2" fill="#eebc2a"/><path d="M203.5,80.2c-2.6,3.9-.7,9.6,4,12.6s10.7,2.3,13.2-1.6.7-9.6-4.1-12.6-10.6-2.3-13.1,1.6" fill="#eebc2a"/><path d="M216.1,90.5c-1.5,4.4,1.5,9.5,6.8,11.4s10.9-.2,12.5-4.6-1.5-9.5-6.8-11.4-10.9.2-12.5,4.6" fill="#eebc2a"/><path d="M237.8,97a7.5,7.5,0,0,1-1.9,4.9l-.3.3-.2.3-.3.3-.4.3-.3.2-.4.3-2.3,1.1h-.9l-.4.2h-.5c-8.4,1.2-13.1-6.9-15.7-13.5-.4-.9-.7-1.9-1.1-3l-.3-.6a16.2,16.2,0,0,0-3.6-5.9l-.2-.2a7.8,7.8,0,0,0-7.2-1.2h-.6l-.4-.6a13,13,0,0,1-.8-1.7l-.2-.4.5-.2a10.3,10.3,0,0,1,9.9,1c3.5,2.3,5,6.1,6.5,9.8,2,5.3,4.7,12.7,11.2,13.8,3.8.4,8.3-1.8,8.2-6.2s-5.6-5.8-8.2-5.5-4.5.7-6.9,2.3l-.7.5h-.9l.3-.2a26.9,26.9,0,0,1,3.2-1.9c5.5-2.4,14.5-.8,14.9,6.6" fill="#008742"/><path d="M210,90.8l-1.9-.4a20.4,20.4,0,0,1-14.8-18.9l3-.3A21.3,21.3,0,0,0,210,90.8" fill="#7db82e"/><path d="M214.7,95.4h.8l-.5.3-.5.2H214l-.5.2-.5.2h-.5l-.6.2h-1a21.6,21.6,0,0,1-6.7.3h-.6l-.6-.2h-1.1l-.5-.2-.6-.2c-4-1.8-6.5-4.7-7-9.1V85.3a1.3,1.3,0,0,1,.1-.6,1.4,1.4,0,0,1,.2-.6.4.4,0,0,0,.1-.3l.3-.7v-.2l2.2,2.9v3.3c1.4,6.2,9,7.7,14.3,7.1h1.5l.5-.2,1.4-.4" fill="#7db82e"/><g opacity="0.5"><g clip-path="url(#a5ca2386-1975-411d-9d99-47b802e681c3)"><path d="M237.7,153.3c3.3,4.4,3.2,12.3-2.8,15.6s-17,1.4-20.5-3.2c-7.5-9.9,14.4-24.2,23.3-12.4" fill="#e0256d"/></g></g><g opacity="0.5"><g clip-path="url(#a200d251-0704-428e-a21c-a7ef374bd811)"><path d="M91,154.6c-3.4,4.4-3.2,12.3,2.8,15.6s16.9,1.4,20.5-3.2c7.4-9.9-14.4-24.2-23.3-12.4" fill="#e0256d"/></g></g><path d="M192.1,136.4a12.3,12.3,0,1,0,24.6,0,8.6,8.6,0,0,0-.4-2.8h.1A10.2,10.2,0,0,0,221,127c-3.3,1.1-8.7,0-8.7,0h0a12.3,12.3,0,0,0-20.2,9.4Z" fill="#4a3e37"/><path d="M199.6,130.3a3.3,3.3,0,1,0,0,6.6,3.3,3.3,0,1,0,0-6.6Z" fill="#fff"/><path d="M122.1,124.1a12.2,12.2,0,0,0-7.9,2.9h0s-5.4,1.1-8.7,0a10.2,10.2,0,0,0,4.6,6.6h0a12.7,12.7,0,0,0-.3,2.8,12.3,12.3,0,1,0,12.3-12.3Zm-5.9,12.8a3.3,3.3,0,1,1,3.3-3.3A3.3,3.3,0,0,1,116.2,136.9Z" fill="#4a3e37"/><path d="M116.2,136.9a3.3,3.3,0,1,1,3.3-3.3A3.3,3.3,0,0,1,116.2,136.9Z" fill="#fff"/><path d="M176.7,165.2c-7.8,11.8-22,7.4-29.6-2.3-3-3.8-9.6.2-6.6,4,11.4,14.5,31.7,19,43,1.9,2.7-4.1-4.1-7.7-6.8-3.6" fill="#4a3e37"/><path d="M12.4,261.1l-.5,12.8c2.7,2.8,6.2,3.1,10.4,1.4l2.5-7.5-12.4-6.7Z" fill="#363440"/><path d="M44.3,257.4l-.4,12.8c2.6,2.8,6.1,3.1,10.4,1.4l2.5-7.5-12.5-6.7Z" fill="#363440"/><path d="M66.8,190.8l8.9,8.2L72,203.4l-3.9-4.3-9.6,53.5a7.2,7.2,0,0,1-6.3,5.9L15.3,263l5.1,4.6-3.8,2.8-9.1-8.3h0a2.8,2.8,0,0,1-1-.9,7.1,7.1,0,0,1-1.9-6.2c2.7-15.2,7.9-44,10-55.8a7.2,7.2,0,0,1,6.3-5.9l39.5-4.9a7.6,7.6,0,0,1,6.2,2.3C66.7,190.7,66.8,190.7,66.8,190.8Z" fill="#7d68bd"/><path d="M67.1,191.1l4,3.6L26.7,200a6.2,6.2,0,0,0-5.2,4.8l-5,23.9a2.1,2.1,0,0,1-2.5,1.6,2.1,2.1,0,0,1-1.6-2.4s3.3-15.3,5.1-23.9a10.1,10.1,0,0,1,8.7-8l40.9-4.9Z" fill="#9d87e0"/><path d="M24.4,207.2a6.1,6.1,0,0,1,5.3-5l41.8-5.1a5.9,5.9,0,0,1,5.3,1.9,6.4,6.4,0,0,1,1.6,5.3L68,262.3a6.3,6.3,0,0,1-5.3,5.1l-41.9,5a5.9,5.9,0,0,1-5.2-1.8,6,6,0,0,1-1.6-5.4l10.4-58Z" fill="#9d87e0"/><path d="M23.9,246.5a4.5,4.5,0,0,1,4-3.9l33.5-3.9a4.5,4.5,0,0,1,3.9,1.4,4.6,4.6,0,0,1,1.2,3.9c-.6,3.7-1.3,8.4-1.7,11.6a4.9,4.9,0,0,1-4.1,3.9l-33.5,3.9a5.1,5.1,0,0,1-3.9-1.4,4.6,4.6,0,0,1-1.2-3.9l1.8-11.6Z" fill="#7d68bd"/><path d="M29.7,208.3a2.6,2.6,0,0,1,2.2-2L68.5,202a2.5,2.5,0,0,1,2.1.8,2.5,2.5,0,0,1,.6,2.2c-.3,2-.8,4.3-1.1,5.9a2.7,2.7,0,0,1-2.2,2.1l-36.5,4.3a2.7,2.7,0,0,1-2.2-.8,2.9,2.9,0,0,1-.6-2.2c.4-1.9.8-4.3,1.1-6Z" fill="#7d68bd"/><path d="M35.2,210.7,42.9,173a2.1,2.1,0,0,1,2-1.8l24.6-2.5a2.3,2.3,0,0,1,1.8.6,2,2,0,0,1,.6,1.8l-7.6,37.2a2.3,2.3,0,0,1-2.6,1.7,2.1,2.1,0,0,1-1.8-2.4l7-34.5L47,175.2l-7.4,36.1A2.2,2.2,0,0,1,37,213a2,2,0,0,1-1.8-2.3Z" fill="#c7e3f4"/></g></g></svg>