<svg xmlns="http://www.w3.org/2000/svg" xmlns:xlink="http://www.w3.org/1999/xlink" viewBox="0 0 75 74.2"><defs><linearGradient id="b3b3cdf0-7383-43fd-a922-c9f48049446d" x1="1508.47" y1="156.69" x2="1508.47" y2="82.51" gradientUnits="userSpaceOnUse"><stop offset="0" stop-color="#692705"/><stop offset="1" stop-color="#823b00"/></linearGradient><radialGradient id="b9b71646-195d-4a48-88e2-54e62966d565" cx="1494.45" cy="77.75" r="92.44" gradientTransform="translate(237.7 21.8) scale(0.84)" gradientUnits="userSpaceOnUse"><stop offset="0" stop-color="#f59547"/><stop offset="1" stop-color="#a14c1f"/></radialGradient><radialGradient id="a9ea3eb0-07a4-4598-8cc5-2ca5fc393174" cx="1499.94" cy="112.23" r="94.21" gradientTransform="translate(237.7 21.8) scale(0.84)" gradientUnits="userSpaceOnUse"><stop offset="0" stop-color="#cfa04d"/><stop offset="1" stop-color="#fff"/></radialGradient><radialGradient id="b93db8aa-2a31-4ee1-b911-d90ccf8900fe" cx="1514.72" cy="160.19" r="116.07" xlink:href="#a9ea3eb0-07a4-4598-8cc5-2ca5fc393174"/><radialGradient id="e66f7122-28d8-45e4-b542-128cc07cb963" cx="1542.92" cy="128.45" r="80.43" gradientTransform="translate(237.7 21.8) scale(0.84)" gradientUnits="userSpaceOnUse"><stop offset="0.35"/><stop offset="1" stop-color="#00b875"/></radialGradient><radialGradient id="f1d2a8ea-d305-4c38-8d72-257acfcb9a82" cx="1493.41" cy="156.03" r="34.9" gradientTransform="translate(237.7 21.8) scale(0.84)" gradientUnits="userSpaceOnUse"><stop offset="0" stop-color="#b0670b"/><stop offset="1"/></radialGradient><linearGradient id="b4a646b5-37bc-4c2e-b148-69b347a0e69e" x1="1508.47" y1="149.07" x2="1508.47" y2="87.29" gradientUnits="userSpaceOnUse"><stop offset="0" stop-color="#823b00"/><stop offset="1" stop-color="#692705"/></linearGradient><linearGradient id="b6df9696-5ca3-4b49-89e2-4706fcb1ab9b" x1="1481.4" y1="118.22" x2="1535.54" y2="118.22" gradientUnits="userSpaceOnUse"><stop offset="0" stop-color="#f63"/><stop offset="1" stop-color="#f80"/></linearGradient><linearGradient id="b64a1960-531f-467c-8696-84c7b258ca0f" x1="1483.48" y1="116.47" x2="1533.45" y2="116.47" xlink:href="#b6df9696-5ca3-4b49-89e2-4706fcb1ab9b"/><radialGradient id="f8c2d866-cfbb-4c07-abc8-21a984b2caca" cx="1520.64" cy="113.57" r="29.04" gradientTransform="translate(237.7 21.8) scale(0.84)" gradientUnits="userSpaceOnUse"><stop offset="0" stop-color="#f80"/><stop offset="1" stop-color="#f90"/></radialGradient><linearGradient id="f056c6c2-d652-4f3b-8fcb-fb8a733c0427" x1="1508.73" y1="116.15" x2="1488.04" y2="80.64" gradientUnits="userSpaceOnUse"><stop offset="0"/><stop offset="1" stop-color="#fc0"/></linearGradient><linearGradient id="f969acf7-96a8-4be7-bdad-ea3cc98ee232" x1="1486.33" y1="134.27" x2="1533.64" y2="134.27" gradientUnits="userSpaceOnUse"><stop offset="0" stop-color="#fff430"/><stop offset="1"/></linearGradient><linearGradient id="ebbd43ba-16b5-4e7c-884e-d29928e086b5" x1="1502.21" y1="102.34" x2="1499.83" y2="91.18" gradientUnits="userSpaceOnUse"><stop offset="0"/><stop offset="1" stop-color="#fffaa1"/></linearGradient><radialGradient id="bedf746b-15ac-4d0a-9027-0bbcc385f287" cx="1538.97" cy="147.91" r="45.46" gradientTransform="translate(237.7 21.8) scale(0.84)" gradientUnits="userSpaceOnUse"><stop offset="0" stop-color="#ff2929"/><stop offset="1"/></radialGradient><radialGradient id="a2289185-e1bf-44c1-88d5-a30f2e593d01" cx="1540.09" cy="144.36" r="27.6" gradientTransform="translate(237.7 21.8) scale(0.84)" gradientUnits="userSpaceOnUse"><stop offset="0" stop-color="#fff829"/><stop offset="1"/></radialGradient><linearGradient id="baeec84a-33cb-452e-84c9-7b6e5244ac08" x1="1508.47" y1="132.92" x2="1508.47" y2="102.69" gradientUnits="userSpaceOnUse"><stop offset="0" stop-color="#ffebeb"/><stop offset="1" stop-color="#fff"/></linearGradient></defs><title>04_人物簡介前導頁_綠色居家</title><g style="isolation:isolate"><g id="b650456a-5c1b-479b-b671-48d1f5f35523" data-name="框"><path d="M1508,82.5c20.4.9,34.9,14.1,37.5,31.6a12.9,12.9,0,0,0-7.5,1c1.6,0,7.7.3,7.7.6a42.4,42.4,0,0,1,.3,5.1c-.6,20.6-15.8,35.9-38,35.9s-35.6-14.9-36.9-34.8c0-.3,4.4-1.2,5.3-1.5-1.2.1-4.6-.1-5.4-.9a38.8,38.8,0,0,1,4.9-19.8c.2-.3,4.4-1.6,6-2.1-4.2.5-5.1.6-4.9.3,6.3-9.7,17.2-15.9,31-15.4Z" transform="translate(-1471 -82.5)" fill-rule="evenodd" fill="url(#b3b3cdf0-7383-43fd-a922-c9f48049446d)"/><path d="M1508,83c20,.8,34.2,13.8,36.5,30.7-2-.2-4.6.3-7.9,1.7a59.1,59.1,0,0,1,8.1.4c.1,1.2.1,2.4.1,3.7-.5,19.7-16.9,34.3-36.8,34.3a35.4,35.4,0,0,1-35.6-31.8l7-2.1c-1.7.3-5.9.1-7.2-.6v-.4a37.2,37.2,0,0,1,4.4-18.9l8.2-3-6.9.9c6-9.4,16.7-15.5,30.2-14.9Z" transform="translate(-1471 -82.5)" fill-rule="evenodd" fill="url(#b9b71646-195d-4a48-88e2-54e62966d565)"/><path d="M1472.4,112.6c2.9-.8,5.9-1.7,9.1-2.9a91.4,91.4,0,0,1,14.7-4.1c13.8-2.4,24.1-6.8,38.9-7.2,1.1,0,2.2-.1,3.4,0l-1.7-2.2a86.7,86.7,0,0,0-10.2,0c-13.7,1.2-29.7,4.8-44.3,7.1l-7.9,1.4a39.7,39.7,0,0,0-2,7.9Z" transform="translate(-1471 -82.5)" fill-rule="evenodd" opacity="0.6" fill="url(#a9ea3eb0-07a4-4598-8cc5-2ca5fc393174)" style="mix-blend-mode:multiply"/><path d="M1494.6,124.8a112.5,112.5,0,0,0-13.2,5.6,18.2,18.2,0,0,0-5.5,3.8,33,33,0,0,0,4.7,7,36.8,36.8,0,0,0,3.4,1.6c3.5,1.5,7.2,3,10.5,4.6a71.2,71.2,0,0,1,9.6,6.2l3.9.2a42.1,42.1,0,0,0,6.2-.5c-2.3-1.7-4.6-3.5-7.2-5.3-4.3-3.1-10.2-7.3-12.1-9.4a4.2,4.2,0,0,1-1.1-1.8,4.5,4.5,0,0,1-.4-2,6.7,6.7,0,0,1,.5-1.9,7,7,0,0,1,1.3-1.7c2.2-2.2,6.4-4.6,11.2-6.7a172.7,172.7,0,0,1,19.4-7.2,41,41,0,0,1,10.8-1.9c3.3-1.4,5.9-1.9,7.9-1.7a28.3,28.3,0,0,0-.8-4,39.1,39.1,0,0,0-9.7.1c-10.9,1.9-28,10.6-39.4,15Z" transform="translate(-1471 -82.5)" fill-rule="evenodd" opacity="0.6" fill="url(#b93db8aa-2a31-4ee1-b911-d90ccf8900fe)" style="mix-blend-mode:multiply"/><path d="M1542.5,131.2h-.9a10.9,10.9,0,0,0-2.6.3,4.9,4.9,0,0,0-1.7.6l-1.4.9a8.6,8.6,0,0,0-1.4,1.3,6.9,6.9,0,0,0-1.1,1.3,7.7,7.7,0,0,0-.7,1.6,4.7,4.7,0,0,0-.3,1.7,3.3,3.3,0,0,0,.4,1.7,3.4,3.4,0,0,0,.9,1.4l1.2.8,1.1-1.1a7.7,7.7,0,0,1-1.8-1,3.6,3.6,0,0,1-.8-1.9,4.5,4.5,0,0,1,.8-2.3,7.4,7.4,0,0,1,6.5-3.5h1l.8-1.8Zm2.1-9.1h-.6a44.4,44.4,0,0,0-25,7.8c-2.9,2-4.3,3.7-4.6,5.5a6.6,6.6,0,0,0,1.8,5.4,64.3,64.3,0,0,0,9.1,9l-2.7,1.1a86.8,86.8,0,0,1-9.1-9.1c-2.1-2.4-3.2-4.7-2.8-7,.6-4.1,9.2-8.5,13.9-10.4,8.1-3.2,14.1-4.4,20.2-4.2-.1.6-.1,1.3-.2,1.9Zm.2-5.1c-11.8-.8-20.6,1.3-37.1,8.7a37.5,37.5,0,0,0-9.9,6.5,3.9,3.9,0,0,0-.2,5.7c1.7,1.9,6.7,5.8,10.7,8.7s5.6,4.4,8,6.3l-2.1.4c-2.3-1.7-4.6-3.5-7.2-5.3-4.3-3.1-10.2-7.3-12.1-9.4a4.2,4.2,0,0,1-1.1-1.8,4.5,4.5,0,0,1-.4-2,6.7,6.7,0,0,1,.5-1.9,7,7,0,0,1,1.3-1.7c2.2-2.2,6.4-4.6,11.2-6.7a172.7,172.7,0,0,1,19.4-7.2c7.8-2.2,12-2.2,18.9-1.5,0,.4.1.8.1,1.2Zm-1.1-7.3a39.1,39.1,0,0,0-9.7.1c-10.9,1.9-28,10.6-39.4,15a112.5,112.5,0,0,0-13.2,5.6,18.2,18.2,0,0,0-5.5,3.8l-1.2-2.7c5.3-3.6,14.5-7,18.5-8.5l14.8-5.9c7.8-3.1,17.5-7.6,25.8-8.4a52.6,52.6,0,0,1,9.7.1c.1.3.1.6.2.9Zm-63.1,31.5a36.8,36.8,0,0,0,3.4,1.6c3.5,1.5,7.2,3,10.5,4.6a71.2,71.2,0,0,1,9.6,6.2,54.9,54.9,0,0,1-6.1-1.2l-5.7-3-5.9-2.7a30.3,30.3,0,0,1-5.8-5.5Zm61.2-36.9a58.5,58.5,0,0,0-12.3.9c-8.3,1.6-14.5,4.4-23.6,7.6-11,3.9-22.1,7.7-33.3,11a11,11,0,0,1-.2-1.8c11.4-3.4,22.7-7.2,33.9-11.2,9.5-3.4,16.2-5.7,23-6.8a59.1,59.1,0,0,1,12.1-.6,3.6,3.6,0,0,1,.4.9Zm-69.3,8.3c2.8-.8,5.8-1.7,9-2.9a91.4,91.4,0,0,1,14.7-4.1c13.8-2.4,24.1-6.8,38.9-7.2,1.1,0,2.2-.1,3.4,0l.9,1.3c-1.4,0-2.8-.1-4.2,0-8.5.2-16.5,2.4-24.6,4.7-4.8,1.3-9.4,2.5-14.2,3.4a74.6,74.6,0,0,0-14.5,4.1,85.5,85.5,0,0,1-9.7,2.8l.3-2.1Zm2.9-10.3,6.7-1.3c14.7-2.3,30.7-4.9,44.4-6.1a87.5,87.5,0,0,1,8.9-.2l1.4,1.5a86.7,86.7,0,0,0-10.2,0c-13.7,1.2-29.7,4.8-44.3,7.1l-7.9,1.4a24.4,24.4,0,0,1,1-2.4Zm3.7-6.3c3.9-.5,7.6-.9,11.3-1.1a133.8,133.8,0,0,0,14.1-1.1l8.8-1.1a127.7,127.7,0,0,1,17.9-1.8l1.3,1c-13.9,0-25.9,4.5-42,4.8a96.9,96.9,0,0,0-12.7,1.2c.4-.7.9-1.3,1.3-1.9Zm4-4.4a196.8,196.8,0,0,0,27.5-2c5.3-.7,10.6-1.4,15.9-1.8l2.4,1.5a181.6,181.6,0,0,0-18.1,1.6c-10.6,1.4-19.2,2.9-29.7,2.7l2-2Zm6.7-4.7a159.4,159.4,0,0,0,16.2-1.7l9.5-1.3c1.3.2,2.5.6,3.7.9-9.7,1-19.4,2.8-29.1,3.7l-3.4.2,3.1-1.8Zm40.4,59.9a16.1,16.1,0,0,1-4.6-3.8c-1.8-2-2.6-4.1-2.3-5.9l.3-.7c.7-1.8,2.6-3.8,5.1-5.5a23.6,23.6,0,0,1,8-3.8,24.5,24.5,0,0,1,7.2-.7,2.9,2.9,0,0,1-.2.9h-.1a24.6,24.6,0,0,0-6.7.6,24.9,24.9,0,0,0-7.3,4c-3.9,3-6.3,5.8-2.6,10.3a20.4,20.4,0,0,0,4.3,3.8l-1.1.8Z" transform="translate(-1471 -82.5)" fill="#b7805c" opacity="0.5" style="mix-blend-mode:multiply"/><path d="M1495.5,86.2c-.2-.1-.2-.4-.1-.6s2.2-1.4,4.1-2.1a33.8,33.8,0,0,0-9.7,3.4l6.6-.5-.9-.2Zm-1.8,1.9-3.6.4-3.4.2a45.7,45.7,0,0,0-3.6,2.9c3.4,0,6.6-.1,9.8-.3l-2.2-.2c-3.5-.4.3-2.2,1.5-2.6l1.5-.4Zm-2.5,5.2c-3.2.2-6.6.4-10.1.3l-2,2.4c3.9-.5,7.6-.9,11.3-1.1h1.1l-1.5-.2c-1-.2-.3-1,.4-1.2l.8-.2Zm-6.5,3.7-8.2,3a16.3,16.3,0,0,0-1.1,2.3l6.7-1.3h.8c-1.2-.4-2.6-1-1.3-1.9s5.7-2.1,8.7-2.3l-5.6.3Zm-2.9,6.4-7.4,1.3a33.8,33.8,0,0,0-1.9,7.9c2.8-.8,5.8-1.7,9-2.9l1.3-.4c-2.5.5-5.5.9-6.2.2s.2-4.4,1.9-5l3.3-1.1Zm-1.8,9.1a66.2,66.2,0,0,1-7.8,2.2c-.1,1.4-.1,2.8-.1,4.2v.4c1.3.7,5.5.9,7.2.6l2.5-.9c-2.9.4-7.6.7-8.1-1.1s2.9-3.7,6.2-5.4Zm.3,9-7.7,2.3a39.8,39.8,0,0,0,2.1,7.7,70.4,70.4,0,0,1,7.3-4,12.3,12.3,0,0,1-3.6.6,2.7,2.7,0,0,1-1.6-4.4,9.6,9.6,0,0,1,3.5-2.2Zm1.1,8.9a18.2,18.2,0,0,0-5.5,3.8,33,33,0,0,0,4.7,7,36.8,36.8,0,0,0,3.4,1.6l6.2,2.7c-2.5-1.4-5.7-3.2-6.8-4.3s-4.6-6.2-3.2-9a9.1,9.1,0,0,1,2.1-2.3l-.9.5Z" transform="translate(-1471 -82.5)" fill-rule="evenodd" opacity="0.35" fill="url(#e66f7122-28d8-45e4-b542-128cc07cb963)" style="mix-blend-mode:screen"/><path d="M1475.3,134.7c7.4,13.9,17,18.4,33.3,20-14.5,3-28.5-5.7-33.3-20Z" transform="translate(-1471 -82.5)" fill-rule="evenodd" fill="url(#f1d2a8ea-d305-4c38-8d72-257acfcb9a82)" style="mix-blend-mode:screen"/><path d="M1478.7,97.8c6.2-8.6,16.4-14.1,29.3-13.6a47.5,47.5,0,0,1,7.8,1l3.1,1.5c1.3.4,3.7.5,5.4,1.3a36.1,36.1,0,0,1,15.5,13.6.9.9,0,0,1,.1.7c-.1.2-.3.2-.5.2h-1a29.7,29.7,0,0,0-4.2-.3,36,36,0,0,0-6.6.7c-5.7,1.4-13.7,4.7-20.1,7.3,8.9-3.1,15.3-5.3,21.8-6.3a60.8,60.8,0,0,1,11.5-.7,33.6,33.6,0,0,1,3.5,10.4h.2C1542.2,96.8,1528,83.8,1508,83c-13.5-.6-24.2,5.5-30.2,14.9Z" transform="translate(-1471 -82.5)" fill="#2fac66" fill-rule="evenodd" style="mix-blend-mode:screen"/><path d="M1513.5,114.1c-7.8,3.3-15.6,6.5-23.3,10l3-1.1,14.8-5.9c4.6-1.8,9.7-4.1,14.9-5.9a39.4,39.4,0,0,0-9.4,2.9Z" transform="translate(-1471 -82.5)" fill="#ca9e67" fill-rule="evenodd" opacity="0.5" style="mix-blend-mode:screen"/><path d="M1506.4,124.5a172.7,172.7,0,0,1,19.4-7.2l4.3-1.1a77,77,0,0,0-19.3,5.6,84.7,84.7,0,0,0-10.5,5.1c-3.5,1.9-5.6,3.7-6.4,6.1h0a7,7,0,0,1,1.3-1.7c2.2-2.2,6.4-4.6,11.2-6.7Z" transform="translate(-1471 -82.5)" fill="#ca9e67" fill-rule="evenodd" opacity="0.5" style="mix-blend-mode:screen"/><path d="M1498.6,104.5a61.1,61.1,0,0,0-9.9,2.9,75,75,0,0,1,7.5-1.8c11.1-1.9,19.9-5.1,30.6-6.6a61.3,61.3,0,0,0-14.9,2.4c-1.8.5-3.6,1.3-5.5,1.7s-5.2.9-7.8,1.4Z" transform="translate(-1471 -82.5)" fill="#ca9e67" fill-rule="evenodd" opacity="0.5" style="mix-blend-mode:screen"/><path d="M1534.6,134.7a31,31,0,0,1-52.5-.2c5.1,9.5,13.7,15.2,26.5,15.5,11,.2,20.3-5.3,26-15.3Z" transform="translate(-1471 -82.5)" fill="#ca9e67" fill-rule="evenodd" opacity="0.65" style="mix-blend-mode:screen"/><path d="M1488.4,100l3.6-.5c-1.2-.2-1.6-.3-1-1.1l1.7-1.8a29,29,0,0,1,2.9-1.9,42.9,42.9,0,0,1,5.8-2.6l2.2-.6a19.8,19.8,0,0,0-3.3.8,26.1,26.1,0,0,0-5.4,2.4l-2.8,1.9a40.3,40.3,0,0,0-3.7,3.4Zm-4,6.2c1.4-2.4,1.8-3.1,3.7-3.8l-1.8.3a37.2,37.2,0,0,0-2.7,4.8l.8-1.3Z" transform="translate(-1471 -82.5)" fill="#ca9e67" fill-rule="evenodd" opacity="0.65" style="mix-blend-mode:screen"/><path d="M1481.4,118.3a27.1,27.1,0,1,1,54.1,0c0,15-11.3,26.9-27,27.1s-27.1-12.1-27.1-27.1Zm57.9-3.9c-1.7-15.2-15-26.6-30.8-27.1s-31.1,13.9-31.1,31a9.1,9.1,0,0,0,.1,1.7h1.9l-1.9.5a30.8,30.8,0,0,0,31,28.7c17.1,0,30.6-13.7,31-30.8,0-.9,0-1.9-.1-2.9h-2.8l2.7-1Z" transform="translate(-1471 -82.5)" fill-rule="evenodd" opacity="0.75" fill="url(#b4a646b5-37bc-4c2e-b148-69b347a0e69e)"/><path d="M1477.4,119.2c.5-16.8,14.2-30.8,31.1-30.2,15.2.5,28.2,11.1,30.6,25.5h.2c-1.7-15.2-15-26.6-30.8-27.1s-31.1,13.9-31.1,31v.9Z" transform="translate(-1471 -82.5)" fill="#683c11" fill-rule="evenodd" opacity="0.5" style="mix-blend-mode:multiply"/><path d="M1535.5,119.2c-.4,14.5-11.6,26-27,26.2s-26.7-11.6-27.1-26.2v.8c0,15,11.4,27.4,27.1,27.1s27-12.1,27-27.1v-.8Z" transform="translate(-1471 -82.5)" fill="#683c11" fill-rule="evenodd" opacity="0.5" style="mix-blend-mode:multiply"/><path d="M1508.5,91a27.3,27.3,0,0,0-27.1,27.3c0,15,11.4,27.4,27.1,27.1s27-12.1,27-27.1a27.3,27.3,0,0,0-27-27.3Z" transform="translate(-1471 -82.5)" fill-rule="evenodd" fill="url(#b6df9696-5ca3-4b49-89e2-4706fcb1ab9b)"/><path d="M1508.5,92.2c-13.8,0-25,11-25,24.4s10.5,24.3,25,24.1,25-10.8,25-24.1-11.2-24.4-25-24.4Z" transform="translate(-1471 -82.5)" fill-rule="evenodd" fill="url(#b64a1960-531f-467c-8696-84c7b258ca0f)"/><path d="M1508.5,92.7c-13.6,0-24.6,10.9-24.6,24.1s10.3,24.1,24.6,23.9S1533,130,1533,116.8a24.4,24.4,0,0,0-24.5-24.1Z" transform="translate(-1471 -82.5)" fill-rule="evenodd" fill="url(#f8c2d866-cfbb-4c07-abc8-21a984b2caca)"/><path d="M1485.5,109.9c-3.4,8.3-.3,11.8,8.8,10.7,10.7-1.4,23.5-6.9,29.6-13.7a5.7,5.7,0,0,0,1.2-5,8.7,8.7,0,0,0-3.3-4.9c-4.9-3.8-11.8-4.5-17.8-3.7-9,1.2-15.3,8.5-18.5,16.6Z" transform="translate(-1471 -82.5)" fill-rule="evenodd" fill="url(#f056c6c2-d652-4f3b-8fcb-fb8a733c0427)" style="mix-blend-mode:screen"/><path d="M1486.3,131.6c11.9,20.4,43.3,15.9,47.3-7.6-3.9,12.6-14.4,18-24.7,18.3a27.4,27.4,0,0,1-22.6-10.7Z" transform="translate(-1471 -82.5)" fill-rule="evenodd" opacity="0.5" fill="url(#f969acf7-96a8-4be7-bdad-ea3cc98ee232)" style="mix-blend-mode:screen"/><path d="M1492.6,99.6c-4.6,5.1-3.3,9.3,4.1,7s10.5-3.2,15.6-6.7c3.3-2.2,1.7-6-4.7-6.3-4.7-.2-11.8,2.4-15,6Z" transform="translate(-1471 -82.5)" fill-rule="evenodd" fill="url(#ebbd43ba-16b5-4e7c-884e-d29928e086b5)" style="mix-blend-mode:screen"/><path d="M1497.1,132.6c-3.8.9-1.2,4.3,1.1,5.5,6.9,3.5,16.2,2.6,23.4-1.5a23.6,23.6,0,0,0,9.7-11.2c2-4.8-.4-10.8-4.5-6.8s-8.2,6.9-12.8,8.8a133.7,133.7,0,0,1-16.9,5.2Z" transform="translate(-1471 -82.5)" fill-rule="evenodd" fill="url(#bedf746b-15ac-4d0a-9027-0bbcc385f287)" style="mix-blend-mode:screen"/><path d="M1513.8,139.2c4.9-1,10.8-3.6,14.3-8.8,1.1-1.7,1.5-5.1-1-2.7-5.2,4.8-8.1,6.5-14.7,8.7-4.3,1.5-6.2,1.7-6.2,2.3s3.2,1.4,7.6.5Z" transform="translate(-1471 -82.5)" fill-rule="evenodd" fill="url(#a2289185-e1bf-44c1-88d5-a30f2e593d01)" style="mix-blend-mode:screen"/><path d="M1517.2,103.5a25.9,25.9,0,0,1,6.4,6.4c-2.1,2.5-5,5.6-8,8.7,2.9,3,5.7,6,8,8.8a27.8,27.8,0,0,1-6.4,6.4c-2.5-2.2-5.6-5-8.7-8.1-3.1,3-6.2,5.8-8.7,8.1a27.8,27.8,0,0,1-6.4-6.4c2-2.4,4.8-5.5,7.9-8.8-3-3.1-5.8-6.1-8-8.7a29.9,29.9,0,0,1,6.4-6.4c2.4,2,5.5,4.8,8.8,8,3-2.9,6-5.7,8.7-8Z" transform="translate(-1471 -82.5)" fill="#be1622" fill-rule="evenodd" style="mix-blend-mode:multiply"/><path d="M1517.2,102.7a25.9,25.9,0,0,1,6.4,6.4c-2.1,2.5-5,5.5-8,8.7,2.9,3,5.7,6,8,8.7a25.9,25.9,0,0,1-6.4,6.4c-2.5-2.1-5.6-4.9-8.7-8-3.1,3-6.2,5.8-8.7,8a24.3,24.3,0,0,1-6.4-6.4c2-2.3,4.8-5.4,7.9-8.7-3-3.1-5.8-6.1-8-8.7a29.9,29.9,0,0,1,6.4-6.4c2.4,2,5.5,4.8,8.8,8,3-2.9,6-5.7,8.7-8Z" transform="translate(-1471 -82.5)" fill-rule="evenodd" fill="url(#baeec84a-33cb-452e-84c9-7b6e5244ac08)"/></g></g></svg>