<svg id="e9ef34f7-1cf3-413c-9b71-b6560598d6ed" data-name="框" xmlns="http://www.w3.org/2000/svg" viewBox="0 0 1120.4 615.1"><title>04_人物簡介前導頁_綠色居家</title><rect x="652.5" y="-150.2" width="615.1" height="1120.36" rx="35.5" transform="translate(150.2 1267.5) rotate(-90)" fill="#fff"/><rect x="661.8" y="-140.3" width="596.4" height="1100.51" rx="34.1" transform="translate(150.2 1267.5) rotate(-90)" fill="#ffee6b"/><path d="M1510.3,145.9V674.1a34.3,34.3,0,0,1-34.1,34.1H518.6c73.4-20.5,469.7-10.1,720.7-172.6,221.3-143.3,257.3-358.4,264.1-410.1A33.9,33.9,0,0,1,1510.3,145.9Z" transform="translate(-399.8 -102.5)" fill="#e6cf20"/><path d="M442.3,173.2V647.7c0,15.4,13.1,28,29.1,28h980.9c16,0,29.1-12.6,29.1-28V173.2c0-15.4-13.1-28-29.1-28H471.4C455.4,145.2,442.3,157.8,442.3,173.2Z" transform="translate(-399.8 -102.5)" fill="#59510b"/><path d="M447.3,172.8V648.1c0,15.1,13,27.6,28.8,27.6h972.4c15.9,0,28.8-12.5,28.8-27.6V172.8c0-15.2-12.9-27.6-28.8-27.6H476.1C460.3,145.2,447.3,157.6,447.3,172.8Z" transform="translate(-399.8 -102.5)" fill="#948936"/><path d="M1450,690.9l-6.6-.3a3.1,3.1,0,0,1-2.9-3.4,3.2,3.2,0,0,1,3.4-3c14.5,1.3,25.5-1.7,32.9-8.8,10.6-10.2,9.9-25.8,9.9-25.9a3.2,3.2,0,1,1,6.4-.3c0,.7.8,18.6-11.9,30.8C1473.7,687.2,1463.2,690.9,1450,690.9Z" transform="translate(-399.8 -102.5)" fill="#fff"/><path d="M1424.8,683.9a3.7,3.7,0,1,0,3.7,3.7A3.8,3.8,0,0,0,1424.8,683.9Z" transform="translate(-399.8 -102.5)" fill="#fff"/><path d="M429.7,174a3.2,3.2,0,0,1-3.2-3.1c0-.7-.7-18.5,11.9-30.8,8.7-8.4,21.4-12,37.8-10.6a3.1,3.1,0,0,1,2.9,3.4,3.2,3.2,0,0,1-3.4,3c-14.5-1.2-25.5,1.7-32.9,8.8-10.5,10.3-9.9,25.8-9.9,25.9a3.2,3.2,0,0,1-3,3.4Z" transform="translate(-399.8 -102.5)" fill="#fff"/><path d="M494.8,136.2a3.7,3.7,0,1,0-3.6-3.7A3.7,3.7,0,0,0,494.8,136.2Z" transform="translate(-399.8 -102.5)" fill="#fff"/><path d="M427,524.4a3.7,3.7,0,1,0,3.6,3.7A3.7,3.7,0,0,0,427,524.4Z" transform="translate(-399.8 -102.5)" fill="#fff"/><path d="M1416.5,127.8a3.7,3.7,0,1,0,3.7,3.7A3.6,3.6,0,0,0,1416.5,127.8Z" transform="translate(-399.8 -102.5)" fill="#fff"/><path d="M1401.5,134.6h-77.4a3.2,3.2,0,1,1,0-6.3h77.4a3.2,3.2,0,1,1,0,6.3Z" transform="translate(-399.8 -102.5)" fill="#fff"/><path d="M427,626.6a3.2,3.2,0,0,1-3.2-3.2V542.8a3.1,3.1,0,0,1,3.2-3.1,3.2,3.2,0,0,1,3.2,3.1v80.6A3.2,3.2,0,0,1,427,626.6Z" transform="translate(-399.8 -102.5)" fill="#fff"/></svg>