<?xml version="1.0" encoding="utf-8"?>
<!-- Generator: Adobe Illustrator 19.2.1, SVG Export Plug-In . SVG Version: 6.00 Build 0)  -->
<svg version="1.0" id="圖層_1" xmlns="http://www.w3.org/2000/svg" xmlns:xlink="http://www.w3.org/1999/xlink" x="0px" y="0px"
	 viewBox="0 0 50 50" style="enable-background:new 0 0 50 50;" xml:space="preserve">
<style type="text/css">
	.st0{fill:#7ABC34;}
</style>
<g>
	<path class="st0" d="M28,36.6c0-0.6,0-1.1,0-1.7c0-3.1-0.4-6.2-1-8.9c0-0.1,0-0.1,0-0.2c-1.1-4.4-2.9-8.1-5.3-10.2v-3.7
		c0-1.5-1.2-2.7-2.7-2.7h-4.3c-1.5,0-2.7,1.2-2.7,2.7v3.6C8,19,5.5,26.6,5.5,34.9c0,0.9,0,1.9,0.1,2.8c0.1,1.9,1.7,3.4,3.6,3.4h15.2
		c1.9,0,3.5-1.5,3.6-3.4c0-0.2,0-0.4,0-0.6c0-0.1,0.1-0.2,0.1-0.3C28.1,36.8,28.1,36.7,28,36.6L28,36.6z M26.7,34.9
		c0,0.4,0,0.8,0,1.2h-6.9v-9.5h6.1C26.4,29.3,26.7,32.1,26.7,34.9L26.7,34.9z M13.3,11.9c0-0.8,0.6-1.4,1.4-1.4H19
		c0.8,0,1.4,0.6,1.4,1.4v3.3h-1.6v-3c0-0.4-0.3-0.7-0.7-0.7c-0.4,0-0.7,0.3-0.7,0.7v3H16v-3c0-0.4-0.3-0.7-0.7-0.7s-0.7,0.3-0.7,0.7
		v3h-1.4L13.3,11.9L13.3,11.9z M24.4,39.8H9.2c-1.2,0-2.2-1-2.3-2.2c-0.1-0.9-0.1-1.8-0.1-2.7c0-8,2.3-15.1,6-18.4h8
		c2.1,1.9,3.7,5,4.8,8.9h-6.4c-0.4,0-0.7,0.3-0.7,0.7v10.8c0,0.4,0.3,0.7,0.7,0.7h7.5v0.1C26.6,38.9,25.6,39.8,24.4,39.8L24.4,39.8z
		"/>
	<path class="st0" d="M13.6,18.8c-0.7,0-1.4,0.4-1.7,1.1l-3.1,6.8C8.3,27.8,8.4,29,9,29.9c0.6,1,1.7,1.5,2.8,1.5H12
		c1.9,0,3.5-1.6,3.5-3.5v-7.3C15.5,19.5,14.6,18.8,13.6,18.8L13.6,18.8z M14.2,28c0,1.2-1,2.2-2.2,2.2l0,0c-0.7,0-1.3-0.3-1.7-0.9
		s-0.4-1.3-0.2-2l3.1-6.8c0.1-0.3,0.3-0.3,0.5-0.3s0.6,0.1,0.6,0.6V28H14.2z"/>
</g>
<g>
	<g>
		<path class="st0" d="M43.2,18.5c0,0-1.8,1.8-3.8,2.5c-14.7,5.3-8.5,15.7-8.3,15.7c0,0,0.8-1.4,1.9-2.3c7.1-5.2,8.5-11.2,8.5-11.2
			s-1.6,7.2-7.9,11.7c-1.4,1-2.3,3.4-2.7,5.9c0,0,1-0.4,1.4-0.5c0.2-1.1,0.5-2.1,1.1-3c8.8,1,11.7-6,12.1-8.5
			C46.3,22.9,43.2,18.5,43.2,18.5L43.2,18.5z"/>
	</g>
</g>
</svg>
