<?xml version="1.0" encoding="utf-8"?>
<!-- Generator: Adobe Illustrator 19.2.1, SVG Export Plug-In . SVG Version: 6.00 Build 0)  -->
<svg version="1.0" id="圖層_1" xmlns="http://www.w3.org/2000/svg" xmlns:xlink="http://www.w3.org/1999/xlink" x="0px" y="0px"
	 viewBox="0 0 50 50" style="enable-background:new 0 0 50 50;" xml:space="preserve">
<style type="text/css">
	.st0{fill:#7ABC34;}
</style>
<g>
	<g>
		<path class="st0" d="M40.8,31.6l5-10.6c0.7-1.7,0.4-4-2-4.2l-3.2-6.5c-0.3-0.6-1.1-0.9-1.7-0.7L34,11.5c-0.1,0-0.2,0.1-0.2,0.2
			l-2.4-2.8c-0.3-0.3-0.6-0.5-1.1-0.5c-0.4,0-0.8,0.2-1.1,0.5l-6.7,7.9l0,0c-0.7-2.4-1.3-4.3-1.4-4.7c-0.5-1.8-1.5-3.7-4.6-3.7h-4.8
			c-0.8,0-1.4,0.6-1.4,1.4c0,0.8,0.6,1.4,1.4,1.4h4.8c1.1,0,1.5,0.2,1.9,1.7c0.5,1.6,6.5,22,6.5,22V35c0.1,0.1,1.6,3.8,5.4,3.8h10.8
			c0.8,0,1.4-0.6,1.4-1.4c0-0.8-0.6-1.4-1.4-1.4H30.4c-1.8,0-2.7-1.7-2.8-2c0-0.1-0.1-0.4-0.2-0.7h11.2C40,33.2,40.6,32,40.8,31.6
			L40.8,31.6z M43.2,19.5c0,0.1,0,0.2-0.1,0.3l-1,2.2h-5.3v-2.5H43.2z M35,21.9h-3.7v-2.5H35V21.9L35,21.9z M29.5,21.9h-5.1
			l-0.7-2.1c0-0.2-0.1-0.3-0.1-0.4h5.8v2.5H29.5z M25,23.7h4.5V26h-3.8L25,23.7z M31.3,23.7H35V26h-3.7V23.7z M36.8,23.7h4.4
			L40.1,26h-3.4L36.8,23.7L36.8,23.7z M38.6,12.6l2,4H38l-2.4-2.8L38.6,12.6z M30.3,11.9l4.1,4.8h-8.2L30.3,11.9z M27.2,30.4
			c-0.1,0-0.1,0-0.1,0L26.3,28h3.2v2.5h-2.3V30.4z M31.3,27.9H35v2.5h-3.7V27.9z M36.8,30.4v-2.5h2.5l-1.2,2.5H36.8z M32.2,41.5
			c0,1.4-1.1,2.5-2.5,2.5s-2.5-1.1-2.5-2.5s1.1-2.5,2.5-2.5S32.2,40.1,32.2,41.5L32.2,41.5z M40.5,41.5c0,1.4-1.1,2.5-2.5,2.5
			s-2.5-1.1-2.5-2.5S36.6,39,38,39S40.5,40.1,40.5,41.5L40.5,41.5z"/>
	</g>
</g>
<path class="st0" d="M19.3,27.8H12c-0.8,0-1.4-0.6-1.4-1.4l0,0c0-0.8,0.6-1.4,1.4-1.4h7.3c0.8,0,1.4,0.6,1.4,1.4l0,0
	C20.8,27.1,20.1,27.8,19.3,27.8z"/>
<path class="st0" d="M19.3,33h-9.2c-0.8,0-1.4-0.6-1.4-1.4l0,0c0-0.8,0.6-1.4,1.4-1.4h9.2c0.8,0,1.4,0.6,1.4,1.4l0,0
	C20.8,32.4,20.1,33,19.3,33z"/>
<path class="st0" d="M19.3,38.1H5.9c-0.8,0-1.4-0.6-1.4-1.4l0,0c0-0.8,0.6-1.4,1.4-1.4h13.4c0.8,0,1.4,0.6,1.4,1.4l0,0
	C20.8,37.5,20.1,38.1,19.3,38.1z"/>
</svg>
