<?xml version="1.0" encoding="utf-8"?>
<!-- Generator: Adobe Illustrator 19.2.1, SVG Export Plug-In . SVG Version: 6.00 Build 0)  -->
<svg version="1.0" id="圖層_1" xmlns="http://www.w3.org/2000/svg" xmlns:xlink="http://www.w3.org/1999/xlink" x="0px" y="0px"
	 viewBox="0 0 50 50" style="enable-background:new 0 0 50 50;" xml:space="preserve">
<style type="text/css">
	.st0{fill:#7ABC34;}
</style>
<g>
	<g>
		<path class="st0" d="M41.4,26c-0.4-0.6-1-1.1-1.7-1.2c-0.2-0.1-0.4-0.1-0.7-0.1c-1.2,0-2.3,0.8-2.6,2c-1.3,4.9-5.7,8.4-10.8,8.4
			c-3.1,0-6.1-1.3-8.3-3.7l1.4-0.7c0.5-0.3,0.6-0.6,0.6-0.8c0-0.2-0.1-0.5-0.6-0.7l-5.6-2c-0.6-0.2-1.4,0.1-1.6,0.8l-2,5.6
			c-0.2,0.4-0.1,0.7,0.1,0.9c0.2,0.3,0.7,0.4,1.1,0.2l1.8-0.8c3.1,4.2,8.1,6.7,13.3,6.7c7.6,0,14.2-5.1,16.1-12.5
			C41.9,27.4,41.7,26.7,41.4,26L41.4,26z M40.6,27.8c-1.7,6.9-7.9,11.7-15,11.7c-5,0-9.8-2.5-12.7-6.6l-0.3-0.4l-2.1,1l1.8-5.1
			c0-0.1,0.1-0.1,0.2-0.1l5.1,1.8l-2.1,1l0.4,0.5c2.3,2.9,5.8,4.6,9.6,4.6c5.6,0,10.5-3.8,11.9-9.2c0.2-0.7,0.8-1.2,1.6-1.2
			c0.1,0,0.3,0,0.4,0c0.4,0.1,0.8,0.4,1,0.7C40.7,27,40.7,27.4,40.6,27.8L40.6,27.8z"/>
		<path class="st0" d="M11.5,22.8c0.2,0.1,0.5,0.1,0.7,0.1c1.2,0,2.3-0.8,2.6-2c1.4-4.8,5.8-8.1,10.7-8.1c3,0,5.8,1.2,7.9,3.3
			L32,16.8c-0.5,0.3-0.6,0.7-0.5,0.8c0,0.2,0.1,0.5,0.7,0.7l5.7,1.8c0.1,0,0.2,0.1,0.4,0.1c0.6,0,1.1-0.4,1.2-0.9l1.8-5.7
			c0.1-0.4,0-0.7-0.1-0.8c-0.2-0.3-0.7-0.4-1.1-0.2l-1.7,0.9c-3.1-3.8-7.9-6.1-12.9-6.1c-7.4,0-13.9,5-15.9,12
			C9.3,20.9,10.1,22.4,11.5,22.8L11.5,22.8z M10.7,19.8c1.9-6.6,8-11.3,14.9-11.3c4.8,0,9.4,2.3,12.3,6.1l0.3,0.4l2-1.1L38.6,19
			c0,0.1-0.1,0.1-0.2,0.1l-5.2-1.6l2.1-1.1l-0.5-0.5c-2.3-2.7-5.7-4.2-9.2-4.2c-5.5,0-10.3,3.7-11.8,8.9c-0.2,0.7-0.9,1.2-1.6,1.2
			c-0.1,0-0.3,0-0.4-0.1c-0.4-0.1-0.8-0.4-1-0.8C10.6,20.6,10.6,20.2,10.7,19.8L10.7,19.8z"/>
	</g>
</g>
<g>
	<g>
		<path class="st0" d="M29.7,18.7c0-0.1-0.1-0.3-0.2-0.3l-3.3-1.7c-0.1-0.1-0.3-0.1-0.4,0l-3.3,1.6c-0.1,0.1-0.2,0.2-0.2,0.4v2.7
			l-4.5,2.2c-0.1,0.1-0.2,0.2-0.2,0.4c0,0.2,0.1,0.3,0.2,0.4l2.9,1.7v3c0,0.2,0.1,0.3,0.2,0.4l5,2.5c0.1,0,0.1,0,0.2,0s0.1,0,0.2,0
			l5-2.5c0.1-0.1,0.2-0.2,0.2-0.4v-3l2.9-1.7c0.1-0.1,0.2-0.2,0.2-0.4c0-0.2-0.1-0.3-0.2-0.4l-4.5-2.2v-2.7H29.7z M30.1,22.6
			l-0.4,0.2v-0.4L30.1,22.6z M26,17.6l2.4,1.2L26,20l-2.4-1.2L26,17.6z M22.3,22.4v0.4l-0.4-0.2L22.3,22.4z M18.8,24.1l2.2-1
			l4.2,2.1L23,26.6L18.8,24.1z M25.6,31l-4.2-2.1v-2.3l1.3,0.8c0.1,0,0.1,0.1,0.2,0.1s0.2,0,0.2-0.1l2.4-1.6L25.6,31L25.6,31z
			 M26,24.7l-2.8-1.4v-3.8l2.7,1.3c0.1,0,0.1,0,0.2,0s0.1,0,0.2,0l2.7-1.3v3.8L26,24.7z M30.6,28.9L26.4,31v-5.1l2.4,1.6
			c0.1,0,0.1,0.1,0.2,0.1s0.1,0,0.2-0.1l1.3-0.8v2.2H30.6z M29,26.6l-2.2-1.4l4.2-2.1l2.2,1L29,26.6z"/>
	</g>
</g>
</svg>
