<?xml version="1.0" encoding="utf-8"?>
<!-- Generator: Adobe Illustrator 19.2.1, SVG Export Plug-In . SVG Version: 6.00 Build 0)  -->
<svg version="1.0" id="圖層_1" xmlns="http://www.w3.org/2000/svg" xmlns:xlink="http://www.w3.org/1999/xlink" x="0px" y="0px"
	 viewBox="0 0 50 50" style="enable-background:new 0 0 50 50;" xml:space="preserve">
<style type="text/css">
	.st0{fill:#7ABC34;}
</style>
<path class="st0" d="M11.6,31.5H6.5v-7.1h11.2v0.5c0,0.4,0.3,0.7,0.7,0.7c0.4,0,0.7-0.3,0.7-0.7v-5c0-0.4-0.3-0.7-0.7-0.7H5.8
	c-0.4,0-0.7,0.3-0.7,0.7v12.3c0,0.4,0.3,0.7,0.7,0.7h5.8c0.4,0,0.7-0.3,0.7-0.7S12,31.5,11.6,31.5L11.6,31.5z M17.7,20.5v2.4H6.5
	v-2.4H17.7z"/>
<path class="st0" d="M44.8,18.3h-18c-0.4,0-0.7,0.3-0.7,0.7v9.3c0,0.4,0.3,0.7,0.7,0.7h18c0.4,0,0.7-0.3,0.7-0.7V19
	C45.5,18.7,45.2,18.3,44.8,18.3L44.8,18.3z M44.1,21.9h-7.6v-2.2h7.6V21.9z M35.1,19.7v2.2h-7.6v-2.2H35.1z M27.5,23.3h7.6v4.3h-7.6
	C27.5,27.6,27.5,23.3,27.5,23.3z M36.5,27.7v-4.3h7.6v4.3H36.5z"/>
<path class="st0" d="M24.1,26.6h-10c-0.4,0-0.7,0.3-0.7,0.7v6.9c0,0.4,0.3,0.7,0.7,0.7h10c0.4,0,0.7-0.3,0.7-0.7v-6.9
	C24.8,26.9,24.5,26.6,24.1,26.6L24.1,26.6z M23.4,30.1h-3.6V28h3.6V30.1z M18.4,28v2.1h-3.6V28H18.4z M14.8,31.5h3.6v2.1h-3.6
	C14.8,33.6,14.8,31.5,14.8,31.5z M19.8,33.6v-2.1h3.6v2.1H19.8z"/>
</svg>
