<?xml version="1.0" encoding="utf-8"?>
<!-- Generator: Adobe Illustrator 19.2.1, SVG Export Plug-In . SVG Version: 6.00 Build 0)  -->
<svg version="1.0" id="圖層_1" xmlns="http://www.w3.org/2000/svg" xmlns:xlink="http://www.w3.org/1999/xlink" x="0px" y="0px"
	 viewBox="0 0 50 50" style="enable-background:new 0 0 50 50;" xml:space="preserve">
<style type="text/css">
	.st0{fill:#7ABC34;}
</style>
<g>
	<path class="st0" d="M36.3,24.1c0,0.2,0.1,0.4,0.1,0.6V34c0,1.3-1,2.3-2.3,2.3H15.5c-1.3,0-2.3-1-2.3-2.3v-9.3c0-0.2,0-0.4,0.1-0.6
		h8.1v1.3c0,0.6,0.5,1,1,1h0.9v1.2c0,0.4,0.3,0.7,0.7,0.7h1.7c0.4,0,0.7-0.3,0.7-0.7v-1.2h0.9c0.6,0,1-0.5,1-1v-1.3H36.3z
		 M38.1,18.4v2.3c0,1.2-1,2.2-2.2,2.2H13.7c-1.2,0-2.2-1-2.2-2.2v-2.3c0-1.2,1-2.2,2.2-2.2h3.8c0.8-2.5,3.8-4.3,7.3-4.3
		s6.4,1.8,7.3,4.3h3.8C37.1,16.2,38.1,17.2,38.1,18.4L38.1,18.4z M20,16.2h9.5c-0.8-1.2-2.7-2-4.7-2C22.7,14.2,20.9,15,20,16.2
		L20,16.2z"/>
</g>
</svg>
