<?xml version="1.0" encoding="utf-8"?>
<!-- Generator: Adobe Illustrator 19.2.1, SVG Export Plug-In . SVG Version: 6.00 Build 0)  -->
<svg version="1.0" id="圖層_1" xmlns="http://www.w3.org/2000/svg" xmlns:xlink="http://www.w3.org/1999/xlink" x="0px" y="0px"
	 viewBox="0 0 50 50" style="enable-background:new 0 0 50 50;" xml:space="preserve">
<style type="text/css">
	.st0{fill:#7ABC34;}
</style>
<g>
	<path class="st0" d="M30.7,8.6H16.5c-1.2,0-2.2,1-2.2,2.2v27.6c0,1.2,1,2.2,2.2,2.2h14.2c1.2,0,2.2-1,2.2-2.2V10.8
		C32.9,9.6,31.9,8.6,30.7,8.6L30.7,8.6z M21.3,10.2h4.5c0.1,0,0.3,0.1,0.3,0.3c0,0.1-0.1,0.3-0.3,0.3h-4.5c-0.1,0-0.3-0.1-0.3-0.3
		C21.1,10.3,21.2,10.2,21.3,10.2L21.3,10.2z M23.6,39.4c-0.6,0-1.1-0.5-1.1-1.1s0.5-1.1,1.1-1.1s1.1,0.5,1.1,1.1
		S24.2,39.4,23.6,39.4L23.6,39.4z M31.4,36.5H15.8V12h15.5v24.5H31.4z"/>
</g>
<g>
	<rect x="16.8" y="19.7" class="st0" width="1.5" height="11.1"/>
	<rect x="21" y="19.7" class="st0" width="0.8" height="11.1"/>
	<rect x="19.4" y="19.7" class="st0" width="0.5" height="11.1"/>
	<rect x="18.6" y="19.7" class="st0" width="0.3" height="11.1"/>
	<rect x="22.5" y="19.7" class="st0" width="0.3" height="11.1"/>
	<rect x="22.2" y="19.6" class="st0" width="0.1" height="11.1"/>
	<rect x="20.4" y="19.6" class="st0" width="0.1" height="11.1"/>
	<rect x="26.8" y="19.6" class="st0" width="1.1" height="11.1"/>
	<rect x="24" y="19.6" class="st0" width="0.6" height="11.1"/>
	<rect x="25.4" y="19.6" class="st0" width="0.4" height="11.1"/>
	<rect x="26.1" y="19.6" class="st0" width="0.3" height="11.1"/>
	<rect x="23.1" y="19.6" class="st0" width="0.3" height="11.1"/>
	<rect x="23.6" y="19.7" class="st0" width="0.1" height="11.1"/>
	<rect x="24.9" y="19.7" class="st0" width="0.1" height="11.1"/>
	<rect x="28.6" y="19.6" class="st0" width="0.6" height="11.1"/>
	<rect x="30.1" y="19.6" class="st0" width="0.4" height="11.1"/>
	<rect x="28.2" y="19.7" class="st0" width="0.1" height="11.1"/>
	<rect x="29.6" y="19.7" class="st0" width="0.1" height="11.1"/>
</g>
</svg>
