<svg xmlns="http://www.w3.org/2000/svg" viewBox="0 0 209 216.7"><title>資產 13</title><g id="f831b059-ae35-4e3d-b175-a7e69c3def8f" data-name="圖層 2"><g id="a7eda69c-182e-4067-995b-277f5892a471" data-name="圖層 4"><rect y="88.3" width="209" height="128.38" rx="21.4" fill="#a00021"/><rect y="80" width="209" height="128.38" rx="21.4" fill="#fe0035"/><rect width="209" height="128.38" rx="21.4" fill="#fe0035"/><path d="M103.9,162.6c-16.7,0-30.2-5.2-40.4-15.8S48,122.5,48,105.5,53.2,73,63.6,62.1,88.1,45.8,106,45.8c16.3,0,29.6,5.2,39.7,15.7S161,85.8,161,102.9s-5.2,32.5-15.6,43.4S121.2,162.6,103.9,162.6ZM105.1,61c-11.5,0-20.9,4-28,12S66.3,91.4,66.3,104.3s3.5,23.5,10.5,31.3,16.1,11.7,27.3,11.7,20.8-3.8,27.9-11.5,10.7-18.1,10.7-31.2-3.4-24.4-10.1-32S116.7,61,105.1,61Z" fill="#fff"/></g></g></svg>