<svg xmlns="http://www.w3.org/2000/svg" viewBox="0 0 1753.2 850"><title>資產 22</title><g id="b771e02d-13a9-451c-9164-3e8d7b654efb" data-name="圖層 2"><g id="e0951066-b1d9-4148-9543-22381512dd2c" data-name="圖層 4"><rect x="451.7" y="-451.7" width="849.7" height="1753" rx="34.1" transform="translate(451.7 1301.3) rotate(-90)" fill="#f7c45b"/><path d="M1753.2,42.6l-.4,758.5c0,26.9-18,48.9-40.1,48.9l-1125.2-.7c86.2-29.3,551.9-14.1,847-247.2,260.2-205.7,302.6-514.6,310.6-588.7A55.3,55.3,0,0,1,1753.2,42.6Z" fill="#f7b52c"/><path d="M1697.1,832.4l-6.6-.3a3.1,3.1,0,0,1-2.9-3.5,3.1,3.1,0,0,1,3.4-2.9c14.5,1.2,25.5-1.8,32.8-9,10.6-10.4,10-26.1,10-26.3a3.2,3.2,0,0,1,3-3.4,3.3,3.3,0,0,1,3.4,3.1c0,.8.7,18.8-11.9,31.2C1720.8,828.7,1710.3,832.4,1697.1,832.4Z" fill="#fff"/><path d="M1671.9,825.3a3.8,3.8,0,1,0,3.6,3.7A3.7,3.7,0,0,0,1671.9,825.3Z" fill="#fff"/><path d="M15.8,60.7a3.2,3.2,0,0,1-3.2-3.1c0-.7-.8-18.8,11.9-31.2,8.7-8.5,21.4-12.2,37.8-10.8a3.3,3.3,0,0,1,2.9,3.5,3.2,3.2,0,0,1-3.4,3C47.3,20.9,36.2,23.9,28.9,31,18.3,41.4,19,57.1,19,57.3a3.2,3.2,0,0,1-3,3.4Z" fill="#fff"/><path d="M80.9,22.4a3.7,3.7,0,1,0-3.7-3.7A3.7,3.7,0,0,0,80.9,22.4Z" fill="#fff"/><path d="M17.3,649.6a3.8,3.8,0,0,0,0,7.5,3.8,3.8,0,0,0,0-7.5Z" fill="#fff"/><path d="M1485.6,14.9a3.8,3.8,0,0,0-3.7,3.7,3.7,3.7,0,0,0,7.4,0A3.8,3.8,0,0,0,1485.6,14.9Z" fill="#fff"/><path d="M1470.6,21.9h-77.5a3.3,3.3,0,0,1-3.2-3.3,3.2,3.2,0,0,1,3.2-3.2h77.5a3.2,3.2,0,0,1,3.2,3.2A3.2,3.2,0,0,1,1470.6,21.9Z" fill="#fff"/><path d="M16.8,753.1a3.2,3.2,0,0,1-3.2-3.2V668.3a3.2,3.2,0,0,1,6.4,0v81.6A3.2,3.2,0,0,1,16.8,753.1Z" fill="#fff"/><path d="M683.9,305.7V787.1c0,15.4,13,28,29,28h981.2c16,0,29.1-12.6,29.1-28V305.7c0-15.4-13.1-28-29.1-28H712.9C696.9,277.7,683.9,290.3,683.9,305.7Z" fill="#a37b53"/><path d="M30,305.7V787.1c0,15.4,13.1,28,29,28h981.3c15.9,0,29-12.6,29-28V305.7c0-15.4-13.1-28-29-28H59C43.1,277.7,30,290.3,30,305.7Z" fill="#a37b53"/><path d="M683.9,64.7V546.1c0,15.4,13,28,29,28h981.2c16,0,29.1-12.6,29.1-28V64.7c0-15.4-13.1-28-29.1-28H712.9C696.9,36.7,683.9,49.3,683.9,64.7Z" fill="#a37b53"/><path d="M30,64.7V546.1c0,15.4,13.1,28,29,28h981.3c15.9,0,29-12.6,29-28V64.7c0-15.4-13.1-28-29-28H59C43.1,36.7,30,49.3,30,64.7Z" fill="#a37b53"/></g></g></svg>