<svg xmlns="http://www.w3.org/2000/svg" viewBox="0 0 209 216.7"><title>資產 12</title><g id="bae89f82-b0d8-499e-b799-e737b0a3987e" data-name="圖層 2"><g id="b7c16081-dbb7-42c4-b75e-7d9818e363bc" data-name="圖層 4"><rect y="88.3" width="209" height="128.38" rx="21.4" fill="#055e89"/><rect y="80" width="209" height="128.38" rx="21.4" fill="#009fe3"/><rect width="209" height="128.38" rx="21.4" fill="#009fe3"/><path d="M135,156.2l-26.4-37.4a31.1,31.1,0,0,1-3.4-6.5h-.3a27.5,27.5,0,0,1-4,7c-2.1,2.6-11,14.9-26.9,36.8H51.7l41.7-52.2L55.2,52.1H78Q102.5,88.7,104.1,92l.9,2,1,1.5c3.1-6.7,10.4-17.5,21.9-32.5,2.7-3.7,5.4-7.3,7.8-10.7h21.1l-39.3,51.5,39.7,52.5Z" fill="#fff"/></g></g></svg>