<svg xmlns="http://www.w3.org/2000/svg" viewBox="0 0 1773 869.7"><title>資產 21</title><g id="f9a52a50-83ae-47db-bf18-f933e962a373" data-name="圖層 2"><g id="f5ebc31b-bf47-44d9-a5a4-330e0318a59f" data-name="圖層 4"><rect x="5" y="5" width="1763" height="859.68" rx="39.1" fill="#68c2bd"/><path d="M1728.9,10A34.1,34.1,0,0,1,1763,44.1V825.6a34.2,34.2,0,0,1-34.1,34.1H44.1A34.2,34.2,0,0,1,10,825.6V44.1A34.1,34.1,0,0,1,44.1,10H1728.9m0-10H44.1A44.2,44.2,0,0,0,0,44.1V825.6a44.2,44.2,0,0,0,44.1,44.1H1728.9a44.2,44.2,0,0,0,44.1-44.1V44.1A44.2,44.2,0,0,0,1728.9,0Z" fill="#fff"/><path d="M1763.2,52.6l-.4,758.5c0,26.9-18,48.9-40.1,48.9l-1125.2-.7c86.2-29.3,551.9-14.1,847-247.2,260.2-205.7,302.6-514.6,310.6-588.7A55.3,55.3,0,0,1,1763.2,52.6Z" fill="#5eb0ab"/><path d="M1707.1,842.4l-6.6-.3a3.1,3.1,0,0,1-2.9-3.5,3.1,3.1,0,0,1,3.4-2.9c14.5,1.2,25.5-1.8,32.8-9,10.6-10.4,10-26.1,10-26.3a3.2,3.2,0,0,1,3-3.4,3.3,3.3,0,0,1,3.4,3.1c0,.8.7,18.8-11.9,31.2C1730.8,838.7,1720.3,842.4,1707.1,842.4Z" fill="#fff"/><path d="M1681.9,835.3a3.8,3.8,0,1,0,3.6,3.7A3.7,3.7,0,0,0,1681.9,835.3Z" fill="#fff"/><path d="M25.8,70.7a3.2,3.2,0,0,1-3.2-3.1c0-.7-.8-18.8,11.9-31.2,8.7-8.5,21.4-12.2,37.8-10.8a3.3,3.3,0,0,1,2.9,3.5,3.2,3.2,0,0,1-3.4,3C57.3,30.9,46.2,33.9,38.9,41,28.3,51.4,29,67.1,29,67.3a3.2,3.2,0,0,1-3,3.4Z" fill="#fff"/><path d="M90.9,32.4a3.7,3.7,0,1,0-3.7-3.7A3.7,3.7,0,0,0,90.9,32.4Z" fill="#fff"/><path d="M27.3,659.6a3.8,3.8,0,0,0,0,7.5,3.8,3.8,0,0,0,0-7.5Z" fill="#fff"/><path d="M1495.6,24.9a3.8,3.8,0,0,0-3.7,3.7,3.7,3.7,0,0,0,7.4,0A3.8,3.8,0,0,0,1495.6,24.9Z" fill="#fff"/><path d="M1480.6,31.9h-77.5a3.3,3.3,0,0,1-3.2-3.3,3.2,3.2,0,0,1,3.2-3.2h77.5a3.2,3.2,0,0,1,3.2,3.2A3.2,3.2,0,0,1,1480.6,31.9Z" fill="#fff"/><path d="M26.8,763.1a3.2,3.2,0,0,1-3.2-3.2V678.3a3.2,3.2,0,0,1,6.4,0v81.6A3.2,3.2,0,0,1,26.8,763.1Z" fill="#fff"/><path d="M693.9,315.7V797.1c0,15.4,13,28,29,28h981.2c16,0,29.1-12.6,29.1-28V315.7c0-15.4-13.1-28-29.1-28H722.9C706.9,287.7,693.9,300.3,693.9,315.7Z" fill="#2c856c"/><path d="M40,315.7V797.1c0,15.4,13.1,28,29,28h981.3c15.9,0,29-12.6,29-28V315.7c0-15.4-13.1-28-29-28H69C53.1,287.7,40,300.3,40,315.7Z" fill="#2c856c"/><path d="M693.9,74.7V556.1c0,15.4,13,28,29,28h981.2c16,0,29.1-12.6,29.1-28V74.7c0-15.4-13.1-28-29.1-28H722.9C706.9,46.7,693.9,59.3,693.9,74.7Z" fill="#2c856c"/><path d="M40,74.7V556.1c0,15.4,13.1,28,29,28h981.3c15.9,0,29-12.6,29-28V74.7c0-15.4-13.1-28-29-28H69C53.1,46.7,40,59.3,40,74.7Z" fill="#2c856c"/></g></g></svg>