<?xml version="1.0" encoding="utf-8"?>
<!-- Generator: Adobe Illustrator 19.2.1, SVG Export Plug-In . SVG Version: 6.00 Build 0)  -->
<svg version="1.0" id="圖層_1" xmlns="http://www.w3.org/2000/svg" xmlns:xlink="http://www.w3.org/1999/xlink" x="0px" y="0px"
	 viewBox="0 0 50 50" style="enable-background:new 0 0 50 50;" xml:space="preserve">
<style type="text/css">
	.st0{fill:#7ABC34;}
</style>
<g>
	<path class="st0" d="M9.7,18.1h1.1v6.4H9.7c-0.6,0-1.1-0.5-1.1-1.1v-4.3C8.6,18.6,9.1,18.1,9.7,18.1L9.7,18.1z M41.9,18.1h-1.1v6.4
		h1.1c0.6,0,1.1-0.5,1.1-1.1v-4.3C43,18.6,42.5,18.1,41.9,18.1L41.9,18.1z M38.7,15.9v19.4c0,1.2-1,2.2-2.2,2.2v2.1
		c0,1.2-1,2.1-2.1,2.1h-2.2c-1.2,0-2.1-1-2.1-2.1v-2.1h-8.6v2.1c0,1.2-1,2.1-2.1,2.1h-2.1c-1.2,0-2.2-1-2.2-2.1v-2.1
		c-1.2,0-2.1-1-2.1-2.2V15.9c0-3.6,2.9-6.4,6.4-6.4h12.9C35.8,9.5,38.7,12.4,38.7,15.9L38.7,15.9z M21.5,13.8h8.6v-2.1h-8.6V13.8z
		 M19.3,33.2c0-1.2-1-2.2-2.1-2.2C16,31,15,32,15,33.2s1,2.1,2.2,2.1C18.4,35.3,19.3,34.3,19.3,33.2L19.3,33.2z M36.5,33.2
		c0-1.2-1-2.2-2.1-2.2c-1.2,0-2.2,1-2.2,2.2s1,2.1,2.2,2.1C35.6,35.3,36.5,34.3,36.5,33.2L36.5,33.2z M36.5,15.9H15v12.9h21.5V15.9z
		"/>
</g>
</svg>
