<?xml version="1.0" encoding="utf-8"?>
<!-- Generator: Adobe Illustrator 19.2.1, SVG Export Plug-In . SVG Version: 6.00 Build 0)  -->
<svg version="1.0" id="圖層_1" xmlns="http://www.w3.org/2000/svg" xmlns:xlink="http://www.w3.org/1999/xlink" x="0px" y="0px"
	 viewBox="0 0 50 50" style="enable-background:new 0 0 50 50;" xml:space="preserve">
<style type="text/css">
	.st0{fill:#7ABC34;}
</style>
<g>
	<g>
		<path class="st0" d="M13.6,21.6h-0.1c-0.3,0-0.6,0.1-0.8,0.4c-0.2,0.2-0.3,0.5-0.2,0.8l3.6,14.9c0.1,0.4,0.5,0.8,1,0.8h11.1
			c0.5,0,0.8-0.3,1-0.8l3.7-14.9c0.1-0.3,0-0.6-0.2-0.9c-0.1-0.1-0.2-0.2-0.4-0.3c-0.1-0.9-0.6-1.6-1.2-2.2c0-0.1,0-0.1,0-0.2
			c0-1.9-1.6-3.5-3.5-3.5c-1.4,0-2.6,0.8-3.1,2c-0.6-0.3-1.2-0.5-1.9-0.5c-1.5,0-2.8,0.8-3.6,2c-0.1-0.1-0.1-0.2-0.2-0.2
			c-0.6-0.6-1.4-0.8-2.2-0.8C14.9,18.3,13.5,19.8,13.6,21.6L13.6,21.6z M26.1,19.3c0-0.8,0.7-1.5,1.5-1.5c0.6,0,1.2,0.4,1.4,0.9
			c-0.1,0-0.1,0-0.2,0c-1,0-1.9,0.4-2.5,1.1C26.3,19.5,26.2,19.4,26.1,19.3L26.1,19.3z M24.8,21.6h-4.4v-0.1c0-1.2,1-2.2,2.2-2.2
			s2.2,1,2.2,2.2C24.8,21.5,24.8,21.6,24.8,21.6z M17.8,21.6h-2.2c0-0.1,0-0.1,0-0.2c0-0.6,0.4-1.1,1.1-1.2c0.3,0,0.6,0.1,0.8,0.3
			c0.2,0.2,0.3,0.5,0.4,0.8L17.8,21.6L17.8,21.6z M27.5,36.4h-9.6l-1.5-6.2c0.8,0.8,1.7,1.4,2.7,1.8v0.5c0,0.5,0.4,1,0.9,1h5.4
			c0.5,0,1-0.4,1-1V32c0.9-0.4,1.8-1,2.5-1.7L27.5,36.4z M15.6,23.6h14.2c0,2.6-1.4,5-3.4,6.2c0-0.5-0.5-0.9-1-0.9H20
			c-0.5,0-0.9,0.4-0.9,0.9l0,0C17,28.6,15.6,26.1,15.6,23.6L15.6,23.6z M27.5,21.6c0.2-0.5,0.8-0.9,1.4-0.9s1.2,0.4,1.4,0.9H27.5z"
			/>
	</g>
</g>
<polygon class="st0" points="37.5,11.6 33.9,18.3 39.8,18.3 36.8,24 43.4,17.3 37.1,16.3 "/>
</svg>
