<?xml version="1.0" encoding="utf-8"?>
<!-- Generator: Adobe Illustrator 19.2.1, SVG Export Plug-In . SVG Version: 6.00 Build 0)  -->
<svg version="1.0" id="圖層_1" xmlns="http://www.w3.org/2000/svg" xmlns:xlink="http://www.w3.org/1999/xlink" x="0px" y="0px"
	 viewBox="0 0 50 50" style="enable-background:new 0 0 50 50;" xml:space="preserve">
<style type="text/css">
	.st0{fill:#7ABC34;}
	.st1{fill:#FFFFFF;}
</style>
<g>
	<g>
		<path class="st0" d="M12.2,17.4c-0.1-0.2-0.5-0.2-0.6,0c-0.2,0.3-4.5,6.6-4.5,9.1c0,2.6,2.1,4.8,4.8,4.8c2.6,0,4.8-2.1,4.8-4.8
			C16.6,24,12.3,17.6,12.2,17.4L12.2,17.4z M11.8,30.5c-2.2,0-4-1.8-4-4c0-1.7,2.7-6.2,4-8.2c1.4,2.1,4,6.5,4,8.2
			C15.8,28.7,14,30.5,11.8,30.5L11.8,30.5z M12.2,29.4c0,0.2-0.2,0.4-0.4,0.4c-1.8,0-3.2-1.5-3.2-3.2c0-0.2,0.2-0.4,0.4-0.4
			s0.4,0.2,0.4,0.4c0,1.4,1.1,2.5,2.5,2.5C12,29,12.2,29.1,12.2,29.4L12.2,29.4z"/>
	</g>
</g>
<g>
	<g>
		<path class="st0" d="M20.9,7c-0.1-0.2-0.5-0.2-0.6,0c-0.2,0.3-4.5,6.6-4.5,9.1c0,2.6,2.1,4.8,4.8,4.8c2.6,0,4.8-2.1,4.8-4.8
			C25.4,13.6,21.1,7.3,20.9,7L20.9,7z M20.6,20.1c-2.2,0-4-1.8-4-4c0-1.7,2.7-6.2,4-8.2c1.4,2.1,4,6.5,4,8.2
			C24.6,18.3,22.8,20.1,20.6,20.1L20.6,20.1z M21,19c0,0.2-0.2,0.4-0.4,0.4c-1.8,0-3.2-1.5-3.2-3.2c0-0.2,0.2-0.4,0.4-0.4
			c0.2,0,0.4,0.2,0.4,0.4c0,1.4,1.1,2.5,2.5,2.5C20.8,18.6,21,18.8,21,19L21,19z"/>
	</g>
</g>
<rect x="44" y="25.5" class="st1" width="2.1" height="0.5"/>
<rect x="44" y="25" class="st1" width="2.1" height="0.5"/>
<rect x="44" y="29.9" class="st1" width="2.1" height="0.5"/>
<rect x="44" y="29.4" class="st1" width="2.1" height="0.5"/>
<g>
	<g>
		<path class="st0" d="M42,21.3c0-1.1-0.6-2.1-1.5-2.6c0.3-1,0-2.1-0.8-2.9c-0.8-0.8-1.9-1-2.9-0.8c-0.5-0.9-1.5-1.5-2.6-1.5
			s-2.1,0.6-2.6,1.5c-1-0.3-2.1,0-2.9,0.8c-0.8,0.8-1,1.9-0.8,2.9c-0.9,0.5-1.5,1.5-1.5,2.6s0.6,2.1,1.5,2.6c-0.3,1,0,2.1,0.8,2.9
			c0.5,0.5,1.2,0.8,1.9,0.9c-0.3,1.4-0.6,3.4-0.8,6.1l-1.7-1.4c0.2-0.5,0.3-1.2,0.2-1.8c-0.1-0.9-0.6-1.8-1.2-2.4
			c-2.4-2.4-5.7-2-5.9-1.9c-0.4,0.1-0.7,0.4-0.8,0.8c0,0.1-0.5,3.4,1.9,5.9c0.6,0.6,1.5,1,2.4,1.2c0.2,0,0.4,0,0.6,0
			c0.5,0,1-0.1,1.4-0.3l2.7,2.3c-0.1,0.9-0.1,1.8-0.1,2.7H23c-0.5,0-0.9,0.4-0.9,0.9s0.4,0.9,0.9,0.9h14.4c0.5,0,0.9-0.4,0.9-0.9
			s-0.4-0.9-0.9-0.9h-6.3c0.2-4.8,0.7-8.1,1.1-10.3c0.5,0.4,1.2,0.7,1.9,0.7c1.1,0,2.1-0.6,2.6-1.5c1,0.3,2.1,0,2.9-0.8
			c0.8-0.8,1-1.9,0.8-2.9C41.4,23.3,42,22.4,42,21.3L42,21.3z M23.7,31.4c-1.2-1.2-1.4-2.7-1.5-3.6c0.9,0,2.4,0.3,3.6,1.5
			c0.5,0.5,0.8,1.6,0.6,2.2c-0.2,0.1-0.3,0.1-0.4,0.3c-0.1,0.1-0.1,0.2-0.2,0.3C25.3,32.2,24.3,32,23.7,31.4L23.7,31.4z M39.2,22.5
			c-0.3,0-0.6,0.2-0.7,0.5c-0.1,0.3-0.1,0.6,0.1,0.9c0.4,0.5,0.3,1.2-0.1,1.6c-0.4,0.4-1.1,0.5-1.6,0.1c-0.3-0.2-0.6-0.3-0.9-0.1
			c-0.3,0.1-0.5,0.4-0.5,0.7c-0.1,0.6-0.6,1.1-1.2,1.1s-1.1-0.5-1.2-1.1c0-0.3-0.2-0.6-0.5-0.7c-0.1,0-0.2-0.1-0.3-0.1
			c-0.2,0-0.4,0.1-0.6,0.2c-0.5,0.4-1.2,0.3-1.6-0.1s-0.5-1.1-0.1-1.6c0.2-0.3,0.3-0.6,0.1-0.9c-0.1-0.3-0.4-0.5-0.7-0.5
			c-0.6-0.1-1.1-0.6-1.1-1.2s0.5-1.1,1.1-1.2c0.3,0,0.6-0.2,0.7-0.5s0.1-0.6-0.1-0.9c-0.4-0.5-0.3-1.2,0.1-1.6s1.1-0.5,1.6-0.1
			c0.3,0.2,0.6,0.3,0.9,0.1c0.3-0.1,0.5-0.4,0.5-0.7c0.1-0.6,0.6-1.1,1.2-1.1s1.1,0.5,1.2,1.1c0,0.3,0.2,0.6,0.5,0.7
			s0.6,0.1,0.9-0.1c0.5-0.4,1.2-0.3,1.6,0.1c0.4,0.4,0.5,1.1,0.1,1.6c-0.2,0.3-0.3,0.6-0.1,0.9c0.1,0.3,0.4,0.5,0.7,0.5
			c0.6,0.1,1.1,0.6,1.1,1.2C40.2,21.9,39.8,22.4,39.2,22.5L39.2,22.5z"/>
	</g>
	<path class="st0" d="M34.2,18c-1.8,0-3.3,1.5-3.3,3.3s1.5,3.3,3.3,3.3s3.3-1.5,3.3-3.3C37.5,19.4,36.1,18,34.2,18L34.2,18z
		 M34.2,22.8c-0.8,0-1.5-0.7-1.5-1.5s0.7-1.5,1.5-1.5s1.5,0.7,1.5,1.5C35.7,22.1,35.1,22.8,34.2,22.8L34.2,22.8z"/>
</g>
</svg>
