<?xml version="1.0" encoding="utf-8"?>
<!-- Generator: Adobe Illustrator 19.2.1, SVG Export Plug-In . SVG Version: 6.00 Build 0)  -->
<svg version="1.0" id="圖層_1" xmlns="http://www.w3.org/2000/svg" xmlns:xlink="http://www.w3.org/1999/xlink" x="0px" y="0px"
	 viewBox="0 0 50 50" style="enable-background:new 0 0 50 50;" xml:space="preserve">
<style type="text/css">
	.st0{fill:#7ABC34;}
	.st1{fill:#FFFFFF;}
</style>
<g>
	<path class="st0" d="M20,38.4l-0.7-16.1h-0.8l-0.6,16.1H20z"/>
	<g>
		<path class="st0" d="M19.4,17.7c0.4,0,0.7-0.4,0.7-0.8l-0.7-7.7c0-0.4,0-0.8-0.4-0.8l0,0c-0.4,0-0.4,0.5-0.4,0.8l-0.7,7.7
			c0,0.4,0.3,0.8,0.7,0.8H19.4z"/>
		<path class="st0" d="M27.7,25.8c0.3,0.2,0.7,0.5,0.9,0.1l0.1-0.1c0.2-0.3-0.2-0.6-0.5-0.8L22,20.4c-0.3-0.2-0.8-0.2-1,0.2
			l-0.5,0.7c-0.2,0.3,0,0.8,0.3,1L27.7,25.8z"/>
		<path class="st0" d="M10.6,25.8l6.8-3.6c0.3-0.2,0.5-0.7,0.3-1l-0.5-0.7c-0.2-0.3-0.7-0.4-1-0.2L10.1,25c-0.3,0.2-0.7,0.5-0.5,0.8
			L9.7,26C9.9,26.3,10.3,26,10.6,25.8L10.6,25.8z"/>
	</g>
	<path class="st0" d="M20,19.9c0,0.6-0.5,1.1-1.1,1.1s-1.1-0.5-1.1-1.1s0.5-1.1,1.1-1.1S20,19.3,20,19.9L20,19.9z"/>
</g>
<rect x="44" y="25.5" class="st1" width="2.1" height="0.5"/>
<rect x="44" y="25" class="st1" width="2.1" height="0.5"/>
<rect x="44" y="29.9" class="st1" width="2.1" height="0.5"/>
<rect x="44" y="29.4" class="st1" width="2.1" height="0.5"/>
<g>
	<rect x="29.6" y="35" class="st0" width="3.4" height="2.4"/>
	<rect x="29.6" y="31.8" class="st0" width="3.4" height="2.5"/>
	<rect x="25.4" y="35" class="st0" width="3.4" height="2.4"/>
	<rect x="29.6" y="28.7" class="st0" width="3.4" height="2.4"/>
	<rect x="25.4" y="28.7" class="st0" width="3.4" height="2.4"/>
	<rect x="25.4" y="31.8" class="st0" width="3.4" height="2.5"/>
	<rect x="33.7" y="28.7" class="st0" width="3.6" height="2.4"/>
	<rect x="33.7" y="31.8" class="st0" width="3.6" height="2.5"/>
	<rect x="33.7" y="35" class="st0" width="3.6" height="2.4"/>
	<rect x="33.7" y="31.4" class="st1" width="3.6" height="0.4"/>
	<rect x="25.4" y="31.4" class="st1" width="3.4" height="0.4"/>
	<rect x="25.4" y="31.1" class="st1" width="3.4" height="0.4"/>
	<rect x="33.7" y="31.1" class="st1" width="3.6" height="0.4"/>
	<rect x="29.6" y="31.4" class="st1" width="3.4" height="0.4"/>
	<rect x="29.6" y="31.1" class="st1" width="3.4" height="0.4"/>
	<rect x="33.7" y="34.7" class="st1" width="3.6" height="0.4"/>
	<rect x="25.4" y="34.3" class="st1" width="3.4" height="0.4"/>
	<rect x="33.7" y="34.3" class="st1" width="3.6" height="0.4"/>
	<rect x="25.4" y="34.7" class="st1" width="3.4" height="0.4"/>
	<rect x="29.6" y="34.7" class="st1" width="3.4" height="0.4"/>
	<rect x="29.6" y="34.3" class="st1" width="3.4" height="0.4"/>
	<rect x="32.9" y="28.7" class="st1" width="0.4" height="2.4"/>
	<rect x="32.9" y="31.8" class="st1" width="0.4" height="2.5"/>
	<rect x="33.3" y="35" class="st1" width="0.4" height="2.4"/>
	<rect x="33.3" y="31.8" class="st1" width="0.4" height="2.5"/>
	<rect x="33.3" y="28.7" class="st1" width="0.4" height="2.4"/>
	<rect x="32.9" y="35" class="st1" width="0.4" height="2.4"/>
	<rect x="32.9" y="31.4" class="st1" width="0.4" height="0.4"/>
	<rect x="32.9" y="31.1" class="st1" width="0.4" height="0.4"/>
	<rect x="33.3" y="31.4" class="st1" width="0.4" height="0.4"/>
	<rect x="33.3" y="31.1" class="st1" width="0.4" height="0.4"/>
	<rect x="32.9" y="34.3" class="st1" width="0.4" height="0.4"/>
	<rect x="33.3" y="34.3" class="st1" width="0.4" height="0.4"/>
	<rect x="32.9" y="34.7" class="st1" width="0.4" height="0.4"/>
	<rect x="33.3" y="34.7" class="st1" width="0.4" height="0.4"/>
	<rect x="29.2" y="28.7" class="st1" width="0.4" height="2.4"/>
	<rect x="28.8" y="35" class="st1" width="0.4" height="2.4"/>
	<rect x="28.8" y="28.7" class="st1" width="0.4" height="2.4"/>
	<rect x="29.2" y="35" class="st1" width="0.4" height="2.4"/>
	<rect x="28.8" y="31.8" class="st1" width="0.4" height="2.5"/>
	<rect x="29.2" y="31.8" class="st1" width="0.4" height="2.5"/>
	<rect x="29.2" y="31.4" class="st1" width="0.4" height="0.4"/>
	<rect x="28.8" y="31.4" class="st1" width="0.4" height="0.4"/>
	<rect x="28.8" y="31.1" class="st1" width="0.4" height="0.4"/>
	<rect x="29.2" y="31.1" class="st1" width="0.4" height="0.4"/>
	<rect x="28.8" y="34.7" class="st1" width="0.4" height="0.4"/>
	<rect x="29.2" y="34.3" class="st1" width="0.4" height="0.4"/>
	<rect x="29.2" y="34.7" class="st1" width="0.4" height="0.4"/>
	<rect x="28.8" y="34.3" class="st1" width="0.4" height="0.4"/>
	<g>
		<path class="st0" d="M38.4,38.6H24.3V27.7h14.2L38.4,38.6L38.4,38.6z M25,37.8h12.7v-9.4H25V37.8z"/>
	</g>
	<polygon class="st0" points="33.4,40.6 29.4,40.6 30.1,38.2 32.7,38.2 	"/>
</g>
</svg>
