<?xml version="1.0" encoding="utf-8"?>
<!-- Generator: Adobe Illustrator 19.2.1, SVG Export Plug-In . SVG Version: 6.00 Build 0)  -->
<svg version="1.1" xmlns="http://www.w3.org/2000/svg" xmlns:xlink="http://www.w3.org/1999/xlink" x="0px" y="0px" viewBox="0 0 1600 900" style="enable-background:new 0 0 1600 900;" xml:space="preserve">
	<style type="text/css">
	.st0{stroke:#000000;stroke-width:2;stroke-linecap:round;stroke-linejoin:round;stroke-miterlimit:10;}
	.st1{display:none;}
	.st2{display:inline;}
	.st3{font-family:'MicrosoftJhengHeiBold';}
	.st4{font-size:15px;}
</style>
	<g id="圖層_1"></g>
	<g id="圖層_2">
		<g class="st0 section PEH" name="Penghu County" id="20">
			<path class="st0" name="澎湖縣" id="20" d="M519.5,433.3c0,0,2.9,0,4.2,0.7c1.3,0.7,3.1,0.7,4.1,2c1,1.3,1.3,4.7,1,6c-0.3,1.2-1.1,3.4-1.4,3.8
			c-0.3,0.4-3.3,3.5-3.3,3.5s-2.2,2.5-3.3,2.4c-1.1-0.1-6.4-3.9-6.8-3.9c-0.4,0-2,3.8-2.7,4.3c-0.7,0.5-4.7,1.9-5.1,2.3
			c-0.4,0.5-2.3,3.2-2.2,3.4c0.1,0.3,3.4,1.7,3.8,1.6c0.4-0.1,1-0.7,1-0.7l1.4,0.1c0,0,1.6-2.9,1.9-2.9c0.3,0,1.8,0.2,1.8,0.2
			l0.9-0.3l1.3,0.4l1.5,0.5l2,0.3c0,0,0.7-2.5,1.2-2.8s3.4-1.2,3.4-1.2l3.3,0.7l2.8,0.7l1.9,0.8l1.9,0.6l2.1,0.1l0.4,0.3l2.4-2
			l-2-0.9c0,0-1-1.2-1-2c0-0.7,1.3-2.7,1.2-3.3s-1.8-0.9-1.8-0.9l-0.5-4.5c0,0,3-0.6,3.3-1.2c0.3-0.7-3-6.3-3-6.3l1.6-1.8l3.3,0.2
			c0,0,1.5-3.3,2.1-4.2c0.7-0.9,0.7-2.9,0.3-3.6s-2.1-3.1-2-4.1c0.2-1,1.2-2.9,1.1-3.9c-0.1-1-1.7-1.7-1.7-2.3s1.2-1.2,1.2-1.8
			s-2.4-4-2.3-4.5s0.4-1.4,0.4-1.4s1.6-1.9,2.4-1.8c0.8,0.1,1,0.7,1.8,0.7c0.7,0.1,3.9-0.2,3.9-0.2s0.9-1.3,1.7-1.7
			c0.7-0.4,2.9-1,2.9-1l1.7,0.7l0.4-2.3l1.1-0.7l1.4-0.7l1.1-0.7l-1.7-0.8l-1.2-0.4l-0.8,0.1l-1.3,0.8l-0.7,0.8l-1.3,0.4l-2-0.6
			l-2.7-1.3l-0.8-1.4l0.9-1.8l-0.3-0.8l-1.4,1.5l-1.2,0.7l-3-0.9l-0.3-1.6l0.5-1.1l1.8-1.5l1.7-2l-0.2-1.7l-0.9-0.7h-1.7H539l-2,1.2
			l-0.7,1.5h1.6l1.8,0.8v1.6l-0.6,0.3l-1.6-0.2l-1.1,0.9h-0.7l-0.7,0.5l-0.5,1.3l-0.8,2.1l-0.4,1.6l-1.1,1.7l-0.9,2h-1.6l-1.1,1.5
			l-0.3,2.2l0.7,1.8l0.6,1.7l0.1,1.2l-2,1l-0.7,1.2l-0.6,1.3l0.7,1.6l1.8,0.9h1.4l1.1,0.6l0.9,1.1l0.5,0.8l-0.7,1.2l-0.9,0.3l-2,1.7
			l-0.4,1.8v1.6l0.3,1.4l1.1,0.9l-0.2,1.5l-0.7,0.9l-2.3,1.2l-2.1-0.7l-0.2-0.9l0.9-1.3l-0.1-0.4l-1.9-0.3l-1.4,0.1l-1.2,0.7v0.7
			l0.2,1.4l-0.2,0.7L519.5,433.3z" />
			<polygon class="st0" name="澎湖縣" id="20" points="573.6,412.4 571.6,413.9 571.6,415.1 572.7,416.3 573.4,417.3 575.1,417 575,415.8 574.2,414.7 
			574.1,413.5 574.2,412.8 		" />
			<polygon class="st0" name="澎湖縣" id="20" points="587.1,430.3 587.7,431.3 587.6,432.7 585.9,432.7 586,431.8 586.5,431 		" />
			<polygon class="st0" name="澎湖縣" id="20" points="554.5,462.5 556.1,463.2 556.8,464 554.6,464.7 		" />
			<polygon class="st0" name="澎湖縣" id="20" points="536.2,496.4 537,494.2 538,492.9 539.2,493.7 540.4,494.2 541.5,493.4 541.5,494.8 541.5,496.3 
			539.9,497.2 538.9,497.3 537.4,497.3 		" />
			<polygon class="st0" name="澎湖縣" id="20" points="533.5,510.5 535,510.5 535.9,511.8 537.4,512.9 538.2,513 539,512.8 540,510.9 540.9,509.2 
			543.2,509.2 544.7,509 546.2,506.9 547.1,506.5 549.6,506.6 551.4,506.4 552.2,505.7 553.1,505.4 554.7,506 555.6,507.4 
			555.5,508.8 554.1,509.1 552.7,509.1 550.2,510.5 548.4,512.4 546.2,513.6 543.4,513.7 541.5,513.9 539.1,514.1 537,515.5 
			536.2,516.3 533.5,515.4 532.7,513.7 532.7,512.2 		" />
			<path class="st0" name="澎湖縣" id="20" d="M600.4,302l-1.9,1.4l-1.8,1l-0.9-0.1l-1.1,0.1l0.2-2l2-1.1l1-1c0,0-0.2-1.3,0.3-1.3s1.5,0,1.5,0l1,0.8
			L600.4,302z" />
			<path class="st0" name="澎湖縣" id="20" d="M603.1,312l0.7,2.6l1.4,0.7l1.4-0.6l0.9,1.2l0.7,0.4l1.4,0.7l0.6,1.8l-0.2,2.7l-0.5,0.7l-1.5,0.3l-0.2,0.9
			l-0.4,0.7l-2-0.5l-1.2-0.4l-1.2,0.2l-0.5,0.7l-0.7,1.6l-2.7,0.7l-1.5,2l-1.2,2.3l-0.9-1.8l-0.9-1.8l-1.8-0.6l-1.2-0.2l1-2.2l2.1-1
			c0,0,2.4-0.3,2.6-0.7s0.5-2,0.5-2l0.7-2.4l1-3.8l1.7-1.2L603.1,312z" />
			<path class="st0" name="澎湖縣" id="20" d="M562.8,341.5l3.2-0.7l0.6,1.4c0,0-0.8,1.9-0.7,2.1s1,2,1,2l-1.1,2.2l-2.1-0.3c0,0-1.4-0.9-0.7-1.3
			c0.7-0.4,2-2,2-2l0.3-1.4l-0.5-1L562.8,341.5z" />
			<polygon class="st0" name="澎湖縣" id="20" points="567.6,357.1 566.8,357.3 566.7,360.4 567.8,359.3 567.9,358.1 		" />
			<polygon class="st0" name="澎湖縣" id="20" points="570.3,357 570.2,357.4 569.5,358.7 570.6,359.3 571.5,358.5 		" />
			<polygon class="st0" name="澎湖縣" id="20" points="590.1,358.4 591.4,361.3 592.4,360.8 592.2,358.8 		" />
			<polygon class="st0" name="澎湖縣" id="20" points="628.7,359.4 630.8,361.4 630.9,360.2 630.2,359 		" />
			<polygon class="st0" name="澎湖縣" id="20" points="642.9,363.6 644.2,364.3 643.6,366.9 642.6,365.5 642.4,364.3 		" />
			<polygon class="st0" name="澎湖縣" id="20" points="640.9,367.2 641.2,368 640.8,369.3 641,370.1 641.9,370.7 641.5,372.1 639.3,371.6 639,369.8 
			639.2,368.3 639.9,367.6 		" />
			<polygon class="st0" name="澎湖縣" id="20" points="639.3,377.3 640.3,378.8 639.5,379.9 639.7,381.4 640.5,382.7 639.6,384.5 637.8,385.2 635.6,385.1 
			633.7,383.8 633.1,382.6 634.1,382.2 635.4,382.2 636.9,381 637.8,379.7 638.3,378.4 638.1,376.6 		" />
			<polygon class="st0" name="澎湖縣" id="20" points="652.2,408.4 653.4,408.4 653.2,410.2 651.6,409.4 		" />
			<polygon class="st0" name="澎湖縣" id="20" points="624.6,411.3 624.3,413 622.3,413.6 620.8,413.2 622,412.3 622.9,412.1 623.7,411 		" />
			<polygon class="st0" name="澎湖縣" id="20" points="617.1,390.4 619.5,390.8 619.8,392 619.3,393.4 617.9,394.6 616.7,395.7 616.3,396.5 616.3,398.4 
			615.9,399.1 614.6,398.4 615.1,396.1 616,394.6 615.9,391.9 616,390.6 		" />
			<path class="st0" name="澎湖縣" id="20" d="M558.9,464.3l0.7-0.8c0,0,0.5-0.1,0.6,0.4c0.1,0.5,0.6,2,0.6,2l1,0.7l-0.2,2.5l-0.2,2.8l0.4,1.4
			c0,0,2.3,0.3,2.6,0.8c0.3,0.6,0.7,1.6,0.7,1.6l0.7,1.5l-1.5,1.7l-0.5,2l1.3,1.8l1.5,0.2l1-2.5l2.8,0.8l1.1-1.9l-1.4-1.1l2,0.9
			l1.7,0.7l1.6-0.2l0.2,1.4l-0.1,2.5l0.5,2l0.9,1.6l2.2-0.6l1.2-1.9l0.7-3l0.5-1.9l3.5,0.4l0.1,0.8l2-0.7l1,0.9l1.9,2.3l1.8-0.3
			l2.2-3l-1.8-3.2l-2-2.2l3.3-1.4l2.2,0.3l0.5-0.8l-0.9-2.2v-2.5l0.7-1.2l-1.1-0.6h-2.1l-2.5-0.7l-0.7-1.1l-2.2,0.4l-2.4,1.8
			l-2.2-0.1l-3.3,0.7l-2.3-0.1l-1.7-1l-0.7,0.4l-0.9-0.9l-1.3,0.7h-2.6l0.4-0.9l1.5-0.5l-0.3-1l-1.7,0.1l-0.7-0.8l1.1-0.9l2.4-0.1
			l2.7,0.7l1.8-0.2l0.7-0.9l-1-1.6h1.1l0.8,0.4l0.2-0.7l-1.9-2v-0.7l1.4,0.2l1.9-0.2l0.1-1.6l-1.6-2.1l-1.7,0.9l-2,1.9l-1.8,0.7
			h-1.8l-0.7-0.2l-1.4,0.4l-2.1,0.7l-2.1-0.7l1.2-1.5l2-0.8l1.2-1.7l1.7-1l0.4-2.3l-0.2-1.8l0.7-1.3l-0.4-1.3l-2.1-3.2
			c0,0-0.5-1.5,1.2-1.6s4.3,0.4,4.3,0.4l1.6-0.2l1-0.8l2.3-2.7l3.9-1.5l0.9,1l-0.1,1.7l-1.1,1.7l-0.5,1.3l1.1,3.1l1.8,0.1l0.9-1
			l1.2-0.2l-0.6,2l-1.2,1.7l-0.3,2.2l2.6,1.6l2.4-0.7l2.1-1.9l1.2-2.2l-0.9-1.1l0.1-1.6l0.3-1.3l-1.2-1.7l-0.5-1.8l0.7-0.7l1.1-0.2
			l0.7,1.4l2.1,0.5l1.4-0.7l0.8-2.1l0.7-1.5l0.1-2.2l-1.7-1.1l-0.7-2l0.2-1.9l1.5-0.6l0.3-2.4l2.2-0.2l1.3,1l1,0.7l0.9-0.2l1.2,1.1
			l0.6,0.1l2.7-1.1l-0.1-1.4l1.1-1.2l2.5-0.1h2.2l0.6,0.7l-1,1.2l-1.1,0.7c0,0-1.4,1.6-1.4,1.9c0,0.3,0.4,1.9,0.4,1.9l1,2l-0.3,0.7
			l-1.5,1.4l-0.9,2.3l0.3,1.6l1.7,3l1.9-1.5l1.4,0.1l1-1.6l0.8-2.2l-0.7-2.5l0.1-1.9l1.6-1.4l2.7-0.8l1.7,0.5l-0.3,1.8l-1.5,2.4
			l-0.1,2.2l0.7,1.2l1.4,0.6l0.5-1.9l-0.4-0.8l0.7-2.4l1.2-1.5l1.5-0.5l0.2-2.3c0,0-0.5,0,0.2-0.6c0.7-0.6,1.7-1.8,1.7-1.8l0.3-1.4
			l-0.7-0.7l-0.7-0.7l1-1l2.6-0.2l2.9,0.9l-0.1,2.2l-0.9,2l0.2,2l1.7,1.3l2.4,0.5l0.1,1.4l-1.6,1.3l-0.6,0.7c0,0,2.1,0.8,2.4,0.8
			c0.3,0,2.9-1.1,2.9-1.1l1.2-2.8l-0.1-3.2l1.3-0.6l1.1-0.7l0.7-2c0,0,2.1-1,2.3,0c0.2,1,0.3,2.1,0.3,2.1l-2.2,0.3l-1.9,0.7l0.7,2.9
			l1.4,1.5l2,1.2l0.5,1.7l0.6,2l0.8,2.5l1.2,1c0,0,0.9,0.4,0.9,1.3s-0.9,2.7-0.9,2.7s-1.2,2.7-0.9,3.3c0.3,0.6,1.3,1.8,1.8,2.6
			s0.7,2,0.7,2l-0.7,0.9l0.7,1.8l1,1.4l1.8,0.6l2.6-0.1l1.8,1.6l0.1,1.6l-0.6,1.8l-0.8,1.5l-1.5,0.2l-0.7-0.5l-1.4,1.3
			c0,0-0.8,0.6-1.7,0.3c-0.8-0.3-1.3-0.6-1.3-0.6l-1.6-0.2l-0.9,0.7l-1.7-0.4l-1.9-0.1l-0.2-0.7l-0.1-1l1.1-1.6l0.1-1.4l-1.1-1.3
			l-2.1-1.2l-2.2,0.6l-2.2,0.2l-1.3,0.7c0,0-2-0.7-4.9-0.7s-7.1-0.1-8.4,1c-1.3,1.1-3,3.2-3,3.2l0.3,1.7l-0.9,0.7l-1.7,0.7
			c0,0,0.1,2-1.1,2.7c-1.2,0.7-2.5-0.7-3.8,0.4c-1.3,1-4.9,3-4.8,3.7c0.1,0.7,0.9,3.8-0.6,4c-1.5,0.2-1.8-1.2-1.8-1.2l-1.6,0.3
			l-2.2,1.5c0,0-1,1.9-1.7,3.4c-0.7,1.6-3.5,1.7-3.3,3.4c0.3,1.8,0.4,3.2,1.6,3.3c1.2,0.1,2.7,0.8,2.7,0.8v1.3l-1.6,0.8
			c0,0-2.2,0.3-2,1.4c0.3,1.1,1.1,2,1.1,2l1.4,0.9l-0.3,1.3l-0.7,1.7l-1.1,0.4l-3.3-1.2l-0.7-1.4l-1.8-0.5l-2.5-0.3l-2-0.4l-2,0.6
			c0,0-1.6,2.2-2.7,2.4s-3.1-0.4-3.3-0.1s-2.2,1.3-2.2,1.3l-1.9-0.5l-2-1.7l0.1-1.6l0.9-3.3l1.2-2l-1.5-2.1l-1.6-1.5l-2-1.1
			c0,0-1.2-0.7-1.6-0.5c-0.4,0.3-2.2,1.3-2.2,1.3l-2.4,0.1l-1.4-1.6l-1.8-2.9l-0.9-1.6l-1.6-0.7l0.5-2l-0.5-2.2l-1.4-0.1l-1.4,0.7
			l-1.7-0.1l-1-1.5l0.3-1.8l0.2-2.2l0.7-2.2l0.4,0.8l1.1,0.6l1.1-1.2l0.8-1.3L558.9,464.3z" />
			<path class="st0" name="澎湖縣" id="20" d="M593.2,416.3l3.3-0.2l1.6-2.2l1.3-1.7l2.9,1l2.1,1.5c0,0,0.1,1.7,0.1,2c0,0.4-1.2,2.8-1.2,2.8l-1.8,1.4
			l-1.9,0.5l-1.4,0.2l-1-1.4l-1-1.3l-1.8-1.4L593.2,416.3z" />
			<path class="st0" name="澎湖縣" id="20" d="M569.6,389.6l-4-3l-3.6-1.9l-0.9-2.9l1.7-2.7l4.6-2.4l4.6-1.7c0,0,1,0.8,1.6,0.9c0.6,0.1,4.4-0.7,4.4-0.7
			l2.7-1.8l1.3-1.5c0,0,2.5-0.9,2.8-0.6c0.3,0.4,0.9,1.8,0.9,1.8s0.4,1.3,0.7,1.5c0.4,0.2,2.3,0.5,2.6,0.3c0.3-0.2,0.7-0.7,0.7-0.7
			l1-0.4l2.3-1.3l2.2,0.3l0.9,1.2c0,0,0.2,2,0.5,2.2c0.3,0.3,0.5,0.4,0.5,0.8c0,0.5-0.7,1.3-0.6,1.7s0.7,1.3,0.7,1.3l1,0.7l2.2,1
			l-0.5,1.8l-0.3,1.4c0,0,0.8,2.8,1.2,3c0.4,0.2,2.8,1.7,2.8,1.7l-1,2l-2.4,0.1l-3.1,0.6l-1.8,0.7l0.4,2.1l0.6,1.5l-1.6,0.9l-1,1
			l0.6,2.5l1.9,1.9l1.7,0.3l1.7-2c0,0,2.6-0.1,2.6,0.5s-0.3,3.3-0.3,3.3h-3.3c0,0-2.4,1.4-1.7,2.2c0.7,0.8,1.6,2.9,1.6,2.9l-1.9,0.1
			l-0.4,1.5l-1.2,1.4c0,0-2-2.3-2.8-2.3c-0.8,0-3,0.4-3,0.4l-1-0.8l0.7-2c0,0,0.9-1.4,1.4-2.6s0.9-1.8,1.2-2.5
			c0.3-0.7,0.3-2,0.3-2.4c0-0.5-0.3-3.3-0.3-3.3l-1.9-1.6l-2.1-1.5l-1.1-1.8l-2.5-2.5l-1.1-2.5l0.1-1.9l-0.7-1.9l-0.5-1.1
			c0,0-2.5-1.4-4.3-1.2c-1.8,0.2-3.8,1.8-3.8,1.8l-2.1,2.3l-0.6,2c0,0,0.5,2.1-0.9,1.8L569.6,389.6z" />
			<path class="st0" name="澎湖縣" id="20" d="M472.1,544.3c0,0-0.4-1.5,1.1-1.7c1.5-0.2,2.2,2.8,3.9,2.8s2.8,0.6,2.8,1.5s-1.5,2.2-1.5,2.2s0.6,1.3-0.4,1.3
			c-0.9,0-3.2,1.9-3.9,1.7c-0.7-0.2-3.9,0.4-4.5-1.5c-0.6-1.9,1.5-2.4,2-3.5S472.1,544.3,472.1,544.3z" />
			<path class="st0" name="澎湖縣" id="20" d="M523.2,547.2c0,0-4.1-6.7-3-7.1s0.9-0.6,2-0.6s1.9,2.8,1.9,2.8s0.9,2,2.4,2c1.5,0,1.3-2.2,3.2-1.7
			s2,3,1.7,3.9c-0.4,0.9-0.7,3-0.2,3c0.6,0,1.7,1.7,1.7,1.7l-0.6,2.2l1.5,1.9l-0.9,1.3l-0.4,1.9l3.2,0.6l0.9,1.5l-1.1,0.9l-1.5,0.4
			c0,0-1.9,1.5-1.9,2s-0.7,3,0,3.5s3,3.7,2.4,3.7s-4.5-0.6-6.1-0.7c-1.7-0.2-5,1.1-6.3,1.1c-1.3,0-3.9-0.4-3.9-2s1.1-3.7,2.2-4.3
			s2-0.9,2.4-2c0.4-1.1-0.6-1.5-0.6-2.8c0-1.3,0.7-2.6,0.6-3.7c-0.2-1.1-1.1-0.7-1.1-1.5c0-0.7,0.9-1.7,0.9-2.4
			c0-0.7-1.5-0.7-1.3-1.5C521.5,550.5,523.4,548.7,523.2,547.2z" />
			<path class="st0" name="澎湖縣" id="20" d="M541.5,561.9l2.4,0.2l1.4-1.2l0.5-1.8l0.1-0.7h1.4h2l0.7-0.7l1.2-0.6l1.2-0.2c0,0,0.8,0.1,1.3,1.3
			s1.1,2.4,0.3,2.9c-0.8,0.5-2.4,1.1-2.4,1.1l-1.6-0.9c0,0-1-0.2-1.3,0c-0.3,0.2-0.7,0.9-1.2,1.4s-1.2,0.9-1.2,0.9l-1.4,1
			c0,0-0.3,1.2-1.2,1.3c-0.9,0.1-2.4-0.1-2.7-0.6c-0.3-0.5-1.7-0.7-1.3-1.9C540,562.5,541.5,561.9,541.5,561.9z" />
			<path class="st0" name="澎湖縣" id="20" d="M487.2,605.6c0,0-0.4-9.2,0.7-9.8s3.2-3.3,2.8-3.9c-0.4-0.6-7.8-1-8.9-0.4c-1.1,0.6-8,1.5-8,1.5l-4.3,1.3
			l-3.2,3.1c0,0,4,5.9,6,6.4s0.4,0.8,0.4,0.8l-1.5,5.2l1.4,0.6l0.1,2.9c0,0,0.3-0.7,1.1-0.6c0.8,0.1,4.9,3.5,4.9,3.5l0.8-1.5
			c0,0-1.5-2.2-1.5-2.7c0-0.4,0.6-3.2,0.6-3.2l1.3-0.4l2.8-1l1-1.4l1,0.1C484.5,606.1,486.6,606.4,487.2,605.6z" />
			<polygon class="st0" name="澎湖縣" id="20" points="533.5,583.7 534.8,586.3 534.6,587.4 531.7,587.4 529.9,585.6 529.6,583.9 531.3,583.4 532.5,583.9 
					" />
			<polygon class="st0" name="澎湖縣" id="20" points="536.3,590.5 537.8,590.1 539.5,589.5 541.5,589.2 541.5,590.4 540.2,591.2 539.1,592.2 538.9,593.7 
			537.3,595.9 535.3,595.5 533.8,594.3 535.2,592.6 535.5,591.2 		" />
			<polygon class="st0" name="澎湖縣" id="20" points="600.8,567.9 601.3,569.7 601.9,571 602.9,571.5 605.2,572.5 606.6,572.5 608.6,572.2 608.2,570.5 
			608.4,569.2 609.4,567.6 607.7,566.5 604.4,566.5 602,566.5 		" />
			<polygon class="st0" name="澎湖縣" id="20" points="634.4,560.4 635.6,561.6 636.3,560.2 636.3,559 635.1,559.1 		" />
			<polygon class="st0" name="澎湖縣" id="20" points="639.8,561.9 641.1,560.2 644.4,559.7 646.1,559.4 648.9,559.2 649.2,560.1 647.9,561.8 648.1,563.6 
			646.8,564.5 645.4,565.7 644.2,567.8 644.9,568.7 645.7,570 645.1,571.4 643.7,572.2 642.8,570.1 640.8,568.6 640.5,567.2 
			641.4,565.1 640.1,563.3 		" />
		</g>
		<path class="st0 ZMI section" name="Miaoli County" id="07" d="M866.2,275.6c2.3,0.2,5.9,5.5,7.2,8.5c1.3,3,5.1,1.1,7.2,1.9c2.1,0.8,5.9,4.7,9.1,5.9c3.2,1.3,4.5-0.4,7.4-0.8
		s9.1-1.7,10.6-2.8c1.5-1.1-3.4-3-1.5-5.9c1.9-3,10.4-1.5,14-1.5c3.6,0,7.6,3.6,9.3,4c1.7,0.4,2.5,5.3,6.8,4.9
		c4.2-0.4,4.9-8.1,7.2-8.9c2.3-0.8,3.8,1.3,6.2,1.3c2.3,0,6.6-8.1,9.3-10s7.2-3.2,9.1-4.2c1.9-1.1,1.9,1.1,5.5-0.2
		c3.6-1.3,3.4-2.3,3.4-2.3l2.8-4.2l1.4-3.2l0,0l0.7-1.7l-2.3-4.5l-1.7-4l-4.2-3.8l-2.8-3.8h-3.6h-5.1l-5.7-1.5l-3.4,2.5l-3.4,0.2
		l-4-1.3c0,0-4.9,1.1-5.5-1.1c-0.6-2.1,3.4-4.9,3.6-5.7c0.2-0.8-1.9-5.3-1.7-7.4c0.2-2.1,1.1-5.1,1.1-5.1l-2.5-4.2l-2.8,0.4
		l-2.1-1.7l-3.6-1.5l-2.1-3.8l-1.1-4.2l-5.5-2.3l-3.8-1.9l-0.2-3.8l1.1-2.5l-3.6-1.1l-3-0.4l-2.5-0.8l0,0l-1.4-0.5h-3.4l-1.5-3.8
		l-1.3-3.1c-1.6-0.1-4.6,2.6-6.1,3.7c-1.7,1.3-2.1,4.9-2.5,6.4c-0.4,1.5-4.5,1.7-5.1,2.8c-0.6,1.1-0.8,3.4-1.9,4.5
		c-1.1,1.1-9.1,3.6-11.5,4.9c-2.3,1.3-1.9,7-3.2,8.3s-4.9,0.8-7.4,3.2c-2.5,2.3-4.5,15.5-6.2,21.4c-1.7,5.9-7.4,8.7-8.9,10.6
		c-1,1.3-2.8,2.6-3.9,3.9c4.5,7.1,11.7,18.6,13,20.3C862.2,277.9,863.9,275.3,866.2,275.6z" />
		<path class="st0 CHW section" name="Changhua County" id="09" d="M780.1,400.8l4.7-2.1l4.9-2.8h3.2l2.8,1.7l4-0.2c0,0,0-0.2,1.5,0.8c1.5,1.1,6.4,8.3,9.1,8.5
		c2.8,0.2,15.9-0.2,15.9-0.2l8.3,1.9l7.6,1.5l5.9,1.5l2.1,1.1l-0.2-0.9l4.5-2.3c0,0,5.5-1.7,4.2-4.2c-1.3-2.5-6.4-1.7-8.7-3
		c-2.3-1.3-6.4-7.4-6.6-10c-0.2-2.5,3.2-6.6,3.2-7.4c0-0.8-1.5-5.5-1.5-5.5l0.4-7.6c0,0-1.7-3.2-1.7-4.5c0-1.3,3.4-2.3,3.4-2.3
		l0.2-1.5l-1.1-2.1l-0.6-4.5l-1.1-3.4l-0.4-4.2l0,0l0-0.1c0,0,0.8-7.2,0.4-9.8c-0.4-2.5-7.6-3.8-10.2-5.7s-7.6-2.1-9.5-3
		c-1.9-0.8-2.1-8.3-4-11.7s-4.7-3.8-4.7-3.8l-1.7,3.6c0,0-2.3-0.2-4.9,0.4c-2.5,0.6-7.2,6.2-8.5,8.9c-1.3,2.8,5.1,3.8,5.1,3.8
		s-1.1,8.1-1.7,8.3c-0.6,0.2-5.1,0.8-7.4,5.1c-2.3,4.2-8.9,13.4-10.2,14.2c-1.3,0.8-5.9,1.1-6.2,2.3c-0.2,1.3,1.5,5.5,1.5,5.5
		s-2.5,2.5-3.2,4c-0.6,1.5-6.8,14.9-8.5,21c-1.2,4.3-0.2,5.8,0.5,6.3l0.5,0.3l4,1.7L780.1,400.8z" />
		<path class="st0 YLH section" name="Yunlin County" id="11" d="M748,471.3l5.5,1.8c0,0,4.4,2.1,5.7,0.3c1.3-1.8-2-4.7,0.1-6.4c2.1-1.7,7.5,1.1,8.2-0.1
		c0.7-1.3,1.4-4.1,2.7-5.1c1.3-1,6.4-0.6,7.8-2c1.4-1.4-1.4-5.8,2.1-7.6c3.5-1.8,7.9-0.6,10.5-1.7c2.5-1.1,9.9-2.8,9.9-2.8l8.5-0.1
		l2.1-0.3c0,0,5.9-1.7,7.4,0.1c1.4,1.8,2.5,5.4,5.8,7.1s10.5,3.3,12.3,2.3c1.8-1,2.4-3.8,5.5-3.7s4,5,5.1,5.5c1.1,0.6,12-0.1,12-0.1
		l3.1,1.8l2.4,0.3l1.7-2.8l-0.2-7.4l-4.2-1h-2.8l-5.7-0.2c0,0-4.5-2.3-6.4-3s1.1-8.5,1.1-8.5l-0.6-9.3l1.7-4.5l3.2-1.7l-0.4-2.8
		l-1.1-3l-0.9-3.9l-2.1-1.1l-5.9-1.5l-7.6-1.5l-8.3-1.9c0,0-13.2,0.4-15.9,0.2c-2.8-0.2-7.6-7.4-9.1-8.5c-1.5-1.1-1.5-0.8-1.5-0.8
		l-4,0.2l-2.8-1.7h-3.2l-4.9,2.8l-4.7,2.1l-4.5-0.2l-4-1.7c0,0-5.1,2.1-8.3,3.4s-7.4,6.4-7.6,10.2c-0.2,3.8-1.3,8.3-2.1,12.5
		c-0.8,4.2-8.5,4.7-9.1,6.4c-0.6,1.7-0.8,8.7-1.7,12.9s-6.8,11-6.8,13.2c0,2.1,3.2,8.9,3.6,10.7l3.8,1.6L748,471.3z" />
		<path class="st0 HSH section" name="Hsinchu County" id="06" d="M926.1,168.2l3.2,5.3l1.5,3.8l0.6,4.7c0,0,0,1.5-0.8,2.1c-0.8,0.6-5.9-5.5-7.6-4.9c-1.7,0.6-3.8,3.6-3.8,3.6
		l-2.3,3l-3.8,3.8l-1.4,3.2l2.5,0.8l3,0.4l3.6,1.1l-1.1,2.5l0.2,3.8l3.8,1.9l5.5,2.3l1.1,4.2l2.1,3.8l3.6,1.5l2.1,1.7l2.8-0.4
		l2.5,4.2c0,0-0.8,3-1.1,5.1c-0.2,2.1,1.9,6.6,1.7,7.4c-0.2,0.8-4.2,3.6-3.6,5.7c0.6,2.1,5.5,1.1,5.5,1.1l4,1.3l3.4-0.2l3.4-2.5
		l5.7,1.5h5.1h3.6l2.8,3.8l4.2,3.8l1.7,4l2.3,4.5l-0.7,1.7h5l7-0.2h1.1l-0.4-1.4l2-2.7l1.6-2l2.1-2.4l2.8-2l0.7-2.4l1.6-3.4l2.5-0.7
		l2.3-2.3l1.3-2.8l-0.4-2.3l-0.1-3.3l3.4-2.7l1.4-4.1l-0.5-3.7l-2,0.1l-2.3,2.1l-2.1-0.7l-4.1-3.4l0.4-2.4l-2.4-1.3l-1.8-5.7
		c0,0,0-3.4,0-3.8c0-0.4-2.3-4.7-2.3-4.7l-2.1-1.6l-5.9-1.4l0.3-3.8l1.7-1.3l-0.1-4.2l-4.1-7.4l-5.1-4.4l-12.3-4.5l-3.7-4.8
		l-1.6-1.4c0,0-5.1,0-5.4-1c-0.3-1,1.1-3.4,1.1-3.4l0.8-3.1l-1.4-3l-2.7-0.8h-3.1l-1.6,0.1c0,0-3.1-3.3-5.8-4.2
		c-2.7-1-6.5-0.6-7.5-1.8c-1-1.3,2.5-4.8-0.7-6.6c-3.3-1.8-5.2-2.1-5.2-2.1l-4,1.3l-3,1.6l-3,0.4l-0.4-0.1c-0.6,0.6-1,1-1,1
		s-3,1.9-4.7,5.7c-1.3,3,1.1,8.2,2.2,10.3l2.9,2.9L926.1,168.2z" />
		<path class="st0 TXG section" name="Taichung City" id="08" d="M820.8,318.8c1.9,3.4,2.1,10.8,4,11.7c1.9,0.8,7,1.1,9.5,3s9.8,3.2,10.2,5.7c0.4,2.5-0.4,9.8-0.4,9.8l0,0.1
		l2.3,1.6l6.4,2.3l4,4.9l5.5,1.5l7,0.4l4.7-0.2l0.4-3.6l2.5-0.8c0,0,2.8-4,5.1-7c2.3-3,7.9-15.1,10.4-14.9c2.5,0.2,4.9,9.3,6.6,9.1
		c1.7-0.2,4.7-5.9,4.7-5.9s2.1,0,3.6,0s3-4.7,5.1-4.9c2.1-0.2,3.6,3.6,6.6,3c3-0.6,5.5-12.7,10.8-12.5s1.3,3.6,5.1,2.8
		c3.8-0.8,12.9-11.2,14.9-11.2c1.9,0,3.6,0.8,4.2,0.8c0.6,0,5.1-4,6.8-4.7c1.7-0.6,4.9,1.9,7,1.1c2.1-0.8,7-1.3,8.7-2.1
		c1.7-0.8,2.3-4.2,4.9-4.2c2.5,0,2.3,3.4,3.4,3.2c1.1-0.2,2.1-1.9,4-1.5c1.2,0.3,5.5,2.4,8.8,4l0.1-1.1v-7.2l4.7-3.4l4.2-2.5v-3.8
		l3-3l2.5-3l6.4-1.7V276l0.6-1.9c-1.6-1.4-3.5-3.1-5.1-4c-2.5-1.6-7.5,2.4-9.3,1.6c-1.8-0.8-0.3-2.8-1.7-4.4
		c-1.4-1.6-5.5-0.1-7.1-1.6c-1.6-1.4-0.4-6.9-0.4-6.9l-1.1-1h-1.1l-7,0.2h-5l-1.4,3.2l-2.8,4.2c0,0,0.2,1.1-3.4,2.3
		c-3.6,1.3-3.6-0.8-5.5,0.2c-1.9,1.1-6.4,2.3-9.1,4.2s-7,10-9.3,10c-2.3,0-3.8-2.1-6.2-1.3c-2.3,0.8-3,8.5-7.2,8.9
		c-4.2,0.4-5.1-4.5-6.8-4.9c-1.7-0.4-5.7-4-9.3-4c-3.6,0-12.1-1.5-14,1.5c-1.9,3,3,4.9,1.5,5.9c-1.5,1.1-7.6,2.3-10.6,2.8
		s-4.2,2.1-7.4,0.8c-3.2-1.3-7-5.1-9.1-5.9c-2.1-0.8-5.9,1.1-7.2-1.9c-1.3-3-4.9-8.3-7.2-8.5c-2.3-0.2-4,2.3-5.9-0.2
		c-1.3-1.7-8.6-13.2-13-20.3c-0.6,0.6-1,1.3-1,1.8c0,1.7-5.5,6.2-6.8,8.1c-1.3,1.9,0.2,6.4-0.2,7.4c-0.4,1.1-3.6,0.4-6.2,3.2
		c-2.5,2.8-2.5,11-2.5,11l-2.3,1.1h-3.4l-1.1,4l-4.2-0.6c0,0-1.3,4.5-2.1,7.6c-0.8,3.2-2.3,8.7-2.3,8.7l1.9,1.9l1.3,1.5l-0.6,2.1
		l-1.5,2.1C816.1,315,818.9,315.5,820.8,318.8z" />
		<path class="st0" d="M771.6,398.8l-0.5-0.3C771.3,398.8,771.6,398.8,771.6,398.8z" />
		<path class="st0 TYC section" name="Taoyuan City" id="04" d="M926.6,142l3-1.6l4-1.3c0,0,2,0.3,5.2,2.1c3.3,1.8-0.3,5.4,0.7,6.6c1,1.3,4.8,0.8,7.5,1.8
		c2.7,1,5.8,4.2,5.8,4.2l1.6-0.1h3.1l2.7,0.8l1.4,3l-0.8,3.1c0,0-1.4,2.4-1.1,3.4c0.3,1,5.4,1,5.4,1l1.6,1.4l3.7,4.8l12.3,4.5
		l5.1,4.4l4.1,7.4l0.1,4.2l-1.7,1.3l-0.3,3.8l5.9,1.4l2.1,1.6c0,0,2.3,4.2,2.3,4.7c0,0.4,0,3.8,0,3.8l1.8,5.7l2.4,1.3l-0.4,2.4
		l4.1,3.4l2.1,0.7l2.3-2.1l2-0.1l-0.3-2.1l0.3,2.1l2.9-0.2l1.8,1.6l2.1-0.8l1.4-2.8l0.3-3.1l3.1-3l1.1-2.4l1.1-4.5l-0.4-2.2
		c-0.3,0-0.7,0-1-0.1c0.4,0,0.7,0,1,0.1l-0.2-1l-1-4l-2.8-4.2l-3.7-6.6l-2.4-3.5l0.4-3.1l2.8-1.8l-0.3-2l-1.6-2.7l-4.7-4l-2.8-3.1
		l-2-2.7l-2,0.4c0,0-2.5,0.1-3.4,0.1c-0.8,0-3.4,0-3.4,0l-2.3-0.6l0.8-2.4l1.7-3.1l-0.6-5.1l-2.4-1.6l-1.1-4.2l-0.8-5l-0.4-4.1
		l-0.3-4.4l2.3-2.1l2.7-0.3l5.2,0.6l3.5-1.6l2.8-3.8v-2.8l-0.6-2.3l-0.8-2l1.1-1.4V117l-3.3-2.1l-2.3-2.1l-3.4-1.6l-2.3-0.4
		l-0.6-2.1l-4.8-4.7l-6.1-3l-2.3-1.8c-3.8,0.2-7.7,0-10.1,0.7c-3.8,1.1-8.3,5.3-9.8,6.4c-1.5,1.1-8.1,2.5-16.1,6.2
		s-16.3,7.9-19.1,10.4c-2.8,2.5-2.1,10.6-3.4,13.2c-0.9,1.8-3.8,4.9-5.4,6.4l0.4,0.1L926.6,142z" />
		<path class="st0 KEL section" name="Keelung City" id="03" d="M1071.5,90.8c-0.4,0.6-2.8,1-5.2,1.4c-2.4,0.4-3.8,3.1-3.8,6.1c0,3,2.5,5.8,3,7.9c0.4,2.1,3.8,1.6,5.9,3
		c2.1,1.4,5,2.7,7.6,3.5c2.7,0.8,8.5,0.3,10.3-1.4c1.8-1.7-0.8-3.5-1.3-5.7c-0.4-2.1,1.6-3.4,2.5-4.5c1-1.1,4.7-1.4,6.9-3.8
		c0.5-0.5,0.7-1.3,0.7-2.2l-2.8-0.6l-8.3-3.6l-4-2.3l-7.1-1.4C1074.4,89.4,1071.8,90.4,1071.5,90.8z" />
		<path class="st0 NTC section" name="Nantou County" id="10" d="M984.8,307.6c-1.1,0.2-0.8-3.2-3.4-3.2c-2.5,0-3.2,3.4-4.9,4.2c-1.7,0.8-6.6,1.3-8.7,2.1
		c-2.1,0.8-5.3-1.7-7-1.1c-1.7,0.6-6.2,4.7-6.8,4.7c-0.6,0-2.3-0.8-4.2-0.8c-1.9,0-11,10.4-14.9,11.2c-3.8,0.8,0.2-2.5-5.1-2.8
		s-7.9,11.9-10.8,12.5c-3,0.6-4.5-3.2-6.6-3c-2.1,0.2-3.6,4.9-5.1,4.9s-3.6,0-3.6,0s-3,5.7-4.7,5.9c-1.7,0.2-4-8.9-6.6-9.1
		c-2.5-0.2-8.1,11.9-10.4,14.9c-2.3,3-5.1,7-5.1,7l-2.5,0.8l-0.4,3.6l-4.7,0.2l-7-0.4l-5.5-1.5l-4-4.9l-6.4-2.3l-2.3-1.6l0.4,4.2
		l1.1,3.4l0.6,4.5l1.1,2.1l-0.2,1.5c0,0-3.4,1.1-3.4,2.3c0,1.3,1.7,4.5,1.7,4.5l-0.4,7.6c0,0,1.5,4.7,1.5,5.5c0,0.8-3.4,4.9-3.2,7.4
		c0.2,2.5,4.2,8.7,6.6,10c2.3,1.3,7.4,0.4,8.7,3c1.3,2.5-4.2,4.2-4.2,4.2l-4.5,2.3l0.2,0.9l0,0l0.9,3.9l1.1,3l0.4,2.8l-3.2,1.7
		l-1.7,4.5l0.6,9.3c0,0-3,7.9-1.1,8.5s6.4,3,6.4,3l5.7,0.2h2.8l4.2,1l0,0l0.3,0.1l2.8-0.8c0,0,1.5-2.3,2.8-1.3
		c1.3,1.1,2.1,3.4,4,4.7c1.9,1.3,5.3-0.2,7,0.8c1.7,1.1,0.4,7.6,0.4,7.6l-1.7,3.8l-1.1,2.8l2.3,5.9l3.4,2.1l3.4,2.1l3.2,3l3.8,1.1
		l3,0.9l0,0l1.9,0.6l5.5-1.1l5.7-0.8l3.6,1.5l4,0.8l3.2,0.8l3.8,2.9l1.5-2.7l5.5-1.3l0.8-2.1l0.8-6.4l5.1-1.3c0,0,1.3-4.2,1.7-5.9
		s7.6,0.4,10.2,0.4c2.5,0,3-5.1,3.8-10.2c0.8-5.1,14.9-7.2,17.4-8.9c2.5-1.7,4.2-18.2,4.2-23.3s-8.5-7.6-8.5-10.6
		c0-3,12.3-24.2,13.2-27.2c0.8-3,2.5-11.9,1.7-15.7s-2.1-8.9-2.1-13.6c0-4.7,3.4-12.3,3.4-12.3l5.5-2.5l1.3-3v-5.1l-0.4-3l-3.4-1.7
		l-3.4-3l0.4-7.2l2.1-1.7l5.1-0.8l2.1-2.1l1.7-3.4l0.3-3.2c-3.3-1.6-7.6-3.8-8.8-4C987,305.7,985.9,307.4,984.8,307.6z" />
		<path class="st0 HSC section" name="Hsinchu City" id="05" d="M906.7,192.4h3.4l1.4,0.5l1.4-3.2l3.8-3.8l2.3-3c0,0,2.1-3,3.8-3.6c1.7-0.6,6.8,5.5,7.6,4.9
		c0.8-0.6,0.8-2.1,0.8-2.1l-0.6-4.7l-1.5-3.8l-3.2-5.3l-3.4-5.9l-2.9-2.9c0.3,0.6,0.5,1,0.5,1s-11-0.2-13.6,2.3
		c-2.5,2.5,1.9,7.4,1.7,9.5c-0.2,2.1-1.1,4.9-2.3,5.5c-1.3,0.6-0.2,8.7-1.7,7.9c-0.1-0.1-0.3-0.1-0.5-0.1l1.3,3.1L906.7,192.4z" />
		<path class="st0 HWA section" name="Hualien County" id="18" d="M1086.1,284.9l-3.7-1.7l-3.3-0.3l-3.5-0.3l-2.1-2.4l-6.5-2.1l-3-1.3l-0.7-1.4l-2.8,1v2.5l-1.8,1.7l-3,1.3
		l-2.4,0.7l-0.6,2.4l-0.6,0.7l-2.3-0.3l-1.8,1.3l-2.4,0.6l-1.7-2c0,0-0.7-3-1.1-3.1c-0.4-0.1-4-0.8-5.8-1.3s-4.2,0.6-5.7,0.4
		c-1.4-0.1-3-3.3-3.7-3.8c-0.7-0.6-4.4-0.4-5.9-1.4c-0.6-0.4-1.5-1.2-2.5-2l-0.6,1.9v8.5l-6.4,1.7l-2.5,3l-3,3v3.8l-4.2,2.5
		l-4.7,3.4v7.2l-0.1,1.4l0-0.3l-0.3,3.2l-1.7,3.4l-2.1,2.1l-5.1,0.8l-2.1,1.7l-0.4,7.2l3.4,3l3.4,1.7l0.4,3v5.1l-1.3,3l-5.5,2.5
		c0,0-3.4,7.6-3.4,12.3c0,4.7,1.3,9.8,2.1,13.6s-0.8,12.7-1.7,15.7c-0.8,3-13.2,24.2-13.2,27.2c0,3,8.5,5.5,8.5,10.6
		s-1.7,21.6-4.2,23.3c-2.5,1.7-16.6,3.8-17.4,8.9c-0.8,5.1-1.3,10.2-3.8,10.2c-2.5,0-9.8-2.1-10.2-0.4s-1.7,5.9-1.7,5.9l-5.1,1.3
		l-0.8,6.4l-0.8,2.1l-5.5,1.3l-1.5,2.7l0.6,0.5l3,4.7l-3-4.7l-0.6-0.5l-0.6,1.1l3,4.2v2.5c0,0-8.5,1.7-8.5,7.6
		c0,5.9,10.6,9.8,11,11.9c0.4,2.1-2.1,8.5-2.1,8.5s0.2,0.1,0.5,0.3l0,0c1.5,1,6,4.6,6.3,10.3c0.4,6.8,7.2,5.5,9.8,6.4
		c2.5,0.8,3,8.5,6.4,8.5s6.4-3.8,8.5-3.8c2.1,0,5.1,11,8.1,13.2c3,2.1,7.2-1.7,9.3,2.1c2.1,3.8-4.2,8.1,3.8,6.8
		c8.1-1.3,12.3,0.4,12.7-3.8s-2.1-13.2,0.4-16.1s4.7-10.6,4.7-10.6l2.5-14l8.5-12.3l2.5-6.4l-5.1-5.1l1.7-5.9l6.4-5.5l5.9,1.3
		c0,0,0.4,2.1,1.7,2.1c0.4,0,2.2,0.1,4.2,0.1v-2.5c0,0,3.4-8.1,3.8-10c0.4-1.9,2.5-16.1,3.2-22.9c0.6-6.8,6.4-21.6,6.8-25.3
		c0.4-3.6,5.3-10,5.3-11.7s-1.1-3.2-1.3-4.5c-0.2-1.3,2.1-5.9,2.1-5.9l1.9-10l1.7-8.5l1.3-8.1c0,0,1.5-12.5,1.7-14s7-6.4,7.2-8.3
		c0.2-1.9-4.2-8.9-5.3-13.6c-1.1-4.7,1.1-7.9,1.9-10.4c0.8-2.5,6.4-3.6,6.4-5.5s-1.5-3.4-1.7-4.7s0.2-7.9,1.3-9.8
		c1.1-1.9,19.3-15.1,19.3-15.1l1.5-1.7l-0.2-3.2l0.6-3.8l1.1-1.9l1.1-2.3c0,0,0-0.9,0.1-2l-0.9-0.1L1086.1,284.9z" />
		<g class="st0 PIF section" name="Pingtung County" id="16">
			<polygon class="st0" name="屏東縣" id="16" points="750.8,756 752.5,761.5 754.2,765.3 757.2,767 764.4,770 768.6,770 774.6,769.1 773.3,764 
			774.1,759.8 777.1,755.1 772,751.7 761.8,751.7 754.6,751.7 		" />
			<path class="st0" name="屏東縣" id="16" d="M890.4,774.6l-5.5-5.1l-6.4-1.3l2.5-3.4l-4.7-3.8l-3-4.2l1.7-2.1l2.5-2.5l-3-6.4l-3.8-1.7l-2.1-4.2l1.7-6.8
			l6.8-3.4l-3-5.1l-2.5-7.6l-1.3-8.5c0,0-1.7-8.5-3-10.6c-1.3-2.1,0-8.9,0-8.9l6.8-13.2v-5.5l2.5-5.9h5.1l4.2-5.1l7.6-3
			c0,0,8.9-8.9,9.8-10.6c0.8-1.7,0-7.2-0.8-8.5c-0.8-1.3-7.6,0-7.6,0l-0.4-6.8l-0.4-2.3c-3.1-1.5-6.8-3-8.5-3.2
			c-3.4-0.4-7.2,5.1-11,5.5s-10.2-8.5-12.7-8.9c-2.5-0.4-6.8,3.8-8.9,3.8s-2.5-5.5-3.8-5.5s-9.8,1.7-12.3,3.8
			c-2.5,2.1-9.8,9.8-12.7,10.6s-5.5-3-5.5-3s-5.9-2.1-9.3-1.3s-3.4,5.9-3.4,7.6c0,1.7,1.3,21.6,0.4,24.6c-0.8,3-5.1,8.5-5.9,11.9
			c-0.8,3.4,0.8,8.1,0.8,8.1l1.7,6.8l-1.3,12.3l-1.3,8.5l-1.9,3c0.2,1.4,0.4,3.1,0.9,4c0.8,1.7,12.3,12.7,15.7,16.3
			c3.4,3.6,14.6,5.7,17.8,6.8s4.7,12.1,5.9,14.4c1.3,2.3,5.1,4.9,5.7,6.2c0.6,1.3,1.1,6.8,1.5,8.1c0.4,1.3,1.9,3.2,4,5.9
			c2.1,2.8,8.7,25.9,9.3,29.5c0.6,3.6-3.4,2.5-4.2,4.7c-0.8,2.1,0.4,4,1.1,6.2c0.6,2.1-0.2,7-0.8,10.2c-0.6,3.2,3,4.9,4.2,7.4
			c1.3,2.5-0.2,8.1,0,11.7c0.2,3.6,6.8,1.5,7.2-0.2c0.4-1.7,3-5.9,8.7-4.2c5.7,1.7,16.6,12.3,18,10.6c1.5-1.7-5.1-14.9-3.8-17.6
			c1.3-2.8,11.5-15.3,11-18.9c-0.4-3.6-2.8-4.2-0.6-7.2c2.1-3,0.4-10.2-0.2-12.3c-0.6-2.1-1.1-8.9-1.1-10.8c0-0.6,0.1-4.2,0.2-8.9
			l-5.3,1.4L890.4,774.6z" />
		</g>
		<path class="st0 ILA section" name="Yilan County" id="17" d="M1119.7,130.8l-5.7,3.5l-2,0.8l-3.5,0.8l-3,0.7l-0.1,2.7l0.1,3.7l-0.7,2.7l-1.8,1.7l-1.3,1.6l-4.5-0.1
		c0,0-1.4,1.3-2.7,1.7c-1.3,0.4-5.7,4.8-5.7,4.8s-2.4,4.2-4.7,4.8c-2.3,0.6-5-1.1-6.4-0.4c-1.4,0.7-7.1,7.8-10.5,8.3
		c-3.4,0.6-13.9,5-15,7.5c-1.1,2.5-0.4,13.9-2.5,15.4c-2.1,1.6-6.1,0-7.6,1.1c-1.6,1.1-0.7,6.5-3.4,7.5c-2.5,0.9-5.9,2.7-10.7,2.5
		l0.4,2.2l-1.1,4.5l-1.1,2.4l-3.1,3l-0.3,3.1l-1.4,2.8l-2.1,0.8l-1.8-1.6l-2.9,0.2l0.5,3.7l-1.4,4.1l-3.4,2.7l0.1,3.3l0.4,2.3
		l-1.3,2.8l-2.3,2.3l-2.5,0.7l-1.6,3.4l-0.7,2.4l-2.8,2l-2.1,2.4l-1.6,2l-2,2.7l0.4,1.4l0,0l1.1,1c0,0-1.1,5.5,0.4,6.9
		c1.6,1.4,5.7,0,7.1,1.6c1.4,1.6-0.1,3.5,1.7,4.4c1.8,0.8,6.8-3.1,9.3-1.6c1.6,1,3.5,2.6,5.1,4l0,0c1,0.9,1.9,1.7,2.5,2
		c1.6,1,5.2,0.8,5.9,1.4c0.7,0.6,2.3,3.7,3.7,3.8c1.4,0.1,3.8-0.8,5.7-0.4s5.4,1.1,5.8,1.3c0.4,0.1,1.1,3.1,1.1,3.1l1.7,2l2.4-0.6
		l1.8-1.3l2.3,0.3l0.6-0.7l0.6-2.4l2.4-0.7l3-1.3l1.8-1.7v-2.5l2.8-1l0.7,1.4l3,1.3l6.5,2.1l2.1,2.4l3.5,0.3l3.3,0.3l3.7,1.7l2,0.8
		l0.9,0.1c0.1-1.1,0.2-2.5,0.6-3.5c0.6-2.1,3.6-13.8,5.3-18c1.7-4.2,5.9-11.9,5.9-11.9l3.8-3.4l3-1.7l-1.3-2.1l-2.1-3.8l1.9-3.4
		l3.8-1.5l2.1-1.5l-1.5-4.7l-1.5-8.3l2.8-0.6l2.1-0.4l0.4-2.5l-3.4-1.3l-3.4-2.1c0,0-1.9-5.5-2.3-8.3s-4.7-16.6-5.3-18.5
		s-0.8-10.4-1.1-12.1c-0.2-1.7,2.3-8.7,2.5-11.5s3.4-9.8,3.4-9.8l3.2-3.4l3.8-3l2.5-1.9l0.4-3.2l3.6-4.2c0,0,6-6.3,8.5-8.9l-4.3,0.3
		L1119.7,130.8z" />
		<path class="st0 NTPC section" name="New Taipei City" id="02" d="M1134.4,129.1c0,0,3.4-3.4,3.6-4.5c0.2-1.1-3.6-3.6-3.6-3.6s-5.7-0.6-7.4-1.3c-1.7-0.6-3-6.2-3-6.2l-1.7-6.8
		l-0.4-4.9l-0.6-5.1l-5.7,1.7l-3.2,0.4l-3.8-1.3l-5.1-1.5l-5.3-1.1c0,0.9-0.2,1.7-0.7,2.2c-2.3,2.4-5.9,2.7-6.9,3.8
		c-1,1.1-3,2.4-2.5,4.5c0.4,2.1,3.1,4,1.3,5.7c-1.8,1.7-7.6,2.3-10.3,1.4c-2.7-0.8-5.5-2.1-7.6-3.5c-2.1-1.4-5.5-0.8-5.9-3
		c-0.4-2.1-3-5-3-7.9c0-3,1.4-5.7,3.8-6.1c2.4-0.4,4.8-0.8,5.2-1.4c0.3-0.4,2.9-1.4,4.5-3.6l-0.6-0.1l-3.4-1.9l-2.1-8.3
		c0,0-2.5-0.8-4.5-1.3c-1.9-0.4-5.6-7.9-5.6-7.9c0-2.8-2.8-6.8-5.1-7.9c-2.3-1.1-9.1-2.8-9.1-2.8s-6.8,0.6-8.5,1.7
		c-1.7,1.1-12.4,10.2-12.4,10.2s-6.2,9.6-9.1,11.3c-2.8,1.7,1.7,7.9,1.7,7.9c-3.3,4-4.6,3.3-6.9,4.3c-2.3,1.1-12.1,4-17.2,5.7
		c-1.9,0.6-4,0.9-6.2,1l2.3,1.8l6.1,3l4.8,4.7l0.6,2.1l2.3,0.4l3.4,1.6l2.3,2.1l3.3,2.1v0.8l-1.1,1.4l0.8,2l0.6,2.3v2.8l-2.8,3.8
		l-3.5,1.6l-5.2-0.6l-2.7,0.3l-2.3,2.1l0.3,4.4l0.4,4.1l0.8,5l1.1,4.2l2.4,1.6l0.6,5.1l-1.7,3.1l-0.8,2.4l2.3,0.6c0,0,2.5,0,3.4,0
		c0.8,0,3.4-0.1,3.4-0.1l2-0.4l2,2.7l2.8,3.1l4.7,4l1.6,2.7l0.3,2l-2.8,1.8l-0.4,3.1l2.4,3.5l3.7,6.6l2.8,4.2l1,4l0.2,1
		c4.8,0.2,8.2-1.5,10.7-2.5c2.7-1,1.8-6.4,3.4-7.5c1.6-1.1,5.5,0.4,7.6-1.1c2.1-1.6,1.4-12.9,2.5-15.4c1.1-2.5,11.6-6.9,15-7.5
		c3.4-0.6,9.1-7.6,10.5-8.3c1.4-0.7,4.1,1,6.4,0.4c2.3-0.6,4.7-4.8,4.7-4.8s4.4-4.4,5.7-4.8c1.3-0.4,2.7-1.7,2.7-1.7l4.5,0.1
		l1.3-1.6l1.8-1.7l0.7-2.7l-0.1-3.7l0.1-2.7l3-0.7l3.5-0.8l2-0.8l5.7-3.5l2.8-0.1l4.3-0.3c0.5-0.5,0.9-0.9,1-1.1
		C1128.9,128.3,1134.4,129.1,1134.4,129.1z M1065,120.1l-2.3,0.8l-1.8,0.4l-1.7,1.4l-2.5,1l-3.4,0.6l-0.7,3.8l1.7,2.4l2.4,2.8
		l0.4,1.3l-2.8,1.7l-4.8,0.6l-2.3-0.3l-2-3.5l-1.1-2.3c0,0-2.4-1.3-4-1.3c-1.6,0-3.4,0-3.4,0l0.3-2.5l0.4-1.7c0,0,0.6-0.7-0.7-0.7
		c-1.3,0-3.1,0-3.1,0l-1.3,2l-2.7-0.8l-1.1-2.8l-1-5.1l3.3-3l1.1-3.8l-0.6-4l-2.5-1.6l-3.8-2.3l-1.6-5.7l0.4-2.1l3.3-2.4l3.3-3.8
		l5.4-2.7l2.1-1.1l2.5-2.1l1.8-3.5l3.1-0.6l6.5,4.8l1.7,7.1l0.1,3l-0.6,3.3l-0.1,1.4l0.7,1.7l3.3,1.3l2.5,4l0.8,3.7v2.5l-3.1,2.3
		l-0.4,1.1l3.7,0.6l2.5,0.8l3.5,1.8L1065,120.1z" />
		<path class="st0 KHH section" name="Kaohsiung City" id="15" d="M801.7,701.2l1.3-12.3l-1.7-6.8c0,0-1.7-4.7-0.8-8.1c0.8-3.4,5.1-8.9,5.9-11.9c0.8-3-0.4-22.9-0.4-24.6
		c0-1.7,0-6.8,3.4-7.6s9.3,1.3,9.3,1.3s2.5,3.8,5.5,3s10.2-8.5,12.7-10.6c2.5-2.1,11-3.8,12.3-3.8s1.7,5.5,3.8,5.5s6.4-4.2,8.9-3.8
		c2.5,0.4,8.9,9.3,12.7,8.9s7.6-5.9,11-5.5c1.7,0.2,5.4,1.8,8.5,3.2l-0.4-2.4l-5.1-7.6l-3.4-10.2v-8.5l4.7-3.8l1.3-4.2l3.8-5.1
		l3.8-3.8l-3-4.7l-0.4-3.8l2.1-5.5V562l-1.3-5.1l4.7-1.7l2.5-9.3l0.8-8.1l5.9-2.5l4.7-4.2l4.7-3l7.2-1.7l3.9-2.2
		c-0.3-0.2-0.5-0.3-0.5-0.3s2.5-6.4,2.1-8.5c-0.4-2.1-11-5.9-11-11.9c0-5.9,8.5-7.6,8.5-7.6v-2.5l-3-4.2l0.6-1.1l-3.8-2.9l-3.2-0.8
		l-4-0.8l-3.6-1.5l-5.7,0.8l-5.5,1.1l-1.9-0.6l-0.4,0.4l-4.2,2.5l-3.4,5.5l-5.9,5.9l-2.1,8.1c0,0-9.8,5.5-13.6,7.2
		c-3.8,1.7-11,13.2-12.7,14c-1.7,0.8-8.5-1.3-10.2,0c-1.7,1.3-1.3,8.1-1.3,11c0,1.1,0,3.8,0,6.6l0,0c0,4.6-0.1,9.9-0.4,11.2
		c-0.4,2.1-4.7,1.3-5.5,2.5c-0.8,1.3-5.1,11.9-8.5,17c-3.4,5.1-22.5,15.7-26.3,18.7s-6.8,18.2-6.8,18.2s-6.4-1.3-8.9-0.4
		c-2.5,0.8-7.6,6.8-9.8,6.8c-2.1,0-4.7-1.3-8.9-1.3c-4.2,0-5.1,3-7.2,3c-2.1,0-2.5-4.7-9.3-7.6c-3.7-1.6-8-1.2-11.2-0.5
		c0.4,4.3,5.4,15.3,8.9,24.3c3.6,9.3,6.8,25.9,7.9,30.1c1.1,4.2-3.2,6.4-2.5,8.5c0.6,2.1,5.5,7.2,8.9,11.5s10,18.2,12.3,20.2
		c2.3,1.9,4.2-0.2,5.9,0.4c1.7,0.6,8.1,5.9,10,6.6c1.9,0.6,4-3,4-3s0,1,0.2,2.1l1.9-3L801.7,701.2z" />
		<path class="st0 CHY section" name="Chiayi County" id="13" d="M750.4,523l8.1-8.5l4.2-3.4l5.5-6.8h8.9l7.2-5.9l9.8-0.4h7.6l7.6,1.3l5.9,4.2l-1.3,3.4l-0.8,2.1l3.4,1.3
		l1.7,4.2v3.4l3,2.5l4.2,2.1l-4.7,3.8v8.5v5.1l4.2,3h6.4l5.5-7.2l4.2,7.2l4.6,1.5c0-2.9,0-5.5,0-6.6c0-3-0.4-9.8,1.3-11
		c1.7-1.3,8.5,0.8,10.2,0c1.7-0.8,8.9-12.3,12.7-14c3.8-1.7,13.6-7.2,13.6-7.2l2.1-8.1l5.9-5.9l3.4-5.5l4.2-2.5l0.4-0.4l-3-0.9
		l-3.8-1.1l-3.2-3l-3.4-2.1L883,474l-2.3-5.9l1.1-2.8l1.7-3.8c0,0,1.3-6.6-0.4-7.6c-1.7-1.1-5.1,0.4-7-0.8c-1.9-1.3-2.8-3.6-4-4.7
		c-1.3-1.1-2.8,1.3-2.8,1.3l-2.8,0.8l-0.3-0.1l0.2,7.4l-1.7,2.8l-2.4-0.3l-3.1-1.8c0,0-10.9,0.7-12,0.1c-1.1-0.6-2-5.4-5.1-5.5
		s-3.7,2.7-5.5,3.7c-1.8,1-9.1-0.6-12.3-2.3s-4.4-5.2-5.8-7.1c-1.4-1.8-7.4-0.1-7.4-0.1l-2.1,0.3l-8.5,0.1c0,0-7.4,1.7-9.9,2.8
		c-2.5,1.1-6.9-0.1-10.5,1.7c-3.5,1.8-0.7,6.2-2.1,7.6c-1.4,1.4-6.5,1-7.8,2c-1.3,1-2,3.8-2.7,5.1c-0.7,1.3-6.1-1.6-8.2,0.1
		c-2.1,1.7,1.1,4.5-0.1,6.4c-1.3,1.8-5.7-0.3-5.7-0.3l-5.5-1.8l-4.7-1.7l-3.8-1.6c0,0.1,0,0.1,0,0.2c0.2,1.5-3.8,0.4-5.5,1.5
		c-1.7,1.1,0,6.4,0.2,7.6c0.2,1.3,3.6,2.1,3.6,2.1s-0.2,2.5-0.2,3.8c0,1.3,2.3,4.2,2.3,5.3c0,1.1-3.2,0.8-3.2,3s2.1,5.5,2.5,7.4
		s-2.8,2.8-4,4.7c-1.2,1.8,0,7.9,0.5,11.4l3.9,2.4L750.4,523z M791.7,476.3l7.2-0.6l3.7-1.3l4.1-2.1l2.8,1.4l3.7,2.5l4.4,4.4l3,2.7
		l0.1,1.4l-1.8,2.3l-1.7,2.4l-1.8,0.4c0,0-2.1-3-3.7-2.4c-1.6,0.6-3,5.2-5.4,5.2c-2.4,0-3.3-3.1-5.1-4.4c-1.8-1.3-5.5,0.1-6.2-1.8
		c-0.7-2,1-4.2,0.6-5.5S791.1,478.4,791.7,476.3z" />
		<path class="st0 TNN section" name="Tainan City" id="14" d="M754.2,612.5c6.8,3,7.2,7.6,9.3,7.6c2.1,0,3-3,7.2-3c4.2,0,6.8,1.3,8.9,1.3c2.1,0,7.2-5.9,9.8-6.8
		c2.5-0.8,8.9,0.4,8.9,0.4s3-15.3,6.8-18.2s22.9-13.6,26.3-18.7c3.4-5.1,7.6-15.7,8.5-17c0.8-1.3,5.1-0.4,5.5-2.5
		c0.3-1.3,0.4-6.6,0.4-11.2l-4.6-1.5l-4.2-7.2l-5.5,7.2h-6.4l-4.2-3v-5.1v-8.5l4.7-3.8l-4.2-2.1l-3-2.5v-3.4l-1.7-4.2l-3.4-1.3
		l0.8-2.1l1.3-3.4l-5.9-4.2l-7.6-1.3h-7.6l-9.8,0.4l-7.2,5.9h-8.9l-5.5,6.8l-4.2,3.4l-8.1,8.5l-10.6-5.5l-3.9-2.4
		c0,0.2,0.1,0.5,0.1,0.7c0.4,3.4-7,5.9-8.9,8.1c-1.9,2.1-3.6,18.5-3.6,26.9c0,8.5-8.7,18.7-10,21c-1.3,2.3,1.5,1.9,2.1,4.2
		c0.6,2.3-3.2,6.6,0.2,6.6s14.2,7.2,16.8,10c2.5,2.8,4.2,1.5,5.1,2.3c0.8,0.8-0.8,4.9-0.6,5.7c0.2,0.8,5.7,4,5.7,4s0.2,3,0.2,6.8
		c0,0.2,0,0.4,0,0.5C746.2,611.3,750.5,610.9,754.2,612.5z" />
		<path class="st0 TPE section" name="Taipei City" id="01" d="M1060.4,115.8l-3.7-0.6l0.4-1.1l3.1-2.3v-2.5l-0.8-3.7l-2.5-4l-3.3-1.3l-0.7-1.7l0.1-1.4l0.6-3.3l-0.1-3
		l-1.7-7.1l-6.5-4.8l-3.1,0.6l-1.8,3.5l-2.5,2.1l-2.1,1.1l-5.4,2.7l-3.3,3.8l-3.3,2.4l-0.4,2.1l1.6,5.7l3.8,2.3l2.5,1.6l0.6,4
		l-1.1,3.8l-3.3,3l1,5.1l1.1,2.8l2.7,0.8l1.3-2c0,0,1.8,0,3.1,0c1.3,0,0.7,0.7,0.7,0.7l-0.4,1.7l-0.3,2.5c0,0,1.8,0,3.4,0
		c1.6,0,4,1.3,4,1.3l1.1,2.3l2,3.5l2.3,0.3l4.8-0.6l2.8-1.7l-0.4-1.3l-2.4-2.8l-1.7-2.4l0.7-3.8l3.4-0.6l2.5-1l1.7-1.4l1.8-0.4
		l2.3-0.8l1.6-1.6l-3.5-1.8L1060.4,115.8z" />
		<path class="st0 section CYI" name="Chiayi City" id="12" d="M795.5,481c0.4,1.3-1.3,3.5-0.6,5.5c0.7,2,4.4,0.6,6.2,1.8c1.8,1.3,2.7,4.4,5.1,4.4c2.4,0,3.8-4.7,5.4-5.2
		c1.6-0.6,3.7,2.4,3.7,2.4l1.8-0.4l1.7-2.4l1.8-2.3l-0.1-1.4l-3-2.7l-4.4-4.4l-3.7-2.5l-2.8-1.4l-4.1,2.1l-3.7,1.3l-7.2,0.6
		C791.1,478.4,795.1,479.7,795.5,481z" />
		<g class="TTT st0 section" name="Taitung County" id="19">
			<path class="st0" name="臺東縣" id="19" d="M1023.2,489l-5.9-1.3l-6.4,5.5l-1.7,5.9l5.1,5.1l-2.5,6.4l-8.5,12.3l-2.5,14c0,0-2.1,7.6-4.7,10.6
			s0,11.9-0.4,16.1s-4.7,2.5-12.7,3.8c-8.1,1.3-1.7-3-3.8-6.8c-2.1-3.8-6.4,0-9.3-2.1c-3-2.1-5.9-13.2-8.1-13.2
			c-2.1,0-5.1,3.8-8.5,3.8s-3.8-7.6-6.4-8.5c-2.5-0.8-9.3,0.4-9.8-6.4c-0.4-5.7-4.9-9.3-6.3-10.3l-3.9,2.2l-7.2,1.7l-4.7,3l-4.7,4.2
			l-5.9,2.5l-0.8,8.1l-2.5,9.3l-4.7,1.7l1.3,5.1v6.4l-2.1,5.5l0.4,3.8l3,4.7l-3.8,3.8l-3.8,5.1l-1.3,4.2l-4.7,3.8v8.5l3.4,10.2
			l5.1,7.6l0.4,2.2l0,0.2l0.4,2.3l0.4,6.8c0,0,6.8-1.3,7.6,0c0.8,1.3,1.7,6.8,0.8,8.5c-0.8,1.7-9.8,10.6-9.8,10.6l-7.6,3l-4.2,5.1
			h-5.1l-2.5,5.9v5.5l-6.8,13.2c0,0-1.3,6.8,0,8.9c1.3,2.1,3,10.6,3,10.6l1.3,8.5l2.5,7.6l3,5.1l-6.8,3.4l-1.7,6.8l2.1,4.2l3.8,1.7
			l3,6.4l-2.5,2.5l-1.7,2.1l3,4.2l4.7,3.8l-2.5,3.4l6.4,1.3l5.5,5.1l3.4,1.3l5.3-1.4c0.2-9.8,0.7-24.4,1.3-27
			c0.8-3.8,6.2-11.7,7-14.2c0.8-2.5,12.9-37.6,15.1-41.8c2.1-4.2,4.2-14.2,6.2-18.7c1.9-4.5,10.2-5.7,19.3-9.5s16.8-17.6,18.7-19.9
			s-1.1-5.9-1.1-10.6s3.2-8.7,6.4-9.1c3.2-0.4,4.2-1.5,4.9-3.8c0.6-2.3,13.2-21.2,14.9-25.9c1.7-4.7,10.4-24.2,12.3-27.2
			c1.9-3,9.1-2.8,9.1-3.6s-2.3-2.8-2.8-4.2c-0.4-1.5-1.1-10.4-0.6-12.3c0.4-1.9,4.5-1.9,4.5-2.8s-3-2.5-3.8-3.4
			c-0.8-0.8,2.1-6.2,3.8-8.9c1.7-2.8,2.5-7.6,2.8-9.1c0.2-1.5,6.2-0.8,7-2.5c0.8-1.7,2.1-11.5,3-13.8s4-13.8,4-13.8l-1.7-0.8v-0.1
			c-2.1-0.1-3.8-0.1-4.2-0.1C1023.7,491.1,1023.2,489,1023.2,489z" />
			<polygon class="st0" name="臺東縣" id="19" points="1032.5,806 1029.1,803 1030.8,796.6 1021,795.8 1014.2,794.9 1016.3,798.8 1018.4,804.3 
			1023.1,807.2 1026.5,808.5 1029.5,811.9 1033.7,816.6 1036.7,811.1 		" />
			<polygon class="st0" name="臺東縣" id="19" points="1036.3,825.5 1036.7,829.7 1038.4,832.3 1040.9,829.3 1039.7,825.1 		" />
			<polygon class="st0" name="臺東縣" id="19" points="1051.5,819.1 1051.1,823.8 1054.5,826.8 1056.2,822.1 1059.6,821.7 1060.5,816.6 1054.9,816.6 		" />
			<path class="st0" name="臺東縣" id="19" d="M1013.3,680.5c0,0-1.3,0.8-1.9-0.6c-0.6-1.4,2-2.9,1.5-4.6s-0.3-2.8,0.6-3.1c0.9-0.3,2.6,0.8,2.6,0.8
			s1.1-0.9,1.4,0c0.3,0.9,2.7,2.5,2.7,3.3c0,0.8,1.5,3.6-0.1,4.7s-2.7-0.7-4-0.9C1014.8,679.9,1013.3,680.5,1013.3,680.5z" />
		</g>
		<g class="st0 KMN section" name="Kinmen County" id="21">
			<path class="st0" name="金門縣" id="21" d="M159.5,523.8c0,0,4.3-0.2,7,1.8c2.7,2,3.4,3.8,3.4,3.8l3.2-5.2l2.5-1.6l4.9-2.2l1.1,2.3l2.2-0.2l3.8-3.2
			l-1.4-1.3l0.5-2.9l2.7-1.8l4.1-1.6l1.3,1.1l0.5,1.4h4.3l0.4-2l0.9-2.2l-0.2-2.5l-1.1-3.2l2.7-3.2v-2l0.4-2.5c0,0-3.6-2.3-4.3-2.9
			c-0.7-0.5-7.7-4.9-7.7-4.9l-3.8-1.4l-3.2,0.7l-1.6,2.7h-2.5l-3.1,0.4l-3.6,2.7l-0.7,3.8v4v2.3l-1.6,2.9l-0.4,2.2l-1.1,0.7h-3.1
			l-2.2,0.5l-0.4,1.3l1.1,2.2l-0.5,3.1l-1.4,4l-0.5,1.4L159.5,523.8z" />
			<path class="st0" name="金門縣" id="21" d="M229.9,481.7l-0.5-2.3l-4.1-1.8l-5.9-4.5l0.4-3.8c0,0,2-5.8,3.2-5.9s4.7,0.5,5.4,0.4s0.7-4.1,2.3-4.5
			c1.6-0.4,4.3-0.5,5-0.7s0.7-2.2,1.8-2.3s3.6,0.5,4.5,1.8c0.9,1.3,10.1,8.4,11.1,9.2c1.1,0.7,6.7,5.2,8.4,6.1
			c1.8,0.9,5.6,3.6,5.6,3.6h2.5l2.9,0.9c0,0,5.6,1.6,7,2s6.5,0.7,6.5,0.7l4.7-7.2l2.7-3.8c0,0,1.1-3.2,0.5-4
			c-0.5-0.7-3.4-3.1-3.1-3.6c0.4-0.5,5,0.4,5.8-0.2c0.7-0.5,1.1-2.9,1.1-2.9l1.6-1.6l1.4-1.1l1.4-1.8l0.4-2.9l-1.3-2l-1.8-0.5
			l0.2-2.9l1.1-3.2c0,0-0.5-4,0.4-4.7c0.9-0.7,6.5-1.1,6.5-1.1l2.9-2l0.9-2l2.2-0.7l-0.5-3.1l0.9-2.7l-1.1-3.4l0.9-1.1l1.6,1.3
			l1.4,3.2l1.4-0.4l0.5-2.3l3.4-1.3l3.4,1.1l2,1.3l0.7,1.8l0.9,1.6l0.7,0.5v4l1.3,3.6l4,2.3l4.9,0.2l4.3,1.1l1.1,0.7l0.2,2.5
			l-0.9,2.3l0.5,3.1l2.3,2.3l2.3,0.4l0.5,2.2l-1.1,2.5l1.4,4.5l1.4,2.7l2.7,0.4l2.5-0.5l2.3,0.4l0.7,2.2l-2.2,0.9l-2,3.2
			c0,0-0.5,5.8-0.2,8.1c0.4,2.3,2.3,8.8,3.6,9.7s4.5,1.4,4.5,1.4l-0.4,1.8l1.4,0.5l2.5-0.9v1.8l-2.2,0.9h-2.2l-0.4,2.3v1.6l-2,2.3
			l-4.5-1.4l-0.2,1.8l-1.3,2.7l1.8,2.3l0.4,2.2l-0.7,2.7l-1.4,2l-1.3,0.7l-1.4-0.9c0,0-2.5,1.4-2.3,2.5s1.4,3.4,1.4,3.4l-1.3,2.5h-2
			l-2.9,0.4l-1.3,1.3l-0.9,1.8l-3.2,0.4l-0.9,0.5l-3.6,1.4l-3.4,1.6l-5.9,0.5l3.1-2.5l3.6,0.2c0,0,0-6.7-1.3-9s-5.4-4.1-8.3-5.2
			c-2.9-1.1-8.1-1.4-9-2.3c-0.9-0.9-2-3.2-6.5-4.9c-4.5-1.6-14.9-0.9-22.8,2.7c-7.9,3.6-16.9,9.5-18,11c-1.1,1.4-4,7.5-4,7.5
			l-2.7,1.8l-2.5,4l-0.9,3.8l-0.5,2.9l-2.3,2.5l-0.7,2.3l-2.5,2.5l-3.6,1.4l-3.4-2.2l-4-1.6l-3.8-0.4l-5.2-5.2h-4.3l-2-3.1l-3.2-2
			l-1.1-3.2l-8.4-5.8l-0.4-2.7l1.3-1.3h3.1l3.1-0.9l1.3-0.5l5-0.4l-0.2-5l2-2l4.1-1.4l4-1.5v-5.9c0,0-0.4-7.4-2-10.2
			c-1.6-2.9-4-5.8-4-7C229.2,483.2,229.9,481.7,229.9,481.7z" />
		</g>
		<g class="st0 section LNN" id="22" name="Lienchiang County">
			<path class="st0" id="22" name="連江縣" d="M298.6,227l-0.2-2.6l1.3-1.3l-0.4-2.8v-1.1h2.6l1.5,1.3l2.6-0.6l1.5,1.3l0.8,0.9l0.6,2.8l2.3,0.9l0.8,1.5
			l3.6,0.2h2.3l4.1-0.4h3v1.9l0.8,0.6l1.1,2.3l-1.3,1.3h-2.3l-1.5-0.9l-1.3,0.8v1.3l0.6,1.1l-0.2,2.1l-0.8,2.1l-1.7,4.5l-1.9,2.3
			v2.3l0.4,2.1l0.2,2.1l3.2,0.4l2.3,0.8l1.5,0.6l1.5,0.8l2.3-1.1l2.3-2.8l2.1,0.4l0.8,3l0.4,1.9l-3-0.8v1.9l2.6,1.7l2.1-0.6l3.2,0.4
			l0.9-1.3h2.3l0.6,2.6l0.4,4.1l0.4,4.7l1.7,0.6l1.1-2.5l3.8-2.5l0.4-1.9l2.5-0.6l2.6-0.2l3.8-1.7l-1.1-5.7v-2.5l-6.8-0.8l0.2-2.5
			l5.8,0.4l2.5-1.7l1.1-3.2l-10-1.5v-1.1l10.6,1.5l3.6-1.5l4-1.7l2.6-1.7l0.8-0.9l2.3,0.4l0.9-1.7l1.3-0.4l2.6,0.9l1.9,1.3l0.6,2.5
			l0.4,1.7l-1.7,1.9l1.1,1.1l1.5-0.9l1.1-2.8l1.3-3.2l1.3-1.5l5.3-1.1l2.3,0.6l2.6-1.1l0.8,0.6l0.4,0.9l4.5,0.9l2.1,0.9l2.1,0.8
			l3.8-2.6l1.5-2.1l1.3,1.7l-1.1,1.5l-2.6,1.3l-0.6,1.5l-2.1,0.6l-0.6,2.8l-2.5,0.8v1.5l0.8,1.5h-2.1v0.9l1.9,1.9l-0.9,1.5l-1.3,1.7
			l-0.9,5.7l-0.9,0.9l-1.3,0.2l-1.1,1.3l-3.8,0.6l-1.1,3.2l-0.2,1.9c0,0-0.8,4.1-1.5,4.7c-0.8,0.6-1.9,1.7-1.9,1.7v1.5l-2.1,0.9v2.3
			l-2.8,0.6l-1.9-0.8l-0.6-1.9l-4.5,0.8L377,277l3.2-1.1l-1.9-2.8c0,0-3.6-0.4-4.3,0c-0.8,0.4-3,1.9-3,1.9l0.9,2.3l0.4,1.3l-0.8,1.1
			l-0.9,2.3l0.4,1.7l-0.9,1.5h-1.9h-2.5l-0.2,2.1l0.4,1.7l-2.8,2.8l-3.2,0.2l0.2,1.9l-1.5,1.9l-1.5,0.9l-2.8,0.8l-3.6,0.4l-4.1,0.2
			l-2.1-2.8v-1.7l-0.6-2.3h-2.1c0,0,0.6,1.7-0.2,1.7c-0.8,0-2.3,0-2.8,0.2c-0.6,0.2-0.9,2.6-2.1,3c-1.1,0.4-3.8-0.4-3.8-0.4
			l-0.8,1.9l-1.9,2.3l-2.8,2.5l2.5,1.5l0.9,1.5l-2.6,0.8H324l-3.8,1.7l-1.5,2.6l-3.2,0.6l-1.3-2.3l0.4-2.1l1.1-1.9l-0.2-2.5
			l-2.8-1.1l-3.8-0.4l-2.8,0.6l-5.5,0.6c0,0-2.3,0-3.4-0.4c-1.1-0.4-2.8-1.9-2.8-1.9l-0.8-0.2l-2.5,0.8l0.9-4.1l-0.2-3l-1.7-0.4
			l-1.3,0.9l-1.9,1.3l-3.8-0.6l-0.2-2.1l3-4l1.1-3v-4l1.9-2.3l2.5-2.1l2.6-4l0.2-3.6l-0.2-1.1l2.6-1.1l3.2-4.7l-1.5-4.5l-1.9-1.7
			l-3.8,1.3l-1.3-0.6l0.6-2.5l3.4-2.6l3.2-4.5l-0.2-2.8l2.6-0.8l2.1-1.3l0.8-3.8l-1.1-1.9l-2.6,0.2l-1.5-0.9l-1.3-1.3l-0.6-2.1
			l1.1-1.9L298.6,227z" />
			<polygon class="st0" id="22" name="連江縣" points="422,234.6 424.3,235.9 422.4,238.9 423.7,240 422.8,242.1 425.6,241.4 424.1,244 423,245.5 
			422.6,248.1 421.3,248.9 420.5,250.6 418.8,252.1 417.5,249.8 416.6,244.9 417.7,240.8 418.8,238.2 420.1,235.7 		" />
			<polygon class="st0" id="22" name="連江縣" points="499.1,31.6 501.8,29.5 501.8,26.8 502.7,23.3 505.7,23.1 507.8,24.8 509.7,24.6 514.2,23.8 
			514.4,25.5 516.5,26.7 512.5,28.7 513.5,30.1 511.4,31 506.3,31 504.2,31.4 501,32.3 		" />
			<polygon class="st0" id="22" name="連江縣" points="496.1,35 495.4,39.3 494.2,43.2 492.7,44.4 491,42.5 490.6,44 491.2,46.6 490.3,48.3 487.3,48.7 
			485.6,48.5 484.2,48.9 483.1,51 481.2,51.9 479.5,53.8 479.5,55.9 475,56.6 472.7,53.8 473.7,49.3 475.2,45.7 477.6,42.7 
			478.2,40.4 479.3,37.2 481,38 483.7,38.2 484.6,39.7 486.9,38.5 488.2,37.2 488.8,34.8 490.1,33.4 493.7,33.1 494.6,34.4 		" />
			<polygon class="st0" id="22" name="連江縣" points="520.2,62.5 520.1,66.1 515,65.3 514,64.4 511.4,64.9 508.7,66.2 510.1,67.9 509.3,71.1 506.1,71.3 
			506.1,66.4 507,63.4 510.6,59.5 512.3,58.7 514.2,60.8 514,63 516.5,62.9 		" />
			<path class="st0" id="22" name="連江縣" d="M490.5,99.8l3,0.8l3-1.3l0.6-2.5l-0.4-2.8l3.4-1.7l3.4-2.3l4.3-1.1l2.5,1.3l1.7-0.4l3.2-0.8l1.1,1.5l-0.2,3.2
			l-2.8,3l-1.5,2.5l2.5,0.9h1.5l-0.6,1.5l-3.4,1.9l-3.2,0.9l-0.2,1.9l-2.6,1.5l-0.6,2.5l0.2,2.3l2.8,0.2l1.5,1.3l0.8,1.7L508,117
			l0.2,2.6l1.9,1.7l0.2,1.9l3,0.9l2.1,2.1l-3,1.3l-3.4-0.2l-2.3-3.6l-3.2-0.9l-0.6-3.8l-1.9-7l-2.6-2.1l-1.5-3.4l0.4-2.3l-2.5-0.6
			l-3.4-0.4l-2.1-0.2l-5.1,10l-2.8-1.7l-0.8-1.7l2.5-1.1l0.9-3l-0.9-1.7l-3.2-0.2l-1.9,1.7l0.2,2.1l0.2,4.7l-2.1,1.9l-5.7,0.9
			l-2.3-1.5l-1.5,1.5l-2.5,3.6l-1.5,3.4l-0.4,1.5l-4.3-1.3l1.9-3l-0.4-2.8l-2.5-2.1l-5.5-0.9l-4.3,0.9l-2.8,2.3l-7.5,3.2l-2.6,2.8
			L432,122c0,0-5.7,3.2-6.4,5.1c-0.8,1.9-2.8,7.5-2.6,8.3c0.2,0.8-2.6,3-2.6,3v2.5l1.1,2.3l1.7,1.7l-0.8,6l0.2,4.3l-1.3,2.5l-0.9,3
			l3,2.1l1.5,2.6l0.4,1.3l-1.1,1.3v2.3l4.1,0.2l2.3,2.1l0.8,2.8l-2.6,1.5l-2.6,0.9l-4-2.5l0.6-2.6l-0.4-1.1l-2.6-0.6h-1.7L416,172
			l-2.6,0.2l-2.3,1.9c0,0-3.8,0.4-3.2-1.5c0.6-1.9,1.5-4,1.5-4.9c0-0.9-0.8-4.5-0.8-4.5l-1.5-4l0.9-4.9l-1.5-3.4l1.3-2.1v-1.5
			l1.7-0.2l2.5-0.4l2.1-0.9l-1.7-2.6l-1.3-1.1h-3.2l3.8-1.9l1.7-3.6l2.3-4l1.7-2.5l1.3-2.8l-0.6-2.3l-3-1.7l-1.1-3.2l0.6-3.8
			l0.2-3.4l-3.6-1.3l0.2-2.1v-2.5l2.3-1.1l1.3,0.8l3.4-1.1l1.9,1.1l3.8-4.1l2.6-1.9l0.8-2.3l2.5,2.1l1.3-1.9l2.1-2.8l2.1-1.1
			l2.5-0.4l1.3,1.9l2.8,0.8l2.3-0.2l5.5-3l0.2-3.4l2.5-1.9l4.5-4.1l3.8-3.2l4-1.3l0.4-4.5l2.5-0.2l-0.4-1.5v-1.9l0.2-2.1v-1.3
			c0,0,4.3-3.6,5.7-3.8c1.3-0.2,6.2,0.9,6.2,0.9l4.7,0.2l0.6,2.3l0.6,3.8l1.1,1.9l1.3,1.5l2.3-0.8l4.1-0.9l3.8,0.9l-1.3,3.8
			l-2.6,2.5l1.5,4l2.8,3.2l-1.7,2.8l-1.3,2.1l-2.8,2.8L490.5,99.8z" />
			<path class="st0" id="22" name="連江縣" d="M510.3,129.6l2.8,1.1l1.5,0.2l-0.2,2.1l-2.1,1.9l-2.5,0.9l-3.4-0.6c0,0-0.6-3,0.2-3.6
			c0.8-0.6,2.5-1.1,2.5-1.1L510.3,129.6z" />
		</g>
	</g>
	<g id="圖層_3" class="st1">
		<text transform="matrix(1 0 0 1 760.0554 436.0002)" class="st2 st3 st4">雲林縣</text>
		<text transform="matrix(1 0 0 1 740.722 494.0002)" class="st2 st3 st4">嘉義縣</text>
		<text transform="matrix(1 0 0 1 812.0554 706.0001)" class="st2 st3 st4">屏東縣</text>
		<text transform="matrix(1 0 0 1 1032.7219 236.0001)" class="st2 st3 st4">宜蘭縣</text>
		<text transform="matrix(1 0 0 1 990.0553 410.0002)" class="st2 st3 st4">花蓮縣</text>
		<text transform="matrix(1 0 0 1 910.722 608.6668)" class="st2 st3 st4">臺東縣</text>
		<text transform="matrix(1 0 0 1 595.3886 456.6668)" class="st2 st3 st4">澎湖縣</text>
		<text transform="matrix(1 0 0 1 294.7219 491.3335)" class="st2 st3 st4">金門縣</text>
		<text transform="matrix(1 0 0 1 297.3886 287.3335)" class="st2 st3 st4">連江縣</text>
		<text transform="matrix(1 0 0 1 1069.3885 105.3335)" class="st2 st3 st4">基隆市</text>
		<text transform="matrix(1 0 0 1 872.7219 178.6668)" class="st2 st3 st4">新竹市</text>
		<text transform="matrix(1 0 0 1 796.722 488.6668)" class="st2 st3 st4">嘉義市。</text>
		<text transform="matrix(1 0 0 1 1015.3888 111.3335)" class="st2 st3 st4">臺北市</text>
		<text transform="matrix(1 0 0 1 824.7221 604.6669)" class="st2 st3 st4">高雄市</text>
		<text transform="matrix(1 0 0 1 876.0555 250.6668)" class="st2 st3 st4">苗栗縣</text>
		<text transform="matrix(1 0 0 1 787.3887 377.3335)" class="st2 st3 st4">彰化縣</text>
		<text transform="matrix(1 0 0 1 892.0554 410.0002)" class="st2 st3 st4">南投縣</text>
		<text transform="matrix(1 0 0 1 852.7221 318.0002)" class="st2 st3 st4">臺中市</text>
		<text transform="matrix(1 0 0 1 744.7221 569.3335)" class="st2 st3 st4">臺南市</text>
		<text transform="matrix(1 0 0 1 944.7221 135.3335)" class="st2 st3 st4">桃園市</text>
		<text transform="matrix(1 0 0 1 1012.0555 162.6668)" class="st2 st3 st4">新北市</text>
		<text transform="matrix(1 0 0 1 934.0554 204.0002)" class="st2 st3 st4">新竹縣</text>
	</g>
</svg>