<svg xmlns="http://www.w3.org/2000/svg" xmlns:xlink="http://www.w3.org/1999/xlink" viewBox="0 0 427.4 237"><defs><clipPath id="fab4ba98-15de-4a2c-8fba-6c71d023ccb2"><path id="b77e22a1-e52b-421f-b570-909352698095" data-name="SVGID" d="M166.3,121.5c3.7,3.7,5.5,7.9,3.9,9.6s-5.9-.1-9.6-3.7-5.6-7.9-4-9.5a2.1,2.1,0,0,1,1-.6c1.9-.5,5.5,1.2,8.7,4.2" fill="none"/></clipPath><linearGradient id="a103e1d1-d97e-4ab8-acc6-65ca6b4d3a0a" x1="-625.63" y1="4518.23" x2="-625.38" y2="4518.23" gradientTransform="matrix(0, -67.46, -67.46, 0, 304977.73, -42081.81)" gradientUnits="userSpaceOnUse"><stop offset="0" stop-color="#85b644"/><stop offset="0.08" stop-color="#8cba48"/><stop offset="0.42" stop-color="#a3c856"/><stop offset="0.73" stop-color="#b1d15e"/><stop offset="1" stop-color="#b6d461"/></linearGradient><clipPath id="a96236bf-2d2a-4020-bd7b-8678b894e13f"><path id="e11840eb-d633-44ad-b906-7a3fb06ad277" data-name="SVGID" d="M73.5,118.7c1.2,1.8-1.3,5.7-5.7,8.6s-8.8,3.8-10.1,1.9,1.3-5.8,5.6-8.7,8.3-3.6,9.9-2.2l.3.4" fill="none"/></clipPath><linearGradient id="a882992f-4f30-4a94-88e8-0425399908fd" x1="-640.82" y1="4607.52" x2="-640.56" y2="4607.52" gradientTransform="matrix(67.47, 0, 0, -67.47, 43303.93, 311004.92)" xlink:href="#a103e1d1-d97e-4ab8-acc6-65ca6b4d3a0a"/><clipPath id="b7c52da3-1141-40e2-ad50-5ef37884129d"><path id="adcb12e9-b78f-4b94-8288-573e6f8ca0fe" data-name="SVGID" d="M99.6,146c2.1.7,2.3,5.3.5,10.3s-5,8.2-7.1,7.4-2.3-5.4-.5-10.3,4.6-7.8,6.7-7.5h.4" fill="none"/></clipPath><linearGradient id="b3ab5f87-b0a0-4411-943b-3aa1b45f1a7f" x1="-617.58" y1="4584.16" x2="-617.32" y2="4584.16" gradientTransform="matrix(67.47, 0, 0, -67.47, 41757.64, 309461.41)" xlink:href="#a103e1d1-d97e-4ab8-acc6-65ca6b4d3a0a"/><clipPath id="b3bde34a-2b85-41d5-8a5a-51818a41d7b0"><path id="a971ad51-ebb6-4183-ae0b-b7116913298f" data-name="SVGID" d="M146.4,150c2.2,4.8,2.3,9.4.3,10.4s-5.5-2.2-7.7-6.9-2.3-9.4-.2-10.4a1.7,1.7,0,0,1,1-.1c2.1.2,4.8,3.1,6.6,7" fill="none"/></clipPath><linearGradient id="bdb7baa1-9320-4b37-bc97-2400319e6ece" x1="-618.26" y1="4535.91" x2="-618" y2="4535.91" gradientTransform="matrix(67.46, 0, 0, -67.46, 41858.15, 306157.97)" xlink:href="#a103e1d1-d97e-4ab8-acc6-65ca6b4d3a0a"/><clipPath id="e0cb0dac-239f-4070-a683-faf329dcb8e6"><path id="a0d4d6dc-0d6e-484d-b6db-acc38f012191" data-name="SVGID" d="M158.8,83.5a50.9,50.9,0,1,1-38.9-26.1,50.8,50.8,0,0,1,38.9,26.1" fill="none"/></clipPath><linearGradient id="f3d92f10-0cd2-4e50-aea8-a5941067cbf0" x1="-676.53" y1="4570.61" x2="-676.27" y2="4570.61" gradientTransform="matrix(0, 392.5, 392.5, 0, -1793871.26, 265602.35)" gradientUnits="userSpaceOnUse"><stop offset="0" stop-color="#b6d461"/><stop offset="1" stop-color="#b6d461"/><stop offset="1" stop-color="#85b644"/></linearGradient><clipPath id="e9432186-a855-4c93-9b34-61a86ba0fe32"><path id="b8035289-8bc6-44ac-8a5b-12efb97bbba6" data-name="SVGID" d="M147.1,71.9a48.8,48.8,0,1,1-27.3-12.4,48.7,48.7,0,0,1,27.3,12.4" fill="none"/></clipPath><linearGradient id="b6651e6e-9287-43d5-b5eb-822522f01aff" x1="-668.99" y1="4566.7" x2="-668.73" y2="4566.7" gradientTransform="matrix(376.45, 0, 0, -376.45, 251900.68, 1719241.51)" xlink:href="#a103e1d1-d97e-4ab8-acc6-65ca6b4d3a0a"/><clipPath id="f63243ef-97d4-4c6f-91d1-98a09774c22c"><path id="bde2a758-ed07-431d-b320-c80a0b71d178" data-name="SVGID" d="M102.7,87.9a11.4,11.4,0,1,1-1.9-.4,7.2,7.2,0,0,1,1.9.4" fill="none"/></clipPath><linearGradient id="bd6edc05-ff9b-4aa3-905e-88448bdd24d2" x1="-641.02" y1="4589.63" x2="-640.76" y2="4589.63" gradientTransform="matrix(88.54, 0, 0, -88.54, 56862.4, 406461.06)" gradientUnits="userSpaceOnUse"><stop offset="0" stop-color="#231815"/><stop offset="0.34" stop-color="#322b29"/><stop offset="0.69" stop-color="#3d3837"/><stop offset="1" stop-color="#413d3c"/></linearGradient><clipPath id="a5e1db01-a036-4d97-b546-a54b8f3a28c3"><path id="ac787aaa-eae7-4926-a5b8-cc6e4f9e2d0c" data-name="SVGID" d="M102.3,92.4a7.1,7.1,0,0,1,4.9,8.8,7.2,7.2,0,0,1-8.9,4.9,7.1,7.1,0,0,1-4.8-8.9,7,7,0,0,1,7.6-5.1,5.3,5.3,0,0,1,1.2.3" fill="none"/></clipPath><linearGradient id="aec236c3-7f3d-44eb-8a68-bcb540b74e4b" x1="-686.14" y1="4484.15" x2="-685.88" y2="4484.15" gradientTransform="matrix(0, -55.17, -55.17, 0, 247489.03, -37770.33)" gradientUnits="userSpaceOnUse"><stop offset="0" stop-color="#898a8a"/><stop offset="0.02" stop-color="#878888"/><stop offset="0.38" stop-color="#727271"/><stop offset="0.71" stop-color="#656463"/><stop offset="1" stop-color="#605f5e"/></linearGradient><clipPath id="acfbc396-7b28-49fa-ad31-02a704ddbef4"><path id="e0f0a6a3-1506-41ad-958f-4243e2aed3ff" data-name="SVGID" d="M146.9,89a12,12,0,1,1-1.9-.3,10.8,10.8,0,0,1,1.9.3" fill="none"/></clipPath><linearGradient id="ead033b1-16a7-4bee-8195-a6ed77a728f7" x1="-640.59" y1="4589.37" x2="-640.33" y2="4589.37" gradientTransform="matrix(88.54, 0, 0, -88.54, 56846.67, 406443.02)" xlink:href="#bd6edc05-ff9b-4aa3-905e-88448bdd24d2"/><clipPath id="b5763e22-696e-4339-890b-3bb23fe8da67"><path id="af4d7b8b-ea6f-46e6-a5a3-1ac227a9a81a" data-name="SVGID" d="M146.6,93.5a7.2,7.2,0,0,1,4.8,8.9,7,7,0,0,1-8.8,4.8,7.1,7.1,0,0,1-4.9-8.8,7.2,7.2,0,0,1,7.7-5.1l1.2.2" fill="none"/></clipPath><linearGradient id="b6e6f54c-eb95-49bc-90d9-ba14958daedf" x1="-686.92" y1="4483.94" x2="-686.66" y2="4483.94" gradientTransform="matrix(0, -55.17, -55.17, 0, 247524.09, -37798.09)" xlink:href="#aec236c3-7f3d-44eb-8a68-bcb540b74e4b"/></defs><title>資產 2</title><g style="isolation:isolate"><g id="a8351102-ced9-4ef0-ae41-4736bffb9236" data-name="圖層 2"><g id="a9da22d7-4f1c-4026-a1cd-6357961a8bee" data-name="底框"><rect x="107.6" y="77.2" width="319.8" height="80.44" rx="39.7" fill="#6f8825"/><image width="237" height="237" opacity="0.6" xlink:href="%E8%B3%87%E7%94%A2%2021.png" style="mix-blend-mode:multiply"/><g clip-path="url(#fab4ba98-15de-4a2c-8fba-6c71d023ccb2)"><rect x="155.8" y="115.4" width="15.4" height="18.92" transform="translate(-33.2 64.6) rotate(-20.3)" fill="url(#a103e1d1-d97e-4ab8-acc6-65ca6b4d3a0a)"/></g><g clip-path="url(#a96236bf-2d2a-4020-bd7b-8678b894e13f)"><rect x="54.8" y="114.1" width="21.3" height="20.08" transform="translate(-17.2 10.7) rotate(-8.3)" fill="url(#a882992f-4f30-4a94-88e8-0425399908fd)"/></g><g clip-path="url(#b7c52da3-1141-40e2-ad50-5ef37884129d)"><rect x="85.6" y="145" width="21.3" height="20.08" transform="translate(-80.9 111) rotate(-44.2)" fill="url(#b3ab5f87-b0a0-4411-943b-3aa1b45f1a7f)"/></g><g clip-path="url(#b3bde34a-2b85-41d5-8a5a-51818a41d7b0)"><rect x="133.2" y="144.5" width="18.9" height="15.38" transform="translate(-11.5 292.7) rotate(-89.2)" fill="url(#bdb7baa1-9320-4b37-bc97-2400319e6ece)"/></g><g clip-path="url(#e0cb0dac-239f-4070-a683-faf329dcb8e6)"><rect x="50.5" y="45.2" width="126.5" height="132.11" transform="translate(-25 189.1) rotate(-73.6)" fill="url(#f3d92f10-0cd2-4e50-aea8-a5941067cbf0)"/></g><g clip-path="url(#e9432186-a855-4c93-9b34-61a86ba0fe32)"><rect x="38.7" y="36.8" width="150.2" height="148.59" transform="translate(-39.3 68.2) rotate(-28.6)" fill="url(#b6651e6e-9287-43d5-b5eb-822522f01aff)"/></g><path d="M76.4,66.7c.2,2.9-2.4,5.4-5.8,5.7s-6.4-1.9-6.6-4.7,2.3-5.4,5.8-5.6,6.4,1.8,6.6,4.6" fill="#efdc3c"/><path d="M82.7,65.8c1.5,2.4.4,5.9-2.5,7.7s-6.5,1.4-8-1-.5-5.8,2.4-7.7,6.5-1.4,8.1,1" fill="#efdc3c"/><path d="M75,72.1c.9,2.7-1,5.8-4.2,7s-6.7-.1-7.6-2.8.9-5.8,4.2-7,6.6.1,7.6,2.8" fill="#efdc3c"/><path d="M82.4,65.2c-2.2,1.8-5.8.9-7.9-1.8s-1.9-6.3.3-8.1,5.8-.9,7.9,1.8,2,6.4-.3,8.1" fill="#eebc2a"/><path d="M91.1,58.9c1.6,2.4.5,5.8-2.4,7.7s-6.5,1.4-8.1-1-.4-5.9,2.5-7.7,6.5-1.4,8,1" fill="#eebc2a"/><path d="M83.4,65.2c1,2.7-.9,5.8-4.1,6.9s-6.7-.1-7.7-2.8,1-5.8,4.2-6.9,6.7.1,7.6,2.8" fill="#eebc2a"/><path d="M70.2,69.1a4.6,4.6,0,0,0,1.1,3l.2.2.2.2v.2H72l.3.2h.2a6.1,6.1,0,0,0,1.4.7H75c5.1.7,8-4.2,9.6-8.2l.6-1.9a.8.8,0,0,0,.2-.4A10.3,10.3,0,0,1,87.6,60h.2a4.7,4.7,0,0,1,4.3-.7h.4c.1-.1.2-.2.2-.3l.6-1.1a.3.3,0,0,1,.1-.2h-.3a6.3,6.3,0,0,0-6.1.6c-2.1,1.4-3,3.7-3.9,6s-2.9,7.8-6.9,8.4c-2.3.3-5-1.1-5-3.8s3.4-3.5,5-3.4a7.5,7.5,0,0,1,4.2,1.4c.1.2.3.3.4.4h.6l-.2-.2-1.9-1.1c-3.4-1.5-8.9-.5-9.1,4" fill="#008742"/><path d="M87.1,65.4l1.2-.3a12.4,12.4,0,0,0,9-11.6H95.5a13.2,13.2,0,0,1-8.4,12" fill="#7db82e"/><path d="M84.3,68.1h-.4c.1.1.1.2.3.2h2.4a14.1,14.1,0,0,0,4.1.1h2A6.6,6.6,0,0,0,97,63.9V62a.6.6,0,0,1-.1-.4c0-.1-.1-.2-.1-.3s-.1-.1-.1-.2l-.2-.5h-.1L95,62.3v.2h0v.2h.1v.2h0v.4h0v.2h-.1v.2h0c-.9,3.8-5.5,4.7-8.8,4.3H85.1l-.8-.3" fill="#7db82e"/><path d="M111.9,102.7a14.3,14.3,0,1,1-27.4-8,14.3,14.3,0,1,1,27.4,8" fill="#fff"/><g clip-path="url(#f63243ef-97d4-4c6f-91d1-98a09774c22c)"><rect x="82.4" y="82.4" width="33.9" height="33.73" transform="translate(-35.4 59.8) rotate(-28.6)" fill="url(#bd6edc05-ff9b-4aa3-905e-88448bdd24d2)"/></g><g clip-path="url(#a5e1db01-a036-4d97-b546-a54b8f3a28c3)"><rect x="91.7" y="90.6" width="17.3" height="17.72" transform="translate(-23.4 167.7) rotate(-73.6)" fill="url(#aec236c3-7f3d-44eb-8a68-bcb540b74e4b)"/></g><path d="M103.2,97.6a5.2,5.2,0,1,1-3.5-6.3,5.1,5.1,0,0,1,3.5,6.3" fill="#fff"/><path d="M103.9,105.1a2.3,2.3,0,1,1-4.4-1.3,2.2,2.2,0,0,1,2.8-1.5,2.3,2.3,0,0,1,1.6,2.8" fill="#fff"/><path d="M89.3,120.8c0,1.6-3.2,2.9-7.2,2.8s-7.1-1.5-7.1-3.1,3.3-2.9,7.2-2.9,7.2,1.5,7.1,3.2" fill="#f0b7bb"/><path d="M160.4,118.6c.3,1.7-2.6,3.5-6.5,4.1s-7.3-.1-7.6-1.7,2.7-3.5,6.6-4.1,7.3.1,7.5,1.7" fill="#f0b7bb"/><path d="M156.1,103.9a14.3,14.3,0,1,1-9.7-17.7,14.2,14.2,0,0,1,9.7,17.7" fill="#fff"/><g clip-path="url(#acfbc396-7b28-49fa-ad31-02a704ddbef4)"><rect x="126.7" y="83.6" width="33.9" height="33.73" transform="translate(-30.6 81.2) rotate(-28.6)" fill="url(#ead033b1-16a7-4bee-8195-a6ed77a728f7)"/></g><g clip-path="url(#b5763e22-696e-4339-890b-3bb23fe8da67)"><rect x="135.9" y="91.8" width="17.3" height="17.72" transform="translate(7.2 211) rotate(-73.6)" fill="url(#b6e6f54c-eb95-49bc-90d9-ba14958daedf)"/></g><path d="M147.5,98.8a5.2,5.2,0,1,1-3.5-6.4,5.3,5.3,0,0,1,3.5,6.4" fill="#fff"/><path d="M148.1,106.3a2.3,2.3,0,0,1-2.8,1.6,2.5,2.5,0,0,1-1.6-2.9,2.3,2.3,0,0,1,2.9-1.5,2.2,2.2,0,0,1,1.5,2.8" fill="#fff"/><path d="M107.6,118.7c1.4-1,2.8,1.3,1.4,2.3s-.3,5.6,2.2,6.3,7.3-.8,6.8-4.3a.8.8,0,0,1,.9-.9,1.2,1.2,0,0,1,1.9.6c.4,1.5.5,2.7,1.6,3.8a4.3,4.3,0,0,0,4.3,1.2c2.6-.8,3.8-4,3-6.5a1,1,0,0,1,1.8-.8,7,7,0,0,1-4.4,9.9c-2.7.7-6-.8-7.7-3.2-2,2.5-6.9,3.4-9.7,2.4-4.6-1.6-6.3-7.8-2.1-10.8" fill="#4a3e37"/></g></g></g></svg>