<?xml version="1.0" encoding="utf-8"?>
<!-- Generator: Adobe Illustrator 19.2.1, SVG Export Plug-In . SVG Version: 6.00 Build 0)  -->
<svg version="1.0" id="圖層_1" xmlns="http://www.w3.org/2000/svg" xmlns:xlink="http://www.w3.org/1999/xlink" x="0px" y="0px"
	 viewBox="0 0 50 50" style="enable-background:new 0 0 50 50;" xml:space="preserve">
<style type="text/css">
	.st0{fill:#7ABC34;}
</style>
<g>
	<path class="st0" d="M31.9,31.4c-1.8-1.8-4.2-2.9-6.9-2.9s-5.2,1.1-6.9,2.9l-3.9-3.9C16.9,24.7,20.8,23,25,23s8.1,1.7,10.9,4.5
		L31.9,31.4z M20.5,33.9l4.4,4.4l4.4-4.4c-1.1-1.1-2.7-1.8-4.4-1.8S21.7,32.8,20.5,33.9L20.5,33.9z M25,19.9c5.1,0,9.7,2.1,13.1,5.4
		l3.9-3.9c-4.4-4.4-10.4-7.1-17-7.1S12.4,17,8,21.4l3.9,3.9C15.3,22,19.9,19.9,25,19.9L25,19.9z"/>
</g>
</svg>
