<?xml version="1.0" encoding="utf-8"?>
<!-- Generator: Adobe Illustrator 19.2.1, SVG Export Plug-In . SVG Version: 6.00 Build 0)  -->
<svg version="1.0" id="圖層_1" xmlns="http://www.w3.org/2000/svg" xmlns:xlink="http://www.w3.org/1999/xlink" x="0px" y="0px"
	 viewBox="0 0 50 50" style="enable-background:new 0 0 50 50;" xml:space="preserve">
<style type="text/css">
	.st0{fill:#7ABC34;}
</style>
<g>
	<g>
		<path class="st0" d="M38.8,14.2H12.7c-3.4,0-6.2,2.8-6.2,6.2v7.1c0,3.4,2.8,6.2,6.2,6.2H14c0.7,0,1.2-0.5,1.2-1.2v-1.7h3V36
			c0,0.7,0.5,1.2,1.2,1.2s1.2-0.5,1.2-1.2v-5.2h4V36c0,0.7,0.5,1.2,1.2,1.2S27,36.7,27,36v-5.2h4V36c0,0.7,0.5,1.2,1.2,1.2
			s1.2-0.5,1.2-1.2v-5.2h3v1.7c0,0.7,0.5,1.2,1.2,1.2h1.3c3.4,0,6.2-2.8,6.2-6.2v-7.1C45,16.9,42.2,14.2,38.8,14.2L38.8,14.2z
			 M12.7,16.5h26.1c1.8,0,3.3,1.2,3.7,2.9H9C9.4,17.7,10.9,16.5,12.7,16.5L12.7,16.5z M38.8,31.3L38.8,31.3l-0.1-1.7
			c0-0.7-0.5-1.2-1.2-1.2H14c-0.7,0-1.2,0.5-1.2,1.2v1.7h-0.1c-2.1,0-3.8-1.7-3.8-3.9v-5.7h33.8v5.7C42.7,29.6,40.9,31.3,38.8,31.3
			L38.8,31.3z"/>
	</g>
	<path class="st0" d="M40,25.1V25v-0.1v-0.1c0,0,0-0.1-0.1-0.1c0,0,0-0.1-0.1-0.1l-0.1-0.1l-0.1-0.1c0,0-0.1,0-0.1-0.1
		c0,0-0.1,0-0.1-0.1h-0.1h-0.1h-0.1H39c-0.1,0-0.2,0-0.2,0h-0.1h-0.1h-0.1h-0.1c0,0-0.1,0-0.1,0.1c0,0-0.1,0-0.1,0.1l-0.1,0.1
		L38,24.6c0,0,0,0.1-0.1,0.1c0,0,0,0.1-0.1,0.1v0.1V25v0.1v0.1v0.1v0.1v0.1v0.1v0.1v0.1c0,0,0,0.1,0.1,0.1c0,0,0,0.1,0.1,0.1
		l0.1,0.1l0.1,0.1c0,0,0.1,0,0.1,0.1c0,0,0.1,0,0.1,0.1h0.1h0.1h0.1h0.1h0.1H39h0.1h0.1h0.1h0.1c0,0,0.1,0,0.1-0.1
		c0,0,0.1,0,0.1-0.1l0.1-0.1l0.1-0.1c0,0,0-0.1,0.1-0.1c0,0,0-0.1,0.1-0.1v-0.1v-0.1v-0.1v-0.1v-0.1v-0.1C40,25.2,40,25.1,40,25.1
		L40,25.1z"/>
	<path class="st0" d="M35.7,25.1V25v-0.1v-0.1c0,0,0-0.1-0.1-0.1c0,0,0-0.1-0.1-0.1l-0.1-0.1l-0.1-0.1c0,0-0.1,0-0.1-0.1
		c0,0-0.1,0-0.1-0.1H35h-0.1h-0.1h-0.1c-0.1,0-0.2,0-0.2,0h-0.1h-0.1h-0.1h-0.1c0,0-0.1,0-0.1,0.1c0,0-0.1,0-0.1,0.1l-0.1,0.1
		l-0.1,0.1c0,0,0,0.1-0.1,0.1c0,0,0,0.1-0.1,0.1v0.1V25v0.1v0.1v0.1v0.1v0.1v0.1v0.1v0.1c0,0,0,0.1,0.1,0.1c0,0,0,0.1,0.1,0.1
		l0.1,0.1l0.1,0.1c0,0,0.1,0,0.1,0.1c0,0,0.1,0,0.1,0.1h0.1h0.1h0.1h0.1h0.1h0.1h0.1h0.1H35h0.1c0,0,0.1,0,0.1-0.1
		c0,0,0.1,0,0.1-0.1l0.1-0.1l0.1-0.1c0,0,0-0.1,0.1-0.1c0,0,0-0.1,0.1-0.1v-0.1v-0.1v-0.1v-0.1v-0.1v-0.1
		C35.7,25.2,35.7,25.1,35.7,25.1L35.7,25.1z"/>
</g>
</svg>
