<?xml version="1.0" encoding="utf-8"?>
<!-- Generator: Adobe Illustrator 19.2.1, SVG Export Plug-In . SVG Version: 6.00 Build 0)  -->
<svg version="1.0" id="圖層_1" xmlns="http://www.w3.org/2000/svg" xmlns:xlink="http://www.w3.org/1999/xlink" x="0px" y="0px"
	 viewBox="0 0 50 50" style="enable-background:new 0 0 50 50;" xml:space="preserve">
<style type="text/css">
	.st0{fill:#7ABC34;}
</style>
<g>
	<path class="st0" d="M33.4,15.5c-0.3,0-0.6,0-0.9,0H17c-5.4,0-9.7,4.4-9.7,9.7c0,5.4,4.4,9.7,9.7,9.7h15.5c0.3,0,0.6,0,0.9,0
		c5.4,0,9.8-4.4,9.8-9.8C43.2,19.9,38.8,15.5,33.4,15.5L33.4,15.5z M33.4,31.6c-3.5,0-6.3-2.8-6.3-6.3s2.8-6.3,6.3-6.3
		s6.3,2.8,6.3,6.3S36.9,31.6,33.4,31.6L33.4,31.6z"/>
</g>
</svg>
